G04 #@! TF.GenerationSoftware,KiCad,Pcbnew,5.1.5*
G04 #@! TF.CreationDate,2020-05-08T01:24:46-04:00*
G04 #@! TF.ProjectId,EVE-PCB-V3,4556452d-5043-4422-9d56-332e6b696361,rev?*
G04 #@! TF.SameCoordinates,Original*
G04 #@! TF.FileFunction,Legend,Top*
G04 #@! TF.FilePolarity,Positive*
%FSLAX46Y46*%
G04 Gerber Fmt 4.6, Leading zero omitted, Abs format (unit mm)*
G04 Created by KiCad (PCBNEW 5.1.5) date 2020-05-08 01:24:46*
%MOMM*%
%LPD*%
G04 APERTURE LIST*
%ADD10C,0.125000*%
%ADD11C,0.200000*%
%ADD12C,0.300000*%
%ADD13C,0.250000*%
%ADD14C,0.120000*%
%ADD15C,0.127000*%
%ADD16C,0.150000*%
%ADD17C,0.254000*%
%ADD18C,0.015000*%
%ADD19C,0.050000*%
%ADD20C,0.062500*%
G04 APERTURE END LIST*
D10*
X145357321Y-44662285D02*
X145357321Y-43912285D01*
X145643035Y-43912285D01*
X145714464Y-43948000D01*
X145750178Y-43983714D01*
X145785892Y-44055142D01*
X145785892Y-44162285D01*
X145750178Y-44233714D01*
X145714464Y-44269428D01*
X145643035Y-44305142D01*
X145357321Y-44305142D01*
X146107321Y-44662285D02*
X146107321Y-44162285D01*
X146107321Y-43912285D02*
X146071607Y-43948000D01*
X146107321Y-43983714D01*
X146143035Y-43948000D01*
X146107321Y-43912285D01*
X146107321Y-43983714D01*
X147464464Y-44590857D02*
X147428750Y-44626571D01*
X147321607Y-44662285D01*
X147250178Y-44662285D01*
X147143035Y-44626571D01*
X147071607Y-44555142D01*
X147035892Y-44483714D01*
X147000178Y-44340857D01*
X147000178Y-44233714D01*
X147035892Y-44090857D01*
X147071607Y-44019428D01*
X147143035Y-43948000D01*
X147250178Y-43912285D01*
X147321607Y-43912285D01*
X147428750Y-43948000D01*
X147464464Y-43983714D01*
X147893035Y-44662285D02*
X147821607Y-44626571D01*
X147785892Y-44590857D01*
X147750178Y-44519428D01*
X147750178Y-44305142D01*
X147785892Y-44233714D01*
X147821607Y-44198000D01*
X147893035Y-44162285D01*
X148000178Y-44162285D01*
X148071607Y-44198000D01*
X148107321Y-44233714D01*
X148143035Y-44305142D01*
X148143035Y-44519428D01*
X148107321Y-44590857D01*
X148071607Y-44626571D01*
X148000178Y-44662285D01*
X147893035Y-44662285D01*
X148464464Y-44162285D02*
X148464464Y-44662285D01*
X148464464Y-44233714D02*
X148500178Y-44198000D01*
X148571607Y-44162285D01*
X148678750Y-44162285D01*
X148750178Y-44198000D01*
X148785892Y-44269428D01*
X148785892Y-44662285D01*
X149143035Y-44162285D02*
X149143035Y-44662285D01*
X149143035Y-44233714D02*
X149178750Y-44198000D01*
X149250178Y-44162285D01*
X149357321Y-44162285D01*
X149428750Y-44198000D01*
X149464464Y-44269428D01*
X149464464Y-44662285D01*
X150107321Y-44626571D02*
X150035892Y-44662285D01*
X149893035Y-44662285D01*
X149821607Y-44626571D01*
X149785892Y-44555142D01*
X149785892Y-44269428D01*
X149821607Y-44198000D01*
X149893035Y-44162285D01*
X150035892Y-44162285D01*
X150107321Y-44198000D01*
X150143035Y-44269428D01*
X150143035Y-44340857D01*
X149785892Y-44412285D01*
X150785892Y-44626571D02*
X150714464Y-44662285D01*
X150571607Y-44662285D01*
X150500178Y-44626571D01*
X150464464Y-44590857D01*
X150428750Y-44519428D01*
X150428750Y-44305142D01*
X150464464Y-44233714D01*
X150500178Y-44198000D01*
X150571607Y-44162285D01*
X150714464Y-44162285D01*
X150785892Y-44198000D01*
X151000178Y-44162285D02*
X151285892Y-44162285D01*
X151107321Y-43912285D02*
X151107321Y-44555142D01*
X151143035Y-44626571D01*
X151214464Y-44662285D01*
X151285892Y-44662285D01*
X151821607Y-44626571D02*
X151750178Y-44662285D01*
X151607321Y-44662285D01*
X151535892Y-44626571D01*
X151500178Y-44555142D01*
X151500178Y-44269428D01*
X151535892Y-44198000D01*
X151607321Y-44162285D01*
X151750178Y-44162285D01*
X151821607Y-44198000D01*
X151857321Y-44269428D01*
X151857321Y-44340857D01*
X151500178Y-44412285D01*
X152500178Y-44662285D02*
X152500178Y-43912285D01*
X152500178Y-44626571D02*
X152428750Y-44662285D01*
X152285892Y-44662285D01*
X152214464Y-44626571D01*
X152178750Y-44590857D01*
X152143035Y-44519428D01*
X152143035Y-44305142D01*
X152178750Y-44233714D01*
X152214464Y-44198000D01*
X152285892Y-44162285D01*
X152428750Y-44162285D01*
X152500178Y-44198000D01*
D11*
X150518880Y-119070166D02*
X151518880Y-118832071D01*
X150804595Y-118641595D01*
X151518880Y-118451119D01*
X150518880Y-118213023D01*
X151233166Y-117879690D02*
X151233166Y-117403500D01*
X151518880Y-117974928D02*
X150518880Y-117641595D01*
X151518880Y-117308261D01*
X151471261Y-117022547D02*
X151518880Y-116879690D01*
X151518880Y-116641595D01*
X151471261Y-116546357D01*
X151423642Y-116498738D01*
X151328404Y-116451119D01*
X151233166Y-116451119D01*
X151137928Y-116498738D01*
X151090309Y-116546357D01*
X151042690Y-116641595D01*
X150995071Y-116832071D01*
X150947452Y-116927309D01*
X150899833Y-116974928D01*
X150804595Y-117022547D01*
X150709357Y-117022547D01*
X150614119Y-116974928D01*
X150566500Y-116927309D01*
X150518880Y-116832071D01*
X150518880Y-116593976D01*
X150566500Y-116451119D01*
X150518880Y-116165404D02*
X150518880Y-115593976D01*
X151518880Y-115879690D02*
X150518880Y-115879690D01*
X150995071Y-115260642D02*
X150995071Y-114927309D01*
X151518880Y-114784452D02*
X151518880Y-115260642D01*
X150518880Y-115260642D01*
X150518880Y-114784452D01*
D10*
X184600714Y-67153285D02*
X184243571Y-67153285D01*
X184207857Y-67510428D01*
X184243571Y-67474714D01*
X184315000Y-67439000D01*
X184493571Y-67439000D01*
X184565000Y-67474714D01*
X184600714Y-67510428D01*
X184636428Y-67581857D01*
X184636428Y-67760428D01*
X184600714Y-67831857D01*
X184565000Y-67867571D01*
X184493571Y-67903285D01*
X184315000Y-67903285D01*
X184243571Y-67867571D01*
X184207857Y-67831857D01*
X184850714Y-67153285D02*
X185100714Y-67903285D01*
X185350714Y-67153285D01*
X186172142Y-67903285D02*
X186172142Y-67153285D01*
X186457857Y-67153285D01*
X186529285Y-67189000D01*
X186565000Y-67224714D01*
X186600714Y-67296142D01*
X186600714Y-67403285D01*
X186565000Y-67474714D01*
X186529285Y-67510428D01*
X186457857Y-67546142D01*
X186172142Y-67546142D01*
X187029285Y-67903285D02*
X186957857Y-67867571D01*
X186922142Y-67831857D01*
X186886428Y-67760428D01*
X186886428Y-67546142D01*
X186922142Y-67474714D01*
X186957857Y-67439000D01*
X187029285Y-67403285D01*
X187136428Y-67403285D01*
X187207857Y-67439000D01*
X187243571Y-67474714D01*
X187279285Y-67546142D01*
X187279285Y-67760428D01*
X187243571Y-67831857D01*
X187207857Y-67867571D01*
X187136428Y-67903285D01*
X187029285Y-67903285D01*
X187529285Y-67403285D02*
X187672142Y-67903285D01*
X187815000Y-67546142D01*
X187957857Y-67903285D01*
X188100714Y-67403285D01*
X188672142Y-67867571D02*
X188600714Y-67903285D01*
X188457857Y-67903285D01*
X188386428Y-67867571D01*
X188350714Y-67796142D01*
X188350714Y-67510428D01*
X188386428Y-67439000D01*
X188457857Y-67403285D01*
X188600714Y-67403285D01*
X188672142Y-67439000D01*
X188707857Y-67510428D01*
X188707857Y-67581857D01*
X188350714Y-67653285D01*
X189029285Y-67903285D02*
X189029285Y-67403285D01*
X189029285Y-67546142D02*
X189065000Y-67474714D01*
X189100714Y-67439000D01*
X189172142Y-67403285D01*
X189243571Y-67403285D01*
X184279285Y-61553285D02*
X183850714Y-61553285D01*
X184065000Y-61553285D02*
X184065000Y-60803285D01*
X183993571Y-60910428D01*
X183922142Y-60981857D01*
X183850714Y-61017571D01*
X184565000Y-60874714D02*
X184600714Y-60839000D01*
X184672142Y-60803285D01*
X184850714Y-60803285D01*
X184922142Y-60839000D01*
X184957857Y-60874714D01*
X184993571Y-60946142D01*
X184993571Y-61017571D01*
X184957857Y-61124714D01*
X184529285Y-61553285D01*
X184993571Y-61553285D01*
X185207857Y-60803285D02*
X185457857Y-61553285D01*
X185707857Y-60803285D01*
X186529285Y-61553285D02*
X186529285Y-60803285D01*
X186815000Y-60803285D01*
X186886428Y-60839000D01*
X186922142Y-60874714D01*
X186957857Y-60946142D01*
X186957857Y-61053285D01*
X186922142Y-61124714D01*
X186886428Y-61160428D01*
X186815000Y-61196142D01*
X186529285Y-61196142D01*
X187386428Y-61553285D02*
X187315000Y-61517571D01*
X187279285Y-61481857D01*
X187243571Y-61410428D01*
X187243571Y-61196142D01*
X187279285Y-61124714D01*
X187315000Y-61089000D01*
X187386428Y-61053285D01*
X187493571Y-61053285D01*
X187565000Y-61089000D01*
X187600714Y-61124714D01*
X187636428Y-61196142D01*
X187636428Y-61410428D01*
X187600714Y-61481857D01*
X187565000Y-61517571D01*
X187493571Y-61553285D01*
X187386428Y-61553285D01*
X187886428Y-61053285D02*
X188029285Y-61553285D01*
X188172142Y-61196142D01*
X188315000Y-61553285D01*
X188457857Y-61053285D01*
X189029285Y-61517571D02*
X188957857Y-61553285D01*
X188815000Y-61553285D01*
X188743571Y-61517571D01*
X188707857Y-61446142D01*
X188707857Y-61160428D01*
X188743571Y-61089000D01*
X188815000Y-61053285D01*
X188957857Y-61053285D01*
X189029285Y-61089000D01*
X189065000Y-61160428D01*
X189065000Y-61231857D01*
X188707857Y-61303285D01*
X189386428Y-61553285D02*
X189386428Y-61053285D01*
X189386428Y-61196142D02*
X189422142Y-61124714D01*
X189457857Y-61089000D01*
X189529285Y-61053285D01*
X189600714Y-61053285D01*
X112541952Y-119796690D02*
X112303857Y-119796690D01*
X112303857Y-119296690D01*
X112803857Y-119296690D02*
X112899095Y-119296690D01*
X112946714Y-119320500D01*
X112994333Y-119368119D01*
X113018142Y-119463357D01*
X113018142Y-119630023D01*
X112994333Y-119725261D01*
X112946714Y-119772880D01*
X112899095Y-119796690D01*
X112803857Y-119796690D01*
X112756238Y-119772880D01*
X112708619Y-119725261D01*
X112684809Y-119630023D01*
X112684809Y-119463357D01*
X112708619Y-119368119D01*
X112756238Y-119320500D01*
X112803857Y-119296690D01*
X113184809Y-119296690D02*
X113303857Y-119796690D01*
X113399095Y-119439547D01*
X113494333Y-119796690D01*
X113613380Y-119296690D01*
X113803857Y-119534785D02*
X113970523Y-119534785D01*
X114041952Y-119796690D02*
X113803857Y-119796690D01*
X113803857Y-119296690D01*
X114041952Y-119296690D01*
X114541952Y-119796690D02*
X114375285Y-119558595D01*
X114256238Y-119796690D02*
X114256238Y-119296690D01*
X114446714Y-119296690D01*
X114494333Y-119320500D01*
X114518142Y-119344309D01*
X114541952Y-119391928D01*
X114541952Y-119463357D01*
X114518142Y-119510976D01*
X114494333Y-119534785D01*
X114446714Y-119558595D01*
X114256238Y-119558595D01*
D12*
X132187071Y-117804285D02*
X132187071Y-118518571D01*
X130687071Y-118518571D01*
X131401357Y-117304285D02*
X131401357Y-116804285D01*
X132187071Y-116590000D02*
X132187071Y-117304285D01*
X130687071Y-117304285D01*
X130687071Y-116590000D01*
X132187071Y-115947142D02*
X130687071Y-115947142D01*
X130687071Y-115590000D01*
X130758500Y-115375714D01*
X130901357Y-115232857D01*
X131044214Y-115161428D01*
X131329928Y-115090000D01*
X131544214Y-115090000D01*
X131829928Y-115161428D01*
X131972785Y-115232857D01*
X132115642Y-115375714D01*
X132187071Y-115590000D01*
X132187071Y-115947142D01*
D10*
X112418952Y-113327690D02*
X112418952Y-113732452D01*
X112442761Y-113780071D01*
X112466571Y-113803880D01*
X112514190Y-113827690D01*
X112609428Y-113827690D01*
X112657047Y-113803880D01*
X112680857Y-113780071D01*
X112704666Y-113732452D01*
X112704666Y-113327690D01*
X112942761Y-113827690D02*
X112942761Y-113327690D01*
X113133238Y-113327690D01*
X113180857Y-113351500D01*
X113204666Y-113375309D01*
X113228476Y-113422928D01*
X113228476Y-113494357D01*
X113204666Y-113541976D01*
X113180857Y-113565785D01*
X113133238Y-113589595D01*
X112942761Y-113589595D01*
X113442761Y-113827690D02*
X113442761Y-113327690D01*
X113633238Y-113327690D01*
X113680857Y-113351500D01*
X113704666Y-113375309D01*
X113728476Y-113422928D01*
X113728476Y-113494357D01*
X113704666Y-113541976D01*
X113680857Y-113565785D01*
X113633238Y-113589595D01*
X113442761Y-113589595D01*
X113942761Y-113565785D02*
X114109428Y-113565785D01*
X114180857Y-113827690D02*
X113942761Y-113827690D01*
X113942761Y-113327690D01*
X114180857Y-113327690D01*
X114680857Y-113827690D02*
X114514190Y-113589595D01*
X114395142Y-113827690D02*
X114395142Y-113327690D01*
X114585619Y-113327690D01*
X114633238Y-113351500D01*
X114657047Y-113375309D01*
X114680857Y-113422928D01*
X114680857Y-113494357D01*
X114657047Y-113541976D01*
X114633238Y-113565785D01*
X114585619Y-113589595D01*
X114395142Y-113589595D01*
D12*
X135870071Y-118109857D02*
X134370071Y-118109857D01*
X134370071Y-117538428D01*
X134441500Y-117395571D01*
X134512928Y-117324142D01*
X134655785Y-117252714D01*
X134870071Y-117252714D01*
X135012928Y-117324142D01*
X135084357Y-117395571D01*
X135155785Y-117538428D01*
X135155785Y-118109857D01*
X135870071Y-116609857D02*
X134370071Y-116609857D01*
X134370071Y-116252714D01*
X134441500Y-116038428D01*
X134584357Y-115895571D01*
X134727214Y-115824142D01*
X135012928Y-115752714D01*
X135227214Y-115752714D01*
X135512928Y-115824142D01*
X135655785Y-115895571D01*
X135798642Y-116038428D01*
X135870071Y-116252714D01*
X135870071Y-116609857D01*
X127908857Y-118054285D02*
X127908857Y-118554285D01*
X128694571Y-118554285D02*
X127194571Y-118554285D01*
X127194571Y-117840000D01*
X128266000Y-117340000D02*
X128266000Y-116625714D01*
X128694571Y-117482857D02*
X127194571Y-116982857D01*
X128694571Y-116482857D01*
X128694571Y-115982857D02*
X127194571Y-115982857D01*
X128694571Y-115125714D01*
X127194571Y-115125714D01*
D13*
X123952047Y-113418928D02*
X124713952Y-113418928D01*
X124333000Y-113799880D02*
X124333000Y-113037976D01*
X127635047Y-113418928D02*
X128396952Y-113418928D01*
X128016000Y-113799880D02*
X128016000Y-113037976D01*
X131127547Y-113482428D02*
X131889452Y-113482428D01*
X131508500Y-113863380D02*
X131508500Y-113101476D01*
X134683547Y-113545928D02*
X135445452Y-113545928D01*
X135064500Y-113926880D02*
X135064500Y-113164976D01*
D11*
X123721880Y-119006666D02*
X124721880Y-118768571D01*
X124007595Y-118578095D01*
X124721880Y-118387619D01*
X123721880Y-118149523D01*
X124436166Y-117816190D02*
X124436166Y-117340000D01*
X124721880Y-117911428D02*
X123721880Y-117578095D01*
X124721880Y-117244761D01*
X124674261Y-116959047D02*
X124721880Y-116816190D01*
X124721880Y-116578095D01*
X124674261Y-116482857D01*
X124626642Y-116435238D01*
X124531404Y-116387619D01*
X124436166Y-116387619D01*
X124340928Y-116435238D01*
X124293309Y-116482857D01*
X124245690Y-116578095D01*
X124198071Y-116768571D01*
X124150452Y-116863809D01*
X124102833Y-116911428D01*
X124007595Y-116959047D01*
X123912357Y-116959047D01*
X123817119Y-116911428D01*
X123769500Y-116863809D01*
X123721880Y-116768571D01*
X123721880Y-116530476D01*
X123769500Y-116387619D01*
X123721880Y-116101904D02*
X123721880Y-115530476D01*
X124721880Y-115816190D02*
X123721880Y-115816190D01*
X124198071Y-115197142D02*
X124198071Y-114863809D01*
X124721880Y-114720952D02*
X124721880Y-115197142D01*
X123721880Y-115197142D01*
X123721880Y-114720952D01*
D13*
X117221047Y-119705428D02*
X117982952Y-119705428D01*
X120713547Y-119705428D02*
X121475452Y-119705428D01*
X117348047Y-113418928D02*
X118109952Y-113418928D01*
X117729000Y-113799880D02*
X117729000Y-113037976D01*
X123952047Y-119705428D02*
X124713952Y-119705428D01*
D11*
X118117880Y-118498714D02*
X117117880Y-118498714D01*
X117117880Y-118260619D01*
X117165500Y-118117761D01*
X117260738Y-118022523D01*
X117355976Y-117974904D01*
X117546452Y-117927285D01*
X117689309Y-117927285D01*
X117879785Y-117974904D01*
X117975023Y-118022523D01*
X118070261Y-118117761D01*
X118117880Y-118260619D01*
X118117880Y-118498714D01*
X118117880Y-116927285D02*
X117641690Y-117260619D01*
X118117880Y-117498714D02*
X117117880Y-117498714D01*
X117117880Y-117117761D01*
X117165500Y-117022523D01*
X117213119Y-116974904D01*
X117308357Y-116927285D01*
X117451214Y-116927285D01*
X117546452Y-116974904D01*
X117594071Y-117022523D01*
X117641690Y-117117761D01*
X117641690Y-117498714D01*
X117117880Y-116498714D02*
X117927404Y-116498714D01*
X118022642Y-116451095D01*
X118070261Y-116403476D01*
X118117880Y-116308238D01*
X118117880Y-116117761D01*
X118070261Y-116022523D01*
X118022642Y-115974904D01*
X117927404Y-115927285D01*
X117117880Y-115927285D01*
X117165500Y-114927285D02*
X117117880Y-115022523D01*
X117117880Y-115165380D01*
X117165500Y-115308238D01*
X117260738Y-115403476D01*
X117355976Y-115451095D01*
X117546452Y-115498714D01*
X117689309Y-115498714D01*
X117879785Y-115451095D01*
X117975023Y-115403476D01*
X118070261Y-115308238D01*
X118117880Y-115165380D01*
X118117880Y-115070142D01*
X118070261Y-114927285D01*
X118022642Y-114879666D01*
X117689309Y-114879666D01*
X117689309Y-115070142D01*
D13*
X134683547Y-119705428D02*
X135445452Y-119705428D01*
D11*
X121610380Y-118728880D02*
X120610380Y-118728880D01*
X121324666Y-118395547D01*
X120610380Y-118062214D01*
X121610380Y-118062214D01*
X121086571Y-117586023D02*
X121086571Y-117252690D01*
X121610380Y-117109833D02*
X121610380Y-117586023D01*
X120610380Y-117586023D01*
X120610380Y-117109833D01*
X121610380Y-116681261D02*
X120610380Y-116681261D01*
X120610380Y-116443166D01*
X120658000Y-116300309D01*
X120753238Y-116205071D01*
X120848476Y-116157452D01*
X121038952Y-116109833D01*
X121181809Y-116109833D01*
X121372285Y-116157452D01*
X121467523Y-116205071D01*
X121562761Y-116300309D01*
X121610380Y-116443166D01*
X121610380Y-116681261D01*
X121610380Y-115681261D02*
X120610380Y-115681261D01*
X121324666Y-115252690D02*
X121324666Y-114776500D01*
X121610380Y-115347928D02*
X120610380Y-115014595D01*
X121610380Y-114681261D01*
D13*
X131064047Y-119705428D02*
X131825952Y-119705428D01*
X127508047Y-119705428D02*
X128269952Y-119705428D01*
X120777047Y-113418928D02*
X121538952Y-113418928D01*
X121158000Y-113799880D02*
X121158000Y-113037976D01*
X108204047Y-119578428D02*
X108965952Y-119578428D01*
X94297547Y-113291928D02*
X95059452Y-113291928D01*
X94678500Y-113672880D02*
X94678500Y-112910976D01*
X101409547Y-113291928D02*
X102171452Y-113291928D01*
X101790500Y-113672880D02*
X101790500Y-112910976D01*
D12*
X101683357Y-117927285D02*
X101683357Y-118427285D01*
X102469071Y-118427285D02*
X100969071Y-118427285D01*
X100969071Y-117713000D01*
X102040500Y-117213000D02*
X102040500Y-116498714D01*
X102469071Y-117355857D02*
X100969071Y-116855857D01*
X102469071Y-116355857D01*
X102469071Y-115855857D02*
X100969071Y-115855857D01*
X102469071Y-114998714D01*
X100969071Y-114998714D01*
D13*
X94234047Y-119578428D02*
X94995952Y-119578428D01*
X101282547Y-119578428D02*
X102044452Y-119578428D01*
D12*
X106215571Y-117677285D02*
X106215571Y-118391571D01*
X104715571Y-118391571D01*
X105429857Y-117177285D02*
X105429857Y-116677285D01*
X106215571Y-116463000D02*
X106215571Y-117177285D01*
X104715571Y-117177285D01*
X104715571Y-116463000D01*
X106215571Y-115820142D02*
X104715571Y-115820142D01*
X104715571Y-115463000D01*
X104787000Y-115248714D01*
X104929857Y-115105857D01*
X105072714Y-115034428D01*
X105358428Y-114963000D01*
X105572714Y-114963000D01*
X105858428Y-115034428D01*
X106001285Y-115105857D01*
X106144142Y-115248714D01*
X106215571Y-115463000D01*
X106215571Y-115820142D01*
D13*
X97980547Y-119578428D02*
X98742452Y-119578428D01*
D12*
X109390571Y-117982857D02*
X107890571Y-117982857D01*
X107890571Y-117411428D01*
X107962000Y-117268571D01*
X108033428Y-117197142D01*
X108176285Y-117125714D01*
X108390571Y-117125714D01*
X108533428Y-117197142D01*
X108604857Y-117268571D01*
X108676285Y-117411428D01*
X108676285Y-117982857D01*
X109390571Y-116482857D02*
X107890571Y-116482857D01*
X107890571Y-116125714D01*
X107962000Y-115911428D01*
X108104857Y-115768571D01*
X108247714Y-115697142D01*
X108533428Y-115625714D01*
X108747714Y-115625714D01*
X109033428Y-115697142D01*
X109176285Y-115768571D01*
X109319142Y-115911428D01*
X109390571Y-116125714D01*
X109390571Y-116482857D01*
D13*
X90741547Y-119578428D02*
X91503452Y-119578428D01*
X90868547Y-113291928D02*
X91630452Y-113291928D01*
X91249500Y-113672880D02*
X91249500Y-112910976D01*
D11*
X91638380Y-118371714D02*
X90638380Y-118371714D01*
X90638380Y-118133619D01*
X90686000Y-117990761D01*
X90781238Y-117895523D01*
X90876476Y-117847904D01*
X91066952Y-117800285D01*
X91209809Y-117800285D01*
X91400285Y-117847904D01*
X91495523Y-117895523D01*
X91590761Y-117990761D01*
X91638380Y-118133619D01*
X91638380Y-118371714D01*
X91638380Y-116800285D02*
X91162190Y-117133619D01*
X91638380Y-117371714D02*
X90638380Y-117371714D01*
X90638380Y-116990761D01*
X90686000Y-116895523D01*
X90733619Y-116847904D01*
X90828857Y-116800285D01*
X90971714Y-116800285D01*
X91066952Y-116847904D01*
X91114571Y-116895523D01*
X91162190Y-116990761D01*
X91162190Y-117371714D01*
X90638380Y-116371714D02*
X91447904Y-116371714D01*
X91543142Y-116324095D01*
X91590761Y-116276476D01*
X91638380Y-116181238D01*
X91638380Y-115990761D01*
X91590761Y-115895523D01*
X91543142Y-115847904D01*
X91447904Y-115800285D01*
X90638380Y-115800285D01*
X90686000Y-114800285D02*
X90638380Y-114895523D01*
X90638380Y-115038380D01*
X90686000Y-115181238D01*
X90781238Y-115276476D01*
X90876476Y-115324095D01*
X91066952Y-115371714D01*
X91209809Y-115371714D01*
X91400285Y-115324095D01*
X91495523Y-115276476D01*
X91590761Y-115181238D01*
X91638380Y-115038380D01*
X91638380Y-114943142D01*
X91590761Y-114800285D01*
X91543142Y-114752666D01*
X91209809Y-114752666D01*
X91209809Y-114943142D01*
D13*
X108204047Y-113418928D02*
X108965952Y-113418928D01*
X108585000Y-113799880D02*
X108585000Y-113037976D01*
X97980547Y-113291928D02*
X98742452Y-113291928D01*
X98361500Y-113672880D02*
X98361500Y-112910976D01*
X105092547Y-119578428D02*
X105854452Y-119578428D01*
D11*
X95130880Y-118601880D02*
X94130880Y-118601880D01*
X94845166Y-118268547D01*
X94130880Y-117935214D01*
X95130880Y-117935214D01*
X94607071Y-117459023D02*
X94607071Y-117125690D01*
X95130880Y-116982833D02*
X95130880Y-117459023D01*
X94130880Y-117459023D01*
X94130880Y-116982833D01*
X95130880Y-116554261D02*
X94130880Y-116554261D01*
X94130880Y-116316166D01*
X94178500Y-116173309D01*
X94273738Y-116078071D01*
X94368976Y-116030452D01*
X94559452Y-115982833D01*
X94702309Y-115982833D01*
X94892785Y-116030452D01*
X94988023Y-116078071D01*
X95083261Y-116173309D01*
X95130880Y-116316166D01*
X95130880Y-116554261D01*
X95130880Y-115554261D02*
X94130880Y-115554261D01*
X94845166Y-115125690D02*
X94845166Y-114649500D01*
X95130880Y-115220928D02*
X94130880Y-114887595D01*
X95130880Y-114554261D01*
D13*
X105156047Y-113355428D02*
X105917952Y-113355428D01*
X105537000Y-113736380D02*
X105537000Y-112974476D01*
D11*
X97750380Y-118879666D02*
X98750380Y-118641571D01*
X98036095Y-118451095D01*
X98750380Y-118260619D01*
X97750380Y-118022523D01*
X98464666Y-117689190D02*
X98464666Y-117213000D01*
X98750380Y-117784428D02*
X97750380Y-117451095D01*
X98750380Y-117117761D01*
X98702761Y-116832047D02*
X98750380Y-116689190D01*
X98750380Y-116451095D01*
X98702761Y-116355857D01*
X98655142Y-116308238D01*
X98559904Y-116260619D01*
X98464666Y-116260619D01*
X98369428Y-116308238D01*
X98321809Y-116355857D01*
X98274190Y-116451095D01*
X98226571Y-116641571D01*
X98178952Y-116736809D01*
X98131333Y-116784428D01*
X98036095Y-116832047D01*
X97940857Y-116832047D01*
X97845619Y-116784428D01*
X97798000Y-116736809D01*
X97750380Y-116641571D01*
X97750380Y-116403476D01*
X97798000Y-116260619D01*
X97750380Y-115974904D02*
X97750380Y-115403476D01*
X98750380Y-115689190D02*
X97750380Y-115689190D01*
X98226571Y-115070142D02*
X98226571Y-114736809D01*
X98750380Y-114593952D02*
X98750380Y-115070142D01*
X97750380Y-115070142D01*
X97750380Y-114593952D01*
D12*
X158730071Y-117867785D02*
X158730071Y-118582071D01*
X157230071Y-118582071D01*
X157944357Y-117367785D02*
X157944357Y-116867785D01*
X158730071Y-116653500D02*
X158730071Y-117367785D01*
X157230071Y-117367785D01*
X157230071Y-116653500D01*
X158730071Y-116010642D02*
X157230071Y-116010642D01*
X157230071Y-115653500D01*
X157301500Y-115439214D01*
X157444357Y-115296357D01*
X157587214Y-115224928D01*
X157872928Y-115153500D01*
X158087214Y-115153500D01*
X158372928Y-115224928D01*
X158515785Y-115296357D01*
X158658642Y-115439214D01*
X158730071Y-115653500D01*
X158730071Y-116010642D01*
X162159071Y-118173357D02*
X160659071Y-118173357D01*
X160659071Y-117601928D01*
X160730500Y-117459071D01*
X160801928Y-117387642D01*
X160944785Y-117316214D01*
X161159071Y-117316214D01*
X161301928Y-117387642D01*
X161373357Y-117459071D01*
X161444785Y-117601928D01*
X161444785Y-118173357D01*
X162159071Y-116673357D02*
X160659071Y-116673357D01*
X160659071Y-116316214D01*
X160730500Y-116101928D01*
X160873357Y-115959071D01*
X161016214Y-115887642D01*
X161301928Y-115816214D01*
X161516214Y-115816214D01*
X161801928Y-115887642D01*
X161944785Y-115959071D01*
X162087642Y-116101928D01*
X162159071Y-116316214D01*
X162159071Y-116673357D01*
X154451857Y-118117785D02*
X154451857Y-118617785D01*
X155237571Y-118617785D02*
X153737571Y-118617785D01*
X153737571Y-117903500D01*
X154809000Y-117403500D02*
X154809000Y-116689214D01*
X155237571Y-117546357D02*
X153737571Y-117046357D01*
X155237571Y-116546357D01*
X155237571Y-116046357D02*
X153737571Y-116046357D01*
X155237571Y-115189214D01*
X153737571Y-115189214D01*
D13*
X150749047Y-113482428D02*
X151510952Y-113482428D01*
X151130000Y-113863380D02*
X151130000Y-113101476D01*
X154178047Y-113482428D02*
X154939952Y-113482428D01*
X154559000Y-113863380D02*
X154559000Y-113101476D01*
X157670547Y-113545928D02*
X158432452Y-113545928D01*
X158051500Y-113926880D02*
X158051500Y-113164976D01*
X160972547Y-113609428D02*
X161734452Y-113609428D01*
X161353500Y-113990380D02*
X161353500Y-113228476D01*
X143510047Y-119768928D02*
X144271952Y-119768928D01*
X147002547Y-119768928D02*
X147764452Y-119768928D01*
X143637047Y-113482428D02*
X144398952Y-113482428D01*
X144018000Y-113863380D02*
X144018000Y-113101476D01*
X150749047Y-119768928D02*
X151510952Y-119768928D01*
D11*
X144406880Y-118562214D02*
X143406880Y-118562214D01*
X143406880Y-118324119D01*
X143454500Y-118181261D01*
X143549738Y-118086023D01*
X143644976Y-118038404D01*
X143835452Y-117990785D01*
X143978309Y-117990785D01*
X144168785Y-118038404D01*
X144264023Y-118086023D01*
X144359261Y-118181261D01*
X144406880Y-118324119D01*
X144406880Y-118562214D01*
X144406880Y-116990785D02*
X143930690Y-117324119D01*
X144406880Y-117562214D02*
X143406880Y-117562214D01*
X143406880Y-117181261D01*
X143454500Y-117086023D01*
X143502119Y-117038404D01*
X143597357Y-116990785D01*
X143740214Y-116990785D01*
X143835452Y-117038404D01*
X143883071Y-117086023D01*
X143930690Y-117181261D01*
X143930690Y-117562214D01*
X143406880Y-116562214D02*
X144216404Y-116562214D01*
X144311642Y-116514595D01*
X144359261Y-116466976D01*
X144406880Y-116371738D01*
X144406880Y-116181261D01*
X144359261Y-116086023D01*
X144311642Y-116038404D01*
X144216404Y-115990785D01*
X143406880Y-115990785D01*
X143454500Y-114990785D02*
X143406880Y-115086023D01*
X143406880Y-115228880D01*
X143454500Y-115371738D01*
X143549738Y-115466976D01*
X143644976Y-115514595D01*
X143835452Y-115562214D01*
X143978309Y-115562214D01*
X144168785Y-115514595D01*
X144264023Y-115466976D01*
X144359261Y-115371738D01*
X144406880Y-115228880D01*
X144406880Y-115133642D01*
X144359261Y-114990785D01*
X144311642Y-114943166D01*
X143978309Y-114943166D01*
X143978309Y-115133642D01*
D13*
X160972547Y-119768928D02*
X161734452Y-119768928D01*
D11*
X147899380Y-118792380D02*
X146899380Y-118792380D01*
X147613666Y-118459047D01*
X146899380Y-118125714D01*
X147899380Y-118125714D01*
X147375571Y-117649523D02*
X147375571Y-117316190D01*
X147899380Y-117173333D02*
X147899380Y-117649523D01*
X146899380Y-117649523D01*
X146899380Y-117173333D01*
X147899380Y-116744761D02*
X146899380Y-116744761D01*
X146899380Y-116506666D01*
X146947000Y-116363809D01*
X147042238Y-116268571D01*
X147137476Y-116220952D01*
X147327952Y-116173333D01*
X147470809Y-116173333D01*
X147661285Y-116220952D01*
X147756523Y-116268571D01*
X147851761Y-116363809D01*
X147899380Y-116506666D01*
X147899380Y-116744761D01*
X147899380Y-115744761D02*
X146899380Y-115744761D01*
X147613666Y-115316190D02*
X147613666Y-114840000D01*
X147899380Y-115411428D02*
X146899380Y-115078095D01*
X147899380Y-114744761D01*
D13*
X157607047Y-119768928D02*
X158368952Y-119768928D01*
X154051047Y-119768928D02*
X154812952Y-119768928D01*
X147066047Y-113482428D02*
X147827952Y-113482428D01*
X147447000Y-113863380D02*
X147447000Y-113101476D01*
X169037047Y-119895928D02*
X169798952Y-119895928D01*
X172529547Y-119895928D02*
X173291452Y-119895928D01*
X176276047Y-119895928D02*
X177037952Y-119895928D01*
X179578047Y-119895928D02*
X180339952Y-119895928D01*
X183388047Y-119895928D02*
X184149952Y-119895928D01*
X186499547Y-119895928D02*
X187261452Y-119895928D01*
X169164047Y-113609428D02*
X169925952Y-113609428D01*
X169545000Y-113990380D02*
X169545000Y-113228476D01*
X172593047Y-113609428D02*
X173354952Y-113609428D01*
X172974000Y-113990380D02*
X172974000Y-113228476D01*
D11*
X169933880Y-118689214D02*
X168933880Y-118689214D01*
X168933880Y-118451119D01*
X168981500Y-118308261D01*
X169076738Y-118213023D01*
X169171976Y-118165404D01*
X169362452Y-118117785D01*
X169505309Y-118117785D01*
X169695785Y-118165404D01*
X169791023Y-118213023D01*
X169886261Y-118308261D01*
X169933880Y-118451119D01*
X169933880Y-118689214D01*
X169933880Y-117117785D02*
X169457690Y-117451119D01*
X169933880Y-117689214D02*
X168933880Y-117689214D01*
X168933880Y-117308261D01*
X168981500Y-117213023D01*
X169029119Y-117165404D01*
X169124357Y-117117785D01*
X169267214Y-117117785D01*
X169362452Y-117165404D01*
X169410071Y-117213023D01*
X169457690Y-117308261D01*
X169457690Y-117689214D01*
X168933880Y-116689214D02*
X169743404Y-116689214D01*
X169838642Y-116641595D01*
X169886261Y-116593976D01*
X169933880Y-116498738D01*
X169933880Y-116308261D01*
X169886261Y-116213023D01*
X169838642Y-116165404D01*
X169743404Y-116117785D01*
X168933880Y-116117785D01*
X168981500Y-115117785D02*
X168933880Y-115213023D01*
X168933880Y-115355880D01*
X168981500Y-115498738D01*
X169076738Y-115593976D01*
X169171976Y-115641595D01*
X169362452Y-115689214D01*
X169505309Y-115689214D01*
X169695785Y-115641595D01*
X169791023Y-115593976D01*
X169886261Y-115498738D01*
X169933880Y-115355880D01*
X169933880Y-115260642D01*
X169886261Y-115117785D01*
X169838642Y-115070166D01*
X169505309Y-115070166D01*
X169505309Y-115260642D01*
X173426380Y-118919380D02*
X172426380Y-118919380D01*
X173140666Y-118586047D01*
X172426380Y-118252714D01*
X173426380Y-118252714D01*
X172902571Y-117776523D02*
X172902571Y-117443190D01*
X173426380Y-117300333D02*
X173426380Y-117776523D01*
X172426380Y-117776523D01*
X172426380Y-117300333D01*
X173426380Y-116871761D02*
X172426380Y-116871761D01*
X172426380Y-116633666D01*
X172474000Y-116490809D01*
X172569238Y-116395571D01*
X172664476Y-116347952D01*
X172854952Y-116300333D01*
X172997809Y-116300333D01*
X173188285Y-116347952D01*
X173283523Y-116395571D01*
X173378761Y-116490809D01*
X173426380Y-116633666D01*
X173426380Y-116871761D01*
X173426380Y-115871761D02*
X172426380Y-115871761D01*
X173140666Y-115443190D02*
X173140666Y-114967000D01*
X173426380Y-115538428D02*
X172426380Y-115205095D01*
X173426380Y-114871761D01*
D13*
X176276047Y-113609428D02*
X177037952Y-113609428D01*
X176657000Y-113990380D02*
X176657000Y-113228476D01*
X179705047Y-113609428D02*
X180466952Y-113609428D01*
X180086000Y-113990380D02*
X180086000Y-113228476D01*
X183451547Y-113672928D02*
X184213452Y-113672928D01*
X183832500Y-114053880D02*
X183832500Y-113291976D01*
X186499547Y-113736428D02*
X187261452Y-113736428D01*
X186880500Y-114117380D02*
X186880500Y-113355476D01*
D11*
X176045880Y-119197166D02*
X177045880Y-118959071D01*
X176331595Y-118768595D01*
X177045880Y-118578119D01*
X176045880Y-118340023D01*
X176760166Y-118006690D02*
X176760166Y-117530500D01*
X177045880Y-118101928D02*
X176045880Y-117768595D01*
X177045880Y-117435261D01*
X176998261Y-117149547D02*
X177045880Y-117006690D01*
X177045880Y-116768595D01*
X176998261Y-116673357D01*
X176950642Y-116625738D01*
X176855404Y-116578119D01*
X176760166Y-116578119D01*
X176664928Y-116625738D01*
X176617309Y-116673357D01*
X176569690Y-116768595D01*
X176522071Y-116959071D01*
X176474452Y-117054309D01*
X176426833Y-117101928D01*
X176331595Y-117149547D01*
X176236357Y-117149547D01*
X176141119Y-117101928D01*
X176093500Y-117054309D01*
X176045880Y-116959071D01*
X176045880Y-116720976D01*
X176093500Y-116578119D01*
X176045880Y-116292404D02*
X176045880Y-115720976D01*
X177045880Y-116006690D02*
X176045880Y-116006690D01*
X176522071Y-115387642D02*
X176522071Y-115054309D01*
X177045880Y-114911452D02*
X177045880Y-115387642D01*
X176045880Y-115387642D01*
X176045880Y-114911452D01*
D12*
X179978857Y-118244785D02*
X179978857Y-118744785D01*
X180764571Y-118744785D02*
X179264571Y-118744785D01*
X179264571Y-118030500D01*
X180336000Y-117530500D02*
X180336000Y-116816214D01*
X180764571Y-117673357D02*
X179264571Y-117173357D01*
X180764571Y-116673357D01*
X180764571Y-116173357D02*
X179264571Y-116173357D01*
X180764571Y-115316214D01*
X179264571Y-115316214D01*
X184511071Y-117994785D02*
X184511071Y-118709071D01*
X183011071Y-118709071D01*
X183725357Y-117494785D02*
X183725357Y-116994785D01*
X184511071Y-116780500D02*
X184511071Y-117494785D01*
X183011071Y-117494785D01*
X183011071Y-116780500D01*
X184511071Y-116137642D02*
X183011071Y-116137642D01*
X183011071Y-115780500D01*
X183082500Y-115566214D01*
X183225357Y-115423357D01*
X183368214Y-115351928D01*
X183653928Y-115280500D01*
X183868214Y-115280500D01*
X184153928Y-115351928D01*
X184296785Y-115423357D01*
X184439642Y-115566214D01*
X184511071Y-115780500D01*
X184511071Y-116137642D01*
D10*
X164806452Y-113581690D02*
X164806452Y-113986452D01*
X164830261Y-114034071D01*
X164854071Y-114057880D01*
X164901690Y-114081690D01*
X164996928Y-114081690D01*
X165044547Y-114057880D01*
X165068357Y-114034071D01*
X165092166Y-113986452D01*
X165092166Y-113581690D01*
X165330261Y-114081690D02*
X165330261Y-113581690D01*
X165520738Y-113581690D01*
X165568357Y-113605500D01*
X165592166Y-113629309D01*
X165615976Y-113676928D01*
X165615976Y-113748357D01*
X165592166Y-113795976D01*
X165568357Y-113819785D01*
X165520738Y-113843595D01*
X165330261Y-113843595D01*
X165830261Y-114081690D02*
X165830261Y-113581690D01*
X166020738Y-113581690D01*
X166068357Y-113605500D01*
X166092166Y-113629309D01*
X166115976Y-113676928D01*
X166115976Y-113748357D01*
X166092166Y-113795976D01*
X166068357Y-113819785D01*
X166020738Y-113843595D01*
X165830261Y-113843595D01*
X166330261Y-113819785D02*
X166496928Y-113819785D01*
X166568357Y-114081690D02*
X166330261Y-114081690D01*
X166330261Y-113581690D01*
X166568357Y-113581690D01*
X167068357Y-114081690D02*
X166901690Y-113843595D01*
X166782642Y-114081690D02*
X166782642Y-113581690D01*
X166973119Y-113581690D01*
X167020738Y-113605500D01*
X167044547Y-113629309D01*
X167068357Y-113676928D01*
X167068357Y-113748357D01*
X167044547Y-113795976D01*
X167020738Y-113819785D01*
X166973119Y-113843595D01*
X166782642Y-113843595D01*
X164929452Y-120050690D02*
X164691357Y-120050690D01*
X164691357Y-119550690D01*
X165191357Y-119550690D02*
X165286595Y-119550690D01*
X165334214Y-119574500D01*
X165381833Y-119622119D01*
X165405642Y-119717357D01*
X165405642Y-119884023D01*
X165381833Y-119979261D01*
X165334214Y-120026880D01*
X165286595Y-120050690D01*
X165191357Y-120050690D01*
X165143738Y-120026880D01*
X165096119Y-119979261D01*
X165072309Y-119884023D01*
X165072309Y-119717357D01*
X165096119Y-119622119D01*
X165143738Y-119574500D01*
X165191357Y-119550690D01*
X165572309Y-119550690D02*
X165691357Y-120050690D01*
X165786595Y-119693547D01*
X165881833Y-120050690D01*
X166000880Y-119550690D01*
X166191357Y-119788785D02*
X166358023Y-119788785D01*
X166429452Y-120050690D02*
X166191357Y-120050690D01*
X166191357Y-119550690D01*
X166429452Y-119550690D01*
X166929452Y-120050690D02*
X166762785Y-119812595D01*
X166643738Y-120050690D02*
X166643738Y-119550690D01*
X166834214Y-119550690D01*
X166881833Y-119574500D01*
X166905642Y-119598309D01*
X166929452Y-119645928D01*
X166929452Y-119717357D01*
X166905642Y-119764976D01*
X166881833Y-119788785D01*
X166834214Y-119812595D01*
X166643738Y-119812595D01*
D12*
X187686071Y-118300357D02*
X186186071Y-118300357D01*
X186186071Y-117728928D01*
X186257500Y-117586071D01*
X186328928Y-117514642D01*
X186471785Y-117443214D01*
X186686071Y-117443214D01*
X186828928Y-117514642D01*
X186900357Y-117586071D01*
X186971785Y-117728928D01*
X186971785Y-118300357D01*
X187686071Y-116800357D02*
X186186071Y-116800357D01*
X186186071Y-116443214D01*
X186257500Y-116228928D01*
X186400357Y-116086071D01*
X186543214Y-116014642D01*
X186828928Y-115943214D01*
X187043214Y-115943214D01*
X187328928Y-116014642D01*
X187471785Y-116086071D01*
X187614642Y-116228928D01*
X187686071Y-116443214D01*
X187686071Y-116800357D01*
D13*
X103703523Y-122277142D02*
X103655904Y-122324761D01*
X103513047Y-122372380D01*
X103417809Y-122372380D01*
X103274952Y-122324761D01*
X103179714Y-122229523D01*
X103132095Y-122134285D01*
X103084476Y-121943809D01*
X103084476Y-121800952D01*
X103132095Y-121610476D01*
X103179714Y-121515238D01*
X103274952Y-121420000D01*
X103417809Y-121372380D01*
X103513047Y-121372380D01*
X103655904Y-121420000D01*
X103703523Y-121467619D01*
X104132095Y-121372380D02*
X104132095Y-122181904D01*
X104179714Y-122277142D01*
X104227333Y-122324761D01*
X104322571Y-122372380D01*
X104513047Y-122372380D01*
X104608285Y-122324761D01*
X104655904Y-122277142D01*
X104703523Y-122181904D01*
X104703523Y-121372380D01*
X105608285Y-121705714D02*
X105608285Y-122372380D01*
X105370190Y-121324761D02*
X105132095Y-122039047D01*
X105751142Y-122039047D01*
X129865523Y-122277142D02*
X129817904Y-122324761D01*
X129675047Y-122372380D01*
X129579809Y-122372380D01*
X129436952Y-122324761D01*
X129341714Y-122229523D01*
X129294095Y-122134285D01*
X129246476Y-121943809D01*
X129246476Y-121800952D01*
X129294095Y-121610476D01*
X129341714Y-121515238D01*
X129436952Y-121420000D01*
X129579809Y-121372380D01*
X129675047Y-121372380D01*
X129817904Y-121420000D01*
X129865523Y-121467619D01*
X130294095Y-121372380D02*
X130294095Y-122181904D01*
X130341714Y-122277142D01*
X130389333Y-122324761D01*
X130484571Y-122372380D01*
X130675047Y-122372380D01*
X130770285Y-122324761D01*
X130817904Y-122277142D01*
X130865523Y-122181904D01*
X130865523Y-121372380D01*
X131246476Y-121372380D02*
X131865523Y-121372380D01*
X131532190Y-121753333D01*
X131675047Y-121753333D01*
X131770285Y-121800952D01*
X131817904Y-121848571D01*
X131865523Y-121943809D01*
X131865523Y-122181904D01*
X131817904Y-122277142D01*
X131770285Y-122324761D01*
X131675047Y-122372380D01*
X131389333Y-122372380D01*
X131294095Y-122324761D01*
X131246476Y-122277142D01*
X156535523Y-122277142D02*
X156487904Y-122324761D01*
X156345047Y-122372380D01*
X156249809Y-122372380D01*
X156106952Y-122324761D01*
X156011714Y-122229523D01*
X155964095Y-122134285D01*
X155916476Y-121943809D01*
X155916476Y-121800952D01*
X155964095Y-121610476D01*
X156011714Y-121515238D01*
X156106952Y-121420000D01*
X156249809Y-121372380D01*
X156345047Y-121372380D01*
X156487904Y-121420000D01*
X156535523Y-121467619D01*
X156964095Y-121372380D02*
X156964095Y-122181904D01*
X157011714Y-122277142D01*
X157059333Y-122324761D01*
X157154571Y-122372380D01*
X157345047Y-122372380D01*
X157440285Y-122324761D01*
X157487904Y-122277142D01*
X157535523Y-122181904D01*
X157535523Y-121372380D01*
X157964095Y-121467619D02*
X158011714Y-121420000D01*
X158106952Y-121372380D01*
X158345047Y-121372380D01*
X158440285Y-121420000D01*
X158487904Y-121467619D01*
X158535523Y-121562857D01*
X158535523Y-121658095D01*
X158487904Y-121800952D01*
X157916476Y-122372380D01*
X158535523Y-122372380D01*
X181935523Y-122277142D02*
X181887904Y-122324761D01*
X181745047Y-122372380D01*
X181649809Y-122372380D01*
X181506952Y-122324761D01*
X181411714Y-122229523D01*
X181364095Y-122134285D01*
X181316476Y-121943809D01*
X181316476Y-121800952D01*
X181364095Y-121610476D01*
X181411714Y-121515238D01*
X181506952Y-121420000D01*
X181649809Y-121372380D01*
X181745047Y-121372380D01*
X181887904Y-121420000D01*
X181935523Y-121467619D01*
X182364095Y-121372380D02*
X182364095Y-122181904D01*
X182411714Y-122277142D01*
X182459333Y-122324761D01*
X182554571Y-122372380D01*
X182745047Y-122372380D01*
X182840285Y-122324761D01*
X182887904Y-122277142D01*
X182935523Y-122181904D01*
X182935523Y-121372380D01*
X183935523Y-122372380D02*
X183364095Y-122372380D01*
X183649809Y-122372380D02*
X183649809Y-121372380D01*
X183554571Y-121515238D01*
X183459333Y-121610476D01*
X183364095Y-121658095D01*
X138053878Y-57871149D02*
X137613402Y-57394959D01*
X137196735Y-57871149D02*
X137321735Y-56871149D01*
X137893164Y-56871149D01*
X138030069Y-56918769D01*
X138095545Y-56966388D01*
X138155069Y-57061626D01*
X138137212Y-57204483D01*
X138053878Y-57299721D01*
X137976497Y-57347340D01*
X137827688Y-57394959D01*
X137256259Y-57394959D01*
X138762212Y-57347340D02*
X139262212Y-57347340D01*
X139411021Y-57871149D02*
X138696735Y-57871149D01*
X138821735Y-56871149D01*
X139536021Y-56871149D01*
X139964593Y-56871149D02*
X140339593Y-57871149D01*
X140964593Y-56871149D01*
X142464593Y-56871149D02*
X143393164Y-56871149D01*
X142845545Y-57252102D01*
X143059831Y-57252102D01*
X143196735Y-57299721D01*
X143262212Y-57347340D01*
X143321735Y-57442578D01*
X143291973Y-57680673D01*
X143208640Y-57775911D01*
X143131259Y-57823530D01*
X142982450Y-57871149D01*
X142553878Y-57871149D01*
X142416973Y-57823530D01*
X142351497Y-57775911D01*
D12*
X135840560Y-54771626D02*
X136340560Y-54771626D01*
X136554846Y-55557340D02*
X135840560Y-55557340D01*
X135840560Y-54057340D01*
X136554846Y-54057340D01*
X136983417Y-54057340D02*
X137483417Y-55557340D01*
X137983417Y-54057340D01*
X138483417Y-54771626D02*
X138983417Y-54771626D01*
X139197703Y-55557340D02*
X138483417Y-55557340D01*
X138483417Y-54057340D01*
X139197703Y-54057340D01*
X139483417Y-55700197D02*
X140626274Y-55700197D01*
X140983417Y-55557340D02*
X140983417Y-54057340D01*
X141554846Y-54057340D01*
X141697703Y-54128769D01*
X141769131Y-54200197D01*
X141840560Y-54343054D01*
X141840560Y-54557340D01*
X141769131Y-54700197D01*
X141697703Y-54771626D01*
X141554846Y-54843054D01*
X140983417Y-54843054D01*
X143340560Y-55414483D02*
X143269131Y-55485911D01*
X143054846Y-55557340D01*
X142911988Y-55557340D01*
X142697703Y-55485911D01*
X142554846Y-55343054D01*
X142483417Y-55200197D01*
X142411988Y-54914483D01*
X142411988Y-54700197D01*
X142483417Y-54414483D01*
X142554846Y-54271626D01*
X142697703Y-54128769D01*
X142911988Y-54057340D01*
X143054846Y-54057340D01*
X143269131Y-54128769D01*
X143340560Y-54200197D01*
X144483417Y-54771626D02*
X144697703Y-54843054D01*
X144769131Y-54914483D01*
X144840560Y-55057340D01*
X144840560Y-55271626D01*
X144769131Y-55414483D01*
X144697703Y-55485911D01*
X144554846Y-55557340D01*
X143983417Y-55557340D01*
X143983417Y-54057340D01*
X144483417Y-54057340D01*
X144626274Y-54128769D01*
X144697703Y-54200197D01*
X144769131Y-54343054D01*
X144769131Y-54485911D01*
X144697703Y-54628769D01*
X144626274Y-54700197D01*
X144483417Y-54771626D01*
X143983417Y-54771626D01*
D14*
X157303000Y-70052000D02*
X155488000Y-70052000D01*
X157303000Y-69807000D02*
X157303000Y-70052000D01*
X161163000Y-69807000D02*
X157303000Y-69807000D01*
X165023000Y-69807000D02*
X165023000Y-70052000D01*
X161163000Y-69807000D02*
X165023000Y-69807000D01*
X157303000Y-81577000D02*
X157303000Y-81332000D01*
X161163000Y-81577000D02*
X157303000Y-81577000D01*
X165023000Y-81577000D02*
X165023000Y-81332000D01*
X161163000Y-81577000D02*
X165023000Y-81577000D01*
X166780000Y-44832000D02*
X166780000Y-48132000D01*
X166780000Y-48132000D02*
X172180000Y-48132000D01*
X166780000Y-44832000D02*
X172180000Y-44832000D01*
D11*
X88992346Y-94010000D02*
X88992346Y-105110000D01*
X111492346Y-94010000D02*
X88992346Y-94010000D01*
X111492346Y-112010000D02*
X111492346Y-94010000D01*
X91092346Y-112010000D02*
X111492346Y-112010000D01*
X121611000Y-45882000D02*
G75*
G03X121611000Y-45882000I-100000J0D01*
G01*
D15*
X124266000Y-45787000D02*
X131766000Y-45787000D01*
X124266000Y-63687000D02*
X131766000Y-63687000D01*
D14*
X178691000Y-55443000D02*
X180151000Y-55443000D01*
X178691000Y-58603000D02*
X180851000Y-58603000D01*
X178691000Y-58603000D02*
X178691000Y-57673000D01*
X178691000Y-55443000D02*
X178691000Y-56373000D01*
X150304500Y-91747500D02*
X153754500Y-91747500D01*
X150304500Y-91747500D02*
X148354500Y-91747500D01*
X150304500Y-82877500D02*
X152254500Y-82877500D01*
X150304500Y-82877500D02*
X148354500Y-82877500D01*
X102112500Y-84815936D02*
X102112500Y-88920064D01*
X105532500Y-84815936D02*
X105532500Y-88920064D01*
X117733500Y-84815936D02*
X117733500Y-88920064D01*
X121153500Y-84815936D02*
X121153500Y-88920064D01*
X164850500Y-84879436D02*
X164850500Y-88983564D01*
X168270500Y-84879436D02*
X168270500Y-88983564D01*
X180344500Y-84879436D02*
X180344500Y-88983564D01*
X183764500Y-84879436D02*
X183764500Y-88983564D01*
X98754000Y-89285578D02*
X98754000Y-88768422D01*
X97334000Y-89285578D02*
X97334000Y-88768422D01*
X162000000Y-89427578D02*
X162000000Y-88910422D01*
X160580000Y-89427578D02*
X160580000Y-88910422D01*
X98754000Y-84967578D02*
X98754000Y-84450422D01*
X97334000Y-84967578D02*
X97334000Y-84450422D01*
X162000000Y-85094578D02*
X162000000Y-84577422D01*
X160580000Y-85094578D02*
X160580000Y-84577422D01*
X114311500Y-89222078D02*
X114311500Y-88704922D01*
X112891500Y-89222078D02*
X112891500Y-88704922D01*
X176986000Y-89476078D02*
X176986000Y-88958922D01*
X175566000Y-89476078D02*
X175566000Y-88958922D01*
X114311500Y-84904078D02*
X114311500Y-84386922D01*
X112891500Y-84904078D02*
X112891500Y-84386922D01*
X176986000Y-85094578D02*
X176986000Y-84577422D01*
X175566000Y-85094578D02*
X175566000Y-84577422D01*
X167733346Y-36276769D02*
X167733346Y-37606769D01*
X166403346Y-36276769D02*
X167733346Y-36276769D01*
X167733346Y-38876769D02*
X167733346Y-41476769D01*
X165133346Y-38876769D02*
X167733346Y-38876769D01*
X165133346Y-36276769D02*
X165133346Y-38876769D01*
X167733346Y-41476769D02*
X116813346Y-41476769D01*
X165133346Y-36276769D02*
X116813346Y-36276769D01*
X116813346Y-36276769D02*
X116813346Y-41476769D01*
D11*
X167414846Y-94010000D02*
X167414846Y-105110000D01*
X189914846Y-94010000D02*
X167414846Y-94010000D01*
X189914846Y-112010000D02*
X189914846Y-94010000D01*
X169514846Y-112010000D02*
X189914846Y-112010000D01*
X141697346Y-94010000D02*
X141697346Y-105110000D01*
X164197346Y-94010000D02*
X141697346Y-94010000D01*
X164197346Y-112010000D02*
X164197346Y-94010000D01*
X143797346Y-112010000D02*
X164197346Y-112010000D01*
X115281346Y-94010000D02*
X115281346Y-105110000D01*
X137781346Y-94010000D02*
X115281346Y-94010000D01*
X137781346Y-112010000D02*
X137781346Y-94010000D01*
X117381346Y-112010000D02*
X137781346Y-112010000D01*
D15*
X152587000Y-63560000D02*
X160087000Y-63560000D01*
X152587000Y-45660000D02*
X160087000Y-45660000D01*
D11*
X149932000Y-45755000D02*
G75*
G03X149932000Y-45755000I-100000J0D01*
G01*
D14*
X176352000Y-120785000D02*
X172467000Y-120785000D01*
X172467000Y-120785000D02*
X172467000Y-123055000D01*
X172467000Y-123055000D02*
X176352000Y-123055000D01*
X150952000Y-120785000D02*
X147067000Y-120785000D01*
X147067000Y-120785000D02*
X147067000Y-123055000D01*
X147067000Y-123055000D02*
X150952000Y-123055000D01*
X120781000Y-123055000D02*
X124666000Y-123055000D01*
X120781000Y-120785000D02*
X120781000Y-123055000D01*
X124666000Y-120785000D02*
X120781000Y-120785000D01*
X97990000Y-120785000D02*
X94105000Y-120785000D01*
X94105000Y-120785000D02*
X94105000Y-123055000D01*
X94105000Y-123055000D02*
X97990000Y-123055000D01*
X172128922Y-50344000D02*
X172646078Y-50344000D01*
X172128922Y-51764000D02*
X172646078Y-51764000D01*
X90192846Y-42088269D02*
X90192846Y-36688269D01*
X93492846Y-42088269D02*
X93492846Y-36688269D01*
X90192846Y-42088269D02*
X93492846Y-42088269D01*
X96713846Y-42151769D02*
X96713846Y-36751769D01*
X100013846Y-42151769D02*
X100013846Y-36751769D01*
X96713846Y-42151769D02*
X100013846Y-42151769D01*
X109946346Y-42088269D02*
X113246346Y-42088269D01*
X113246346Y-42088269D02*
X113246346Y-36688269D01*
X109946346Y-42088269D02*
X109946346Y-36688269D01*
X103361846Y-51221769D02*
X106661846Y-51221769D01*
X106661846Y-51221769D02*
X106661846Y-45821769D01*
X103361846Y-51221769D02*
X103361846Y-45821769D01*
X103361846Y-42151769D02*
X106661846Y-42151769D01*
X106661846Y-42151769D02*
X106661846Y-36751769D01*
X103361846Y-42151769D02*
X103361846Y-36751769D01*
X96713846Y-51221769D02*
X96713846Y-45821769D01*
X100013846Y-51221769D02*
X100013846Y-45821769D01*
X96713846Y-51221769D02*
X100013846Y-51221769D01*
X109946346Y-51221769D02*
X109946346Y-45821769D01*
X113246346Y-51221769D02*
X113246346Y-45821769D01*
X109946346Y-51221769D02*
X113246346Y-51221769D01*
X109946346Y-60291769D02*
X113246346Y-60291769D01*
X113246346Y-60291769D02*
X113246346Y-54891769D01*
X109946346Y-60291769D02*
X109946346Y-54891769D01*
X90192846Y-51221769D02*
X90192846Y-45821769D01*
X93492846Y-51221769D02*
X93492846Y-45821769D01*
X90192846Y-51221769D02*
X93492846Y-51221769D01*
X96713846Y-60291769D02*
X96713846Y-54891769D01*
X100013846Y-60291769D02*
X100013846Y-54891769D01*
X96713846Y-60291769D02*
X100013846Y-60291769D01*
X103361846Y-60291769D02*
X106661846Y-60291769D01*
X106661846Y-60291769D02*
X106661846Y-54891769D01*
X103361846Y-60291769D02*
X103361846Y-54891769D01*
X90192846Y-60291769D02*
X90192846Y-54891769D01*
X93492846Y-60291769D02*
X93492846Y-54891769D01*
X90192846Y-60291769D02*
X93492846Y-60291769D01*
X180855346Y-37564000D02*
X189855346Y-37564000D01*
X189855346Y-37564000D02*
X189855346Y-46764000D01*
X189855346Y-46764000D02*
X175255346Y-46764000D01*
X175255346Y-46764000D02*
X175255346Y-43964000D01*
X175255346Y-40364000D02*
X175255346Y-37564000D01*
X175255346Y-37564000D02*
X177255346Y-37564000D01*
X176755346Y-47004000D02*
X175015346Y-47004000D01*
X175015346Y-47004000D02*
X175015346Y-45264000D01*
X170309000Y-55443000D02*
X171769000Y-55443000D01*
X170309000Y-58603000D02*
X172469000Y-58603000D01*
X170309000Y-58603000D02*
X170309000Y-57673000D01*
X170309000Y-55443000D02*
X170309000Y-56373000D01*
X129286000Y-91747500D02*
X131236000Y-91747500D01*
X129286000Y-91747500D02*
X127336000Y-91747500D01*
X129286000Y-82877500D02*
X131236000Y-82877500D01*
X129286000Y-82877500D02*
X125836000Y-82877500D01*
X139954000Y-71714000D02*
X141454000Y-71714000D01*
X139954000Y-71714000D02*
X138454000Y-71714000D01*
X139954000Y-68494000D02*
X141454000Y-68494000D01*
X139954000Y-68494000D02*
X137029000Y-68494000D01*
X178562000Y-69807000D02*
X174702000Y-69807000D01*
X174702000Y-69807000D02*
X174702000Y-70052000D01*
X178562000Y-69807000D02*
X182422000Y-69807000D01*
X182422000Y-69807000D02*
X182422000Y-70052000D01*
X178562000Y-81577000D02*
X174702000Y-81577000D01*
X174702000Y-81577000D02*
X174702000Y-81332000D01*
X178562000Y-81577000D02*
X182422000Y-81577000D01*
X182422000Y-81577000D02*
X182422000Y-81332000D01*
X182422000Y-81332000D02*
X184237000Y-81332000D01*
X118237000Y-69680000D02*
X114377000Y-69680000D01*
X114377000Y-69680000D02*
X114377000Y-69925000D01*
X118237000Y-69680000D02*
X122097000Y-69680000D01*
X122097000Y-69680000D02*
X122097000Y-69925000D01*
X118237000Y-81450000D02*
X114377000Y-81450000D01*
X114377000Y-81450000D02*
X114377000Y-81205000D01*
X118237000Y-81450000D02*
X122097000Y-81450000D01*
X122097000Y-81450000D02*
X122097000Y-81205000D01*
X122097000Y-81205000D02*
X123912000Y-81205000D01*
X97105000Y-69925000D02*
X95290000Y-69925000D01*
X97105000Y-69680000D02*
X97105000Y-69925000D01*
X100965000Y-69680000D02*
X97105000Y-69680000D01*
X104825000Y-69680000D02*
X104825000Y-69925000D01*
X100965000Y-69680000D02*
X104825000Y-69680000D01*
X97105000Y-81450000D02*
X97105000Y-81205000D01*
X100965000Y-81450000D02*
X97105000Y-81450000D01*
X104825000Y-81450000D02*
X104825000Y-81205000D01*
X100965000Y-81450000D02*
X104825000Y-81450000D01*
X183580346Y-59998769D02*
X183580346Y-49758769D01*
X188221346Y-59998769D02*
X188221346Y-49758769D01*
X183580346Y-59998769D02*
X188221346Y-59998769D01*
X183580346Y-49758769D02*
X188221346Y-49758769D01*
X185090346Y-59998769D02*
X185090346Y-49758769D01*
X183580346Y-56728769D02*
X185090346Y-56728769D01*
X183580346Y-53027769D02*
X185090346Y-53027769D01*
X188252000Y-62511000D02*
X185967000Y-62511000D01*
X185967000Y-62511000D02*
X185967000Y-63981000D01*
X185967000Y-63981000D02*
X188252000Y-63981000D01*
X185967000Y-66521000D02*
X188252000Y-66521000D01*
X185967000Y-65051000D02*
X185967000Y-66521000D01*
X188252000Y-65051000D02*
X185967000Y-65051000D01*
X182974064Y-64029000D02*
X181769936Y-64029000D01*
X182974064Y-62209000D02*
X181769936Y-62209000D01*
X181868578Y-67004000D02*
X181351422Y-67004000D01*
X181868578Y-65584000D02*
X181351422Y-65584000D01*
X139954000Y-82252000D02*
X142154000Y-82252000D01*
X139954000Y-82252000D02*
X137754000Y-82252000D01*
X139954000Y-75482000D02*
X142154000Y-75482000D01*
X139954000Y-75482000D02*
X136354000Y-75482000D01*
X144119500Y-43524500D02*
X141834500Y-43524500D01*
X141834500Y-43524500D02*
X141834500Y-44994500D01*
X141834500Y-44994500D02*
X144119500Y-44994500D01*
X139641078Y-45033000D02*
X139123922Y-45033000D01*
X139641078Y-43613000D02*
X139123922Y-43613000D01*
X172708500Y-86101422D02*
X172708500Y-86618578D01*
X174128500Y-86101422D02*
X174128500Y-86618578D01*
X159396500Y-87117422D02*
X159396500Y-87634578D01*
X157976500Y-87117422D02*
X157976500Y-87634578D01*
X111644500Y-86799922D02*
X111644500Y-87317078D01*
X110224500Y-86799922D02*
X110224500Y-87317078D01*
X94603500Y-86609422D02*
X94603500Y-87126578D01*
X96023500Y-86609422D02*
X96023500Y-87126578D01*
D16*
X161067761Y-69519619D02*
X160972523Y-69472000D01*
X160877285Y-69376761D01*
X160734428Y-69233904D01*
X160639190Y-69186285D01*
X160543952Y-69186285D01*
X160591571Y-69424380D02*
X160496333Y-69376761D01*
X160401095Y-69281523D01*
X160353476Y-69091047D01*
X160353476Y-68757714D01*
X160401095Y-68567238D01*
X160496333Y-68472000D01*
X160591571Y-68424380D01*
X160782047Y-68424380D01*
X160877285Y-68472000D01*
X160972523Y-68567238D01*
X161020142Y-68757714D01*
X161020142Y-69091047D01*
X160972523Y-69281523D01*
X160877285Y-69376761D01*
X160782047Y-69424380D01*
X160591571Y-69424380D01*
X161353476Y-68424380D02*
X161972523Y-68424380D01*
X161639190Y-68805333D01*
X161782047Y-68805333D01*
X161877285Y-68852952D01*
X161924904Y-68900571D01*
X161972523Y-68995809D01*
X161972523Y-69233904D01*
X161924904Y-69329142D01*
X161877285Y-69376761D01*
X161782047Y-69424380D01*
X161496333Y-69424380D01*
X161401095Y-69376761D01*
X161353476Y-69329142D01*
X169441904Y-49728380D02*
X169441904Y-48728380D01*
X169680000Y-48728380D01*
X169822857Y-48776000D01*
X169918095Y-48871238D01*
X169965714Y-48966476D01*
X170013333Y-49156952D01*
X170013333Y-49299809D01*
X169965714Y-49490285D01*
X169918095Y-49585523D01*
X169822857Y-49680761D01*
X169680000Y-49728380D01*
X169441904Y-49728380D01*
X170965714Y-49728380D02*
X170394285Y-49728380D01*
X170680000Y-49728380D02*
X170680000Y-48728380D01*
X170584761Y-48871238D01*
X170489523Y-48966476D01*
X170394285Y-49014095D01*
D17*
X89483679Y-93111523D02*
X88878917Y-93111523D01*
X88878917Y-91841523D01*
X90451298Y-92264857D02*
X90451298Y-93111523D01*
X90148917Y-91781047D02*
X89846536Y-92688190D01*
X90632726Y-92688190D01*
D18*
X124779095Y-44427380D02*
X124779095Y-45236904D01*
X124826714Y-45332142D01*
X124874333Y-45379761D01*
X124969571Y-45427380D01*
X125160047Y-45427380D01*
X125255285Y-45379761D01*
X125302904Y-45332142D01*
X125350523Y-45236904D01*
X125350523Y-44427380D01*
X125969571Y-44855952D02*
X125874333Y-44808333D01*
X125826714Y-44760714D01*
X125779095Y-44665476D01*
X125779095Y-44617857D01*
X125826714Y-44522619D01*
X125874333Y-44475000D01*
X125969571Y-44427380D01*
X126160047Y-44427380D01*
X126255285Y-44475000D01*
X126302904Y-44522619D01*
X126350523Y-44617857D01*
X126350523Y-44665476D01*
X126302904Y-44760714D01*
X126255285Y-44808333D01*
X126160047Y-44855952D01*
X125969571Y-44855952D01*
X125874333Y-44903571D01*
X125826714Y-44951190D01*
X125779095Y-45046428D01*
X125779095Y-45236904D01*
X125826714Y-45332142D01*
X125874333Y-45379761D01*
X125969571Y-45427380D01*
X126160047Y-45427380D01*
X126255285Y-45379761D01*
X126302904Y-45332142D01*
X126350523Y-45236904D01*
X126350523Y-45046428D01*
X126302904Y-44951190D01*
X126255285Y-44903571D01*
X126160047Y-44855952D01*
D16*
X178689095Y-54062380D02*
X178689095Y-54871904D01*
X178736714Y-54967142D01*
X178784333Y-55014761D01*
X178879571Y-55062380D01*
X179070047Y-55062380D01*
X179165285Y-55014761D01*
X179212904Y-54967142D01*
X179260523Y-54871904D01*
X179260523Y-54062380D01*
X180165285Y-54062380D02*
X179974809Y-54062380D01*
X179879571Y-54110000D01*
X179831952Y-54157619D01*
X179736714Y-54300476D01*
X179689095Y-54490952D01*
X179689095Y-54871904D01*
X179736714Y-54967142D01*
X179784333Y-55014761D01*
X179879571Y-55062380D01*
X180070047Y-55062380D01*
X180165285Y-55014761D01*
X180212904Y-54967142D01*
X180260523Y-54871904D01*
X180260523Y-54633809D01*
X180212904Y-54538571D01*
X180165285Y-54490952D01*
X180070047Y-54443333D01*
X179879571Y-54443333D01*
X179784333Y-54490952D01*
X179736714Y-54538571D01*
X179689095Y-54633809D01*
X149542595Y-92044880D02*
X149542595Y-92854404D01*
X149590214Y-92949642D01*
X149637833Y-92997261D01*
X149733071Y-93044880D01*
X149923547Y-93044880D01*
X150018785Y-92997261D01*
X150066404Y-92949642D01*
X150114023Y-92854404D01*
X150114023Y-92044880D01*
X151018785Y-92378214D02*
X151018785Y-93044880D01*
X150780690Y-91997261D02*
X150542595Y-92711547D01*
X151161642Y-92711547D01*
X106894880Y-87510857D02*
X106418690Y-87844190D01*
X106894880Y-88082285D02*
X105894880Y-88082285D01*
X105894880Y-87701333D01*
X105942500Y-87606095D01*
X105990119Y-87558476D01*
X106085357Y-87510857D01*
X106228214Y-87510857D01*
X106323452Y-87558476D01*
X106371071Y-87606095D01*
X106418690Y-87701333D01*
X106418690Y-88082285D01*
X105990119Y-87129904D02*
X105942500Y-87082285D01*
X105894880Y-86987047D01*
X105894880Y-86748952D01*
X105942500Y-86653714D01*
X105990119Y-86606095D01*
X106085357Y-86558476D01*
X106180595Y-86558476D01*
X106323452Y-86606095D01*
X106894880Y-87177523D01*
X106894880Y-86558476D01*
X105894880Y-85653714D02*
X105894880Y-86129904D01*
X106371071Y-86177523D01*
X106323452Y-86129904D01*
X106275833Y-86034666D01*
X106275833Y-85796571D01*
X106323452Y-85701333D01*
X106371071Y-85653714D01*
X106466309Y-85606095D01*
X106704404Y-85606095D01*
X106799642Y-85653714D01*
X106847261Y-85701333D01*
X106894880Y-85796571D01*
X106894880Y-86034666D01*
X106847261Y-86129904D01*
X106799642Y-86177523D01*
X118800642Y-92019380D02*
X118467309Y-91543190D01*
X118229214Y-92019380D02*
X118229214Y-91019380D01*
X118610166Y-91019380D01*
X118705404Y-91067000D01*
X118753023Y-91114619D01*
X118800642Y-91209857D01*
X118800642Y-91352714D01*
X118753023Y-91447952D01*
X118705404Y-91495571D01*
X118610166Y-91543190D01*
X118229214Y-91543190D01*
X119181595Y-91114619D02*
X119229214Y-91067000D01*
X119324452Y-91019380D01*
X119562547Y-91019380D01*
X119657785Y-91067000D01*
X119705404Y-91114619D01*
X119753023Y-91209857D01*
X119753023Y-91305095D01*
X119705404Y-91447952D01*
X119133976Y-92019380D01*
X119753023Y-92019380D01*
X120610166Y-91352714D02*
X120610166Y-92019380D01*
X120372071Y-90971761D02*
X120133976Y-91686047D01*
X120753023Y-91686047D01*
X169632880Y-87574357D02*
X169156690Y-87907690D01*
X169632880Y-88145785D02*
X168632880Y-88145785D01*
X168632880Y-87764833D01*
X168680500Y-87669595D01*
X168728119Y-87621976D01*
X168823357Y-87574357D01*
X168966214Y-87574357D01*
X169061452Y-87621976D01*
X169109071Y-87669595D01*
X169156690Y-87764833D01*
X169156690Y-88145785D01*
X168728119Y-87193404D02*
X168680500Y-87145785D01*
X168632880Y-87050547D01*
X168632880Y-86812452D01*
X168680500Y-86717214D01*
X168728119Y-86669595D01*
X168823357Y-86621976D01*
X168918595Y-86621976D01*
X169061452Y-86669595D01*
X169632880Y-87241023D01*
X169632880Y-86621976D01*
X169632880Y-85669595D02*
X169632880Y-86241023D01*
X169632880Y-85955309D02*
X168632880Y-85955309D01*
X168775738Y-86050547D01*
X168870976Y-86145785D01*
X168918595Y-86241023D01*
X185126880Y-87574357D02*
X184650690Y-87907690D01*
X185126880Y-88145785D02*
X184126880Y-88145785D01*
X184126880Y-87764833D01*
X184174500Y-87669595D01*
X184222119Y-87621976D01*
X184317357Y-87574357D01*
X184460214Y-87574357D01*
X184555452Y-87621976D01*
X184603071Y-87669595D01*
X184650690Y-87764833D01*
X184650690Y-88145785D01*
X184222119Y-87193404D02*
X184174500Y-87145785D01*
X184126880Y-87050547D01*
X184126880Y-86812452D01*
X184174500Y-86717214D01*
X184222119Y-86669595D01*
X184317357Y-86621976D01*
X184412595Y-86621976D01*
X184555452Y-86669595D01*
X185126880Y-87241023D01*
X185126880Y-86621976D01*
X184126880Y-86002928D02*
X184126880Y-85907690D01*
X184174500Y-85812452D01*
X184222119Y-85764833D01*
X184317357Y-85717214D01*
X184507833Y-85669595D01*
X184745928Y-85669595D01*
X184936404Y-85717214D01*
X185031642Y-85764833D01*
X185079261Y-85812452D01*
X185126880Y-85907690D01*
X185126880Y-86002928D01*
X185079261Y-86098166D01*
X185031642Y-86145785D01*
X184936404Y-86193404D01*
X184745928Y-86241023D01*
X184507833Y-86241023D01*
X184317357Y-86193404D01*
X184222119Y-86145785D01*
X184174500Y-86098166D01*
X184126880Y-86002928D01*
D10*
X99667190Y-89348428D02*
X99429095Y-89515095D01*
X99667190Y-89634142D02*
X99167190Y-89634142D01*
X99167190Y-89443666D01*
X99191000Y-89396047D01*
X99214809Y-89372238D01*
X99262428Y-89348428D01*
X99333857Y-89348428D01*
X99381476Y-89372238D01*
X99405285Y-89396047D01*
X99429095Y-89443666D01*
X99429095Y-89634142D01*
X99667190Y-88872238D02*
X99667190Y-89157952D01*
X99667190Y-89015095D02*
X99167190Y-89015095D01*
X99238619Y-89062714D01*
X99286238Y-89110333D01*
X99310047Y-89157952D01*
X99667190Y-88634142D02*
X99667190Y-88538904D01*
X99643380Y-88491285D01*
X99619571Y-88467476D01*
X99548142Y-88419857D01*
X99452904Y-88396047D01*
X99262428Y-88396047D01*
X99214809Y-88419857D01*
X99191000Y-88443666D01*
X99167190Y-88491285D01*
X99167190Y-88586523D01*
X99191000Y-88634142D01*
X99214809Y-88657952D01*
X99262428Y-88681761D01*
X99381476Y-88681761D01*
X99429095Y-88657952D01*
X99452904Y-88634142D01*
X99476714Y-88586523D01*
X99476714Y-88491285D01*
X99452904Y-88443666D01*
X99429095Y-88419857D01*
X99381476Y-88396047D01*
X162913190Y-89729428D02*
X162675095Y-89896095D01*
X162913190Y-90015142D02*
X162413190Y-90015142D01*
X162413190Y-89824666D01*
X162437000Y-89777047D01*
X162460809Y-89753238D01*
X162508428Y-89729428D01*
X162579857Y-89729428D01*
X162627476Y-89753238D01*
X162651285Y-89777047D01*
X162675095Y-89824666D01*
X162675095Y-90015142D01*
X162913190Y-89253238D02*
X162913190Y-89538952D01*
X162913190Y-89396095D02*
X162413190Y-89396095D01*
X162484619Y-89443714D01*
X162532238Y-89491333D01*
X162556047Y-89538952D01*
X162627476Y-88967523D02*
X162603666Y-89015142D01*
X162579857Y-89038952D01*
X162532238Y-89062761D01*
X162508428Y-89062761D01*
X162460809Y-89038952D01*
X162437000Y-89015142D01*
X162413190Y-88967523D01*
X162413190Y-88872285D01*
X162437000Y-88824666D01*
X162460809Y-88800857D01*
X162508428Y-88777047D01*
X162532238Y-88777047D01*
X162579857Y-88800857D01*
X162603666Y-88824666D01*
X162627476Y-88872285D01*
X162627476Y-88967523D01*
X162651285Y-89015142D01*
X162675095Y-89038952D01*
X162722714Y-89062761D01*
X162817952Y-89062761D01*
X162865571Y-89038952D01*
X162889380Y-89015142D01*
X162913190Y-88967523D01*
X162913190Y-88872285D01*
X162889380Y-88824666D01*
X162865571Y-88800857D01*
X162817952Y-88777047D01*
X162722714Y-88777047D01*
X162675095Y-88800857D01*
X162651285Y-88824666D01*
X162627476Y-88872285D01*
X167826571Y-52804190D02*
X167659904Y-52566095D01*
X167540857Y-52804190D02*
X167540857Y-52304190D01*
X167731333Y-52304190D01*
X167778952Y-52328000D01*
X167802761Y-52351809D01*
X167826571Y-52399428D01*
X167826571Y-52470857D01*
X167802761Y-52518476D01*
X167778952Y-52542285D01*
X167731333Y-52566095D01*
X167540857Y-52566095D01*
X168302761Y-52804190D02*
X168017047Y-52804190D01*
X168159904Y-52804190D02*
X168159904Y-52304190D01*
X168112285Y-52375619D01*
X168064666Y-52423238D01*
X168017047Y-52447047D01*
X168469428Y-52304190D02*
X168802761Y-52304190D01*
X168588476Y-52804190D01*
X170366571Y-52804190D02*
X170199904Y-52566095D01*
X170080857Y-52804190D02*
X170080857Y-52304190D01*
X170271333Y-52304190D01*
X170318952Y-52328000D01*
X170342761Y-52351809D01*
X170366571Y-52399428D01*
X170366571Y-52470857D01*
X170342761Y-52518476D01*
X170318952Y-52542285D01*
X170271333Y-52566095D01*
X170080857Y-52566095D01*
X170842761Y-52804190D02*
X170557047Y-52804190D01*
X170699904Y-52804190D02*
X170699904Y-52304190D01*
X170652285Y-52375619D01*
X170604666Y-52423238D01*
X170557047Y-52447047D01*
X171271333Y-52304190D02*
X171176095Y-52304190D01*
X171128476Y-52328000D01*
X171104666Y-52351809D01*
X171057047Y-52423238D01*
X171033238Y-52518476D01*
X171033238Y-52708952D01*
X171057047Y-52756571D01*
X171080857Y-52780380D01*
X171128476Y-52804190D01*
X171223714Y-52804190D01*
X171271333Y-52780380D01*
X171295142Y-52756571D01*
X171318952Y-52708952D01*
X171318952Y-52589904D01*
X171295142Y-52542285D01*
X171271333Y-52518476D01*
X171223714Y-52494666D01*
X171128476Y-52494666D01*
X171080857Y-52518476D01*
X171057047Y-52542285D01*
X171033238Y-52589904D01*
X99603690Y-85093928D02*
X99365595Y-85260595D01*
X99603690Y-85379642D02*
X99103690Y-85379642D01*
X99103690Y-85189166D01*
X99127500Y-85141547D01*
X99151309Y-85117738D01*
X99198928Y-85093928D01*
X99270357Y-85093928D01*
X99317976Y-85117738D01*
X99341785Y-85141547D01*
X99365595Y-85189166D01*
X99365595Y-85379642D01*
X99603690Y-84617738D02*
X99603690Y-84903452D01*
X99603690Y-84760595D02*
X99103690Y-84760595D01*
X99175119Y-84808214D01*
X99222738Y-84855833D01*
X99246547Y-84903452D01*
X99103690Y-84165357D02*
X99103690Y-84403452D01*
X99341785Y-84427261D01*
X99317976Y-84403452D01*
X99294166Y-84355833D01*
X99294166Y-84236785D01*
X99317976Y-84189166D01*
X99341785Y-84165357D01*
X99389404Y-84141547D01*
X99508452Y-84141547D01*
X99556071Y-84165357D01*
X99579880Y-84189166D01*
X99603690Y-84236785D01*
X99603690Y-84355833D01*
X99579880Y-84403452D01*
X99556071Y-84427261D01*
X162913190Y-85093928D02*
X162675095Y-85260595D01*
X162913190Y-85379642D02*
X162413190Y-85379642D01*
X162413190Y-85189166D01*
X162437000Y-85141547D01*
X162460809Y-85117738D01*
X162508428Y-85093928D01*
X162579857Y-85093928D01*
X162627476Y-85117738D01*
X162651285Y-85141547D01*
X162675095Y-85189166D01*
X162675095Y-85379642D01*
X162913190Y-84617738D02*
X162913190Y-84903452D01*
X162913190Y-84760595D02*
X162413190Y-84760595D01*
X162484619Y-84808214D01*
X162532238Y-84855833D01*
X162556047Y-84903452D01*
X162579857Y-84189166D02*
X162913190Y-84189166D01*
X162389380Y-84308214D02*
X162746523Y-84427261D01*
X162746523Y-84117738D01*
X174343190Y-59757428D02*
X174105095Y-59924095D01*
X174343190Y-60043142D02*
X173843190Y-60043142D01*
X173843190Y-59852666D01*
X173867000Y-59805047D01*
X173890809Y-59781238D01*
X173938428Y-59757428D01*
X174009857Y-59757428D01*
X174057476Y-59781238D01*
X174081285Y-59805047D01*
X174105095Y-59852666D01*
X174105095Y-60043142D01*
X174343190Y-59281238D02*
X174343190Y-59566952D01*
X174343190Y-59424095D02*
X173843190Y-59424095D01*
X173914619Y-59471714D01*
X173962238Y-59519333D01*
X173986047Y-59566952D01*
X173843190Y-59114571D02*
X173843190Y-58805047D01*
X174033666Y-58971714D01*
X174033666Y-58900285D01*
X174057476Y-58852666D01*
X174081285Y-58828857D01*
X174128904Y-58805047D01*
X174247952Y-58805047D01*
X174295571Y-58828857D01*
X174319380Y-58852666D01*
X174343190Y-58900285D01*
X174343190Y-59043142D01*
X174319380Y-59090761D01*
X174295571Y-59114571D01*
X171930190Y-62043428D02*
X171692095Y-62210095D01*
X171930190Y-62329142D02*
X171430190Y-62329142D01*
X171430190Y-62138666D01*
X171454000Y-62091047D01*
X171477809Y-62067238D01*
X171525428Y-62043428D01*
X171596857Y-62043428D01*
X171644476Y-62067238D01*
X171668285Y-62091047D01*
X171692095Y-62138666D01*
X171692095Y-62329142D01*
X171930190Y-61567238D02*
X171930190Y-61852952D01*
X171930190Y-61710095D02*
X171430190Y-61710095D01*
X171501619Y-61757714D01*
X171549238Y-61805333D01*
X171573047Y-61852952D01*
X171477809Y-61376761D02*
X171454000Y-61352952D01*
X171430190Y-61305333D01*
X171430190Y-61186285D01*
X171454000Y-61138666D01*
X171477809Y-61114857D01*
X171525428Y-61091047D01*
X171573047Y-61091047D01*
X171644476Y-61114857D01*
X171930190Y-61400571D01*
X171930190Y-61091047D01*
X115224690Y-89157928D02*
X114986595Y-89324595D01*
X115224690Y-89443642D02*
X114724690Y-89443642D01*
X114724690Y-89253166D01*
X114748500Y-89205547D01*
X114772309Y-89181738D01*
X114819928Y-89157928D01*
X114891357Y-89157928D01*
X114938976Y-89181738D01*
X114962785Y-89205547D01*
X114986595Y-89253166D01*
X114986595Y-89443642D01*
X115224690Y-88681738D02*
X115224690Y-88967452D01*
X115224690Y-88824595D02*
X114724690Y-88824595D01*
X114796119Y-88872214D01*
X114843738Y-88919833D01*
X114867547Y-88967452D01*
X115224690Y-88205547D02*
X115224690Y-88491261D01*
X115224690Y-88348404D02*
X114724690Y-88348404D01*
X114796119Y-88396023D01*
X114843738Y-88443642D01*
X114867547Y-88491261D01*
X175105190Y-89475428D02*
X174867095Y-89642095D01*
X175105190Y-89761142D02*
X174605190Y-89761142D01*
X174605190Y-89570666D01*
X174629000Y-89523047D01*
X174652809Y-89499238D01*
X174700428Y-89475428D01*
X174771857Y-89475428D01*
X174819476Y-89499238D01*
X174843285Y-89523047D01*
X174867095Y-89570666D01*
X174867095Y-89761142D01*
X175105190Y-88999238D02*
X175105190Y-89284952D01*
X175105190Y-89142095D02*
X174605190Y-89142095D01*
X174676619Y-89189714D01*
X174724238Y-89237333D01*
X174748047Y-89284952D01*
X174605190Y-88689714D02*
X174605190Y-88642095D01*
X174629000Y-88594476D01*
X174652809Y-88570666D01*
X174700428Y-88546857D01*
X174795666Y-88523047D01*
X174914714Y-88523047D01*
X175009952Y-88546857D01*
X175057571Y-88570666D01*
X175081380Y-88594476D01*
X175105190Y-88642095D01*
X175105190Y-88689714D01*
X175081380Y-88737333D01*
X175057571Y-88761142D01*
X175009952Y-88784952D01*
X174914714Y-88808761D01*
X174795666Y-88808761D01*
X174700428Y-88784952D01*
X174652809Y-88761142D01*
X174629000Y-88737333D01*
X174605190Y-88689714D01*
X115288190Y-84728833D02*
X115050095Y-84895500D01*
X115288190Y-85014547D02*
X114788190Y-85014547D01*
X114788190Y-84824071D01*
X114812000Y-84776452D01*
X114835809Y-84752642D01*
X114883428Y-84728833D01*
X114954857Y-84728833D01*
X115002476Y-84752642D01*
X115026285Y-84776452D01*
X115050095Y-84824071D01*
X115050095Y-85014547D01*
X115288190Y-84490738D02*
X115288190Y-84395500D01*
X115264380Y-84347880D01*
X115240571Y-84324071D01*
X115169142Y-84276452D01*
X115073904Y-84252642D01*
X114883428Y-84252642D01*
X114835809Y-84276452D01*
X114812000Y-84300261D01*
X114788190Y-84347880D01*
X114788190Y-84443119D01*
X114812000Y-84490738D01*
X114835809Y-84514547D01*
X114883428Y-84538357D01*
X115002476Y-84538357D01*
X115050095Y-84514547D01*
X115073904Y-84490738D01*
X115097714Y-84443119D01*
X115097714Y-84347880D01*
X115073904Y-84300261D01*
X115050095Y-84276452D01*
X115002476Y-84252642D01*
X177962690Y-84855833D02*
X177724595Y-85022500D01*
X177962690Y-85141547D02*
X177462690Y-85141547D01*
X177462690Y-84951071D01*
X177486500Y-84903452D01*
X177510309Y-84879642D01*
X177557928Y-84855833D01*
X177629357Y-84855833D01*
X177676976Y-84879642D01*
X177700785Y-84903452D01*
X177724595Y-84951071D01*
X177724595Y-85141547D01*
X177676976Y-84570119D02*
X177653166Y-84617738D01*
X177629357Y-84641547D01*
X177581738Y-84665357D01*
X177557928Y-84665357D01*
X177510309Y-84641547D01*
X177486500Y-84617738D01*
X177462690Y-84570119D01*
X177462690Y-84474880D01*
X177486500Y-84427261D01*
X177510309Y-84403452D01*
X177557928Y-84379642D01*
X177581738Y-84379642D01*
X177629357Y-84403452D01*
X177653166Y-84427261D01*
X177676976Y-84474880D01*
X177676976Y-84570119D01*
X177700785Y-84617738D01*
X177724595Y-84641547D01*
X177772214Y-84665357D01*
X177867452Y-84665357D01*
X177915071Y-84641547D01*
X177938880Y-84617738D01*
X177962690Y-84570119D01*
X177962690Y-84474880D01*
X177938880Y-84427261D01*
X177915071Y-84403452D01*
X177867452Y-84379642D01*
X177772214Y-84379642D01*
X177724595Y-84403452D01*
X177700785Y-84427261D01*
X177676976Y-84474880D01*
D16*
X167070012Y-42309149D02*
X167070012Y-43023435D01*
X167022393Y-43166292D01*
X166927155Y-43261530D01*
X166784298Y-43309149D01*
X166689060Y-43309149D01*
X167498584Y-42404388D02*
X167546203Y-42356769D01*
X167641441Y-42309149D01*
X167879536Y-42309149D01*
X167974774Y-42356769D01*
X168022393Y-42404388D01*
X168070012Y-42499626D01*
X168070012Y-42594864D01*
X168022393Y-42737721D01*
X167450965Y-43309149D01*
X168070012Y-43309149D01*
D17*
X188734179Y-93238523D02*
X188129417Y-93238523D01*
X188129417Y-91968523D01*
X189822750Y-93238523D02*
X189097036Y-93238523D01*
X189459893Y-93238523D02*
X189459893Y-91968523D01*
X189338941Y-92149952D01*
X189217988Y-92270904D01*
X189097036Y-92331380D01*
X163300833Y-93284523D02*
X162696071Y-93284523D01*
X162696071Y-92014523D01*
X163663690Y-92135476D02*
X163724166Y-92075000D01*
X163845119Y-92014523D01*
X164147500Y-92014523D01*
X164268452Y-92075000D01*
X164328928Y-92135476D01*
X164389404Y-92256428D01*
X164389404Y-92377380D01*
X164328928Y-92558809D01*
X163603214Y-93284523D01*
X164389404Y-93284523D01*
X116310833Y-93238523D02*
X115706071Y-93238523D01*
X115706071Y-91968523D01*
X116613214Y-91968523D02*
X117399404Y-91968523D01*
X116976071Y-92452333D01*
X117157500Y-92452333D01*
X117278452Y-92512809D01*
X117338928Y-92573285D01*
X117399404Y-92694238D01*
X117399404Y-92996619D01*
X117338928Y-93117571D01*
X117278452Y-93178047D01*
X117157500Y-93238523D01*
X116794642Y-93238523D01*
X116673690Y-93178047D01*
X116613214Y-93117571D01*
D19*
X148789380Y-62991904D02*
X149598904Y-62991904D01*
X149694142Y-62944285D01*
X149741761Y-62896666D01*
X149789380Y-62801428D01*
X149789380Y-62610952D01*
X149741761Y-62515714D01*
X149694142Y-62468095D01*
X149598904Y-62420476D01*
X148789380Y-62420476D01*
X148789380Y-62039523D02*
X148789380Y-61372857D01*
X149789380Y-61801428D01*
D10*
X170080857Y-122146190D02*
X170080857Y-121646190D01*
X170199904Y-121646190D01*
X170271333Y-121670000D01*
X170318952Y-121717619D01*
X170342761Y-121765238D01*
X170366571Y-121860476D01*
X170366571Y-121931904D01*
X170342761Y-122027142D01*
X170318952Y-122074761D01*
X170271333Y-122122380D01*
X170199904Y-122146190D01*
X170080857Y-122146190D01*
X170842761Y-122146190D02*
X170557047Y-122146190D01*
X170699904Y-122146190D02*
X170699904Y-121646190D01*
X170652285Y-121717619D01*
X170604666Y-121765238D01*
X170557047Y-121789047D01*
X171033238Y-121693809D02*
X171057047Y-121670000D01*
X171104666Y-121646190D01*
X171223714Y-121646190D01*
X171271333Y-121670000D01*
X171295142Y-121693809D01*
X171318952Y-121741428D01*
X171318952Y-121789047D01*
X171295142Y-121860476D01*
X171009428Y-122146190D01*
X171318952Y-122146190D01*
D16*
X143565714Y-122372380D02*
X143565714Y-121372380D01*
X143803809Y-121372380D01*
X143946666Y-121420000D01*
X144041904Y-121515238D01*
X144089523Y-121610476D01*
X144137142Y-121800952D01*
X144137142Y-121943809D01*
X144089523Y-122134285D01*
X144041904Y-122229523D01*
X143946666Y-122324761D01*
X143803809Y-122372380D01*
X143565714Y-122372380D01*
X145089523Y-122372380D02*
X144518095Y-122372380D01*
X144803809Y-122372380D02*
X144803809Y-121372380D01*
X144708571Y-121515238D01*
X144613333Y-121610476D01*
X144518095Y-121658095D01*
X145422857Y-121372380D02*
X146041904Y-121372380D01*
X145708571Y-121753333D01*
X145851428Y-121753333D01*
X145946666Y-121800952D01*
X145994285Y-121848571D01*
X146041904Y-121943809D01*
X146041904Y-122181904D01*
X145994285Y-122277142D01*
X145946666Y-122324761D01*
X145851428Y-122372380D01*
X145565714Y-122372380D01*
X145470476Y-122324761D01*
X145422857Y-122277142D01*
X117533714Y-122372380D02*
X117533714Y-121372380D01*
X117771809Y-121372380D01*
X117914666Y-121420000D01*
X118009904Y-121515238D01*
X118057523Y-121610476D01*
X118105142Y-121800952D01*
X118105142Y-121943809D01*
X118057523Y-122134285D01*
X118009904Y-122229523D01*
X117914666Y-122324761D01*
X117771809Y-122372380D01*
X117533714Y-122372380D01*
X118486095Y-121467619D02*
X118533714Y-121420000D01*
X118628952Y-121372380D01*
X118867047Y-121372380D01*
X118962285Y-121420000D01*
X119009904Y-121467619D01*
X119057523Y-121562857D01*
X119057523Y-121658095D01*
X119009904Y-121800952D01*
X118438476Y-122372380D01*
X119057523Y-122372380D01*
X119438476Y-121467619D02*
X119486095Y-121420000D01*
X119581333Y-121372380D01*
X119819428Y-121372380D01*
X119914666Y-121420000D01*
X119962285Y-121467619D01*
X120009904Y-121562857D01*
X120009904Y-121658095D01*
X119962285Y-121800952D01*
X119390857Y-122372380D01*
X120009904Y-122372380D01*
X90987714Y-122372380D02*
X90987714Y-121372380D01*
X91225809Y-121372380D01*
X91368666Y-121420000D01*
X91463904Y-121515238D01*
X91511523Y-121610476D01*
X91559142Y-121800952D01*
X91559142Y-121943809D01*
X91511523Y-122134285D01*
X91463904Y-122229523D01*
X91368666Y-122324761D01*
X91225809Y-122372380D01*
X90987714Y-122372380D01*
X91940095Y-121467619D02*
X91987714Y-121420000D01*
X92082952Y-121372380D01*
X92321047Y-121372380D01*
X92416285Y-121420000D01*
X92463904Y-121467619D01*
X92511523Y-121562857D01*
X92511523Y-121658095D01*
X92463904Y-121800952D01*
X91892476Y-122372380D01*
X92511523Y-122372380D01*
X92844857Y-121372380D02*
X93463904Y-121372380D01*
X93130571Y-121753333D01*
X93273428Y-121753333D01*
X93368666Y-121800952D01*
X93416285Y-121848571D01*
X93463904Y-121943809D01*
X93463904Y-122181904D01*
X93416285Y-122277142D01*
X93368666Y-122324761D01*
X93273428Y-122372380D01*
X92987714Y-122372380D01*
X92892476Y-122324761D01*
X92844857Y-122277142D01*
X174839333Y-51411142D02*
X174791714Y-51458761D01*
X174648857Y-51506380D01*
X174553619Y-51506380D01*
X174410761Y-51458761D01*
X174315523Y-51363523D01*
X174267904Y-51268285D01*
X174220285Y-51077809D01*
X174220285Y-50934952D01*
X174267904Y-50744476D01*
X174315523Y-50649238D01*
X174410761Y-50554000D01*
X174553619Y-50506380D01*
X174648857Y-50506380D01*
X174791714Y-50554000D01*
X174839333Y-50601619D01*
X175791714Y-51506380D02*
X175220285Y-51506380D01*
X175506000Y-51506380D02*
X175506000Y-50506380D01*
X175410761Y-50649238D01*
X175315523Y-50744476D01*
X175220285Y-50792095D01*
X89795226Y-39426364D02*
X88795226Y-39426364D01*
X88795226Y-39188269D01*
X88842846Y-39045411D01*
X88938084Y-38950173D01*
X89033322Y-38902554D01*
X89223798Y-38854935D01*
X89366655Y-38854935D01*
X89557131Y-38902554D01*
X89652369Y-38950173D01*
X89747607Y-39045411D01*
X89795226Y-39188269D01*
X89795226Y-39426364D01*
X89128560Y-37997792D02*
X89795226Y-37997792D01*
X88747607Y-38235888D02*
X89461893Y-38473983D01*
X89461893Y-37854935D01*
X96316226Y-39489864D02*
X95316226Y-39489864D01*
X95316226Y-39251769D01*
X95363846Y-39108911D01*
X95459084Y-39013673D01*
X95554322Y-38966054D01*
X95744798Y-38918435D01*
X95887655Y-38918435D01*
X96078131Y-38966054D01*
X96173369Y-39013673D01*
X96268607Y-39108911D01*
X96316226Y-39251769D01*
X96316226Y-39489864D01*
X95316226Y-38013673D02*
X95316226Y-38489864D01*
X95792417Y-38537483D01*
X95744798Y-38489864D01*
X95697179Y-38394626D01*
X95697179Y-38156530D01*
X95744798Y-38061292D01*
X95792417Y-38013673D01*
X95887655Y-37966054D01*
X96125750Y-37966054D01*
X96220988Y-38013673D01*
X96268607Y-38061292D01*
X96316226Y-38156530D01*
X96316226Y-38394626D01*
X96268607Y-38489864D01*
X96220988Y-38537483D01*
X109548726Y-39426364D02*
X108548726Y-39426364D01*
X108548726Y-39188269D01*
X108596346Y-39045411D01*
X108691584Y-38950173D01*
X108786822Y-38902554D01*
X108977298Y-38854935D01*
X109120155Y-38854935D01*
X109310631Y-38902554D01*
X109405869Y-38950173D01*
X109501107Y-39045411D01*
X109548726Y-39188269D01*
X109548726Y-39426364D01*
X108548726Y-37997792D02*
X108548726Y-38188269D01*
X108596346Y-38283507D01*
X108643965Y-38331126D01*
X108786822Y-38426364D01*
X108977298Y-38473983D01*
X109358250Y-38473983D01*
X109453488Y-38426364D01*
X109501107Y-38378745D01*
X109548726Y-38283507D01*
X109548726Y-38093030D01*
X109501107Y-37997792D01*
X109453488Y-37950173D01*
X109358250Y-37902554D01*
X109120155Y-37902554D01*
X109024917Y-37950173D01*
X108977298Y-37997792D01*
X108929679Y-38093030D01*
X108929679Y-38283507D01*
X108977298Y-38378745D01*
X109024917Y-38426364D01*
X109120155Y-38473983D01*
X102964226Y-48559864D02*
X101964226Y-48559864D01*
X101964226Y-48321769D01*
X102011846Y-48178911D01*
X102107084Y-48083673D01*
X102202322Y-48036054D01*
X102392798Y-47988435D01*
X102535655Y-47988435D01*
X102726131Y-48036054D01*
X102821369Y-48083673D01*
X102916607Y-48178911D01*
X102964226Y-48321769D01*
X102964226Y-48559864D01*
X102392798Y-47417007D02*
X102345179Y-47512245D01*
X102297560Y-47559864D01*
X102202322Y-47607483D01*
X102154703Y-47607483D01*
X102059465Y-47559864D01*
X102011846Y-47512245D01*
X101964226Y-47417007D01*
X101964226Y-47226530D01*
X102011846Y-47131292D01*
X102059465Y-47083673D01*
X102154703Y-47036054D01*
X102202322Y-47036054D01*
X102297560Y-47083673D01*
X102345179Y-47131292D01*
X102392798Y-47226530D01*
X102392798Y-47417007D01*
X102440417Y-47512245D01*
X102488036Y-47559864D01*
X102583274Y-47607483D01*
X102773750Y-47607483D01*
X102868988Y-47559864D01*
X102916607Y-47512245D01*
X102964226Y-47417007D01*
X102964226Y-47226530D01*
X102916607Y-47131292D01*
X102868988Y-47083673D01*
X102773750Y-47036054D01*
X102583274Y-47036054D01*
X102488036Y-47083673D01*
X102440417Y-47131292D01*
X102392798Y-47226530D01*
X102964226Y-39489864D02*
X101964226Y-39489864D01*
X101964226Y-39251769D01*
X102011846Y-39108911D01*
X102107084Y-39013673D01*
X102202322Y-38966054D01*
X102392798Y-38918435D01*
X102535655Y-38918435D01*
X102726131Y-38966054D01*
X102821369Y-39013673D01*
X102916607Y-39108911D01*
X102964226Y-39251769D01*
X102964226Y-39489864D01*
X102964226Y-38442245D02*
X102964226Y-38251769D01*
X102916607Y-38156530D01*
X102868988Y-38108911D01*
X102726131Y-38013673D01*
X102535655Y-37966054D01*
X102154703Y-37966054D01*
X102059465Y-38013673D01*
X102011846Y-38061292D01*
X101964226Y-38156530D01*
X101964226Y-38347007D01*
X102011846Y-38442245D01*
X102059465Y-38489864D01*
X102154703Y-38537483D01*
X102392798Y-38537483D01*
X102488036Y-38489864D01*
X102535655Y-38442245D01*
X102583274Y-38347007D01*
X102583274Y-38156530D01*
X102535655Y-38061292D01*
X102488036Y-38013673D01*
X102392798Y-37966054D01*
X96316226Y-49036054D02*
X95316226Y-49036054D01*
X95316226Y-48797959D01*
X95363846Y-48655102D01*
X95459084Y-48559864D01*
X95554322Y-48512245D01*
X95744798Y-48464626D01*
X95887655Y-48464626D01*
X96078131Y-48512245D01*
X96173369Y-48559864D01*
X96268607Y-48655102D01*
X96316226Y-48797959D01*
X96316226Y-49036054D01*
X96316226Y-47512245D02*
X96316226Y-48083673D01*
X96316226Y-47797959D02*
X95316226Y-47797959D01*
X95459084Y-47893197D01*
X95554322Y-47988435D01*
X95601941Y-48083673D01*
X95316226Y-46893197D02*
X95316226Y-46797959D01*
X95363846Y-46702721D01*
X95411465Y-46655102D01*
X95506703Y-46607483D01*
X95697179Y-46559864D01*
X95935274Y-46559864D01*
X96125750Y-46607483D01*
X96220988Y-46655102D01*
X96268607Y-46702721D01*
X96316226Y-46797959D01*
X96316226Y-46893197D01*
X96268607Y-46988435D01*
X96220988Y-47036054D01*
X96125750Y-47083673D01*
X95935274Y-47131292D01*
X95697179Y-47131292D01*
X95506703Y-47083673D01*
X95411465Y-47036054D01*
X95363846Y-46988435D01*
X95316226Y-46893197D01*
X109548726Y-49036054D02*
X108548726Y-49036054D01*
X108548726Y-48797959D01*
X108596346Y-48655102D01*
X108691584Y-48559864D01*
X108786822Y-48512245D01*
X108977298Y-48464626D01*
X109120155Y-48464626D01*
X109310631Y-48512245D01*
X109405869Y-48559864D01*
X109501107Y-48655102D01*
X109548726Y-48797959D01*
X109548726Y-49036054D01*
X109548726Y-47512245D02*
X109548726Y-48083673D01*
X109548726Y-47797959D02*
X108548726Y-47797959D01*
X108691584Y-47893197D01*
X108786822Y-47988435D01*
X108834441Y-48083673D01*
X108882060Y-46655102D02*
X109548726Y-46655102D01*
X108501107Y-46893197D02*
X109215393Y-47131292D01*
X109215393Y-46512245D01*
X109548726Y-58106054D02*
X108548726Y-58106054D01*
X108548726Y-57867959D01*
X108596346Y-57725102D01*
X108691584Y-57629864D01*
X108786822Y-57582245D01*
X108977298Y-57534626D01*
X109120155Y-57534626D01*
X109310631Y-57582245D01*
X109405869Y-57629864D01*
X109501107Y-57725102D01*
X109548726Y-57867959D01*
X109548726Y-58106054D01*
X109548726Y-56582245D02*
X109548726Y-57153673D01*
X109548726Y-56867959D02*
X108548726Y-56867959D01*
X108691584Y-56963197D01*
X108786822Y-57058435D01*
X108834441Y-57153673D01*
X108548726Y-55677483D02*
X108548726Y-56153673D01*
X109024917Y-56201292D01*
X108977298Y-56153673D01*
X108929679Y-56058435D01*
X108929679Y-55820340D01*
X108977298Y-55725102D01*
X109024917Y-55677483D01*
X109120155Y-55629864D01*
X109358250Y-55629864D01*
X109453488Y-55677483D01*
X109501107Y-55725102D01*
X109548726Y-55820340D01*
X109548726Y-56058435D01*
X109501107Y-56153673D01*
X109453488Y-56201292D01*
X89795226Y-49036054D02*
X88795226Y-49036054D01*
X88795226Y-48797959D01*
X88842846Y-48655102D01*
X88938084Y-48559864D01*
X89033322Y-48512245D01*
X89223798Y-48464626D01*
X89366655Y-48464626D01*
X89557131Y-48512245D01*
X89652369Y-48559864D01*
X89747607Y-48655102D01*
X89795226Y-48797959D01*
X89795226Y-49036054D01*
X89795226Y-47512245D02*
X89795226Y-48083673D01*
X89795226Y-47797959D02*
X88795226Y-47797959D01*
X88938084Y-47893197D01*
X89033322Y-47988435D01*
X89080941Y-48083673D01*
X88795226Y-46655102D02*
X88795226Y-46845578D01*
X88842846Y-46940816D01*
X88890465Y-46988435D01*
X89033322Y-47083673D01*
X89223798Y-47131292D01*
X89604750Y-47131292D01*
X89699988Y-47083673D01*
X89747607Y-47036054D01*
X89795226Y-46940816D01*
X89795226Y-46750340D01*
X89747607Y-46655102D01*
X89699988Y-46607483D01*
X89604750Y-46559864D01*
X89366655Y-46559864D01*
X89271417Y-46607483D01*
X89223798Y-46655102D01*
X89176179Y-46750340D01*
X89176179Y-46940816D01*
X89223798Y-47036054D01*
X89271417Y-47083673D01*
X89366655Y-47131292D01*
X96316226Y-58106054D02*
X95316226Y-58106054D01*
X95316226Y-57867959D01*
X95363846Y-57725102D01*
X95459084Y-57629864D01*
X95554322Y-57582245D01*
X95744798Y-57534626D01*
X95887655Y-57534626D01*
X96078131Y-57582245D01*
X96173369Y-57629864D01*
X96268607Y-57725102D01*
X96316226Y-57867959D01*
X96316226Y-58106054D01*
X96316226Y-56582245D02*
X96316226Y-57153673D01*
X96316226Y-56867959D02*
X95316226Y-56867959D01*
X95459084Y-56963197D01*
X95554322Y-57058435D01*
X95601941Y-57153673D01*
X95744798Y-56010816D02*
X95697179Y-56106054D01*
X95649560Y-56153673D01*
X95554322Y-56201292D01*
X95506703Y-56201292D01*
X95411465Y-56153673D01*
X95363846Y-56106054D01*
X95316226Y-56010816D01*
X95316226Y-55820340D01*
X95363846Y-55725102D01*
X95411465Y-55677483D01*
X95506703Y-55629864D01*
X95554322Y-55629864D01*
X95649560Y-55677483D01*
X95697179Y-55725102D01*
X95744798Y-55820340D01*
X95744798Y-56010816D01*
X95792417Y-56106054D01*
X95840036Y-56153673D01*
X95935274Y-56201292D01*
X96125750Y-56201292D01*
X96220988Y-56153673D01*
X96268607Y-56106054D01*
X96316226Y-56010816D01*
X96316226Y-55820340D01*
X96268607Y-55725102D01*
X96220988Y-55677483D01*
X96125750Y-55629864D01*
X95935274Y-55629864D01*
X95840036Y-55677483D01*
X95792417Y-55725102D01*
X95744798Y-55820340D01*
X102964226Y-58106054D02*
X101964226Y-58106054D01*
X101964226Y-57867959D01*
X102011846Y-57725102D01*
X102107084Y-57629864D01*
X102202322Y-57582245D01*
X102392798Y-57534626D01*
X102535655Y-57534626D01*
X102726131Y-57582245D01*
X102821369Y-57629864D01*
X102916607Y-57725102D01*
X102964226Y-57867959D01*
X102964226Y-58106054D01*
X102964226Y-56582245D02*
X102964226Y-57153673D01*
X102964226Y-56867959D02*
X101964226Y-56867959D01*
X102107084Y-56963197D01*
X102202322Y-57058435D01*
X102249941Y-57153673D01*
X102964226Y-56106054D02*
X102964226Y-55915578D01*
X102916607Y-55820340D01*
X102868988Y-55772721D01*
X102726131Y-55677483D01*
X102535655Y-55629864D01*
X102154703Y-55629864D01*
X102059465Y-55677483D01*
X102011846Y-55725102D01*
X101964226Y-55820340D01*
X101964226Y-56010816D01*
X102011846Y-56106054D01*
X102059465Y-56153673D01*
X102154703Y-56201292D01*
X102392798Y-56201292D01*
X102488036Y-56153673D01*
X102535655Y-56106054D01*
X102583274Y-56010816D01*
X102583274Y-55820340D01*
X102535655Y-55725102D01*
X102488036Y-55677483D01*
X102392798Y-55629864D01*
X89795226Y-58106054D02*
X88795226Y-58106054D01*
X88795226Y-57867959D01*
X88842846Y-57725102D01*
X88938084Y-57629864D01*
X89033322Y-57582245D01*
X89223798Y-57534626D01*
X89366655Y-57534626D01*
X89557131Y-57582245D01*
X89652369Y-57629864D01*
X89747607Y-57725102D01*
X89795226Y-57867959D01*
X89795226Y-58106054D01*
X88890465Y-57153673D02*
X88842846Y-57106054D01*
X88795226Y-57010816D01*
X88795226Y-56772721D01*
X88842846Y-56677483D01*
X88890465Y-56629864D01*
X88985703Y-56582245D01*
X89080941Y-56582245D01*
X89223798Y-56629864D01*
X89795226Y-57201292D01*
X89795226Y-56582245D01*
X88795226Y-55963197D02*
X88795226Y-55867959D01*
X88842846Y-55772721D01*
X88890465Y-55725102D01*
X88985703Y-55677483D01*
X89176179Y-55629864D01*
X89414274Y-55629864D01*
X89604750Y-55677483D01*
X89699988Y-55725102D01*
X89747607Y-55772721D01*
X89795226Y-55867959D01*
X89795226Y-55963197D01*
X89747607Y-56058435D01*
X89699988Y-56106054D01*
X89604750Y-56153673D01*
X89414274Y-56201292D01*
X89176179Y-56201292D01*
X88985703Y-56153673D01*
X88890465Y-56106054D01*
X88842846Y-56058435D01*
X88795226Y-55963197D01*
X188388666Y-47570611D02*
X188388666Y-48284897D01*
X188341047Y-48427754D01*
X188245809Y-48522992D01*
X188102952Y-48570611D01*
X188007714Y-48570611D01*
X189388666Y-48570611D02*
X188817238Y-48570611D01*
X189102952Y-48570611D02*
X189102952Y-47570611D01*
X189007714Y-47713469D01*
X188912476Y-47808707D01*
X188817238Y-47856326D01*
D10*
X123606690Y-84220833D02*
X123368595Y-84387500D01*
X123606690Y-84506547D02*
X123106690Y-84506547D01*
X123106690Y-84316071D01*
X123130500Y-84268452D01*
X123154309Y-84244642D01*
X123201928Y-84220833D01*
X123273357Y-84220833D01*
X123320976Y-84244642D01*
X123344785Y-84268452D01*
X123368595Y-84316071D01*
X123368595Y-84506547D01*
X123273357Y-83792261D02*
X123606690Y-83792261D01*
X123082880Y-83911309D02*
X123440023Y-84030357D01*
X123440023Y-83720833D01*
X123479690Y-90443833D02*
X123241595Y-90610500D01*
X123479690Y-90729547D02*
X122979690Y-90729547D01*
X122979690Y-90539071D01*
X123003500Y-90491452D01*
X123027309Y-90467642D01*
X123074928Y-90443833D01*
X123146357Y-90443833D01*
X123193976Y-90467642D01*
X123217785Y-90491452D01*
X123241595Y-90539071D01*
X123241595Y-90729547D01*
X122979690Y-89991452D02*
X122979690Y-90229547D01*
X123217785Y-90253357D01*
X123193976Y-90229547D01*
X123170166Y-90181928D01*
X123170166Y-90062880D01*
X123193976Y-90015261D01*
X123217785Y-89991452D01*
X123265404Y-89967642D01*
X123384452Y-89967642D01*
X123432071Y-89991452D01*
X123455880Y-90015261D01*
X123479690Y-90062880D01*
X123479690Y-90181928D01*
X123455880Y-90229547D01*
X123432071Y-90253357D01*
X135417690Y-90570833D02*
X135179595Y-90737500D01*
X135417690Y-90856547D02*
X134917690Y-90856547D01*
X134917690Y-90666071D01*
X134941500Y-90618452D01*
X134965309Y-90594642D01*
X135012928Y-90570833D01*
X135084357Y-90570833D01*
X135131976Y-90594642D01*
X135155785Y-90618452D01*
X135179595Y-90666071D01*
X135179595Y-90856547D01*
X134917690Y-90142261D02*
X134917690Y-90237500D01*
X134941500Y-90285119D01*
X134965309Y-90308928D01*
X135036738Y-90356547D01*
X135131976Y-90380357D01*
X135322452Y-90380357D01*
X135370071Y-90356547D01*
X135393880Y-90332738D01*
X135417690Y-90285119D01*
X135417690Y-90189880D01*
X135393880Y-90142261D01*
X135370071Y-90118452D01*
X135322452Y-90094642D01*
X135203404Y-90094642D01*
X135155785Y-90118452D01*
X135131976Y-90142261D01*
X135108166Y-90189880D01*
X135108166Y-90285119D01*
X135131976Y-90332738D01*
X135155785Y-90356547D01*
X135203404Y-90380357D01*
X135481190Y-84284333D02*
X135243095Y-84451000D01*
X135481190Y-84570047D02*
X134981190Y-84570047D01*
X134981190Y-84379571D01*
X135005000Y-84331952D01*
X135028809Y-84308142D01*
X135076428Y-84284333D01*
X135147857Y-84284333D01*
X135195476Y-84308142D01*
X135219285Y-84331952D01*
X135243095Y-84379571D01*
X135243095Y-84570047D01*
X134981190Y-84117666D02*
X134981190Y-83784333D01*
X135481190Y-83998619D01*
X135298666Y-70711190D02*
X135132000Y-70473095D01*
X135012952Y-70711190D02*
X135012952Y-70211190D01*
X135203428Y-70211190D01*
X135251047Y-70235000D01*
X135274857Y-70258809D01*
X135298666Y-70306428D01*
X135298666Y-70377857D01*
X135274857Y-70425476D01*
X135251047Y-70449285D01*
X135203428Y-70473095D01*
X135012952Y-70473095D01*
X135489142Y-70258809D02*
X135512952Y-70235000D01*
X135560571Y-70211190D01*
X135679619Y-70211190D01*
X135727238Y-70235000D01*
X135751047Y-70258809D01*
X135774857Y-70306428D01*
X135774857Y-70354047D01*
X135751047Y-70425476D01*
X135465333Y-70711190D01*
X135774857Y-70711190D01*
D16*
X170307095Y-58975380D02*
X170307095Y-59784904D01*
X170354714Y-59880142D01*
X170402333Y-59927761D01*
X170497571Y-59975380D01*
X170688047Y-59975380D01*
X170783285Y-59927761D01*
X170830904Y-59880142D01*
X170878523Y-59784904D01*
X170878523Y-58975380D01*
X171830904Y-58975380D02*
X171354714Y-58975380D01*
X171307095Y-59451571D01*
X171354714Y-59403952D01*
X171449952Y-59356333D01*
X171688047Y-59356333D01*
X171783285Y-59403952D01*
X171830904Y-59451571D01*
X171878523Y-59546809D01*
X171878523Y-59784904D01*
X171830904Y-59880142D01*
X171783285Y-59927761D01*
X171688047Y-59975380D01*
X171449952Y-59975380D01*
X171354714Y-59927761D01*
X171307095Y-59880142D01*
X128524095Y-81484880D02*
X128524095Y-82294404D01*
X128571714Y-82389642D01*
X128619333Y-82437261D01*
X128714571Y-82484880D01*
X128905047Y-82484880D01*
X129000285Y-82437261D01*
X129047904Y-82389642D01*
X129095523Y-82294404D01*
X129095523Y-81484880D01*
X129476476Y-81484880D02*
X130095523Y-81484880D01*
X129762190Y-81865833D01*
X129905047Y-81865833D01*
X130000285Y-81913452D01*
X130047904Y-81961071D01*
X130095523Y-82056309D01*
X130095523Y-82294404D01*
X130047904Y-82389642D01*
X130000285Y-82437261D01*
X129905047Y-82484880D01*
X129619333Y-82484880D01*
X129524095Y-82437261D01*
X129476476Y-82389642D01*
X139192095Y-67106380D02*
X139192095Y-67915904D01*
X139239714Y-68011142D01*
X139287333Y-68058761D01*
X139382571Y-68106380D01*
X139573047Y-68106380D01*
X139668285Y-68058761D01*
X139715904Y-68011142D01*
X139763523Y-67915904D01*
X139763523Y-67106380D01*
X140192095Y-67201619D02*
X140239714Y-67154000D01*
X140334952Y-67106380D01*
X140573047Y-67106380D01*
X140668285Y-67154000D01*
X140715904Y-67201619D01*
X140763523Y-67296857D01*
X140763523Y-67392095D01*
X140715904Y-67534952D01*
X140144476Y-68106380D01*
X140763523Y-68106380D01*
X178530261Y-69254619D02*
X178435023Y-69207000D01*
X178339785Y-69111761D01*
X178196928Y-68968904D01*
X178101690Y-68921285D01*
X178006452Y-68921285D01*
X178054071Y-69159380D02*
X177958833Y-69111761D01*
X177863595Y-69016523D01*
X177815976Y-68826047D01*
X177815976Y-68492714D01*
X177863595Y-68302238D01*
X177958833Y-68207000D01*
X178054071Y-68159380D01*
X178244547Y-68159380D01*
X178339785Y-68207000D01*
X178435023Y-68302238D01*
X178482642Y-68492714D01*
X178482642Y-68826047D01*
X178435023Y-69016523D01*
X178339785Y-69111761D01*
X178244547Y-69159380D01*
X178054071Y-69159380D01*
X178863595Y-68254619D02*
X178911214Y-68207000D01*
X179006452Y-68159380D01*
X179244547Y-68159380D01*
X179339785Y-68207000D01*
X179387404Y-68254619D01*
X179435023Y-68349857D01*
X179435023Y-68445095D01*
X179387404Y-68587952D01*
X178815976Y-69159380D01*
X179435023Y-69159380D01*
X118014761Y-69318119D02*
X117919523Y-69270500D01*
X117824285Y-69175261D01*
X117681428Y-69032404D01*
X117586190Y-68984785D01*
X117490952Y-68984785D01*
X117538571Y-69222880D02*
X117443333Y-69175261D01*
X117348095Y-69080023D01*
X117300476Y-68889547D01*
X117300476Y-68556214D01*
X117348095Y-68365738D01*
X117443333Y-68270500D01*
X117538571Y-68222880D01*
X117729047Y-68222880D01*
X117824285Y-68270500D01*
X117919523Y-68365738D01*
X117967142Y-68556214D01*
X117967142Y-68889547D01*
X117919523Y-69080023D01*
X117824285Y-69175261D01*
X117729047Y-69222880D01*
X117538571Y-69222880D01*
X118824285Y-68556214D02*
X118824285Y-69222880D01*
X118586190Y-68175261D02*
X118348095Y-68889547D01*
X118967142Y-68889547D01*
X100869761Y-69392619D02*
X100774523Y-69345000D01*
X100679285Y-69249761D01*
X100536428Y-69106904D01*
X100441190Y-69059285D01*
X100345952Y-69059285D01*
X100393571Y-69297380D02*
X100298333Y-69249761D01*
X100203095Y-69154523D01*
X100155476Y-68964047D01*
X100155476Y-68630714D01*
X100203095Y-68440238D01*
X100298333Y-68345000D01*
X100393571Y-68297380D01*
X100584047Y-68297380D01*
X100679285Y-68345000D01*
X100774523Y-68440238D01*
X100822142Y-68630714D01*
X100822142Y-68964047D01*
X100774523Y-69154523D01*
X100679285Y-69249761D01*
X100584047Y-69297380D01*
X100393571Y-69297380D01*
X101726904Y-68297380D02*
X101250714Y-68297380D01*
X101203095Y-68773571D01*
X101250714Y-68725952D01*
X101345952Y-68678333D01*
X101584047Y-68678333D01*
X101679285Y-68725952D01*
X101726904Y-68773571D01*
X101774523Y-68868809D01*
X101774523Y-69106904D01*
X101726904Y-69202142D01*
X101679285Y-69249761D01*
X101584047Y-69297380D01*
X101345952Y-69297380D01*
X101250714Y-69249761D01*
X101203095Y-69202142D01*
X183127965Y-54974007D02*
X183080346Y-55069245D01*
X182985107Y-55164483D01*
X182842250Y-55307340D01*
X182794631Y-55402578D01*
X182794631Y-55497816D01*
X183032726Y-55450197D02*
X182985107Y-55545435D01*
X182889869Y-55640673D01*
X182699393Y-55688292D01*
X182366060Y-55688292D01*
X182175584Y-55640673D01*
X182080346Y-55545435D01*
X182032726Y-55450197D01*
X182032726Y-55259721D01*
X182080346Y-55164483D01*
X182175584Y-55069245D01*
X182366060Y-55021626D01*
X182699393Y-55021626D01*
X182889869Y-55069245D01*
X182985107Y-55164483D01*
X183032726Y-55259721D01*
X183032726Y-55450197D01*
X183032726Y-54069245D02*
X183032726Y-54640673D01*
X183032726Y-54354959D02*
X182032726Y-54354959D01*
X182175584Y-54450197D01*
X182270822Y-54545435D01*
X182318441Y-54640673D01*
D20*
X185787095Y-63430523D02*
X185537095Y-63430523D01*
X185537095Y-63371000D01*
X185549000Y-63335285D01*
X185572809Y-63311476D01*
X185596619Y-63299571D01*
X185644238Y-63287666D01*
X185679952Y-63287666D01*
X185727571Y-63299571D01*
X185751380Y-63311476D01*
X185775190Y-63335285D01*
X185787095Y-63371000D01*
X185787095Y-63430523D01*
X185560904Y-63192428D02*
X185549000Y-63180523D01*
X185537095Y-63156714D01*
X185537095Y-63097190D01*
X185549000Y-63073380D01*
X185560904Y-63061476D01*
X185584714Y-63049571D01*
X185608523Y-63049571D01*
X185644238Y-63061476D01*
X185787095Y-63204333D01*
X185787095Y-63049571D01*
X185787095Y-65970523D02*
X185537095Y-65970523D01*
X185537095Y-65911000D01*
X185549000Y-65875285D01*
X185572809Y-65851476D01*
X185596619Y-65839571D01*
X185644238Y-65827666D01*
X185679952Y-65827666D01*
X185727571Y-65839571D01*
X185751380Y-65851476D01*
X185775190Y-65875285D01*
X185787095Y-65911000D01*
X185787095Y-65970523D01*
X185537095Y-65744333D02*
X185537095Y-65589571D01*
X185632333Y-65672904D01*
X185632333Y-65637190D01*
X185644238Y-65613380D01*
X185656142Y-65601476D01*
X185679952Y-65589571D01*
X185739476Y-65589571D01*
X185763285Y-65601476D01*
X185775190Y-65613380D01*
X185787095Y-65637190D01*
X185787095Y-65708619D01*
X185775190Y-65732428D01*
X185763285Y-65744333D01*
X182330333Y-64756095D02*
X182247000Y-64637047D01*
X182187476Y-64756095D02*
X182187476Y-64506095D01*
X182282714Y-64506095D01*
X182306523Y-64518000D01*
X182318428Y-64529904D01*
X182330333Y-64553714D01*
X182330333Y-64589428D01*
X182318428Y-64613238D01*
X182306523Y-64625142D01*
X182282714Y-64637047D01*
X182187476Y-64637047D01*
X182568428Y-64756095D02*
X182425571Y-64756095D01*
X182497000Y-64756095D02*
X182497000Y-64506095D01*
X182473190Y-64541809D01*
X182449380Y-64565619D01*
X182425571Y-64577523D01*
X181568333Y-65137095D02*
X181485000Y-65018047D01*
X181425476Y-65137095D02*
X181425476Y-64887095D01*
X181520714Y-64887095D01*
X181544523Y-64899000D01*
X181556428Y-64910904D01*
X181568333Y-64934714D01*
X181568333Y-64970428D01*
X181556428Y-64994238D01*
X181544523Y-65006142D01*
X181520714Y-65018047D01*
X181425476Y-65018047D01*
X181651666Y-64887095D02*
X181806428Y-64887095D01*
X181723095Y-64982333D01*
X181758809Y-64982333D01*
X181782619Y-64994238D01*
X181794523Y-65006142D01*
X181806428Y-65029952D01*
X181806428Y-65089476D01*
X181794523Y-65113285D01*
X181782619Y-65125190D01*
X181758809Y-65137095D01*
X181687380Y-65137095D01*
X181663571Y-65125190D01*
X181651666Y-65113285D01*
D16*
X139192095Y-74119380D02*
X139192095Y-74928904D01*
X139239714Y-75024142D01*
X139287333Y-75071761D01*
X139382571Y-75119380D01*
X139573047Y-75119380D01*
X139668285Y-75071761D01*
X139715904Y-75024142D01*
X139763523Y-74928904D01*
X139763523Y-74119380D01*
X140763523Y-75119380D02*
X140192095Y-75119380D01*
X140477809Y-75119380D02*
X140477809Y-74119380D01*
X140382571Y-74262238D01*
X140287333Y-74357476D01*
X140192095Y-74405095D01*
D10*
X142886952Y-43279190D02*
X142886952Y-42779190D01*
X143006000Y-42779190D01*
X143077428Y-42803000D01*
X143125047Y-42850619D01*
X143148857Y-42898238D01*
X143172666Y-42993476D01*
X143172666Y-43064904D01*
X143148857Y-43160142D01*
X143125047Y-43207761D01*
X143077428Y-43255380D01*
X143006000Y-43279190D01*
X142886952Y-43279190D01*
X143339333Y-42779190D02*
X143672666Y-42779190D01*
X143458380Y-43279190D01*
X139061071Y-43215690D02*
X138894404Y-42977595D01*
X138775357Y-43215690D02*
X138775357Y-42715690D01*
X138965833Y-42715690D01*
X139013452Y-42739500D01*
X139037261Y-42763309D01*
X139061071Y-42810928D01*
X139061071Y-42882357D01*
X139037261Y-42929976D01*
X139013452Y-42953785D01*
X138965833Y-42977595D01*
X138775357Y-42977595D01*
X139251547Y-42763309D02*
X139275357Y-42739500D01*
X139322976Y-42715690D01*
X139442023Y-42715690D01*
X139489642Y-42739500D01*
X139513452Y-42763309D01*
X139537261Y-42810928D01*
X139537261Y-42858547D01*
X139513452Y-42929976D01*
X139227738Y-43215690D01*
X139537261Y-43215690D01*
X139822976Y-42929976D02*
X139775357Y-42906166D01*
X139751547Y-42882357D01*
X139727738Y-42834738D01*
X139727738Y-42810928D01*
X139751547Y-42763309D01*
X139775357Y-42739500D01*
X139822976Y-42715690D01*
X139918214Y-42715690D01*
X139965833Y-42739500D01*
X139989642Y-42763309D01*
X140013452Y-42810928D01*
X140013452Y-42834738D01*
X139989642Y-42882357D01*
X139965833Y-42906166D01*
X139918214Y-42929976D01*
X139822976Y-42929976D01*
X139775357Y-42953785D01*
X139751547Y-42977595D01*
X139727738Y-43025214D01*
X139727738Y-43120452D01*
X139751547Y-43168071D01*
X139775357Y-43191880D01*
X139822976Y-43215690D01*
X139918214Y-43215690D01*
X139965833Y-43191880D01*
X139989642Y-43168071D01*
X140013452Y-43120452D01*
X140013452Y-43025214D01*
X139989642Y-42977595D01*
X139965833Y-42953785D01*
X139918214Y-42929976D01*
D16*
X144994333Y-69291142D02*
X144946714Y-69338761D01*
X144803857Y-69386380D01*
X144708619Y-69386380D01*
X144565761Y-69338761D01*
X144470523Y-69243523D01*
X144422904Y-69148285D01*
X144375285Y-68957809D01*
X144375285Y-68814952D01*
X144422904Y-68624476D01*
X144470523Y-68529238D01*
X144565761Y-68434000D01*
X144708619Y-68386380D01*
X144803857Y-68386380D01*
X144946714Y-68434000D01*
X144994333Y-68481619D01*
X145375285Y-68481619D02*
X145422904Y-68434000D01*
X145518142Y-68386380D01*
X145756238Y-68386380D01*
X145851476Y-68434000D01*
X145899095Y-68481619D01*
X145946714Y-68576857D01*
X145946714Y-68672095D01*
X145899095Y-68814952D01*
X145327666Y-69386380D01*
X145946714Y-69386380D01*
D10*
X178986666Y-59932071D02*
X178962857Y-59955880D01*
X178891428Y-59979690D01*
X178843809Y-59979690D01*
X178772380Y-59955880D01*
X178724761Y-59908261D01*
X178700952Y-59860642D01*
X178677142Y-59765404D01*
X178677142Y-59693976D01*
X178700952Y-59598738D01*
X178724761Y-59551119D01*
X178772380Y-59503500D01*
X178843809Y-59479690D01*
X178891428Y-59479690D01*
X178962857Y-59503500D01*
X178986666Y-59527309D01*
X179153333Y-59479690D02*
X179462857Y-59479690D01*
X179296190Y-59670166D01*
X179367619Y-59670166D01*
X179415238Y-59693976D01*
X179439047Y-59717785D01*
X179462857Y-59765404D01*
X179462857Y-59884452D01*
X179439047Y-59932071D01*
X179415238Y-59955880D01*
X179367619Y-59979690D01*
X179224761Y-59979690D01*
X179177142Y-59955880D01*
X179153333Y-59932071D01*
D16*
X123431833Y-86499642D02*
X123384214Y-86547261D01*
X123241357Y-86594880D01*
X123146119Y-86594880D01*
X123003261Y-86547261D01*
X122908023Y-86452023D01*
X122860404Y-86356785D01*
X122812785Y-86166309D01*
X122812785Y-86023452D01*
X122860404Y-85832976D01*
X122908023Y-85737738D01*
X123003261Y-85642500D01*
X123146119Y-85594880D01*
X123241357Y-85594880D01*
X123384214Y-85642500D01*
X123431833Y-85690119D01*
X124288976Y-85928214D02*
X124288976Y-86594880D01*
X124050880Y-85547261D02*
X123812785Y-86261547D01*
X124431833Y-86261547D01*
X155979833Y-88839642D02*
X155932214Y-88887261D01*
X155789357Y-88934880D01*
X155694119Y-88934880D01*
X155551261Y-88887261D01*
X155456023Y-88792023D01*
X155408404Y-88696785D01*
X155360785Y-88506309D01*
X155360785Y-88363452D01*
X155408404Y-88172976D01*
X155456023Y-88077738D01*
X155551261Y-87982500D01*
X155694119Y-87934880D01*
X155789357Y-87934880D01*
X155932214Y-87982500D01*
X155979833Y-88030119D01*
X156884595Y-87934880D02*
X156408404Y-87934880D01*
X156360785Y-88411071D01*
X156408404Y-88363452D01*
X156503642Y-88315833D01*
X156741738Y-88315833D01*
X156836976Y-88363452D01*
X156884595Y-88411071D01*
X156932214Y-88506309D01*
X156932214Y-88744404D01*
X156884595Y-88839642D01*
X156836976Y-88887261D01*
X156741738Y-88934880D01*
X156503642Y-88934880D01*
X156408404Y-88887261D01*
X156360785Y-88839642D01*
X148793142Y-55411666D02*
X148840761Y-55459285D01*
X148888380Y-55602142D01*
X148888380Y-55697380D01*
X148840761Y-55840238D01*
X148745523Y-55935476D01*
X148650285Y-55983095D01*
X148459809Y-56030714D01*
X148316952Y-56030714D01*
X148126476Y-55983095D01*
X148031238Y-55935476D01*
X147936000Y-55840238D01*
X147888380Y-55697380D01*
X147888380Y-55602142D01*
X147936000Y-55459285D01*
X147983619Y-55411666D01*
X147888380Y-55078333D02*
X147888380Y-54411666D01*
X148888380Y-54840238D01*
X170394333Y-70742142D02*
X170346714Y-70789761D01*
X170203857Y-70837380D01*
X170108619Y-70837380D01*
X169965761Y-70789761D01*
X169870523Y-70694523D01*
X169822904Y-70599285D01*
X169775285Y-70408809D01*
X169775285Y-70265952D01*
X169822904Y-70075476D01*
X169870523Y-69980238D01*
X169965761Y-69885000D01*
X170108619Y-69837380D01*
X170203857Y-69837380D01*
X170346714Y-69885000D01*
X170394333Y-69932619D01*
X170965761Y-70265952D02*
X170870523Y-70218333D01*
X170822904Y-70170714D01*
X170775285Y-70075476D01*
X170775285Y-70027857D01*
X170822904Y-69932619D01*
X170870523Y-69885000D01*
X170965761Y-69837380D01*
X171156238Y-69837380D01*
X171251476Y-69885000D01*
X171299095Y-69932619D01*
X171346714Y-70027857D01*
X171346714Y-70075476D01*
X171299095Y-70170714D01*
X171251476Y-70218333D01*
X171156238Y-70265952D01*
X170965761Y-70265952D01*
X170870523Y-70313571D01*
X170822904Y-70361190D01*
X170775285Y-70456428D01*
X170775285Y-70646904D01*
X170822904Y-70742142D01*
X170870523Y-70789761D01*
X170965761Y-70837380D01*
X171156238Y-70837380D01*
X171251476Y-70789761D01*
X171299095Y-70742142D01*
X171346714Y-70646904D01*
X171346714Y-70456428D01*
X171299095Y-70361190D01*
X171251476Y-70313571D01*
X171156238Y-70265952D01*
X170156142Y-81827666D02*
X170203761Y-81875285D01*
X170251380Y-82018142D01*
X170251380Y-82113380D01*
X170203761Y-82256238D01*
X170108523Y-82351476D01*
X170013285Y-82399095D01*
X169822809Y-82446714D01*
X169679952Y-82446714D01*
X169489476Y-82399095D01*
X169394238Y-82351476D01*
X169299000Y-82256238D01*
X169251380Y-82113380D01*
X169251380Y-82018142D01*
X169299000Y-81875285D01*
X169346619Y-81827666D01*
X170251380Y-81351476D02*
X170251380Y-81161000D01*
X170203761Y-81065761D01*
X170156142Y-81018142D01*
X170013285Y-80922904D01*
X169822809Y-80875285D01*
X169441857Y-80875285D01*
X169346619Y-80922904D01*
X169299000Y-80970523D01*
X169251380Y-81065761D01*
X169251380Y-81256238D01*
X169299000Y-81351476D01*
X169346619Y-81399095D01*
X169441857Y-81446714D01*
X169679952Y-81446714D01*
X169775190Y-81399095D01*
X169822809Y-81351476D01*
X169870428Y-81256238D01*
X169870428Y-81065761D01*
X169822809Y-80970523D01*
X169775190Y-80922904D01*
X169679952Y-80875285D01*
X120599142Y-55760857D02*
X120646761Y-55808476D01*
X120694380Y-55951333D01*
X120694380Y-56046571D01*
X120646761Y-56189428D01*
X120551523Y-56284666D01*
X120456285Y-56332285D01*
X120265809Y-56379904D01*
X120122952Y-56379904D01*
X119932476Y-56332285D01*
X119837238Y-56284666D01*
X119742000Y-56189428D01*
X119694380Y-56046571D01*
X119694380Y-55951333D01*
X119742000Y-55808476D01*
X119789619Y-55760857D01*
X120694380Y-54808476D02*
X120694380Y-55379904D01*
X120694380Y-55094190D02*
X119694380Y-55094190D01*
X119837238Y-55189428D01*
X119932476Y-55284666D01*
X119980095Y-55379904D01*
X119694380Y-54189428D02*
X119694380Y-54094190D01*
X119742000Y-53998952D01*
X119789619Y-53951333D01*
X119884857Y-53903714D01*
X120075333Y-53856095D01*
X120313428Y-53856095D01*
X120503904Y-53903714D01*
X120599142Y-53951333D01*
X120646761Y-53998952D01*
X120694380Y-54094190D01*
X120694380Y-54189428D01*
X120646761Y-54284666D01*
X120599142Y-54332285D01*
X120503904Y-54379904D01*
X120313428Y-54427523D01*
X120075333Y-54427523D01*
X119884857Y-54379904D01*
X119789619Y-54332285D01*
X119742000Y-54284666D01*
X119694380Y-54189428D01*
X110228142Y-69635642D02*
X110180523Y-69683261D01*
X110037666Y-69730880D01*
X109942428Y-69730880D01*
X109799571Y-69683261D01*
X109704333Y-69588023D01*
X109656714Y-69492785D01*
X109609095Y-69302309D01*
X109609095Y-69159452D01*
X109656714Y-68968976D01*
X109704333Y-68873738D01*
X109799571Y-68778500D01*
X109942428Y-68730880D01*
X110037666Y-68730880D01*
X110180523Y-68778500D01*
X110228142Y-68826119D01*
X111180523Y-69730880D02*
X110609095Y-69730880D01*
X110894809Y-69730880D02*
X110894809Y-68730880D01*
X110799571Y-68873738D01*
X110704333Y-68968976D01*
X110609095Y-69016595D01*
X112132904Y-69730880D02*
X111561476Y-69730880D01*
X111847190Y-69730880D02*
X111847190Y-68730880D01*
X111751952Y-68873738D01*
X111656714Y-68968976D01*
X111561476Y-69016595D01*
X107815142Y-79832142D02*
X107767523Y-79879761D01*
X107624666Y-79927380D01*
X107529428Y-79927380D01*
X107386571Y-79879761D01*
X107291333Y-79784523D01*
X107243714Y-79689285D01*
X107196095Y-79498809D01*
X107196095Y-79355952D01*
X107243714Y-79165476D01*
X107291333Y-79070238D01*
X107386571Y-78975000D01*
X107529428Y-78927380D01*
X107624666Y-78927380D01*
X107767523Y-78975000D01*
X107815142Y-79022619D01*
X108767523Y-79927380D02*
X108196095Y-79927380D01*
X108481809Y-79927380D02*
X108481809Y-78927380D01*
X108386571Y-79070238D01*
X108291333Y-79165476D01*
X108196095Y-79213095D01*
X109148476Y-79022619D02*
X109196095Y-78975000D01*
X109291333Y-78927380D01*
X109529428Y-78927380D01*
X109624666Y-78975000D01*
X109672285Y-79022619D01*
X109719904Y-79117857D01*
X109719904Y-79213095D01*
X109672285Y-79355952D01*
X109100857Y-79927380D01*
X109719904Y-79927380D01*
D20*
X144047785Y-72733285D02*
X144035880Y-72745190D01*
X144000166Y-72757095D01*
X143976357Y-72757095D01*
X143940642Y-72745190D01*
X143916833Y-72721380D01*
X143904928Y-72697571D01*
X143893023Y-72649952D01*
X143893023Y-72614238D01*
X143904928Y-72566619D01*
X143916833Y-72542809D01*
X143940642Y-72519000D01*
X143976357Y-72507095D01*
X144000166Y-72507095D01*
X144035880Y-72519000D01*
X144047785Y-72530904D01*
X144285880Y-72757095D02*
X144143023Y-72757095D01*
X144214452Y-72757095D02*
X144214452Y-72507095D01*
X144190642Y-72542809D01*
X144166833Y-72566619D01*
X144143023Y-72578523D01*
X144369214Y-72507095D02*
X144523976Y-72507095D01*
X144440642Y-72602333D01*
X144476357Y-72602333D01*
X144500166Y-72614238D01*
X144512071Y-72626142D01*
X144523976Y-72649952D01*
X144523976Y-72709476D01*
X144512071Y-72733285D01*
X144500166Y-72745190D01*
X144476357Y-72757095D01*
X144404928Y-72757095D01*
X144381119Y-72745190D01*
X144369214Y-72733285D01*
D16*
X178755642Y-63412666D02*
X178803261Y-63460285D01*
X178850880Y-63603142D01*
X178850880Y-63698380D01*
X178803261Y-63841238D01*
X178708023Y-63936476D01*
X178612785Y-63984095D01*
X178422309Y-64031714D01*
X178279452Y-64031714D01*
X178088976Y-63984095D01*
X177993738Y-63936476D01*
X177898500Y-63841238D01*
X177850880Y-63698380D01*
X177850880Y-63603142D01*
X177898500Y-63460285D01*
X177946119Y-63412666D01*
X177850880Y-62555523D02*
X177850880Y-62746000D01*
X177898500Y-62841238D01*
X177946119Y-62888857D01*
X178088976Y-62984095D01*
X178279452Y-63031714D01*
X178660404Y-63031714D01*
X178755642Y-62984095D01*
X178803261Y-62936476D01*
X178850880Y-62841238D01*
X178850880Y-62650761D01*
X178803261Y-62555523D01*
X178755642Y-62507904D01*
X178660404Y-62460285D01*
X178422309Y-62460285D01*
X178327071Y-62507904D01*
X178279452Y-62555523D01*
X178231833Y-62650761D01*
X178231833Y-62841238D01*
X178279452Y-62936476D01*
X178327071Y-62984095D01*
X178422309Y-63031714D01*
D20*
X178210785Y-86195285D02*
X178198880Y-86207190D01*
X178163166Y-86219095D01*
X178139357Y-86219095D01*
X178103642Y-86207190D01*
X178079833Y-86183380D01*
X178067928Y-86159571D01*
X178056023Y-86111952D01*
X178056023Y-86076238D01*
X178067928Y-86028619D01*
X178079833Y-86004809D01*
X178103642Y-85981000D01*
X178139357Y-85969095D01*
X178163166Y-85969095D01*
X178198880Y-85981000D01*
X178210785Y-85992904D01*
X178448880Y-86219095D02*
X178306023Y-86219095D01*
X178377452Y-86219095D02*
X178377452Y-85969095D01*
X178353642Y-86004809D01*
X178329833Y-86028619D01*
X178306023Y-86040523D01*
X178663166Y-86052428D02*
X178663166Y-86219095D01*
X178603642Y-85957190D02*
X178544119Y-86135761D01*
X178698880Y-86135761D01*
X116044285Y-86068285D02*
X116032380Y-86080190D01*
X115996666Y-86092095D01*
X115972857Y-86092095D01*
X115937142Y-86080190D01*
X115913333Y-86056380D01*
X115901428Y-86032571D01*
X115889523Y-85984952D01*
X115889523Y-85949238D01*
X115901428Y-85901619D01*
X115913333Y-85877809D01*
X115937142Y-85854000D01*
X115972857Y-85842095D01*
X115996666Y-85842095D01*
X116032380Y-85854000D01*
X116044285Y-85865904D01*
X116282380Y-86092095D02*
X116139523Y-86092095D01*
X116210952Y-86092095D02*
X116210952Y-85842095D01*
X116187142Y-85877809D01*
X116163333Y-85901619D01*
X116139523Y-85913523D01*
X116508571Y-85842095D02*
X116389523Y-85842095D01*
X116377619Y-85961142D01*
X116389523Y-85949238D01*
X116413333Y-85937333D01*
X116472857Y-85937333D01*
X116496666Y-85949238D01*
X116508571Y-85961142D01*
X116520476Y-85984952D01*
X116520476Y-86044476D01*
X116508571Y-86068285D01*
X116496666Y-86080190D01*
X116472857Y-86092095D01*
X116413333Y-86092095D01*
X116389523Y-86080190D01*
X116377619Y-86068285D01*
X163161285Y-86322285D02*
X163149380Y-86334190D01*
X163113666Y-86346095D01*
X163089857Y-86346095D01*
X163054142Y-86334190D01*
X163030333Y-86310380D01*
X163018428Y-86286571D01*
X163006523Y-86238952D01*
X163006523Y-86203238D01*
X163018428Y-86155619D01*
X163030333Y-86131809D01*
X163054142Y-86108000D01*
X163089857Y-86096095D01*
X163113666Y-86096095D01*
X163149380Y-86108000D01*
X163161285Y-86119904D01*
X163399380Y-86346095D02*
X163256523Y-86346095D01*
X163327952Y-86346095D02*
X163327952Y-86096095D01*
X163304142Y-86131809D01*
X163280333Y-86155619D01*
X163256523Y-86167523D01*
X163613666Y-86096095D02*
X163566047Y-86096095D01*
X163542238Y-86108000D01*
X163530333Y-86119904D01*
X163506523Y-86155619D01*
X163494619Y-86203238D01*
X163494619Y-86298476D01*
X163506523Y-86322285D01*
X163518428Y-86334190D01*
X163542238Y-86346095D01*
X163589857Y-86346095D01*
X163613666Y-86334190D01*
X163625571Y-86322285D01*
X163637476Y-86298476D01*
X163637476Y-86238952D01*
X163625571Y-86215142D01*
X163613666Y-86203238D01*
X163589857Y-86191333D01*
X163542238Y-86191333D01*
X163518428Y-86203238D01*
X163506523Y-86215142D01*
X163494619Y-86238952D01*
X100423285Y-86258785D02*
X100411380Y-86270690D01*
X100375666Y-86282595D01*
X100351857Y-86282595D01*
X100316142Y-86270690D01*
X100292333Y-86246880D01*
X100280428Y-86223071D01*
X100268523Y-86175452D01*
X100268523Y-86139738D01*
X100280428Y-86092119D01*
X100292333Y-86068309D01*
X100316142Y-86044500D01*
X100351857Y-86032595D01*
X100375666Y-86032595D01*
X100411380Y-86044500D01*
X100423285Y-86056404D01*
X100661380Y-86282595D02*
X100518523Y-86282595D01*
X100589952Y-86282595D02*
X100589952Y-86032595D01*
X100566142Y-86068309D01*
X100542333Y-86092119D01*
X100518523Y-86104023D01*
X100744714Y-86032595D02*
X100911380Y-86032595D01*
X100804238Y-86282595D01*
D10*
X173033571Y-84427190D02*
X172866904Y-84189095D01*
X172747857Y-84427190D02*
X172747857Y-83927190D01*
X172938333Y-83927190D01*
X172985952Y-83951000D01*
X173009761Y-83974809D01*
X173033571Y-84022428D01*
X173033571Y-84093857D01*
X173009761Y-84141476D01*
X172985952Y-84165285D01*
X172938333Y-84189095D01*
X172747857Y-84189095D01*
X173224047Y-83974809D02*
X173247857Y-83951000D01*
X173295476Y-83927190D01*
X173414523Y-83927190D01*
X173462142Y-83951000D01*
X173485952Y-83974809D01*
X173509761Y-84022428D01*
X173509761Y-84070047D01*
X173485952Y-84141476D01*
X173200238Y-84427190D01*
X173509761Y-84427190D01*
X173700238Y-83974809D02*
X173724047Y-83951000D01*
X173771666Y-83927190D01*
X173890714Y-83927190D01*
X173938333Y-83951000D01*
X173962142Y-83974809D01*
X173985952Y-84022428D01*
X173985952Y-84070047D01*
X173962142Y-84141476D01*
X173676428Y-84427190D01*
X173985952Y-84427190D01*
X158365071Y-85443190D02*
X158198404Y-85205095D01*
X158079357Y-85443190D02*
X158079357Y-84943190D01*
X158269833Y-84943190D01*
X158317452Y-84967000D01*
X158341261Y-84990809D01*
X158365071Y-85038428D01*
X158365071Y-85109857D01*
X158341261Y-85157476D01*
X158317452Y-85181285D01*
X158269833Y-85205095D01*
X158079357Y-85205095D01*
X158555547Y-84990809D02*
X158579357Y-84967000D01*
X158626976Y-84943190D01*
X158746023Y-84943190D01*
X158793642Y-84967000D01*
X158817452Y-84990809D01*
X158841261Y-85038428D01*
X158841261Y-85086047D01*
X158817452Y-85157476D01*
X158531738Y-85443190D01*
X158841261Y-85443190D01*
X159007928Y-84943190D02*
X159317452Y-84943190D01*
X159150785Y-85133666D01*
X159222214Y-85133666D01*
X159269833Y-85157476D01*
X159293642Y-85181285D01*
X159317452Y-85228904D01*
X159317452Y-85347952D01*
X159293642Y-85395571D01*
X159269833Y-85419380D01*
X159222214Y-85443190D01*
X159079357Y-85443190D01*
X159031738Y-85419380D01*
X159007928Y-85395571D01*
X110676571Y-85062190D02*
X110509904Y-84824095D01*
X110390857Y-85062190D02*
X110390857Y-84562190D01*
X110581333Y-84562190D01*
X110628952Y-84586000D01*
X110652761Y-84609809D01*
X110676571Y-84657428D01*
X110676571Y-84728857D01*
X110652761Y-84776476D01*
X110628952Y-84800285D01*
X110581333Y-84824095D01*
X110390857Y-84824095D01*
X110867047Y-84609809D02*
X110890857Y-84586000D01*
X110938476Y-84562190D01*
X111057523Y-84562190D01*
X111105142Y-84586000D01*
X111128952Y-84609809D01*
X111152761Y-84657428D01*
X111152761Y-84705047D01*
X111128952Y-84776476D01*
X110843238Y-85062190D01*
X111152761Y-85062190D01*
X111581333Y-84562190D02*
X111486095Y-84562190D01*
X111438476Y-84586000D01*
X111414666Y-84609809D01*
X111367047Y-84681238D01*
X111343238Y-84776476D01*
X111343238Y-84966952D01*
X111367047Y-85014571D01*
X111390857Y-85038380D01*
X111438476Y-85062190D01*
X111533714Y-85062190D01*
X111581333Y-85038380D01*
X111605142Y-85014571D01*
X111628952Y-84966952D01*
X111628952Y-84847904D01*
X111605142Y-84800285D01*
X111581333Y-84776476D01*
X111533714Y-84752666D01*
X111438476Y-84752666D01*
X111390857Y-84776476D01*
X111367047Y-84800285D01*
X111343238Y-84847904D01*
X94928571Y-84871690D02*
X94761904Y-84633595D01*
X94642857Y-84871690D02*
X94642857Y-84371690D01*
X94833333Y-84371690D01*
X94880952Y-84395500D01*
X94904761Y-84419309D01*
X94928571Y-84466928D01*
X94928571Y-84538357D01*
X94904761Y-84585976D01*
X94880952Y-84609785D01*
X94833333Y-84633595D01*
X94642857Y-84633595D01*
X95119047Y-84419309D02*
X95142857Y-84395500D01*
X95190476Y-84371690D01*
X95309523Y-84371690D01*
X95357142Y-84395500D01*
X95380952Y-84419309D01*
X95404761Y-84466928D01*
X95404761Y-84514547D01*
X95380952Y-84585976D01*
X95095238Y-84871690D01*
X95404761Y-84871690D01*
X95571428Y-84371690D02*
X95904761Y-84371690D01*
X95690476Y-84871690D01*
M02*
