G04 #@! TF.GenerationSoftware,KiCad,Pcbnew,5.1.5*
G04 #@! TF.CreationDate,2020-04-29T22:13:39-04:00*
G04 #@! TF.ProjectId,EVE-PCB-V2,4556452d-5043-4422-9d56-322e6b696361,rev?*
G04 #@! TF.SameCoordinates,Original*
G04 #@! TF.FileFunction,Legend,Top*
G04 #@! TF.FilePolarity,Positive*
%FSLAX46Y46*%
G04 Gerber Fmt 4.6, Leading zero omitted, Abs format (unit mm)*
G04 Created by KiCad (PCBNEW 5.1.5) date 2020-04-29 22:13:39*
%MOMM*%
%LPD*%
G04 APERTURE LIST*
%ADD10C,0.125000*%
%ADD11C,0.300000*%
%ADD12C,0.250000*%
%ADD13C,0.200000*%
%ADD14C,0.100000*%
%ADD15C,0.152400*%
%ADD16C,0.127000*%
%ADD17C,0.120000*%
%ADD18C,0.400000*%
%ADD19C,0.050000*%
%ADD20C,0.150000*%
%ADD21C,0.254000*%
G04 APERTURE END LIST*
D10*
X112541952Y-129702690D02*
X112303857Y-129702690D01*
X112303857Y-129202690D01*
X112803857Y-129202690D02*
X112899095Y-129202690D01*
X112946714Y-129226500D01*
X112994333Y-129274119D01*
X113018142Y-129369357D01*
X113018142Y-129536023D01*
X112994333Y-129631261D01*
X112946714Y-129678880D01*
X112899095Y-129702690D01*
X112803857Y-129702690D01*
X112756238Y-129678880D01*
X112708619Y-129631261D01*
X112684809Y-129536023D01*
X112684809Y-129369357D01*
X112708619Y-129274119D01*
X112756238Y-129226500D01*
X112803857Y-129202690D01*
X113184809Y-129202690D02*
X113303857Y-129702690D01*
X113399095Y-129345547D01*
X113494333Y-129702690D01*
X113613380Y-129202690D01*
X113803857Y-129440785D02*
X113970523Y-129440785D01*
X114041952Y-129702690D02*
X113803857Y-129702690D01*
X113803857Y-129202690D01*
X114041952Y-129202690D01*
X114541952Y-129702690D02*
X114375285Y-129464595D01*
X114256238Y-129702690D02*
X114256238Y-129202690D01*
X114446714Y-129202690D01*
X114494333Y-129226500D01*
X114518142Y-129250309D01*
X114541952Y-129297928D01*
X114541952Y-129369357D01*
X114518142Y-129416976D01*
X114494333Y-129440785D01*
X114446714Y-129464595D01*
X114256238Y-129464595D01*
D11*
X132695071Y-127202285D02*
X132695071Y-127916571D01*
X131195071Y-127916571D01*
X131909357Y-126702285D02*
X131909357Y-126202285D01*
X132695071Y-125988000D02*
X132695071Y-126702285D01*
X131195071Y-126702285D01*
X131195071Y-125988000D01*
X132695071Y-125345142D02*
X131195071Y-125345142D01*
X131195071Y-124988000D01*
X131266500Y-124773714D01*
X131409357Y-124630857D01*
X131552214Y-124559428D01*
X131837928Y-124488000D01*
X132052214Y-124488000D01*
X132337928Y-124559428D01*
X132480785Y-124630857D01*
X132623642Y-124773714D01*
X132695071Y-124988000D01*
X132695071Y-125345142D01*
D10*
X112418952Y-122725690D02*
X112418952Y-123130452D01*
X112442761Y-123178071D01*
X112466571Y-123201880D01*
X112514190Y-123225690D01*
X112609428Y-123225690D01*
X112657047Y-123201880D01*
X112680857Y-123178071D01*
X112704666Y-123130452D01*
X112704666Y-122725690D01*
X112942761Y-123225690D02*
X112942761Y-122725690D01*
X113133238Y-122725690D01*
X113180857Y-122749500D01*
X113204666Y-122773309D01*
X113228476Y-122820928D01*
X113228476Y-122892357D01*
X113204666Y-122939976D01*
X113180857Y-122963785D01*
X113133238Y-122987595D01*
X112942761Y-122987595D01*
X113442761Y-123225690D02*
X113442761Y-122725690D01*
X113633238Y-122725690D01*
X113680857Y-122749500D01*
X113704666Y-122773309D01*
X113728476Y-122820928D01*
X113728476Y-122892357D01*
X113704666Y-122939976D01*
X113680857Y-122963785D01*
X113633238Y-122987595D01*
X113442761Y-122987595D01*
X113942761Y-122963785D02*
X114109428Y-122963785D01*
X114180857Y-123225690D02*
X113942761Y-123225690D01*
X113942761Y-122725690D01*
X114180857Y-122725690D01*
X114680857Y-123225690D02*
X114514190Y-122987595D01*
X114395142Y-123225690D02*
X114395142Y-122725690D01*
X114585619Y-122725690D01*
X114633238Y-122749500D01*
X114657047Y-122773309D01*
X114680857Y-122820928D01*
X114680857Y-122892357D01*
X114657047Y-122939976D01*
X114633238Y-122963785D01*
X114585619Y-122987595D01*
X114395142Y-122987595D01*
D11*
X135870071Y-127507857D02*
X134370071Y-127507857D01*
X134370071Y-126936428D01*
X134441500Y-126793571D01*
X134512928Y-126722142D01*
X134655785Y-126650714D01*
X134870071Y-126650714D01*
X135012928Y-126722142D01*
X135084357Y-126793571D01*
X135155785Y-126936428D01*
X135155785Y-127507857D01*
X135870071Y-126007857D02*
X134370071Y-126007857D01*
X134370071Y-125650714D01*
X134441500Y-125436428D01*
X134584357Y-125293571D01*
X134727214Y-125222142D01*
X135012928Y-125150714D01*
X135227214Y-125150714D01*
X135512928Y-125222142D01*
X135655785Y-125293571D01*
X135798642Y-125436428D01*
X135870071Y-125650714D01*
X135870071Y-126007857D01*
X128162857Y-127452285D02*
X128162857Y-127952285D01*
X128948571Y-127952285D02*
X127448571Y-127952285D01*
X127448571Y-127238000D01*
X128520000Y-126738000D02*
X128520000Y-126023714D01*
X128948571Y-126880857D02*
X127448571Y-126380857D01*
X128948571Y-125880857D01*
X128948571Y-125380857D02*
X127448571Y-125380857D01*
X128948571Y-124523714D01*
X127448571Y-124523714D01*
D12*
X124460047Y-122816928D02*
X125221952Y-122816928D01*
X124841000Y-123197880D02*
X124841000Y-122435976D01*
X127889047Y-122816928D02*
X128650952Y-122816928D01*
X128270000Y-123197880D02*
X128270000Y-122435976D01*
X131635547Y-122880428D02*
X132397452Y-122880428D01*
X132016500Y-123261380D02*
X132016500Y-122499476D01*
X134683547Y-122943928D02*
X135445452Y-122943928D01*
X135064500Y-123324880D02*
X135064500Y-122562976D01*
D13*
X124229880Y-128404666D02*
X125229880Y-128166571D01*
X124515595Y-127976095D01*
X125229880Y-127785619D01*
X124229880Y-127547523D01*
X124944166Y-127214190D02*
X124944166Y-126738000D01*
X125229880Y-127309428D02*
X124229880Y-126976095D01*
X125229880Y-126642761D01*
X125182261Y-126357047D02*
X125229880Y-126214190D01*
X125229880Y-125976095D01*
X125182261Y-125880857D01*
X125134642Y-125833238D01*
X125039404Y-125785619D01*
X124944166Y-125785619D01*
X124848928Y-125833238D01*
X124801309Y-125880857D01*
X124753690Y-125976095D01*
X124706071Y-126166571D01*
X124658452Y-126261809D01*
X124610833Y-126309428D01*
X124515595Y-126357047D01*
X124420357Y-126357047D01*
X124325119Y-126309428D01*
X124277500Y-126261809D01*
X124229880Y-126166571D01*
X124229880Y-125928476D01*
X124277500Y-125785619D01*
X124229880Y-125499904D02*
X124229880Y-124928476D01*
X125229880Y-125214190D02*
X124229880Y-125214190D01*
X124706071Y-124595142D02*
X124706071Y-124261809D01*
X125229880Y-124118952D02*
X125229880Y-124595142D01*
X124229880Y-124595142D01*
X124229880Y-124118952D01*
D12*
X117221047Y-129611428D02*
X117982952Y-129611428D01*
X120713547Y-129611428D02*
X121475452Y-129611428D01*
X117348047Y-122816928D02*
X118109952Y-122816928D01*
X117729000Y-123197880D02*
X117729000Y-122435976D01*
X124460047Y-129611428D02*
X125221952Y-129611428D01*
D13*
X118117880Y-127896714D02*
X117117880Y-127896714D01*
X117117880Y-127658619D01*
X117165500Y-127515761D01*
X117260738Y-127420523D01*
X117355976Y-127372904D01*
X117546452Y-127325285D01*
X117689309Y-127325285D01*
X117879785Y-127372904D01*
X117975023Y-127420523D01*
X118070261Y-127515761D01*
X118117880Y-127658619D01*
X118117880Y-127896714D01*
X118117880Y-126325285D02*
X117641690Y-126658619D01*
X118117880Y-126896714D02*
X117117880Y-126896714D01*
X117117880Y-126515761D01*
X117165500Y-126420523D01*
X117213119Y-126372904D01*
X117308357Y-126325285D01*
X117451214Y-126325285D01*
X117546452Y-126372904D01*
X117594071Y-126420523D01*
X117641690Y-126515761D01*
X117641690Y-126896714D01*
X117117880Y-125896714D02*
X117927404Y-125896714D01*
X118022642Y-125849095D01*
X118070261Y-125801476D01*
X118117880Y-125706238D01*
X118117880Y-125515761D01*
X118070261Y-125420523D01*
X118022642Y-125372904D01*
X117927404Y-125325285D01*
X117117880Y-125325285D01*
X117165500Y-124325285D02*
X117117880Y-124420523D01*
X117117880Y-124563380D01*
X117165500Y-124706238D01*
X117260738Y-124801476D01*
X117355976Y-124849095D01*
X117546452Y-124896714D01*
X117689309Y-124896714D01*
X117879785Y-124849095D01*
X117975023Y-124801476D01*
X118070261Y-124706238D01*
X118117880Y-124563380D01*
X118117880Y-124468142D01*
X118070261Y-124325285D01*
X118022642Y-124277666D01*
X117689309Y-124277666D01*
X117689309Y-124468142D01*
D12*
X134683547Y-129611428D02*
X135445452Y-129611428D01*
D13*
X121610380Y-128126880D02*
X120610380Y-128126880D01*
X121324666Y-127793547D01*
X120610380Y-127460214D01*
X121610380Y-127460214D01*
X121086571Y-126984023D02*
X121086571Y-126650690D01*
X121610380Y-126507833D02*
X121610380Y-126984023D01*
X120610380Y-126984023D01*
X120610380Y-126507833D01*
X121610380Y-126079261D02*
X120610380Y-126079261D01*
X120610380Y-125841166D01*
X120658000Y-125698309D01*
X120753238Y-125603071D01*
X120848476Y-125555452D01*
X121038952Y-125507833D01*
X121181809Y-125507833D01*
X121372285Y-125555452D01*
X121467523Y-125603071D01*
X121562761Y-125698309D01*
X121610380Y-125841166D01*
X121610380Y-126079261D01*
X121610380Y-125079261D02*
X120610380Y-125079261D01*
X121324666Y-124650690D02*
X121324666Y-124174500D01*
X121610380Y-124745928D02*
X120610380Y-124412595D01*
X121610380Y-124079261D01*
D12*
X131572047Y-129611428D02*
X132333952Y-129611428D01*
X127762047Y-129611428D02*
X128523952Y-129611428D01*
X120777047Y-122816928D02*
X121538952Y-122816928D01*
X121158000Y-123197880D02*
X121158000Y-122435976D01*
X108204047Y-129484428D02*
X108965952Y-129484428D01*
X94297547Y-122689928D02*
X95059452Y-122689928D01*
X94678500Y-123070880D02*
X94678500Y-122308976D01*
X101409547Y-122689928D02*
X102171452Y-122689928D01*
X101790500Y-123070880D02*
X101790500Y-122308976D01*
D11*
X101683357Y-127325285D02*
X101683357Y-127825285D01*
X102469071Y-127825285D02*
X100969071Y-127825285D01*
X100969071Y-127111000D01*
X102040500Y-126611000D02*
X102040500Y-125896714D01*
X102469071Y-126753857D02*
X100969071Y-126253857D01*
X102469071Y-125753857D01*
X102469071Y-125253857D02*
X100969071Y-125253857D01*
X102469071Y-124396714D01*
X100969071Y-124396714D01*
D12*
X94234047Y-129484428D02*
X94995952Y-129484428D01*
X101282547Y-129484428D02*
X102044452Y-129484428D01*
D11*
X106215571Y-127075285D02*
X106215571Y-127789571D01*
X104715571Y-127789571D01*
X105429857Y-126575285D02*
X105429857Y-126075285D01*
X106215571Y-125861000D02*
X106215571Y-126575285D01*
X104715571Y-126575285D01*
X104715571Y-125861000D01*
X106215571Y-125218142D02*
X104715571Y-125218142D01*
X104715571Y-124861000D01*
X104787000Y-124646714D01*
X104929857Y-124503857D01*
X105072714Y-124432428D01*
X105358428Y-124361000D01*
X105572714Y-124361000D01*
X105858428Y-124432428D01*
X106001285Y-124503857D01*
X106144142Y-124646714D01*
X106215571Y-124861000D01*
X106215571Y-125218142D01*
D12*
X97980547Y-129484428D02*
X98742452Y-129484428D01*
D11*
X109390571Y-127380857D02*
X107890571Y-127380857D01*
X107890571Y-126809428D01*
X107962000Y-126666571D01*
X108033428Y-126595142D01*
X108176285Y-126523714D01*
X108390571Y-126523714D01*
X108533428Y-126595142D01*
X108604857Y-126666571D01*
X108676285Y-126809428D01*
X108676285Y-127380857D01*
X109390571Y-125880857D02*
X107890571Y-125880857D01*
X107890571Y-125523714D01*
X107962000Y-125309428D01*
X108104857Y-125166571D01*
X108247714Y-125095142D01*
X108533428Y-125023714D01*
X108747714Y-125023714D01*
X109033428Y-125095142D01*
X109176285Y-125166571D01*
X109319142Y-125309428D01*
X109390571Y-125523714D01*
X109390571Y-125880857D01*
D12*
X90741547Y-129484428D02*
X91503452Y-129484428D01*
X90868547Y-122689928D02*
X91630452Y-122689928D01*
X91249500Y-123070880D02*
X91249500Y-122308976D01*
D13*
X91638380Y-127769714D02*
X90638380Y-127769714D01*
X90638380Y-127531619D01*
X90686000Y-127388761D01*
X90781238Y-127293523D01*
X90876476Y-127245904D01*
X91066952Y-127198285D01*
X91209809Y-127198285D01*
X91400285Y-127245904D01*
X91495523Y-127293523D01*
X91590761Y-127388761D01*
X91638380Y-127531619D01*
X91638380Y-127769714D01*
X91638380Y-126198285D02*
X91162190Y-126531619D01*
X91638380Y-126769714D02*
X90638380Y-126769714D01*
X90638380Y-126388761D01*
X90686000Y-126293523D01*
X90733619Y-126245904D01*
X90828857Y-126198285D01*
X90971714Y-126198285D01*
X91066952Y-126245904D01*
X91114571Y-126293523D01*
X91162190Y-126388761D01*
X91162190Y-126769714D01*
X90638380Y-125769714D02*
X91447904Y-125769714D01*
X91543142Y-125722095D01*
X91590761Y-125674476D01*
X91638380Y-125579238D01*
X91638380Y-125388761D01*
X91590761Y-125293523D01*
X91543142Y-125245904D01*
X91447904Y-125198285D01*
X90638380Y-125198285D01*
X90686000Y-124198285D02*
X90638380Y-124293523D01*
X90638380Y-124436380D01*
X90686000Y-124579238D01*
X90781238Y-124674476D01*
X90876476Y-124722095D01*
X91066952Y-124769714D01*
X91209809Y-124769714D01*
X91400285Y-124722095D01*
X91495523Y-124674476D01*
X91590761Y-124579238D01*
X91638380Y-124436380D01*
X91638380Y-124341142D01*
X91590761Y-124198285D01*
X91543142Y-124150666D01*
X91209809Y-124150666D01*
X91209809Y-124341142D01*
D12*
X108204047Y-122816928D02*
X108965952Y-122816928D01*
X108585000Y-123197880D02*
X108585000Y-122435976D01*
X97980547Y-122689928D02*
X98742452Y-122689928D01*
X98361500Y-123070880D02*
X98361500Y-122308976D01*
X105092547Y-129484428D02*
X105854452Y-129484428D01*
D13*
X95130880Y-127999880D02*
X94130880Y-127999880D01*
X94845166Y-127666547D01*
X94130880Y-127333214D01*
X95130880Y-127333214D01*
X94607071Y-126857023D02*
X94607071Y-126523690D01*
X95130880Y-126380833D02*
X95130880Y-126857023D01*
X94130880Y-126857023D01*
X94130880Y-126380833D01*
X95130880Y-125952261D02*
X94130880Y-125952261D01*
X94130880Y-125714166D01*
X94178500Y-125571309D01*
X94273738Y-125476071D01*
X94368976Y-125428452D01*
X94559452Y-125380833D01*
X94702309Y-125380833D01*
X94892785Y-125428452D01*
X94988023Y-125476071D01*
X95083261Y-125571309D01*
X95130880Y-125714166D01*
X95130880Y-125952261D01*
X95130880Y-124952261D02*
X94130880Y-124952261D01*
X94845166Y-124523690D02*
X94845166Y-124047500D01*
X95130880Y-124618928D02*
X94130880Y-124285595D01*
X95130880Y-123952261D01*
D12*
X105156047Y-122753428D02*
X105917952Y-122753428D01*
X105537000Y-123134380D02*
X105537000Y-122372476D01*
D13*
X97750380Y-128277666D02*
X98750380Y-128039571D01*
X98036095Y-127849095D01*
X98750380Y-127658619D01*
X97750380Y-127420523D01*
X98464666Y-127087190D02*
X98464666Y-126611000D01*
X98750380Y-127182428D02*
X97750380Y-126849095D01*
X98750380Y-126515761D01*
X98702761Y-126230047D02*
X98750380Y-126087190D01*
X98750380Y-125849095D01*
X98702761Y-125753857D01*
X98655142Y-125706238D01*
X98559904Y-125658619D01*
X98464666Y-125658619D01*
X98369428Y-125706238D01*
X98321809Y-125753857D01*
X98274190Y-125849095D01*
X98226571Y-126039571D01*
X98178952Y-126134809D01*
X98131333Y-126182428D01*
X98036095Y-126230047D01*
X97940857Y-126230047D01*
X97845619Y-126182428D01*
X97798000Y-126134809D01*
X97750380Y-126039571D01*
X97750380Y-125801476D01*
X97798000Y-125658619D01*
X97750380Y-125372904D02*
X97750380Y-124801476D01*
X98750380Y-125087190D02*
X97750380Y-125087190D01*
X98226571Y-124468142D02*
X98226571Y-124134809D01*
X98750380Y-123991952D02*
X98750380Y-124468142D01*
X97750380Y-124468142D01*
X97750380Y-123991952D01*
D11*
X158984071Y-127519785D02*
X158984071Y-128234071D01*
X157484071Y-128234071D01*
X158198357Y-127019785D02*
X158198357Y-126519785D01*
X158984071Y-126305500D02*
X158984071Y-127019785D01*
X157484071Y-127019785D01*
X157484071Y-126305500D01*
X158984071Y-125662642D02*
X157484071Y-125662642D01*
X157484071Y-125305500D01*
X157555500Y-125091214D01*
X157698357Y-124948357D01*
X157841214Y-124876928D01*
X158126928Y-124805500D01*
X158341214Y-124805500D01*
X158626928Y-124876928D01*
X158769785Y-124948357D01*
X158912642Y-125091214D01*
X158984071Y-125305500D01*
X158984071Y-125662642D01*
X162159071Y-127825357D02*
X160659071Y-127825357D01*
X160659071Y-127253928D01*
X160730500Y-127111071D01*
X160801928Y-127039642D01*
X160944785Y-126968214D01*
X161159071Y-126968214D01*
X161301928Y-127039642D01*
X161373357Y-127111071D01*
X161444785Y-127253928D01*
X161444785Y-127825357D01*
X162159071Y-126325357D02*
X160659071Y-126325357D01*
X160659071Y-125968214D01*
X160730500Y-125753928D01*
X160873357Y-125611071D01*
X161016214Y-125539642D01*
X161301928Y-125468214D01*
X161516214Y-125468214D01*
X161801928Y-125539642D01*
X161944785Y-125611071D01*
X162087642Y-125753928D01*
X162159071Y-125968214D01*
X162159071Y-126325357D01*
X154451857Y-127769785D02*
X154451857Y-128269785D01*
X155237571Y-128269785D02*
X153737571Y-128269785D01*
X153737571Y-127555500D01*
X154809000Y-127055500D02*
X154809000Y-126341214D01*
X155237571Y-127198357D02*
X153737571Y-126698357D01*
X155237571Y-126198357D01*
X155237571Y-125698357D02*
X153737571Y-125698357D01*
X155237571Y-124841214D01*
X153737571Y-124841214D01*
D12*
X150749047Y-123134428D02*
X151510952Y-123134428D01*
X151130000Y-123515380D02*
X151130000Y-122753476D01*
X154178047Y-123134428D02*
X154939952Y-123134428D01*
X154559000Y-123515380D02*
X154559000Y-122753476D01*
X157924547Y-123197928D02*
X158686452Y-123197928D01*
X158305500Y-123578880D02*
X158305500Y-122816976D01*
X160972547Y-123261428D02*
X161734452Y-123261428D01*
X161353500Y-123642380D02*
X161353500Y-122880476D01*
D13*
X150518880Y-128722166D02*
X151518880Y-128484071D01*
X150804595Y-128293595D01*
X151518880Y-128103119D01*
X150518880Y-127865023D01*
X151233166Y-127531690D02*
X151233166Y-127055500D01*
X151518880Y-127626928D02*
X150518880Y-127293595D01*
X151518880Y-126960261D01*
X151471261Y-126674547D02*
X151518880Y-126531690D01*
X151518880Y-126293595D01*
X151471261Y-126198357D01*
X151423642Y-126150738D01*
X151328404Y-126103119D01*
X151233166Y-126103119D01*
X151137928Y-126150738D01*
X151090309Y-126198357D01*
X151042690Y-126293595D01*
X150995071Y-126484071D01*
X150947452Y-126579309D01*
X150899833Y-126626928D01*
X150804595Y-126674547D01*
X150709357Y-126674547D01*
X150614119Y-126626928D01*
X150566500Y-126579309D01*
X150518880Y-126484071D01*
X150518880Y-126245976D01*
X150566500Y-126103119D01*
X150518880Y-125817404D02*
X150518880Y-125245976D01*
X151518880Y-125531690D02*
X150518880Y-125531690D01*
X150995071Y-124912642D02*
X150995071Y-124579309D01*
X151518880Y-124436452D02*
X151518880Y-124912642D01*
X150518880Y-124912642D01*
X150518880Y-124436452D01*
D12*
X143510047Y-129928928D02*
X144271952Y-129928928D01*
X147002547Y-129928928D02*
X147764452Y-129928928D01*
X143637047Y-123134428D02*
X144398952Y-123134428D01*
X144018000Y-123515380D02*
X144018000Y-122753476D01*
X150749047Y-129928928D02*
X151510952Y-129928928D01*
D13*
X144406880Y-128214214D02*
X143406880Y-128214214D01*
X143406880Y-127976119D01*
X143454500Y-127833261D01*
X143549738Y-127738023D01*
X143644976Y-127690404D01*
X143835452Y-127642785D01*
X143978309Y-127642785D01*
X144168785Y-127690404D01*
X144264023Y-127738023D01*
X144359261Y-127833261D01*
X144406880Y-127976119D01*
X144406880Y-128214214D01*
X144406880Y-126642785D02*
X143930690Y-126976119D01*
X144406880Y-127214214D02*
X143406880Y-127214214D01*
X143406880Y-126833261D01*
X143454500Y-126738023D01*
X143502119Y-126690404D01*
X143597357Y-126642785D01*
X143740214Y-126642785D01*
X143835452Y-126690404D01*
X143883071Y-126738023D01*
X143930690Y-126833261D01*
X143930690Y-127214214D01*
X143406880Y-126214214D02*
X144216404Y-126214214D01*
X144311642Y-126166595D01*
X144359261Y-126118976D01*
X144406880Y-126023738D01*
X144406880Y-125833261D01*
X144359261Y-125738023D01*
X144311642Y-125690404D01*
X144216404Y-125642785D01*
X143406880Y-125642785D01*
X143454500Y-124642785D02*
X143406880Y-124738023D01*
X143406880Y-124880880D01*
X143454500Y-125023738D01*
X143549738Y-125118976D01*
X143644976Y-125166595D01*
X143835452Y-125214214D01*
X143978309Y-125214214D01*
X144168785Y-125166595D01*
X144264023Y-125118976D01*
X144359261Y-125023738D01*
X144406880Y-124880880D01*
X144406880Y-124785642D01*
X144359261Y-124642785D01*
X144311642Y-124595166D01*
X143978309Y-124595166D01*
X143978309Y-124785642D01*
D12*
X160972547Y-129928928D02*
X161734452Y-129928928D01*
D13*
X147899380Y-128444380D02*
X146899380Y-128444380D01*
X147613666Y-128111047D01*
X146899380Y-127777714D01*
X147899380Y-127777714D01*
X147375571Y-127301523D02*
X147375571Y-126968190D01*
X147899380Y-126825333D02*
X147899380Y-127301523D01*
X146899380Y-127301523D01*
X146899380Y-126825333D01*
X147899380Y-126396761D02*
X146899380Y-126396761D01*
X146899380Y-126158666D01*
X146947000Y-126015809D01*
X147042238Y-125920571D01*
X147137476Y-125872952D01*
X147327952Y-125825333D01*
X147470809Y-125825333D01*
X147661285Y-125872952D01*
X147756523Y-125920571D01*
X147851761Y-126015809D01*
X147899380Y-126158666D01*
X147899380Y-126396761D01*
X147899380Y-125396761D02*
X146899380Y-125396761D01*
X147613666Y-124968190D02*
X147613666Y-124492000D01*
X147899380Y-125063428D02*
X146899380Y-124730095D01*
X147899380Y-124396761D01*
D12*
X157861047Y-129928928D02*
X158622952Y-129928928D01*
X154051047Y-129928928D02*
X154812952Y-129928928D01*
X147066047Y-123134428D02*
X147827952Y-123134428D01*
X147447000Y-123515380D02*
X147447000Y-122753476D01*
X169037047Y-130055928D02*
X169798952Y-130055928D01*
X172529547Y-130055928D02*
X173291452Y-130055928D01*
X176276047Y-130055928D02*
X177037952Y-130055928D01*
X179578047Y-130055928D02*
X180339952Y-130055928D01*
X183388047Y-130055928D02*
X184149952Y-130055928D01*
X186499547Y-130055928D02*
X187261452Y-130055928D01*
X169164047Y-123261428D02*
X169925952Y-123261428D01*
X169545000Y-123642380D02*
X169545000Y-122880476D01*
X172593047Y-123261428D02*
X173354952Y-123261428D01*
X172974000Y-123642380D02*
X172974000Y-122880476D01*
D13*
X169933880Y-128341214D02*
X168933880Y-128341214D01*
X168933880Y-128103119D01*
X168981500Y-127960261D01*
X169076738Y-127865023D01*
X169171976Y-127817404D01*
X169362452Y-127769785D01*
X169505309Y-127769785D01*
X169695785Y-127817404D01*
X169791023Y-127865023D01*
X169886261Y-127960261D01*
X169933880Y-128103119D01*
X169933880Y-128341214D01*
X169933880Y-126769785D02*
X169457690Y-127103119D01*
X169933880Y-127341214D02*
X168933880Y-127341214D01*
X168933880Y-126960261D01*
X168981500Y-126865023D01*
X169029119Y-126817404D01*
X169124357Y-126769785D01*
X169267214Y-126769785D01*
X169362452Y-126817404D01*
X169410071Y-126865023D01*
X169457690Y-126960261D01*
X169457690Y-127341214D01*
X168933880Y-126341214D02*
X169743404Y-126341214D01*
X169838642Y-126293595D01*
X169886261Y-126245976D01*
X169933880Y-126150738D01*
X169933880Y-125960261D01*
X169886261Y-125865023D01*
X169838642Y-125817404D01*
X169743404Y-125769785D01*
X168933880Y-125769785D01*
X168981500Y-124769785D02*
X168933880Y-124865023D01*
X168933880Y-125007880D01*
X168981500Y-125150738D01*
X169076738Y-125245976D01*
X169171976Y-125293595D01*
X169362452Y-125341214D01*
X169505309Y-125341214D01*
X169695785Y-125293595D01*
X169791023Y-125245976D01*
X169886261Y-125150738D01*
X169933880Y-125007880D01*
X169933880Y-124912642D01*
X169886261Y-124769785D01*
X169838642Y-124722166D01*
X169505309Y-124722166D01*
X169505309Y-124912642D01*
X173426380Y-128571380D02*
X172426380Y-128571380D01*
X173140666Y-128238047D01*
X172426380Y-127904714D01*
X173426380Y-127904714D01*
X172902571Y-127428523D02*
X172902571Y-127095190D01*
X173426380Y-126952333D02*
X173426380Y-127428523D01*
X172426380Y-127428523D01*
X172426380Y-126952333D01*
X173426380Y-126523761D02*
X172426380Y-126523761D01*
X172426380Y-126285666D01*
X172474000Y-126142809D01*
X172569238Y-126047571D01*
X172664476Y-125999952D01*
X172854952Y-125952333D01*
X172997809Y-125952333D01*
X173188285Y-125999952D01*
X173283523Y-126047571D01*
X173378761Y-126142809D01*
X173426380Y-126285666D01*
X173426380Y-126523761D01*
X173426380Y-125523761D02*
X172426380Y-125523761D01*
X173140666Y-125095190D02*
X173140666Y-124619000D01*
X173426380Y-125190428D02*
X172426380Y-124857095D01*
X173426380Y-124523761D01*
D12*
X176276047Y-123261428D02*
X177037952Y-123261428D01*
X176657000Y-123642380D02*
X176657000Y-122880476D01*
X179705047Y-123261428D02*
X180466952Y-123261428D01*
X180086000Y-123642380D02*
X180086000Y-122880476D01*
X183451547Y-123324928D02*
X184213452Y-123324928D01*
X183832500Y-123705880D02*
X183832500Y-122943976D01*
X186499547Y-123388428D02*
X187261452Y-123388428D01*
X186880500Y-123769380D02*
X186880500Y-123007476D01*
D13*
X176045880Y-128849166D02*
X177045880Y-128611071D01*
X176331595Y-128420595D01*
X177045880Y-128230119D01*
X176045880Y-127992023D01*
X176760166Y-127658690D02*
X176760166Y-127182500D01*
X177045880Y-127753928D02*
X176045880Y-127420595D01*
X177045880Y-127087261D01*
X176998261Y-126801547D02*
X177045880Y-126658690D01*
X177045880Y-126420595D01*
X176998261Y-126325357D01*
X176950642Y-126277738D01*
X176855404Y-126230119D01*
X176760166Y-126230119D01*
X176664928Y-126277738D01*
X176617309Y-126325357D01*
X176569690Y-126420595D01*
X176522071Y-126611071D01*
X176474452Y-126706309D01*
X176426833Y-126753928D01*
X176331595Y-126801547D01*
X176236357Y-126801547D01*
X176141119Y-126753928D01*
X176093500Y-126706309D01*
X176045880Y-126611071D01*
X176045880Y-126372976D01*
X176093500Y-126230119D01*
X176045880Y-125944404D02*
X176045880Y-125372976D01*
X177045880Y-125658690D02*
X176045880Y-125658690D01*
X176522071Y-125039642D02*
X176522071Y-124706309D01*
X177045880Y-124563452D02*
X177045880Y-125039642D01*
X176045880Y-125039642D01*
X176045880Y-124563452D01*
D11*
X179978857Y-127896785D02*
X179978857Y-128396785D01*
X180764571Y-128396785D02*
X179264571Y-128396785D01*
X179264571Y-127682500D01*
X180336000Y-127182500D02*
X180336000Y-126468214D01*
X180764571Y-127325357D02*
X179264571Y-126825357D01*
X180764571Y-126325357D01*
X180764571Y-125825357D02*
X179264571Y-125825357D01*
X180764571Y-124968214D01*
X179264571Y-124968214D01*
X184511071Y-127646785D02*
X184511071Y-128361071D01*
X183011071Y-128361071D01*
X183725357Y-127146785D02*
X183725357Y-126646785D01*
X184511071Y-126432500D02*
X184511071Y-127146785D01*
X183011071Y-127146785D01*
X183011071Y-126432500D01*
X184511071Y-125789642D02*
X183011071Y-125789642D01*
X183011071Y-125432500D01*
X183082500Y-125218214D01*
X183225357Y-125075357D01*
X183368214Y-125003928D01*
X183653928Y-124932500D01*
X183868214Y-124932500D01*
X184153928Y-125003928D01*
X184296785Y-125075357D01*
X184439642Y-125218214D01*
X184511071Y-125432500D01*
X184511071Y-125789642D01*
D10*
X164806452Y-123233690D02*
X164806452Y-123638452D01*
X164830261Y-123686071D01*
X164854071Y-123709880D01*
X164901690Y-123733690D01*
X164996928Y-123733690D01*
X165044547Y-123709880D01*
X165068357Y-123686071D01*
X165092166Y-123638452D01*
X165092166Y-123233690D01*
X165330261Y-123733690D02*
X165330261Y-123233690D01*
X165520738Y-123233690D01*
X165568357Y-123257500D01*
X165592166Y-123281309D01*
X165615976Y-123328928D01*
X165615976Y-123400357D01*
X165592166Y-123447976D01*
X165568357Y-123471785D01*
X165520738Y-123495595D01*
X165330261Y-123495595D01*
X165830261Y-123733690D02*
X165830261Y-123233690D01*
X166020738Y-123233690D01*
X166068357Y-123257500D01*
X166092166Y-123281309D01*
X166115976Y-123328928D01*
X166115976Y-123400357D01*
X166092166Y-123447976D01*
X166068357Y-123471785D01*
X166020738Y-123495595D01*
X165830261Y-123495595D01*
X166330261Y-123471785D02*
X166496928Y-123471785D01*
X166568357Y-123733690D02*
X166330261Y-123733690D01*
X166330261Y-123233690D01*
X166568357Y-123233690D01*
X167068357Y-123733690D02*
X166901690Y-123495595D01*
X166782642Y-123733690D02*
X166782642Y-123233690D01*
X166973119Y-123233690D01*
X167020738Y-123257500D01*
X167044547Y-123281309D01*
X167068357Y-123328928D01*
X167068357Y-123400357D01*
X167044547Y-123447976D01*
X167020738Y-123471785D01*
X166973119Y-123495595D01*
X166782642Y-123495595D01*
X164929452Y-130210690D02*
X164691357Y-130210690D01*
X164691357Y-129710690D01*
X165191357Y-129710690D02*
X165286595Y-129710690D01*
X165334214Y-129734500D01*
X165381833Y-129782119D01*
X165405642Y-129877357D01*
X165405642Y-130044023D01*
X165381833Y-130139261D01*
X165334214Y-130186880D01*
X165286595Y-130210690D01*
X165191357Y-130210690D01*
X165143738Y-130186880D01*
X165096119Y-130139261D01*
X165072309Y-130044023D01*
X165072309Y-129877357D01*
X165096119Y-129782119D01*
X165143738Y-129734500D01*
X165191357Y-129710690D01*
X165572309Y-129710690D02*
X165691357Y-130210690D01*
X165786595Y-129853547D01*
X165881833Y-130210690D01*
X166000880Y-129710690D01*
X166191357Y-129948785D02*
X166358023Y-129948785D01*
X166429452Y-130210690D02*
X166191357Y-130210690D01*
X166191357Y-129710690D01*
X166429452Y-129710690D01*
X166929452Y-130210690D02*
X166762785Y-129972595D01*
X166643738Y-130210690D02*
X166643738Y-129710690D01*
X166834214Y-129710690D01*
X166881833Y-129734500D01*
X166905642Y-129758309D01*
X166929452Y-129805928D01*
X166929452Y-129877357D01*
X166905642Y-129924976D01*
X166881833Y-129948785D01*
X166834214Y-129972595D01*
X166643738Y-129972595D01*
D11*
X187686071Y-127952357D02*
X186186071Y-127952357D01*
X186186071Y-127380928D01*
X186257500Y-127238071D01*
X186328928Y-127166642D01*
X186471785Y-127095214D01*
X186686071Y-127095214D01*
X186828928Y-127166642D01*
X186900357Y-127238071D01*
X186971785Y-127380928D01*
X186971785Y-127952357D01*
X187686071Y-126452357D02*
X186186071Y-126452357D01*
X186186071Y-126095214D01*
X186257500Y-125880928D01*
X186400357Y-125738071D01*
X186543214Y-125666642D01*
X186828928Y-125595214D01*
X187043214Y-125595214D01*
X187328928Y-125666642D01*
X187471785Y-125738071D01*
X187614642Y-125880928D01*
X187686071Y-126095214D01*
X187686071Y-126452357D01*
D12*
X97742571Y-131728571D02*
X98075904Y-131728571D01*
X98218761Y-132252380D02*
X97742571Y-132252380D01*
X97742571Y-131252380D01*
X98218761Y-131252380D01*
X98504476Y-131252380D02*
X98837809Y-132252380D01*
X99171142Y-131252380D01*
X99504476Y-131728571D02*
X99837809Y-131728571D01*
X99980666Y-132252380D02*
X99504476Y-132252380D01*
X99504476Y-131252380D01*
X99980666Y-131252380D01*
X100837809Y-131585714D02*
X100837809Y-132252380D01*
X100599714Y-131204761D02*
X100361619Y-131919047D01*
X100980666Y-131919047D01*
X124920571Y-131728571D02*
X125253904Y-131728571D01*
X125396761Y-132252380D02*
X124920571Y-132252380D01*
X124920571Y-131252380D01*
X125396761Y-131252380D01*
X125682476Y-131252380D02*
X126015809Y-132252380D01*
X126349142Y-131252380D01*
X126682476Y-131728571D02*
X127015809Y-131728571D01*
X127158666Y-132252380D02*
X126682476Y-132252380D01*
X126682476Y-131252380D01*
X127158666Y-131252380D01*
X127492000Y-131252380D02*
X128111047Y-131252380D01*
X127777714Y-131633333D01*
X127920571Y-131633333D01*
X128015809Y-131680952D01*
X128063428Y-131728571D01*
X128111047Y-131823809D01*
X128111047Y-132061904D01*
X128063428Y-132157142D01*
X128015809Y-132204761D01*
X127920571Y-132252380D01*
X127634857Y-132252380D01*
X127539619Y-132204761D01*
X127492000Y-132157142D01*
X151273071Y-131728571D02*
X151606404Y-131728571D01*
X151749261Y-132252380D02*
X151273071Y-132252380D01*
X151273071Y-131252380D01*
X151749261Y-131252380D01*
X152034976Y-131252380D02*
X152368309Y-132252380D01*
X152701642Y-131252380D01*
X153034976Y-131728571D02*
X153368309Y-131728571D01*
X153511166Y-132252380D02*
X153034976Y-132252380D01*
X153034976Y-131252380D01*
X153511166Y-131252380D01*
X153892119Y-131347619D02*
X153939738Y-131300000D01*
X154034976Y-131252380D01*
X154273071Y-131252380D01*
X154368309Y-131300000D01*
X154415928Y-131347619D01*
X154463547Y-131442857D01*
X154463547Y-131538095D01*
X154415928Y-131680952D01*
X153844500Y-132252380D01*
X154463547Y-132252380D01*
X177371571Y-131728571D02*
X177704904Y-131728571D01*
X177847761Y-132252380D02*
X177371571Y-132252380D01*
X177371571Y-131252380D01*
X177847761Y-131252380D01*
X178133476Y-131252380D02*
X178466809Y-132252380D01*
X178800142Y-131252380D01*
X179133476Y-131728571D02*
X179466809Y-131728571D01*
X179609666Y-132252380D02*
X179133476Y-132252380D01*
X179133476Y-131252380D01*
X179609666Y-131252380D01*
X180562047Y-132252380D02*
X179990619Y-132252380D01*
X180276333Y-132252380D02*
X180276333Y-131252380D01*
X180181095Y-131395238D01*
X180085857Y-131490476D01*
X179990619Y-131538095D01*
X137037878Y-69174149D02*
X136597402Y-68697959D01*
X136180735Y-69174149D02*
X136305735Y-68174149D01*
X136877164Y-68174149D01*
X137014069Y-68221769D01*
X137079545Y-68269388D01*
X137139069Y-68364626D01*
X137121212Y-68507483D01*
X137037878Y-68602721D01*
X136960497Y-68650340D01*
X136811688Y-68697959D01*
X136240259Y-68697959D01*
X137746212Y-68650340D02*
X138246212Y-68650340D01*
X138395021Y-69174149D02*
X137680735Y-69174149D01*
X137805735Y-68174149D01*
X138520021Y-68174149D01*
X138948593Y-68174149D02*
X139323593Y-69174149D01*
X139948593Y-68174149D01*
X141508116Y-68269388D02*
X141585497Y-68221769D01*
X141734307Y-68174149D01*
X142091450Y-68174149D01*
X142228354Y-68221769D01*
X142293831Y-68269388D01*
X142353354Y-68364626D01*
X142341450Y-68459864D01*
X142252164Y-68602721D01*
X141323593Y-69174149D01*
X142252164Y-69174149D01*
D11*
X134824560Y-66074626D02*
X135324560Y-66074626D01*
X135538846Y-66860340D02*
X134824560Y-66860340D01*
X134824560Y-65360340D01*
X135538846Y-65360340D01*
X135967417Y-65360340D02*
X136467417Y-66860340D01*
X136967417Y-65360340D01*
X137467417Y-66074626D02*
X137967417Y-66074626D01*
X138181703Y-66860340D02*
X137467417Y-66860340D01*
X137467417Y-65360340D01*
X138181703Y-65360340D01*
X138467417Y-67003197D02*
X139610274Y-67003197D01*
X139967417Y-66860340D02*
X139967417Y-65360340D01*
X140538846Y-65360340D01*
X140681703Y-65431769D01*
X140753131Y-65503197D01*
X140824560Y-65646054D01*
X140824560Y-65860340D01*
X140753131Y-66003197D01*
X140681703Y-66074626D01*
X140538846Y-66146054D01*
X139967417Y-66146054D01*
X142324560Y-66717483D02*
X142253131Y-66788911D01*
X142038846Y-66860340D01*
X141895988Y-66860340D01*
X141681703Y-66788911D01*
X141538846Y-66646054D01*
X141467417Y-66503197D01*
X141395988Y-66217483D01*
X141395988Y-66003197D01*
X141467417Y-65717483D01*
X141538846Y-65574626D01*
X141681703Y-65431769D01*
X141895988Y-65360340D01*
X142038846Y-65360340D01*
X142253131Y-65431769D01*
X142324560Y-65503197D01*
X143467417Y-66074626D02*
X143681703Y-66146054D01*
X143753131Y-66217483D01*
X143824560Y-66360340D01*
X143824560Y-66574626D01*
X143753131Y-66717483D01*
X143681703Y-66788911D01*
X143538846Y-66860340D01*
X142967417Y-66860340D01*
X142967417Y-65360340D01*
X143467417Y-65360340D01*
X143610274Y-65431769D01*
X143681703Y-65503197D01*
X143753131Y-65646054D01*
X143753131Y-65788911D01*
X143681703Y-65931769D01*
X143610274Y-66003197D01*
X143467417Y-66074626D01*
X142967417Y-66074626D01*
D13*
X123736231Y-44590846D02*
G75*
G03X123736231Y-44590846I-200000J0D01*
G01*
D14*
X128941031Y-44648446D02*
G75*
G02X128331431Y-44648446I-304800J0D01*
G01*
D15*
X124826231Y-44648446D02*
X124826231Y-44826246D01*
X128331431Y-44648446D02*
X124826231Y-44648446D01*
X128941031Y-44648446D02*
X128331431Y-44648446D01*
X132446231Y-44648446D02*
X128941031Y-44648446D01*
X132446231Y-62733246D02*
X132446231Y-62555446D01*
X124826231Y-62733246D02*
X132446231Y-62733246D01*
X124826231Y-62555446D02*
X124826231Y-62733246D01*
X132446231Y-44826246D02*
X132446231Y-44648446D01*
D16*
X178356346Y-51221269D02*
X178356346Y-50921269D01*
X177056346Y-51221269D02*
X177056346Y-50921269D01*
D14*
X176956346Y-63782269D02*
G75*
G03X176956346Y-63782269I-50000J0D01*
G01*
D16*
X177406346Y-64222269D02*
X178006346Y-64222269D01*
X177406346Y-63442269D02*
X178006346Y-63442269D01*
D15*
X176499846Y-58434769D02*
G75*
G03X176499846Y-58434769I-76200J0D01*
G01*
D13*
X93144846Y-41286269D02*
X93144846Y-36090269D01*
X90540846Y-36090269D02*
X90540846Y-41613269D01*
X99665846Y-41349769D02*
X99665846Y-36153769D01*
X97061846Y-36153769D02*
X97061846Y-41676769D01*
X112898346Y-41286269D02*
X112898346Y-36090269D01*
X110294346Y-36090269D02*
X110294346Y-41613269D01*
X106313846Y-41286269D02*
X106313846Y-36090269D01*
X103709846Y-36090269D02*
X103709846Y-41613269D01*
X106313846Y-50419769D02*
X106313846Y-45223769D01*
X103709846Y-45223769D02*
X103709846Y-50746769D01*
X112898346Y-50419769D02*
X112898346Y-45223769D01*
X110294346Y-45223769D02*
X110294346Y-50746769D01*
X99729346Y-50483269D02*
X99729346Y-45287269D01*
X97125346Y-45287269D02*
X97125346Y-50810269D01*
X93208346Y-50419769D02*
X93208346Y-45223769D01*
X90604346Y-45223769D02*
X90604346Y-50746769D01*
X112898346Y-59489769D02*
X112898346Y-54293769D01*
X110294346Y-54293769D02*
X110294346Y-59816769D01*
X110294346Y-63617769D02*
X110294346Y-69140769D01*
X112898346Y-68813769D02*
X112898346Y-63617769D01*
X99729346Y-59553269D02*
X99729346Y-54357269D01*
X97125346Y-54357269D02*
X97125346Y-59880269D01*
X93208346Y-59489769D02*
X93208346Y-54293769D01*
X90604346Y-54293769D02*
X90604346Y-59816769D01*
X106377346Y-68813769D02*
X106377346Y-63617769D01*
X103773346Y-63617769D02*
X103773346Y-69140769D01*
X106377346Y-59489769D02*
X106377346Y-54293769D01*
X103773346Y-54293769D02*
X103773346Y-59816769D01*
X99729346Y-68877269D02*
X99729346Y-63681269D01*
X97125346Y-63681269D02*
X97125346Y-69204269D01*
X93208346Y-68813769D02*
X93208346Y-63617769D01*
X90604346Y-63617769D02*
X90604346Y-69140769D01*
D15*
X171103347Y-48043529D02*
X171103347Y-47384269D01*
X165259345Y-50919009D02*
X165259345Y-51578269D01*
X165259345Y-47384269D02*
X165259345Y-48043529D01*
X171103347Y-47384269D02*
X165259345Y-47384269D01*
X171103347Y-51578269D02*
X171103347Y-50919009D01*
X165259345Y-51578269D02*
X171103347Y-51578269D01*
X164624345Y-48846269D02*
X164624345Y-50116269D01*
X163862345Y-49481269D02*
X164624345Y-49608269D01*
X163862345Y-49481269D02*
X164624345Y-49735269D01*
X163862345Y-49481269D02*
X164624345Y-49862269D01*
X163862345Y-49481269D02*
X164624345Y-49989269D01*
X163862345Y-49481269D02*
X164624345Y-50116269D01*
X163862345Y-49481269D02*
X164624345Y-49354269D01*
X163862345Y-49481269D02*
X164624345Y-49227269D01*
X163862345Y-49481269D02*
X164624345Y-49100269D01*
X163862345Y-49481269D02*
X164624345Y-48973269D01*
X163862345Y-49481269D02*
X164624345Y-48846269D01*
X163862345Y-48846269D02*
X163862345Y-50116269D01*
X164878345Y-49481269D02*
X163608345Y-49481269D01*
D17*
X169003346Y-35768769D02*
X169003346Y-37098769D01*
X167673346Y-35768769D02*
X169003346Y-35768769D01*
X169003346Y-38368769D02*
X169003346Y-40968769D01*
X166403346Y-38368769D02*
X169003346Y-38368769D01*
X166403346Y-35768769D02*
X166403346Y-38368769D01*
X169003346Y-40968769D02*
X118083346Y-40968769D01*
X166403346Y-35768769D02*
X118083346Y-35768769D01*
X118083346Y-35768769D02*
X118083346Y-40968769D01*
D18*
X174255346Y-41543769D02*
G75*
G03X174255346Y-41543769I-200000J0D01*
G01*
D16*
X175355346Y-38993769D02*
X175355346Y-37043769D01*
X181605346Y-37043769D02*
X189755346Y-37043769D01*
X175355346Y-46043769D02*
X175355346Y-44193769D01*
X175355346Y-37043769D02*
X176505346Y-37043769D01*
X189755346Y-46043769D02*
X175355346Y-46043769D01*
X189755346Y-37043769D02*
X189755346Y-46043769D01*
D13*
X167414846Y-102900000D02*
X167414846Y-114000000D01*
X189914846Y-102900000D02*
X167414846Y-102900000D01*
X189914846Y-120900000D02*
X189914846Y-102900000D01*
X169514846Y-120900000D02*
X189914846Y-120900000D01*
X141697346Y-102900000D02*
X141697346Y-114000000D01*
X164197346Y-102900000D02*
X141697346Y-102900000D01*
X164197346Y-120900000D02*
X164197346Y-102900000D01*
X143797346Y-120900000D02*
X164197346Y-120900000D01*
X115281346Y-102900000D02*
X115281346Y-114000000D01*
X137781346Y-102900000D02*
X115281346Y-102900000D01*
X137781346Y-120900000D02*
X137781346Y-102900000D01*
X117381346Y-120900000D02*
X137781346Y-120900000D01*
X88992346Y-102900000D02*
X88992346Y-114000000D01*
X111492346Y-102900000D02*
X88992346Y-102900000D01*
X111492346Y-120900000D02*
X111492346Y-102900000D01*
X91092346Y-120900000D02*
X111492346Y-120900000D01*
D15*
X174886946Y-78437269D02*
X174632946Y-78437269D01*
X174886946Y-78056269D02*
X174886946Y-78437269D01*
X174632946Y-78056269D02*
X174886946Y-78056269D01*
X174632946Y-78437269D02*
X174632946Y-78056269D01*
X176893546Y-89018909D02*
X176893546Y-89333869D01*
X184742146Y-77634629D02*
X184742146Y-77319669D01*
X184742146Y-89333869D02*
X184742146Y-89018909D01*
X176893546Y-89333869D02*
X184742146Y-89333869D01*
X176893546Y-77319669D02*
X176893546Y-77634629D01*
X184742146Y-77319669D02*
X176893546Y-77319669D01*
X162491746Y-88533769D02*
X162745746Y-88533769D01*
X162491746Y-88914769D02*
X162491746Y-88533769D01*
X162745746Y-88914769D02*
X162491746Y-88914769D01*
X162745746Y-88533769D02*
X162745746Y-88914769D01*
X160485146Y-77952129D02*
X160485146Y-77637169D01*
X152636546Y-89336409D02*
X152636546Y-89651369D01*
X152636546Y-77637169D02*
X152636546Y-77952129D01*
X160485146Y-77637169D02*
X152636546Y-77637169D01*
X160485146Y-89651369D02*
X160485146Y-89336409D01*
X152636546Y-89651369D02*
X160485146Y-89651369D01*
X112433100Y-78422500D02*
X112179100Y-78422500D01*
X112433100Y-78041500D02*
X112433100Y-78422500D01*
X112179100Y-78041500D02*
X112433100Y-78041500D01*
X112179100Y-78422500D02*
X112179100Y-78041500D01*
X114439700Y-89004140D02*
X114439700Y-89319100D01*
X122288300Y-77619860D02*
X122288300Y-77304900D01*
X122288300Y-89319100D02*
X122288300Y-89004140D01*
X114439700Y-89319100D02*
X122288300Y-89319100D01*
X114439700Y-77304900D02*
X114439700Y-77619860D01*
X122288300Y-77304900D02*
X114439700Y-77304900D01*
X104135246Y-88660769D02*
X104389246Y-88660769D01*
X104135246Y-89041769D02*
X104135246Y-88660769D01*
X104389246Y-89041769D02*
X104135246Y-89041769D01*
X104389246Y-88660769D02*
X104389246Y-89041769D01*
X102128646Y-78079129D02*
X102128646Y-77764169D01*
X94280046Y-89463409D02*
X94280046Y-89778369D01*
X94280046Y-77764169D02*
X94280046Y-78079129D01*
X102128646Y-77764169D02*
X94280046Y-77764169D01*
X102128646Y-89778369D02*
X102128646Y-89463409D01*
X94280046Y-89778369D02*
X102128646Y-89778369D01*
D13*
X183625346Y-60213769D02*
X186850346Y-60213769D01*
X183625346Y-49543769D02*
X183625346Y-60213769D01*
X188275346Y-49543769D02*
X183625346Y-49543769D01*
X135761846Y-83787269D02*
G75*
G03X135761846Y-83787269I-100000J0D01*
G01*
D16*
X140711846Y-83237269D02*
X137611846Y-83237269D01*
X137611846Y-86337269D02*
X140711846Y-86337269D01*
D14*
X139301546Y-90641969D02*
G75*
G02X138691946Y-90641969I-304800J0D01*
G01*
D15*
X138691946Y-90641969D02*
X137828346Y-90641969D01*
X139301546Y-90641969D02*
X138691946Y-90641969D01*
X140139746Y-90641969D02*
X139301546Y-90641969D01*
X137828346Y-99379569D02*
X140139746Y-99379569D01*
D13*
X145863769Y-44590846D02*
G75*
G03X145863769Y-44590846I-200000J0D01*
G01*
D14*
X151068569Y-44648446D02*
G75*
G02X150458969Y-44648446I-304800J0D01*
G01*
D15*
X146953769Y-44648446D02*
X146953769Y-44826246D01*
X150458969Y-44648446D02*
X146953769Y-44648446D01*
X151068569Y-44648446D02*
X150458969Y-44648446D01*
X154573769Y-44648446D02*
X151068569Y-44648446D01*
X154573769Y-62733246D02*
X154573769Y-62555446D01*
X146953769Y-62733246D02*
X154573769Y-62733246D01*
X146953769Y-62555446D02*
X146953769Y-62733246D01*
X154573769Y-44826246D02*
X154573769Y-44648446D01*
D14*
X138442000Y-87580000D02*
G75*
G03X138442000Y-87580000I-50000J0D01*
G01*
D16*
X138892000Y-88020000D02*
X139492000Y-88020000D01*
X138892000Y-87240000D02*
X139492000Y-87240000D01*
X132978000Y-94188000D02*
X132978000Y-94788000D01*
X132198000Y-94188000D02*
X132198000Y-94788000D01*
D14*
X132688000Y-93688000D02*
G75*
G03X132688000Y-93688000I-50000J0D01*
G01*
X142494000Y-54902000D02*
G75*
G03X142494000Y-54902000I-50000J0D01*
G01*
D16*
X142884000Y-54402000D02*
X142884000Y-53802000D01*
X142104000Y-54402000D02*
X142104000Y-53802000D01*
D14*
X174498000Y-76746000D02*
G75*
G03X174498000Y-76746000I-50000J0D01*
G01*
D16*
X174888000Y-76246000D02*
X174888000Y-75646000D01*
X174108000Y-76246000D02*
X174108000Y-75646000D01*
D14*
X163422000Y-90386000D02*
G75*
G03X163422000Y-90386000I-50000J0D01*
G01*
D16*
X162932000Y-90886000D02*
X162932000Y-91486000D01*
X163712000Y-90886000D02*
X163712000Y-91486000D01*
D14*
X121004000Y-57366000D02*
G75*
G03X121004000Y-57366000I-50000J0D01*
G01*
D16*
X120514000Y-57866000D02*
X120514000Y-58466000D01*
X121294000Y-57866000D02*
X121294000Y-58466000D01*
X111624000Y-76246000D02*
X111624000Y-75646000D01*
X112404000Y-76246000D02*
X112404000Y-75646000D01*
D14*
X112014000Y-76746000D02*
G75*
G03X112014000Y-76746000I-50000J0D01*
G01*
D16*
X105292000Y-91140000D02*
X105292000Y-91740000D01*
X104512000Y-91140000D02*
X104512000Y-91740000D01*
D14*
X105002000Y-90640000D02*
G75*
G03X105002000Y-90640000I-50000J0D01*
G01*
D19*
X121088611Y-62072750D02*
X121898135Y-62072750D01*
X121993373Y-62025131D01*
X122040992Y-61977512D01*
X122088611Y-61882274D01*
X122088611Y-61691798D01*
X122040992Y-61596560D01*
X121993373Y-61548941D01*
X121898135Y-61501322D01*
X121088611Y-61501322D01*
X121088611Y-60596560D02*
X121088611Y-60787036D01*
X121136231Y-60882274D01*
X121183850Y-60929893D01*
X121326707Y-61025131D01*
X121517183Y-61072750D01*
X121898135Y-61072750D01*
X121993373Y-61025131D01*
X122040992Y-60977512D01*
X122088611Y-60882274D01*
X122088611Y-60691798D01*
X122040992Y-60596560D01*
X121993373Y-60548941D01*
X121898135Y-60501322D01*
X121660040Y-60501322D01*
X121564802Y-60548941D01*
X121517183Y-60596560D01*
X121469564Y-60691798D01*
X121469564Y-60882274D01*
X121517183Y-60977512D01*
X121564802Y-61025131D01*
X121660040Y-61072750D01*
X176153012Y-51249840D02*
X176129203Y-51273649D01*
X176057774Y-51297459D01*
X176010155Y-51297459D01*
X175938726Y-51273649D01*
X175891107Y-51226030D01*
X175867298Y-51178411D01*
X175843488Y-51083173D01*
X175843488Y-51011745D01*
X175867298Y-50916507D01*
X175891107Y-50868888D01*
X175938726Y-50821269D01*
X176010155Y-50797459D01*
X176057774Y-50797459D01*
X176129203Y-50821269D01*
X176153012Y-50845078D01*
X176629203Y-51297459D02*
X176343488Y-51297459D01*
X176486346Y-51297459D02*
X176486346Y-50797459D01*
X176438726Y-50868888D01*
X176391107Y-50916507D01*
X176343488Y-50940316D01*
X179284298Y-51622221D02*
X179284298Y-51850792D01*
X179284298Y-51736507D02*
X178884298Y-51736507D01*
X178941441Y-51774602D01*
X178979536Y-51812697D01*
X178998584Y-51850792D01*
X178884298Y-51374602D02*
X178884298Y-51336507D01*
X178903346Y-51298411D01*
X178922393Y-51279364D01*
X178960488Y-51260316D01*
X179036679Y-51241269D01*
X179131917Y-51241269D01*
X179208107Y-51260316D01*
X179246203Y-51279364D01*
X179265250Y-51298411D01*
X179284298Y-51336507D01*
X179284298Y-51374602D01*
X179265250Y-51412697D01*
X179246203Y-51431745D01*
X179208107Y-51450792D01*
X179131917Y-51469840D01*
X179036679Y-51469840D01*
X178960488Y-51450792D01*
X178922393Y-51431745D01*
X178903346Y-51412697D01*
X178884298Y-51374602D01*
X179017631Y-50593649D02*
X179284298Y-50593649D01*
X179017631Y-50765078D02*
X179227155Y-50765078D01*
X179265250Y-50746030D01*
X179284298Y-50707935D01*
X179284298Y-50650792D01*
X179265250Y-50612697D01*
X179246203Y-50593649D01*
X179074774Y-50269840D02*
X179074774Y-50403173D01*
X179284298Y-50403173D02*
X178884298Y-50403173D01*
X178884298Y-50212697D01*
X175607679Y-63975126D02*
X175588631Y-63994173D01*
X175531488Y-64013221D01*
X175493393Y-64013221D01*
X175436250Y-63994173D01*
X175398155Y-63956078D01*
X175379107Y-63917983D01*
X175360060Y-63841792D01*
X175360060Y-63784649D01*
X175379107Y-63708459D01*
X175398155Y-63670364D01*
X175436250Y-63632269D01*
X175493393Y-63613221D01*
X175531488Y-63613221D01*
X175588631Y-63632269D01*
X175607679Y-63651316D01*
X175760060Y-63651316D02*
X175779107Y-63632269D01*
X175817203Y-63613221D01*
X175912441Y-63613221D01*
X175950536Y-63632269D01*
X175969584Y-63651316D01*
X175988631Y-63689411D01*
X175988631Y-63727507D01*
X175969584Y-63784649D01*
X175741012Y-64013221D01*
X175988631Y-64013221D01*
X178884298Y-64895792D02*
X178884298Y-64857697D01*
X178903346Y-64819602D01*
X178922393Y-64800554D01*
X178960488Y-64781507D01*
X179036679Y-64762459D01*
X179131917Y-64762459D01*
X179208107Y-64781507D01*
X179246203Y-64800554D01*
X179265250Y-64819602D01*
X179284298Y-64857697D01*
X179284298Y-64895792D01*
X179265250Y-64933888D01*
X179246203Y-64952935D01*
X179208107Y-64971983D01*
X179131917Y-64991030D01*
X179036679Y-64991030D01*
X178960488Y-64971983D01*
X178922393Y-64952935D01*
X178903346Y-64933888D01*
X178884298Y-64895792D01*
X179246203Y-64591030D02*
X179265250Y-64571983D01*
X179284298Y-64591030D01*
X179265250Y-64610078D01*
X179246203Y-64591030D01*
X179284298Y-64591030D01*
X179284298Y-64191030D02*
X179284298Y-64419602D01*
X179284298Y-64305316D02*
X178884298Y-64305316D01*
X178941441Y-64343411D01*
X178979536Y-64381507D01*
X178998584Y-64419602D01*
X179017631Y-63543411D02*
X179284298Y-63543411D01*
X179017631Y-63714840D02*
X179227155Y-63714840D01*
X179265250Y-63695792D01*
X179284298Y-63657697D01*
X179284298Y-63600554D01*
X179265250Y-63562459D01*
X179246203Y-63543411D01*
X179074774Y-63219602D02*
X179074774Y-63352935D01*
X179284298Y-63352935D02*
X178884298Y-63352935D01*
X178884298Y-63162459D01*
X175444942Y-58577626D02*
X175425894Y-58596673D01*
X175368751Y-58615721D01*
X175330656Y-58615721D01*
X175273513Y-58596673D01*
X175235418Y-58558578D01*
X175216370Y-58520483D01*
X175197323Y-58444292D01*
X175197323Y-58387149D01*
X175216370Y-58310959D01*
X175235418Y-58272864D01*
X175273513Y-58234769D01*
X175330656Y-58215721D01*
X175368751Y-58215721D01*
X175425894Y-58234769D01*
X175444942Y-58253816D01*
X175578275Y-58215721D02*
X175825894Y-58215721D01*
X175692561Y-58368102D01*
X175749704Y-58368102D01*
X175787799Y-58387149D01*
X175806847Y-58406197D01*
X175825894Y-58444292D01*
X175825894Y-58539530D01*
X175806847Y-58577626D01*
X175787799Y-58596673D01*
X175749704Y-58615721D01*
X175635418Y-58615721D01*
X175597323Y-58596673D01*
X175578275Y-58577626D01*
X179375561Y-58698245D02*
X179375561Y-58926816D01*
X179375561Y-58812530D02*
X178975561Y-58812530D01*
X179032704Y-58850626D01*
X179070799Y-58888721D01*
X179089847Y-58926816D01*
X179108894Y-58050626D02*
X179375561Y-58050626D01*
X179108894Y-58222054D02*
X179318418Y-58222054D01*
X179356513Y-58203007D01*
X179375561Y-58164911D01*
X179375561Y-58107769D01*
X179356513Y-58069673D01*
X179337466Y-58050626D01*
X179166037Y-57726816D02*
X179166037Y-57860149D01*
X179375561Y-57860149D02*
X178975561Y-57860149D01*
X178975561Y-57669673D01*
D10*
X89135798Y-39088190D02*
X89135798Y-38588190D01*
X89254846Y-38588190D01*
X89326274Y-38612000D01*
X89373893Y-38659619D01*
X89397703Y-38707238D01*
X89421512Y-38802476D01*
X89421512Y-38873904D01*
X89397703Y-38969142D01*
X89373893Y-39016761D01*
X89326274Y-39064380D01*
X89254846Y-39088190D01*
X89135798Y-39088190D01*
X89897703Y-39088190D02*
X89611988Y-39088190D01*
X89754846Y-39088190D02*
X89754846Y-38588190D01*
X89707226Y-38659619D01*
X89659607Y-38707238D01*
X89611988Y-38731047D01*
X95134952Y-39088190D02*
X95134952Y-38588190D01*
X95254000Y-38588190D01*
X95325428Y-38612000D01*
X95373047Y-38659619D01*
X95396857Y-38707238D01*
X95420666Y-38802476D01*
X95420666Y-38873904D01*
X95396857Y-38969142D01*
X95373047Y-39016761D01*
X95325428Y-39064380D01*
X95254000Y-39088190D01*
X95134952Y-39088190D01*
X95611142Y-38635809D02*
X95634952Y-38612000D01*
X95682571Y-38588190D01*
X95801619Y-38588190D01*
X95849238Y-38612000D01*
X95873047Y-38635809D01*
X95896857Y-38683428D01*
X95896857Y-38731047D01*
X95873047Y-38802476D01*
X95587333Y-39088190D01*
X95896857Y-39088190D01*
X108596952Y-38834190D02*
X108596952Y-38334190D01*
X108716000Y-38334190D01*
X108787428Y-38358000D01*
X108835047Y-38405619D01*
X108858857Y-38453238D01*
X108882666Y-38548476D01*
X108882666Y-38619904D01*
X108858857Y-38715142D01*
X108835047Y-38762761D01*
X108787428Y-38810380D01*
X108716000Y-38834190D01*
X108596952Y-38834190D01*
X109049333Y-38334190D02*
X109358857Y-38334190D01*
X109192190Y-38524666D01*
X109263619Y-38524666D01*
X109311238Y-38548476D01*
X109335047Y-38572285D01*
X109358857Y-38619904D01*
X109358857Y-38738952D01*
X109335047Y-38786571D01*
X109311238Y-38810380D01*
X109263619Y-38834190D01*
X109120761Y-38834190D01*
X109073142Y-38810380D01*
X109049333Y-38786571D01*
X102246952Y-39088190D02*
X102246952Y-38588190D01*
X102366000Y-38588190D01*
X102437428Y-38612000D01*
X102485047Y-38659619D01*
X102508857Y-38707238D01*
X102532666Y-38802476D01*
X102532666Y-38873904D01*
X102508857Y-38969142D01*
X102485047Y-39016761D01*
X102437428Y-39064380D01*
X102366000Y-39088190D01*
X102246952Y-39088190D01*
X102961238Y-38754857D02*
X102961238Y-39088190D01*
X102842190Y-38564380D02*
X102723142Y-38921523D01*
X103032666Y-38921523D01*
X102246952Y-47978190D02*
X102246952Y-47478190D01*
X102366000Y-47478190D01*
X102437428Y-47502000D01*
X102485047Y-47549619D01*
X102508857Y-47597238D01*
X102532666Y-47692476D01*
X102532666Y-47763904D01*
X102508857Y-47859142D01*
X102485047Y-47906761D01*
X102437428Y-47954380D01*
X102366000Y-47978190D01*
X102246952Y-47978190D01*
X102985047Y-47478190D02*
X102746952Y-47478190D01*
X102723142Y-47716285D01*
X102746952Y-47692476D01*
X102794571Y-47668666D01*
X102913619Y-47668666D01*
X102961238Y-47692476D01*
X102985047Y-47716285D01*
X103008857Y-47763904D01*
X103008857Y-47882952D01*
X102985047Y-47930571D01*
X102961238Y-47954380D01*
X102913619Y-47978190D01*
X102794571Y-47978190D01*
X102746952Y-47954380D01*
X102723142Y-47930571D01*
X108850952Y-47978190D02*
X108850952Y-47478190D01*
X108970000Y-47478190D01*
X109041428Y-47502000D01*
X109089047Y-47549619D01*
X109112857Y-47597238D01*
X109136666Y-47692476D01*
X109136666Y-47763904D01*
X109112857Y-47859142D01*
X109089047Y-47906761D01*
X109041428Y-47954380D01*
X108970000Y-47978190D01*
X108850952Y-47978190D01*
X109565238Y-47478190D02*
X109470000Y-47478190D01*
X109422380Y-47502000D01*
X109398571Y-47525809D01*
X109350952Y-47597238D01*
X109327142Y-47692476D01*
X109327142Y-47882952D01*
X109350952Y-47930571D01*
X109374761Y-47954380D01*
X109422380Y-47978190D01*
X109517619Y-47978190D01*
X109565238Y-47954380D01*
X109589047Y-47930571D01*
X109612857Y-47882952D01*
X109612857Y-47763904D01*
X109589047Y-47716285D01*
X109565238Y-47692476D01*
X109517619Y-47668666D01*
X109422380Y-47668666D01*
X109374761Y-47692476D01*
X109350952Y-47716285D01*
X109327142Y-47763904D01*
X95642952Y-48232190D02*
X95642952Y-47732190D01*
X95762000Y-47732190D01*
X95833428Y-47756000D01*
X95881047Y-47803619D01*
X95904857Y-47851238D01*
X95928666Y-47946476D01*
X95928666Y-48017904D01*
X95904857Y-48113142D01*
X95881047Y-48160761D01*
X95833428Y-48208380D01*
X95762000Y-48232190D01*
X95642952Y-48232190D01*
X96095333Y-47732190D02*
X96428666Y-47732190D01*
X96214380Y-48232190D01*
X89546952Y-47978190D02*
X89546952Y-47478190D01*
X89666000Y-47478190D01*
X89737428Y-47502000D01*
X89785047Y-47549619D01*
X89808857Y-47597238D01*
X89832666Y-47692476D01*
X89832666Y-47763904D01*
X89808857Y-47859142D01*
X89785047Y-47906761D01*
X89737428Y-47954380D01*
X89666000Y-47978190D01*
X89546952Y-47978190D01*
X90118380Y-47692476D02*
X90070761Y-47668666D01*
X90046952Y-47644857D01*
X90023142Y-47597238D01*
X90023142Y-47573428D01*
X90046952Y-47525809D01*
X90070761Y-47502000D01*
X90118380Y-47478190D01*
X90213619Y-47478190D01*
X90261238Y-47502000D01*
X90285047Y-47525809D01*
X90308857Y-47573428D01*
X90308857Y-47597238D01*
X90285047Y-47644857D01*
X90261238Y-47668666D01*
X90213619Y-47692476D01*
X90118380Y-47692476D01*
X90070761Y-47716285D01*
X90046952Y-47740095D01*
X90023142Y-47787714D01*
X90023142Y-47882952D01*
X90046952Y-47930571D01*
X90070761Y-47954380D01*
X90118380Y-47978190D01*
X90213619Y-47978190D01*
X90261238Y-47954380D01*
X90285047Y-47930571D01*
X90308857Y-47882952D01*
X90308857Y-47787714D01*
X90285047Y-47740095D01*
X90261238Y-47716285D01*
X90213619Y-47692476D01*
X108850952Y-57122190D02*
X108850952Y-56622190D01*
X108970000Y-56622190D01*
X109041428Y-56646000D01*
X109089047Y-56693619D01*
X109112857Y-56741238D01*
X109136666Y-56836476D01*
X109136666Y-56907904D01*
X109112857Y-57003142D01*
X109089047Y-57050761D01*
X109041428Y-57098380D01*
X108970000Y-57122190D01*
X108850952Y-57122190D01*
X109374761Y-57122190D02*
X109470000Y-57122190D01*
X109517619Y-57098380D01*
X109541428Y-57074571D01*
X109589047Y-57003142D01*
X109612857Y-56907904D01*
X109612857Y-56717428D01*
X109589047Y-56669809D01*
X109565238Y-56646000D01*
X109517619Y-56622190D01*
X109422380Y-56622190D01*
X109374761Y-56646000D01*
X109350952Y-56669809D01*
X109327142Y-56717428D01*
X109327142Y-56836476D01*
X109350952Y-56884095D01*
X109374761Y-56907904D01*
X109422380Y-56931714D01*
X109517619Y-56931714D01*
X109565238Y-56907904D01*
X109589047Y-56884095D01*
X109612857Y-56836476D01*
D14*
X108734285Y-66474952D02*
X108734285Y-66074952D01*
X108829523Y-66074952D01*
X108886666Y-66094000D01*
X108924761Y-66132095D01*
X108943809Y-66170190D01*
X108962857Y-66246380D01*
X108962857Y-66303523D01*
X108943809Y-66379714D01*
X108924761Y-66417809D01*
X108886666Y-66455904D01*
X108829523Y-66474952D01*
X108734285Y-66474952D01*
X109343809Y-66474952D02*
X109115238Y-66474952D01*
X109229523Y-66474952D02*
X109229523Y-66074952D01*
X109191428Y-66132095D01*
X109153333Y-66170190D01*
X109115238Y-66189238D01*
X109591428Y-66074952D02*
X109629523Y-66074952D01*
X109667619Y-66094000D01*
X109686666Y-66113047D01*
X109705714Y-66151142D01*
X109724761Y-66227333D01*
X109724761Y-66322571D01*
X109705714Y-66398761D01*
X109686666Y-66436857D01*
X109667619Y-66455904D01*
X109629523Y-66474952D01*
X109591428Y-66474952D01*
X109553333Y-66455904D01*
X109534285Y-66436857D01*
X109515238Y-66398761D01*
X109496190Y-66322571D01*
X109496190Y-66227333D01*
X109515238Y-66151142D01*
X109534285Y-66113047D01*
X109553333Y-66094000D01*
X109591428Y-66074952D01*
X95526285Y-57330952D02*
X95526285Y-56930952D01*
X95621523Y-56930952D01*
X95678666Y-56950000D01*
X95716761Y-56988095D01*
X95735809Y-57026190D01*
X95754857Y-57102380D01*
X95754857Y-57159523D01*
X95735809Y-57235714D01*
X95716761Y-57273809D01*
X95678666Y-57311904D01*
X95621523Y-57330952D01*
X95526285Y-57330952D01*
X96135809Y-57330952D02*
X95907238Y-57330952D01*
X96021523Y-57330952D02*
X96021523Y-56930952D01*
X95983428Y-56988095D01*
X95945333Y-57026190D01*
X95907238Y-57045238D01*
X96516761Y-57330952D02*
X96288190Y-57330952D01*
X96402476Y-57330952D02*
X96402476Y-56930952D01*
X96364380Y-56988095D01*
X96326285Y-57026190D01*
X96288190Y-57045238D01*
X89176285Y-57330952D02*
X89176285Y-56930952D01*
X89271523Y-56930952D01*
X89328666Y-56950000D01*
X89366761Y-56988095D01*
X89385809Y-57026190D01*
X89404857Y-57102380D01*
X89404857Y-57159523D01*
X89385809Y-57235714D01*
X89366761Y-57273809D01*
X89328666Y-57311904D01*
X89271523Y-57330952D01*
X89176285Y-57330952D01*
X89785809Y-57330952D02*
X89557238Y-57330952D01*
X89671523Y-57330952D02*
X89671523Y-56930952D01*
X89633428Y-56988095D01*
X89595333Y-57026190D01*
X89557238Y-57045238D01*
X89938190Y-56969047D02*
X89957238Y-56950000D01*
X89995333Y-56930952D01*
X90090571Y-56930952D01*
X90128666Y-56950000D01*
X90147714Y-56969047D01*
X90166761Y-57007142D01*
X90166761Y-57045238D01*
X90147714Y-57102380D01*
X89919142Y-57330952D01*
X90166761Y-57330952D01*
X102130285Y-66728952D02*
X102130285Y-66328952D01*
X102225523Y-66328952D01*
X102282666Y-66348000D01*
X102320761Y-66386095D01*
X102339809Y-66424190D01*
X102358857Y-66500380D01*
X102358857Y-66557523D01*
X102339809Y-66633714D01*
X102320761Y-66671809D01*
X102282666Y-66709904D01*
X102225523Y-66728952D01*
X102130285Y-66728952D01*
X102739809Y-66728952D02*
X102511238Y-66728952D01*
X102625523Y-66728952D02*
X102625523Y-66328952D01*
X102587428Y-66386095D01*
X102549333Y-66424190D01*
X102511238Y-66443238D01*
X102873142Y-66328952D02*
X103120761Y-66328952D01*
X102987428Y-66481333D01*
X103044571Y-66481333D01*
X103082666Y-66500380D01*
X103101714Y-66519428D01*
X103120761Y-66557523D01*
X103120761Y-66652761D01*
X103101714Y-66690857D01*
X103082666Y-66709904D01*
X103044571Y-66728952D01*
X102930285Y-66728952D01*
X102892190Y-66709904D01*
X102873142Y-66690857D01*
X101876285Y-57076952D02*
X101876285Y-56676952D01*
X101971523Y-56676952D01*
X102028666Y-56696000D01*
X102066761Y-56734095D01*
X102085809Y-56772190D01*
X102104857Y-56848380D01*
X102104857Y-56905523D01*
X102085809Y-56981714D01*
X102066761Y-57019809D01*
X102028666Y-57057904D01*
X101971523Y-57076952D01*
X101876285Y-57076952D01*
X102485809Y-57076952D02*
X102257238Y-57076952D01*
X102371523Y-57076952D02*
X102371523Y-56676952D01*
X102333428Y-56734095D01*
X102295333Y-56772190D01*
X102257238Y-56791238D01*
X102828666Y-56810285D02*
X102828666Y-57076952D01*
X102733428Y-56657904D02*
X102638190Y-56943619D01*
X102885809Y-56943619D01*
X95526285Y-66728952D02*
X95526285Y-66328952D01*
X95621523Y-66328952D01*
X95678666Y-66348000D01*
X95716761Y-66386095D01*
X95735809Y-66424190D01*
X95754857Y-66500380D01*
X95754857Y-66557523D01*
X95735809Y-66633714D01*
X95716761Y-66671809D01*
X95678666Y-66709904D01*
X95621523Y-66728952D01*
X95526285Y-66728952D01*
X96135809Y-66728952D02*
X95907238Y-66728952D01*
X96021523Y-66728952D02*
X96021523Y-66328952D01*
X95983428Y-66386095D01*
X95945333Y-66424190D01*
X95907238Y-66443238D01*
X96497714Y-66328952D02*
X96307238Y-66328952D01*
X96288190Y-66519428D01*
X96307238Y-66500380D01*
X96345333Y-66481333D01*
X96440571Y-66481333D01*
X96478666Y-66500380D01*
X96497714Y-66519428D01*
X96516761Y-66557523D01*
X96516761Y-66652761D01*
X96497714Y-66690857D01*
X96478666Y-66709904D01*
X96440571Y-66728952D01*
X96345333Y-66728952D01*
X96307238Y-66709904D01*
X96288190Y-66690857D01*
X89176285Y-66474952D02*
X89176285Y-66074952D01*
X89271523Y-66074952D01*
X89328666Y-66094000D01*
X89366761Y-66132095D01*
X89385809Y-66170190D01*
X89404857Y-66246380D01*
X89404857Y-66303523D01*
X89385809Y-66379714D01*
X89366761Y-66417809D01*
X89328666Y-66455904D01*
X89271523Y-66474952D01*
X89176285Y-66474952D01*
X89785809Y-66474952D02*
X89557238Y-66474952D01*
X89671523Y-66474952D02*
X89671523Y-66074952D01*
X89633428Y-66132095D01*
X89595333Y-66170190D01*
X89557238Y-66189238D01*
X90128666Y-66074952D02*
X90052476Y-66074952D01*
X90014380Y-66094000D01*
X89995333Y-66113047D01*
X89957238Y-66170190D01*
X89938190Y-66246380D01*
X89938190Y-66398761D01*
X89957238Y-66436857D01*
X89976285Y-66455904D01*
X90014380Y-66474952D01*
X90090571Y-66474952D01*
X90128666Y-66455904D01*
X90147714Y-66436857D01*
X90166761Y-66398761D01*
X90166761Y-66303523D01*
X90147714Y-66265428D01*
X90128666Y-66246380D01*
X90090571Y-66227333D01*
X90014380Y-66227333D01*
X89976285Y-66246380D01*
X89957238Y-66265428D01*
X89938190Y-66303523D01*
D10*
X167270631Y-46620554D02*
X167270631Y-45870554D01*
X167449203Y-45870554D01*
X167556346Y-45906269D01*
X167627774Y-45977697D01*
X167663488Y-46049126D01*
X167699203Y-46191983D01*
X167699203Y-46299126D01*
X167663488Y-46441983D01*
X167627774Y-46513411D01*
X167556346Y-46584840D01*
X167449203Y-46620554D01*
X167270631Y-46620554D01*
X168413488Y-46620554D02*
X167984917Y-46620554D01*
X168199203Y-46620554D02*
X168199203Y-45870554D01*
X168127774Y-45977697D01*
X168056346Y-46049126D01*
X167984917Y-46084840D01*
X168663488Y-45870554D02*
X169163488Y-45870554D01*
X168842060Y-46620554D01*
D20*
X164371346Y-46393649D02*
X164371346Y-46631745D01*
X164133250Y-46536507D02*
X164371346Y-46631745D01*
X164609441Y-46536507D01*
X164228488Y-46822221D02*
X164371346Y-46631745D01*
X164514203Y-46822221D01*
X168340012Y-41801149D02*
X168340012Y-42515435D01*
X168292393Y-42658292D01*
X168197155Y-42753530D01*
X168054298Y-42801149D01*
X167959060Y-42801149D01*
X169340012Y-42801149D02*
X168768584Y-42801149D01*
X169054298Y-42801149D02*
X169054298Y-41801149D01*
X168959060Y-41944007D01*
X168863822Y-42039245D01*
X168768584Y-42086864D01*
D19*
X188421736Y-46745695D02*
X188421736Y-47460574D01*
X188374077Y-47603549D01*
X188278760Y-47698866D01*
X188135784Y-47746525D01*
X188040467Y-47746525D01*
X188850663Y-46841012D02*
X188898321Y-46793354D01*
X188993638Y-46745695D01*
X189231931Y-46745695D01*
X189327248Y-46793354D01*
X189374907Y-46841012D01*
X189422566Y-46936329D01*
X189422566Y-47031646D01*
X189374907Y-47174622D01*
X188803004Y-47746525D01*
X189422566Y-47746525D01*
D21*
X188734179Y-102128523D02*
X188129417Y-102128523D01*
X188129417Y-100858523D01*
X189822750Y-102128523D02*
X189097036Y-102128523D01*
X189459893Y-102128523D02*
X189459893Y-100858523D01*
X189338941Y-101039952D01*
X189217988Y-101160904D01*
X189097036Y-101221380D01*
X163300833Y-102174523D02*
X162696071Y-102174523D01*
X162696071Y-100904523D01*
X163663690Y-101025476D02*
X163724166Y-100965000D01*
X163845119Y-100904523D01*
X164147500Y-100904523D01*
X164268452Y-100965000D01*
X164328928Y-101025476D01*
X164389404Y-101146428D01*
X164389404Y-101267380D01*
X164328928Y-101448809D01*
X163603214Y-102174523D01*
X164389404Y-102174523D01*
X116310833Y-102128523D02*
X115706071Y-102128523D01*
X115706071Y-100858523D01*
X116613214Y-100858523D02*
X117399404Y-100858523D01*
X116976071Y-101342333D01*
X117157500Y-101342333D01*
X117278452Y-101402809D01*
X117338928Y-101463285D01*
X117399404Y-101584238D01*
X117399404Y-101886619D01*
X117338928Y-102007571D01*
X117278452Y-102068047D01*
X117157500Y-102128523D01*
X116794642Y-102128523D01*
X116673690Y-102068047D01*
X116613214Y-102007571D01*
X89483679Y-102001523D02*
X88878917Y-102001523D01*
X88878917Y-100731523D01*
X90451298Y-101154857D02*
X90451298Y-102001523D01*
X90148917Y-100671047D02*
X89846536Y-101578190D01*
X90632726Y-101578190D01*
D20*
X180746417Y-90737483D02*
X180674988Y-90701769D01*
X180603560Y-90630340D01*
X180496417Y-90523197D01*
X180424988Y-90487483D01*
X180353560Y-90487483D01*
X180389274Y-90666054D02*
X180317846Y-90630340D01*
X180246417Y-90558911D01*
X180210703Y-90416054D01*
X180210703Y-90166054D01*
X180246417Y-90023197D01*
X180317846Y-89951769D01*
X180389274Y-89916054D01*
X180532131Y-89916054D01*
X180603560Y-89951769D01*
X180674988Y-90023197D01*
X180710703Y-90166054D01*
X180710703Y-90416054D01*
X180674988Y-90558911D01*
X180603560Y-90630340D01*
X180532131Y-90666054D01*
X180389274Y-90666054D01*
X181424988Y-90666054D02*
X180996417Y-90666054D01*
X181210703Y-90666054D02*
X181210703Y-89916054D01*
X181139274Y-90023197D01*
X181067846Y-90094626D01*
X180996417Y-90130340D01*
X185758146Y-89560949D02*
X185758146Y-89799045D01*
X185520050Y-89703807D02*
X185758146Y-89799045D01*
X185996241Y-89703807D01*
X185615288Y-89989521D02*
X185758146Y-89799045D01*
X185901003Y-89989521D01*
X156489417Y-76434983D02*
X156417988Y-76399269D01*
X156346560Y-76327840D01*
X156239417Y-76220697D01*
X156167988Y-76184983D01*
X156096560Y-76184983D01*
X156132274Y-76363554D02*
X156060846Y-76327840D01*
X155989417Y-76256411D01*
X155953703Y-76113554D01*
X155953703Y-75863554D01*
X155989417Y-75720697D01*
X156060846Y-75649269D01*
X156132274Y-75613554D01*
X156275131Y-75613554D01*
X156346560Y-75649269D01*
X156417988Y-75720697D01*
X156453703Y-75863554D01*
X156453703Y-76113554D01*
X156417988Y-76256411D01*
X156346560Y-76327840D01*
X156275131Y-76363554D01*
X156132274Y-76363554D01*
X156739417Y-75684983D02*
X156775131Y-75649269D01*
X156846560Y-75613554D01*
X157025131Y-75613554D01*
X157096560Y-75649269D01*
X157132274Y-75684983D01*
X157167988Y-75756411D01*
X157167988Y-75827840D01*
X157132274Y-75934983D01*
X156703703Y-76363554D01*
X157167988Y-76363554D01*
X151620546Y-76314849D02*
X151620546Y-76552945D01*
X151382450Y-76457707D02*
X151620546Y-76552945D01*
X151858641Y-76457707D01*
X151477688Y-76743421D02*
X151620546Y-76552945D01*
X151763403Y-76743421D01*
X118292571Y-90722714D02*
X118221142Y-90687000D01*
X118149714Y-90615571D01*
X118042571Y-90508428D01*
X117971142Y-90472714D01*
X117899714Y-90472714D01*
X117935428Y-90651285D02*
X117864000Y-90615571D01*
X117792571Y-90544142D01*
X117756857Y-90401285D01*
X117756857Y-90151285D01*
X117792571Y-90008428D01*
X117864000Y-89937000D01*
X117935428Y-89901285D01*
X118078285Y-89901285D01*
X118149714Y-89937000D01*
X118221142Y-90008428D01*
X118256857Y-90151285D01*
X118256857Y-90401285D01*
X118221142Y-90544142D01*
X118149714Y-90615571D01*
X118078285Y-90651285D01*
X117935428Y-90651285D01*
X118506857Y-89901285D02*
X118971142Y-89901285D01*
X118721142Y-90187000D01*
X118828285Y-90187000D01*
X118899714Y-90222714D01*
X118935428Y-90258428D01*
X118971142Y-90329857D01*
X118971142Y-90508428D01*
X118935428Y-90579857D01*
X118899714Y-90615571D01*
X118828285Y-90651285D01*
X118614000Y-90651285D01*
X118542571Y-90615571D01*
X118506857Y-90579857D01*
X123304300Y-89546180D02*
X123304300Y-89784276D01*
X123066204Y-89689038D02*
X123304300Y-89784276D01*
X123542395Y-89689038D01*
X123161442Y-89974752D02*
X123304300Y-89784276D01*
X123447157Y-89974752D01*
X98132917Y-77181983D02*
X98061488Y-77146269D01*
X97990060Y-77074840D01*
X97882917Y-76967697D01*
X97811488Y-76931983D01*
X97740060Y-76931983D01*
X97775774Y-77110554D02*
X97704346Y-77074840D01*
X97632917Y-77003411D01*
X97597203Y-76860554D01*
X97597203Y-76610554D01*
X97632917Y-76467697D01*
X97704346Y-76396269D01*
X97775774Y-76360554D01*
X97918631Y-76360554D01*
X97990060Y-76396269D01*
X98061488Y-76467697D01*
X98097203Y-76610554D01*
X98097203Y-76860554D01*
X98061488Y-77003411D01*
X97990060Y-77074840D01*
X97918631Y-77110554D01*
X97775774Y-77110554D01*
X98740060Y-76610554D02*
X98740060Y-77110554D01*
X98561488Y-76324840D02*
X98382917Y-76860554D01*
X98847203Y-76860554D01*
X93264046Y-76441849D02*
X93264046Y-76679945D01*
X93025950Y-76584707D02*
X93264046Y-76679945D01*
X93502141Y-76584707D01*
X93121188Y-76870421D02*
X93264046Y-76679945D01*
X93406903Y-76870421D01*
D21*
X185607476Y-57539721D02*
X185547000Y-57660673D01*
X185426047Y-57781626D01*
X185244619Y-57963054D01*
X185184142Y-58084007D01*
X185184142Y-58204959D01*
X185486523Y-58144483D02*
X185426047Y-58265435D01*
X185305095Y-58386388D01*
X185063190Y-58446864D01*
X184639857Y-58446864D01*
X184397952Y-58386388D01*
X184277000Y-58265435D01*
X184216523Y-58144483D01*
X184216523Y-57902578D01*
X184277000Y-57781626D01*
X184397952Y-57660673D01*
X184639857Y-57600197D01*
X185063190Y-57600197D01*
X185305095Y-57660673D01*
X185426047Y-57781626D01*
X185486523Y-57902578D01*
X185486523Y-58144483D01*
X184216523Y-56451149D02*
X184216523Y-57055911D01*
X184821285Y-57116388D01*
X184760809Y-57055911D01*
X184700333Y-56934959D01*
X184700333Y-56632578D01*
X184760809Y-56511626D01*
X184821285Y-56451149D01*
X184942238Y-56390673D01*
X185244619Y-56390673D01*
X185365571Y-56451149D01*
X185426047Y-56511626D01*
X185486523Y-56632578D01*
X185486523Y-56934959D01*
X185426047Y-57055911D01*
X185365571Y-57116388D01*
D19*
X131759333Y-78920952D02*
X131626000Y-78730476D01*
X131530761Y-78920952D02*
X131530761Y-78520952D01*
X131683142Y-78520952D01*
X131721238Y-78540000D01*
X131740285Y-78559047D01*
X131759333Y-78597142D01*
X131759333Y-78654285D01*
X131740285Y-78692380D01*
X131721238Y-78711428D01*
X131683142Y-78730476D01*
X131530761Y-78730476D01*
X132140285Y-78920952D02*
X131911714Y-78920952D01*
X132026000Y-78920952D02*
X132026000Y-78520952D01*
X131987904Y-78578095D01*
X131949809Y-78616190D01*
X131911714Y-78635238D01*
X131759333Y-75110952D02*
X131626000Y-74920476D01*
X131530761Y-75110952D02*
X131530761Y-74710952D01*
X131683142Y-74710952D01*
X131721238Y-74730000D01*
X131740285Y-74749047D01*
X131759333Y-74787142D01*
X131759333Y-74844285D01*
X131740285Y-74882380D01*
X131721238Y-74901428D01*
X131683142Y-74920476D01*
X131530761Y-74920476D01*
X131911714Y-74749047D02*
X131930761Y-74730000D01*
X131968857Y-74710952D01*
X132064095Y-74710952D01*
X132102190Y-74730000D01*
X132121238Y-74749047D01*
X132140285Y-74787142D01*
X132140285Y-74825238D01*
X132121238Y-74882380D01*
X131892666Y-75110952D01*
X132140285Y-75110952D01*
X146491333Y-75110952D02*
X146358000Y-74920476D01*
X146262761Y-75110952D02*
X146262761Y-74710952D01*
X146415142Y-74710952D01*
X146453238Y-74730000D01*
X146472285Y-74749047D01*
X146491333Y-74787142D01*
X146491333Y-74844285D01*
X146472285Y-74882380D01*
X146453238Y-74901428D01*
X146415142Y-74920476D01*
X146262761Y-74920476D01*
X146624666Y-74710952D02*
X146872285Y-74710952D01*
X146738952Y-74863333D01*
X146796095Y-74863333D01*
X146834190Y-74882380D01*
X146853238Y-74901428D01*
X146872285Y-74939523D01*
X146872285Y-75034761D01*
X146853238Y-75072857D01*
X146834190Y-75091904D01*
X146796095Y-75110952D01*
X146681809Y-75110952D01*
X146643714Y-75091904D01*
X146624666Y-75072857D01*
X131759333Y-71300952D02*
X131626000Y-71110476D01*
X131530761Y-71300952D02*
X131530761Y-70900952D01*
X131683142Y-70900952D01*
X131721238Y-70920000D01*
X131740285Y-70939047D01*
X131759333Y-70977142D01*
X131759333Y-71034285D01*
X131740285Y-71072380D01*
X131721238Y-71091428D01*
X131683142Y-71110476D01*
X131530761Y-71110476D01*
X132102190Y-71034285D02*
X132102190Y-71300952D01*
X132006952Y-70881904D02*
X131911714Y-71167619D01*
X132159333Y-71167619D01*
X146491333Y-71300952D02*
X146358000Y-71110476D01*
X146262761Y-71300952D02*
X146262761Y-70900952D01*
X146415142Y-70900952D01*
X146453238Y-70920000D01*
X146472285Y-70939047D01*
X146491333Y-70977142D01*
X146491333Y-71034285D01*
X146472285Y-71072380D01*
X146453238Y-71091428D01*
X146415142Y-71110476D01*
X146262761Y-71110476D01*
X146853238Y-70900952D02*
X146662761Y-70900952D01*
X146643714Y-71091428D01*
X146662761Y-71072380D01*
X146700857Y-71053333D01*
X146796095Y-71053333D01*
X146834190Y-71072380D01*
X146853238Y-71091428D01*
X146872285Y-71129523D01*
X146872285Y-71224761D01*
X146853238Y-71262857D01*
X146834190Y-71281904D01*
X146796095Y-71300952D01*
X146700857Y-71300952D01*
X146662761Y-71281904D01*
X146643714Y-71262857D01*
X146491333Y-79174952D02*
X146358000Y-78984476D01*
X146262761Y-79174952D02*
X146262761Y-78774952D01*
X146415142Y-78774952D01*
X146453238Y-78794000D01*
X146472285Y-78813047D01*
X146491333Y-78851142D01*
X146491333Y-78908285D01*
X146472285Y-78946380D01*
X146453238Y-78965428D01*
X146415142Y-78984476D01*
X146262761Y-78984476D01*
X146834190Y-78774952D02*
X146758000Y-78774952D01*
X146719904Y-78794000D01*
X146700857Y-78813047D01*
X146662761Y-78870190D01*
X146643714Y-78946380D01*
X146643714Y-79098761D01*
X146662761Y-79136857D01*
X146681809Y-79155904D01*
X146719904Y-79174952D01*
X146796095Y-79174952D01*
X146834190Y-79155904D01*
X146853238Y-79136857D01*
X146872285Y-79098761D01*
X146872285Y-79003523D01*
X146853238Y-78965428D01*
X146834190Y-78946380D01*
X146796095Y-78927333D01*
X146719904Y-78927333D01*
X146681809Y-78946380D01*
X146662761Y-78965428D01*
X146643714Y-79003523D01*
X139379333Y-75110952D02*
X139246000Y-74920476D01*
X139150761Y-75110952D02*
X139150761Y-74710952D01*
X139303142Y-74710952D01*
X139341238Y-74730000D01*
X139360285Y-74749047D01*
X139379333Y-74787142D01*
X139379333Y-74844285D01*
X139360285Y-74882380D01*
X139341238Y-74901428D01*
X139303142Y-74920476D01*
X139150761Y-74920476D01*
X139512666Y-74710952D02*
X139779333Y-74710952D01*
X139607904Y-75110952D01*
X139349179Y-79174952D02*
X139215846Y-78984476D01*
X139120607Y-79174952D02*
X139120607Y-78774952D01*
X139272988Y-78774952D01*
X139311084Y-78794000D01*
X139330131Y-78813047D01*
X139349179Y-78851142D01*
X139349179Y-78908285D01*
X139330131Y-78946380D01*
X139311084Y-78965428D01*
X139272988Y-78984476D01*
X139120607Y-78984476D01*
X139577750Y-78946380D02*
X139539655Y-78927333D01*
X139520607Y-78908285D01*
X139501560Y-78870190D01*
X139501560Y-78851142D01*
X139520607Y-78813047D01*
X139539655Y-78794000D01*
X139577750Y-78774952D01*
X139653941Y-78774952D01*
X139692036Y-78794000D01*
X139711084Y-78813047D01*
X139730131Y-78851142D01*
X139730131Y-78870190D01*
X139711084Y-78908285D01*
X139692036Y-78927333D01*
X139653941Y-78946380D01*
X139577750Y-78946380D01*
X139539655Y-78965428D01*
X139520607Y-78984476D01*
X139501560Y-79022571D01*
X139501560Y-79098761D01*
X139520607Y-79136857D01*
X139539655Y-79155904D01*
X139577750Y-79174952D01*
X139653941Y-79174952D01*
X139692036Y-79155904D01*
X139711084Y-79136857D01*
X139730131Y-79098761D01*
X139730131Y-79022571D01*
X139711084Y-78984476D01*
X139692036Y-78965428D01*
X139653941Y-78946380D01*
X139125333Y-71300952D02*
X138992000Y-71110476D01*
X138896761Y-71300952D02*
X138896761Y-70900952D01*
X139049142Y-70900952D01*
X139087238Y-70920000D01*
X139106285Y-70939047D01*
X139125333Y-70977142D01*
X139125333Y-71034285D01*
X139106285Y-71072380D01*
X139087238Y-71091428D01*
X139049142Y-71110476D01*
X138896761Y-71110476D01*
X139315809Y-71300952D02*
X139392000Y-71300952D01*
X139430095Y-71281904D01*
X139449142Y-71262857D01*
X139487238Y-71205714D01*
X139506285Y-71129523D01*
X139506285Y-70977142D01*
X139487238Y-70939047D01*
X139468190Y-70920000D01*
X139430095Y-70900952D01*
X139353904Y-70900952D01*
X139315809Y-70920000D01*
X139296761Y-70939047D01*
X139277714Y-70977142D01*
X139277714Y-71072380D01*
X139296761Y-71110476D01*
X139315809Y-71129523D01*
X139353904Y-71148571D01*
X139430095Y-71148571D01*
X139468190Y-71129523D01*
X139487238Y-71110476D01*
X139506285Y-71072380D01*
D10*
X178758190Y-94809428D02*
X178520095Y-94976095D01*
X178758190Y-95095142D02*
X178258190Y-95095142D01*
X178258190Y-94904666D01*
X178282000Y-94857047D01*
X178305809Y-94833238D01*
X178353428Y-94809428D01*
X178424857Y-94809428D01*
X178472476Y-94833238D01*
X178496285Y-94857047D01*
X178520095Y-94904666D01*
X178520095Y-95095142D01*
X178758190Y-94333238D02*
X178758190Y-94618952D01*
X178758190Y-94476095D02*
X178258190Y-94476095D01*
X178329619Y-94523714D01*
X178377238Y-94571333D01*
X178401047Y-94618952D01*
X178258190Y-94023714D02*
X178258190Y-93976095D01*
X178282000Y-93928476D01*
X178305809Y-93904666D01*
X178353428Y-93880857D01*
X178448666Y-93857047D01*
X178567714Y-93857047D01*
X178662952Y-93880857D01*
X178710571Y-93904666D01*
X178734380Y-93928476D01*
X178758190Y-93976095D01*
X178758190Y-94023714D01*
X178734380Y-94071333D01*
X178710571Y-94095142D01*
X178662952Y-94118952D01*
X178567714Y-94142761D01*
X178448666Y-94142761D01*
X178353428Y-94118952D01*
X178305809Y-94095142D01*
X178282000Y-94071333D01*
X178258190Y-94023714D01*
X174246190Y-83125428D02*
X174008095Y-83292095D01*
X174246190Y-83411142D02*
X173746190Y-83411142D01*
X173746190Y-83220666D01*
X173770000Y-83173047D01*
X173793809Y-83149238D01*
X173841428Y-83125428D01*
X173912857Y-83125428D01*
X173960476Y-83149238D01*
X173984285Y-83173047D01*
X174008095Y-83220666D01*
X174008095Y-83411142D01*
X174246190Y-82649238D02*
X174246190Y-82934952D01*
X174246190Y-82792095D02*
X173746190Y-82792095D01*
X173817619Y-82839714D01*
X173865238Y-82887333D01*
X173889047Y-82934952D01*
X174246190Y-82173047D02*
X174246190Y-82458761D01*
X174246190Y-82315904D02*
X173746190Y-82315904D01*
X173817619Y-82363523D01*
X173865238Y-82411142D01*
X173889047Y-82458761D01*
D14*
X171634285Y-83108761D02*
X171900952Y-83108761D01*
X171481904Y-83204000D02*
X171767619Y-83299238D01*
X171767619Y-83051619D01*
X171500952Y-82823047D02*
X171500952Y-82784952D01*
X171520000Y-82746857D01*
X171539047Y-82727809D01*
X171577142Y-82708761D01*
X171653333Y-82689714D01*
X171748571Y-82689714D01*
X171824761Y-82708761D01*
X171862857Y-82727809D01*
X171881904Y-82746857D01*
X171900952Y-82784952D01*
X171900952Y-82823047D01*
X171881904Y-82861142D01*
X171862857Y-82880190D01*
X171824761Y-82899238D01*
X171748571Y-82918285D01*
X171653333Y-82918285D01*
X171577142Y-82899238D01*
X171539047Y-82880190D01*
X171520000Y-82861142D01*
X171500952Y-82823047D01*
X171500952Y-82442095D02*
X171500952Y-82404000D01*
X171520000Y-82365904D01*
X171539047Y-82346857D01*
X171577142Y-82327809D01*
X171653333Y-82308761D01*
X171748571Y-82308761D01*
X171824761Y-82327809D01*
X171862857Y-82346857D01*
X171881904Y-82365904D01*
X171900952Y-82404000D01*
X171900952Y-82442095D01*
X171881904Y-82480190D01*
X171862857Y-82499238D01*
X171824761Y-82518285D01*
X171748571Y-82537333D01*
X171653333Y-82537333D01*
X171577142Y-82518285D01*
X171539047Y-82499238D01*
X171520000Y-82480190D01*
X171500952Y-82442095D01*
D10*
X155898190Y-94809428D02*
X155660095Y-94976095D01*
X155898190Y-95095142D02*
X155398190Y-95095142D01*
X155398190Y-94904666D01*
X155422000Y-94857047D01*
X155445809Y-94833238D01*
X155493428Y-94809428D01*
X155564857Y-94809428D01*
X155612476Y-94833238D01*
X155636285Y-94857047D01*
X155660095Y-94904666D01*
X155660095Y-95095142D01*
X155898190Y-94333238D02*
X155898190Y-94618952D01*
X155898190Y-94476095D02*
X155398190Y-94476095D01*
X155469619Y-94523714D01*
X155517238Y-94571333D01*
X155541047Y-94618952D01*
X155445809Y-94142761D02*
X155422000Y-94118952D01*
X155398190Y-94071333D01*
X155398190Y-93952285D01*
X155422000Y-93904666D01*
X155445809Y-93880857D01*
X155493428Y-93857047D01*
X155541047Y-93857047D01*
X155612476Y-93880857D01*
X155898190Y-94166571D01*
X155898190Y-93857047D01*
X164026190Y-84649428D02*
X163788095Y-84816095D01*
X164026190Y-84935142D02*
X163526190Y-84935142D01*
X163526190Y-84744666D01*
X163550000Y-84697047D01*
X163573809Y-84673238D01*
X163621428Y-84649428D01*
X163692857Y-84649428D01*
X163740476Y-84673238D01*
X163764285Y-84697047D01*
X163788095Y-84744666D01*
X163788095Y-84935142D01*
X164026190Y-84173238D02*
X164026190Y-84458952D01*
X164026190Y-84316095D02*
X163526190Y-84316095D01*
X163597619Y-84363714D01*
X163645238Y-84411333D01*
X163669047Y-84458952D01*
X163526190Y-84006571D02*
X163526190Y-83697047D01*
X163716666Y-83863714D01*
X163716666Y-83792285D01*
X163740476Y-83744666D01*
X163764285Y-83720857D01*
X163811904Y-83697047D01*
X163930952Y-83697047D01*
X163978571Y-83720857D01*
X164002380Y-83744666D01*
X164026190Y-83792285D01*
X164026190Y-83935142D01*
X164002380Y-83982761D01*
X163978571Y-84006571D01*
X123386190Y-94809428D02*
X123148095Y-94976095D01*
X123386190Y-95095142D02*
X122886190Y-95095142D01*
X122886190Y-94904666D01*
X122910000Y-94857047D01*
X122933809Y-94833238D01*
X122981428Y-94809428D01*
X123052857Y-94809428D01*
X123100476Y-94833238D01*
X123124285Y-94857047D01*
X123148095Y-94904666D01*
X123148095Y-95095142D01*
X123386190Y-94333238D02*
X123386190Y-94618952D01*
X123386190Y-94476095D02*
X122886190Y-94476095D01*
X122957619Y-94523714D01*
X123005238Y-94571333D01*
X123029047Y-94618952D01*
X123052857Y-93904666D02*
X123386190Y-93904666D01*
X122862380Y-94023714D02*
X123219523Y-94142761D01*
X123219523Y-93833238D01*
D14*
X112778190Y-82957428D02*
X112540095Y-83124095D01*
X112778190Y-83243142D02*
X112278190Y-83243142D01*
X112278190Y-83052666D01*
X112302000Y-83005047D01*
X112325809Y-82981238D01*
X112373428Y-82957428D01*
X112444857Y-82957428D01*
X112492476Y-82981238D01*
X112516285Y-83005047D01*
X112540095Y-83052666D01*
X112540095Y-83243142D01*
X112778190Y-82481238D02*
X112778190Y-82766952D01*
X112778190Y-82624095D02*
X112278190Y-82624095D01*
X112349619Y-82671714D01*
X112397238Y-82719333D01*
X112421047Y-82766952D01*
X112278190Y-82028857D02*
X112278190Y-82266952D01*
X112516285Y-82290761D01*
X112492476Y-82266952D01*
X112468666Y-82219333D01*
X112468666Y-82100285D01*
X112492476Y-82052666D01*
X112516285Y-82028857D01*
X112563904Y-82005047D01*
X112682952Y-82005047D01*
X112730571Y-82028857D01*
X112754380Y-82052666D01*
X112778190Y-82100285D01*
X112778190Y-82219333D01*
X112754380Y-82266952D01*
X112730571Y-82290761D01*
D10*
X106114190Y-94809428D02*
X105876095Y-94976095D01*
X106114190Y-95095142D02*
X105614190Y-95095142D01*
X105614190Y-94904666D01*
X105638000Y-94857047D01*
X105661809Y-94833238D01*
X105709428Y-94809428D01*
X105780857Y-94809428D01*
X105828476Y-94833238D01*
X105852285Y-94857047D01*
X105876095Y-94904666D01*
X105876095Y-95095142D01*
X106114190Y-94333238D02*
X106114190Y-94618952D01*
X106114190Y-94476095D02*
X105614190Y-94476095D01*
X105685619Y-94523714D01*
X105733238Y-94571333D01*
X105757047Y-94618952D01*
X105614190Y-93904666D02*
X105614190Y-93999904D01*
X105638000Y-94047523D01*
X105661809Y-94071333D01*
X105733238Y-94118952D01*
X105828476Y-94142761D01*
X106018952Y-94142761D01*
X106066571Y-94118952D01*
X106090380Y-94095142D01*
X106114190Y-94047523D01*
X106114190Y-93952285D01*
X106090380Y-93904666D01*
X106066571Y-93880857D01*
X106018952Y-93857047D01*
X105899904Y-93857047D01*
X105852285Y-93880857D01*
X105828476Y-93904666D01*
X105804666Y-93952285D01*
X105804666Y-94047523D01*
X105828476Y-94095142D01*
X105852285Y-94118952D01*
X105899904Y-94142761D01*
X105098190Y-84649428D02*
X104860095Y-84816095D01*
X105098190Y-84935142D02*
X104598190Y-84935142D01*
X104598190Y-84744666D01*
X104622000Y-84697047D01*
X104645809Y-84673238D01*
X104693428Y-84649428D01*
X104764857Y-84649428D01*
X104812476Y-84673238D01*
X104836285Y-84697047D01*
X104860095Y-84744666D01*
X104860095Y-84935142D01*
X105098190Y-84173238D02*
X105098190Y-84458952D01*
X105098190Y-84316095D02*
X104598190Y-84316095D01*
X104669619Y-84363714D01*
X104717238Y-84411333D01*
X104741047Y-84458952D01*
X104598190Y-84006571D02*
X104598190Y-83673238D01*
X105098190Y-83887523D01*
D19*
X133096095Y-84288380D02*
X133096095Y-85097904D01*
X133143714Y-85193142D01*
X133191333Y-85240761D01*
X133286571Y-85288380D01*
X133477047Y-85288380D01*
X133572285Y-85240761D01*
X133619904Y-85193142D01*
X133667523Y-85097904D01*
X133667523Y-84288380D01*
X134667523Y-85288380D02*
X134096095Y-85288380D01*
X134381809Y-85288380D02*
X134381809Y-84288380D01*
X134286571Y-84431238D01*
X134191333Y-84526476D01*
X134096095Y-84574095D01*
X138082441Y-100051149D02*
X138082441Y-100860673D01*
X138130060Y-100955911D01*
X138177679Y-101003530D01*
X138272917Y-101051149D01*
X138463393Y-101051149D01*
X138558631Y-101003530D01*
X138606250Y-100955911D01*
X138653869Y-100860673D01*
X138653869Y-100051149D01*
X139082441Y-100146388D02*
X139130060Y-100098769D01*
X139225298Y-100051149D01*
X139463393Y-100051149D01*
X139558631Y-100098769D01*
X139606250Y-100146388D01*
X139653869Y-100241626D01*
X139653869Y-100336864D01*
X139606250Y-100479721D01*
X139034822Y-101051149D01*
X139653869Y-101051149D01*
X165080190Y-58038952D02*
X165484952Y-58038952D01*
X165532571Y-58015142D01*
X165556380Y-57991333D01*
X165580190Y-57943714D01*
X165580190Y-57848476D01*
X165556380Y-57800857D01*
X165532571Y-57777047D01*
X165484952Y-57753238D01*
X165080190Y-57753238D01*
X165080190Y-57562761D02*
X165080190Y-57253238D01*
X165270666Y-57419904D01*
X165270666Y-57348476D01*
X165294476Y-57300857D01*
X165318285Y-57277047D01*
X165365904Y-57253238D01*
X165484952Y-57253238D01*
X165532571Y-57277047D01*
X165556380Y-57300857D01*
X165580190Y-57348476D01*
X165580190Y-57491333D01*
X165556380Y-57538952D01*
X165532571Y-57562761D01*
X172177421Y-57784952D02*
X172582183Y-57784952D01*
X172629802Y-57761142D01*
X172653611Y-57737333D01*
X172677421Y-57689714D01*
X172677421Y-57594476D01*
X172653611Y-57546857D01*
X172629802Y-57523047D01*
X172582183Y-57499238D01*
X172177421Y-57499238D01*
X172344088Y-57046857D02*
X172677421Y-57046857D01*
X172153611Y-57165904D02*
X172510754Y-57284952D01*
X172510754Y-56975428D01*
X143216149Y-62072750D02*
X144025673Y-62072750D01*
X144120911Y-62025131D01*
X144168530Y-61977512D01*
X144216149Y-61882274D01*
X144216149Y-61691798D01*
X144168530Y-61596560D01*
X144120911Y-61548941D01*
X144025673Y-61501322D01*
X143216149Y-61501322D01*
X143216149Y-60548941D02*
X143216149Y-61025131D01*
X143692340Y-61072750D01*
X143644721Y-61025131D01*
X143597102Y-60929893D01*
X143597102Y-60691798D01*
X143644721Y-60596560D01*
X143692340Y-60548941D01*
X143787578Y-60501322D01*
X144025673Y-60501322D01*
X144120911Y-60548941D01*
X144168530Y-60596560D01*
X144216149Y-60691798D01*
X144216149Y-60929893D01*
X144168530Y-61025131D01*
X144120911Y-61072750D01*
X137333941Y-87801553D02*
X137311067Y-87824427D01*
X137242446Y-87847301D01*
X137196698Y-87847301D01*
X137128076Y-87824427D01*
X137082329Y-87778680D01*
X137059455Y-87732932D01*
X137036581Y-87641436D01*
X137036581Y-87572815D01*
X137059455Y-87481319D01*
X137082329Y-87435572D01*
X137128076Y-87389824D01*
X137196698Y-87366950D01*
X137242446Y-87366950D01*
X137311067Y-87389824D01*
X137333941Y-87412698D01*
X137745670Y-87527067D02*
X137745670Y-87847301D01*
X137631301Y-87344076D02*
X137516932Y-87687184D01*
X137814292Y-87687184D01*
X132759553Y-96346058D02*
X132782427Y-96368932D01*
X132805301Y-96437553D01*
X132805301Y-96483301D01*
X132782427Y-96551923D01*
X132736680Y-96597670D01*
X132690932Y-96620544D01*
X132599436Y-96643418D01*
X132530815Y-96643418D01*
X132439319Y-96620544D01*
X132393572Y-96597670D01*
X132347824Y-96551923D01*
X132324950Y-96483301D01*
X132324950Y-96437553D01*
X132347824Y-96368932D01*
X132370698Y-96346058D01*
X132324950Y-95911455D02*
X132324950Y-96140193D01*
X132553689Y-96163067D01*
X132530815Y-96140193D01*
X132507941Y-96094446D01*
X132507941Y-95980076D01*
X132530815Y-95934329D01*
X132553689Y-95911455D01*
X132599436Y-95888581D01*
X132713806Y-95888581D01*
X132759553Y-95911455D01*
X132782427Y-95934329D01*
X132805301Y-95980076D01*
X132805301Y-96094446D01*
X132782427Y-96140193D01*
X132759553Y-96163067D01*
X141810128Y-54312956D02*
X141833002Y-54335830D01*
X141855876Y-54404451D01*
X141855876Y-54450199D01*
X141833002Y-54518821D01*
X141787255Y-54564568D01*
X141741507Y-54587442D01*
X141650011Y-54610316D01*
X141581390Y-54610316D01*
X141489894Y-54587442D01*
X141444147Y-54564568D01*
X141398399Y-54518821D01*
X141375525Y-54450199D01*
X141375525Y-54404451D01*
X141398399Y-54335830D01*
X141421273Y-54312956D01*
X141375525Y-53901227D02*
X141375525Y-53992722D01*
X141398399Y-54038470D01*
X141421273Y-54061344D01*
X141489894Y-54107091D01*
X141581390Y-54129965D01*
X141764381Y-54129965D01*
X141810128Y-54107091D01*
X141833002Y-54084217D01*
X141855876Y-54038470D01*
X141855876Y-53946974D01*
X141833002Y-53901227D01*
X141810128Y-53878353D01*
X141764381Y-53855479D01*
X141650011Y-53855479D01*
X141604264Y-53878353D01*
X141581390Y-53901227D01*
X141558516Y-53946974D01*
X141558516Y-54038470D01*
X141581390Y-54084217D01*
X141604264Y-54107091D01*
X141650011Y-54129965D01*
X173653553Y-76156956D02*
X173676427Y-76179830D01*
X173699301Y-76248451D01*
X173699301Y-76294199D01*
X173676427Y-76362821D01*
X173630680Y-76408568D01*
X173584932Y-76431442D01*
X173493436Y-76454316D01*
X173424815Y-76454316D01*
X173333319Y-76431442D01*
X173287572Y-76408568D01*
X173241824Y-76362821D01*
X173218950Y-76294199D01*
X173218950Y-76248451D01*
X173241824Y-76179830D01*
X173264698Y-76156956D01*
X173218950Y-75996839D02*
X173218950Y-75676605D01*
X173699301Y-75882470D01*
X164763553Y-91266058D02*
X164786427Y-91288932D01*
X164809301Y-91357553D01*
X164809301Y-91403301D01*
X164786427Y-91471923D01*
X164740680Y-91517670D01*
X164694932Y-91540544D01*
X164603436Y-91563418D01*
X164534815Y-91563418D01*
X164443319Y-91540544D01*
X164397572Y-91517670D01*
X164351824Y-91471923D01*
X164328950Y-91403301D01*
X164328950Y-91357553D01*
X164351824Y-91288932D01*
X164374698Y-91266058D01*
X164534815Y-90991572D02*
X164511941Y-91037319D01*
X164489067Y-91060193D01*
X164443319Y-91083067D01*
X164420446Y-91083067D01*
X164374698Y-91060193D01*
X164351824Y-91037319D01*
X164328950Y-90991572D01*
X164328950Y-90900076D01*
X164351824Y-90854329D01*
X164374698Y-90831455D01*
X164420446Y-90808581D01*
X164443319Y-90808581D01*
X164489067Y-90831455D01*
X164511941Y-90854329D01*
X164534815Y-90900076D01*
X164534815Y-90991572D01*
X164557689Y-91037319D01*
X164580563Y-91060193D01*
X164626310Y-91083067D01*
X164717806Y-91083067D01*
X164763553Y-91060193D01*
X164786427Y-91037319D01*
X164809301Y-90991572D01*
X164809301Y-90900076D01*
X164786427Y-90854329D01*
X164763553Y-90831455D01*
X164717806Y-90808581D01*
X164626310Y-90808581D01*
X164580563Y-90831455D01*
X164557689Y-90854329D01*
X164534815Y-90900076D01*
X120059553Y-58246058D02*
X120082427Y-58268932D01*
X120105301Y-58337553D01*
X120105301Y-58383301D01*
X120082427Y-58451923D01*
X120036680Y-58497670D01*
X119990932Y-58520544D01*
X119899436Y-58543418D01*
X119830815Y-58543418D01*
X119739319Y-58520544D01*
X119693572Y-58497670D01*
X119647824Y-58451923D01*
X119624950Y-58383301D01*
X119624950Y-58337553D01*
X119647824Y-58268932D01*
X119670698Y-58246058D01*
X120105301Y-58017319D02*
X120105301Y-57925824D01*
X120082427Y-57880076D01*
X120059553Y-57857202D01*
X119990932Y-57811455D01*
X119899436Y-57788581D01*
X119716446Y-57788581D01*
X119670698Y-57811455D01*
X119647824Y-57834329D01*
X119624950Y-57880076D01*
X119624950Y-57971572D01*
X119647824Y-58017319D01*
X119670698Y-58040193D01*
X119716446Y-58063067D01*
X119830815Y-58063067D01*
X119876563Y-58040193D01*
X119899436Y-58017319D01*
X119922310Y-57971572D01*
X119922310Y-57880076D01*
X119899436Y-57834329D01*
X119876563Y-57811455D01*
X119830815Y-57788581D01*
X110915553Y-76254797D02*
X110938427Y-76277670D01*
X110961301Y-76346292D01*
X110961301Y-76392040D01*
X110938427Y-76460661D01*
X110892680Y-76506409D01*
X110846932Y-76529283D01*
X110755436Y-76552157D01*
X110686815Y-76552157D01*
X110595319Y-76529283D01*
X110549572Y-76506409D01*
X110503824Y-76460661D01*
X110480950Y-76392040D01*
X110480950Y-76346292D01*
X110503824Y-76277670D01*
X110526698Y-76254797D01*
X110961301Y-75797319D02*
X110961301Y-76071806D01*
X110961301Y-75934563D02*
X110480950Y-75934563D01*
X110549572Y-75980310D01*
X110595319Y-76026058D01*
X110618193Y-76071806D01*
X110480950Y-75499959D02*
X110480950Y-75454212D01*
X110503824Y-75408464D01*
X110526698Y-75385590D01*
X110572446Y-75362716D01*
X110663941Y-75339842D01*
X110778310Y-75339842D01*
X110869806Y-75362716D01*
X110915553Y-75385590D01*
X110938427Y-75408464D01*
X110961301Y-75454212D01*
X110961301Y-75499959D01*
X110938427Y-75545707D01*
X110915553Y-75568581D01*
X110869806Y-75591455D01*
X110778310Y-75614329D01*
X110663941Y-75614329D01*
X110572446Y-75591455D01*
X110526698Y-75568581D01*
X110503824Y-75545707D01*
X110480950Y-75499959D01*
X105928978Y-91617899D02*
X105951852Y-91640772D01*
X105974726Y-91709394D01*
X105974726Y-91755142D01*
X105951852Y-91823763D01*
X105906105Y-91869511D01*
X105860357Y-91892385D01*
X105768861Y-91915259D01*
X105700240Y-91915259D01*
X105608744Y-91892385D01*
X105562997Y-91869511D01*
X105517249Y-91823763D01*
X105494375Y-91755142D01*
X105494375Y-91709394D01*
X105517249Y-91640772D01*
X105540123Y-91617899D01*
X105974726Y-91160421D02*
X105974726Y-91434908D01*
X105974726Y-91297665D02*
X105494375Y-91297665D01*
X105562997Y-91343412D01*
X105608744Y-91389160D01*
X105631618Y-91434908D01*
X105974726Y-90702944D02*
X105974726Y-90977431D01*
X105974726Y-90840187D02*
X105494375Y-90840187D01*
X105562997Y-90885935D01*
X105608744Y-90931683D01*
X105631618Y-90977431D01*
X103793296Y-92686160D02*
X103793296Y-92640419D01*
X103816167Y-92594678D01*
X103839038Y-92571807D01*
X103884779Y-92548937D01*
X103976261Y-92526066D01*
X104090613Y-92526066D01*
X104182095Y-92548937D01*
X104227836Y-92571807D01*
X104250707Y-92594678D01*
X104273577Y-92640419D01*
X104273577Y-92686160D01*
X104250707Y-92731901D01*
X104227836Y-92754771D01*
X104182095Y-92777642D01*
X104090613Y-92800512D01*
X103976261Y-92800512D01*
X103884779Y-92777642D01*
X103839038Y-92754771D01*
X103816167Y-92731901D01*
X103793296Y-92686160D01*
X104227836Y-92320231D02*
X104250707Y-92297361D01*
X104273577Y-92320231D01*
X104250707Y-92343102D01*
X104227836Y-92320231D01*
X104273577Y-92320231D01*
X104273577Y-91839950D02*
X104273577Y-92114397D01*
X104273577Y-91977174D02*
X103793296Y-91977174D01*
X103861908Y-92022915D01*
X103907649Y-92068656D01*
X103930520Y-92114397D01*
X103953390Y-91062353D02*
X104273577Y-91062353D01*
X103953390Y-91268187D02*
X104204966Y-91268187D01*
X104250707Y-91245317D01*
X104273577Y-91199576D01*
X104273577Y-91130964D01*
X104250707Y-91085223D01*
X104227836Y-91062353D01*
X104022002Y-90673554D02*
X104022002Y-90833647D01*
X104273577Y-90833647D02*
X103793296Y-90833647D01*
X103793296Y-90604942D01*
M02*
