M48
; DRILL file {KiCad 5.1.5} date Wed 29 Apr 2020 10:13:36 PM EDT
; FORMAT={-:-/ absolute / inch / decimal}
; #@! TF.CreationDate,2020-04-29T22:13:36-04:00
; #@! TF.GenerationSoftware,Kicad,Pcbnew,5.1.5
FMAT,2
INCH
T1C0.0157
T2C0.0394
T3C0.0413
T4C0.0512
%
G90
G05
T1
X3.7122Y-1.6078
X3.72Y-1.42
X3.72Y-1.78
X3.72Y-2.14
X3.72Y-2.52
X3.7326Y-1.9674
X3.7784Y-2.6916
X3.7855Y-2.3245
X3.94Y-3.36
X3.98Y-1.42
X3.98Y-2.14
X3.98Y-2.52
X4.0Y-1.6
X4.0Y-1.78
X4.0Y-1.95
X4.0Y-2.3
X4.0Y-2.7
X4.14Y-3.5
X4.16Y-3.06
X4.16Y-3.12
X4.16Y-3.18
X4.24Y-1.42
X4.24Y-1.88
X4.24Y-2.14
X4.24Y-2.52
X4.2522Y-1.6078
X4.2626Y-1.9674
X4.2684Y-2.6916
X4.2755Y-2.3245
X4.3Y-3.24
X4.36Y-3.08
X4.36Y-3.36
X4.36Y-3.42
X4.36Y-3.48
X4.48Y-1.8
X4.48Y-2.14
X4.48Y-2.52
X4.52Y-1.52
X4.64Y-2.96
X4.68Y-2.28
X4.73Y-2.5
X4.79Y-2.6
X5.12Y-3.54
X5.18Y-2.9
X5.2Y-3.02
X5.26Y-2.84
X5.28Y-3.72
X5.32Y-2.94
X5.36Y-3.2
X5.38Y-3.54
X5.4Y-3.44
X5.44Y-3.2
X5.48Y-3.06
X5.48Y-3.78
X5.48Y-3.94
X5.48Y-4.0
X5.5338Y-2.2062
X5.54Y-3.08
X5.58Y-3.26
X5.6175Y-2.5575
X5.64Y-3.26
X5.66Y-3.58
X5.66Y-3.64
X5.6605Y-3.3005
X5.6607Y-3.3407
X5.7Y-2.54
X5.72Y-2.68
X5.74Y-3.44
X5.76Y-2.72
X5.763Y-3.2
X5.7756Y-3.08
X5.82Y-2.76
X6.2Y-2.46
X6.4057Y-2.2743
X6.4466Y-3.3334
X6.4597Y-2.1003
X6.46Y-3.06
X6.46Y-3.12
X6.46Y-3.18
X6.47Y-3.49
X6.56Y-1.72
X6.58Y-2.52
X6.6914Y-2.56
X6.7Y-2.46
X6.82Y-3.08
X6.84Y-3.36
X6.84Y-3.42
X6.84Y-3.48
X6.8494Y-3.2306
X6.9Y-2.68
X6.9853Y-2.3947
T2
X4.7013Y-1.4606
X4.7013Y-1.5606
X4.8013Y-1.4606
X4.8013Y-1.5606
X4.9013Y-1.4606
X4.9013Y-1.5606
X5.0013Y-1.4606
X5.0013Y-1.5606
X5.1013Y-1.4606
X5.1013Y-1.5606
X5.2013Y-1.4606
X5.2013Y-1.5606
X5.3013Y-1.4606
X5.3013Y-1.5606
X5.4013Y-1.4606
X5.4013Y-1.5606
X5.5013Y-1.4606
X5.5013Y-1.5606
X5.6013Y-1.4606
X5.6013Y-1.5606
X5.7013Y-1.4606
X5.7013Y-1.5606
X5.8013Y-1.4606
X5.8013Y-1.5606
X5.9013Y-1.4606
X5.9013Y-1.5606
X6.0013Y-1.4606
X6.0013Y-1.5606
X6.1013Y-1.4606
X6.1013Y-1.5606
X6.2013Y-1.4606
X6.2013Y-1.5606
X6.3013Y-1.4606
X6.3013Y-1.5606
X6.4013Y-1.4606
X6.4013Y-1.5606
X6.5013Y-1.4606
X6.5013Y-1.5606
X6.6013Y-1.4606
X6.6013Y-1.5606
X6.9313Y-1.6356
X7.0494Y-1.4505
X7.1675Y-1.6356
T3
X6.6738Y-4.1201
X6.6738Y-4.4882
X6.8116Y-4.1201
X6.8116Y-4.4882
X6.9494Y-4.1201
X6.9494Y-4.4882
X7.0872Y-4.1201
X7.0872Y-4.4882
X7.225Y-4.1201
X7.225Y-4.4882
X7.3628Y-4.1201
X7.3628Y-4.4882
X5.6613Y-4.1201
X5.6613Y-4.4882
X5.7991Y-4.1201
X5.7991Y-4.4882
X5.9369Y-4.1201
X5.9369Y-4.4882
X6.0747Y-4.1201
X6.0747Y-4.4882
X6.2125Y-4.1201
X6.2125Y-4.4882
X6.3503Y-4.1201
X6.3503Y-4.4882
X3.5863Y-4.1201
X3.5863Y-4.4882
X3.7241Y-4.1201
X3.7241Y-4.4882
X3.8619Y-4.1201
X3.8619Y-4.4882
X3.9997Y-4.1201
X3.9997Y-4.4882
X4.1375Y-4.1201
X4.1375Y-4.4882
X4.2753Y-4.1201
X4.2753Y-4.4882
X4.6213Y-4.1201
X4.6213Y-4.4882
X4.7591Y-4.1201
X4.7591Y-4.4882
X4.8969Y-4.1201
X4.8969Y-4.4882
X5.0347Y-4.1201
X5.0347Y-4.4882
X5.1725Y-4.1201
X5.1725Y-4.4882
X5.3103Y-4.1201
X5.3103Y-4.4882
T4
X7.3563Y-2.0606
X7.3563Y-2.1606
X7.3563Y-2.2606
T0
M30
