G04 #@! TF.GenerationSoftware,KiCad,Pcbnew,5.1.5*
G04 #@! TF.CreationDate,2020-04-29T22:13:39-04:00*
G04 #@! TF.ProjectId,EVE-PCB-V2,4556452d-5043-4422-9d56-322e6b696361,rev?*
G04 #@! TF.SameCoordinates,Original*
G04 #@! TF.FileFunction,Profile,NP*
%FSLAX46Y46*%
G04 Gerber Fmt 4.6, Leading zero omitted, Abs format (unit mm)*
G04 Created by KiCad (PCBNEW 5.1.5) date 2020-04-29 22:13:39*
%MOMM*%
%LPD*%
G04 APERTURE LIST*
%ADD10C,0.150000*%
%ADD11C,0.000100*%
G04 APERTURE END LIST*
D10*
X94340000Y-95000000D02*
G75*
G03X94340000Y-95000000I-1700000J0D01*
G01*
X187700000Y-95000000D02*
G75*
G03X187700000Y-95000000I-1700000J0D01*
G01*
X187700000Y-70000000D02*
G75*
G03X187700000Y-70000000I-1700000J0D01*
G01*
X123700000Y-70000000D02*
G75*
G03X123700000Y-70000000I-1700000J0D01*
G01*
X191053346Y-133562269D02*
X191053346Y-34062269D01*
X87553346Y-133562269D02*
X191053346Y-133562269D01*
X87553346Y-34062269D02*
X87553346Y-133562269D01*
X191053346Y-34062269D02*
X87553346Y-34062269D01*
D11*
X180555346Y-37343769D02*
X177555346Y-37343769D01*
X180555346Y-36343769D02*
X180555346Y-37343769D01*
X177555346Y-36343769D02*
X180555346Y-36343769D01*
X177555346Y-37343769D02*
X177555346Y-36343769D01*
X182555346Y-40043769D02*
X182555346Y-43043769D01*
X181555346Y-40043769D02*
X182555346Y-40043769D01*
X181555346Y-43043769D02*
X181555346Y-40043769D01*
X182555346Y-43043769D02*
X181555346Y-43043769D01*
X176555346Y-39793769D02*
X176555346Y-43293769D01*
X175555346Y-39793769D02*
X176555346Y-39793769D01*
X175555346Y-43293769D02*
X175555346Y-39793769D01*
X176555346Y-43293769D02*
X175555346Y-43293769D01*
M02*
