G04 #@! TF.GenerationSoftware,KiCad,Pcbnew,5.1.5*
G04 #@! TF.CreationDate,2020-05-29T14:42:09-04:00*
G04 #@! TF.ProjectId,EVE-PCB-V4,4556452d-5043-4422-9d56-342e6b696361,rev?*
G04 #@! TF.SameCoordinates,Original*
G04 #@! TF.FileFunction,Legend,Top*
G04 #@! TF.FilePolarity,Positive*
%FSLAX46Y46*%
G04 Gerber Fmt 4.6, Leading zero omitted, Abs format (unit mm)*
G04 Created by KiCad (PCBNEW 5.1.5) date 2020-05-29 14:42:09*
%MOMM*%
%LPD*%
G04 APERTURE LIST*
%ADD10C,0.125000*%
%ADD11C,0.200000*%
%ADD12C,0.300000*%
%ADD13C,0.250000*%
%ADD14C,0.120000*%
%ADD15C,0.100000*%
%ADD16C,0.150000*%
%ADD17C,0.254000*%
%ADD18C,0.062500*%
G04 APERTURE END LIST*
D10*
X186165685Y-73860142D02*
X185415685Y-73860142D01*
X185415685Y-73574428D01*
X185451400Y-73503000D01*
X185487114Y-73467285D01*
X185558542Y-73431571D01*
X185665685Y-73431571D01*
X185737114Y-73467285D01*
X185772828Y-73503000D01*
X185808542Y-73574428D01*
X185808542Y-73860142D01*
X186165685Y-73110142D02*
X185665685Y-73110142D01*
X185415685Y-73110142D02*
X185451400Y-73145857D01*
X185487114Y-73110142D01*
X185451400Y-73074428D01*
X185415685Y-73110142D01*
X185487114Y-73110142D01*
X186094257Y-71753000D02*
X186129971Y-71788714D01*
X186165685Y-71895857D01*
X186165685Y-71967285D01*
X186129971Y-72074428D01*
X186058542Y-72145857D01*
X185987114Y-72181571D01*
X185844257Y-72217285D01*
X185737114Y-72217285D01*
X185594257Y-72181571D01*
X185522828Y-72145857D01*
X185451400Y-72074428D01*
X185415685Y-71967285D01*
X185415685Y-71895857D01*
X185451400Y-71788714D01*
X185487114Y-71753000D01*
X186165685Y-71324428D02*
X186129971Y-71395857D01*
X186094257Y-71431571D01*
X186022828Y-71467285D01*
X185808542Y-71467285D01*
X185737114Y-71431571D01*
X185701400Y-71395857D01*
X185665685Y-71324428D01*
X185665685Y-71217285D01*
X185701400Y-71145857D01*
X185737114Y-71110142D01*
X185808542Y-71074428D01*
X186022828Y-71074428D01*
X186094257Y-71110142D01*
X186129971Y-71145857D01*
X186165685Y-71217285D01*
X186165685Y-71324428D01*
X185665685Y-70753000D02*
X186165685Y-70753000D01*
X185737114Y-70753000D02*
X185701400Y-70717285D01*
X185665685Y-70645857D01*
X185665685Y-70538714D01*
X185701400Y-70467285D01*
X185772828Y-70431571D01*
X186165685Y-70431571D01*
X185665685Y-70074428D02*
X186165685Y-70074428D01*
X185737114Y-70074428D02*
X185701400Y-70038714D01*
X185665685Y-69967285D01*
X185665685Y-69860142D01*
X185701400Y-69788714D01*
X185772828Y-69753000D01*
X186165685Y-69753000D01*
X186094257Y-69395857D02*
X186129971Y-69360142D01*
X186165685Y-69395857D01*
X186129971Y-69431571D01*
X186094257Y-69395857D01*
X186165685Y-69395857D01*
X189061285Y-56952971D02*
X188704142Y-57202971D01*
X189061285Y-57381542D02*
X188311285Y-57381542D01*
X188311285Y-57095828D01*
X188347000Y-57024400D01*
X188382714Y-56988685D01*
X188454142Y-56952971D01*
X188561285Y-56952971D01*
X188632714Y-56988685D01*
X188668428Y-57024400D01*
X188704142Y-57095828D01*
X188704142Y-57381542D01*
X188989857Y-56060114D02*
X189025571Y-56024400D01*
X189061285Y-56060114D01*
X189025571Y-56095828D01*
X188989857Y-56060114D01*
X189061285Y-56060114D01*
X188597000Y-56060114D02*
X188632714Y-56024400D01*
X188668428Y-56060114D01*
X188632714Y-56095828D01*
X188597000Y-56060114D01*
X188668428Y-56060114D01*
X188668428Y-54881542D02*
X188704142Y-54774400D01*
X188739857Y-54738685D01*
X188811285Y-54702971D01*
X188918428Y-54702971D01*
X188989857Y-54738685D01*
X189025571Y-54774400D01*
X189061285Y-54845828D01*
X189061285Y-55131542D01*
X188311285Y-55131542D01*
X188311285Y-54881542D01*
X188347000Y-54810114D01*
X188382714Y-54774400D01*
X188454142Y-54738685D01*
X188525571Y-54738685D01*
X188597000Y-54774400D01*
X188632714Y-54810114D01*
X188668428Y-54881542D01*
X188668428Y-55131542D01*
X189061285Y-54274400D02*
X189025571Y-54345828D01*
X188954142Y-54381542D01*
X188311285Y-54381542D01*
X188561285Y-53667257D02*
X189061285Y-53667257D01*
X188561285Y-53988685D02*
X188954142Y-53988685D01*
X189025571Y-53952971D01*
X189061285Y-53881542D01*
X189061285Y-53774400D01*
X189025571Y-53702971D01*
X188989857Y-53667257D01*
X187181685Y-57312885D02*
X186431685Y-57312885D01*
X186967400Y-57062885D01*
X186431685Y-56812885D01*
X187181685Y-56812885D01*
X187110257Y-55884314D02*
X187145971Y-55848600D01*
X187181685Y-55884314D01*
X187145971Y-55920028D01*
X187110257Y-55884314D01*
X187181685Y-55884314D01*
X186717400Y-55884314D02*
X186753114Y-55848600D01*
X186788828Y-55884314D01*
X186753114Y-55920028D01*
X186717400Y-55884314D01*
X186788828Y-55884314D01*
X186824542Y-54812885D02*
X187181685Y-54812885D01*
X186431685Y-55062885D02*
X186824542Y-54812885D01*
X186431685Y-54562885D01*
X187145971Y-54027171D02*
X187181685Y-54098600D01*
X187181685Y-54241457D01*
X187145971Y-54312885D01*
X187074542Y-54348600D01*
X186788828Y-54348600D01*
X186717400Y-54312885D01*
X186681685Y-54241457D01*
X186681685Y-54098600D01*
X186717400Y-54027171D01*
X186788828Y-53991457D01*
X186860257Y-53991457D01*
X186931685Y-54348600D01*
X187181685Y-53562885D02*
X187145971Y-53634314D01*
X187074542Y-53670028D01*
X186431685Y-53670028D01*
X185302085Y-57027171D02*
X185302085Y-57384314D01*
X184552085Y-57384314D01*
X185230657Y-56205742D02*
X185266371Y-56170028D01*
X185302085Y-56205742D01*
X185266371Y-56241457D01*
X185230657Y-56205742D01*
X185302085Y-56205742D01*
X184837800Y-56205742D02*
X184873514Y-56170028D01*
X184909228Y-56205742D01*
X184873514Y-56241457D01*
X184837800Y-56205742D01*
X184909228Y-56205742D01*
X185302085Y-54848600D02*
X184944942Y-55098600D01*
X185302085Y-55277171D02*
X184552085Y-55277171D01*
X184552085Y-54991457D01*
X184587800Y-54920028D01*
X184623514Y-54884314D01*
X184694942Y-54848600D01*
X184802085Y-54848600D01*
X184873514Y-54884314D01*
X184909228Y-54920028D01*
X184944942Y-54991457D01*
X184944942Y-55277171D01*
X185266371Y-54241457D02*
X185302085Y-54312885D01*
X185302085Y-54455742D01*
X185266371Y-54527171D01*
X185194942Y-54562885D01*
X184909228Y-54562885D01*
X184837800Y-54527171D01*
X184802085Y-54455742D01*
X184802085Y-54312885D01*
X184837800Y-54241457D01*
X184909228Y-54205742D01*
X184980657Y-54205742D01*
X185052085Y-54562885D01*
X185302085Y-53562885D02*
X184552085Y-53562885D01*
X185266371Y-53562885D02*
X185302085Y-53634314D01*
X185302085Y-53777171D01*
X185266371Y-53848600D01*
X185230657Y-53884314D01*
X185159228Y-53920028D01*
X184944942Y-53920028D01*
X184873514Y-53884314D01*
X184837800Y-53848600D01*
X184802085Y-53777171D01*
X184802085Y-53634314D01*
X184837800Y-53562885D01*
D11*
X150518880Y-119070166D02*
X151518880Y-118832071D01*
X150804595Y-118641595D01*
X151518880Y-118451119D01*
X150518880Y-118213023D01*
X151233166Y-117879690D02*
X151233166Y-117403500D01*
X151518880Y-117974928D02*
X150518880Y-117641595D01*
X151518880Y-117308261D01*
X151471261Y-117022547D02*
X151518880Y-116879690D01*
X151518880Y-116641595D01*
X151471261Y-116546357D01*
X151423642Y-116498738D01*
X151328404Y-116451119D01*
X151233166Y-116451119D01*
X151137928Y-116498738D01*
X151090309Y-116546357D01*
X151042690Y-116641595D01*
X150995071Y-116832071D01*
X150947452Y-116927309D01*
X150899833Y-116974928D01*
X150804595Y-117022547D01*
X150709357Y-117022547D01*
X150614119Y-116974928D01*
X150566500Y-116927309D01*
X150518880Y-116832071D01*
X150518880Y-116593976D01*
X150566500Y-116451119D01*
X150518880Y-116165404D02*
X150518880Y-115593976D01*
X151518880Y-115879690D02*
X150518880Y-115879690D01*
X150995071Y-115260642D02*
X150995071Y-114927309D01*
X151518880Y-114784452D02*
X151518880Y-115260642D01*
X150518880Y-115260642D01*
X150518880Y-114784452D01*
D10*
X185466485Y-80422885D02*
X185466485Y-80780028D01*
X185823628Y-80815742D01*
X185787914Y-80780028D01*
X185752200Y-80708600D01*
X185752200Y-80530028D01*
X185787914Y-80458600D01*
X185823628Y-80422885D01*
X185895057Y-80387171D01*
X186073628Y-80387171D01*
X186145057Y-80422885D01*
X186180771Y-80458600D01*
X186216485Y-80530028D01*
X186216485Y-80708600D01*
X186180771Y-80780028D01*
X186145057Y-80815742D01*
X185466485Y-80172885D02*
X186216485Y-79922885D01*
X185466485Y-79672885D01*
X186216485Y-78851457D02*
X185466485Y-78851457D01*
X185466485Y-78565742D01*
X185502200Y-78494314D01*
X185537914Y-78458600D01*
X185609342Y-78422885D01*
X185716485Y-78422885D01*
X185787914Y-78458600D01*
X185823628Y-78494314D01*
X185859342Y-78565742D01*
X185859342Y-78851457D01*
X186216485Y-77994314D02*
X186180771Y-78065742D01*
X186145057Y-78101457D01*
X186073628Y-78137171D01*
X185859342Y-78137171D01*
X185787914Y-78101457D01*
X185752200Y-78065742D01*
X185716485Y-77994314D01*
X185716485Y-77887171D01*
X185752200Y-77815742D01*
X185787914Y-77780028D01*
X185859342Y-77744314D01*
X186073628Y-77744314D01*
X186145057Y-77780028D01*
X186180771Y-77815742D01*
X186216485Y-77887171D01*
X186216485Y-77994314D01*
X185716485Y-77494314D02*
X186216485Y-77351457D01*
X185859342Y-77208600D01*
X186216485Y-77065742D01*
X185716485Y-76922885D01*
X186180771Y-76351457D02*
X186216485Y-76422885D01*
X186216485Y-76565742D01*
X186180771Y-76637171D01*
X186109342Y-76672885D01*
X185823628Y-76672885D01*
X185752200Y-76637171D01*
X185716485Y-76565742D01*
X185716485Y-76422885D01*
X185752200Y-76351457D01*
X185823628Y-76315742D01*
X185895057Y-76315742D01*
X185966485Y-76672885D01*
X186216485Y-75994314D02*
X185716485Y-75994314D01*
X185859342Y-75994314D02*
X185787914Y-75958600D01*
X185752200Y-75922885D01*
X185716485Y-75851457D01*
X185716485Y-75780028D01*
X112541952Y-119796690D02*
X112303857Y-119796690D01*
X112303857Y-119296690D01*
X112803857Y-119296690D02*
X112899095Y-119296690D01*
X112946714Y-119320500D01*
X112994333Y-119368119D01*
X113018142Y-119463357D01*
X113018142Y-119630023D01*
X112994333Y-119725261D01*
X112946714Y-119772880D01*
X112899095Y-119796690D01*
X112803857Y-119796690D01*
X112756238Y-119772880D01*
X112708619Y-119725261D01*
X112684809Y-119630023D01*
X112684809Y-119463357D01*
X112708619Y-119368119D01*
X112756238Y-119320500D01*
X112803857Y-119296690D01*
X113184809Y-119296690D02*
X113303857Y-119796690D01*
X113399095Y-119439547D01*
X113494333Y-119796690D01*
X113613380Y-119296690D01*
X113803857Y-119534785D02*
X113970523Y-119534785D01*
X114041952Y-119796690D02*
X113803857Y-119796690D01*
X113803857Y-119296690D01*
X114041952Y-119296690D01*
X114541952Y-119796690D02*
X114375285Y-119558595D01*
X114256238Y-119796690D02*
X114256238Y-119296690D01*
X114446714Y-119296690D01*
X114494333Y-119320500D01*
X114518142Y-119344309D01*
X114541952Y-119391928D01*
X114541952Y-119463357D01*
X114518142Y-119510976D01*
X114494333Y-119534785D01*
X114446714Y-119558595D01*
X114256238Y-119558595D01*
D12*
X132187071Y-117804285D02*
X132187071Y-118518571D01*
X130687071Y-118518571D01*
X131401357Y-117304285D02*
X131401357Y-116804285D01*
X132187071Y-116590000D02*
X132187071Y-117304285D01*
X130687071Y-117304285D01*
X130687071Y-116590000D01*
X132187071Y-115947142D02*
X130687071Y-115947142D01*
X130687071Y-115590000D01*
X130758500Y-115375714D01*
X130901357Y-115232857D01*
X131044214Y-115161428D01*
X131329928Y-115090000D01*
X131544214Y-115090000D01*
X131829928Y-115161428D01*
X131972785Y-115232857D01*
X132115642Y-115375714D01*
X132187071Y-115590000D01*
X132187071Y-115947142D01*
D10*
X112418952Y-113327690D02*
X112418952Y-113732452D01*
X112442761Y-113780071D01*
X112466571Y-113803880D01*
X112514190Y-113827690D01*
X112609428Y-113827690D01*
X112657047Y-113803880D01*
X112680857Y-113780071D01*
X112704666Y-113732452D01*
X112704666Y-113327690D01*
X112942761Y-113827690D02*
X112942761Y-113327690D01*
X113133238Y-113327690D01*
X113180857Y-113351500D01*
X113204666Y-113375309D01*
X113228476Y-113422928D01*
X113228476Y-113494357D01*
X113204666Y-113541976D01*
X113180857Y-113565785D01*
X113133238Y-113589595D01*
X112942761Y-113589595D01*
X113442761Y-113827690D02*
X113442761Y-113327690D01*
X113633238Y-113327690D01*
X113680857Y-113351500D01*
X113704666Y-113375309D01*
X113728476Y-113422928D01*
X113728476Y-113494357D01*
X113704666Y-113541976D01*
X113680857Y-113565785D01*
X113633238Y-113589595D01*
X113442761Y-113589595D01*
X113942761Y-113565785D02*
X114109428Y-113565785D01*
X114180857Y-113827690D02*
X113942761Y-113827690D01*
X113942761Y-113327690D01*
X114180857Y-113327690D01*
X114680857Y-113827690D02*
X114514190Y-113589595D01*
X114395142Y-113827690D02*
X114395142Y-113327690D01*
X114585619Y-113327690D01*
X114633238Y-113351500D01*
X114657047Y-113375309D01*
X114680857Y-113422928D01*
X114680857Y-113494357D01*
X114657047Y-113541976D01*
X114633238Y-113565785D01*
X114585619Y-113589595D01*
X114395142Y-113589595D01*
D12*
X135870071Y-118109857D02*
X134370071Y-118109857D01*
X134370071Y-117538428D01*
X134441500Y-117395571D01*
X134512928Y-117324142D01*
X134655785Y-117252714D01*
X134870071Y-117252714D01*
X135012928Y-117324142D01*
X135084357Y-117395571D01*
X135155785Y-117538428D01*
X135155785Y-118109857D01*
X135870071Y-116609857D02*
X134370071Y-116609857D01*
X134370071Y-116252714D01*
X134441500Y-116038428D01*
X134584357Y-115895571D01*
X134727214Y-115824142D01*
X135012928Y-115752714D01*
X135227214Y-115752714D01*
X135512928Y-115824142D01*
X135655785Y-115895571D01*
X135798642Y-116038428D01*
X135870071Y-116252714D01*
X135870071Y-116609857D01*
X127908857Y-118054285D02*
X127908857Y-118554285D01*
X128694571Y-118554285D02*
X127194571Y-118554285D01*
X127194571Y-117840000D01*
X128266000Y-117340000D02*
X128266000Y-116625714D01*
X128694571Y-117482857D02*
X127194571Y-116982857D01*
X128694571Y-116482857D01*
X128694571Y-115982857D02*
X127194571Y-115982857D01*
X128694571Y-115125714D01*
X127194571Y-115125714D01*
D13*
X123952047Y-113418928D02*
X124713952Y-113418928D01*
X124333000Y-113799880D02*
X124333000Y-113037976D01*
X127635047Y-113418928D02*
X128396952Y-113418928D01*
X128016000Y-113799880D02*
X128016000Y-113037976D01*
X131127547Y-113482428D02*
X131889452Y-113482428D01*
X131508500Y-113863380D02*
X131508500Y-113101476D01*
X134683547Y-113545928D02*
X135445452Y-113545928D01*
X135064500Y-113926880D02*
X135064500Y-113164976D01*
D11*
X123721880Y-119006666D02*
X124721880Y-118768571D01*
X124007595Y-118578095D01*
X124721880Y-118387619D01*
X123721880Y-118149523D01*
X124436166Y-117816190D02*
X124436166Y-117340000D01*
X124721880Y-117911428D02*
X123721880Y-117578095D01*
X124721880Y-117244761D01*
X124674261Y-116959047D02*
X124721880Y-116816190D01*
X124721880Y-116578095D01*
X124674261Y-116482857D01*
X124626642Y-116435238D01*
X124531404Y-116387619D01*
X124436166Y-116387619D01*
X124340928Y-116435238D01*
X124293309Y-116482857D01*
X124245690Y-116578095D01*
X124198071Y-116768571D01*
X124150452Y-116863809D01*
X124102833Y-116911428D01*
X124007595Y-116959047D01*
X123912357Y-116959047D01*
X123817119Y-116911428D01*
X123769500Y-116863809D01*
X123721880Y-116768571D01*
X123721880Y-116530476D01*
X123769500Y-116387619D01*
X123721880Y-116101904D02*
X123721880Y-115530476D01*
X124721880Y-115816190D02*
X123721880Y-115816190D01*
X124198071Y-115197142D02*
X124198071Y-114863809D01*
X124721880Y-114720952D02*
X124721880Y-115197142D01*
X123721880Y-115197142D01*
X123721880Y-114720952D01*
D13*
X117221047Y-119705428D02*
X117982952Y-119705428D01*
X120713547Y-119705428D02*
X121475452Y-119705428D01*
X117348047Y-113418928D02*
X118109952Y-113418928D01*
X117729000Y-113799880D02*
X117729000Y-113037976D01*
X123952047Y-119705428D02*
X124713952Y-119705428D01*
D11*
X118117880Y-118498714D02*
X117117880Y-118498714D01*
X117117880Y-118260619D01*
X117165500Y-118117761D01*
X117260738Y-118022523D01*
X117355976Y-117974904D01*
X117546452Y-117927285D01*
X117689309Y-117927285D01*
X117879785Y-117974904D01*
X117975023Y-118022523D01*
X118070261Y-118117761D01*
X118117880Y-118260619D01*
X118117880Y-118498714D01*
X118117880Y-116927285D02*
X117641690Y-117260619D01*
X118117880Y-117498714D02*
X117117880Y-117498714D01*
X117117880Y-117117761D01*
X117165500Y-117022523D01*
X117213119Y-116974904D01*
X117308357Y-116927285D01*
X117451214Y-116927285D01*
X117546452Y-116974904D01*
X117594071Y-117022523D01*
X117641690Y-117117761D01*
X117641690Y-117498714D01*
X117117880Y-116498714D02*
X117927404Y-116498714D01*
X118022642Y-116451095D01*
X118070261Y-116403476D01*
X118117880Y-116308238D01*
X118117880Y-116117761D01*
X118070261Y-116022523D01*
X118022642Y-115974904D01*
X117927404Y-115927285D01*
X117117880Y-115927285D01*
X117165500Y-114927285D02*
X117117880Y-115022523D01*
X117117880Y-115165380D01*
X117165500Y-115308238D01*
X117260738Y-115403476D01*
X117355976Y-115451095D01*
X117546452Y-115498714D01*
X117689309Y-115498714D01*
X117879785Y-115451095D01*
X117975023Y-115403476D01*
X118070261Y-115308238D01*
X118117880Y-115165380D01*
X118117880Y-115070142D01*
X118070261Y-114927285D01*
X118022642Y-114879666D01*
X117689309Y-114879666D01*
X117689309Y-115070142D01*
D13*
X134683547Y-119705428D02*
X135445452Y-119705428D01*
D11*
X121610380Y-118728880D02*
X120610380Y-118728880D01*
X121324666Y-118395547D01*
X120610380Y-118062214D01*
X121610380Y-118062214D01*
X121086571Y-117586023D02*
X121086571Y-117252690D01*
X121610380Y-117109833D02*
X121610380Y-117586023D01*
X120610380Y-117586023D01*
X120610380Y-117109833D01*
X121610380Y-116681261D02*
X120610380Y-116681261D01*
X120610380Y-116443166D01*
X120658000Y-116300309D01*
X120753238Y-116205071D01*
X120848476Y-116157452D01*
X121038952Y-116109833D01*
X121181809Y-116109833D01*
X121372285Y-116157452D01*
X121467523Y-116205071D01*
X121562761Y-116300309D01*
X121610380Y-116443166D01*
X121610380Y-116681261D01*
X121610380Y-115681261D02*
X120610380Y-115681261D01*
X121324666Y-115252690D02*
X121324666Y-114776500D01*
X121610380Y-115347928D02*
X120610380Y-115014595D01*
X121610380Y-114681261D01*
D13*
X131064047Y-119705428D02*
X131825952Y-119705428D01*
X127508047Y-119705428D02*
X128269952Y-119705428D01*
X120777047Y-113418928D02*
X121538952Y-113418928D01*
X121158000Y-113799880D02*
X121158000Y-113037976D01*
X108204047Y-119578428D02*
X108965952Y-119578428D01*
X94297547Y-113291928D02*
X95059452Y-113291928D01*
X94678500Y-113672880D02*
X94678500Y-112910976D01*
X101409547Y-113291928D02*
X102171452Y-113291928D01*
X101790500Y-113672880D02*
X101790500Y-112910976D01*
D12*
X101683357Y-117927285D02*
X101683357Y-118427285D01*
X102469071Y-118427285D02*
X100969071Y-118427285D01*
X100969071Y-117713000D01*
X102040500Y-117213000D02*
X102040500Y-116498714D01*
X102469071Y-117355857D02*
X100969071Y-116855857D01*
X102469071Y-116355857D01*
X102469071Y-115855857D02*
X100969071Y-115855857D01*
X102469071Y-114998714D01*
X100969071Y-114998714D01*
D13*
X94234047Y-119578428D02*
X94995952Y-119578428D01*
X101282547Y-119578428D02*
X102044452Y-119578428D01*
D12*
X106215571Y-117677285D02*
X106215571Y-118391571D01*
X104715571Y-118391571D01*
X105429857Y-117177285D02*
X105429857Y-116677285D01*
X106215571Y-116463000D02*
X106215571Y-117177285D01*
X104715571Y-117177285D01*
X104715571Y-116463000D01*
X106215571Y-115820142D02*
X104715571Y-115820142D01*
X104715571Y-115463000D01*
X104787000Y-115248714D01*
X104929857Y-115105857D01*
X105072714Y-115034428D01*
X105358428Y-114963000D01*
X105572714Y-114963000D01*
X105858428Y-115034428D01*
X106001285Y-115105857D01*
X106144142Y-115248714D01*
X106215571Y-115463000D01*
X106215571Y-115820142D01*
D13*
X97980547Y-119578428D02*
X98742452Y-119578428D01*
D12*
X109390571Y-117982857D02*
X107890571Y-117982857D01*
X107890571Y-117411428D01*
X107962000Y-117268571D01*
X108033428Y-117197142D01*
X108176285Y-117125714D01*
X108390571Y-117125714D01*
X108533428Y-117197142D01*
X108604857Y-117268571D01*
X108676285Y-117411428D01*
X108676285Y-117982857D01*
X109390571Y-116482857D02*
X107890571Y-116482857D01*
X107890571Y-116125714D01*
X107962000Y-115911428D01*
X108104857Y-115768571D01*
X108247714Y-115697142D01*
X108533428Y-115625714D01*
X108747714Y-115625714D01*
X109033428Y-115697142D01*
X109176285Y-115768571D01*
X109319142Y-115911428D01*
X109390571Y-116125714D01*
X109390571Y-116482857D01*
D13*
X90741547Y-119578428D02*
X91503452Y-119578428D01*
X90868547Y-113291928D02*
X91630452Y-113291928D01*
X91249500Y-113672880D02*
X91249500Y-112910976D01*
D11*
X91638380Y-118371714D02*
X90638380Y-118371714D01*
X90638380Y-118133619D01*
X90686000Y-117990761D01*
X90781238Y-117895523D01*
X90876476Y-117847904D01*
X91066952Y-117800285D01*
X91209809Y-117800285D01*
X91400285Y-117847904D01*
X91495523Y-117895523D01*
X91590761Y-117990761D01*
X91638380Y-118133619D01*
X91638380Y-118371714D01*
X91638380Y-116800285D02*
X91162190Y-117133619D01*
X91638380Y-117371714D02*
X90638380Y-117371714D01*
X90638380Y-116990761D01*
X90686000Y-116895523D01*
X90733619Y-116847904D01*
X90828857Y-116800285D01*
X90971714Y-116800285D01*
X91066952Y-116847904D01*
X91114571Y-116895523D01*
X91162190Y-116990761D01*
X91162190Y-117371714D01*
X90638380Y-116371714D02*
X91447904Y-116371714D01*
X91543142Y-116324095D01*
X91590761Y-116276476D01*
X91638380Y-116181238D01*
X91638380Y-115990761D01*
X91590761Y-115895523D01*
X91543142Y-115847904D01*
X91447904Y-115800285D01*
X90638380Y-115800285D01*
X90686000Y-114800285D02*
X90638380Y-114895523D01*
X90638380Y-115038380D01*
X90686000Y-115181238D01*
X90781238Y-115276476D01*
X90876476Y-115324095D01*
X91066952Y-115371714D01*
X91209809Y-115371714D01*
X91400285Y-115324095D01*
X91495523Y-115276476D01*
X91590761Y-115181238D01*
X91638380Y-115038380D01*
X91638380Y-114943142D01*
X91590761Y-114800285D01*
X91543142Y-114752666D01*
X91209809Y-114752666D01*
X91209809Y-114943142D01*
D13*
X108204047Y-113418928D02*
X108965952Y-113418928D01*
X108585000Y-113799880D02*
X108585000Y-113037976D01*
X97980547Y-113291928D02*
X98742452Y-113291928D01*
X98361500Y-113672880D02*
X98361500Y-112910976D01*
X105092547Y-119578428D02*
X105854452Y-119578428D01*
D11*
X95130880Y-118601880D02*
X94130880Y-118601880D01*
X94845166Y-118268547D01*
X94130880Y-117935214D01*
X95130880Y-117935214D01*
X94607071Y-117459023D02*
X94607071Y-117125690D01*
X95130880Y-116982833D02*
X95130880Y-117459023D01*
X94130880Y-117459023D01*
X94130880Y-116982833D01*
X95130880Y-116554261D02*
X94130880Y-116554261D01*
X94130880Y-116316166D01*
X94178500Y-116173309D01*
X94273738Y-116078071D01*
X94368976Y-116030452D01*
X94559452Y-115982833D01*
X94702309Y-115982833D01*
X94892785Y-116030452D01*
X94988023Y-116078071D01*
X95083261Y-116173309D01*
X95130880Y-116316166D01*
X95130880Y-116554261D01*
X95130880Y-115554261D02*
X94130880Y-115554261D01*
X94845166Y-115125690D02*
X94845166Y-114649500D01*
X95130880Y-115220928D02*
X94130880Y-114887595D01*
X95130880Y-114554261D01*
D13*
X105156047Y-113355428D02*
X105917952Y-113355428D01*
X105537000Y-113736380D02*
X105537000Y-112974476D01*
D11*
X97750380Y-118879666D02*
X98750380Y-118641571D01*
X98036095Y-118451095D01*
X98750380Y-118260619D01*
X97750380Y-118022523D01*
X98464666Y-117689190D02*
X98464666Y-117213000D01*
X98750380Y-117784428D02*
X97750380Y-117451095D01*
X98750380Y-117117761D01*
X98702761Y-116832047D02*
X98750380Y-116689190D01*
X98750380Y-116451095D01*
X98702761Y-116355857D01*
X98655142Y-116308238D01*
X98559904Y-116260619D01*
X98464666Y-116260619D01*
X98369428Y-116308238D01*
X98321809Y-116355857D01*
X98274190Y-116451095D01*
X98226571Y-116641571D01*
X98178952Y-116736809D01*
X98131333Y-116784428D01*
X98036095Y-116832047D01*
X97940857Y-116832047D01*
X97845619Y-116784428D01*
X97798000Y-116736809D01*
X97750380Y-116641571D01*
X97750380Y-116403476D01*
X97798000Y-116260619D01*
X97750380Y-115974904D02*
X97750380Y-115403476D01*
X98750380Y-115689190D02*
X97750380Y-115689190D01*
X98226571Y-115070142D02*
X98226571Y-114736809D01*
X98750380Y-114593952D02*
X98750380Y-115070142D01*
X97750380Y-115070142D01*
X97750380Y-114593952D01*
D12*
X158730071Y-117867785D02*
X158730071Y-118582071D01*
X157230071Y-118582071D01*
X157944357Y-117367785D02*
X157944357Y-116867785D01*
X158730071Y-116653500D02*
X158730071Y-117367785D01*
X157230071Y-117367785D01*
X157230071Y-116653500D01*
X158730071Y-116010642D02*
X157230071Y-116010642D01*
X157230071Y-115653500D01*
X157301500Y-115439214D01*
X157444357Y-115296357D01*
X157587214Y-115224928D01*
X157872928Y-115153500D01*
X158087214Y-115153500D01*
X158372928Y-115224928D01*
X158515785Y-115296357D01*
X158658642Y-115439214D01*
X158730071Y-115653500D01*
X158730071Y-116010642D01*
X162159071Y-118173357D02*
X160659071Y-118173357D01*
X160659071Y-117601928D01*
X160730500Y-117459071D01*
X160801928Y-117387642D01*
X160944785Y-117316214D01*
X161159071Y-117316214D01*
X161301928Y-117387642D01*
X161373357Y-117459071D01*
X161444785Y-117601928D01*
X161444785Y-118173357D01*
X162159071Y-116673357D02*
X160659071Y-116673357D01*
X160659071Y-116316214D01*
X160730500Y-116101928D01*
X160873357Y-115959071D01*
X161016214Y-115887642D01*
X161301928Y-115816214D01*
X161516214Y-115816214D01*
X161801928Y-115887642D01*
X161944785Y-115959071D01*
X162087642Y-116101928D01*
X162159071Y-116316214D01*
X162159071Y-116673357D01*
X154451857Y-118117785D02*
X154451857Y-118617785D01*
X155237571Y-118617785D02*
X153737571Y-118617785D01*
X153737571Y-117903500D01*
X154809000Y-117403500D02*
X154809000Y-116689214D01*
X155237571Y-117546357D02*
X153737571Y-117046357D01*
X155237571Y-116546357D01*
X155237571Y-116046357D02*
X153737571Y-116046357D01*
X155237571Y-115189214D01*
X153737571Y-115189214D01*
D13*
X150749047Y-113482428D02*
X151510952Y-113482428D01*
X151130000Y-113863380D02*
X151130000Y-113101476D01*
X154178047Y-113482428D02*
X154939952Y-113482428D01*
X154559000Y-113863380D02*
X154559000Y-113101476D01*
X157670547Y-113545928D02*
X158432452Y-113545928D01*
X158051500Y-113926880D02*
X158051500Y-113164976D01*
X160972547Y-113609428D02*
X161734452Y-113609428D01*
X161353500Y-113990380D02*
X161353500Y-113228476D01*
X143510047Y-119768928D02*
X144271952Y-119768928D01*
X147002547Y-119768928D02*
X147764452Y-119768928D01*
X143637047Y-113482428D02*
X144398952Y-113482428D01*
X144018000Y-113863380D02*
X144018000Y-113101476D01*
X150749047Y-119768928D02*
X151510952Y-119768928D01*
D11*
X144406880Y-118562214D02*
X143406880Y-118562214D01*
X143406880Y-118324119D01*
X143454500Y-118181261D01*
X143549738Y-118086023D01*
X143644976Y-118038404D01*
X143835452Y-117990785D01*
X143978309Y-117990785D01*
X144168785Y-118038404D01*
X144264023Y-118086023D01*
X144359261Y-118181261D01*
X144406880Y-118324119D01*
X144406880Y-118562214D01*
X144406880Y-116990785D02*
X143930690Y-117324119D01*
X144406880Y-117562214D02*
X143406880Y-117562214D01*
X143406880Y-117181261D01*
X143454500Y-117086023D01*
X143502119Y-117038404D01*
X143597357Y-116990785D01*
X143740214Y-116990785D01*
X143835452Y-117038404D01*
X143883071Y-117086023D01*
X143930690Y-117181261D01*
X143930690Y-117562214D01*
X143406880Y-116562214D02*
X144216404Y-116562214D01*
X144311642Y-116514595D01*
X144359261Y-116466976D01*
X144406880Y-116371738D01*
X144406880Y-116181261D01*
X144359261Y-116086023D01*
X144311642Y-116038404D01*
X144216404Y-115990785D01*
X143406880Y-115990785D01*
X143454500Y-114990785D02*
X143406880Y-115086023D01*
X143406880Y-115228880D01*
X143454500Y-115371738D01*
X143549738Y-115466976D01*
X143644976Y-115514595D01*
X143835452Y-115562214D01*
X143978309Y-115562214D01*
X144168785Y-115514595D01*
X144264023Y-115466976D01*
X144359261Y-115371738D01*
X144406880Y-115228880D01*
X144406880Y-115133642D01*
X144359261Y-114990785D01*
X144311642Y-114943166D01*
X143978309Y-114943166D01*
X143978309Y-115133642D01*
D13*
X160972547Y-119768928D02*
X161734452Y-119768928D01*
D11*
X147899380Y-118792380D02*
X146899380Y-118792380D01*
X147613666Y-118459047D01*
X146899380Y-118125714D01*
X147899380Y-118125714D01*
X147375571Y-117649523D02*
X147375571Y-117316190D01*
X147899380Y-117173333D02*
X147899380Y-117649523D01*
X146899380Y-117649523D01*
X146899380Y-117173333D01*
X147899380Y-116744761D02*
X146899380Y-116744761D01*
X146899380Y-116506666D01*
X146947000Y-116363809D01*
X147042238Y-116268571D01*
X147137476Y-116220952D01*
X147327952Y-116173333D01*
X147470809Y-116173333D01*
X147661285Y-116220952D01*
X147756523Y-116268571D01*
X147851761Y-116363809D01*
X147899380Y-116506666D01*
X147899380Y-116744761D01*
X147899380Y-115744761D02*
X146899380Y-115744761D01*
X147613666Y-115316190D02*
X147613666Y-114840000D01*
X147899380Y-115411428D02*
X146899380Y-115078095D01*
X147899380Y-114744761D01*
D13*
X157607047Y-119768928D02*
X158368952Y-119768928D01*
X154051047Y-119768928D02*
X154812952Y-119768928D01*
X147066047Y-113482428D02*
X147827952Y-113482428D01*
X147447000Y-113863380D02*
X147447000Y-113101476D01*
X169037047Y-119895928D02*
X169798952Y-119895928D01*
X172529547Y-119895928D02*
X173291452Y-119895928D01*
X176276047Y-119895928D02*
X177037952Y-119895928D01*
X179578047Y-119895928D02*
X180339952Y-119895928D01*
X183388047Y-119895928D02*
X184149952Y-119895928D01*
X186499547Y-119895928D02*
X187261452Y-119895928D01*
X169164047Y-113609428D02*
X169925952Y-113609428D01*
X169545000Y-113990380D02*
X169545000Y-113228476D01*
X172593047Y-113609428D02*
X173354952Y-113609428D01*
X172974000Y-113990380D02*
X172974000Y-113228476D01*
D11*
X169933880Y-118689214D02*
X168933880Y-118689214D01*
X168933880Y-118451119D01*
X168981500Y-118308261D01*
X169076738Y-118213023D01*
X169171976Y-118165404D01*
X169362452Y-118117785D01*
X169505309Y-118117785D01*
X169695785Y-118165404D01*
X169791023Y-118213023D01*
X169886261Y-118308261D01*
X169933880Y-118451119D01*
X169933880Y-118689214D01*
X169933880Y-117117785D02*
X169457690Y-117451119D01*
X169933880Y-117689214D02*
X168933880Y-117689214D01*
X168933880Y-117308261D01*
X168981500Y-117213023D01*
X169029119Y-117165404D01*
X169124357Y-117117785D01*
X169267214Y-117117785D01*
X169362452Y-117165404D01*
X169410071Y-117213023D01*
X169457690Y-117308261D01*
X169457690Y-117689214D01*
X168933880Y-116689214D02*
X169743404Y-116689214D01*
X169838642Y-116641595D01*
X169886261Y-116593976D01*
X169933880Y-116498738D01*
X169933880Y-116308261D01*
X169886261Y-116213023D01*
X169838642Y-116165404D01*
X169743404Y-116117785D01*
X168933880Y-116117785D01*
X168981500Y-115117785D02*
X168933880Y-115213023D01*
X168933880Y-115355880D01*
X168981500Y-115498738D01*
X169076738Y-115593976D01*
X169171976Y-115641595D01*
X169362452Y-115689214D01*
X169505309Y-115689214D01*
X169695785Y-115641595D01*
X169791023Y-115593976D01*
X169886261Y-115498738D01*
X169933880Y-115355880D01*
X169933880Y-115260642D01*
X169886261Y-115117785D01*
X169838642Y-115070166D01*
X169505309Y-115070166D01*
X169505309Y-115260642D01*
X173426380Y-118919380D02*
X172426380Y-118919380D01*
X173140666Y-118586047D01*
X172426380Y-118252714D01*
X173426380Y-118252714D01*
X172902571Y-117776523D02*
X172902571Y-117443190D01*
X173426380Y-117300333D02*
X173426380Y-117776523D01*
X172426380Y-117776523D01*
X172426380Y-117300333D01*
X173426380Y-116871761D02*
X172426380Y-116871761D01*
X172426380Y-116633666D01*
X172474000Y-116490809D01*
X172569238Y-116395571D01*
X172664476Y-116347952D01*
X172854952Y-116300333D01*
X172997809Y-116300333D01*
X173188285Y-116347952D01*
X173283523Y-116395571D01*
X173378761Y-116490809D01*
X173426380Y-116633666D01*
X173426380Y-116871761D01*
X173426380Y-115871761D02*
X172426380Y-115871761D01*
X173140666Y-115443190D02*
X173140666Y-114967000D01*
X173426380Y-115538428D02*
X172426380Y-115205095D01*
X173426380Y-114871761D01*
D13*
X176276047Y-113609428D02*
X177037952Y-113609428D01*
X176657000Y-113990380D02*
X176657000Y-113228476D01*
X179705047Y-113609428D02*
X180466952Y-113609428D01*
X180086000Y-113990380D02*
X180086000Y-113228476D01*
X183451547Y-113672928D02*
X184213452Y-113672928D01*
X183832500Y-114053880D02*
X183832500Y-113291976D01*
X186499547Y-113736428D02*
X187261452Y-113736428D01*
X186880500Y-114117380D02*
X186880500Y-113355476D01*
D11*
X176045880Y-119197166D02*
X177045880Y-118959071D01*
X176331595Y-118768595D01*
X177045880Y-118578119D01*
X176045880Y-118340023D01*
X176760166Y-118006690D02*
X176760166Y-117530500D01*
X177045880Y-118101928D02*
X176045880Y-117768595D01*
X177045880Y-117435261D01*
X176998261Y-117149547D02*
X177045880Y-117006690D01*
X177045880Y-116768595D01*
X176998261Y-116673357D01*
X176950642Y-116625738D01*
X176855404Y-116578119D01*
X176760166Y-116578119D01*
X176664928Y-116625738D01*
X176617309Y-116673357D01*
X176569690Y-116768595D01*
X176522071Y-116959071D01*
X176474452Y-117054309D01*
X176426833Y-117101928D01*
X176331595Y-117149547D01*
X176236357Y-117149547D01*
X176141119Y-117101928D01*
X176093500Y-117054309D01*
X176045880Y-116959071D01*
X176045880Y-116720976D01*
X176093500Y-116578119D01*
X176045880Y-116292404D02*
X176045880Y-115720976D01*
X177045880Y-116006690D02*
X176045880Y-116006690D01*
X176522071Y-115387642D02*
X176522071Y-115054309D01*
X177045880Y-114911452D02*
X177045880Y-115387642D01*
X176045880Y-115387642D01*
X176045880Y-114911452D01*
D12*
X179978857Y-118244785D02*
X179978857Y-118744785D01*
X180764571Y-118744785D02*
X179264571Y-118744785D01*
X179264571Y-118030500D01*
X180336000Y-117530500D02*
X180336000Y-116816214D01*
X180764571Y-117673357D02*
X179264571Y-117173357D01*
X180764571Y-116673357D01*
X180764571Y-116173357D02*
X179264571Y-116173357D01*
X180764571Y-115316214D01*
X179264571Y-115316214D01*
X184511071Y-117994785D02*
X184511071Y-118709071D01*
X183011071Y-118709071D01*
X183725357Y-117494785D02*
X183725357Y-116994785D01*
X184511071Y-116780500D02*
X184511071Y-117494785D01*
X183011071Y-117494785D01*
X183011071Y-116780500D01*
X184511071Y-116137642D02*
X183011071Y-116137642D01*
X183011071Y-115780500D01*
X183082500Y-115566214D01*
X183225357Y-115423357D01*
X183368214Y-115351928D01*
X183653928Y-115280500D01*
X183868214Y-115280500D01*
X184153928Y-115351928D01*
X184296785Y-115423357D01*
X184439642Y-115566214D01*
X184511071Y-115780500D01*
X184511071Y-116137642D01*
D10*
X164806452Y-113581690D02*
X164806452Y-113986452D01*
X164830261Y-114034071D01*
X164854071Y-114057880D01*
X164901690Y-114081690D01*
X164996928Y-114081690D01*
X165044547Y-114057880D01*
X165068357Y-114034071D01*
X165092166Y-113986452D01*
X165092166Y-113581690D01*
X165330261Y-114081690D02*
X165330261Y-113581690D01*
X165520738Y-113581690D01*
X165568357Y-113605500D01*
X165592166Y-113629309D01*
X165615976Y-113676928D01*
X165615976Y-113748357D01*
X165592166Y-113795976D01*
X165568357Y-113819785D01*
X165520738Y-113843595D01*
X165330261Y-113843595D01*
X165830261Y-114081690D02*
X165830261Y-113581690D01*
X166020738Y-113581690D01*
X166068357Y-113605500D01*
X166092166Y-113629309D01*
X166115976Y-113676928D01*
X166115976Y-113748357D01*
X166092166Y-113795976D01*
X166068357Y-113819785D01*
X166020738Y-113843595D01*
X165830261Y-113843595D01*
X166330261Y-113819785D02*
X166496928Y-113819785D01*
X166568357Y-114081690D02*
X166330261Y-114081690D01*
X166330261Y-113581690D01*
X166568357Y-113581690D01*
X167068357Y-114081690D02*
X166901690Y-113843595D01*
X166782642Y-114081690D02*
X166782642Y-113581690D01*
X166973119Y-113581690D01*
X167020738Y-113605500D01*
X167044547Y-113629309D01*
X167068357Y-113676928D01*
X167068357Y-113748357D01*
X167044547Y-113795976D01*
X167020738Y-113819785D01*
X166973119Y-113843595D01*
X166782642Y-113843595D01*
X164929452Y-120050690D02*
X164691357Y-120050690D01*
X164691357Y-119550690D01*
X165191357Y-119550690D02*
X165286595Y-119550690D01*
X165334214Y-119574500D01*
X165381833Y-119622119D01*
X165405642Y-119717357D01*
X165405642Y-119884023D01*
X165381833Y-119979261D01*
X165334214Y-120026880D01*
X165286595Y-120050690D01*
X165191357Y-120050690D01*
X165143738Y-120026880D01*
X165096119Y-119979261D01*
X165072309Y-119884023D01*
X165072309Y-119717357D01*
X165096119Y-119622119D01*
X165143738Y-119574500D01*
X165191357Y-119550690D01*
X165572309Y-119550690D02*
X165691357Y-120050690D01*
X165786595Y-119693547D01*
X165881833Y-120050690D01*
X166000880Y-119550690D01*
X166191357Y-119788785D02*
X166358023Y-119788785D01*
X166429452Y-120050690D02*
X166191357Y-120050690D01*
X166191357Y-119550690D01*
X166429452Y-119550690D01*
X166929452Y-120050690D02*
X166762785Y-119812595D01*
X166643738Y-120050690D02*
X166643738Y-119550690D01*
X166834214Y-119550690D01*
X166881833Y-119574500D01*
X166905642Y-119598309D01*
X166929452Y-119645928D01*
X166929452Y-119717357D01*
X166905642Y-119764976D01*
X166881833Y-119788785D01*
X166834214Y-119812595D01*
X166643738Y-119812595D01*
D12*
X187686071Y-118300357D02*
X186186071Y-118300357D01*
X186186071Y-117728928D01*
X186257500Y-117586071D01*
X186328928Y-117514642D01*
X186471785Y-117443214D01*
X186686071Y-117443214D01*
X186828928Y-117514642D01*
X186900357Y-117586071D01*
X186971785Y-117728928D01*
X186971785Y-118300357D01*
X187686071Y-116800357D02*
X186186071Y-116800357D01*
X186186071Y-116443214D01*
X186257500Y-116228928D01*
X186400357Y-116086071D01*
X186543214Y-116014642D01*
X186828928Y-115943214D01*
X187043214Y-115943214D01*
X187328928Y-116014642D01*
X187471785Y-116086071D01*
X187614642Y-116228928D01*
X187686071Y-116443214D01*
X187686071Y-116800357D01*
D13*
X103703523Y-122277142D02*
X103655904Y-122324761D01*
X103513047Y-122372380D01*
X103417809Y-122372380D01*
X103274952Y-122324761D01*
X103179714Y-122229523D01*
X103132095Y-122134285D01*
X103084476Y-121943809D01*
X103084476Y-121800952D01*
X103132095Y-121610476D01*
X103179714Y-121515238D01*
X103274952Y-121420000D01*
X103417809Y-121372380D01*
X103513047Y-121372380D01*
X103655904Y-121420000D01*
X103703523Y-121467619D01*
X104132095Y-121372380D02*
X104132095Y-122181904D01*
X104179714Y-122277142D01*
X104227333Y-122324761D01*
X104322571Y-122372380D01*
X104513047Y-122372380D01*
X104608285Y-122324761D01*
X104655904Y-122277142D01*
X104703523Y-122181904D01*
X104703523Y-121372380D01*
X105608285Y-121705714D02*
X105608285Y-122372380D01*
X105370190Y-121324761D02*
X105132095Y-122039047D01*
X105751142Y-122039047D01*
X129865523Y-122277142D02*
X129817904Y-122324761D01*
X129675047Y-122372380D01*
X129579809Y-122372380D01*
X129436952Y-122324761D01*
X129341714Y-122229523D01*
X129294095Y-122134285D01*
X129246476Y-121943809D01*
X129246476Y-121800952D01*
X129294095Y-121610476D01*
X129341714Y-121515238D01*
X129436952Y-121420000D01*
X129579809Y-121372380D01*
X129675047Y-121372380D01*
X129817904Y-121420000D01*
X129865523Y-121467619D01*
X130294095Y-121372380D02*
X130294095Y-122181904D01*
X130341714Y-122277142D01*
X130389333Y-122324761D01*
X130484571Y-122372380D01*
X130675047Y-122372380D01*
X130770285Y-122324761D01*
X130817904Y-122277142D01*
X130865523Y-122181904D01*
X130865523Y-121372380D01*
X131246476Y-121372380D02*
X131865523Y-121372380D01*
X131532190Y-121753333D01*
X131675047Y-121753333D01*
X131770285Y-121800952D01*
X131817904Y-121848571D01*
X131865523Y-121943809D01*
X131865523Y-122181904D01*
X131817904Y-122277142D01*
X131770285Y-122324761D01*
X131675047Y-122372380D01*
X131389333Y-122372380D01*
X131294095Y-122324761D01*
X131246476Y-122277142D01*
X156535523Y-122277142D02*
X156487904Y-122324761D01*
X156345047Y-122372380D01*
X156249809Y-122372380D01*
X156106952Y-122324761D01*
X156011714Y-122229523D01*
X155964095Y-122134285D01*
X155916476Y-121943809D01*
X155916476Y-121800952D01*
X155964095Y-121610476D01*
X156011714Y-121515238D01*
X156106952Y-121420000D01*
X156249809Y-121372380D01*
X156345047Y-121372380D01*
X156487904Y-121420000D01*
X156535523Y-121467619D01*
X156964095Y-121372380D02*
X156964095Y-122181904D01*
X157011714Y-122277142D01*
X157059333Y-122324761D01*
X157154571Y-122372380D01*
X157345047Y-122372380D01*
X157440285Y-122324761D01*
X157487904Y-122277142D01*
X157535523Y-122181904D01*
X157535523Y-121372380D01*
X157964095Y-121467619D02*
X158011714Y-121420000D01*
X158106952Y-121372380D01*
X158345047Y-121372380D01*
X158440285Y-121420000D01*
X158487904Y-121467619D01*
X158535523Y-121562857D01*
X158535523Y-121658095D01*
X158487904Y-121800952D01*
X157916476Y-122372380D01*
X158535523Y-122372380D01*
X181935523Y-122277142D02*
X181887904Y-122324761D01*
X181745047Y-122372380D01*
X181649809Y-122372380D01*
X181506952Y-122324761D01*
X181411714Y-122229523D01*
X181364095Y-122134285D01*
X181316476Y-121943809D01*
X181316476Y-121800952D01*
X181364095Y-121610476D01*
X181411714Y-121515238D01*
X181506952Y-121420000D01*
X181649809Y-121372380D01*
X181745047Y-121372380D01*
X181887904Y-121420000D01*
X181935523Y-121467619D01*
X182364095Y-121372380D02*
X182364095Y-122181904D01*
X182411714Y-122277142D01*
X182459333Y-122324761D01*
X182554571Y-122372380D01*
X182745047Y-122372380D01*
X182840285Y-122324761D01*
X182887904Y-122277142D01*
X182935523Y-122181904D01*
X182935523Y-121372380D01*
X183935523Y-122372380D02*
X183364095Y-122372380D01*
X183649809Y-122372380D02*
X183649809Y-121372380D01*
X183554571Y-121515238D01*
X183459333Y-121610476D01*
X183364095Y-121658095D01*
X138379450Y-52918149D02*
X137938973Y-52441959D01*
X137522307Y-52918149D02*
X137647307Y-51918149D01*
X138218735Y-51918149D01*
X138355640Y-51965769D01*
X138421116Y-52013388D01*
X138480640Y-52108626D01*
X138462783Y-52251483D01*
X138379450Y-52346721D01*
X138302069Y-52394340D01*
X138153259Y-52441959D01*
X137581831Y-52441959D01*
X139087783Y-52394340D02*
X139587783Y-52394340D01*
X139736593Y-52918149D02*
X139022307Y-52918149D01*
X139147307Y-51918149D01*
X139861593Y-51918149D01*
X140290164Y-51918149D02*
X140665164Y-52918149D01*
X141290164Y-51918149D01*
X143534212Y-52251483D02*
X143450878Y-52918149D01*
X143224688Y-51870530D02*
X142778259Y-52584816D01*
X143706831Y-52584816D01*
X144248497Y-52822911D02*
X144313973Y-52870530D01*
X144236593Y-52918149D01*
X144171116Y-52870530D01*
X144248497Y-52822911D01*
X144236593Y-52918149D01*
X145790164Y-51918149D02*
X145075878Y-51918149D01*
X144944926Y-52394340D01*
X145022307Y-52346721D01*
X145171116Y-52299102D01*
X145528259Y-52299102D01*
X145665164Y-52346721D01*
X145730640Y-52394340D01*
X145790164Y-52489578D01*
X145760402Y-52727673D01*
X145677069Y-52822911D01*
X145599688Y-52870530D01*
X145450878Y-52918149D01*
X145093735Y-52918149D01*
X144956831Y-52870530D01*
X144891354Y-52822911D01*
D12*
X137237560Y-49818626D02*
X137737560Y-49818626D01*
X137951846Y-50604340D02*
X137237560Y-50604340D01*
X137237560Y-49104340D01*
X137951846Y-49104340D01*
X138380417Y-49104340D02*
X138880417Y-50604340D01*
X139380417Y-49104340D01*
X139880417Y-49818626D02*
X140380417Y-49818626D01*
X140594703Y-50604340D02*
X139880417Y-50604340D01*
X139880417Y-49104340D01*
X140594703Y-49104340D01*
X140880417Y-50747197D02*
X142023274Y-50747197D01*
X142380417Y-50604340D02*
X142380417Y-49104340D01*
X142951846Y-49104340D01*
X143094703Y-49175769D01*
X143166131Y-49247197D01*
X143237560Y-49390054D01*
X143237560Y-49604340D01*
X143166131Y-49747197D01*
X143094703Y-49818626D01*
X142951846Y-49890054D01*
X142380417Y-49890054D01*
X144737560Y-50461483D02*
X144666131Y-50532911D01*
X144451846Y-50604340D01*
X144308988Y-50604340D01*
X144094703Y-50532911D01*
X143951846Y-50390054D01*
X143880417Y-50247197D01*
X143808988Y-49961483D01*
X143808988Y-49747197D01*
X143880417Y-49461483D01*
X143951846Y-49318626D01*
X144094703Y-49175769D01*
X144308988Y-49104340D01*
X144451846Y-49104340D01*
X144666131Y-49175769D01*
X144737560Y-49247197D01*
X145880417Y-49818626D02*
X146094703Y-49890054D01*
X146166131Y-49961483D01*
X146237560Y-50104340D01*
X146237560Y-50318626D01*
X146166131Y-50461483D01*
X146094703Y-50532911D01*
X145951846Y-50604340D01*
X145380417Y-50604340D01*
X145380417Y-49104340D01*
X145880417Y-49104340D01*
X146023274Y-49175769D01*
X146094703Y-49247197D01*
X146166131Y-49390054D01*
X146166131Y-49532911D01*
X146094703Y-49675769D01*
X146023274Y-49747197D01*
X145880417Y-49818626D01*
X145380417Y-49818626D01*
D14*
X141859000Y-61300000D02*
X143359000Y-61300000D01*
X141859000Y-61300000D02*
X140359000Y-61300000D01*
X141859000Y-58080000D02*
X143359000Y-58080000D01*
X141859000Y-58080000D02*
X138984000Y-58080000D01*
X157303000Y-70052000D02*
X155488000Y-70052000D01*
X157303000Y-69807000D02*
X157303000Y-70052000D01*
X161163000Y-69807000D02*
X157303000Y-69807000D01*
X165023000Y-69807000D02*
X165023000Y-70052000D01*
X161163000Y-69807000D02*
X165023000Y-69807000D01*
X157303000Y-81577000D02*
X157303000Y-81332000D01*
X161163000Y-81577000D02*
X157303000Y-81577000D01*
X165023000Y-81577000D02*
X165023000Y-81332000D01*
X161163000Y-81577000D02*
X165023000Y-81577000D01*
D11*
X88992346Y-94010000D02*
X88992346Y-105110000D01*
X111492346Y-94010000D02*
X88992346Y-94010000D01*
X111492346Y-112010000D02*
X111492346Y-94010000D01*
X91092346Y-112010000D02*
X111492346Y-112010000D01*
D14*
X102112500Y-84815936D02*
X102112500Y-88920064D01*
X105532500Y-84815936D02*
X105532500Y-88920064D01*
X117733500Y-84815936D02*
X117733500Y-88920064D01*
X121153500Y-84815936D02*
X121153500Y-88920064D01*
X164850500Y-84879436D02*
X164850500Y-88983564D01*
X168270500Y-84879436D02*
X168270500Y-88983564D01*
X180344500Y-84879436D02*
X180344500Y-88983564D01*
X183764500Y-84879436D02*
X183764500Y-88983564D01*
X167733346Y-36276769D02*
X167733346Y-37606769D01*
X166403346Y-36276769D02*
X167733346Y-36276769D01*
X167733346Y-38876769D02*
X167733346Y-41476769D01*
X165133346Y-38876769D02*
X167733346Y-38876769D01*
X165133346Y-36276769D02*
X165133346Y-38876769D01*
X167733346Y-41476769D02*
X116813346Y-41476769D01*
X165133346Y-36276769D02*
X116813346Y-36276769D01*
X116813346Y-36276769D02*
X116813346Y-41476769D01*
D11*
X167414846Y-94010000D02*
X167414846Y-105110000D01*
X189914846Y-94010000D02*
X167414846Y-94010000D01*
X189914846Y-112010000D02*
X189914846Y-94010000D01*
X169514846Y-112010000D02*
X189914846Y-112010000D01*
X141697346Y-94010000D02*
X141697346Y-105110000D01*
X164197346Y-94010000D02*
X141697346Y-94010000D01*
X164197346Y-112010000D02*
X164197346Y-94010000D01*
X143797346Y-112010000D02*
X164197346Y-112010000D01*
X115281346Y-94010000D02*
X115281346Y-105110000D01*
X137781346Y-94010000D02*
X115281346Y-94010000D01*
X137781346Y-112010000D02*
X137781346Y-94010000D01*
X117381346Y-112010000D02*
X137781346Y-112010000D01*
D14*
X176352000Y-120785000D02*
X172467000Y-120785000D01*
X172467000Y-120785000D02*
X172467000Y-123055000D01*
X172467000Y-123055000D02*
X176352000Y-123055000D01*
X150952000Y-120785000D02*
X147067000Y-120785000D01*
X147067000Y-120785000D02*
X147067000Y-123055000D01*
X147067000Y-123055000D02*
X150952000Y-123055000D01*
X120781000Y-123055000D02*
X124666000Y-123055000D01*
X120781000Y-120785000D02*
X120781000Y-123055000D01*
X124666000Y-120785000D02*
X120781000Y-120785000D01*
X97990000Y-120785000D02*
X94105000Y-120785000D01*
X94105000Y-120785000D02*
X94105000Y-123055000D01*
X94105000Y-123055000D02*
X97990000Y-123055000D01*
X172563022Y-50140800D02*
X173080178Y-50140800D01*
X172563022Y-51560800D02*
X173080178Y-51560800D01*
X90192846Y-42088269D02*
X90192846Y-36688269D01*
X93492846Y-42088269D02*
X93492846Y-36688269D01*
X90192846Y-42088269D02*
X93492846Y-42088269D01*
X96713846Y-42151769D02*
X96713846Y-36751769D01*
X100013846Y-42151769D02*
X100013846Y-36751769D01*
X96713846Y-42151769D02*
X100013846Y-42151769D01*
X109946346Y-42088269D02*
X113246346Y-42088269D01*
X113246346Y-42088269D02*
X113246346Y-36688269D01*
X109946346Y-42088269D02*
X109946346Y-36688269D01*
X103361846Y-51221769D02*
X106661846Y-51221769D01*
X106661846Y-51221769D02*
X106661846Y-45821769D01*
X103361846Y-51221769D02*
X103361846Y-45821769D01*
X103361846Y-42151769D02*
X106661846Y-42151769D01*
X106661846Y-42151769D02*
X106661846Y-36751769D01*
X103361846Y-42151769D02*
X103361846Y-36751769D01*
X96713846Y-51221769D02*
X96713846Y-45821769D01*
X100013846Y-51221769D02*
X100013846Y-45821769D01*
X96713846Y-51221769D02*
X100013846Y-51221769D01*
X109946346Y-51221769D02*
X109946346Y-45821769D01*
X113246346Y-51221769D02*
X113246346Y-45821769D01*
X109946346Y-51221769D02*
X113246346Y-51221769D01*
X109946346Y-60291769D02*
X113246346Y-60291769D01*
X113246346Y-60291769D02*
X113246346Y-54891769D01*
X109946346Y-60291769D02*
X109946346Y-54891769D01*
X90192846Y-51221769D02*
X90192846Y-45821769D01*
X93492846Y-51221769D02*
X93492846Y-45821769D01*
X90192846Y-51221769D02*
X93492846Y-51221769D01*
X96713846Y-60291769D02*
X96713846Y-54891769D01*
X100013846Y-60291769D02*
X100013846Y-54891769D01*
X96713846Y-60291769D02*
X100013846Y-60291769D01*
X103361846Y-60291769D02*
X106661846Y-60291769D01*
X106661846Y-60291769D02*
X106661846Y-54891769D01*
X103361846Y-60291769D02*
X103361846Y-54891769D01*
X90192846Y-60291769D02*
X90192846Y-54891769D01*
X93492846Y-60291769D02*
X93492846Y-54891769D01*
X90192846Y-60291769D02*
X93492846Y-60291769D01*
X181330000Y-37513200D02*
X190330000Y-37513200D01*
X190330000Y-37513200D02*
X190330000Y-46713200D01*
X190330000Y-46713200D02*
X175730000Y-46713200D01*
X175730000Y-46713200D02*
X175730000Y-43913200D01*
X175730000Y-40313200D02*
X175730000Y-37513200D01*
X175730000Y-37513200D02*
X177730000Y-37513200D01*
X177230000Y-46953200D02*
X175490000Y-46953200D01*
X175490000Y-46953200D02*
X175490000Y-45213200D01*
X129286000Y-91747500D02*
X131236000Y-91747500D01*
X129286000Y-91747500D02*
X127336000Y-91747500D01*
X129286000Y-82877500D02*
X131236000Y-82877500D01*
X129286000Y-82877500D02*
X125836000Y-82877500D01*
X178562000Y-69807000D02*
X174702000Y-69807000D01*
X174702000Y-69807000D02*
X174702000Y-70052000D01*
X178562000Y-69807000D02*
X182422000Y-69807000D01*
X182422000Y-69807000D02*
X182422000Y-70052000D01*
X178562000Y-81577000D02*
X174702000Y-81577000D01*
X174702000Y-81577000D02*
X174702000Y-81332000D01*
X178562000Y-81577000D02*
X182422000Y-81577000D01*
X182422000Y-81577000D02*
X182422000Y-81332000D01*
X182422000Y-81332000D02*
X184237000Y-81332000D01*
X118237000Y-69680000D02*
X114377000Y-69680000D01*
X114377000Y-69680000D02*
X114377000Y-69925000D01*
X118237000Y-69680000D02*
X122097000Y-69680000D01*
X122097000Y-69680000D02*
X122097000Y-69925000D01*
X118237000Y-81450000D02*
X114377000Y-81450000D01*
X114377000Y-81450000D02*
X114377000Y-81205000D01*
X118237000Y-81450000D02*
X122097000Y-81450000D01*
X122097000Y-81450000D02*
X122097000Y-81205000D01*
X122097000Y-81205000D02*
X123912000Y-81205000D01*
X97105000Y-69925000D02*
X95290000Y-69925000D01*
X97105000Y-69680000D02*
X97105000Y-69925000D01*
X100965000Y-69680000D02*
X97105000Y-69680000D01*
X104825000Y-69680000D02*
X104825000Y-69925000D01*
X100965000Y-69680000D02*
X104825000Y-69680000D01*
X97105000Y-81450000D02*
X97105000Y-81205000D01*
X100965000Y-81450000D02*
X97105000Y-81450000D01*
X104825000Y-81450000D02*
X104825000Y-81205000D01*
X100965000Y-81450000D02*
X104825000Y-81450000D01*
X187746000Y-52952400D02*
X177506000Y-52952400D01*
X187746000Y-48311400D02*
X177506000Y-48311400D01*
X187746000Y-52952400D02*
X187746000Y-48311400D01*
X177506000Y-52952400D02*
X177506000Y-48311400D01*
X187746000Y-51442400D02*
X177506000Y-51442400D01*
X184476000Y-52952400D02*
X184476000Y-51442400D01*
X180775000Y-52952400D02*
X180775000Y-51442400D01*
X189203000Y-79463000D02*
X189203000Y-77178000D01*
X187733000Y-79463000D02*
X189203000Y-79463000D01*
X187733000Y-77178000D02*
X187733000Y-79463000D01*
X165561778Y-65327600D02*
X165044622Y-65327600D01*
X165561778Y-63907600D02*
X165044622Y-63907600D01*
X187733000Y-71082000D02*
X187733000Y-73367000D01*
X187733000Y-73367000D02*
X189203000Y-73367000D01*
X189203000Y-73367000D02*
X189203000Y-71082000D01*
X165561778Y-68274000D02*
X165044622Y-68274000D01*
X165561778Y-66854000D02*
X165044622Y-66854000D01*
X172708500Y-86101422D02*
X172708500Y-86618578D01*
X174128500Y-86101422D02*
X174128500Y-86618578D01*
X159396500Y-87117422D02*
X159396500Y-87634578D01*
X157976500Y-87117422D02*
X157976500Y-87634578D01*
X111644500Y-86799922D02*
X111644500Y-87317078D01*
X110224500Y-86799922D02*
X110224500Y-87317078D01*
X94603500Y-86609422D02*
X94603500Y-87126578D01*
X96023500Y-86609422D02*
X96023500Y-87126578D01*
X147095000Y-83757500D02*
X147095000Y-87057500D01*
X147095000Y-87057500D02*
X152495000Y-87057500D01*
X147095000Y-83757500D02*
X152495000Y-83757500D01*
X147222000Y-88710500D02*
X152622000Y-88710500D01*
X147222000Y-92010500D02*
X152622000Y-92010500D01*
X147222000Y-88710500D02*
X147222000Y-92010500D01*
X138141500Y-83757500D02*
X138141500Y-87057500D01*
X138141500Y-87057500D02*
X143541500Y-87057500D01*
X138141500Y-83757500D02*
X143541500Y-83757500D01*
X138141500Y-88710500D02*
X143541500Y-88710500D01*
X138141500Y-92010500D02*
X143541500Y-92010500D01*
X138141500Y-88710500D02*
X138141500Y-92010500D01*
X170245500Y-55443000D02*
X170245500Y-56373000D01*
X170245500Y-58603000D02*
X170245500Y-57673000D01*
X170245500Y-58603000D02*
X172405500Y-58603000D01*
X170245500Y-55443000D02*
X171705500Y-55443000D01*
X177243200Y-55468400D02*
X178703200Y-55468400D01*
X177243200Y-58628400D02*
X179403200Y-58628400D01*
X177243200Y-58628400D02*
X177243200Y-57698400D01*
X177243200Y-55468400D02*
X177243200Y-56398400D01*
X178369500Y-90543500D02*
X176909500Y-90543500D01*
X178369500Y-87383500D02*
X176209500Y-87383500D01*
X178369500Y-87383500D02*
X178369500Y-88313500D01*
X178369500Y-90543500D02*
X178369500Y-89613500D01*
X162939000Y-90607000D02*
X162939000Y-89677000D01*
X162939000Y-87447000D02*
X162939000Y-88377000D01*
X162939000Y-87447000D02*
X160779000Y-87447000D01*
X162939000Y-90607000D02*
X161479000Y-90607000D01*
X115695000Y-90480000D02*
X115695000Y-89550000D01*
X115695000Y-87320000D02*
X115695000Y-88250000D01*
X115695000Y-87320000D02*
X113535000Y-87320000D01*
X115695000Y-90480000D02*
X114235000Y-90480000D01*
X99566000Y-90480000D02*
X98106000Y-90480000D01*
X99566000Y-87320000D02*
X97406000Y-87320000D01*
X99566000Y-87320000D02*
X99566000Y-88250000D01*
X99566000Y-90480000D02*
X99566000Y-89550000D01*
X141732000Y-78747000D02*
X144042000Y-78747000D01*
X144042000Y-78747000D02*
X144042000Y-78472000D01*
X141732000Y-78747000D02*
X139422000Y-78747000D01*
X139422000Y-78747000D02*
X139422000Y-78472000D01*
X141732000Y-68827000D02*
X144042000Y-68827000D01*
X144042000Y-68827000D02*
X144042000Y-69102000D01*
X141732000Y-68827000D02*
X139422000Y-68827000D01*
X139422000Y-68827000D02*
X139422000Y-69102000D01*
X139422000Y-69102000D02*
X138132000Y-69102000D01*
X152477000Y-45795000D02*
X150662000Y-45795000D01*
X152477000Y-45550000D02*
X152477000Y-45795000D01*
X156337000Y-45550000D02*
X152477000Y-45550000D01*
X160197000Y-45550000D02*
X160197000Y-45795000D01*
X156337000Y-45550000D02*
X160197000Y-45550000D01*
X152477000Y-63670000D02*
X152477000Y-63425000D01*
X156337000Y-63670000D02*
X152477000Y-63670000D01*
X160197000Y-63670000D02*
X160197000Y-63425000D01*
X156337000Y-63670000D02*
X160197000Y-63670000D01*
X128016000Y-63797000D02*
X131876000Y-63797000D01*
X131876000Y-63797000D02*
X131876000Y-63552000D01*
X128016000Y-63797000D02*
X124156000Y-63797000D01*
X124156000Y-63797000D02*
X124156000Y-63552000D01*
X128016000Y-45677000D02*
X131876000Y-45677000D01*
X131876000Y-45677000D02*
X131876000Y-45922000D01*
X128016000Y-45677000D02*
X124156000Y-45677000D01*
X124156000Y-45677000D02*
X124156000Y-45922000D01*
X124156000Y-45922000D02*
X122341000Y-45922000D01*
D11*
X182980400Y-66930400D02*
X182980400Y-58850400D01*
X182980400Y-58850400D02*
X189180400Y-58850400D01*
X189180400Y-58850400D02*
X189180400Y-66930400D01*
X189180400Y-66930400D02*
X182980400Y-66930400D01*
X186080400Y-67490400D02*
X186080400Y-67490400D01*
X186080400Y-67690400D02*
X186080400Y-67690400D01*
D15*
X189180400Y-66930400D02*
X182980400Y-66930400D01*
X182980400Y-66930400D02*
X182980400Y-58850400D01*
X182980400Y-58850400D02*
X189180400Y-58850400D01*
D11*
X186080400Y-67690400D02*
G75*
G02X186080400Y-67490400I0J100000D01*
G01*
X186080400Y-67490400D02*
G75*
G02X186080400Y-67690400I0J-100000D01*
G01*
D14*
X175922400Y-61310400D02*
X175922400Y-62240400D01*
X175922400Y-64470400D02*
X175922400Y-63540400D01*
X175922400Y-64470400D02*
X178082400Y-64470400D01*
X175922400Y-61310400D02*
X177382400Y-61310400D01*
X173636528Y-43737268D02*
G75*
G02X170995189Y-43219368I-1780128J-2084332D01*
G01*
X180541200Y-55890379D02*
X180541200Y-55564821D01*
X181561200Y-55890379D02*
X181561200Y-55564821D01*
D16*
X141097095Y-56692380D02*
X141097095Y-57501904D01*
X141144714Y-57597142D01*
X141192333Y-57644761D01*
X141287571Y-57692380D01*
X141478047Y-57692380D01*
X141573285Y-57644761D01*
X141620904Y-57597142D01*
X141668523Y-57501904D01*
X141668523Y-56692380D01*
X142097095Y-56787619D02*
X142144714Y-56740000D01*
X142239952Y-56692380D01*
X142478047Y-56692380D01*
X142573285Y-56740000D01*
X142620904Y-56787619D01*
X142668523Y-56882857D01*
X142668523Y-56978095D01*
X142620904Y-57120952D01*
X142049476Y-57692380D01*
X142668523Y-57692380D01*
X161067761Y-69519619D02*
X160972523Y-69472000D01*
X160877285Y-69376761D01*
X160734428Y-69233904D01*
X160639190Y-69186285D01*
X160543952Y-69186285D01*
X160591571Y-69424380D02*
X160496333Y-69376761D01*
X160401095Y-69281523D01*
X160353476Y-69091047D01*
X160353476Y-68757714D01*
X160401095Y-68567238D01*
X160496333Y-68472000D01*
X160591571Y-68424380D01*
X160782047Y-68424380D01*
X160877285Y-68472000D01*
X160972523Y-68567238D01*
X161020142Y-68757714D01*
X161020142Y-69091047D01*
X160972523Y-69281523D01*
X160877285Y-69376761D01*
X160782047Y-69424380D01*
X160591571Y-69424380D01*
X161353476Y-68424380D02*
X161972523Y-68424380D01*
X161639190Y-68805333D01*
X161782047Y-68805333D01*
X161877285Y-68852952D01*
X161924904Y-68900571D01*
X161972523Y-68995809D01*
X161972523Y-69233904D01*
X161924904Y-69329142D01*
X161877285Y-69376761D01*
X161782047Y-69424380D01*
X161496333Y-69424380D01*
X161401095Y-69376761D01*
X161353476Y-69329142D01*
D17*
X89483679Y-93111523D02*
X88878917Y-93111523D01*
X88878917Y-91841523D01*
X90451298Y-92264857D02*
X90451298Y-93111523D01*
X90148917Y-91781047D02*
X89846536Y-92688190D01*
X90632726Y-92688190D01*
D16*
X106894880Y-87510857D02*
X106418690Y-87844190D01*
X106894880Y-88082285D02*
X105894880Y-88082285D01*
X105894880Y-87701333D01*
X105942500Y-87606095D01*
X105990119Y-87558476D01*
X106085357Y-87510857D01*
X106228214Y-87510857D01*
X106323452Y-87558476D01*
X106371071Y-87606095D01*
X106418690Y-87701333D01*
X106418690Y-88082285D01*
X105990119Y-87129904D02*
X105942500Y-87082285D01*
X105894880Y-86987047D01*
X105894880Y-86748952D01*
X105942500Y-86653714D01*
X105990119Y-86606095D01*
X106085357Y-86558476D01*
X106180595Y-86558476D01*
X106323452Y-86606095D01*
X106894880Y-87177523D01*
X106894880Y-86558476D01*
X105894880Y-85653714D02*
X105894880Y-86129904D01*
X106371071Y-86177523D01*
X106323452Y-86129904D01*
X106275833Y-86034666D01*
X106275833Y-85796571D01*
X106323452Y-85701333D01*
X106371071Y-85653714D01*
X106466309Y-85606095D01*
X106704404Y-85606095D01*
X106799642Y-85653714D01*
X106847261Y-85701333D01*
X106894880Y-85796571D01*
X106894880Y-86034666D01*
X106847261Y-86129904D01*
X106799642Y-86177523D01*
X118800642Y-92019380D02*
X118467309Y-91543190D01*
X118229214Y-92019380D02*
X118229214Y-91019380D01*
X118610166Y-91019380D01*
X118705404Y-91067000D01*
X118753023Y-91114619D01*
X118800642Y-91209857D01*
X118800642Y-91352714D01*
X118753023Y-91447952D01*
X118705404Y-91495571D01*
X118610166Y-91543190D01*
X118229214Y-91543190D01*
X119181595Y-91114619D02*
X119229214Y-91067000D01*
X119324452Y-91019380D01*
X119562547Y-91019380D01*
X119657785Y-91067000D01*
X119705404Y-91114619D01*
X119753023Y-91209857D01*
X119753023Y-91305095D01*
X119705404Y-91447952D01*
X119133976Y-92019380D01*
X119753023Y-92019380D01*
X120610166Y-91352714D02*
X120610166Y-92019380D01*
X120372071Y-90971761D02*
X120133976Y-91686047D01*
X120753023Y-91686047D01*
X169632880Y-87574357D02*
X169156690Y-87907690D01*
X169632880Y-88145785D02*
X168632880Y-88145785D01*
X168632880Y-87764833D01*
X168680500Y-87669595D01*
X168728119Y-87621976D01*
X168823357Y-87574357D01*
X168966214Y-87574357D01*
X169061452Y-87621976D01*
X169109071Y-87669595D01*
X169156690Y-87764833D01*
X169156690Y-88145785D01*
X168728119Y-87193404D02*
X168680500Y-87145785D01*
X168632880Y-87050547D01*
X168632880Y-86812452D01*
X168680500Y-86717214D01*
X168728119Y-86669595D01*
X168823357Y-86621976D01*
X168918595Y-86621976D01*
X169061452Y-86669595D01*
X169632880Y-87241023D01*
X169632880Y-86621976D01*
X169632880Y-85669595D02*
X169632880Y-86241023D01*
X169632880Y-85955309D02*
X168632880Y-85955309D01*
X168775738Y-86050547D01*
X168870976Y-86145785D01*
X168918595Y-86241023D01*
X185126880Y-87574357D02*
X184650690Y-87907690D01*
X185126880Y-88145785D02*
X184126880Y-88145785D01*
X184126880Y-87764833D01*
X184174500Y-87669595D01*
X184222119Y-87621976D01*
X184317357Y-87574357D01*
X184460214Y-87574357D01*
X184555452Y-87621976D01*
X184603071Y-87669595D01*
X184650690Y-87764833D01*
X184650690Y-88145785D01*
X184222119Y-87193404D02*
X184174500Y-87145785D01*
X184126880Y-87050547D01*
X184126880Y-86812452D01*
X184174500Y-86717214D01*
X184222119Y-86669595D01*
X184317357Y-86621976D01*
X184412595Y-86621976D01*
X184555452Y-86669595D01*
X185126880Y-87241023D01*
X185126880Y-86621976D01*
X184126880Y-86002928D02*
X184126880Y-85907690D01*
X184174500Y-85812452D01*
X184222119Y-85764833D01*
X184317357Y-85717214D01*
X184507833Y-85669595D01*
X184745928Y-85669595D01*
X184936404Y-85717214D01*
X185031642Y-85764833D01*
X185079261Y-85812452D01*
X185126880Y-85907690D01*
X185126880Y-86002928D01*
X185079261Y-86098166D01*
X185031642Y-86145785D01*
X184936404Y-86193404D01*
X184745928Y-86241023D01*
X184507833Y-86241023D01*
X184317357Y-86193404D01*
X184222119Y-86145785D01*
X184174500Y-86098166D01*
X184126880Y-86002928D01*
D10*
X167826571Y-52804190D02*
X167659904Y-52566095D01*
X167540857Y-52804190D02*
X167540857Y-52304190D01*
X167731333Y-52304190D01*
X167778952Y-52328000D01*
X167802761Y-52351809D01*
X167826571Y-52399428D01*
X167826571Y-52470857D01*
X167802761Y-52518476D01*
X167778952Y-52542285D01*
X167731333Y-52566095D01*
X167540857Y-52566095D01*
X168302761Y-52804190D02*
X168017047Y-52804190D01*
X168159904Y-52804190D02*
X168159904Y-52304190D01*
X168112285Y-52375619D01*
X168064666Y-52423238D01*
X168017047Y-52447047D01*
X168469428Y-52304190D02*
X168802761Y-52304190D01*
X168588476Y-52804190D01*
X170366571Y-52804190D02*
X170199904Y-52566095D01*
X170080857Y-52804190D02*
X170080857Y-52304190D01*
X170271333Y-52304190D01*
X170318952Y-52328000D01*
X170342761Y-52351809D01*
X170366571Y-52399428D01*
X170366571Y-52470857D01*
X170342761Y-52518476D01*
X170318952Y-52542285D01*
X170271333Y-52566095D01*
X170080857Y-52566095D01*
X170842761Y-52804190D02*
X170557047Y-52804190D01*
X170699904Y-52804190D02*
X170699904Y-52304190D01*
X170652285Y-52375619D01*
X170604666Y-52423238D01*
X170557047Y-52447047D01*
X171271333Y-52304190D02*
X171176095Y-52304190D01*
X171128476Y-52328000D01*
X171104666Y-52351809D01*
X171057047Y-52423238D01*
X171033238Y-52518476D01*
X171033238Y-52708952D01*
X171057047Y-52756571D01*
X171080857Y-52780380D01*
X171128476Y-52804190D01*
X171223714Y-52804190D01*
X171271333Y-52780380D01*
X171295142Y-52756571D01*
X171318952Y-52708952D01*
X171318952Y-52589904D01*
X171295142Y-52542285D01*
X171271333Y-52518476D01*
X171223714Y-52494666D01*
X171128476Y-52494666D01*
X171080857Y-52518476D01*
X171057047Y-52542285D01*
X171033238Y-52589904D01*
X174343190Y-59757428D02*
X174105095Y-59924095D01*
X174343190Y-60043142D02*
X173843190Y-60043142D01*
X173843190Y-59852666D01*
X173867000Y-59805047D01*
X173890809Y-59781238D01*
X173938428Y-59757428D01*
X174009857Y-59757428D01*
X174057476Y-59781238D01*
X174081285Y-59805047D01*
X174105095Y-59852666D01*
X174105095Y-60043142D01*
X174343190Y-59281238D02*
X174343190Y-59566952D01*
X174343190Y-59424095D02*
X173843190Y-59424095D01*
X173914619Y-59471714D01*
X173962238Y-59519333D01*
X173986047Y-59566952D01*
X173843190Y-59114571D02*
X173843190Y-58805047D01*
X174033666Y-58971714D01*
X174033666Y-58900285D01*
X174057476Y-58852666D01*
X174081285Y-58828857D01*
X174128904Y-58805047D01*
X174247952Y-58805047D01*
X174295571Y-58828857D01*
X174319380Y-58852666D01*
X174343190Y-58900285D01*
X174343190Y-59043142D01*
X174319380Y-59090761D01*
X174295571Y-59114571D01*
X171930190Y-62043428D02*
X171692095Y-62210095D01*
X171930190Y-62329142D02*
X171430190Y-62329142D01*
X171430190Y-62138666D01*
X171454000Y-62091047D01*
X171477809Y-62067238D01*
X171525428Y-62043428D01*
X171596857Y-62043428D01*
X171644476Y-62067238D01*
X171668285Y-62091047D01*
X171692095Y-62138666D01*
X171692095Y-62329142D01*
X171930190Y-61567238D02*
X171930190Y-61852952D01*
X171930190Y-61710095D02*
X171430190Y-61710095D01*
X171501619Y-61757714D01*
X171549238Y-61805333D01*
X171573047Y-61852952D01*
X171477809Y-61376761D02*
X171454000Y-61352952D01*
X171430190Y-61305333D01*
X171430190Y-61186285D01*
X171454000Y-61138666D01*
X171477809Y-61114857D01*
X171525428Y-61091047D01*
X171573047Y-61091047D01*
X171644476Y-61114857D01*
X171930190Y-61400571D01*
X171930190Y-61091047D01*
D16*
X167070012Y-42309149D02*
X167070012Y-43023435D01*
X167022393Y-43166292D01*
X166927155Y-43261530D01*
X166784298Y-43309149D01*
X166689060Y-43309149D01*
X167498584Y-42404388D02*
X167546203Y-42356769D01*
X167641441Y-42309149D01*
X167879536Y-42309149D01*
X167974774Y-42356769D01*
X168022393Y-42404388D01*
X168070012Y-42499626D01*
X168070012Y-42594864D01*
X168022393Y-42737721D01*
X167450965Y-43309149D01*
X168070012Y-43309149D01*
D17*
X188734179Y-93238523D02*
X188129417Y-93238523D01*
X188129417Y-91968523D01*
X189822750Y-93238523D02*
X189097036Y-93238523D01*
X189459893Y-93238523D02*
X189459893Y-91968523D01*
X189338941Y-92149952D01*
X189217988Y-92270904D01*
X189097036Y-92331380D01*
X163300833Y-93284523D02*
X162696071Y-93284523D01*
X162696071Y-92014523D01*
X163663690Y-92135476D02*
X163724166Y-92075000D01*
X163845119Y-92014523D01*
X164147500Y-92014523D01*
X164268452Y-92075000D01*
X164328928Y-92135476D01*
X164389404Y-92256428D01*
X164389404Y-92377380D01*
X164328928Y-92558809D01*
X163603214Y-93284523D01*
X164389404Y-93284523D01*
X116310833Y-93238523D02*
X115706071Y-93238523D01*
X115706071Y-91968523D01*
X116613214Y-91968523D02*
X117399404Y-91968523D01*
X116976071Y-92452333D01*
X117157500Y-92452333D01*
X117278452Y-92512809D01*
X117338928Y-92573285D01*
X117399404Y-92694238D01*
X117399404Y-92996619D01*
X117338928Y-93117571D01*
X117278452Y-93178047D01*
X117157500Y-93238523D01*
X116794642Y-93238523D01*
X116673690Y-93178047D01*
X116613214Y-93117571D01*
D10*
X170080857Y-122146190D02*
X170080857Y-121646190D01*
X170199904Y-121646190D01*
X170271333Y-121670000D01*
X170318952Y-121717619D01*
X170342761Y-121765238D01*
X170366571Y-121860476D01*
X170366571Y-121931904D01*
X170342761Y-122027142D01*
X170318952Y-122074761D01*
X170271333Y-122122380D01*
X170199904Y-122146190D01*
X170080857Y-122146190D01*
X170842761Y-122146190D02*
X170557047Y-122146190D01*
X170699904Y-122146190D02*
X170699904Y-121646190D01*
X170652285Y-121717619D01*
X170604666Y-121765238D01*
X170557047Y-121789047D01*
X171033238Y-121693809D02*
X171057047Y-121670000D01*
X171104666Y-121646190D01*
X171223714Y-121646190D01*
X171271333Y-121670000D01*
X171295142Y-121693809D01*
X171318952Y-121741428D01*
X171318952Y-121789047D01*
X171295142Y-121860476D01*
X171009428Y-122146190D01*
X171318952Y-122146190D01*
D16*
X143565714Y-122372380D02*
X143565714Y-121372380D01*
X143803809Y-121372380D01*
X143946666Y-121420000D01*
X144041904Y-121515238D01*
X144089523Y-121610476D01*
X144137142Y-121800952D01*
X144137142Y-121943809D01*
X144089523Y-122134285D01*
X144041904Y-122229523D01*
X143946666Y-122324761D01*
X143803809Y-122372380D01*
X143565714Y-122372380D01*
X145089523Y-122372380D02*
X144518095Y-122372380D01*
X144803809Y-122372380D02*
X144803809Y-121372380D01*
X144708571Y-121515238D01*
X144613333Y-121610476D01*
X144518095Y-121658095D01*
X145422857Y-121372380D02*
X146041904Y-121372380D01*
X145708571Y-121753333D01*
X145851428Y-121753333D01*
X145946666Y-121800952D01*
X145994285Y-121848571D01*
X146041904Y-121943809D01*
X146041904Y-122181904D01*
X145994285Y-122277142D01*
X145946666Y-122324761D01*
X145851428Y-122372380D01*
X145565714Y-122372380D01*
X145470476Y-122324761D01*
X145422857Y-122277142D01*
X117533714Y-122372380D02*
X117533714Y-121372380D01*
X117771809Y-121372380D01*
X117914666Y-121420000D01*
X118009904Y-121515238D01*
X118057523Y-121610476D01*
X118105142Y-121800952D01*
X118105142Y-121943809D01*
X118057523Y-122134285D01*
X118009904Y-122229523D01*
X117914666Y-122324761D01*
X117771809Y-122372380D01*
X117533714Y-122372380D01*
X118486095Y-121467619D02*
X118533714Y-121420000D01*
X118628952Y-121372380D01*
X118867047Y-121372380D01*
X118962285Y-121420000D01*
X119009904Y-121467619D01*
X119057523Y-121562857D01*
X119057523Y-121658095D01*
X119009904Y-121800952D01*
X118438476Y-122372380D01*
X119057523Y-122372380D01*
X119438476Y-121467619D02*
X119486095Y-121420000D01*
X119581333Y-121372380D01*
X119819428Y-121372380D01*
X119914666Y-121420000D01*
X119962285Y-121467619D01*
X120009904Y-121562857D01*
X120009904Y-121658095D01*
X119962285Y-121800952D01*
X119390857Y-122372380D01*
X120009904Y-122372380D01*
X90987714Y-122372380D02*
X90987714Y-121372380D01*
X91225809Y-121372380D01*
X91368666Y-121420000D01*
X91463904Y-121515238D01*
X91511523Y-121610476D01*
X91559142Y-121800952D01*
X91559142Y-121943809D01*
X91511523Y-122134285D01*
X91463904Y-122229523D01*
X91368666Y-122324761D01*
X91225809Y-122372380D01*
X90987714Y-122372380D01*
X91940095Y-121467619D02*
X91987714Y-121420000D01*
X92082952Y-121372380D01*
X92321047Y-121372380D01*
X92416285Y-121420000D01*
X92463904Y-121467619D01*
X92511523Y-121562857D01*
X92511523Y-121658095D01*
X92463904Y-121800952D01*
X91892476Y-122372380D01*
X92511523Y-122372380D01*
X92844857Y-121372380D02*
X93463904Y-121372380D01*
X93130571Y-121753333D01*
X93273428Y-121753333D01*
X93368666Y-121800952D01*
X93416285Y-121848571D01*
X93463904Y-121943809D01*
X93463904Y-122181904D01*
X93416285Y-122277142D01*
X93368666Y-122324761D01*
X93273428Y-122372380D01*
X92987714Y-122372380D01*
X92892476Y-122324761D01*
X92844857Y-122277142D01*
X169911733Y-51360342D02*
X169864114Y-51407961D01*
X169721257Y-51455580D01*
X169626019Y-51455580D01*
X169483161Y-51407961D01*
X169387923Y-51312723D01*
X169340304Y-51217485D01*
X169292685Y-51027009D01*
X169292685Y-50884152D01*
X169340304Y-50693676D01*
X169387923Y-50598438D01*
X169483161Y-50503200D01*
X169626019Y-50455580D01*
X169721257Y-50455580D01*
X169864114Y-50503200D01*
X169911733Y-50550819D01*
X170864114Y-51455580D02*
X170292685Y-51455580D01*
X170578400Y-51455580D02*
X170578400Y-50455580D01*
X170483161Y-50598438D01*
X170387923Y-50693676D01*
X170292685Y-50741295D01*
X89795226Y-39426364D02*
X88795226Y-39426364D01*
X88795226Y-39188269D01*
X88842846Y-39045411D01*
X88938084Y-38950173D01*
X89033322Y-38902554D01*
X89223798Y-38854935D01*
X89366655Y-38854935D01*
X89557131Y-38902554D01*
X89652369Y-38950173D01*
X89747607Y-39045411D01*
X89795226Y-39188269D01*
X89795226Y-39426364D01*
X89128560Y-37997792D02*
X89795226Y-37997792D01*
X88747607Y-38235888D02*
X89461893Y-38473983D01*
X89461893Y-37854935D01*
X96316226Y-39489864D02*
X95316226Y-39489864D01*
X95316226Y-39251769D01*
X95363846Y-39108911D01*
X95459084Y-39013673D01*
X95554322Y-38966054D01*
X95744798Y-38918435D01*
X95887655Y-38918435D01*
X96078131Y-38966054D01*
X96173369Y-39013673D01*
X96268607Y-39108911D01*
X96316226Y-39251769D01*
X96316226Y-39489864D01*
X95316226Y-38013673D02*
X95316226Y-38489864D01*
X95792417Y-38537483D01*
X95744798Y-38489864D01*
X95697179Y-38394626D01*
X95697179Y-38156530D01*
X95744798Y-38061292D01*
X95792417Y-38013673D01*
X95887655Y-37966054D01*
X96125750Y-37966054D01*
X96220988Y-38013673D01*
X96268607Y-38061292D01*
X96316226Y-38156530D01*
X96316226Y-38394626D01*
X96268607Y-38489864D01*
X96220988Y-38537483D01*
X109548726Y-39426364D02*
X108548726Y-39426364D01*
X108548726Y-39188269D01*
X108596346Y-39045411D01*
X108691584Y-38950173D01*
X108786822Y-38902554D01*
X108977298Y-38854935D01*
X109120155Y-38854935D01*
X109310631Y-38902554D01*
X109405869Y-38950173D01*
X109501107Y-39045411D01*
X109548726Y-39188269D01*
X109548726Y-39426364D01*
X108548726Y-37997792D02*
X108548726Y-38188269D01*
X108596346Y-38283507D01*
X108643965Y-38331126D01*
X108786822Y-38426364D01*
X108977298Y-38473983D01*
X109358250Y-38473983D01*
X109453488Y-38426364D01*
X109501107Y-38378745D01*
X109548726Y-38283507D01*
X109548726Y-38093030D01*
X109501107Y-37997792D01*
X109453488Y-37950173D01*
X109358250Y-37902554D01*
X109120155Y-37902554D01*
X109024917Y-37950173D01*
X108977298Y-37997792D01*
X108929679Y-38093030D01*
X108929679Y-38283507D01*
X108977298Y-38378745D01*
X109024917Y-38426364D01*
X109120155Y-38473983D01*
X102964226Y-48559864D02*
X101964226Y-48559864D01*
X101964226Y-48321769D01*
X102011846Y-48178911D01*
X102107084Y-48083673D01*
X102202322Y-48036054D01*
X102392798Y-47988435D01*
X102535655Y-47988435D01*
X102726131Y-48036054D01*
X102821369Y-48083673D01*
X102916607Y-48178911D01*
X102964226Y-48321769D01*
X102964226Y-48559864D01*
X102392798Y-47417007D02*
X102345179Y-47512245D01*
X102297560Y-47559864D01*
X102202322Y-47607483D01*
X102154703Y-47607483D01*
X102059465Y-47559864D01*
X102011846Y-47512245D01*
X101964226Y-47417007D01*
X101964226Y-47226530D01*
X102011846Y-47131292D01*
X102059465Y-47083673D01*
X102154703Y-47036054D01*
X102202322Y-47036054D01*
X102297560Y-47083673D01*
X102345179Y-47131292D01*
X102392798Y-47226530D01*
X102392798Y-47417007D01*
X102440417Y-47512245D01*
X102488036Y-47559864D01*
X102583274Y-47607483D01*
X102773750Y-47607483D01*
X102868988Y-47559864D01*
X102916607Y-47512245D01*
X102964226Y-47417007D01*
X102964226Y-47226530D01*
X102916607Y-47131292D01*
X102868988Y-47083673D01*
X102773750Y-47036054D01*
X102583274Y-47036054D01*
X102488036Y-47083673D01*
X102440417Y-47131292D01*
X102392798Y-47226530D01*
X102964226Y-39489864D02*
X101964226Y-39489864D01*
X101964226Y-39251769D01*
X102011846Y-39108911D01*
X102107084Y-39013673D01*
X102202322Y-38966054D01*
X102392798Y-38918435D01*
X102535655Y-38918435D01*
X102726131Y-38966054D01*
X102821369Y-39013673D01*
X102916607Y-39108911D01*
X102964226Y-39251769D01*
X102964226Y-39489864D01*
X102964226Y-38442245D02*
X102964226Y-38251769D01*
X102916607Y-38156530D01*
X102868988Y-38108911D01*
X102726131Y-38013673D01*
X102535655Y-37966054D01*
X102154703Y-37966054D01*
X102059465Y-38013673D01*
X102011846Y-38061292D01*
X101964226Y-38156530D01*
X101964226Y-38347007D01*
X102011846Y-38442245D01*
X102059465Y-38489864D01*
X102154703Y-38537483D01*
X102392798Y-38537483D01*
X102488036Y-38489864D01*
X102535655Y-38442245D01*
X102583274Y-38347007D01*
X102583274Y-38156530D01*
X102535655Y-38061292D01*
X102488036Y-38013673D01*
X102392798Y-37966054D01*
X96316226Y-49036054D02*
X95316226Y-49036054D01*
X95316226Y-48797959D01*
X95363846Y-48655102D01*
X95459084Y-48559864D01*
X95554322Y-48512245D01*
X95744798Y-48464626D01*
X95887655Y-48464626D01*
X96078131Y-48512245D01*
X96173369Y-48559864D01*
X96268607Y-48655102D01*
X96316226Y-48797959D01*
X96316226Y-49036054D01*
X96316226Y-47512245D02*
X96316226Y-48083673D01*
X96316226Y-47797959D02*
X95316226Y-47797959D01*
X95459084Y-47893197D01*
X95554322Y-47988435D01*
X95601941Y-48083673D01*
X95316226Y-46893197D02*
X95316226Y-46797959D01*
X95363846Y-46702721D01*
X95411465Y-46655102D01*
X95506703Y-46607483D01*
X95697179Y-46559864D01*
X95935274Y-46559864D01*
X96125750Y-46607483D01*
X96220988Y-46655102D01*
X96268607Y-46702721D01*
X96316226Y-46797959D01*
X96316226Y-46893197D01*
X96268607Y-46988435D01*
X96220988Y-47036054D01*
X96125750Y-47083673D01*
X95935274Y-47131292D01*
X95697179Y-47131292D01*
X95506703Y-47083673D01*
X95411465Y-47036054D01*
X95363846Y-46988435D01*
X95316226Y-46893197D01*
X109548726Y-49036054D02*
X108548726Y-49036054D01*
X108548726Y-48797959D01*
X108596346Y-48655102D01*
X108691584Y-48559864D01*
X108786822Y-48512245D01*
X108977298Y-48464626D01*
X109120155Y-48464626D01*
X109310631Y-48512245D01*
X109405869Y-48559864D01*
X109501107Y-48655102D01*
X109548726Y-48797959D01*
X109548726Y-49036054D01*
X109548726Y-47512245D02*
X109548726Y-48083673D01*
X109548726Y-47797959D02*
X108548726Y-47797959D01*
X108691584Y-47893197D01*
X108786822Y-47988435D01*
X108834441Y-48083673D01*
X108882060Y-46655102D02*
X109548726Y-46655102D01*
X108501107Y-46893197D02*
X109215393Y-47131292D01*
X109215393Y-46512245D01*
X109548726Y-58106054D02*
X108548726Y-58106054D01*
X108548726Y-57867959D01*
X108596346Y-57725102D01*
X108691584Y-57629864D01*
X108786822Y-57582245D01*
X108977298Y-57534626D01*
X109120155Y-57534626D01*
X109310631Y-57582245D01*
X109405869Y-57629864D01*
X109501107Y-57725102D01*
X109548726Y-57867959D01*
X109548726Y-58106054D01*
X109548726Y-56582245D02*
X109548726Y-57153673D01*
X109548726Y-56867959D02*
X108548726Y-56867959D01*
X108691584Y-56963197D01*
X108786822Y-57058435D01*
X108834441Y-57153673D01*
X108548726Y-55677483D02*
X108548726Y-56153673D01*
X109024917Y-56201292D01*
X108977298Y-56153673D01*
X108929679Y-56058435D01*
X108929679Y-55820340D01*
X108977298Y-55725102D01*
X109024917Y-55677483D01*
X109120155Y-55629864D01*
X109358250Y-55629864D01*
X109453488Y-55677483D01*
X109501107Y-55725102D01*
X109548726Y-55820340D01*
X109548726Y-56058435D01*
X109501107Y-56153673D01*
X109453488Y-56201292D01*
X89795226Y-49036054D02*
X88795226Y-49036054D01*
X88795226Y-48797959D01*
X88842846Y-48655102D01*
X88938084Y-48559864D01*
X89033322Y-48512245D01*
X89223798Y-48464626D01*
X89366655Y-48464626D01*
X89557131Y-48512245D01*
X89652369Y-48559864D01*
X89747607Y-48655102D01*
X89795226Y-48797959D01*
X89795226Y-49036054D01*
X89795226Y-47512245D02*
X89795226Y-48083673D01*
X89795226Y-47797959D02*
X88795226Y-47797959D01*
X88938084Y-47893197D01*
X89033322Y-47988435D01*
X89080941Y-48083673D01*
X88795226Y-46655102D02*
X88795226Y-46845578D01*
X88842846Y-46940816D01*
X88890465Y-46988435D01*
X89033322Y-47083673D01*
X89223798Y-47131292D01*
X89604750Y-47131292D01*
X89699988Y-47083673D01*
X89747607Y-47036054D01*
X89795226Y-46940816D01*
X89795226Y-46750340D01*
X89747607Y-46655102D01*
X89699988Y-46607483D01*
X89604750Y-46559864D01*
X89366655Y-46559864D01*
X89271417Y-46607483D01*
X89223798Y-46655102D01*
X89176179Y-46750340D01*
X89176179Y-46940816D01*
X89223798Y-47036054D01*
X89271417Y-47083673D01*
X89366655Y-47131292D01*
X96316226Y-58106054D02*
X95316226Y-58106054D01*
X95316226Y-57867959D01*
X95363846Y-57725102D01*
X95459084Y-57629864D01*
X95554322Y-57582245D01*
X95744798Y-57534626D01*
X95887655Y-57534626D01*
X96078131Y-57582245D01*
X96173369Y-57629864D01*
X96268607Y-57725102D01*
X96316226Y-57867959D01*
X96316226Y-58106054D01*
X96316226Y-56582245D02*
X96316226Y-57153673D01*
X96316226Y-56867959D02*
X95316226Y-56867959D01*
X95459084Y-56963197D01*
X95554322Y-57058435D01*
X95601941Y-57153673D01*
X95744798Y-56010816D02*
X95697179Y-56106054D01*
X95649560Y-56153673D01*
X95554322Y-56201292D01*
X95506703Y-56201292D01*
X95411465Y-56153673D01*
X95363846Y-56106054D01*
X95316226Y-56010816D01*
X95316226Y-55820340D01*
X95363846Y-55725102D01*
X95411465Y-55677483D01*
X95506703Y-55629864D01*
X95554322Y-55629864D01*
X95649560Y-55677483D01*
X95697179Y-55725102D01*
X95744798Y-55820340D01*
X95744798Y-56010816D01*
X95792417Y-56106054D01*
X95840036Y-56153673D01*
X95935274Y-56201292D01*
X96125750Y-56201292D01*
X96220988Y-56153673D01*
X96268607Y-56106054D01*
X96316226Y-56010816D01*
X96316226Y-55820340D01*
X96268607Y-55725102D01*
X96220988Y-55677483D01*
X96125750Y-55629864D01*
X95935274Y-55629864D01*
X95840036Y-55677483D01*
X95792417Y-55725102D01*
X95744798Y-55820340D01*
X102964226Y-58106054D02*
X101964226Y-58106054D01*
X101964226Y-57867959D01*
X102011846Y-57725102D01*
X102107084Y-57629864D01*
X102202322Y-57582245D01*
X102392798Y-57534626D01*
X102535655Y-57534626D01*
X102726131Y-57582245D01*
X102821369Y-57629864D01*
X102916607Y-57725102D01*
X102964226Y-57867959D01*
X102964226Y-58106054D01*
X102964226Y-56582245D02*
X102964226Y-57153673D01*
X102964226Y-56867959D02*
X101964226Y-56867959D01*
X102107084Y-56963197D01*
X102202322Y-57058435D01*
X102249941Y-57153673D01*
X102964226Y-56106054D02*
X102964226Y-55915578D01*
X102916607Y-55820340D01*
X102868988Y-55772721D01*
X102726131Y-55677483D01*
X102535655Y-55629864D01*
X102154703Y-55629864D01*
X102059465Y-55677483D01*
X102011846Y-55725102D01*
X101964226Y-55820340D01*
X101964226Y-56010816D01*
X102011846Y-56106054D01*
X102059465Y-56153673D01*
X102154703Y-56201292D01*
X102392798Y-56201292D01*
X102488036Y-56153673D01*
X102535655Y-56106054D01*
X102583274Y-56010816D01*
X102583274Y-55820340D01*
X102535655Y-55725102D01*
X102488036Y-55677483D01*
X102392798Y-55629864D01*
X89795226Y-58106054D02*
X88795226Y-58106054D01*
X88795226Y-57867959D01*
X88842846Y-57725102D01*
X88938084Y-57629864D01*
X89033322Y-57582245D01*
X89223798Y-57534626D01*
X89366655Y-57534626D01*
X89557131Y-57582245D01*
X89652369Y-57629864D01*
X89747607Y-57725102D01*
X89795226Y-57867959D01*
X89795226Y-58106054D01*
X88890465Y-57153673D02*
X88842846Y-57106054D01*
X88795226Y-57010816D01*
X88795226Y-56772721D01*
X88842846Y-56677483D01*
X88890465Y-56629864D01*
X88985703Y-56582245D01*
X89080941Y-56582245D01*
X89223798Y-56629864D01*
X89795226Y-57201292D01*
X89795226Y-56582245D01*
X88795226Y-55963197D02*
X88795226Y-55867959D01*
X88842846Y-55772721D01*
X88890465Y-55725102D01*
X88985703Y-55677483D01*
X89176179Y-55629864D01*
X89414274Y-55629864D01*
X89604750Y-55677483D01*
X89699988Y-55725102D01*
X89747607Y-55772721D01*
X89795226Y-55867959D01*
X89795226Y-55963197D01*
X89747607Y-56058435D01*
X89699988Y-56106054D01*
X89604750Y-56153673D01*
X89414274Y-56201292D01*
X89176179Y-56201292D01*
X88985703Y-56153673D01*
X88890465Y-56106054D01*
X88842846Y-56058435D01*
X88795226Y-55963197D01*
X188914120Y-35926780D02*
X188914120Y-36641066D01*
X188866501Y-36783923D01*
X188771263Y-36879161D01*
X188628406Y-36926780D01*
X188533168Y-36926780D01*
X189914120Y-36926780D02*
X189342692Y-36926780D01*
X189628406Y-36926780D02*
X189628406Y-35926780D01*
X189533168Y-36069638D01*
X189437930Y-36164876D01*
X189342692Y-36212495D01*
D10*
X122090666Y-84046190D02*
X121924000Y-83808095D01*
X121804952Y-84046190D02*
X121804952Y-83546190D01*
X121995428Y-83546190D01*
X122043047Y-83570000D01*
X122066857Y-83593809D01*
X122090666Y-83641428D01*
X122090666Y-83712857D01*
X122066857Y-83760476D01*
X122043047Y-83784285D01*
X121995428Y-83808095D01*
X121804952Y-83808095D01*
X122519238Y-83712857D02*
X122519238Y-84046190D01*
X122400190Y-83522380D02*
X122281142Y-83879523D01*
X122590666Y-83879523D01*
X122293866Y-92885390D02*
X122127200Y-92647295D01*
X122008152Y-92885390D02*
X122008152Y-92385390D01*
X122198628Y-92385390D01*
X122246247Y-92409200D01*
X122270057Y-92433009D01*
X122293866Y-92480628D01*
X122293866Y-92552057D01*
X122270057Y-92599676D01*
X122246247Y-92623485D01*
X122198628Y-92647295D01*
X122008152Y-92647295D01*
X122746247Y-92385390D02*
X122508152Y-92385390D01*
X122484342Y-92623485D01*
X122508152Y-92599676D01*
X122555771Y-92575866D01*
X122674819Y-92575866D01*
X122722438Y-92599676D01*
X122746247Y-92623485D01*
X122770057Y-92671104D01*
X122770057Y-92790152D01*
X122746247Y-92837771D01*
X122722438Y-92861580D01*
X122674819Y-92885390D01*
X122555771Y-92885390D01*
X122508152Y-92861580D01*
X122484342Y-92837771D01*
X135552666Y-89189690D02*
X135386000Y-88951595D01*
X135266952Y-89189690D02*
X135266952Y-88689690D01*
X135457428Y-88689690D01*
X135505047Y-88713500D01*
X135528857Y-88737309D01*
X135552666Y-88784928D01*
X135552666Y-88856357D01*
X135528857Y-88903976D01*
X135505047Y-88927785D01*
X135457428Y-88951595D01*
X135266952Y-88951595D01*
X135981238Y-88689690D02*
X135886000Y-88689690D01*
X135838380Y-88713500D01*
X135814571Y-88737309D01*
X135766952Y-88808738D01*
X135743142Y-88903976D01*
X135743142Y-89094452D01*
X135766952Y-89142071D01*
X135790761Y-89165880D01*
X135838380Y-89189690D01*
X135933619Y-89189690D01*
X135981238Y-89165880D01*
X136005047Y-89142071D01*
X136028857Y-89094452D01*
X136028857Y-88975404D01*
X136005047Y-88927785D01*
X135981238Y-88903976D01*
X135933619Y-88880166D01*
X135838380Y-88880166D01*
X135790761Y-88903976D01*
X135766952Y-88927785D01*
X135743142Y-88975404D01*
X134727166Y-82712690D02*
X134560500Y-82474595D01*
X134441452Y-82712690D02*
X134441452Y-82212690D01*
X134631928Y-82212690D01*
X134679547Y-82236500D01*
X134703357Y-82260309D01*
X134727166Y-82307928D01*
X134727166Y-82379357D01*
X134703357Y-82426976D01*
X134679547Y-82450785D01*
X134631928Y-82474595D01*
X134441452Y-82474595D01*
X134893833Y-82212690D02*
X135227166Y-82212690D01*
X135012880Y-82712690D01*
X137013166Y-60297190D02*
X136846500Y-60059095D01*
X136727452Y-60297190D02*
X136727452Y-59797190D01*
X136917928Y-59797190D01*
X136965547Y-59821000D01*
X136989357Y-59844809D01*
X137013166Y-59892428D01*
X137013166Y-59963857D01*
X136989357Y-60011476D01*
X136965547Y-60035285D01*
X136917928Y-60059095D01*
X136727452Y-60059095D01*
X137203642Y-59844809D02*
X137227452Y-59821000D01*
X137275071Y-59797190D01*
X137394119Y-59797190D01*
X137441738Y-59821000D01*
X137465547Y-59844809D01*
X137489357Y-59892428D01*
X137489357Y-59940047D01*
X137465547Y-60011476D01*
X137179833Y-60297190D01*
X137489357Y-60297190D01*
D16*
X128524095Y-81484880D02*
X128524095Y-82294404D01*
X128571714Y-82389642D01*
X128619333Y-82437261D01*
X128714571Y-82484880D01*
X128905047Y-82484880D01*
X129000285Y-82437261D01*
X129047904Y-82389642D01*
X129095523Y-82294404D01*
X129095523Y-81484880D01*
X129476476Y-81484880D02*
X130095523Y-81484880D01*
X129762190Y-81865833D01*
X129905047Y-81865833D01*
X130000285Y-81913452D01*
X130047904Y-81961071D01*
X130095523Y-82056309D01*
X130095523Y-82294404D01*
X130047904Y-82389642D01*
X130000285Y-82437261D01*
X129905047Y-82484880D01*
X129619333Y-82484880D01*
X129524095Y-82437261D01*
X129476476Y-82389642D01*
X178530261Y-69254619D02*
X178435023Y-69207000D01*
X178339785Y-69111761D01*
X178196928Y-68968904D01*
X178101690Y-68921285D01*
X178006452Y-68921285D01*
X178054071Y-69159380D02*
X177958833Y-69111761D01*
X177863595Y-69016523D01*
X177815976Y-68826047D01*
X177815976Y-68492714D01*
X177863595Y-68302238D01*
X177958833Y-68207000D01*
X178054071Y-68159380D01*
X178244547Y-68159380D01*
X178339785Y-68207000D01*
X178435023Y-68302238D01*
X178482642Y-68492714D01*
X178482642Y-68826047D01*
X178435023Y-69016523D01*
X178339785Y-69111761D01*
X178244547Y-69159380D01*
X178054071Y-69159380D01*
X178863595Y-68254619D02*
X178911214Y-68207000D01*
X179006452Y-68159380D01*
X179244547Y-68159380D01*
X179339785Y-68207000D01*
X179387404Y-68254619D01*
X179435023Y-68349857D01*
X179435023Y-68445095D01*
X179387404Y-68587952D01*
X178815976Y-69159380D01*
X179435023Y-69159380D01*
X118014761Y-69318119D02*
X117919523Y-69270500D01*
X117824285Y-69175261D01*
X117681428Y-69032404D01*
X117586190Y-68984785D01*
X117490952Y-68984785D01*
X117538571Y-69222880D02*
X117443333Y-69175261D01*
X117348095Y-69080023D01*
X117300476Y-68889547D01*
X117300476Y-68556214D01*
X117348095Y-68365738D01*
X117443333Y-68270500D01*
X117538571Y-68222880D01*
X117729047Y-68222880D01*
X117824285Y-68270500D01*
X117919523Y-68365738D01*
X117967142Y-68556214D01*
X117967142Y-68889547D01*
X117919523Y-69080023D01*
X117824285Y-69175261D01*
X117729047Y-69222880D01*
X117538571Y-69222880D01*
X118824285Y-68556214D02*
X118824285Y-69222880D01*
X118586190Y-68175261D02*
X118348095Y-68889547D01*
X118967142Y-68889547D01*
X100869761Y-69392619D02*
X100774523Y-69345000D01*
X100679285Y-69249761D01*
X100536428Y-69106904D01*
X100441190Y-69059285D01*
X100345952Y-69059285D01*
X100393571Y-69297380D02*
X100298333Y-69249761D01*
X100203095Y-69154523D01*
X100155476Y-68964047D01*
X100155476Y-68630714D01*
X100203095Y-68440238D01*
X100298333Y-68345000D01*
X100393571Y-68297380D01*
X100584047Y-68297380D01*
X100679285Y-68345000D01*
X100774523Y-68440238D01*
X100822142Y-68630714D01*
X100822142Y-68964047D01*
X100774523Y-69154523D01*
X100679285Y-69249761D01*
X100584047Y-69297380D01*
X100393571Y-69297380D01*
X101726904Y-68297380D02*
X101250714Y-68297380D01*
X101203095Y-68773571D01*
X101250714Y-68725952D01*
X101345952Y-68678333D01*
X101584047Y-68678333D01*
X101679285Y-68725952D01*
X101726904Y-68773571D01*
X101774523Y-68868809D01*
X101774523Y-69106904D01*
X101726904Y-69202142D01*
X101679285Y-69249761D01*
X101584047Y-69297380D01*
X101345952Y-69297380D01*
X101250714Y-69249761D01*
X101203095Y-69202142D01*
X176333161Y-49468019D02*
X176237923Y-49420400D01*
X176142685Y-49325161D01*
X175999828Y-49182304D01*
X175904590Y-49134685D01*
X175809352Y-49134685D01*
X175856971Y-49372780D02*
X175761733Y-49325161D01*
X175666495Y-49229923D01*
X175618876Y-49039447D01*
X175618876Y-48706114D01*
X175666495Y-48515638D01*
X175761733Y-48420400D01*
X175856971Y-48372780D01*
X176047447Y-48372780D01*
X176142685Y-48420400D01*
X176237923Y-48515638D01*
X176285542Y-48706114D01*
X176285542Y-49039447D01*
X176237923Y-49229923D01*
X176142685Y-49325161D01*
X176047447Y-49372780D01*
X175856971Y-49372780D01*
X177237923Y-49372780D02*
X176666495Y-49372780D01*
X176952209Y-49372780D02*
X176952209Y-48372780D01*
X176856971Y-48515638D01*
X176761733Y-48610876D01*
X176666495Y-48658495D01*
D18*
X188283476Y-79869095D02*
X188283476Y-79619095D01*
X188343000Y-79619095D01*
X188378714Y-79631000D01*
X188402523Y-79654809D01*
X188414428Y-79678619D01*
X188426333Y-79726238D01*
X188426333Y-79761952D01*
X188414428Y-79809571D01*
X188402523Y-79833380D01*
X188378714Y-79857190D01*
X188343000Y-79869095D01*
X188283476Y-79869095D01*
X188509666Y-79619095D02*
X188664428Y-79619095D01*
X188581095Y-79714333D01*
X188616809Y-79714333D01*
X188640619Y-79726238D01*
X188652523Y-79738142D01*
X188664428Y-79761952D01*
X188664428Y-79821476D01*
X188652523Y-79845285D01*
X188640619Y-79857190D01*
X188616809Y-79869095D01*
X188545380Y-79869095D01*
X188521571Y-79857190D01*
X188509666Y-79845285D01*
D10*
X165219866Y-63472190D02*
X165053200Y-63234095D01*
X164934152Y-63472190D02*
X164934152Y-62972190D01*
X165124628Y-62972190D01*
X165172247Y-62996000D01*
X165196057Y-63019809D01*
X165219866Y-63067428D01*
X165219866Y-63138857D01*
X165196057Y-63186476D01*
X165172247Y-63210285D01*
X165124628Y-63234095D01*
X164934152Y-63234095D01*
X165386533Y-62972190D02*
X165696057Y-62972190D01*
X165529390Y-63162666D01*
X165600819Y-63162666D01*
X165648438Y-63186476D01*
X165672247Y-63210285D01*
X165696057Y-63257904D01*
X165696057Y-63376952D01*
X165672247Y-63424571D01*
X165648438Y-63448380D01*
X165600819Y-63472190D01*
X165457961Y-63472190D01*
X165410342Y-63448380D01*
X165386533Y-63424571D01*
D18*
X188283476Y-73874695D02*
X188283476Y-73624695D01*
X188343000Y-73624695D01*
X188378714Y-73636600D01*
X188402523Y-73660409D01*
X188414428Y-73684219D01*
X188426333Y-73731838D01*
X188426333Y-73767552D01*
X188414428Y-73815171D01*
X188402523Y-73838980D01*
X188378714Y-73862790D01*
X188343000Y-73874695D01*
X188283476Y-73874695D01*
X188509666Y-73624695D02*
X188676333Y-73624695D01*
X188569190Y-73874695D01*
D10*
X164981771Y-66456690D02*
X164815104Y-66218595D01*
X164696057Y-66456690D02*
X164696057Y-65956690D01*
X164886533Y-65956690D01*
X164934152Y-65980500D01*
X164957961Y-66004309D01*
X164981771Y-66051928D01*
X164981771Y-66123357D01*
X164957961Y-66170976D01*
X164934152Y-66194785D01*
X164886533Y-66218595D01*
X164696057Y-66218595D01*
X165172247Y-66004309D02*
X165196057Y-65980500D01*
X165243676Y-65956690D01*
X165362723Y-65956690D01*
X165410342Y-65980500D01*
X165434152Y-66004309D01*
X165457961Y-66051928D01*
X165457961Y-66099547D01*
X165434152Y-66170976D01*
X165148438Y-66456690D01*
X165457961Y-66456690D01*
X165743676Y-66170976D02*
X165696057Y-66147166D01*
X165672247Y-66123357D01*
X165648438Y-66075738D01*
X165648438Y-66051928D01*
X165672247Y-66004309D01*
X165696057Y-65980500D01*
X165743676Y-65956690D01*
X165838914Y-65956690D01*
X165886533Y-65980500D01*
X165910342Y-66004309D01*
X165934152Y-66051928D01*
X165934152Y-66075738D01*
X165910342Y-66123357D01*
X165886533Y-66147166D01*
X165838914Y-66170976D01*
X165743676Y-66170976D01*
X165696057Y-66194785D01*
X165672247Y-66218595D01*
X165648438Y-66266214D01*
X165648438Y-66361452D01*
X165672247Y-66409071D01*
X165696057Y-66432880D01*
X165743676Y-66456690D01*
X165838914Y-66456690D01*
X165886533Y-66432880D01*
X165910342Y-66409071D01*
X165934152Y-66361452D01*
X165934152Y-66266214D01*
X165910342Y-66218595D01*
X165886533Y-66194785D01*
X165838914Y-66170976D01*
X148125666Y-58408071D02*
X148101857Y-58431880D01*
X148030428Y-58455690D01*
X147982809Y-58455690D01*
X147911380Y-58431880D01*
X147863761Y-58384261D01*
X147839952Y-58336642D01*
X147816142Y-58241404D01*
X147816142Y-58169976D01*
X147839952Y-58074738D01*
X147863761Y-58027119D01*
X147911380Y-57979500D01*
X147982809Y-57955690D01*
X148030428Y-57955690D01*
X148101857Y-57979500D01*
X148125666Y-58003309D01*
X148316142Y-58003309D02*
X148339952Y-57979500D01*
X148387571Y-57955690D01*
X148506619Y-57955690D01*
X148554238Y-57979500D01*
X148578047Y-58003309D01*
X148601857Y-58050928D01*
X148601857Y-58098547D01*
X148578047Y-58169976D01*
X148292333Y-58455690D01*
X148601857Y-58455690D01*
X183457066Y-54483771D02*
X183433257Y-54507580D01*
X183361828Y-54531390D01*
X183314209Y-54531390D01*
X183242780Y-54507580D01*
X183195161Y-54459961D01*
X183171352Y-54412342D01*
X183147542Y-54317104D01*
X183147542Y-54245676D01*
X183171352Y-54150438D01*
X183195161Y-54102819D01*
X183242780Y-54055200D01*
X183314209Y-54031390D01*
X183361828Y-54031390D01*
X183433257Y-54055200D01*
X183457066Y-54079009D01*
X183623733Y-54031390D02*
X183933257Y-54031390D01*
X183766590Y-54221866D01*
X183838019Y-54221866D01*
X183885638Y-54245676D01*
X183909447Y-54269485D01*
X183933257Y-54317104D01*
X183933257Y-54436152D01*
X183909447Y-54483771D01*
X183885638Y-54507580D01*
X183838019Y-54531390D01*
X183695161Y-54531390D01*
X183647542Y-54507580D01*
X183623733Y-54483771D01*
D16*
X123431833Y-86499642D02*
X123384214Y-86547261D01*
X123241357Y-86594880D01*
X123146119Y-86594880D01*
X123003261Y-86547261D01*
X122908023Y-86452023D01*
X122860404Y-86356785D01*
X122812785Y-86166309D01*
X122812785Y-86023452D01*
X122860404Y-85832976D01*
X122908023Y-85737738D01*
X123003261Y-85642500D01*
X123146119Y-85594880D01*
X123241357Y-85594880D01*
X123384214Y-85642500D01*
X123431833Y-85690119D01*
X124288976Y-85928214D02*
X124288976Y-86594880D01*
X124050880Y-85547261D02*
X123812785Y-86261547D01*
X124431833Y-86261547D01*
X148793142Y-55411666D02*
X148840761Y-55459285D01*
X148888380Y-55602142D01*
X148888380Y-55697380D01*
X148840761Y-55840238D01*
X148745523Y-55935476D01*
X148650285Y-55983095D01*
X148459809Y-56030714D01*
X148316952Y-56030714D01*
X148126476Y-55983095D01*
X148031238Y-55935476D01*
X147936000Y-55840238D01*
X147888380Y-55697380D01*
X147888380Y-55602142D01*
X147936000Y-55459285D01*
X147983619Y-55411666D01*
X147888380Y-55078333D02*
X147888380Y-54411666D01*
X148888380Y-54840238D01*
X170394333Y-70742142D02*
X170346714Y-70789761D01*
X170203857Y-70837380D01*
X170108619Y-70837380D01*
X169965761Y-70789761D01*
X169870523Y-70694523D01*
X169822904Y-70599285D01*
X169775285Y-70408809D01*
X169775285Y-70265952D01*
X169822904Y-70075476D01*
X169870523Y-69980238D01*
X169965761Y-69885000D01*
X170108619Y-69837380D01*
X170203857Y-69837380D01*
X170346714Y-69885000D01*
X170394333Y-69932619D01*
X170965761Y-70265952D02*
X170870523Y-70218333D01*
X170822904Y-70170714D01*
X170775285Y-70075476D01*
X170775285Y-70027857D01*
X170822904Y-69932619D01*
X170870523Y-69885000D01*
X170965761Y-69837380D01*
X171156238Y-69837380D01*
X171251476Y-69885000D01*
X171299095Y-69932619D01*
X171346714Y-70027857D01*
X171346714Y-70075476D01*
X171299095Y-70170714D01*
X171251476Y-70218333D01*
X171156238Y-70265952D01*
X170965761Y-70265952D01*
X170870523Y-70313571D01*
X170822904Y-70361190D01*
X170775285Y-70456428D01*
X170775285Y-70646904D01*
X170822904Y-70742142D01*
X170870523Y-70789761D01*
X170965761Y-70837380D01*
X171156238Y-70837380D01*
X171251476Y-70789761D01*
X171299095Y-70742142D01*
X171346714Y-70646904D01*
X171346714Y-70456428D01*
X171299095Y-70361190D01*
X171251476Y-70313571D01*
X171156238Y-70265952D01*
X170156142Y-81827666D02*
X170203761Y-81875285D01*
X170251380Y-82018142D01*
X170251380Y-82113380D01*
X170203761Y-82256238D01*
X170108523Y-82351476D01*
X170013285Y-82399095D01*
X169822809Y-82446714D01*
X169679952Y-82446714D01*
X169489476Y-82399095D01*
X169394238Y-82351476D01*
X169299000Y-82256238D01*
X169251380Y-82113380D01*
X169251380Y-82018142D01*
X169299000Y-81875285D01*
X169346619Y-81827666D01*
X170251380Y-81351476D02*
X170251380Y-81161000D01*
X170203761Y-81065761D01*
X170156142Y-81018142D01*
X170013285Y-80922904D01*
X169822809Y-80875285D01*
X169441857Y-80875285D01*
X169346619Y-80922904D01*
X169299000Y-80970523D01*
X169251380Y-81065761D01*
X169251380Y-81256238D01*
X169299000Y-81351476D01*
X169346619Y-81399095D01*
X169441857Y-81446714D01*
X169679952Y-81446714D01*
X169775190Y-81399095D01*
X169822809Y-81351476D01*
X169870428Y-81256238D01*
X169870428Y-81065761D01*
X169822809Y-80970523D01*
X169775190Y-80922904D01*
X169679952Y-80875285D01*
X120599142Y-55760857D02*
X120646761Y-55808476D01*
X120694380Y-55951333D01*
X120694380Y-56046571D01*
X120646761Y-56189428D01*
X120551523Y-56284666D01*
X120456285Y-56332285D01*
X120265809Y-56379904D01*
X120122952Y-56379904D01*
X119932476Y-56332285D01*
X119837238Y-56284666D01*
X119742000Y-56189428D01*
X119694380Y-56046571D01*
X119694380Y-55951333D01*
X119742000Y-55808476D01*
X119789619Y-55760857D01*
X120694380Y-54808476D02*
X120694380Y-55379904D01*
X120694380Y-55094190D02*
X119694380Y-55094190D01*
X119837238Y-55189428D01*
X119932476Y-55284666D01*
X119980095Y-55379904D01*
X119694380Y-54189428D02*
X119694380Y-54094190D01*
X119742000Y-53998952D01*
X119789619Y-53951333D01*
X119884857Y-53903714D01*
X120075333Y-53856095D01*
X120313428Y-53856095D01*
X120503904Y-53903714D01*
X120599142Y-53951333D01*
X120646761Y-53998952D01*
X120694380Y-54094190D01*
X120694380Y-54189428D01*
X120646761Y-54284666D01*
X120599142Y-54332285D01*
X120503904Y-54379904D01*
X120313428Y-54427523D01*
X120075333Y-54427523D01*
X119884857Y-54379904D01*
X119789619Y-54332285D01*
X119742000Y-54284666D01*
X119694380Y-54189428D01*
X110228142Y-69635642D02*
X110180523Y-69683261D01*
X110037666Y-69730880D01*
X109942428Y-69730880D01*
X109799571Y-69683261D01*
X109704333Y-69588023D01*
X109656714Y-69492785D01*
X109609095Y-69302309D01*
X109609095Y-69159452D01*
X109656714Y-68968976D01*
X109704333Y-68873738D01*
X109799571Y-68778500D01*
X109942428Y-68730880D01*
X110037666Y-68730880D01*
X110180523Y-68778500D01*
X110228142Y-68826119D01*
X111180523Y-69730880D02*
X110609095Y-69730880D01*
X110894809Y-69730880D02*
X110894809Y-68730880D01*
X110799571Y-68873738D01*
X110704333Y-68968976D01*
X110609095Y-69016595D01*
X112132904Y-69730880D02*
X111561476Y-69730880D01*
X111847190Y-69730880D02*
X111847190Y-68730880D01*
X111751952Y-68873738D01*
X111656714Y-68968976D01*
X111561476Y-69016595D01*
X107815142Y-79832142D02*
X107767523Y-79879761D01*
X107624666Y-79927380D01*
X107529428Y-79927380D01*
X107386571Y-79879761D01*
X107291333Y-79784523D01*
X107243714Y-79689285D01*
X107196095Y-79498809D01*
X107196095Y-79355952D01*
X107243714Y-79165476D01*
X107291333Y-79070238D01*
X107386571Y-78975000D01*
X107529428Y-78927380D01*
X107624666Y-78927380D01*
X107767523Y-78975000D01*
X107815142Y-79022619D01*
X108767523Y-79927380D02*
X108196095Y-79927380D01*
X108481809Y-79927380D02*
X108481809Y-78927380D01*
X108386571Y-79070238D01*
X108291333Y-79165476D01*
X108196095Y-79213095D01*
X109148476Y-79022619D02*
X109196095Y-78975000D01*
X109291333Y-78927380D01*
X109529428Y-78927380D01*
X109624666Y-78975000D01*
X109672285Y-79022619D01*
X109719904Y-79117857D01*
X109719904Y-79213095D01*
X109672285Y-79355952D01*
X109100857Y-79927380D01*
X109719904Y-79927380D01*
D10*
X173033571Y-84427190D02*
X172866904Y-84189095D01*
X172747857Y-84427190D02*
X172747857Y-83927190D01*
X172938333Y-83927190D01*
X172985952Y-83951000D01*
X173009761Y-83974809D01*
X173033571Y-84022428D01*
X173033571Y-84093857D01*
X173009761Y-84141476D01*
X172985952Y-84165285D01*
X172938333Y-84189095D01*
X172747857Y-84189095D01*
X173224047Y-83974809D02*
X173247857Y-83951000D01*
X173295476Y-83927190D01*
X173414523Y-83927190D01*
X173462142Y-83951000D01*
X173485952Y-83974809D01*
X173509761Y-84022428D01*
X173509761Y-84070047D01*
X173485952Y-84141476D01*
X173200238Y-84427190D01*
X173509761Y-84427190D01*
X173700238Y-83974809D02*
X173724047Y-83951000D01*
X173771666Y-83927190D01*
X173890714Y-83927190D01*
X173938333Y-83951000D01*
X173962142Y-83974809D01*
X173985952Y-84022428D01*
X173985952Y-84070047D01*
X173962142Y-84141476D01*
X173676428Y-84427190D01*
X173985952Y-84427190D01*
X158365071Y-85443190D02*
X158198404Y-85205095D01*
X158079357Y-85443190D02*
X158079357Y-84943190D01*
X158269833Y-84943190D01*
X158317452Y-84967000D01*
X158341261Y-84990809D01*
X158365071Y-85038428D01*
X158365071Y-85109857D01*
X158341261Y-85157476D01*
X158317452Y-85181285D01*
X158269833Y-85205095D01*
X158079357Y-85205095D01*
X158555547Y-84990809D02*
X158579357Y-84967000D01*
X158626976Y-84943190D01*
X158746023Y-84943190D01*
X158793642Y-84967000D01*
X158817452Y-84990809D01*
X158841261Y-85038428D01*
X158841261Y-85086047D01*
X158817452Y-85157476D01*
X158531738Y-85443190D01*
X158841261Y-85443190D01*
X159007928Y-84943190D02*
X159317452Y-84943190D01*
X159150785Y-85133666D01*
X159222214Y-85133666D01*
X159269833Y-85157476D01*
X159293642Y-85181285D01*
X159317452Y-85228904D01*
X159317452Y-85347952D01*
X159293642Y-85395571D01*
X159269833Y-85419380D01*
X159222214Y-85443190D01*
X159079357Y-85443190D01*
X159031738Y-85419380D01*
X159007928Y-85395571D01*
X110676571Y-85062190D02*
X110509904Y-84824095D01*
X110390857Y-85062190D02*
X110390857Y-84562190D01*
X110581333Y-84562190D01*
X110628952Y-84586000D01*
X110652761Y-84609809D01*
X110676571Y-84657428D01*
X110676571Y-84728857D01*
X110652761Y-84776476D01*
X110628952Y-84800285D01*
X110581333Y-84824095D01*
X110390857Y-84824095D01*
X110867047Y-84609809D02*
X110890857Y-84586000D01*
X110938476Y-84562190D01*
X111057523Y-84562190D01*
X111105142Y-84586000D01*
X111128952Y-84609809D01*
X111152761Y-84657428D01*
X111152761Y-84705047D01*
X111128952Y-84776476D01*
X110843238Y-85062190D01*
X111152761Y-85062190D01*
X111581333Y-84562190D02*
X111486095Y-84562190D01*
X111438476Y-84586000D01*
X111414666Y-84609809D01*
X111367047Y-84681238D01*
X111343238Y-84776476D01*
X111343238Y-84966952D01*
X111367047Y-85014571D01*
X111390857Y-85038380D01*
X111438476Y-85062190D01*
X111533714Y-85062190D01*
X111581333Y-85038380D01*
X111605142Y-85014571D01*
X111628952Y-84966952D01*
X111628952Y-84847904D01*
X111605142Y-84800285D01*
X111581333Y-84776476D01*
X111533714Y-84752666D01*
X111438476Y-84752666D01*
X111390857Y-84776476D01*
X111367047Y-84800285D01*
X111343238Y-84847904D01*
X94928571Y-84871690D02*
X94761904Y-84633595D01*
X94642857Y-84871690D02*
X94642857Y-84371690D01*
X94833333Y-84371690D01*
X94880952Y-84395500D01*
X94904761Y-84419309D01*
X94928571Y-84466928D01*
X94928571Y-84538357D01*
X94904761Y-84585976D01*
X94880952Y-84609785D01*
X94833333Y-84633595D01*
X94642857Y-84633595D01*
X95119047Y-84419309D02*
X95142857Y-84395500D01*
X95190476Y-84371690D01*
X95309523Y-84371690D01*
X95357142Y-84395500D01*
X95380952Y-84419309D01*
X95404761Y-84466928D01*
X95404761Y-84514547D01*
X95380952Y-84585976D01*
X95095238Y-84871690D01*
X95404761Y-84871690D01*
X95571428Y-84371690D02*
X95904761Y-84371690D01*
X95690476Y-84871690D01*
D16*
X148016933Y-67870342D02*
X147969314Y-67917961D01*
X147826457Y-67965580D01*
X147731219Y-67965580D01*
X147588361Y-67917961D01*
X147493123Y-67822723D01*
X147445504Y-67727485D01*
X147397885Y-67537009D01*
X147397885Y-67394152D01*
X147445504Y-67203676D01*
X147493123Y-67108438D01*
X147588361Y-67013200D01*
X147731219Y-66965580D01*
X147826457Y-66965580D01*
X147969314Y-67013200D01*
X148016933Y-67060819D01*
X148921695Y-66965580D02*
X148445504Y-66965580D01*
X148397885Y-67441771D01*
X148445504Y-67394152D01*
X148540742Y-67346533D01*
X148778838Y-67346533D01*
X148874076Y-67394152D01*
X148921695Y-67441771D01*
X148969314Y-67537009D01*
X148969314Y-67775104D01*
X148921695Y-67870342D01*
X148874076Y-67917961D01*
X148778838Y-67965580D01*
X148540742Y-67965580D01*
X148445504Y-67917961D01*
X148397885Y-67870342D01*
X149280714Y-83359880D02*
X149280714Y-82359880D01*
X149518809Y-82359880D01*
X149661666Y-82407500D01*
X149756904Y-82502738D01*
X149804523Y-82597976D01*
X149852142Y-82788452D01*
X149852142Y-82931309D01*
X149804523Y-83121785D01*
X149756904Y-83217023D01*
X149661666Y-83312261D01*
X149518809Y-83359880D01*
X149280714Y-83359880D01*
X150804523Y-83359880D02*
X150233095Y-83359880D01*
X150518809Y-83359880D02*
X150518809Y-82359880D01*
X150423571Y-82502738D01*
X150328333Y-82597976D01*
X150233095Y-82645595D01*
X151756904Y-83359880D02*
X151185476Y-83359880D01*
X151471190Y-83359880D02*
X151471190Y-82359880D01*
X151375952Y-82502738D01*
X151280714Y-82597976D01*
X151185476Y-82645595D01*
X149407714Y-88312880D02*
X149407714Y-87312880D01*
X149645809Y-87312880D01*
X149788666Y-87360500D01*
X149883904Y-87455738D01*
X149931523Y-87550976D01*
X149979142Y-87741452D01*
X149979142Y-87884309D01*
X149931523Y-88074785D01*
X149883904Y-88170023D01*
X149788666Y-88265261D01*
X149645809Y-88312880D01*
X149407714Y-88312880D01*
X150931523Y-88312880D02*
X150360095Y-88312880D01*
X150645809Y-88312880D02*
X150645809Y-87312880D01*
X150550571Y-87455738D01*
X150455333Y-87550976D01*
X150360095Y-87598595D01*
X151264857Y-87312880D02*
X151931523Y-87312880D01*
X151502952Y-88312880D01*
X140327214Y-83359880D02*
X140327214Y-82359880D01*
X140565309Y-82359880D01*
X140708166Y-82407500D01*
X140803404Y-82502738D01*
X140851023Y-82597976D01*
X140898642Y-82788452D01*
X140898642Y-82931309D01*
X140851023Y-83121785D01*
X140803404Y-83217023D01*
X140708166Y-83312261D01*
X140565309Y-83359880D01*
X140327214Y-83359880D01*
X141279595Y-82455119D02*
X141327214Y-82407500D01*
X141422452Y-82359880D01*
X141660547Y-82359880D01*
X141755785Y-82407500D01*
X141803404Y-82455119D01*
X141851023Y-82550357D01*
X141851023Y-82645595D01*
X141803404Y-82788452D01*
X141231976Y-83359880D01*
X141851023Y-83359880D01*
X142803404Y-83359880D02*
X142231976Y-83359880D01*
X142517690Y-83359880D02*
X142517690Y-82359880D01*
X142422452Y-82502738D01*
X142327214Y-82597976D01*
X142231976Y-82645595D01*
X140327214Y-88312880D02*
X140327214Y-87312880D01*
X140565309Y-87312880D01*
X140708166Y-87360500D01*
X140803404Y-87455738D01*
X140851023Y-87550976D01*
X140898642Y-87741452D01*
X140898642Y-87884309D01*
X140851023Y-88074785D01*
X140803404Y-88170023D01*
X140708166Y-88265261D01*
X140565309Y-88312880D01*
X140327214Y-88312880D01*
X141279595Y-87408119D02*
X141327214Y-87360500D01*
X141422452Y-87312880D01*
X141660547Y-87312880D01*
X141755785Y-87360500D01*
X141803404Y-87408119D01*
X141851023Y-87503357D01*
X141851023Y-87598595D01*
X141803404Y-87741452D01*
X141231976Y-88312880D01*
X141851023Y-88312880D01*
X142708166Y-87646214D02*
X142708166Y-88312880D01*
X142470071Y-87265261D02*
X142231976Y-87979547D01*
X142851023Y-87979547D01*
X170934071Y-59795914D02*
X170862642Y-59760200D01*
X170791214Y-59688771D01*
X170684071Y-59581628D01*
X170612642Y-59545914D01*
X170541214Y-59545914D01*
X170576928Y-59724485D02*
X170505500Y-59688771D01*
X170434071Y-59617342D01*
X170398357Y-59474485D01*
X170398357Y-59224485D01*
X170434071Y-59081628D01*
X170505500Y-59010200D01*
X170576928Y-58974485D01*
X170719785Y-58974485D01*
X170791214Y-59010200D01*
X170862642Y-59081628D01*
X170898357Y-59224485D01*
X170898357Y-59474485D01*
X170862642Y-59617342D01*
X170791214Y-59688771D01*
X170719785Y-59724485D01*
X170576928Y-59724485D01*
X171541214Y-58974485D02*
X171398357Y-58974485D01*
X171326928Y-59010200D01*
X171291214Y-59045914D01*
X171219785Y-59153057D01*
X171184071Y-59295914D01*
X171184071Y-59581628D01*
X171219785Y-59653057D01*
X171255500Y-59688771D01*
X171326928Y-59724485D01*
X171469785Y-59724485D01*
X171541214Y-59688771D01*
X171576928Y-59653057D01*
X171612642Y-59581628D01*
X171612642Y-59403057D01*
X171576928Y-59331628D01*
X171541214Y-59295914D01*
X171469785Y-59260200D01*
X171326928Y-59260200D01*
X171255500Y-59295914D01*
X171219785Y-59331628D01*
X171184071Y-59403057D01*
X177931771Y-55020714D02*
X177860342Y-54985000D01*
X177788914Y-54913571D01*
X177681771Y-54806428D01*
X177610342Y-54770714D01*
X177538914Y-54770714D01*
X177574628Y-54949285D02*
X177503200Y-54913571D01*
X177431771Y-54842142D01*
X177396057Y-54699285D01*
X177396057Y-54449285D01*
X177431771Y-54306428D01*
X177503200Y-54235000D01*
X177574628Y-54199285D01*
X177717485Y-54199285D01*
X177788914Y-54235000D01*
X177860342Y-54306428D01*
X177896057Y-54449285D01*
X177896057Y-54699285D01*
X177860342Y-54842142D01*
X177788914Y-54913571D01*
X177717485Y-54949285D01*
X177574628Y-54949285D01*
X178146057Y-54199285D02*
X178646057Y-54199285D01*
X178324628Y-54949285D01*
D10*
X177561880Y-86887809D02*
X177514261Y-86864000D01*
X177466642Y-86816380D01*
X177395214Y-86744952D01*
X177347595Y-86721142D01*
X177299976Y-86721142D01*
X177323785Y-86840190D02*
X177276166Y-86816380D01*
X177228547Y-86768761D01*
X177204738Y-86673523D01*
X177204738Y-86506857D01*
X177228547Y-86411619D01*
X177276166Y-86364000D01*
X177323785Y-86340190D01*
X177419023Y-86340190D01*
X177466642Y-86364000D01*
X177514261Y-86411619D01*
X177538071Y-86506857D01*
X177538071Y-86673523D01*
X177514261Y-86768761D01*
X177466642Y-86816380D01*
X177419023Y-86840190D01*
X177323785Y-86840190D01*
X177823785Y-86554476D02*
X177776166Y-86530666D01*
X177752357Y-86506857D01*
X177728547Y-86459238D01*
X177728547Y-86435428D01*
X177752357Y-86387809D01*
X177776166Y-86364000D01*
X177823785Y-86340190D01*
X177919023Y-86340190D01*
X177966642Y-86364000D01*
X177990452Y-86387809D01*
X178014261Y-86435428D01*
X178014261Y-86459238D01*
X177990452Y-86506857D01*
X177966642Y-86530666D01*
X177919023Y-86554476D01*
X177823785Y-86554476D01*
X177776166Y-86578285D01*
X177752357Y-86602095D01*
X177728547Y-86649714D01*
X177728547Y-86744952D01*
X177752357Y-86792571D01*
X177776166Y-86816380D01*
X177823785Y-86840190D01*
X177919023Y-86840190D01*
X177966642Y-86816380D01*
X177990452Y-86792571D01*
X178014261Y-86744952D01*
X178014261Y-86649714D01*
X177990452Y-86602095D01*
X177966642Y-86578285D01*
X177919023Y-86554476D01*
X162131380Y-87014809D02*
X162083761Y-86991000D01*
X162036142Y-86943380D01*
X161964714Y-86871952D01*
X161917095Y-86848142D01*
X161869476Y-86848142D01*
X161893285Y-86967190D02*
X161845666Y-86943380D01*
X161798047Y-86895761D01*
X161774238Y-86800523D01*
X161774238Y-86633857D01*
X161798047Y-86538619D01*
X161845666Y-86491000D01*
X161893285Y-86467190D01*
X161988523Y-86467190D01*
X162036142Y-86491000D01*
X162083761Y-86538619D01*
X162107571Y-86633857D01*
X162107571Y-86800523D01*
X162083761Y-86895761D01*
X162036142Y-86943380D01*
X161988523Y-86967190D01*
X161893285Y-86967190D01*
X162345666Y-86967190D02*
X162440904Y-86967190D01*
X162488523Y-86943380D01*
X162512333Y-86919571D01*
X162559952Y-86848142D01*
X162583761Y-86752904D01*
X162583761Y-86562428D01*
X162559952Y-86514809D01*
X162536142Y-86491000D01*
X162488523Y-86467190D01*
X162393285Y-86467190D01*
X162345666Y-86491000D01*
X162321857Y-86514809D01*
X162298047Y-86562428D01*
X162298047Y-86681476D01*
X162321857Y-86729095D01*
X162345666Y-86752904D01*
X162393285Y-86776714D01*
X162488523Y-86776714D01*
X162536142Y-86752904D01*
X162559952Y-86729095D01*
X162583761Y-86681476D01*
X114649285Y-86824309D02*
X114601666Y-86800500D01*
X114554047Y-86752880D01*
X114482619Y-86681452D01*
X114435000Y-86657642D01*
X114387380Y-86657642D01*
X114411190Y-86776690D02*
X114363571Y-86752880D01*
X114315952Y-86705261D01*
X114292142Y-86610023D01*
X114292142Y-86443357D01*
X114315952Y-86348119D01*
X114363571Y-86300500D01*
X114411190Y-86276690D01*
X114506428Y-86276690D01*
X114554047Y-86300500D01*
X114601666Y-86348119D01*
X114625476Y-86443357D01*
X114625476Y-86610023D01*
X114601666Y-86705261D01*
X114554047Y-86752880D01*
X114506428Y-86776690D01*
X114411190Y-86776690D01*
X115101666Y-86776690D02*
X114815952Y-86776690D01*
X114958809Y-86776690D02*
X114958809Y-86276690D01*
X114911190Y-86348119D01*
X114863571Y-86395738D01*
X114815952Y-86419547D01*
X115411190Y-86276690D02*
X115458809Y-86276690D01*
X115506428Y-86300500D01*
X115530238Y-86324309D01*
X115554047Y-86371928D01*
X115577857Y-86467166D01*
X115577857Y-86586214D01*
X115554047Y-86681452D01*
X115530238Y-86729071D01*
X115506428Y-86752880D01*
X115458809Y-86776690D01*
X115411190Y-86776690D01*
X115363571Y-86752880D01*
X115339761Y-86729071D01*
X115315952Y-86681452D01*
X115292142Y-86586214D01*
X115292142Y-86467166D01*
X115315952Y-86371928D01*
X115339761Y-86324309D01*
X115363571Y-86300500D01*
X115411190Y-86276690D01*
X98520285Y-86824309D02*
X98472666Y-86800500D01*
X98425047Y-86752880D01*
X98353619Y-86681452D01*
X98306000Y-86657642D01*
X98258380Y-86657642D01*
X98282190Y-86776690D02*
X98234571Y-86752880D01*
X98186952Y-86705261D01*
X98163142Y-86610023D01*
X98163142Y-86443357D01*
X98186952Y-86348119D01*
X98234571Y-86300500D01*
X98282190Y-86276690D01*
X98377428Y-86276690D01*
X98425047Y-86300500D01*
X98472666Y-86348119D01*
X98496476Y-86443357D01*
X98496476Y-86610023D01*
X98472666Y-86705261D01*
X98425047Y-86752880D01*
X98377428Y-86776690D01*
X98282190Y-86776690D01*
X98972666Y-86776690D02*
X98686952Y-86776690D01*
X98829809Y-86776690D02*
X98829809Y-86276690D01*
X98782190Y-86348119D01*
X98734571Y-86395738D01*
X98686952Y-86419547D01*
X99448857Y-86776690D02*
X99163142Y-86776690D01*
X99306000Y-86776690D02*
X99306000Y-86276690D01*
X99258380Y-86348119D01*
X99210761Y-86395738D01*
X99163142Y-86419547D01*
D16*
X147978833Y-70783380D02*
X147645500Y-70307190D01*
X147407404Y-70783380D02*
X147407404Y-69783380D01*
X147788357Y-69783380D01*
X147883595Y-69831000D01*
X147931214Y-69878619D01*
X147978833Y-69973857D01*
X147978833Y-70116714D01*
X147931214Y-70211952D01*
X147883595Y-70259571D01*
X147788357Y-70307190D01*
X147407404Y-70307190D01*
X148550261Y-70211952D02*
X148455023Y-70164333D01*
X148407404Y-70116714D01*
X148359785Y-70021476D01*
X148359785Y-69973857D01*
X148407404Y-69878619D01*
X148455023Y-69831000D01*
X148550261Y-69783380D01*
X148740738Y-69783380D01*
X148835976Y-69831000D01*
X148883595Y-69878619D01*
X148931214Y-69973857D01*
X148931214Y-70021476D01*
X148883595Y-70116714D01*
X148835976Y-70164333D01*
X148740738Y-70211952D01*
X148550261Y-70211952D01*
X148455023Y-70259571D01*
X148407404Y-70307190D01*
X148359785Y-70402428D01*
X148359785Y-70592904D01*
X148407404Y-70688142D01*
X148455023Y-70735761D01*
X148550261Y-70783380D01*
X148740738Y-70783380D01*
X148835976Y-70735761D01*
X148883595Y-70688142D01*
X148931214Y-70592904D01*
X148931214Y-70402428D01*
X148883595Y-70307190D01*
X148835976Y-70259571D01*
X148740738Y-70211952D01*
D10*
X177018166Y-84681190D02*
X176851500Y-84443095D01*
X176732452Y-84681190D02*
X176732452Y-84181190D01*
X176922928Y-84181190D01*
X176970547Y-84205000D01*
X176994357Y-84228809D01*
X177018166Y-84276428D01*
X177018166Y-84347857D01*
X176994357Y-84395476D01*
X176970547Y-84419285D01*
X176922928Y-84443095D01*
X176732452Y-84443095D01*
X177256261Y-84681190D02*
X177351500Y-84681190D01*
X177399119Y-84657380D01*
X177422928Y-84633571D01*
X177470547Y-84562142D01*
X177494357Y-84466904D01*
X177494357Y-84276428D01*
X177470547Y-84228809D01*
X177446738Y-84205000D01*
X177399119Y-84181190D01*
X177303880Y-84181190D01*
X177256261Y-84205000D01*
X177232452Y-84228809D01*
X177208642Y-84276428D01*
X177208642Y-84395476D01*
X177232452Y-84443095D01*
X177256261Y-84466904D01*
X177303880Y-84490714D01*
X177399119Y-84490714D01*
X177446738Y-84466904D01*
X177470547Y-84443095D01*
X177494357Y-84395476D01*
X161349571Y-84554190D02*
X161182904Y-84316095D01*
X161063857Y-84554190D02*
X161063857Y-84054190D01*
X161254333Y-84054190D01*
X161301952Y-84078000D01*
X161325761Y-84101809D01*
X161349571Y-84149428D01*
X161349571Y-84220857D01*
X161325761Y-84268476D01*
X161301952Y-84292285D01*
X161254333Y-84316095D01*
X161063857Y-84316095D01*
X161825761Y-84554190D02*
X161540047Y-84554190D01*
X161682904Y-84554190D02*
X161682904Y-84054190D01*
X161635285Y-84125619D01*
X161587666Y-84173238D01*
X161540047Y-84197047D01*
X162135285Y-84054190D02*
X162182904Y-84054190D01*
X162230523Y-84078000D01*
X162254333Y-84101809D01*
X162278142Y-84149428D01*
X162301952Y-84244666D01*
X162301952Y-84363714D01*
X162278142Y-84458952D01*
X162254333Y-84506571D01*
X162230523Y-84530380D01*
X162182904Y-84554190D01*
X162135285Y-84554190D01*
X162087666Y-84530380D01*
X162063857Y-84506571D01*
X162040047Y-84458952D01*
X162016238Y-84363714D01*
X162016238Y-84244666D01*
X162040047Y-84149428D01*
X162063857Y-84101809D01*
X162087666Y-84078000D01*
X162135285Y-84054190D01*
X114105571Y-84300190D02*
X113938904Y-84062095D01*
X113819857Y-84300190D02*
X113819857Y-83800190D01*
X114010333Y-83800190D01*
X114057952Y-83824000D01*
X114081761Y-83847809D01*
X114105571Y-83895428D01*
X114105571Y-83966857D01*
X114081761Y-84014476D01*
X114057952Y-84038285D01*
X114010333Y-84062095D01*
X113819857Y-84062095D01*
X114581761Y-84300190D02*
X114296047Y-84300190D01*
X114438904Y-84300190D02*
X114438904Y-83800190D01*
X114391285Y-83871619D01*
X114343666Y-83919238D01*
X114296047Y-83943047D01*
X115057952Y-84300190D02*
X114772238Y-84300190D01*
X114915095Y-84300190D02*
X114915095Y-83800190D01*
X114867476Y-83871619D01*
X114819857Y-83919238D01*
X114772238Y-83943047D01*
X97976571Y-84490690D02*
X97809904Y-84252595D01*
X97690857Y-84490690D02*
X97690857Y-83990690D01*
X97881333Y-83990690D01*
X97928952Y-84014500D01*
X97952761Y-84038309D01*
X97976571Y-84085928D01*
X97976571Y-84157357D01*
X97952761Y-84204976D01*
X97928952Y-84228785D01*
X97881333Y-84252595D01*
X97690857Y-84252595D01*
X98452761Y-84490690D02*
X98167047Y-84490690D01*
X98309904Y-84490690D02*
X98309904Y-83990690D01*
X98262285Y-84062119D01*
X98214666Y-84109738D01*
X98167047Y-84133547D01*
X98881333Y-84157357D02*
X98881333Y-84490690D01*
X98762285Y-83966880D02*
X98643238Y-84324023D01*
X98952761Y-84324023D01*
D16*
X140970095Y-67439380D02*
X140970095Y-68248904D01*
X141017714Y-68344142D01*
X141065333Y-68391761D01*
X141160571Y-68439380D01*
X141351047Y-68439380D01*
X141446285Y-68391761D01*
X141493904Y-68344142D01*
X141541523Y-68248904D01*
X141541523Y-67439380D01*
X142541523Y-68439380D02*
X141970095Y-68439380D01*
X142255809Y-68439380D02*
X142255809Y-67439380D01*
X142160571Y-67582238D01*
X142065333Y-67677476D01*
X141970095Y-67725095D01*
X155575095Y-44162380D02*
X155575095Y-44971904D01*
X155622714Y-45067142D01*
X155670333Y-45114761D01*
X155765571Y-45162380D01*
X155956047Y-45162380D01*
X156051285Y-45114761D01*
X156098904Y-45067142D01*
X156146523Y-44971904D01*
X156146523Y-44162380D01*
X156527476Y-44162380D02*
X157194142Y-44162380D01*
X156765571Y-45162380D01*
X127254095Y-44289380D02*
X127254095Y-45098904D01*
X127301714Y-45194142D01*
X127349333Y-45241761D01*
X127444571Y-45289380D01*
X127635047Y-45289380D01*
X127730285Y-45241761D01*
X127777904Y-45194142D01*
X127825523Y-45098904D01*
X127825523Y-44289380D01*
X128444571Y-44717952D02*
X128349333Y-44670333D01*
X128301714Y-44622714D01*
X128254095Y-44527476D01*
X128254095Y-44479857D01*
X128301714Y-44384619D01*
X128349333Y-44337000D01*
X128444571Y-44289380D01*
X128635047Y-44289380D01*
X128730285Y-44337000D01*
X128777904Y-44384619D01*
X128825523Y-44479857D01*
X128825523Y-44527476D01*
X128777904Y-44622714D01*
X128730285Y-44670333D01*
X128635047Y-44717952D01*
X128444571Y-44717952D01*
X128349333Y-44765571D01*
X128301714Y-44813190D01*
X128254095Y-44908428D01*
X128254095Y-45098904D01*
X128301714Y-45194142D01*
X128349333Y-45241761D01*
X128444571Y-45289380D01*
X128635047Y-45289380D01*
X128730285Y-45241761D01*
X128777904Y-45194142D01*
X128825523Y-45098904D01*
X128825523Y-44908428D01*
X128777904Y-44813190D01*
X128730285Y-44765571D01*
X128635047Y-44717952D01*
D10*
X121662071Y-82855571D02*
X121638261Y-82879380D01*
X121566833Y-82903190D01*
X121519214Y-82903190D01*
X121447785Y-82879380D01*
X121400166Y-82831761D01*
X121376357Y-82784142D01*
X121352547Y-82688904D01*
X121352547Y-82617476D01*
X121376357Y-82522238D01*
X121400166Y-82474619D01*
X121447785Y-82427000D01*
X121519214Y-82403190D01*
X121566833Y-82403190D01*
X121638261Y-82427000D01*
X121662071Y-82450809D01*
X122138261Y-82903190D02*
X121852547Y-82903190D01*
X121995404Y-82903190D02*
X121995404Y-82403190D01*
X121947785Y-82474619D01*
X121900166Y-82522238D01*
X121852547Y-82546047D01*
X122304928Y-82403190D02*
X122614452Y-82403190D01*
X122447785Y-82593666D01*
X122519214Y-82593666D01*
X122566833Y-82617476D01*
X122590642Y-82641285D01*
X122614452Y-82688904D01*
X122614452Y-82807952D01*
X122590642Y-82855571D01*
X122566833Y-82879380D01*
X122519214Y-82903190D01*
X122376357Y-82903190D01*
X122328738Y-82879380D01*
X122304928Y-82855571D01*
X121903371Y-91415371D02*
X121879561Y-91439180D01*
X121808133Y-91462990D01*
X121760514Y-91462990D01*
X121689085Y-91439180D01*
X121641466Y-91391561D01*
X121617657Y-91343942D01*
X121593847Y-91248704D01*
X121593847Y-91177276D01*
X121617657Y-91082038D01*
X121641466Y-91034419D01*
X121689085Y-90986800D01*
X121760514Y-90962990D01*
X121808133Y-90962990D01*
X121879561Y-90986800D01*
X121903371Y-91010609D01*
X122379561Y-91462990D02*
X122093847Y-91462990D01*
X122236704Y-91462990D02*
X122236704Y-90962990D01*
X122189085Y-91034419D01*
X122141466Y-91082038D01*
X122093847Y-91105847D01*
X122808133Y-91129657D02*
X122808133Y-91462990D01*
X122689085Y-90939180D02*
X122570038Y-91296323D01*
X122879561Y-91296323D01*
X135314571Y-87173571D02*
X135290761Y-87197380D01*
X135219333Y-87221190D01*
X135171714Y-87221190D01*
X135100285Y-87197380D01*
X135052666Y-87149761D01*
X135028857Y-87102142D01*
X135005047Y-87006904D01*
X135005047Y-86935476D01*
X135028857Y-86840238D01*
X135052666Y-86792619D01*
X135100285Y-86745000D01*
X135171714Y-86721190D01*
X135219333Y-86721190D01*
X135290761Y-86745000D01*
X135314571Y-86768809D01*
X135790761Y-87221190D02*
X135505047Y-87221190D01*
X135647904Y-87221190D02*
X135647904Y-86721190D01*
X135600285Y-86792619D01*
X135552666Y-86840238D01*
X135505047Y-86864047D01*
X136243142Y-86721190D02*
X136005047Y-86721190D01*
X135981238Y-86959285D01*
X136005047Y-86935476D01*
X136052666Y-86911666D01*
X136171714Y-86911666D01*
X136219333Y-86935476D01*
X136243142Y-86959285D01*
X136266952Y-87006904D01*
X136266952Y-87125952D01*
X136243142Y-87173571D01*
X136219333Y-87197380D01*
X136171714Y-87221190D01*
X136052666Y-87221190D01*
X136005047Y-87197380D01*
X135981238Y-87173571D01*
X134425571Y-80569571D02*
X134401761Y-80593380D01*
X134330333Y-80617190D01*
X134282714Y-80617190D01*
X134211285Y-80593380D01*
X134163666Y-80545761D01*
X134139857Y-80498142D01*
X134116047Y-80402904D01*
X134116047Y-80331476D01*
X134139857Y-80236238D01*
X134163666Y-80188619D01*
X134211285Y-80141000D01*
X134282714Y-80117190D01*
X134330333Y-80117190D01*
X134401761Y-80141000D01*
X134425571Y-80164809D01*
X134901761Y-80617190D02*
X134616047Y-80617190D01*
X134758904Y-80617190D02*
X134758904Y-80117190D01*
X134711285Y-80188619D01*
X134663666Y-80236238D01*
X134616047Y-80260047D01*
X135330333Y-80117190D02*
X135235095Y-80117190D01*
X135187476Y-80141000D01*
X135163666Y-80164809D01*
X135116047Y-80236238D01*
X135092238Y-80331476D01*
X135092238Y-80521952D01*
X135116047Y-80569571D01*
X135139857Y-80593380D01*
X135187476Y-80617190D01*
X135282714Y-80617190D01*
X135330333Y-80593380D01*
X135354142Y-80569571D01*
X135377952Y-80521952D01*
X135377952Y-80402904D01*
X135354142Y-80355285D01*
X135330333Y-80331476D01*
X135282714Y-80307666D01*
X135187476Y-80307666D01*
X135139857Y-80331476D01*
X135116047Y-80355285D01*
X135092238Y-80402904D01*
D17*
X180457323Y-66768133D02*
X181364466Y-66768133D01*
X181545895Y-66828609D01*
X181666847Y-66949561D01*
X181727323Y-67130990D01*
X181727323Y-67251942D01*
X180457323Y-66284323D02*
X180457323Y-65498133D01*
X180941133Y-65921466D01*
X180941133Y-65740038D01*
X181001609Y-65619085D01*
X181062085Y-65558609D01*
X181183038Y-65498133D01*
X181485419Y-65498133D01*
X181606371Y-65558609D01*
X181666847Y-65619085D01*
X181727323Y-65740038D01*
X181727323Y-66102895D01*
X181666847Y-66223847D01*
X181606371Y-66284323D01*
D10*
X179866171Y-60879790D02*
X179699504Y-60641695D01*
X179580457Y-60879790D02*
X179580457Y-60379790D01*
X179770933Y-60379790D01*
X179818552Y-60403600D01*
X179842361Y-60427409D01*
X179866171Y-60475028D01*
X179866171Y-60546457D01*
X179842361Y-60594076D01*
X179818552Y-60617885D01*
X179770933Y-60641695D01*
X179580457Y-60641695D01*
X180342361Y-60879790D02*
X180056647Y-60879790D01*
X180199504Y-60879790D02*
X180199504Y-60379790D01*
X180151885Y-60451219D01*
X180104266Y-60498838D01*
X180056647Y-60522647D01*
X180794742Y-60379790D02*
X180556647Y-60379790D01*
X180532838Y-60617885D01*
X180556647Y-60594076D01*
X180604266Y-60570266D01*
X180723314Y-60570266D01*
X180770933Y-60594076D01*
X180794742Y-60617885D01*
X180818552Y-60665504D01*
X180818552Y-60784552D01*
X180794742Y-60832171D01*
X180770933Y-60855980D01*
X180723314Y-60879790D01*
X180604266Y-60879790D01*
X180556647Y-60855980D01*
X180532838Y-60832171D01*
D16*
X176253828Y-65587114D02*
X176182400Y-65551400D01*
X176110971Y-65479971D01*
X176003828Y-65372828D01*
X175932400Y-65337114D01*
X175860971Y-65337114D01*
X175896685Y-65515685D02*
X175825257Y-65479971D01*
X175753828Y-65408542D01*
X175718114Y-65265685D01*
X175718114Y-65015685D01*
X175753828Y-64872828D01*
X175825257Y-64801400D01*
X175896685Y-64765685D01*
X176039542Y-64765685D01*
X176110971Y-64801400D01*
X176182400Y-64872828D01*
X176218114Y-65015685D01*
X176218114Y-65265685D01*
X176182400Y-65408542D01*
X176110971Y-65479971D01*
X176039542Y-65515685D01*
X175896685Y-65515685D01*
X176932400Y-65515685D02*
X176503828Y-65515685D01*
X176718114Y-65515685D02*
X176718114Y-64765685D01*
X176646685Y-64872828D01*
X176575257Y-64944257D01*
X176503828Y-64979971D01*
X177218114Y-64837114D02*
X177253828Y-64801400D01*
X177325257Y-64765685D01*
X177503828Y-64765685D01*
X177575257Y-64801400D01*
X177610971Y-64837114D01*
X177646685Y-64908542D01*
X177646685Y-64979971D01*
X177610971Y-65087114D01*
X177182400Y-65515685D01*
X177646685Y-65515685D01*
D10*
X179916971Y-63218190D02*
X179750304Y-62980095D01*
X179631257Y-63218190D02*
X179631257Y-62718190D01*
X179821733Y-62718190D01*
X179869352Y-62742000D01*
X179893161Y-62765809D01*
X179916971Y-62813428D01*
X179916971Y-62884857D01*
X179893161Y-62932476D01*
X179869352Y-62956285D01*
X179821733Y-62980095D01*
X179631257Y-62980095D01*
X180393161Y-63218190D02*
X180107447Y-63218190D01*
X180250304Y-63218190D02*
X180250304Y-62718190D01*
X180202685Y-62789619D01*
X180155066Y-62837238D01*
X180107447Y-62861047D01*
X180678876Y-62932476D02*
X180631257Y-62908666D01*
X180607447Y-62884857D01*
X180583638Y-62837238D01*
X180583638Y-62813428D01*
X180607447Y-62765809D01*
X180631257Y-62742000D01*
X180678876Y-62718190D01*
X180774114Y-62718190D01*
X180821733Y-62742000D01*
X180845542Y-62765809D01*
X180869352Y-62813428D01*
X180869352Y-62837238D01*
X180845542Y-62884857D01*
X180821733Y-62908666D01*
X180774114Y-62932476D01*
X180678876Y-62932476D01*
X180631257Y-62956285D01*
X180607447Y-62980095D01*
X180583638Y-63027714D01*
X180583638Y-63122952D01*
X180607447Y-63170571D01*
X180631257Y-63194380D01*
X180678876Y-63218190D01*
X180774114Y-63218190D01*
X180821733Y-63194380D01*
X180845542Y-63170571D01*
X180869352Y-63122952D01*
X180869352Y-63027714D01*
X180845542Y-62980095D01*
X180821733Y-62956285D01*
X180774114Y-62932476D01*
D16*
X168312939Y-46881037D02*
X167328131Y-46707388D01*
X167369476Y-46472910D01*
X167441178Y-46340492D01*
X167551508Y-46263239D01*
X167653568Y-46232881D01*
X167849419Y-46219062D01*
X167990106Y-46243869D01*
X168169419Y-46323840D01*
X168254942Y-46387274D01*
X168332195Y-46497603D01*
X168354284Y-46646559D01*
X168312939Y-46881037D01*
X168577546Y-45380377D02*
X168478318Y-45943124D01*
X168527932Y-45661751D02*
X167543124Y-45488103D01*
X167667273Y-45606701D01*
X167744526Y-45717030D01*
X167774884Y-45819090D01*
X170404389Y-41919419D02*
X170487079Y-41450463D01*
X170669225Y-42062824D02*
X169742300Y-41560906D01*
X170784990Y-41406285D01*
D10*
X181018666Y-54026571D02*
X180994857Y-54050380D01*
X180923428Y-54074190D01*
X180875809Y-54074190D01*
X180804380Y-54050380D01*
X180756761Y-54002761D01*
X180732952Y-53955142D01*
X180709142Y-53859904D01*
X180709142Y-53788476D01*
X180732952Y-53693238D01*
X180756761Y-53645619D01*
X180804380Y-53598000D01*
X180875809Y-53574190D01*
X180923428Y-53574190D01*
X180994857Y-53598000D01*
X181018666Y-53621809D01*
X181447238Y-53574190D02*
X181352000Y-53574190D01*
X181304380Y-53598000D01*
X181280571Y-53621809D01*
X181232952Y-53693238D01*
X181209142Y-53788476D01*
X181209142Y-53978952D01*
X181232952Y-54026571D01*
X181256761Y-54050380D01*
X181304380Y-54074190D01*
X181399619Y-54074190D01*
X181447238Y-54050380D01*
X181471047Y-54026571D01*
X181494857Y-53978952D01*
X181494857Y-53859904D01*
X181471047Y-53812285D01*
X181447238Y-53788476D01*
X181399619Y-53764666D01*
X181304380Y-53764666D01*
X181256761Y-53788476D01*
X181232952Y-53812285D01*
X181209142Y-53859904D01*
M02*
