M48
; DRILL file {KiCad 5.1.5} date Thu 28 May 2020 07:32:08 PM EDT
; FORMAT={-:-/ absolute / inch / decimal}
; #@! TF.CreationDate,2020-05-28T19:32:08-04:00
; #@! TF.GenerationSoftware,Kicad,Pcbnew,5.1.5
FMAT,2
INCH
T1C0.0157
T2C0.0394
T3C0.0413
T4C0.0433
T5C0.0512
T6C0.0630
T7C0.0433
%
G90
G05
T1
X3.68Y-1.6
X3.69Y-1.445
X3.6925Y-1.8025
X3.695Y-2.16
X3.71Y-1.96
X3.715Y-2.335
X3.8925Y-3.25
X3.93Y-4.8
X3.935Y-1.605
X3.94Y-1.96
X3.945Y-1.45
X3.945Y-2.165
X3.945Y-2.325
X3.96Y-1.715
X3.9675Y-3.375
X4.17Y-3.245
X4.2Y-1.96
X4.2Y-2.165
X4.2025Y-1.605
X4.205Y-2.315
X4.21Y-1.805
X4.245Y-2.775
X4.245Y-2.83
X4.245Y-2.88
X4.265Y-3.095
X4.27Y-3.5275
X4.275Y-1.6075
X4.46Y-1.6
X4.465Y-1.45
X4.4725Y-2.705
X4.475Y-1.865
X4.475Y-3.2575
X4.485Y-1.97
X4.49Y-2.16
X4.49Y-2.31
X4.5725Y-3.075
X4.5875Y-3.3525
X4.6075Y-3.1275
X4.6425Y-3.175
X4.78Y-2.23
X4.858Y-3.54
X4.89Y-3.3525
X4.9225Y-3.4375
X4.9725Y-2.38
X4.975Y-2.43
X4.98Y-4.8025
X5.3075Y-2.9975
X5.3175Y-2.33
X5.325Y-3.3325
X5.3725Y-2.945
X5.3875Y-2.3775
X5.39Y-3.0725
X5.3965Y-2.841
X5.44Y-2.2
X5.495Y-3.2725
X5.4975Y-3.4575
X5.55Y-2.9075
X5.555Y-2.2525
X5.5925Y-2.8525
X5.6075Y-2.2525
X5.6512Y-3.6388
X5.6786Y-2.6386
X5.679Y-2.689
X5.775Y-2.705
X5.8175Y-2.27
X5.845Y-2.39
X5.845Y-2.47
X5.845Y-3.27
X5.89Y-2.23
X5.9375Y-4.005
X5.9575Y-3.4625
X5.9625Y-2.7175
X6.02Y-4.8
X6.06Y-3.275
X6.3175Y-3.605
X6.3425Y-3.29
X6.38Y-2.87
X6.38Y-2.93
X6.395Y-3.0075
X6.41Y-2.32
X6.4475Y-3.34
X6.596Y-2.544
X6.612Y-2.66
X6.63Y-2.245
X6.635Y-3.14
X6.67Y-2.145
X6.775Y-3.075
X6.775Y-3.125
X6.7775Y-3.18
X6.795Y-2.725
X6.816Y-2.352
X6.835Y-2.245
X6.855Y-2.115
X6.855Y-2.185
X6.856Y-2.408
X6.952Y-2.382
X7.006Y-2.358
X7.0175Y-3.2875
X7.0175Y-4.8
X7.04Y-3.3525
X7.174Y-2.212
X7.366Y-3.038
X7.368Y-3.102
X7.37Y-2.8
X7.37Y-2.86
T2
X4.6513Y-1.4806
X4.6513Y-1.5806
X4.7513Y-1.4806
X4.7513Y-1.5806
X4.8513Y-1.4806
X4.8513Y-1.5806
X4.9513Y-1.4806
X4.9513Y-1.5806
X5.0513Y-1.4806
X5.0513Y-1.5806
X5.1513Y-1.4806
X5.1513Y-1.5806
X5.2513Y-1.4806
X5.2513Y-1.5806
X5.3513Y-1.4806
X5.3513Y-1.5806
X5.4513Y-1.4806
X5.4513Y-1.5806
X5.5513Y-1.4806
X5.5513Y-1.5806
X5.6513Y-1.4806
X5.6513Y-1.5806
X5.7513Y-1.4806
X5.7513Y-1.5806
X5.8513Y-1.4806
X5.8513Y-1.5806
X5.9513Y-1.4806
X5.9513Y-1.5806
X6.0513Y-1.4806
X6.0513Y-1.5806
X6.1513Y-1.4806
X6.1513Y-1.5806
X6.2513Y-1.4806
X6.2513Y-1.5806
X6.3513Y-1.4806
X6.3513Y-1.5806
X6.4513Y-1.4806
X6.4513Y-1.5806
X6.5513Y-1.4806
X6.5513Y-1.5806
T3
X3.5863Y-3.7701
X3.5863Y-4.1382
X3.7241Y-3.7701
X3.7241Y-4.1382
X3.8619Y-3.7701
X3.8619Y-4.1382
X3.9997Y-3.7701
X3.9997Y-4.1382
X4.1375Y-3.7701
X4.1375Y-4.1382
X4.2753Y-3.7701
X4.2753Y-4.1382
X4.6213Y-3.7701
X4.6213Y-4.1382
X4.7591Y-3.7701
X4.7591Y-4.1382
X4.8969Y-3.7701
X4.8969Y-4.1382
X5.0347Y-3.7701
X5.0347Y-4.1382
X5.1725Y-3.7701
X5.1725Y-4.1382
X5.3103Y-3.7701
X5.3103Y-4.1382
X6.6738Y-3.7701
X6.6738Y-4.1382
X6.8116Y-3.7701
X6.8116Y-4.1382
X6.9494Y-3.7701
X6.9494Y-4.1382
X7.0872Y-3.7701
X7.0872Y-4.1382
X7.225Y-3.7701
X7.225Y-4.1382
X7.3628Y-3.7701
X7.3628Y-4.1382
X5.6613Y-3.7701
X5.6613Y-4.1382
X5.7991Y-3.7701
X5.7991Y-4.1382
X5.9369Y-3.7701
X5.9369Y-4.1382
X6.0747Y-3.7701
X6.0747Y-4.1382
X6.2125Y-3.7701
X6.2125Y-4.1382
X6.3503Y-3.7701
X6.3503Y-4.1382
T4
X7.09Y-1.956
X7.19Y-1.956
X7.29Y-1.956
X7.326Y-2.376
X7.326Y-2.476
X7.326Y-2.576
T5
X6.766Y-1.804
X6.792Y-1.6563
T6
X6.95Y-1.658
X7.0681Y-1.473
X7.1862Y-1.658
T7
X7.426Y-2.376
X7.426Y-2.476
X7.426Y-2.576
T0
M30
