G04 #@! TF.GenerationSoftware,KiCad,Pcbnew,5.1.5*
G04 #@! TF.CreationDate,2020-05-28T19:32:10-04:00*
G04 #@! TF.ProjectId,EVE-PCB-V4,4556452d-5043-4422-9d56-342e6b696361,rev?*
G04 #@! TF.SameCoordinates,Original*
G04 #@! TF.FileFunction,Legend,Bot*
G04 #@! TF.FilePolarity,Positive*
%FSLAX46Y46*%
G04 Gerber Fmt 4.6, Leading zero omitted, Abs format (unit mm)*
G04 Created by KiCad (PCBNEW 5.1.5) date 2020-05-28 19:32:10*
%MOMM*%
%LPD*%
G04 APERTURE LIST*
%ADD10C,0.250000*%
%ADD11C,0.300000*%
G04 APERTURE END LIST*
D10*
X90362019Y-87575447D02*
X89647733Y-87575447D01*
X89504876Y-87623066D01*
X89409638Y-87718304D01*
X89362019Y-87861161D01*
X89362019Y-87956400D01*
X89362019Y-86623066D02*
X89362019Y-87099257D01*
X90362019Y-87099257D01*
X89457257Y-85718304D02*
X89409638Y-85765923D01*
X89362019Y-85908780D01*
X89362019Y-86004019D01*
X89409638Y-86146876D01*
X89504876Y-86242114D01*
X89600114Y-86289733D01*
X89790590Y-86337352D01*
X89933447Y-86337352D01*
X90123923Y-86289733D01*
X90219161Y-86242114D01*
X90314400Y-86146876D01*
X90362019Y-86004019D01*
X90362019Y-85908780D01*
X90314400Y-85765923D01*
X90266780Y-85718304D01*
X90362019Y-85004019D02*
X89647733Y-85004019D01*
X89504876Y-85051638D01*
X89409638Y-85146876D01*
X89362019Y-85289733D01*
X89362019Y-85384971D01*
X89362019Y-84051638D02*
X89362019Y-84527828D01*
X90362019Y-84527828D01*
X89457257Y-83146876D02*
X89409638Y-83194495D01*
X89362019Y-83337352D01*
X89362019Y-83432590D01*
X89409638Y-83575447D01*
X89504876Y-83670685D01*
X89600114Y-83718304D01*
X89790590Y-83765923D01*
X89933447Y-83765923D01*
X90123923Y-83718304D01*
X90219161Y-83670685D01*
X90314400Y-83575447D01*
X90362019Y-83432590D01*
X90362019Y-83337352D01*
X90314400Y-83194495D01*
X90266780Y-83146876D01*
X90362019Y-82432590D02*
X89647733Y-82432590D01*
X89504876Y-82480209D01*
X89409638Y-82575447D01*
X89362019Y-82718304D01*
X89362019Y-82813542D01*
X89362019Y-81480209D02*
X89362019Y-81956400D01*
X90362019Y-81956400D01*
X89457257Y-80575447D02*
X89409638Y-80623066D01*
X89362019Y-80765923D01*
X89362019Y-80861161D01*
X89409638Y-81004019D01*
X89504876Y-81099257D01*
X89600114Y-81146876D01*
X89790590Y-81194495D01*
X89933447Y-81194495D01*
X90123923Y-81146876D01*
X90219161Y-81099257D01*
X90314400Y-81004019D01*
X90362019Y-80861161D01*
X90362019Y-80765923D01*
X90314400Y-80623066D01*
X90266780Y-80575447D01*
X90362019Y-79861161D02*
X89647733Y-79861161D01*
X89504876Y-79908780D01*
X89409638Y-80004019D01*
X89362019Y-80146876D01*
X89362019Y-80242114D01*
X89362019Y-78908780D02*
X89362019Y-79384971D01*
X90362019Y-79384971D01*
X89457257Y-78004019D02*
X89409638Y-78051638D01*
X89362019Y-78194495D01*
X89362019Y-78289733D01*
X89409638Y-78432590D01*
X89504876Y-78527828D01*
X89600114Y-78575447D01*
X89790590Y-78623066D01*
X89933447Y-78623066D01*
X90123923Y-78575447D01*
X90219161Y-78527828D01*
X90314400Y-78432590D01*
X90362019Y-78289733D01*
X90362019Y-78194495D01*
X90314400Y-78051638D01*
X90266780Y-78004019D01*
D11*
X89519238Y-69752642D02*
X91519238Y-69752642D01*
X91519238Y-69276452D01*
X91424000Y-68990738D01*
X91233523Y-68800261D01*
X91043047Y-68705023D01*
X90662095Y-68609785D01*
X90376380Y-68609785D01*
X89995428Y-68705023D01*
X89804952Y-68800261D01*
X89614476Y-68990738D01*
X89519238Y-69276452D01*
X89519238Y-69752642D01*
X89614476Y-66990738D02*
X89519238Y-67181214D01*
X89519238Y-67562166D01*
X89614476Y-67752642D01*
X89804952Y-67847880D01*
X90566857Y-67847880D01*
X90757333Y-67752642D01*
X90852571Y-67562166D01*
X90852571Y-67181214D01*
X90757333Y-66990738D01*
X90566857Y-66895500D01*
X90376380Y-66895500D01*
X90185904Y-67847880D01*
X89614476Y-66133595D02*
X89519238Y-65943119D01*
X89519238Y-65562166D01*
X89614476Y-65371690D01*
X89804952Y-65276452D01*
X89900190Y-65276452D01*
X90090666Y-65371690D01*
X90185904Y-65562166D01*
X90185904Y-65847880D01*
X90281142Y-66038357D01*
X90471619Y-66133595D01*
X90566857Y-66133595D01*
X90757333Y-66038357D01*
X90852571Y-65847880D01*
X90852571Y-65562166D01*
X90757333Y-65371690D01*
X89519238Y-64419309D02*
X90852571Y-64419309D01*
X91519238Y-64419309D02*
X91424000Y-64514547D01*
X91328761Y-64419309D01*
X91424000Y-64324071D01*
X91519238Y-64419309D01*
X91328761Y-64419309D01*
X90852571Y-62609785D02*
X89233523Y-62609785D01*
X89043047Y-62705023D01*
X88947809Y-62800261D01*
X88852571Y-62990738D01*
X88852571Y-63276452D01*
X88947809Y-63466928D01*
X89614476Y-62609785D02*
X89519238Y-62800261D01*
X89519238Y-63181214D01*
X89614476Y-63371690D01*
X89709714Y-63466928D01*
X89900190Y-63562166D01*
X90471619Y-63562166D01*
X90662095Y-63466928D01*
X90757333Y-63371690D01*
X90852571Y-63181214D01*
X90852571Y-62800261D01*
X90757333Y-62609785D01*
X90852571Y-61657404D02*
X89519238Y-61657404D01*
X90662095Y-61657404D02*
X90757333Y-61562166D01*
X90852571Y-61371690D01*
X90852571Y-61085976D01*
X90757333Y-60895500D01*
X90566857Y-60800261D01*
X89519238Y-60800261D01*
X89614476Y-59085976D02*
X89519238Y-59276452D01*
X89519238Y-59657404D01*
X89614476Y-59847880D01*
X89804952Y-59943119D01*
X90566857Y-59943119D01*
X90757333Y-59847880D01*
X90852571Y-59657404D01*
X90852571Y-59276452D01*
X90757333Y-59085976D01*
X90566857Y-58990738D01*
X90376380Y-58990738D01*
X90185904Y-59943119D01*
X89519238Y-57276452D02*
X91519238Y-57276452D01*
X89614476Y-57276452D02*
X89519238Y-57466928D01*
X89519238Y-57847880D01*
X89614476Y-58038357D01*
X89709714Y-58133595D01*
X89900190Y-58228833D01*
X90471619Y-58228833D01*
X90662095Y-58133595D01*
X90757333Y-58038357D01*
X90852571Y-57847880D01*
X90852571Y-57466928D01*
X90757333Y-57276452D01*
X89519238Y-54800261D02*
X91519238Y-54800261D01*
X90757333Y-54800261D02*
X90852571Y-54609785D01*
X90852571Y-54228833D01*
X90757333Y-54038357D01*
X90662095Y-53943119D01*
X90471619Y-53847880D01*
X89900190Y-53847880D01*
X89709714Y-53943119D01*
X89614476Y-54038357D01*
X89519238Y-54228833D01*
X89519238Y-54609785D01*
X89614476Y-54800261D01*
X90852571Y-53181214D02*
X89519238Y-52705023D01*
X90852571Y-52228833D02*
X89519238Y-52705023D01*
X89043047Y-52895500D01*
X88947809Y-52990738D01*
X88852571Y-53181214D01*
X91519238Y-50228833D02*
X89519238Y-49562166D01*
X91519238Y-48895500D01*
X89519238Y-48228833D02*
X90852571Y-48228833D01*
X91519238Y-48228833D02*
X91424000Y-48324071D01*
X91328761Y-48228833D01*
X91424000Y-48133595D01*
X91519238Y-48228833D01*
X91328761Y-48228833D01*
X89614476Y-47371690D02*
X89519238Y-47181214D01*
X89519238Y-46800261D01*
X89614476Y-46609785D01*
X89804952Y-46514547D01*
X89900190Y-46514547D01*
X90090666Y-46609785D01*
X90185904Y-46800261D01*
X90185904Y-47085976D01*
X90281142Y-47276452D01*
X90471619Y-47371690D01*
X90566857Y-47371690D01*
X90757333Y-47276452D01*
X90852571Y-47085976D01*
X90852571Y-46800261D01*
X90757333Y-46609785D01*
X89519238Y-45657404D02*
X91519238Y-45657404D01*
X89519238Y-44800261D02*
X90566857Y-44800261D01*
X90757333Y-44895500D01*
X90852571Y-45085976D01*
X90852571Y-45371690D01*
X90757333Y-45562166D01*
X90662095Y-45657404D01*
X89519238Y-43847880D02*
X91519238Y-43847880D01*
X89519238Y-42990738D02*
X90566857Y-42990738D01*
X90757333Y-43085976D01*
X90852571Y-43276452D01*
X90852571Y-43562166D01*
X90757333Y-43752642D01*
X90662095Y-43847880D01*
X90852571Y-42228833D02*
X89519238Y-41752642D01*
X90852571Y-41276452D01*
X89519238Y-39657404D02*
X90566857Y-39657404D01*
X90757333Y-39752642D01*
X90852571Y-39943119D01*
X90852571Y-40324071D01*
X90757333Y-40514547D01*
X89614476Y-39657404D02*
X89519238Y-39847880D01*
X89519238Y-40324071D01*
X89614476Y-40514547D01*
X89804952Y-40609785D01*
X89995428Y-40609785D01*
X90185904Y-40514547D01*
X90281142Y-40324071D01*
X90281142Y-39847880D01*
X90376380Y-39657404D01*
X89519238Y-37847880D02*
X90566857Y-37847880D01*
X90757333Y-37943119D01*
X90852571Y-38133595D01*
X90852571Y-38514547D01*
X90757333Y-38705023D01*
X89614476Y-37847880D02*
X89519238Y-38038357D01*
X89519238Y-38514547D01*
X89614476Y-38705023D01*
X89804952Y-38800261D01*
X89995428Y-38800261D01*
X90185904Y-38705023D01*
X90281142Y-38514547D01*
X90281142Y-38038357D01*
X90376380Y-37847880D01*
X90852571Y-36895500D02*
X89519238Y-36895500D01*
X90662095Y-36895500D02*
X90757333Y-36800261D01*
X90852571Y-36609785D01*
X90852571Y-36324071D01*
X90757333Y-36133595D01*
X90566857Y-36038357D01*
X89519238Y-36038357D01*
M02*
