G04 #@! TF.GenerationSoftware,KiCad,Pcbnew,5.1.10*
G04 #@! TF.CreationDate,2021-06-21T08:13:57-04:00*
G04 #@! TF.ProjectId,EVE-PCB-V4,4556452d-5043-4422-9d56-342e6b696361,rev?*
G04 #@! TF.SameCoordinates,Original*
G04 #@! TF.FileFunction,Soldermask,Top*
G04 #@! TF.FilePolarity,Negative*
%FSLAX46Y46*%
G04 Gerber Fmt 4.6, Leading zero omitted, Abs format (unit mm)*
G04 Created by KiCad (PCBNEW 5.1.10) date 2021-06-21 08:13:57*
%MOMM*%
%LPD*%
G01*
G04 APERTURE LIST*
%ADD10O,1.802000X1.802000*%
%ADD11C,2.134000*%
G04 APERTURE END LIST*
G36*
G01*
X190689600Y-68490400D02*
X188989600Y-68490400D01*
G75*
G02*
X188938600Y-68439400I0J51000D01*
G01*
X188938600Y-66739400D01*
G75*
G02*
X188989600Y-66688400I51000J0D01*
G01*
X190689600Y-66688400D01*
G75*
G02*
X190740600Y-66739400I0J-51000D01*
G01*
X190740600Y-68439400D01*
G75*
G02*
X190689600Y-68490400I-51000J0D01*
G01*
G37*
D10*
X189839600Y-65049400D03*
X192379600Y-67589400D03*
X192379600Y-65049400D03*
X194919600Y-67589400D03*
X194919600Y-65049400D03*
X197459600Y-67589400D03*
X197459600Y-65049400D03*
X199999600Y-67589400D03*
X199999600Y-65049400D03*
X202539600Y-67589400D03*
X202539600Y-65049400D03*
X205079600Y-67589400D03*
X205079600Y-65049400D03*
X207619600Y-67589400D03*
X207619600Y-65049400D03*
X210159600Y-67589400D03*
X210159600Y-65049400D03*
X212699600Y-67589400D03*
X212699600Y-65049400D03*
X215239600Y-67589400D03*
X215239600Y-65049400D03*
X217779600Y-67589400D03*
X217779600Y-65049400D03*
X220319600Y-67589400D03*
X220319600Y-65049400D03*
X222859600Y-67589400D03*
X222859600Y-65049400D03*
X225399600Y-67589400D03*
X225399600Y-65049400D03*
X227939600Y-67589400D03*
X227939600Y-65049400D03*
X230479600Y-67589400D03*
X230479600Y-65049400D03*
X233019600Y-67589400D03*
X233019600Y-65049400D03*
G36*
G01*
X67245600Y-68490400D02*
X65545600Y-68490400D01*
G75*
G02*
X65494600Y-68439400I0J51000D01*
G01*
X65494600Y-66739400D01*
G75*
G02*
X65545600Y-66688400I51000J0D01*
G01*
X67245600Y-66688400D01*
G75*
G02*
X67296600Y-66739400I0J-51000D01*
G01*
X67296600Y-68439400D01*
G75*
G02*
X67245600Y-68490400I-51000J0D01*
G01*
G37*
X66395600Y-65049400D03*
X68935600Y-67589400D03*
X68935600Y-65049400D03*
X71475600Y-67589400D03*
X71475600Y-65049400D03*
X74015600Y-67589400D03*
X74015600Y-65049400D03*
X76555600Y-67589400D03*
X76555600Y-65049400D03*
X79095600Y-67589400D03*
X79095600Y-65049400D03*
X81635600Y-67589400D03*
X81635600Y-65049400D03*
X84175600Y-67589400D03*
X84175600Y-65049400D03*
X86715600Y-67589400D03*
X86715600Y-65049400D03*
X89255600Y-67589400D03*
X89255600Y-65049400D03*
X91795600Y-67589400D03*
X91795600Y-65049400D03*
X94335600Y-67589400D03*
X94335600Y-65049400D03*
X96875600Y-67589400D03*
X96875600Y-65049400D03*
X99415600Y-67589400D03*
X99415600Y-65049400D03*
X101955600Y-67589400D03*
X101955600Y-65049400D03*
X104495600Y-67589400D03*
X104495600Y-65049400D03*
X107035600Y-67589400D03*
X107035600Y-65049400D03*
X109575600Y-67589400D03*
X109575600Y-65049400D03*
X112115600Y-67589400D03*
X112115600Y-65049400D03*
X114655600Y-67589400D03*
X114655600Y-65049400D03*
X117195600Y-67589400D03*
X117195600Y-65049400D03*
X119735600Y-67589400D03*
X119735600Y-65049400D03*
D11*
X97505601Y-103886000D03*
X95005601Y-88886000D03*
X92505601Y-103886000D03*
X90005601Y-88886000D03*
X87505601Y-103886000D03*
X85005601Y-88886000D03*
X82505601Y-103886000D03*
X80005601Y-88886000D03*
X77505601Y-103886000D03*
X75005601Y-88886000D03*
X72505600Y-103886000D03*
X70005600Y-88886000D03*
X67505600Y-103886000D03*
X65005600Y-88886000D03*
X62505600Y-103886000D03*
X60005600Y-88886000D03*
X57505600Y-103886000D03*
X55005600Y-88886000D03*
X195752801Y-103936800D03*
X193252801Y-88936800D03*
X190752801Y-103936800D03*
X188252801Y-88936800D03*
X185752801Y-103936800D03*
X183252801Y-88936800D03*
X180752801Y-103936800D03*
X178252801Y-88936800D03*
X175752801Y-103936800D03*
X173252801Y-88936800D03*
X170752800Y-103936800D03*
X168252800Y-88936800D03*
X165752800Y-103936800D03*
X163252800Y-88936800D03*
X160752800Y-103936800D03*
X158252800Y-88936800D03*
X155752800Y-103936800D03*
X153252800Y-88936800D03*
X104078400Y-88886000D03*
X106578400Y-103886000D03*
X109078400Y-88886000D03*
X111578400Y-103886000D03*
X114078400Y-88886000D03*
X116578400Y-103886000D03*
X119078400Y-88886000D03*
X121578400Y-103886000D03*
X124078401Y-88886000D03*
X126578401Y-103886000D03*
X129078401Y-88886000D03*
X131578401Y-103886000D03*
X134078401Y-88886000D03*
X136578401Y-103886000D03*
X139078401Y-88886000D03*
X141578401Y-103886000D03*
X144078401Y-88886000D03*
X146578401Y-103886000D03*
X202427200Y-89038400D03*
X204927200Y-104038400D03*
X207427200Y-89038400D03*
X209927200Y-104038400D03*
X212427200Y-89038400D03*
X214927200Y-104038400D03*
X217427200Y-89038400D03*
X219927200Y-104038400D03*
X222427201Y-89038400D03*
X224927201Y-104038400D03*
X227427201Y-89038400D03*
X229927201Y-104038400D03*
X232427201Y-89038400D03*
X234927201Y-104038400D03*
X237427201Y-89038400D03*
X239927201Y-104038400D03*
X242427201Y-89038400D03*
X244927201Y-104038400D03*
G36*
G01*
X153257600Y-65813750D02*
X153257600Y-65250250D01*
G75*
G02*
X153501850Y-65006000I244250J0D01*
G01*
X153990350Y-65006000D01*
G75*
G02*
X154234600Y-65250250I0J-244250D01*
G01*
X154234600Y-65813750D01*
G75*
G02*
X153990350Y-66058000I-244250J0D01*
G01*
X153501850Y-66058000D01*
G75*
G02*
X153257600Y-65813750I0J244250D01*
G01*
G37*
G36*
G01*
X154832600Y-65813750D02*
X154832600Y-65250250D01*
G75*
G02*
X155076850Y-65006000I244250J0D01*
G01*
X155565350Y-65006000D01*
G75*
G02*
X155809600Y-65250250I0J-244250D01*
G01*
X155809600Y-65813750D01*
G75*
G02*
X155565350Y-66058000I-244250J0D01*
G01*
X155076850Y-66058000D01*
G75*
G02*
X154832600Y-65813750I0J244250D01*
G01*
G37*
G36*
G01*
X151517001Y-65065677D02*
X151517001Y-66017925D01*
G75*
G02*
X151242125Y-66292801I-274876J0D01*
G01*
X150664877Y-66292801D01*
G75*
G02*
X150390001Y-66017925I0J274876D01*
G01*
X150390001Y-65065677D01*
G75*
G02*
X150664877Y-64790801I274876J0D01*
G01*
X151242125Y-64790801D01*
G75*
G02*
X151517001Y-65065677I0J-274876D01*
G01*
G37*
G36*
G01*
X149692001Y-65065677D02*
X149692001Y-66017925D01*
G75*
G02*
X149417125Y-66292801I-274876J0D01*
G01*
X148839877Y-66292801D01*
G75*
G02*
X148565001Y-66017925I0J274876D01*
G01*
X148565001Y-65065677D01*
G75*
G02*
X148839877Y-64790801I274876J0D01*
G01*
X149417125Y-64790801D01*
G75*
G02*
X149692001Y-65065677I0J-274876D01*
G01*
G37*
M02*
