G04 #@! TF.GenerationSoftware,KiCad,Pcbnew,5.1.10*
G04 #@! TF.CreationDate,2021-06-21T08:13:57-04:00*
G04 #@! TF.ProjectId,EVE-PCB-V4,4556452d-5043-4422-9d56-342e6b696361,rev?*
G04 #@! TF.SameCoordinates,Original*
G04 #@! TF.FileFunction,Copper,L3,Inr*
G04 #@! TF.FilePolarity,Positive*
%FSLAX46Y46*%
G04 Gerber Fmt 4.6, Leading zero omitted, Abs format (unit mm)*
G04 Created by KiCad (PCBNEW 5.1.10) date 2021-06-21 08:13:57*
%MOMM*%
%LPD*%
G01*
G04 APERTURE LIST*
G04 #@! TA.AperFunction,ComponentPad*
%ADD10R,1.700000X1.700000*%
G04 #@! TD*
G04 #@! TA.AperFunction,ComponentPad*
%ADD11O,1.700000X1.700000*%
G04 #@! TD*
G04 #@! TA.AperFunction,ComponentPad*
%ADD12C,2.032000*%
G04 #@! TD*
G04 #@! TA.AperFunction,ViaPad*
%ADD13C,0.800000*%
G04 #@! TD*
G04 #@! TA.AperFunction,Conductor*
%ADD14C,0.800000*%
G04 #@! TD*
G04 APERTURE END LIST*
D10*
X189839600Y-67589400D03*
D11*
X189839600Y-65049400D03*
X192379600Y-67589400D03*
X192379600Y-65049400D03*
X194919600Y-67589400D03*
X194919600Y-65049400D03*
X197459600Y-67589400D03*
X197459600Y-65049400D03*
X199999600Y-67589400D03*
X199999600Y-65049400D03*
X202539600Y-67589400D03*
X202539600Y-65049400D03*
X205079600Y-67589400D03*
X205079600Y-65049400D03*
X207619600Y-67589400D03*
X207619600Y-65049400D03*
X210159600Y-67589400D03*
X210159600Y-65049400D03*
X212699600Y-67589400D03*
X212699600Y-65049400D03*
X215239600Y-67589400D03*
X215239600Y-65049400D03*
X217779600Y-67589400D03*
X217779600Y-65049400D03*
X220319600Y-67589400D03*
X220319600Y-65049400D03*
X222859600Y-67589400D03*
X222859600Y-65049400D03*
X225399600Y-67589400D03*
X225399600Y-65049400D03*
X227939600Y-67589400D03*
X227939600Y-65049400D03*
X230479600Y-67589400D03*
X230479600Y-65049400D03*
X233019600Y-67589400D03*
X233019600Y-65049400D03*
D10*
X66395600Y-67589400D03*
D11*
X66395600Y-65049400D03*
X68935600Y-67589400D03*
X68935600Y-65049400D03*
X71475600Y-67589400D03*
X71475600Y-65049400D03*
X74015600Y-67589400D03*
X74015600Y-65049400D03*
X76555600Y-67589400D03*
X76555600Y-65049400D03*
X79095600Y-67589400D03*
X79095600Y-65049400D03*
X81635600Y-67589400D03*
X81635600Y-65049400D03*
X84175600Y-67589400D03*
X84175600Y-65049400D03*
X86715600Y-67589400D03*
X86715600Y-65049400D03*
X89255600Y-67589400D03*
X89255600Y-65049400D03*
X91795600Y-67589400D03*
X91795600Y-65049400D03*
X94335600Y-67589400D03*
X94335600Y-65049400D03*
X96875600Y-67589400D03*
X96875600Y-65049400D03*
X99415600Y-67589400D03*
X99415600Y-65049400D03*
X101955600Y-67589400D03*
X101955600Y-65049400D03*
X104495600Y-67589400D03*
X104495600Y-65049400D03*
X107035600Y-67589400D03*
X107035600Y-65049400D03*
X109575600Y-67589400D03*
X109575600Y-65049400D03*
X112115600Y-67589400D03*
X112115600Y-65049400D03*
X114655600Y-67589400D03*
X114655600Y-65049400D03*
X117195600Y-67589400D03*
X117195600Y-65049400D03*
X119735600Y-67589400D03*
X119735600Y-65049400D03*
D12*
X97505601Y-103886000D03*
X95005601Y-88886000D03*
X92505601Y-103886000D03*
X90005601Y-88886000D03*
X87505601Y-103886000D03*
X85005601Y-88886000D03*
X82505601Y-103886000D03*
X80005601Y-88886000D03*
X77505601Y-103886000D03*
X75005601Y-88886000D03*
X72505600Y-103886000D03*
X70005600Y-88886000D03*
X67505600Y-103886000D03*
X65005600Y-88886000D03*
X62505600Y-103886000D03*
X60005600Y-88886000D03*
X57505600Y-103886000D03*
X55005600Y-88886000D03*
X195752801Y-103936800D03*
X193252801Y-88936800D03*
X190752801Y-103936800D03*
X188252801Y-88936800D03*
X185752801Y-103936800D03*
X183252801Y-88936800D03*
X180752801Y-103936800D03*
X178252801Y-88936800D03*
X175752801Y-103936800D03*
X173252801Y-88936800D03*
X170752800Y-103936800D03*
X168252800Y-88936800D03*
X165752800Y-103936800D03*
X163252800Y-88936800D03*
X160752800Y-103936800D03*
X158252800Y-88936800D03*
X155752800Y-103936800D03*
X153252800Y-88936800D03*
X104078400Y-88886000D03*
X106578400Y-103886000D03*
X109078400Y-88886000D03*
X111578400Y-103886000D03*
X114078400Y-88886000D03*
X116578400Y-103886000D03*
X119078400Y-88886000D03*
X121578400Y-103886000D03*
X124078401Y-88886000D03*
X126578401Y-103886000D03*
X129078401Y-88886000D03*
X131578401Y-103886000D03*
X134078401Y-88886000D03*
X136578401Y-103886000D03*
X139078401Y-88886000D03*
X141578401Y-103886000D03*
X144078401Y-88886000D03*
X146578401Y-103886000D03*
X202427200Y-89038400D03*
X204927200Y-104038400D03*
X207427200Y-89038400D03*
X209927200Y-104038400D03*
X212427200Y-89038400D03*
X214927200Y-104038400D03*
X217427200Y-89038400D03*
X219927200Y-104038400D03*
X222427201Y-89038400D03*
X224927201Y-104038400D03*
X227427201Y-89038400D03*
X229927201Y-104038400D03*
X232427201Y-89038400D03*
X234927201Y-104038400D03*
X237427201Y-89038400D03*
X239927201Y-104038400D03*
X242427201Y-89038400D03*
X244927201Y-104038400D03*
D13*
X155321100Y-67843500D03*
D14*
X152044600Y-71120000D02*
X155321100Y-67843500D01*
X118668800Y-71120000D02*
X152044600Y-71120000D01*
X117195600Y-69646800D02*
X118668800Y-71120000D01*
X117195600Y-67589400D02*
X117195600Y-69646800D01*
X197459600Y-65049400D02*
X197459600Y-63347600D01*
X195649990Y-61537990D02*
X170678269Y-61537991D01*
X197459600Y-63347600D02*
X195649990Y-61537990D01*
X170678269Y-61537991D02*
X150317200Y-81899060D01*
X150317200Y-81899060D02*
X150317200Y-97942400D01*
X150317200Y-97942400D02*
X148469210Y-99790390D01*
X105268539Y-99790391D02*
X102838390Y-102220540D01*
X148469210Y-99790390D02*
X105268539Y-99790391D01*
X102838390Y-102220540D02*
X102838390Y-108824540D01*
X102838390Y-108824540D02*
X100544140Y-111118790D01*
X100544140Y-111118790D02*
X64484390Y-111118790D01*
X62505600Y-109140000D02*
X62505600Y-103886000D01*
X64484390Y-111118790D02*
X62505600Y-109140000D01*
X149117190Y-97445340D02*
X147972150Y-98590380D01*
X199999600Y-62890400D02*
X197447180Y-60337982D01*
X197447180Y-60337982D02*
X170181208Y-60337982D01*
X170181208Y-60337982D02*
X149117190Y-81402000D01*
X149117190Y-81402000D02*
X149117190Y-97445340D01*
X199999600Y-65049400D02*
X199999600Y-62890400D01*
X147688020Y-98590380D02*
X147688018Y-98590382D01*
X147972150Y-98590380D02*
X147688020Y-98590380D01*
X104771478Y-98590382D02*
X101638380Y-101723480D01*
X147688018Y-98590382D02*
X104771478Y-98590382D01*
X101638380Y-101723480D02*
X101638380Y-108327480D01*
X101638380Y-108327480D02*
X100047080Y-109918780D01*
X100047080Y-109918780D02*
X68516780Y-109918780D01*
X67505600Y-108907600D02*
X67505600Y-103886000D01*
X68516780Y-109918780D02*
X67505600Y-108907600D01*
X155752800Y-78160530D02*
X155752800Y-98704400D01*
X155752800Y-98704400D02*
X153466800Y-100990400D01*
X194208400Y-62738000D02*
X171175330Y-62738000D01*
X194919600Y-63449200D02*
X194208400Y-62738000D01*
X171175330Y-62738000D02*
X155752800Y-78160530D01*
X194919600Y-65049400D02*
X194919600Y-63449200D01*
X153466800Y-100990400D02*
X105765600Y-100990400D01*
X105765600Y-100990400D02*
X104038400Y-102717600D01*
X104038400Y-102717600D02*
X104038400Y-109321600D01*
X104038400Y-109321600D02*
X101041200Y-112318800D01*
X101041200Y-112318800D02*
X60299600Y-112318800D01*
X57505600Y-109524800D02*
X57505600Y-103886000D01*
X60299600Y-112318800D02*
X57505600Y-109524800D01*
X202539600Y-62636400D02*
X199041172Y-59137972D01*
X169684147Y-59137973D02*
X147917180Y-80904940D01*
X202539600Y-65049400D02*
X202539600Y-62636400D01*
X147917180Y-80904940D02*
X147917180Y-96684820D01*
X147917180Y-96684820D02*
X147211628Y-97390372D01*
X199041172Y-59137972D02*
X169684147Y-59137973D01*
X104274417Y-97390373D02*
X100438370Y-101226420D01*
X147211628Y-97390372D02*
X104274417Y-97390373D01*
X100438370Y-107740030D02*
X99459630Y-108718770D01*
X100438370Y-101226420D02*
X100438370Y-107740030D01*
X99459630Y-108718770D02*
X73311170Y-108718770D01*
X72505600Y-107913200D02*
X72505600Y-103886000D01*
X73311170Y-108718770D02*
X72505600Y-107913200D01*
X114169200Y-106476800D02*
X111578400Y-103886000D01*
X117472130Y-106476800D02*
X114169200Y-106476800D01*
X118570539Y-107575209D02*
X117472130Y-106476800D01*
X123384949Y-109181619D02*
X121778540Y-107575210D01*
X152768020Y-109181620D02*
X123384949Y-109181619D01*
X153815628Y-110229228D02*
X152768020Y-109181620D01*
X207619600Y-65049400D02*
X207619600Y-62738000D01*
X212267234Y-58090366D02*
X236989044Y-58090366D01*
X241070837Y-62172162D02*
X241070836Y-71177844D01*
X207619600Y-62738000D02*
X212267234Y-58090366D01*
X236989044Y-58090366D02*
X241070837Y-62172162D01*
X241070836Y-71177844D02*
X236227040Y-76021640D01*
X236227040Y-76021640D02*
X181331160Y-76021640D01*
X178104800Y-102006400D02*
X178104800Y-106426000D01*
X181331160Y-76021640D02*
X180644800Y-76708000D01*
X178104800Y-106426000D02*
X174301572Y-110229228D01*
X121778540Y-107575210D02*
X118570539Y-107575209D01*
X180644800Y-76708000D02*
X180644800Y-99466400D01*
X180644800Y-99466400D02*
X178104800Y-102006400D01*
X174301572Y-110229228D02*
X153815628Y-110229228D01*
X210159600Y-65049400D02*
X210159600Y-62738000D01*
X210159600Y-62738000D02*
X213607228Y-59290372D01*
X236491983Y-59290374D02*
X239870828Y-62669221D01*
X213607228Y-59290372D02*
X236491983Y-59290374D01*
X239870827Y-70680783D02*
X235729980Y-74821630D01*
X239870828Y-62669221D02*
X239870827Y-70680783D01*
X235729980Y-74821630D02*
X176231970Y-74821630D01*
X176231970Y-74821630D02*
X175818800Y-75234800D01*
X175818800Y-75234800D02*
X175818800Y-99161600D01*
X175818800Y-99161600D02*
X173228000Y-101752400D01*
X173228000Y-101752400D02*
X173228000Y-106070400D01*
X154372949Y-109029219D02*
X153325340Y-107981610D01*
X170269180Y-109029220D02*
X154372949Y-109029219D01*
X173228000Y-106070400D02*
X170269180Y-109029220D01*
X153325340Y-107981610D02*
X123882010Y-107981610D01*
X123882010Y-107981610D02*
X122275600Y-106375200D01*
X119067600Y-106375200D02*
X116578400Y-103886000D01*
X122275600Y-106375200D02*
X119067600Y-106375200D01*
X113672139Y-107676809D02*
X112420865Y-106425535D01*
X116975070Y-107676810D02*
X113672139Y-107676809D01*
X118073478Y-108775218D02*
X116975070Y-107676810D01*
X121281479Y-108775219D02*
X118073478Y-108775218D01*
X122887888Y-110381628D02*
X121281479Y-108775219D01*
X153318567Y-111429237D02*
X152270959Y-110381629D01*
X109117935Y-106425535D02*
X106578400Y-103886000D01*
X178384762Y-111429238D02*
X153318567Y-111429237D01*
X205079600Y-65049400D02*
X205079600Y-63580930D01*
X237486104Y-56890356D02*
X237486105Y-56890358D01*
X211770174Y-56890356D02*
X237486104Y-56890356D01*
X205079600Y-63580930D02*
X211770174Y-56890356D01*
X237486105Y-56890358D02*
X242270846Y-61675103D01*
X183184800Y-106629200D02*
X178384762Y-111429238D01*
X185775600Y-77825600D02*
X185775600Y-99923600D01*
X242270845Y-71674905D02*
X236724100Y-77221650D01*
X236724100Y-77221650D02*
X186379550Y-77221650D01*
X112420865Y-106425535D02*
X109117935Y-106425535D01*
X152270959Y-110381629D02*
X122887888Y-110381628D01*
X242270846Y-61675103D02*
X242270845Y-71674905D01*
X186379550Y-77221650D02*
X185775600Y-77825600D01*
X185775600Y-99923600D02*
X183184800Y-102514400D01*
X183184800Y-102514400D02*
X183184800Y-106629200D01*
X212699600Y-65049400D02*
X212699600Y-62839600D01*
X212699600Y-62839600D02*
X215048819Y-60490381D01*
X235994922Y-60490382D02*
X238670819Y-63166281D01*
X215048819Y-60490381D02*
X235994922Y-60490382D01*
X238670818Y-70183722D02*
X235232920Y-73621620D01*
X238670819Y-63166281D02*
X238670818Y-70183722D01*
X235232920Y-73621620D02*
X172148780Y-73621620D01*
X172148780Y-73621620D02*
X170789600Y-74980800D01*
X170789600Y-74980800D02*
X170789600Y-99415600D01*
X170789600Y-99415600D02*
X168300400Y-101904800D01*
X168300400Y-101904800D02*
X168300400Y-106172000D01*
X166643190Y-107829210D02*
X154870010Y-107829210D01*
X168300400Y-106172000D02*
X166643190Y-107829210D01*
X154870010Y-107829210D02*
X153822400Y-106781600D01*
X124474000Y-106781600D02*
X121578400Y-103886000D01*
X153822400Y-106781600D02*
X124474000Y-106781600D01*
X160680400Y-103864400D02*
X160752800Y-103936800D01*
X164388800Y-71221600D02*
X160680400Y-74930000D01*
X234238800Y-71221600D02*
X164388800Y-71221600D01*
X236270800Y-69189600D02*
X234238800Y-71221600D01*
X236270800Y-64160400D02*
X236270800Y-69189600D01*
X235000800Y-62890400D02*
X236270800Y-64160400D01*
X218541600Y-62890400D02*
X235000800Y-62890400D01*
X217779600Y-63652400D02*
X218541600Y-62890400D01*
X160680400Y-74930000D02*
X160680400Y-103864400D01*
X217779600Y-65049400D02*
X217779600Y-63652400D01*
X235497861Y-61690391D02*
X237470810Y-63663340D01*
X217396528Y-61690391D02*
X235497861Y-61690391D01*
X215239600Y-63847319D02*
X217396528Y-61690391D01*
X215239600Y-65049400D02*
X215239600Y-63847319D01*
X237470809Y-69686661D02*
X234735860Y-72421610D01*
X237470810Y-63663340D02*
X237470809Y-69686661D01*
X234735860Y-72421610D02*
X167913190Y-72421610D01*
X167913190Y-72421610D02*
X165862000Y-74472800D01*
X165862000Y-74472800D02*
X165862000Y-99720400D01*
X165862000Y-99720400D02*
X163271200Y-102311200D01*
X163271200Y-102311200D02*
X163271200Y-105511600D01*
X163271200Y-105511600D02*
X162153600Y-106629200D01*
X158445200Y-106629200D02*
X155752800Y-103936800D01*
X162153600Y-106629200D02*
X158445200Y-106629200D01*
M02*
