M48
; DRILL file {KiCad 5.1.10} date Mon Jun 21 08:13:58 2021
; FORMAT={-:-/ absolute / metric / decimal}
; #@! TF.CreationDate,2021-06-21T08:13:58-04:00
; #@! TF.GenerationSoftware,Kicad,Pcbnew,5.1.10
; #@! TF.FileFunction,Plated,1,4,PTH
FMAT,2
METRIC
T1C0.400
T2C1.000
T3C1.524
%
G90
G05
T1
X155.321Y-67.843
T2
X66.396Y-65.049
X66.396Y-67.589
X68.936Y-65.049
X68.936Y-67.589
X71.476Y-65.049
X71.476Y-67.589
X74.016Y-65.049
X74.016Y-67.589
X76.556Y-65.049
X76.556Y-67.589
X79.096Y-65.049
X79.096Y-67.589
X81.636Y-65.049
X81.636Y-67.589
X84.176Y-65.049
X84.176Y-67.589
X86.716Y-65.049
X86.716Y-67.589
X89.256Y-65.049
X89.256Y-67.589
X91.796Y-65.049
X91.796Y-67.589
X94.336Y-65.049
X94.336Y-67.589
X96.876Y-65.049
X96.876Y-67.589
X99.416Y-65.049
X99.416Y-67.589
X101.956Y-65.049
X101.956Y-67.589
X104.496Y-65.049
X104.496Y-67.589
X107.036Y-65.049
X107.036Y-67.589
X109.576Y-65.049
X109.576Y-67.589
X112.116Y-65.049
X112.116Y-67.589
X114.656Y-65.049
X114.656Y-67.589
X117.196Y-65.049
X117.196Y-67.589
X119.736Y-65.049
X119.736Y-67.589
X189.84Y-65.049
X189.84Y-67.589
X192.38Y-65.049
X192.38Y-67.589
X194.92Y-65.049
X194.92Y-67.589
X197.46Y-65.049
X197.46Y-67.589
X200.0Y-65.049
X200.0Y-67.589
X202.54Y-65.049
X202.54Y-67.589
X205.08Y-65.049
X205.08Y-67.589
X207.62Y-65.049
X207.62Y-67.589
X210.16Y-65.049
X210.16Y-67.589
X212.7Y-65.049
X212.7Y-67.589
X215.24Y-65.049
X215.24Y-67.589
X217.78Y-65.049
X217.78Y-67.589
X220.32Y-65.049
X220.32Y-67.589
X222.86Y-65.049
X222.86Y-67.589
X225.4Y-65.049
X225.4Y-67.589
X227.94Y-65.049
X227.94Y-67.589
X230.48Y-65.049
X230.48Y-67.589
X233.02Y-65.049
X233.02Y-67.589
T3
X55.006Y-88.886
X57.506Y-103.886
X60.006Y-88.886
X62.506Y-103.886
X65.006Y-88.886
X67.506Y-103.886
X70.006Y-88.886
X72.506Y-103.886
X75.006Y-88.886
X77.506Y-103.886
X80.006Y-88.886
X82.506Y-103.886
X85.006Y-88.886
X87.506Y-103.886
X90.006Y-88.886
X92.506Y-103.886
X95.006Y-88.886
X97.506Y-103.886
X104.078Y-88.886
X106.578Y-103.886
X109.078Y-88.886
X111.578Y-103.886
X114.078Y-88.886
X116.578Y-103.886
X119.078Y-88.886
X121.578Y-103.886
X124.078Y-88.886
X126.578Y-103.886
X129.078Y-88.886
X131.578Y-103.886
X134.078Y-88.886
X136.578Y-103.886
X139.078Y-88.886
X141.578Y-103.886
X144.078Y-88.886
X146.578Y-103.886
X153.253Y-88.937
X155.753Y-103.937
X158.253Y-88.937
X160.753Y-103.937
X163.253Y-88.937
X165.753Y-103.937
X168.253Y-88.937
X170.753Y-103.937
X173.253Y-88.937
X175.753Y-103.937
X178.253Y-88.937
X180.753Y-103.937
X183.253Y-88.937
X185.753Y-103.937
X188.253Y-88.937
X190.753Y-103.937
X193.253Y-88.937
X195.753Y-103.937
X202.427Y-89.038
X204.927Y-104.038
X207.427Y-89.038
X209.927Y-104.038
X212.427Y-89.038
X214.927Y-104.038
X217.427Y-89.038
X219.927Y-104.038
X222.427Y-89.038
X224.927Y-104.038
X227.427Y-89.038
X229.927Y-104.038
X232.427Y-89.038
X234.927Y-104.038
X237.427Y-89.038
X239.927Y-104.038
X242.427Y-89.038
X244.927Y-104.038
T0
M30
