G04 #@! TF.GenerationSoftware,KiCad,Pcbnew,5.1.6*
G04 #@! TF.CreationDate,2020-07-27T18:45:12-04:00*
G04 #@! TF.ProjectId,EVE-PCB-V4,4556452d-5043-4422-9d56-342e6b696361,rev?*
G04 #@! TF.SameCoordinates,Original*
G04 #@! TF.FileFunction,Paste,Top*
G04 #@! TF.FilePolarity,Positive*
%FSLAX46Y46*%
G04 Gerber Fmt 4.6, Leading zero omitted, Abs format (unit mm)*
G04 Created by KiCad (PCBNEW 5.1.6) date 2020-07-27 18:45:12*
%MOMM*%
%LPD*%
G01*
G04 APERTURE LIST*
%ADD10R,1.800000X2.500000*%
%ADD11R,2.500000X1.800000*%
%ADD12R,0.900000X0.800000*%
%ADD13R,1.400000X0.300000*%
G04 APERTURE END LIST*
G36*
G01*
X164788000Y-70762000D02*
X164788000Y-70462000D01*
G75*
G02*
X164938000Y-70312000I150000J0D01*
G01*
X166688000Y-70312000D01*
G75*
G02*
X166838000Y-70462000I0J-150000D01*
G01*
X166838000Y-70762000D01*
G75*
G02*
X166688000Y-70912000I-150000J0D01*
G01*
X164938000Y-70912000D01*
G75*
G02*
X164788000Y-70762000I0J150000D01*
G01*
G37*
G36*
G01*
X164788000Y-72032000D02*
X164788000Y-71732000D01*
G75*
G02*
X164938000Y-71582000I150000J0D01*
G01*
X166688000Y-71582000D01*
G75*
G02*
X166838000Y-71732000I0J-150000D01*
G01*
X166838000Y-72032000D01*
G75*
G02*
X166688000Y-72182000I-150000J0D01*
G01*
X164938000Y-72182000D01*
G75*
G02*
X164788000Y-72032000I0J150000D01*
G01*
G37*
G36*
G01*
X164788000Y-73302000D02*
X164788000Y-73002000D01*
G75*
G02*
X164938000Y-72852000I150000J0D01*
G01*
X166688000Y-72852000D01*
G75*
G02*
X166838000Y-73002000I0J-150000D01*
G01*
X166838000Y-73302000D01*
G75*
G02*
X166688000Y-73452000I-150000J0D01*
G01*
X164938000Y-73452000D01*
G75*
G02*
X164788000Y-73302000I0J150000D01*
G01*
G37*
G36*
G01*
X164788000Y-74572000D02*
X164788000Y-74272000D01*
G75*
G02*
X164938000Y-74122000I150000J0D01*
G01*
X166688000Y-74122000D01*
G75*
G02*
X166838000Y-74272000I0J-150000D01*
G01*
X166838000Y-74572000D01*
G75*
G02*
X166688000Y-74722000I-150000J0D01*
G01*
X164938000Y-74722000D01*
G75*
G02*
X164788000Y-74572000I0J150000D01*
G01*
G37*
G36*
G01*
X164788000Y-75842000D02*
X164788000Y-75542000D01*
G75*
G02*
X164938000Y-75392000I150000J0D01*
G01*
X166688000Y-75392000D01*
G75*
G02*
X166838000Y-75542000I0J-150000D01*
G01*
X166838000Y-75842000D01*
G75*
G02*
X166688000Y-75992000I-150000J0D01*
G01*
X164938000Y-75992000D01*
G75*
G02*
X164788000Y-75842000I0J150000D01*
G01*
G37*
G36*
G01*
X164788000Y-77112000D02*
X164788000Y-76812000D01*
G75*
G02*
X164938000Y-76662000I150000J0D01*
G01*
X166688000Y-76662000D01*
G75*
G02*
X166838000Y-76812000I0J-150000D01*
G01*
X166838000Y-77112000D01*
G75*
G02*
X166688000Y-77262000I-150000J0D01*
G01*
X164938000Y-77262000D01*
G75*
G02*
X164788000Y-77112000I0J150000D01*
G01*
G37*
G36*
G01*
X164788000Y-78382000D02*
X164788000Y-78082000D01*
G75*
G02*
X164938000Y-77932000I150000J0D01*
G01*
X166688000Y-77932000D01*
G75*
G02*
X166838000Y-78082000I0J-150000D01*
G01*
X166838000Y-78382000D01*
G75*
G02*
X166688000Y-78532000I-150000J0D01*
G01*
X164938000Y-78532000D01*
G75*
G02*
X164788000Y-78382000I0J150000D01*
G01*
G37*
G36*
G01*
X164788000Y-79652000D02*
X164788000Y-79352000D01*
G75*
G02*
X164938000Y-79202000I150000J0D01*
G01*
X166688000Y-79202000D01*
G75*
G02*
X166838000Y-79352000I0J-150000D01*
G01*
X166838000Y-79652000D01*
G75*
G02*
X166688000Y-79802000I-150000J0D01*
G01*
X164938000Y-79802000D01*
G75*
G02*
X164788000Y-79652000I0J150000D01*
G01*
G37*
G36*
G01*
X164788000Y-80922000D02*
X164788000Y-80622000D01*
G75*
G02*
X164938000Y-80472000I150000J0D01*
G01*
X166688000Y-80472000D01*
G75*
G02*
X166838000Y-80622000I0J-150000D01*
G01*
X166838000Y-80922000D01*
G75*
G02*
X166688000Y-81072000I-150000J0D01*
G01*
X164938000Y-81072000D01*
G75*
G02*
X164788000Y-80922000I0J150000D01*
G01*
G37*
G36*
G01*
X155488000Y-80922000D02*
X155488000Y-80622000D01*
G75*
G02*
X155638000Y-80472000I150000J0D01*
G01*
X157388000Y-80472000D01*
G75*
G02*
X157538000Y-80622000I0J-150000D01*
G01*
X157538000Y-80922000D01*
G75*
G02*
X157388000Y-81072000I-150000J0D01*
G01*
X155638000Y-81072000D01*
G75*
G02*
X155488000Y-80922000I0J150000D01*
G01*
G37*
G36*
G01*
X155488000Y-79652000D02*
X155488000Y-79352000D01*
G75*
G02*
X155638000Y-79202000I150000J0D01*
G01*
X157388000Y-79202000D01*
G75*
G02*
X157538000Y-79352000I0J-150000D01*
G01*
X157538000Y-79652000D01*
G75*
G02*
X157388000Y-79802000I-150000J0D01*
G01*
X155638000Y-79802000D01*
G75*
G02*
X155488000Y-79652000I0J150000D01*
G01*
G37*
G36*
G01*
X155488000Y-78382000D02*
X155488000Y-78082000D01*
G75*
G02*
X155638000Y-77932000I150000J0D01*
G01*
X157388000Y-77932000D01*
G75*
G02*
X157538000Y-78082000I0J-150000D01*
G01*
X157538000Y-78382000D01*
G75*
G02*
X157388000Y-78532000I-150000J0D01*
G01*
X155638000Y-78532000D01*
G75*
G02*
X155488000Y-78382000I0J150000D01*
G01*
G37*
G36*
G01*
X155488000Y-77112000D02*
X155488000Y-76812000D01*
G75*
G02*
X155638000Y-76662000I150000J0D01*
G01*
X157388000Y-76662000D01*
G75*
G02*
X157538000Y-76812000I0J-150000D01*
G01*
X157538000Y-77112000D01*
G75*
G02*
X157388000Y-77262000I-150000J0D01*
G01*
X155638000Y-77262000D01*
G75*
G02*
X155488000Y-77112000I0J150000D01*
G01*
G37*
G36*
G01*
X155488000Y-75842000D02*
X155488000Y-75542000D01*
G75*
G02*
X155638000Y-75392000I150000J0D01*
G01*
X157388000Y-75392000D01*
G75*
G02*
X157538000Y-75542000I0J-150000D01*
G01*
X157538000Y-75842000D01*
G75*
G02*
X157388000Y-75992000I-150000J0D01*
G01*
X155638000Y-75992000D01*
G75*
G02*
X155488000Y-75842000I0J150000D01*
G01*
G37*
G36*
G01*
X155488000Y-74572000D02*
X155488000Y-74272000D01*
G75*
G02*
X155638000Y-74122000I150000J0D01*
G01*
X157388000Y-74122000D01*
G75*
G02*
X157538000Y-74272000I0J-150000D01*
G01*
X157538000Y-74572000D01*
G75*
G02*
X157388000Y-74722000I-150000J0D01*
G01*
X155638000Y-74722000D01*
G75*
G02*
X155488000Y-74572000I0J150000D01*
G01*
G37*
G36*
G01*
X155488000Y-73302000D02*
X155488000Y-73002000D01*
G75*
G02*
X155638000Y-72852000I150000J0D01*
G01*
X157388000Y-72852000D01*
G75*
G02*
X157538000Y-73002000I0J-150000D01*
G01*
X157538000Y-73302000D01*
G75*
G02*
X157388000Y-73452000I-150000J0D01*
G01*
X155638000Y-73452000D01*
G75*
G02*
X155488000Y-73302000I0J150000D01*
G01*
G37*
G36*
G01*
X155488000Y-72032000D02*
X155488000Y-71732000D01*
G75*
G02*
X155638000Y-71582000I150000J0D01*
G01*
X157388000Y-71582000D01*
G75*
G02*
X157538000Y-71732000I0J-150000D01*
G01*
X157538000Y-72032000D01*
G75*
G02*
X157388000Y-72182000I-150000J0D01*
G01*
X155638000Y-72182000D01*
G75*
G02*
X155488000Y-72032000I0J150000D01*
G01*
G37*
G36*
G01*
X155488000Y-70762000D02*
X155488000Y-70462000D01*
G75*
G02*
X155638000Y-70312000I150000J0D01*
G01*
X157388000Y-70312000D01*
G75*
G02*
X157538000Y-70462000I0J-150000D01*
G01*
X157538000Y-70762000D01*
G75*
G02*
X157388000Y-70912000I-150000J0D01*
G01*
X155638000Y-70912000D01*
G75*
G02*
X155488000Y-70762000I0J150000D01*
G01*
G37*
G36*
G01*
X102397499Y-89093000D02*
X105247501Y-89093000D01*
G75*
G02*
X105497500Y-89342999I0J-249999D01*
G01*
X105497500Y-90193001D01*
G75*
G02*
X105247501Y-90443000I-249999J0D01*
G01*
X102397499Y-90443000D01*
G75*
G02*
X102147500Y-90193001I0J249999D01*
G01*
X102147500Y-89342999D01*
G75*
G02*
X102397499Y-89093000I249999J0D01*
G01*
G37*
G36*
G01*
X102397499Y-83293000D02*
X105247501Y-83293000D01*
G75*
G02*
X105497500Y-83542999I0J-249999D01*
G01*
X105497500Y-84393001D01*
G75*
G02*
X105247501Y-84643000I-249999J0D01*
G01*
X102397499Y-84643000D01*
G75*
G02*
X102147500Y-84393001I0J249999D01*
G01*
X102147500Y-83542999D01*
G75*
G02*
X102397499Y-83293000I249999J0D01*
G01*
G37*
G36*
G01*
X118018499Y-89093000D02*
X120868501Y-89093000D01*
G75*
G02*
X121118500Y-89342999I0J-249999D01*
G01*
X121118500Y-90193001D01*
G75*
G02*
X120868501Y-90443000I-249999J0D01*
G01*
X118018499Y-90443000D01*
G75*
G02*
X117768500Y-90193001I0J249999D01*
G01*
X117768500Y-89342999D01*
G75*
G02*
X118018499Y-89093000I249999J0D01*
G01*
G37*
G36*
G01*
X118018499Y-83293000D02*
X120868501Y-83293000D01*
G75*
G02*
X121118500Y-83542999I0J-249999D01*
G01*
X121118500Y-84393001D01*
G75*
G02*
X120868501Y-84643000I-249999J0D01*
G01*
X118018499Y-84643000D01*
G75*
G02*
X117768500Y-84393001I0J249999D01*
G01*
X117768500Y-83542999D01*
G75*
G02*
X118018499Y-83293000I249999J0D01*
G01*
G37*
G36*
G01*
X165135499Y-89156500D02*
X167985501Y-89156500D01*
G75*
G02*
X168235500Y-89406499I0J-249999D01*
G01*
X168235500Y-90256501D01*
G75*
G02*
X167985501Y-90506500I-249999J0D01*
G01*
X165135499Y-90506500D01*
G75*
G02*
X164885500Y-90256501I0J249999D01*
G01*
X164885500Y-89406499D01*
G75*
G02*
X165135499Y-89156500I249999J0D01*
G01*
G37*
G36*
G01*
X165135499Y-83356500D02*
X167985501Y-83356500D01*
G75*
G02*
X168235500Y-83606499I0J-249999D01*
G01*
X168235500Y-84456501D01*
G75*
G02*
X167985501Y-84706500I-249999J0D01*
G01*
X165135499Y-84706500D01*
G75*
G02*
X164885500Y-84456501I0J249999D01*
G01*
X164885500Y-83606499D01*
G75*
G02*
X165135499Y-83356500I249999J0D01*
G01*
G37*
G36*
G01*
X180629499Y-89156500D02*
X183479501Y-89156500D01*
G75*
G02*
X183729500Y-89406499I0J-249999D01*
G01*
X183729500Y-90256501D01*
G75*
G02*
X183479501Y-90506500I-249999J0D01*
G01*
X180629499Y-90506500D01*
G75*
G02*
X180379500Y-90256501I0J249999D01*
G01*
X180379500Y-89406499D01*
G75*
G02*
X180629499Y-89156500I249999J0D01*
G01*
G37*
G36*
G01*
X180629499Y-83356500D02*
X183479501Y-83356500D01*
G75*
G02*
X183729500Y-83606499I0J-249999D01*
G01*
X183729500Y-84456501D01*
G75*
G02*
X183479501Y-84706500I-249999J0D01*
G01*
X180629499Y-84706500D01*
G75*
G02*
X180379500Y-84456501I0J249999D01*
G01*
X180379500Y-83606499D01*
G75*
G02*
X180629499Y-83356500I249999J0D01*
G01*
G37*
G36*
G01*
X168320500Y-53785000D02*
X167975500Y-53785000D01*
G75*
G02*
X167828000Y-53637500I0J147500D01*
G01*
X167828000Y-53342500D01*
G75*
G02*
X167975500Y-53195000I147500J0D01*
G01*
X168320500Y-53195000D01*
G75*
G02*
X168468000Y-53342500I0J-147500D01*
G01*
X168468000Y-53637500D01*
G75*
G02*
X168320500Y-53785000I-147500J0D01*
G01*
G37*
G36*
G01*
X168320500Y-54755000D02*
X167975500Y-54755000D01*
G75*
G02*
X167828000Y-54607500I0J147500D01*
G01*
X167828000Y-54312500D01*
G75*
G02*
X167975500Y-54165000I147500J0D01*
G01*
X168320500Y-54165000D01*
G75*
G02*
X168468000Y-54312500I0J-147500D01*
G01*
X168468000Y-54607500D01*
G75*
G02*
X168320500Y-54755000I-147500J0D01*
G01*
G37*
G36*
G01*
X170860500Y-53785000D02*
X170515500Y-53785000D01*
G75*
G02*
X170368000Y-53637500I0J147500D01*
G01*
X170368000Y-53342500D01*
G75*
G02*
X170515500Y-53195000I147500J0D01*
G01*
X170860500Y-53195000D01*
G75*
G02*
X171008000Y-53342500I0J-147500D01*
G01*
X171008000Y-53637500D01*
G75*
G02*
X170860500Y-53785000I-147500J0D01*
G01*
G37*
G36*
G01*
X170860500Y-54755000D02*
X170515500Y-54755000D01*
G75*
G02*
X170368000Y-54607500I0J147500D01*
G01*
X170368000Y-54312500D01*
G75*
G02*
X170515500Y-54165000I147500J0D01*
G01*
X170860500Y-54165000D01*
G75*
G02*
X171008000Y-54312500I0J-147500D01*
G01*
X171008000Y-54607500D01*
G75*
G02*
X170860500Y-54755000I-147500J0D01*
G01*
G37*
G36*
G01*
X174960500Y-59626000D02*
X175305500Y-59626000D01*
G75*
G02*
X175453000Y-59773500I0J-147500D01*
G01*
X175453000Y-60068500D01*
G75*
G02*
X175305500Y-60216000I-147500J0D01*
G01*
X174960500Y-60216000D01*
G75*
G02*
X174813000Y-60068500I0J147500D01*
G01*
X174813000Y-59773500D01*
G75*
G02*
X174960500Y-59626000I147500J0D01*
G01*
G37*
G36*
G01*
X174960500Y-58656000D02*
X175305500Y-58656000D01*
G75*
G02*
X175453000Y-58803500I0J-147500D01*
G01*
X175453000Y-59098500D01*
G75*
G02*
X175305500Y-59246000I-147500J0D01*
G01*
X174960500Y-59246000D01*
G75*
G02*
X174813000Y-59098500I0J147500D01*
G01*
X174813000Y-58803500D01*
G75*
G02*
X174960500Y-58656000I147500J0D01*
G01*
G37*
G36*
G01*
X172547500Y-61912000D02*
X172892500Y-61912000D01*
G75*
G02*
X173040000Y-62059500I0J-147500D01*
G01*
X173040000Y-62354500D01*
G75*
G02*
X172892500Y-62502000I-147500J0D01*
G01*
X172547500Y-62502000D01*
G75*
G02*
X172400000Y-62354500I0J147500D01*
G01*
X172400000Y-62059500D01*
G75*
G02*
X172547500Y-61912000I147500J0D01*
G01*
G37*
G36*
G01*
X172547500Y-60942000D02*
X172892500Y-60942000D01*
G75*
G02*
X173040000Y-61089500I0J-147500D01*
G01*
X173040000Y-61384500D01*
G75*
G02*
X172892500Y-61532000I-147500J0D01*
G01*
X172547500Y-61532000D01*
G75*
G02*
X172400000Y-61384500I0J147500D01*
G01*
X172400000Y-61089500D01*
G75*
G02*
X172547500Y-60942000I147500J0D01*
G01*
G37*
G36*
G01*
X172727000Y-122545000D02*
X172727000Y-121295000D01*
G75*
G02*
X172977000Y-121045000I250000J0D01*
G01*
X173727000Y-121045000D01*
G75*
G02*
X173977000Y-121295000I0J-250000D01*
G01*
X173977000Y-122545000D01*
G75*
G02*
X173727000Y-122795000I-250000J0D01*
G01*
X172977000Y-122795000D01*
G75*
G02*
X172727000Y-122545000I0J250000D01*
G01*
G37*
G36*
G01*
X175527000Y-122545000D02*
X175527000Y-121295000D01*
G75*
G02*
X175777000Y-121045000I250000J0D01*
G01*
X176527000Y-121045000D01*
G75*
G02*
X176777000Y-121295000I0J-250000D01*
G01*
X176777000Y-122545000D01*
G75*
G02*
X176527000Y-122795000I-250000J0D01*
G01*
X175777000Y-122795000D01*
G75*
G02*
X175527000Y-122545000I0J250000D01*
G01*
G37*
G36*
G01*
X147327000Y-122545000D02*
X147327000Y-121295000D01*
G75*
G02*
X147577000Y-121045000I250000J0D01*
G01*
X148327000Y-121045000D01*
G75*
G02*
X148577000Y-121295000I0J-250000D01*
G01*
X148577000Y-122545000D01*
G75*
G02*
X148327000Y-122795000I-250000J0D01*
G01*
X147577000Y-122795000D01*
G75*
G02*
X147327000Y-122545000I0J250000D01*
G01*
G37*
G36*
G01*
X150127000Y-122545000D02*
X150127000Y-121295000D01*
G75*
G02*
X150377000Y-121045000I250000J0D01*
G01*
X151127000Y-121045000D01*
G75*
G02*
X151377000Y-121295000I0J-250000D01*
G01*
X151377000Y-122545000D01*
G75*
G02*
X151127000Y-122795000I-250000J0D01*
G01*
X150377000Y-122795000D01*
G75*
G02*
X150127000Y-122545000I0J250000D01*
G01*
G37*
G36*
G01*
X123841000Y-122545000D02*
X123841000Y-121295000D01*
G75*
G02*
X124091000Y-121045000I250000J0D01*
G01*
X124841000Y-121045000D01*
G75*
G02*
X125091000Y-121295000I0J-250000D01*
G01*
X125091000Y-122545000D01*
G75*
G02*
X124841000Y-122795000I-250000J0D01*
G01*
X124091000Y-122795000D01*
G75*
G02*
X123841000Y-122545000I0J250000D01*
G01*
G37*
G36*
G01*
X121041000Y-122545000D02*
X121041000Y-121295000D01*
G75*
G02*
X121291000Y-121045000I250000J0D01*
G01*
X122041000Y-121045000D01*
G75*
G02*
X122291000Y-121295000I0J-250000D01*
G01*
X122291000Y-122545000D01*
G75*
G02*
X122041000Y-122795000I-250000J0D01*
G01*
X121291000Y-122795000D01*
G75*
G02*
X121041000Y-122545000I0J250000D01*
G01*
G37*
G36*
G01*
X94365000Y-122545000D02*
X94365000Y-121295000D01*
G75*
G02*
X94615000Y-121045000I250000J0D01*
G01*
X95365000Y-121045000D01*
G75*
G02*
X95615000Y-121295000I0J-250000D01*
G01*
X95615000Y-122545000D01*
G75*
G02*
X95365000Y-122795000I-250000J0D01*
G01*
X94615000Y-122795000D01*
G75*
G02*
X94365000Y-122545000I0J250000D01*
G01*
G37*
G36*
G01*
X97165000Y-122545000D02*
X97165000Y-121295000D01*
G75*
G02*
X97415000Y-121045000I250000J0D01*
G01*
X98165000Y-121045000D01*
G75*
G02*
X98415000Y-121295000I0J-250000D01*
G01*
X98415000Y-122545000D01*
G75*
G02*
X98165000Y-122795000I-250000J0D01*
G01*
X97415000Y-122795000D01*
G75*
G02*
X97165000Y-122545000I0J250000D01*
G01*
G37*
G36*
G01*
X171396600Y-51307050D02*
X171396600Y-50394550D01*
G75*
G02*
X171640350Y-50150800I243750J0D01*
G01*
X172127850Y-50150800D01*
G75*
G02*
X172371600Y-50394550I0J-243750D01*
G01*
X172371600Y-51307050D01*
G75*
G02*
X172127850Y-51550800I-243750J0D01*
G01*
X171640350Y-51550800D01*
G75*
G02*
X171396600Y-51307050I0J243750D01*
G01*
G37*
G36*
G01*
X173271600Y-51307050D02*
X173271600Y-50394550D01*
G75*
G02*
X173515350Y-50150800I243750J0D01*
G01*
X174002850Y-50150800D01*
G75*
G02*
X174246600Y-50394550I0J-243750D01*
G01*
X174246600Y-51307050D01*
G75*
G02*
X174002850Y-51550800I-243750J0D01*
G01*
X173515350Y-51550800D01*
G75*
G02*
X173271600Y-51307050I0J243750D01*
G01*
G37*
D10*
X91842846Y-36688269D03*
X91842846Y-40688269D03*
X98363846Y-36751769D03*
X98363846Y-40751769D03*
X111596346Y-40688269D03*
X111596346Y-36688269D03*
X105011846Y-49821769D03*
X105011846Y-45821769D03*
X105011846Y-40751769D03*
X105011846Y-36751769D03*
X98363846Y-45821769D03*
X98363846Y-49821769D03*
X111596346Y-45821769D03*
X111596346Y-49821769D03*
X111596346Y-58891769D03*
X111596346Y-54891769D03*
X91842846Y-45821769D03*
X91842846Y-49821769D03*
X98363846Y-54891769D03*
X98363846Y-58891769D03*
X105011846Y-58891769D03*
X105011846Y-54891769D03*
X91842846Y-54891769D03*
X91842846Y-58891769D03*
G36*
G01*
X136062500Y-79139000D02*
X135717500Y-79139000D01*
G75*
G02*
X135570000Y-78991500I0J147500D01*
G01*
X135570000Y-78696500D01*
G75*
G02*
X135717500Y-78549000I147500J0D01*
G01*
X136062500Y-78549000D01*
G75*
G02*
X136210000Y-78696500I0J-147500D01*
G01*
X136210000Y-78991500D01*
G75*
G02*
X136062500Y-79139000I-147500J0D01*
G01*
G37*
G36*
G01*
X136062500Y-78169000D02*
X135717500Y-78169000D01*
G75*
G02*
X135570000Y-78021500I0J147500D01*
G01*
X135570000Y-77726500D01*
G75*
G02*
X135717500Y-77579000I147500J0D01*
G01*
X136062500Y-77579000D01*
G75*
G02*
X136210000Y-77726500I0J-147500D01*
G01*
X136210000Y-78021500D01*
G75*
G02*
X136062500Y-78169000I-147500J0D01*
G01*
G37*
G36*
G01*
X139491500Y-78169000D02*
X139146500Y-78169000D01*
G75*
G02*
X138999000Y-78021500I0J147500D01*
G01*
X138999000Y-77726500D01*
G75*
G02*
X139146500Y-77579000I147500J0D01*
G01*
X139491500Y-77579000D01*
G75*
G02*
X139639000Y-77726500I0J-147500D01*
G01*
X139639000Y-78021500D01*
G75*
G02*
X139491500Y-78169000I-147500J0D01*
G01*
G37*
G36*
G01*
X139491500Y-79139000D02*
X139146500Y-79139000D01*
G75*
G02*
X138999000Y-78991500I0J147500D01*
G01*
X138999000Y-78696500D01*
G75*
G02*
X139146500Y-78549000I147500J0D01*
G01*
X139491500Y-78549000D01*
G75*
G02*
X139639000Y-78696500I0J-147500D01*
G01*
X139639000Y-78991500D01*
G75*
G02*
X139491500Y-79139000I-147500J0D01*
G01*
G37*
G36*
G01*
X140253500Y-81806000D02*
X139908500Y-81806000D01*
G75*
G02*
X139761000Y-81658500I0J147500D01*
G01*
X139761000Y-81363500D01*
G75*
G02*
X139908500Y-81216000I147500J0D01*
G01*
X140253500Y-81216000D01*
G75*
G02*
X140401000Y-81363500I0J-147500D01*
G01*
X140401000Y-81658500D01*
G75*
G02*
X140253500Y-81806000I-147500J0D01*
G01*
G37*
G36*
G01*
X140253500Y-80836000D02*
X139908500Y-80836000D01*
G75*
G02*
X139761000Y-80688500I0J147500D01*
G01*
X139761000Y-80393500D01*
G75*
G02*
X139908500Y-80246000I147500J0D01*
G01*
X140253500Y-80246000D01*
G75*
G02*
X140401000Y-80393500I0J-147500D01*
G01*
X140401000Y-80688500D01*
G75*
G02*
X140253500Y-80836000I-147500J0D01*
G01*
G37*
G36*
G01*
X137332500Y-80836000D02*
X136987500Y-80836000D01*
G75*
G02*
X136840000Y-80688500I0J147500D01*
G01*
X136840000Y-80393500D01*
G75*
G02*
X136987500Y-80246000I147500J0D01*
G01*
X137332500Y-80246000D01*
G75*
G02*
X137480000Y-80393500I0J-147500D01*
G01*
X137480000Y-80688500D01*
G75*
G02*
X137332500Y-80836000I-147500J0D01*
G01*
G37*
G36*
G01*
X137332500Y-81806000D02*
X136987500Y-81806000D01*
G75*
G02*
X136840000Y-81658500I0J147500D01*
G01*
X136840000Y-81363500D01*
G75*
G02*
X136987500Y-81216000I147500J0D01*
G01*
X137332500Y-81216000D01*
G75*
G02*
X137480000Y-81363500I0J-147500D01*
G01*
X137480000Y-81658500D01*
G75*
G02*
X137332500Y-81806000I-147500J0D01*
G01*
G37*
G36*
G01*
X136316500Y-59354500D02*
X136316500Y-59009500D01*
G75*
G02*
X136464000Y-58862000I147500J0D01*
G01*
X136759000Y-58862000D01*
G75*
G02*
X136906500Y-59009500I0J-147500D01*
G01*
X136906500Y-59354500D01*
G75*
G02*
X136759000Y-59502000I-147500J0D01*
G01*
X136464000Y-59502000D01*
G75*
G02*
X136316500Y-59354500I0J147500D01*
G01*
G37*
G36*
G01*
X137286500Y-59354500D02*
X137286500Y-59009500D01*
G75*
G02*
X137434000Y-58862000I147500J0D01*
G01*
X137729000Y-58862000D01*
G75*
G02*
X137876500Y-59009500I0J-147500D01*
G01*
X137876500Y-59354500D01*
G75*
G02*
X137729000Y-59502000I-147500J0D01*
G01*
X137434000Y-59502000D01*
G75*
G02*
X137286500Y-59354500I0J147500D01*
G01*
G37*
G36*
G01*
X184237000Y-80622000D02*
X184237000Y-80922000D01*
G75*
G02*
X184087000Y-81072000I-150000J0D01*
G01*
X182337000Y-81072000D01*
G75*
G02*
X182187000Y-80922000I0J150000D01*
G01*
X182187000Y-80622000D01*
G75*
G02*
X182337000Y-80472000I150000J0D01*
G01*
X184087000Y-80472000D01*
G75*
G02*
X184237000Y-80622000I0J-150000D01*
G01*
G37*
G36*
G01*
X184237000Y-79352000D02*
X184237000Y-79652000D01*
G75*
G02*
X184087000Y-79802000I-150000J0D01*
G01*
X182337000Y-79802000D01*
G75*
G02*
X182187000Y-79652000I0J150000D01*
G01*
X182187000Y-79352000D01*
G75*
G02*
X182337000Y-79202000I150000J0D01*
G01*
X184087000Y-79202000D01*
G75*
G02*
X184237000Y-79352000I0J-150000D01*
G01*
G37*
G36*
G01*
X184237000Y-78082000D02*
X184237000Y-78382000D01*
G75*
G02*
X184087000Y-78532000I-150000J0D01*
G01*
X182337000Y-78532000D01*
G75*
G02*
X182187000Y-78382000I0J150000D01*
G01*
X182187000Y-78082000D01*
G75*
G02*
X182337000Y-77932000I150000J0D01*
G01*
X184087000Y-77932000D01*
G75*
G02*
X184237000Y-78082000I0J-150000D01*
G01*
G37*
G36*
G01*
X184237000Y-76812000D02*
X184237000Y-77112000D01*
G75*
G02*
X184087000Y-77262000I-150000J0D01*
G01*
X182337000Y-77262000D01*
G75*
G02*
X182187000Y-77112000I0J150000D01*
G01*
X182187000Y-76812000D01*
G75*
G02*
X182337000Y-76662000I150000J0D01*
G01*
X184087000Y-76662000D01*
G75*
G02*
X184237000Y-76812000I0J-150000D01*
G01*
G37*
G36*
G01*
X184237000Y-75542000D02*
X184237000Y-75842000D01*
G75*
G02*
X184087000Y-75992000I-150000J0D01*
G01*
X182337000Y-75992000D01*
G75*
G02*
X182187000Y-75842000I0J150000D01*
G01*
X182187000Y-75542000D01*
G75*
G02*
X182337000Y-75392000I150000J0D01*
G01*
X184087000Y-75392000D01*
G75*
G02*
X184237000Y-75542000I0J-150000D01*
G01*
G37*
G36*
G01*
X184237000Y-74272000D02*
X184237000Y-74572000D01*
G75*
G02*
X184087000Y-74722000I-150000J0D01*
G01*
X182337000Y-74722000D01*
G75*
G02*
X182187000Y-74572000I0J150000D01*
G01*
X182187000Y-74272000D01*
G75*
G02*
X182337000Y-74122000I150000J0D01*
G01*
X184087000Y-74122000D01*
G75*
G02*
X184237000Y-74272000I0J-150000D01*
G01*
G37*
G36*
G01*
X184237000Y-73002000D02*
X184237000Y-73302000D01*
G75*
G02*
X184087000Y-73452000I-150000J0D01*
G01*
X182337000Y-73452000D01*
G75*
G02*
X182187000Y-73302000I0J150000D01*
G01*
X182187000Y-73002000D01*
G75*
G02*
X182337000Y-72852000I150000J0D01*
G01*
X184087000Y-72852000D01*
G75*
G02*
X184237000Y-73002000I0J-150000D01*
G01*
G37*
G36*
G01*
X184237000Y-71732000D02*
X184237000Y-72032000D01*
G75*
G02*
X184087000Y-72182000I-150000J0D01*
G01*
X182337000Y-72182000D01*
G75*
G02*
X182187000Y-72032000I0J150000D01*
G01*
X182187000Y-71732000D01*
G75*
G02*
X182337000Y-71582000I150000J0D01*
G01*
X184087000Y-71582000D01*
G75*
G02*
X184237000Y-71732000I0J-150000D01*
G01*
G37*
G36*
G01*
X184237000Y-70462000D02*
X184237000Y-70762000D01*
G75*
G02*
X184087000Y-70912000I-150000J0D01*
G01*
X182337000Y-70912000D01*
G75*
G02*
X182187000Y-70762000I0J150000D01*
G01*
X182187000Y-70462000D01*
G75*
G02*
X182337000Y-70312000I150000J0D01*
G01*
X184087000Y-70312000D01*
G75*
G02*
X184237000Y-70462000I0J-150000D01*
G01*
G37*
G36*
G01*
X174937000Y-70462000D02*
X174937000Y-70762000D01*
G75*
G02*
X174787000Y-70912000I-150000J0D01*
G01*
X173037000Y-70912000D01*
G75*
G02*
X172887000Y-70762000I0J150000D01*
G01*
X172887000Y-70462000D01*
G75*
G02*
X173037000Y-70312000I150000J0D01*
G01*
X174787000Y-70312000D01*
G75*
G02*
X174937000Y-70462000I0J-150000D01*
G01*
G37*
G36*
G01*
X174937000Y-71732000D02*
X174937000Y-72032000D01*
G75*
G02*
X174787000Y-72182000I-150000J0D01*
G01*
X173037000Y-72182000D01*
G75*
G02*
X172887000Y-72032000I0J150000D01*
G01*
X172887000Y-71732000D01*
G75*
G02*
X173037000Y-71582000I150000J0D01*
G01*
X174787000Y-71582000D01*
G75*
G02*
X174937000Y-71732000I0J-150000D01*
G01*
G37*
G36*
G01*
X174937000Y-73002000D02*
X174937000Y-73302000D01*
G75*
G02*
X174787000Y-73452000I-150000J0D01*
G01*
X173037000Y-73452000D01*
G75*
G02*
X172887000Y-73302000I0J150000D01*
G01*
X172887000Y-73002000D01*
G75*
G02*
X173037000Y-72852000I150000J0D01*
G01*
X174787000Y-72852000D01*
G75*
G02*
X174937000Y-73002000I0J-150000D01*
G01*
G37*
G36*
G01*
X174937000Y-74272000D02*
X174937000Y-74572000D01*
G75*
G02*
X174787000Y-74722000I-150000J0D01*
G01*
X173037000Y-74722000D01*
G75*
G02*
X172887000Y-74572000I0J150000D01*
G01*
X172887000Y-74272000D01*
G75*
G02*
X173037000Y-74122000I150000J0D01*
G01*
X174787000Y-74122000D01*
G75*
G02*
X174937000Y-74272000I0J-150000D01*
G01*
G37*
G36*
G01*
X174937000Y-75542000D02*
X174937000Y-75842000D01*
G75*
G02*
X174787000Y-75992000I-150000J0D01*
G01*
X173037000Y-75992000D01*
G75*
G02*
X172887000Y-75842000I0J150000D01*
G01*
X172887000Y-75542000D01*
G75*
G02*
X173037000Y-75392000I150000J0D01*
G01*
X174787000Y-75392000D01*
G75*
G02*
X174937000Y-75542000I0J-150000D01*
G01*
G37*
G36*
G01*
X174937000Y-76812000D02*
X174937000Y-77112000D01*
G75*
G02*
X174787000Y-77262000I-150000J0D01*
G01*
X173037000Y-77262000D01*
G75*
G02*
X172887000Y-77112000I0J150000D01*
G01*
X172887000Y-76812000D01*
G75*
G02*
X173037000Y-76662000I150000J0D01*
G01*
X174787000Y-76662000D01*
G75*
G02*
X174937000Y-76812000I0J-150000D01*
G01*
G37*
G36*
G01*
X174937000Y-78082000D02*
X174937000Y-78382000D01*
G75*
G02*
X174787000Y-78532000I-150000J0D01*
G01*
X173037000Y-78532000D01*
G75*
G02*
X172887000Y-78382000I0J150000D01*
G01*
X172887000Y-78082000D01*
G75*
G02*
X173037000Y-77932000I150000J0D01*
G01*
X174787000Y-77932000D01*
G75*
G02*
X174937000Y-78082000I0J-150000D01*
G01*
G37*
G36*
G01*
X174937000Y-79352000D02*
X174937000Y-79652000D01*
G75*
G02*
X174787000Y-79802000I-150000J0D01*
G01*
X173037000Y-79802000D01*
G75*
G02*
X172887000Y-79652000I0J150000D01*
G01*
X172887000Y-79352000D01*
G75*
G02*
X173037000Y-79202000I150000J0D01*
G01*
X174787000Y-79202000D01*
G75*
G02*
X174937000Y-79352000I0J-150000D01*
G01*
G37*
G36*
G01*
X174937000Y-80622000D02*
X174937000Y-80922000D01*
G75*
G02*
X174787000Y-81072000I-150000J0D01*
G01*
X173037000Y-81072000D01*
G75*
G02*
X172887000Y-80922000I0J150000D01*
G01*
X172887000Y-80622000D01*
G75*
G02*
X173037000Y-80472000I150000J0D01*
G01*
X174787000Y-80472000D01*
G75*
G02*
X174937000Y-80622000I0J-150000D01*
G01*
G37*
G36*
G01*
X123912000Y-80495000D02*
X123912000Y-80795000D01*
G75*
G02*
X123762000Y-80945000I-150000J0D01*
G01*
X122012000Y-80945000D01*
G75*
G02*
X121862000Y-80795000I0J150000D01*
G01*
X121862000Y-80495000D01*
G75*
G02*
X122012000Y-80345000I150000J0D01*
G01*
X123762000Y-80345000D01*
G75*
G02*
X123912000Y-80495000I0J-150000D01*
G01*
G37*
G36*
G01*
X123912000Y-79225000D02*
X123912000Y-79525000D01*
G75*
G02*
X123762000Y-79675000I-150000J0D01*
G01*
X122012000Y-79675000D01*
G75*
G02*
X121862000Y-79525000I0J150000D01*
G01*
X121862000Y-79225000D01*
G75*
G02*
X122012000Y-79075000I150000J0D01*
G01*
X123762000Y-79075000D01*
G75*
G02*
X123912000Y-79225000I0J-150000D01*
G01*
G37*
G36*
G01*
X123912000Y-77955000D02*
X123912000Y-78255000D01*
G75*
G02*
X123762000Y-78405000I-150000J0D01*
G01*
X122012000Y-78405000D01*
G75*
G02*
X121862000Y-78255000I0J150000D01*
G01*
X121862000Y-77955000D01*
G75*
G02*
X122012000Y-77805000I150000J0D01*
G01*
X123762000Y-77805000D01*
G75*
G02*
X123912000Y-77955000I0J-150000D01*
G01*
G37*
G36*
G01*
X123912000Y-76685000D02*
X123912000Y-76985000D01*
G75*
G02*
X123762000Y-77135000I-150000J0D01*
G01*
X122012000Y-77135000D01*
G75*
G02*
X121862000Y-76985000I0J150000D01*
G01*
X121862000Y-76685000D01*
G75*
G02*
X122012000Y-76535000I150000J0D01*
G01*
X123762000Y-76535000D01*
G75*
G02*
X123912000Y-76685000I0J-150000D01*
G01*
G37*
G36*
G01*
X123912000Y-75415000D02*
X123912000Y-75715000D01*
G75*
G02*
X123762000Y-75865000I-150000J0D01*
G01*
X122012000Y-75865000D01*
G75*
G02*
X121862000Y-75715000I0J150000D01*
G01*
X121862000Y-75415000D01*
G75*
G02*
X122012000Y-75265000I150000J0D01*
G01*
X123762000Y-75265000D01*
G75*
G02*
X123912000Y-75415000I0J-150000D01*
G01*
G37*
G36*
G01*
X123912000Y-74145000D02*
X123912000Y-74445000D01*
G75*
G02*
X123762000Y-74595000I-150000J0D01*
G01*
X122012000Y-74595000D01*
G75*
G02*
X121862000Y-74445000I0J150000D01*
G01*
X121862000Y-74145000D01*
G75*
G02*
X122012000Y-73995000I150000J0D01*
G01*
X123762000Y-73995000D01*
G75*
G02*
X123912000Y-74145000I0J-150000D01*
G01*
G37*
G36*
G01*
X123912000Y-72875000D02*
X123912000Y-73175000D01*
G75*
G02*
X123762000Y-73325000I-150000J0D01*
G01*
X122012000Y-73325000D01*
G75*
G02*
X121862000Y-73175000I0J150000D01*
G01*
X121862000Y-72875000D01*
G75*
G02*
X122012000Y-72725000I150000J0D01*
G01*
X123762000Y-72725000D01*
G75*
G02*
X123912000Y-72875000I0J-150000D01*
G01*
G37*
G36*
G01*
X123912000Y-71605000D02*
X123912000Y-71905000D01*
G75*
G02*
X123762000Y-72055000I-150000J0D01*
G01*
X122012000Y-72055000D01*
G75*
G02*
X121862000Y-71905000I0J150000D01*
G01*
X121862000Y-71605000D01*
G75*
G02*
X122012000Y-71455000I150000J0D01*
G01*
X123762000Y-71455000D01*
G75*
G02*
X123912000Y-71605000I0J-150000D01*
G01*
G37*
G36*
G01*
X123912000Y-70335000D02*
X123912000Y-70635000D01*
G75*
G02*
X123762000Y-70785000I-150000J0D01*
G01*
X122012000Y-70785000D01*
G75*
G02*
X121862000Y-70635000I0J150000D01*
G01*
X121862000Y-70335000D01*
G75*
G02*
X122012000Y-70185000I150000J0D01*
G01*
X123762000Y-70185000D01*
G75*
G02*
X123912000Y-70335000I0J-150000D01*
G01*
G37*
G36*
G01*
X114612000Y-70335000D02*
X114612000Y-70635000D01*
G75*
G02*
X114462000Y-70785000I-150000J0D01*
G01*
X112712000Y-70785000D01*
G75*
G02*
X112562000Y-70635000I0J150000D01*
G01*
X112562000Y-70335000D01*
G75*
G02*
X112712000Y-70185000I150000J0D01*
G01*
X114462000Y-70185000D01*
G75*
G02*
X114612000Y-70335000I0J-150000D01*
G01*
G37*
G36*
G01*
X114612000Y-71605000D02*
X114612000Y-71905000D01*
G75*
G02*
X114462000Y-72055000I-150000J0D01*
G01*
X112712000Y-72055000D01*
G75*
G02*
X112562000Y-71905000I0J150000D01*
G01*
X112562000Y-71605000D01*
G75*
G02*
X112712000Y-71455000I150000J0D01*
G01*
X114462000Y-71455000D01*
G75*
G02*
X114612000Y-71605000I0J-150000D01*
G01*
G37*
G36*
G01*
X114612000Y-72875000D02*
X114612000Y-73175000D01*
G75*
G02*
X114462000Y-73325000I-150000J0D01*
G01*
X112712000Y-73325000D01*
G75*
G02*
X112562000Y-73175000I0J150000D01*
G01*
X112562000Y-72875000D01*
G75*
G02*
X112712000Y-72725000I150000J0D01*
G01*
X114462000Y-72725000D01*
G75*
G02*
X114612000Y-72875000I0J-150000D01*
G01*
G37*
G36*
G01*
X114612000Y-74145000D02*
X114612000Y-74445000D01*
G75*
G02*
X114462000Y-74595000I-150000J0D01*
G01*
X112712000Y-74595000D01*
G75*
G02*
X112562000Y-74445000I0J150000D01*
G01*
X112562000Y-74145000D01*
G75*
G02*
X112712000Y-73995000I150000J0D01*
G01*
X114462000Y-73995000D01*
G75*
G02*
X114612000Y-74145000I0J-150000D01*
G01*
G37*
G36*
G01*
X114612000Y-75415000D02*
X114612000Y-75715000D01*
G75*
G02*
X114462000Y-75865000I-150000J0D01*
G01*
X112712000Y-75865000D01*
G75*
G02*
X112562000Y-75715000I0J150000D01*
G01*
X112562000Y-75415000D01*
G75*
G02*
X112712000Y-75265000I150000J0D01*
G01*
X114462000Y-75265000D01*
G75*
G02*
X114612000Y-75415000I0J-150000D01*
G01*
G37*
G36*
G01*
X114612000Y-76685000D02*
X114612000Y-76985000D01*
G75*
G02*
X114462000Y-77135000I-150000J0D01*
G01*
X112712000Y-77135000D01*
G75*
G02*
X112562000Y-76985000I0J150000D01*
G01*
X112562000Y-76685000D01*
G75*
G02*
X112712000Y-76535000I150000J0D01*
G01*
X114462000Y-76535000D01*
G75*
G02*
X114612000Y-76685000I0J-150000D01*
G01*
G37*
G36*
G01*
X114612000Y-77955000D02*
X114612000Y-78255000D01*
G75*
G02*
X114462000Y-78405000I-150000J0D01*
G01*
X112712000Y-78405000D01*
G75*
G02*
X112562000Y-78255000I0J150000D01*
G01*
X112562000Y-77955000D01*
G75*
G02*
X112712000Y-77805000I150000J0D01*
G01*
X114462000Y-77805000D01*
G75*
G02*
X114612000Y-77955000I0J-150000D01*
G01*
G37*
G36*
G01*
X114612000Y-79225000D02*
X114612000Y-79525000D01*
G75*
G02*
X114462000Y-79675000I-150000J0D01*
G01*
X112712000Y-79675000D01*
G75*
G02*
X112562000Y-79525000I0J150000D01*
G01*
X112562000Y-79225000D01*
G75*
G02*
X112712000Y-79075000I150000J0D01*
G01*
X114462000Y-79075000D01*
G75*
G02*
X114612000Y-79225000I0J-150000D01*
G01*
G37*
G36*
G01*
X114612000Y-80495000D02*
X114612000Y-80795000D01*
G75*
G02*
X114462000Y-80945000I-150000J0D01*
G01*
X112712000Y-80945000D01*
G75*
G02*
X112562000Y-80795000I0J150000D01*
G01*
X112562000Y-80495000D01*
G75*
G02*
X112712000Y-80345000I150000J0D01*
G01*
X114462000Y-80345000D01*
G75*
G02*
X114612000Y-80495000I0J-150000D01*
G01*
G37*
G36*
G01*
X104590000Y-70635000D02*
X104590000Y-70335000D01*
G75*
G02*
X104740000Y-70185000I150000J0D01*
G01*
X106490000Y-70185000D01*
G75*
G02*
X106640000Y-70335000I0J-150000D01*
G01*
X106640000Y-70635000D01*
G75*
G02*
X106490000Y-70785000I-150000J0D01*
G01*
X104740000Y-70785000D01*
G75*
G02*
X104590000Y-70635000I0J150000D01*
G01*
G37*
G36*
G01*
X104590000Y-71905000D02*
X104590000Y-71605000D01*
G75*
G02*
X104740000Y-71455000I150000J0D01*
G01*
X106490000Y-71455000D01*
G75*
G02*
X106640000Y-71605000I0J-150000D01*
G01*
X106640000Y-71905000D01*
G75*
G02*
X106490000Y-72055000I-150000J0D01*
G01*
X104740000Y-72055000D01*
G75*
G02*
X104590000Y-71905000I0J150000D01*
G01*
G37*
G36*
G01*
X104590000Y-73175000D02*
X104590000Y-72875000D01*
G75*
G02*
X104740000Y-72725000I150000J0D01*
G01*
X106490000Y-72725000D01*
G75*
G02*
X106640000Y-72875000I0J-150000D01*
G01*
X106640000Y-73175000D01*
G75*
G02*
X106490000Y-73325000I-150000J0D01*
G01*
X104740000Y-73325000D01*
G75*
G02*
X104590000Y-73175000I0J150000D01*
G01*
G37*
G36*
G01*
X104590000Y-74445000D02*
X104590000Y-74145000D01*
G75*
G02*
X104740000Y-73995000I150000J0D01*
G01*
X106490000Y-73995000D01*
G75*
G02*
X106640000Y-74145000I0J-150000D01*
G01*
X106640000Y-74445000D01*
G75*
G02*
X106490000Y-74595000I-150000J0D01*
G01*
X104740000Y-74595000D01*
G75*
G02*
X104590000Y-74445000I0J150000D01*
G01*
G37*
G36*
G01*
X104590000Y-75715000D02*
X104590000Y-75415000D01*
G75*
G02*
X104740000Y-75265000I150000J0D01*
G01*
X106490000Y-75265000D01*
G75*
G02*
X106640000Y-75415000I0J-150000D01*
G01*
X106640000Y-75715000D01*
G75*
G02*
X106490000Y-75865000I-150000J0D01*
G01*
X104740000Y-75865000D01*
G75*
G02*
X104590000Y-75715000I0J150000D01*
G01*
G37*
G36*
G01*
X104590000Y-76985000D02*
X104590000Y-76685000D01*
G75*
G02*
X104740000Y-76535000I150000J0D01*
G01*
X106490000Y-76535000D01*
G75*
G02*
X106640000Y-76685000I0J-150000D01*
G01*
X106640000Y-76985000D01*
G75*
G02*
X106490000Y-77135000I-150000J0D01*
G01*
X104740000Y-77135000D01*
G75*
G02*
X104590000Y-76985000I0J150000D01*
G01*
G37*
G36*
G01*
X104590000Y-78255000D02*
X104590000Y-77955000D01*
G75*
G02*
X104740000Y-77805000I150000J0D01*
G01*
X106490000Y-77805000D01*
G75*
G02*
X106640000Y-77955000I0J-150000D01*
G01*
X106640000Y-78255000D01*
G75*
G02*
X106490000Y-78405000I-150000J0D01*
G01*
X104740000Y-78405000D01*
G75*
G02*
X104590000Y-78255000I0J150000D01*
G01*
G37*
G36*
G01*
X104590000Y-79525000D02*
X104590000Y-79225000D01*
G75*
G02*
X104740000Y-79075000I150000J0D01*
G01*
X106490000Y-79075000D01*
G75*
G02*
X106640000Y-79225000I0J-150000D01*
G01*
X106640000Y-79525000D01*
G75*
G02*
X106490000Y-79675000I-150000J0D01*
G01*
X104740000Y-79675000D01*
G75*
G02*
X104590000Y-79525000I0J150000D01*
G01*
G37*
G36*
G01*
X104590000Y-80795000D02*
X104590000Y-80495000D01*
G75*
G02*
X104740000Y-80345000I150000J0D01*
G01*
X106490000Y-80345000D01*
G75*
G02*
X106640000Y-80495000I0J-150000D01*
G01*
X106640000Y-80795000D01*
G75*
G02*
X106490000Y-80945000I-150000J0D01*
G01*
X104740000Y-80945000D01*
G75*
G02*
X104590000Y-80795000I0J150000D01*
G01*
G37*
G36*
G01*
X95290000Y-80795000D02*
X95290000Y-80495000D01*
G75*
G02*
X95440000Y-80345000I150000J0D01*
G01*
X97190000Y-80345000D01*
G75*
G02*
X97340000Y-80495000I0J-150000D01*
G01*
X97340000Y-80795000D01*
G75*
G02*
X97190000Y-80945000I-150000J0D01*
G01*
X95440000Y-80945000D01*
G75*
G02*
X95290000Y-80795000I0J150000D01*
G01*
G37*
G36*
G01*
X95290000Y-79525000D02*
X95290000Y-79225000D01*
G75*
G02*
X95440000Y-79075000I150000J0D01*
G01*
X97190000Y-79075000D01*
G75*
G02*
X97340000Y-79225000I0J-150000D01*
G01*
X97340000Y-79525000D01*
G75*
G02*
X97190000Y-79675000I-150000J0D01*
G01*
X95440000Y-79675000D01*
G75*
G02*
X95290000Y-79525000I0J150000D01*
G01*
G37*
G36*
G01*
X95290000Y-78255000D02*
X95290000Y-77955000D01*
G75*
G02*
X95440000Y-77805000I150000J0D01*
G01*
X97190000Y-77805000D01*
G75*
G02*
X97340000Y-77955000I0J-150000D01*
G01*
X97340000Y-78255000D01*
G75*
G02*
X97190000Y-78405000I-150000J0D01*
G01*
X95440000Y-78405000D01*
G75*
G02*
X95290000Y-78255000I0J150000D01*
G01*
G37*
G36*
G01*
X95290000Y-76985000D02*
X95290000Y-76685000D01*
G75*
G02*
X95440000Y-76535000I150000J0D01*
G01*
X97190000Y-76535000D01*
G75*
G02*
X97340000Y-76685000I0J-150000D01*
G01*
X97340000Y-76985000D01*
G75*
G02*
X97190000Y-77135000I-150000J0D01*
G01*
X95440000Y-77135000D01*
G75*
G02*
X95290000Y-76985000I0J150000D01*
G01*
G37*
G36*
G01*
X95290000Y-75715000D02*
X95290000Y-75415000D01*
G75*
G02*
X95440000Y-75265000I150000J0D01*
G01*
X97190000Y-75265000D01*
G75*
G02*
X97340000Y-75415000I0J-150000D01*
G01*
X97340000Y-75715000D01*
G75*
G02*
X97190000Y-75865000I-150000J0D01*
G01*
X95440000Y-75865000D01*
G75*
G02*
X95290000Y-75715000I0J150000D01*
G01*
G37*
G36*
G01*
X95290000Y-74445000D02*
X95290000Y-74145000D01*
G75*
G02*
X95440000Y-73995000I150000J0D01*
G01*
X97190000Y-73995000D01*
G75*
G02*
X97340000Y-74145000I0J-150000D01*
G01*
X97340000Y-74445000D01*
G75*
G02*
X97190000Y-74595000I-150000J0D01*
G01*
X95440000Y-74595000D01*
G75*
G02*
X95290000Y-74445000I0J150000D01*
G01*
G37*
G36*
G01*
X95290000Y-73175000D02*
X95290000Y-72875000D01*
G75*
G02*
X95440000Y-72725000I150000J0D01*
G01*
X97190000Y-72725000D01*
G75*
G02*
X97340000Y-72875000I0J-150000D01*
G01*
X97340000Y-73175000D01*
G75*
G02*
X97190000Y-73325000I-150000J0D01*
G01*
X95440000Y-73325000D01*
G75*
G02*
X95290000Y-73175000I0J150000D01*
G01*
G37*
G36*
G01*
X95290000Y-71905000D02*
X95290000Y-71605000D01*
G75*
G02*
X95440000Y-71455000I150000J0D01*
G01*
X97190000Y-71455000D01*
G75*
G02*
X97340000Y-71605000I0J-150000D01*
G01*
X97340000Y-71905000D01*
G75*
G02*
X97190000Y-72055000I-150000J0D01*
G01*
X95440000Y-72055000D01*
G75*
G02*
X95290000Y-71905000I0J150000D01*
G01*
G37*
G36*
G01*
X95290000Y-70635000D02*
X95290000Y-70335000D01*
G75*
G02*
X95440000Y-70185000I150000J0D01*
G01*
X97190000Y-70185000D01*
G75*
G02*
X97340000Y-70335000I0J-150000D01*
G01*
X97340000Y-70635000D01*
G75*
G02*
X97190000Y-70785000I-150000J0D01*
G01*
X95440000Y-70785000D01*
G75*
G02*
X95290000Y-70635000I0J150000D01*
G01*
G37*
G36*
G01*
X188724250Y-77628000D02*
X188211750Y-77628000D01*
G75*
G02*
X187993000Y-77409250I0J218750D01*
G01*
X187993000Y-76971750D01*
G75*
G02*
X188211750Y-76753000I218750J0D01*
G01*
X188724250Y-76753000D01*
G75*
G02*
X188943000Y-76971750I0J-218750D01*
G01*
X188943000Y-77409250D01*
G75*
G02*
X188724250Y-77628000I-218750J0D01*
G01*
G37*
G36*
G01*
X188724250Y-79203000D02*
X188211750Y-79203000D01*
G75*
G02*
X187993000Y-78984250I0J218750D01*
G01*
X187993000Y-78546750D01*
G75*
G02*
X188211750Y-78328000I218750J0D01*
G01*
X188724250Y-78328000D01*
G75*
G02*
X188943000Y-78546750I0J-218750D01*
G01*
X188943000Y-78984250D01*
G75*
G02*
X188724250Y-79203000I-218750J0D01*
G01*
G37*
G36*
G01*
X166728200Y-64161350D02*
X166728200Y-65073850D01*
G75*
G02*
X166484450Y-65317600I-243750J0D01*
G01*
X165996950Y-65317600D01*
G75*
G02*
X165753200Y-65073850I0J243750D01*
G01*
X165753200Y-64161350D01*
G75*
G02*
X165996950Y-63917600I243750J0D01*
G01*
X166484450Y-63917600D01*
G75*
G02*
X166728200Y-64161350I0J-243750D01*
G01*
G37*
G36*
G01*
X164853200Y-64161350D02*
X164853200Y-65073850D01*
G75*
G02*
X164609450Y-65317600I-243750J0D01*
G01*
X164121950Y-65317600D01*
G75*
G02*
X163878200Y-65073850I0J243750D01*
G01*
X163878200Y-64161350D01*
G75*
G02*
X164121950Y-63917600I243750J0D01*
G01*
X164609450Y-63917600D01*
G75*
G02*
X164853200Y-64161350I0J-243750D01*
G01*
G37*
G36*
G01*
X188724250Y-73107000D02*
X188211750Y-73107000D01*
G75*
G02*
X187993000Y-72888250I0J218750D01*
G01*
X187993000Y-72450750D01*
G75*
G02*
X188211750Y-72232000I218750J0D01*
G01*
X188724250Y-72232000D01*
G75*
G02*
X188943000Y-72450750I0J-218750D01*
G01*
X188943000Y-72888250D01*
G75*
G02*
X188724250Y-73107000I-218750J0D01*
G01*
G37*
G36*
G01*
X188724250Y-71532000D02*
X188211750Y-71532000D01*
G75*
G02*
X187993000Y-71313250I0J218750D01*
G01*
X187993000Y-70875750D01*
G75*
G02*
X188211750Y-70657000I218750J0D01*
G01*
X188724250Y-70657000D01*
G75*
G02*
X188943000Y-70875750I0J-218750D01*
G01*
X188943000Y-71313250D01*
G75*
G02*
X188724250Y-71532000I-218750J0D01*
G01*
G37*
G36*
G01*
X166728200Y-67107750D02*
X166728200Y-68020250D01*
G75*
G02*
X166484450Y-68264000I-243750J0D01*
G01*
X165996950Y-68264000D01*
G75*
G02*
X165753200Y-68020250I0J243750D01*
G01*
X165753200Y-67107750D01*
G75*
G02*
X165996950Y-66864000I243750J0D01*
G01*
X166484450Y-66864000D01*
G75*
G02*
X166728200Y-67107750I0J-243750D01*
G01*
G37*
G36*
G01*
X164853200Y-67107750D02*
X164853200Y-68020250D01*
G75*
G02*
X164609450Y-68264000I-243750J0D01*
G01*
X164121950Y-68264000D01*
G75*
G02*
X163878200Y-68020250I0J243750D01*
G01*
X163878200Y-67107750D01*
G75*
G02*
X164121950Y-66864000I243750J0D01*
G01*
X164609450Y-66864000D01*
G75*
G02*
X164853200Y-67107750I0J-243750D01*
G01*
G37*
G36*
G01*
X145859000Y-55036500D02*
X145859000Y-54691500D01*
G75*
G02*
X146006500Y-54544000I147500J0D01*
G01*
X146301500Y-54544000D01*
G75*
G02*
X146449000Y-54691500I0J-147500D01*
G01*
X146449000Y-55036500D01*
G75*
G02*
X146301500Y-55184000I-147500J0D01*
G01*
X146006500Y-55184000D01*
G75*
G02*
X145859000Y-55036500I0J147500D01*
G01*
G37*
G36*
G01*
X144889000Y-55036500D02*
X144889000Y-54691500D01*
G75*
G02*
X145036500Y-54544000I147500J0D01*
G01*
X145331500Y-54544000D01*
G75*
G02*
X145479000Y-54691500I0J-147500D01*
G01*
X145479000Y-55036500D01*
G75*
G02*
X145331500Y-55184000I-147500J0D01*
G01*
X145036500Y-55184000D01*
G75*
G02*
X144889000Y-55036500I0J147500D01*
G01*
G37*
G36*
G01*
X183712900Y-56456800D02*
X183367900Y-56456800D01*
G75*
G02*
X183220400Y-56309300I0J147500D01*
G01*
X183220400Y-56014300D01*
G75*
G02*
X183367900Y-55866800I147500J0D01*
G01*
X183712900Y-55866800D01*
G75*
G02*
X183860400Y-56014300I0J-147500D01*
G01*
X183860400Y-56309300D01*
G75*
G02*
X183712900Y-56456800I-147500J0D01*
G01*
G37*
G36*
G01*
X183712900Y-55486800D02*
X183367900Y-55486800D01*
G75*
G02*
X183220400Y-55339300I0J147500D01*
G01*
X183220400Y-55044300D01*
G75*
G02*
X183367900Y-54896800I147500J0D01*
G01*
X183712900Y-54896800D01*
G75*
G02*
X183860400Y-55044300I0J-147500D01*
G01*
X183860400Y-55339300D01*
G75*
G02*
X183712900Y-55486800I-147500J0D01*
G01*
G37*
G36*
G01*
X123507000Y-89453500D02*
X123507000Y-89108500D01*
G75*
G02*
X123654500Y-88961000I147500J0D01*
G01*
X123949500Y-88961000D01*
G75*
G02*
X124097000Y-89108500I0J-147500D01*
G01*
X124097000Y-89453500D01*
G75*
G02*
X123949500Y-89601000I-147500J0D01*
G01*
X123654500Y-89601000D01*
G75*
G02*
X123507000Y-89453500I0J147500D01*
G01*
G37*
G36*
G01*
X122537000Y-89453500D02*
X122537000Y-89108500D01*
G75*
G02*
X122684500Y-88961000I147500J0D01*
G01*
X122979500Y-88961000D01*
G75*
G02*
X123127000Y-89108500I0J-147500D01*
G01*
X123127000Y-89453500D01*
G75*
G02*
X122979500Y-89601000I-147500J0D01*
G01*
X122684500Y-89601000D01*
G75*
G02*
X122537000Y-89453500I0J147500D01*
G01*
G37*
G36*
G01*
X149778500Y-56025000D02*
X149433500Y-56025000D01*
G75*
G02*
X149286000Y-55877500I0J147500D01*
G01*
X149286000Y-55582500D01*
G75*
G02*
X149433500Y-55435000I147500J0D01*
G01*
X149778500Y-55435000D01*
G75*
G02*
X149926000Y-55582500I0J-147500D01*
G01*
X149926000Y-55877500D01*
G75*
G02*
X149778500Y-56025000I-147500J0D01*
G01*
G37*
G36*
G01*
X149778500Y-55055000D02*
X149433500Y-55055000D01*
G75*
G02*
X149286000Y-54907500I0J147500D01*
G01*
X149286000Y-54612500D01*
G75*
G02*
X149433500Y-54465000I147500J0D01*
G01*
X149778500Y-54465000D01*
G75*
G02*
X149926000Y-54612500I0J-147500D01*
G01*
X149926000Y-54907500D01*
G75*
G02*
X149778500Y-55055000I-147500J0D01*
G01*
G37*
G36*
G01*
X170371000Y-69042500D02*
X170371000Y-69387500D01*
G75*
G02*
X170223500Y-69535000I-147500J0D01*
G01*
X169928500Y-69535000D01*
G75*
G02*
X169781000Y-69387500I0J147500D01*
G01*
X169781000Y-69042500D01*
G75*
G02*
X169928500Y-68895000I147500J0D01*
G01*
X170223500Y-68895000D01*
G75*
G02*
X170371000Y-69042500I0J-147500D01*
G01*
G37*
G36*
G01*
X171341000Y-69042500D02*
X171341000Y-69387500D01*
G75*
G02*
X171193500Y-69535000I-147500J0D01*
G01*
X170898500Y-69535000D01*
G75*
G02*
X170751000Y-69387500I0J147500D01*
G01*
X170751000Y-69042500D01*
G75*
G02*
X170898500Y-68895000I147500J0D01*
G01*
X171193500Y-68895000D01*
G75*
G02*
X171341000Y-69042500I0J-147500D01*
G01*
G37*
G36*
G01*
X168229500Y-80881000D02*
X168574500Y-80881000D01*
G75*
G02*
X168722000Y-81028500I0J-147500D01*
G01*
X168722000Y-81323500D01*
G75*
G02*
X168574500Y-81471000I-147500J0D01*
G01*
X168229500Y-81471000D01*
G75*
G02*
X168082000Y-81323500I0J147500D01*
G01*
X168082000Y-81028500D01*
G75*
G02*
X168229500Y-80881000I147500J0D01*
G01*
G37*
G36*
G01*
X168229500Y-81851000D02*
X168574500Y-81851000D01*
G75*
G02*
X168722000Y-81998500I0J-147500D01*
G01*
X168722000Y-82293500D01*
G75*
G02*
X168574500Y-82441000I-147500J0D01*
G01*
X168229500Y-82441000D01*
G75*
G02*
X168082000Y-82293500I0J147500D01*
G01*
X168082000Y-81998500D01*
G75*
G02*
X168229500Y-81851000I147500J0D01*
G01*
G37*
G36*
G01*
X121584500Y-55898000D02*
X121239500Y-55898000D01*
G75*
G02*
X121092000Y-55750500I0J147500D01*
G01*
X121092000Y-55455500D01*
G75*
G02*
X121239500Y-55308000I147500J0D01*
G01*
X121584500Y-55308000D01*
G75*
G02*
X121732000Y-55455500I0J-147500D01*
G01*
X121732000Y-55750500D01*
G75*
G02*
X121584500Y-55898000I-147500J0D01*
G01*
G37*
G36*
G01*
X121584500Y-54928000D02*
X121239500Y-54928000D01*
G75*
G02*
X121092000Y-54780500I0J147500D01*
G01*
X121092000Y-54485500D01*
G75*
G02*
X121239500Y-54338000I147500J0D01*
G01*
X121584500Y-54338000D01*
G75*
G02*
X121732000Y-54485500I0J-147500D01*
G01*
X121732000Y-54780500D01*
G75*
G02*
X121584500Y-54928000I-147500J0D01*
G01*
G37*
G36*
G01*
X110681000Y-70312500D02*
X110681000Y-70657500D01*
G75*
G02*
X110533500Y-70805000I-147500J0D01*
G01*
X110238500Y-70805000D01*
G75*
G02*
X110091000Y-70657500I0J147500D01*
G01*
X110091000Y-70312500D01*
G75*
G02*
X110238500Y-70165000I147500J0D01*
G01*
X110533500Y-70165000D01*
G75*
G02*
X110681000Y-70312500I0J-147500D01*
G01*
G37*
G36*
G01*
X111651000Y-70312500D02*
X111651000Y-70657500D01*
G75*
G02*
X111503500Y-70805000I-147500J0D01*
G01*
X111208500Y-70805000D01*
G75*
G02*
X111061000Y-70657500I0J147500D01*
G01*
X111061000Y-70312500D01*
G75*
G02*
X111208500Y-70165000I147500J0D01*
G01*
X111503500Y-70165000D01*
G75*
G02*
X111651000Y-70312500I0J-147500D01*
G01*
G37*
G36*
G01*
X107678000Y-80817500D02*
X107678000Y-80472500D01*
G75*
G02*
X107825500Y-80325000I147500J0D01*
G01*
X108120500Y-80325000D01*
G75*
G02*
X108268000Y-80472500I0J-147500D01*
G01*
X108268000Y-80817500D01*
G75*
G02*
X108120500Y-80965000I-147500J0D01*
G01*
X107825500Y-80965000D01*
G75*
G02*
X107678000Y-80817500I0J147500D01*
G01*
G37*
G36*
G01*
X108648000Y-80817500D02*
X108648000Y-80472500D01*
G75*
G02*
X108795500Y-80325000I147500J0D01*
G01*
X109090500Y-80325000D01*
G75*
G02*
X109238000Y-80472500I0J-147500D01*
G01*
X109238000Y-80817500D01*
G75*
G02*
X109090500Y-80965000I-147500J0D01*
G01*
X108795500Y-80965000D01*
G75*
G02*
X108648000Y-80817500I0J147500D01*
G01*
G37*
G36*
G01*
X172962250Y-86810000D02*
X173874750Y-86810000D01*
G75*
G02*
X174118500Y-87053750I0J-243750D01*
G01*
X174118500Y-87541250D01*
G75*
G02*
X173874750Y-87785000I-243750J0D01*
G01*
X172962250Y-87785000D01*
G75*
G02*
X172718500Y-87541250I0J243750D01*
G01*
X172718500Y-87053750D01*
G75*
G02*
X172962250Y-86810000I243750J0D01*
G01*
G37*
G36*
G01*
X172962250Y-84935000D02*
X173874750Y-84935000D01*
G75*
G02*
X174118500Y-85178750I0J-243750D01*
G01*
X174118500Y-85666250D01*
G75*
G02*
X173874750Y-85910000I-243750J0D01*
G01*
X172962250Y-85910000D01*
G75*
G02*
X172718500Y-85666250I0J243750D01*
G01*
X172718500Y-85178750D01*
G75*
G02*
X172962250Y-84935000I243750J0D01*
G01*
G37*
G36*
G01*
X158230250Y-85951000D02*
X159142750Y-85951000D01*
G75*
G02*
X159386500Y-86194750I0J-243750D01*
G01*
X159386500Y-86682250D01*
G75*
G02*
X159142750Y-86926000I-243750J0D01*
G01*
X158230250Y-86926000D01*
G75*
G02*
X157986500Y-86682250I0J243750D01*
G01*
X157986500Y-86194750D01*
G75*
G02*
X158230250Y-85951000I243750J0D01*
G01*
G37*
G36*
G01*
X158230250Y-87826000D02*
X159142750Y-87826000D01*
G75*
G02*
X159386500Y-88069750I0J-243750D01*
G01*
X159386500Y-88557250D01*
G75*
G02*
X159142750Y-88801000I-243750J0D01*
G01*
X158230250Y-88801000D01*
G75*
G02*
X157986500Y-88557250I0J243750D01*
G01*
X157986500Y-88069750D01*
G75*
G02*
X158230250Y-87826000I243750J0D01*
G01*
G37*
G36*
G01*
X110478250Y-85633500D02*
X111390750Y-85633500D01*
G75*
G02*
X111634500Y-85877250I0J-243750D01*
G01*
X111634500Y-86364750D01*
G75*
G02*
X111390750Y-86608500I-243750J0D01*
G01*
X110478250Y-86608500D01*
G75*
G02*
X110234500Y-86364750I0J243750D01*
G01*
X110234500Y-85877250D01*
G75*
G02*
X110478250Y-85633500I243750J0D01*
G01*
G37*
G36*
G01*
X110478250Y-87508500D02*
X111390750Y-87508500D01*
G75*
G02*
X111634500Y-87752250I0J-243750D01*
G01*
X111634500Y-88239750D01*
G75*
G02*
X111390750Y-88483500I-243750J0D01*
G01*
X110478250Y-88483500D01*
G75*
G02*
X110234500Y-88239750I0J243750D01*
G01*
X110234500Y-87752250D01*
G75*
G02*
X110478250Y-87508500I243750J0D01*
G01*
G37*
G36*
G01*
X94857250Y-87318000D02*
X95769750Y-87318000D01*
G75*
G02*
X96013500Y-87561750I0J-243750D01*
G01*
X96013500Y-88049250D01*
G75*
G02*
X95769750Y-88293000I-243750J0D01*
G01*
X94857250Y-88293000D01*
G75*
G02*
X94613500Y-88049250I0J243750D01*
G01*
X94613500Y-87561750D01*
G75*
G02*
X94857250Y-87318000I243750J0D01*
G01*
G37*
G36*
G01*
X94857250Y-85443000D02*
X95769750Y-85443000D01*
G75*
G02*
X96013500Y-85686750I0J-243750D01*
G01*
X96013500Y-86174250D01*
G75*
G02*
X95769750Y-86418000I-243750J0D01*
G01*
X94857250Y-86418000D01*
G75*
G02*
X94613500Y-86174250I0J243750D01*
G01*
X94613500Y-85686750D01*
G75*
G02*
X94857250Y-85443000I243750J0D01*
G01*
G37*
G36*
G01*
X151213600Y-69235100D02*
X151213600Y-68890100D01*
G75*
G02*
X151361100Y-68742600I147500J0D01*
G01*
X151656100Y-68742600D01*
G75*
G02*
X151803600Y-68890100I0J-147500D01*
G01*
X151803600Y-69235100D01*
G75*
G02*
X151656100Y-69382600I-147500J0D01*
G01*
X151361100Y-69382600D01*
G75*
G02*
X151213600Y-69235100I0J147500D01*
G01*
G37*
G36*
G01*
X152183600Y-69235100D02*
X152183600Y-68890100D01*
G75*
G02*
X152331100Y-68742600I147500J0D01*
G01*
X152626100Y-68742600D01*
G75*
G02*
X152773600Y-68890100I0J-147500D01*
G01*
X152773600Y-69235100D01*
G75*
G02*
X152626100Y-69382600I-147500J0D01*
G01*
X152331100Y-69382600D01*
G75*
G02*
X152183600Y-69235100I0J147500D01*
G01*
G37*
D11*
X148495000Y-85407500D03*
X152495000Y-85407500D03*
X152622000Y-90360500D03*
X148622000Y-90360500D03*
X139541500Y-85407500D03*
X143541500Y-85407500D03*
X143541500Y-90360500D03*
X139541500Y-90360500D03*
D12*
X172005500Y-57973000D03*
X172005500Y-56073000D03*
X170005500Y-57023000D03*
X177003200Y-57048400D03*
X179003200Y-56098400D03*
X179003200Y-57998400D03*
X178609500Y-88963500D03*
X176609500Y-89913500D03*
X176609500Y-88013500D03*
X161179000Y-88077000D03*
X161179000Y-89977000D03*
X163179000Y-89027000D03*
X113935000Y-87950000D03*
X113935000Y-89850000D03*
X115935000Y-88900000D03*
X99806000Y-88900000D03*
X97806000Y-89850000D03*
X97806000Y-87950000D03*
G36*
G01*
X151175500Y-72054500D02*
X151175500Y-71709500D01*
G75*
G02*
X151323000Y-71562000I147500J0D01*
G01*
X151618000Y-71562000D01*
G75*
G02*
X151765500Y-71709500I0J-147500D01*
G01*
X151765500Y-72054500D01*
G75*
G02*
X151618000Y-72202000I-147500J0D01*
G01*
X151323000Y-72202000D01*
G75*
G02*
X151175500Y-72054500I0J147500D01*
G01*
G37*
G36*
G01*
X152145500Y-72054500D02*
X152145500Y-71709500D01*
G75*
G02*
X152293000Y-71562000I147500J0D01*
G01*
X152588000Y-71562000D01*
G75*
G02*
X152735500Y-71709500I0J-147500D01*
G01*
X152735500Y-72054500D01*
G75*
G02*
X152588000Y-72202000I-147500J0D01*
G01*
X152293000Y-72202000D01*
G75*
G02*
X152145500Y-72054500I0J147500D01*
G01*
G37*
G36*
G01*
X176911500Y-85298500D02*
X176911500Y-85643500D01*
G75*
G02*
X176764000Y-85791000I-147500J0D01*
G01*
X176469000Y-85791000D01*
G75*
G02*
X176321500Y-85643500I0J147500D01*
G01*
X176321500Y-85298500D01*
G75*
G02*
X176469000Y-85151000I147500J0D01*
G01*
X176764000Y-85151000D01*
G75*
G02*
X176911500Y-85298500I0J-147500D01*
G01*
G37*
G36*
G01*
X177881500Y-85298500D02*
X177881500Y-85643500D01*
G75*
G02*
X177734000Y-85791000I-147500J0D01*
G01*
X177439000Y-85791000D01*
G75*
G02*
X177291500Y-85643500I0J147500D01*
G01*
X177291500Y-85298500D01*
G75*
G02*
X177439000Y-85151000I147500J0D01*
G01*
X177734000Y-85151000D01*
G75*
G02*
X177881500Y-85298500I0J-147500D01*
G01*
G37*
G36*
G01*
X161481000Y-85171500D02*
X161481000Y-85516500D01*
G75*
G02*
X161333500Y-85664000I-147500J0D01*
G01*
X161038500Y-85664000D01*
G75*
G02*
X160891000Y-85516500I0J147500D01*
G01*
X160891000Y-85171500D01*
G75*
G02*
X161038500Y-85024000I147500J0D01*
G01*
X161333500Y-85024000D01*
G75*
G02*
X161481000Y-85171500I0J-147500D01*
G01*
G37*
G36*
G01*
X162451000Y-85171500D02*
X162451000Y-85516500D01*
G75*
G02*
X162303500Y-85664000I-147500J0D01*
G01*
X162008500Y-85664000D01*
G75*
G02*
X161861000Y-85516500I0J147500D01*
G01*
X161861000Y-85171500D01*
G75*
G02*
X162008500Y-85024000I147500J0D01*
G01*
X162303500Y-85024000D01*
G75*
G02*
X162451000Y-85171500I0J-147500D01*
G01*
G37*
G36*
G01*
X115207000Y-84917500D02*
X115207000Y-85262500D01*
G75*
G02*
X115059500Y-85410000I-147500J0D01*
G01*
X114764500Y-85410000D01*
G75*
G02*
X114617000Y-85262500I0J147500D01*
G01*
X114617000Y-84917500D01*
G75*
G02*
X114764500Y-84770000I147500J0D01*
G01*
X115059500Y-84770000D01*
G75*
G02*
X115207000Y-84917500I0J-147500D01*
G01*
G37*
G36*
G01*
X114237000Y-84917500D02*
X114237000Y-85262500D01*
G75*
G02*
X114089500Y-85410000I-147500J0D01*
G01*
X113794500Y-85410000D01*
G75*
G02*
X113647000Y-85262500I0J147500D01*
G01*
X113647000Y-84917500D01*
G75*
G02*
X113794500Y-84770000I147500J0D01*
G01*
X114089500Y-84770000D01*
G75*
G02*
X114237000Y-84917500I0J-147500D01*
G01*
G37*
G36*
G01*
X99078000Y-85108000D02*
X99078000Y-85453000D01*
G75*
G02*
X98930500Y-85600500I-147500J0D01*
G01*
X98635500Y-85600500D01*
G75*
G02*
X98488000Y-85453000I0J147500D01*
G01*
X98488000Y-85108000D01*
G75*
G02*
X98635500Y-84960500I147500J0D01*
G01*
X98930500Y-84960500D01*
G75*
G02*
X99078000Y-85108000I0J-147500D01*
G01*
G37*
G36*
G01*
X98108000Y-85108000D02*
X98108000Y-85453000D01*
G75*
G02*
X97960500Y-85600500I-147500J0D01*
G01*
X97665500Y-85600500D01*
G75*
G02*
X97518000Y-85453000I0J147500D01*
G01*
X97518000Y-85108000D01*
G75*
G02*
X97665500Y-84960500I147500J0D01*
G01*
X97960500Y-84960500D01*
G75*
G02*
X98108000Y-85108000I0J-147500D01*
G01*
G37*
G36*
G01*
X141942000Y-70043000D02*
X141942000Y-69843000D01*
G75*
G02*
X142042000Y-69743000I100000J0D01*
G01*
X143317000Y-69743000D01*
G75*
G02*
X143417000Y-69843000I0J-100000D01*
G01*
X143417000Y-70043000D01*
G75*
G02*
X143317000Y-70143000I-100000J0D01*
G01*
X142042000Y-70143000D01*
G75*
G02*
X141942000Y-70043000I0J100000D01*
G01*
G37*
G36*
G01*
X141942000Y-70693000D02*
X141942000Y-70493000D01*
G75*
G02*
X142042000Y-70393000I100000J0D01*
G01*
X143317000Y-70393000D01*
G75*
G02*
X143417000Y-70493000I0J-100000D01*
G01*
X143417000Y-70693000D01*
G75*
G02*
X143317000Y-70793000I-100000J0D01*
G01*
X142042000Y-70793000D01*
G75*
G02*
X141942000Y-70693000I0J100000D01*
G01*
G37*
G36*
G01*
X141942000Y-71343000D02*
X141942000Y-71143000D01*
G75*
G02*
X142042000Y-71043000I100000J0D01*
G01*
X143317000Y-71043000D01*
G75*
G02*
X143417000Y-71143000I0J-100000D01*
G01*
X143417000Y-71343000D01*
G75*
G02*
X143317000Y-71443000I-100000J0D01*
G01*
X142042000Y-71443000D01*
G75*
G02*
X141942000Y-71343000I0J100000D01*
G01*
G37*
G36*
G01*
X141942000Y-71993000D02*
X141942000Y-71793000D01*
G75*
G02*
X142042000Y-71693000I100000J0D01*
G01*
X143317000Y-71693000D01*
G75*
G02*
X143417000Y-71793000I0J-100000D01*
G01*
X143417000Y-71993000D01*
G75*
G02*
X143317000Y-72093000I-100000J0D01*
G01*
X142042000Y-72093000D01*
G75*
G02*
X141942000Y-71993000I0J100000D01*
G01*
G37*
G36*
G01*
X141942000Y-72643000D02*
X141942000Y-72443000D01*
G75*
G02*
X142042000Y-72343000I100000J0D01*
G01*
X143317000Y-72343000D01*
G75*
G02*
X143417000Y-72443000I0J-100000D01*
G01*
X143417000Y-72643000D01*
G75*
G02*
X143317000Y-72743000I-100000J0D01*
G01*
X142042000Y-72743000D01*
G75*
G02*
X141942000Y-72643000I0J100000D01*
G01*
G37*
G36*
G01*
X141942000Y-73293000D02*
X141942000Y-73093000D01*
G75*
G02*
X142042000Y-72993000I100000J0D01*
G01*
X143317000Y-72993000D01*
G75*
G02*
X143417000Y-73093000I0J-100000D01*
G01*
X143417000Y-73293000D01*
G75*
G02*
X143317000Y-73393000I-100000J0D01*
G01*
X142042000Y-73393000D01*
G75*
G02*
X141942000Y-73293000I0J100000D01*
G01*
G37*
G36*
G01*
X141942000Y-73943000D02*
X141942000Y-73743000D01*
G75*
G02*
X142042000Y-73643000I100000J0D01*
G01*
X143317000Y-73643000D01*
G75*
G02*
X143417000Y-73743000I0J-100000D01*
G01*
X143417000Y-73943000D01*
G75*
G02*
X143317000Y-74043000I-100000J0D01*
G01*
X142042000Y-74043000D01*
G75*
G02*
X141942000Y-73943000I0J100000D01*
G01*
G37*
G36*
G01*
X141942000Y-74593000D02*
X141942000Y-74393000D01*
G75*
G02*
X142042000Y-74293000I100000J0D01*
G01*
X143317000Y-74293000D01*
G75*
G02*
X143417000Y-74393000I0J-100000D01*
G01*
X143417000Y-74593000D01*
G75*
G02*
X143317000Y-74693000I-100000J0D01*
G01*
X142042000Y-74693000D01*
G75*
G02*
X141942000Y-74593000I0J100000D01*
G01*
G37*
G36*
G01*
X141942000Y-75243000D02*
X141942000Y-75043000D01*
G75*
G02*
X142042000Y-74943000I100000J0D01*
G01*
X143317000Y-74943000D01*
G75*
G02*
X143417000Y-75043000I0J-100000D01*
G01*
X143417000Y-75243000D01*
G75*
G02*
X143317000Y-75343000I-100000J0D01*
G01*
X142042000Y-75343000D01*
G75*
G02*
X141942000Y-75243000I0J100000D01*
G01*
G37*
G36*
G01*
X141942000Y-75893000D02*
X141942000Y-75693000D01*
G75*
G02*
X142042000Y-75593000I100000J0D01*
G01*
X143317000Y-75593000D01*
G75*
G02*
X143417000Y-75693000I0J-100000D01*
G01*
X143417000Y-75893000D01*
G75*
G02*
X143317000Y-75993000I-100000J0D01*
G01*
X142042000Y-75993000D01*
G75*
G02*
X141942000Y-75893000I0J100000D01*
G01*
G37*
G36*
G01*
X141942000Y-76543000D02*
X141942000Y-76343000D01*
G75*
G02*
X142042000Y-76243000I100000J0D01*
G01*
X143317000Y-76243000D01*
G75*
G02*
X143417000Y-76343000I0J-100000D01*
G01*
X143417000Y-76543000D01*
G75*
G02*
X143317000Y-76643000I-100000J0D01*
G01*
X142042000Y-76643000D01*
G75*
G02*
X141942000Y-76543000I0J100000D01*
G01*
G37*
G36*
G01*
X141942000Y-77193000D02*
X141942000Y-76993000D01*
G75*
G02*
X142042000Y-76893000I100000J0D01*
G01*
X143317000Y-76893000D01*
G75*
G02*
X143417000Y-76993000I0J-100000D01*
G01*
X143417000Y-77193000D01*
G75*
G02*
X143317000Y-77293000I-100000J0D01*
G01*
X142042000Y-77293000D01*
G75*
G02*
X141942000Y-77193000I0J100000D01*
G01*
G37*
G36*
G01*
X141942000Y-77843000D02*
X141942000Y-77643000D01*
G75*
G02*
X142042000Y-77543000I100000J0D01*
G01*
X143317000Y-77543000D01*
G75*
G02*
X143417000Y-77643000I0J-100000D01*
G01*
X143417000Y-77843000D01*
G75*
G02*
X143317000Y-77943000I-100000J0D01*
G01*
X142042000Y-77943000D01*
G75*
G02*
X141942000Y-77843000I0J100000D01*
G01*
G37*
G36*
G01*
X141942000Y-78493000D02*
X141942000Y-78293000D01*
G75*
G02*
X142042000Y-78193000I100000J0D01*
G01*
X143317000Y-78193000D01*
G75*
G02*
X143417000Y-78293000I0J-100000D01*
G01*
X143417000Y-78493000D01*
G75*
G02*
X143317000Y-78593000I-100000J0D01*
G01*
X142042000Y-78593000D01*
G75*
G02*
X141942000Y-78493000I0J100000D01*
G01*
G37*
G36*
G01*
X147667000Y-78493000D02*
X147667000Y-78293000D01*
G75*
G02*
X147767000Y-78193000I100000J0D01*
G01*
X149042000Y-78193000D01*
G75*
G02*
X149142000Y-78293000I0J-100000D01*
G01*
X149142000Y-78493000D01*
G75*
G02*
X149042000Y-78593000I-100000J0D01*
G01*
X147767000Y-78593000D01*
G75*
G02*
X147667000Y-78493000I0J100000D01*
G01*
G37*
G36*
G01*
X147667000Y-77843000D02*
X147667000Y-77643000D01*
G75*
G02*
X147767000Y-77543000I100000J0D01*
G01*
X149042000Y-77543000D01*
G75*
G02*
X149142000Y-77643000I0J-100000D01*
G01*
X149142000Y-77843000D01*
G75*
G02*
X149042000Y-77943000I-100000J0D01*
G01*
X147767000Y-77943000D01*
G75*
G02*
X147667000Y-77843000I0J100000D01*
G01*
G37*
G36*
G01*
X147667000Y-77193000D02*
X147667000Y-76993000D01*
G75*
G02*
X147767000Y-76893000I100000J0D01*
G01*
X149042000Y-76893000D01*
G75*
G02*
X149142000Y-76993000I0J-100000D01*
G01*
X149142000Y-77193000D01*
G75*
G02*
X149042000Y-77293000I-100000J0D01*
G01*
X147767000Y-77293000D01*
G75*
G02*
X147667000Y-77193000I0J100000D01*
G01*
G37*
G36*
G01*
X147667000Y-76543000D02*
X147667000Y-76343000D01*
G75*
G02*
X147767000Y-76243000I100000J0D01*
G01*
X149042000Y-76243000D01*
G75*
G02*
X149142000Y-76343000I0J-100000D01*
G01*
X149142000Y-76543000D01*
G75*
G02*
X149042000Y-76643000I-100000J0D01*
G01*
X147767000Y-76643000D01*
G75*
G02*
X147667000Y-76543000I0J100000D01*
G01*
G37*
G36*
G01*
X147667000Y-75893000D02*
X147667000Y-75693000D01*
G75*
G02*
X147767000Y-75593000I100000J0D01*
G01*
X149042000Y-75593000D01*
G75*
G02*
X149142000Y-75693000I0J-100000D01*
G01*
X149142000Y-75893000D01*
G75*
G02*
X149042000Y-75993000I-100000J0D01*
G01*
X147767000Y-75993000D01*
G75*
G02*
X147667000Y-75893000I0J100000D01*
G01*
G37*
G36*
G01*
X147667000Y-75243000D02*
X147667000Y-75043000D01*
G75*
G02*
X147767000Y-74943000I100000J0D01*
G01*
X149042000Y-74943000D01*
G75*
G02*
X149142000Y-75043000I0J-100000D01*
G01*
X149142000Y-75243000D01*
G75*
G02*
X149042000Y-75343000I-100000J0D01*
G01*
X147767000Y-75343000D01*
G75*
G02*
X147667000Y-75243000I0J100000D01*
G01*
G37*
G36*
G01*
X147667000Y-74593000D02*
X147667000Y-74393000D01*
G75*
G02*
X147767000Y-74293000I100000J0D01*
G01*
X149042000Y-74293000D01*
G75*
G02*
X149142000Y-74393000I0J-100000D01*
G01*
X149142000Y-74593000D01*
G75*
G02*
X149042000Y-74693000I-100000J0D01*
G01*
X147767000Y-74693000D01*
G75*
G02*
X147667000Y-74593000I0J100000D01*
G01*
G37*
G36*
G01*
X147667000Y-73943000D02*
X147667000Y-73743000D01*
G75*
G02*
X147767000Y-73643000I100000J0D01*
G01*
X149042000Y-73643000D01*
G75*
G02*
X149142000Y-73743000I0J-100000D01*
G01*
X149142000Y-73943000D01*
G75*
G02*
X149042000Y-74043000I-100000J0D01*
G01*
X147767000Y-74043000D01*
G75*
G02*
X147667000Y-73943000I0J100000D01*
G01*
G37*
G36*
G01*
X147667000Y-73293000D02*
X147667000Y-73093000D01*
G75*
G02*
X147767000Y-72993000I100000J0D01*
G01*
X149042000Y-72993000D01*
G75*
G02*
X149142000Y-73093000I0J-100000D01*
G01*
X149142000Y-73293000D01*
G75*
G02*
X149042000Y-73393000I-100000J0D01*
G01*
X147767000Y-73393000D01*
G75*
G02*
X147667000Y-73293000I0J100000D01*
G01*
G37*
G36*
G01*
X147667000Y-72643000D02*
X147667000Y-72443000D01*
G75*
G02*
X147767000Y-72343000I100000J0D01*
G01*
X149042000Y-72343000D01*
G75*
G02*
X149142000Y-72443000I0J-100000D01*
G01*
X149142000Y-72643000D01*
G75*
G02*
X149042000Y-72743000I-100000J0D01*
G01*
X147767000Y-72743000D01*
G75*
G02*
X147667000Y-72643000I0J100000D01*
G01*
G37*
G36*
G01*
X147667000Y-71993000D02*
X147667000Y-71793000D01*
G75*
G02*
X147767000Y-71693000I100000J0D01*
G01*
X149042000Y-71693000D01*
G75*
G02*
X149142000Y-71793000I0J-100000D01*
G01*
X149142000Y-71993000D01*
G75*
G02*
X149042000Y-72093000I-100000J0D01*
G01*
X147767000Y-72093000D01*
G75*
G02*
X147667000Y-71993000I0J100000D01*
G01*
G37*
G36*
G01*
X147667000Y-71343000D02*
X147667000Y-71143000D01*
G75*
G02*
X147767000Y-71043000I100000J0D01*
G01*
X149042000Y-71043000D01*
G75*
G02*
X149142000Y-71143000I0J-100000D01*
G01*
X149142000Y-71343000D01*
G75*
G02*
X149042000Y-71443000I-100000J0D01*
G01*
X147767000Y-71443000D01*
G75*
G02*
X147667000Y-71343000I0J100000D01*
G01*
G37*
G36*
G01*
X147667000Y-70693000D02*
X147667000Y-70493000D01*
G75*
G02*
X147767000Y-70393000I100000J0D01*
G01*
X149042000Y-70393000D01*
G75*
G02*
X149142000Y-70493000I0J-100000D01*
G01*
X149142000Y-70693000D01*
G75*
G02*
X149042000Y-70793000I-100000J0D01*
G01*
X147767000Y-70793000D01*
G75*
G02*
X147667000Y-70693000I0J100000D01*
G01*
G37*
G36*
G01*
X147667000Y-70043000D02*
X147667000Y-69843000D01*
G75*
G02*
X147767000Y-69743000I100000J0D01*
G01*
X149042000Y-69743000D01*
G75*
G02*
X149142000Y-69843000I0J-100000D01*
G01*
X149142000Y-70043000D01*
G75*
G02*
X149042000Y-70143000I-100000J0D01*
G01*
X147767000Y-70143000D01*
G75*
G02*
X147667000Y-70043000I0J100000D01*
G01*
G37*
G36*
G01*
X159962000Y-46505000D02*
X159962000Y-46205000D01*
G75*
G02*
X160112000Y-46055000I150000J0D01*
G01*
X161862000Y-46055000D01*
G75*
G02*
X162012000Y-46205000I0J-150000D01*
G01*
X162012000Y-46505000D01*
G75*
G02*
X161862000Y-46655000I-150000J0D01*
G01*
X160112000Y-46655000D01*
G75*
G02*
X159962000Y-46505000I0J150000D01*
G01*
G37*
G36*
G01*
X159962000Y-47775000D02*
X159962000Y-47475000D01*
G75*
G02*
X160112000Y-47325000I150000J0D01*
G01*
X161862000Y-47325000D01*
G75*
G02*
X162012000Y-47475000I0J-150000D01*
G01*
X162012000Y-47775000D01*
G75*
G02*
X161862000Y-47925000I-150000J0D01*
G01*
X160112000Y-47925000D01*
G75*
G02*
X159962000Y-47775000I0J150000D01*
G01*
G37*
G36*
G01*
X159962000Y-49045000D02*
X159962000Y-48745000D01*
G75*
G02*
X160112000Y-48595000I150000J0D01*
G01*
X161862000Y-48595000D01*
G75*
G02*
X162012000Y-48745000I0J-150000D01*
G01*
X162012000Y-49045000D01*
G75*
G02*
X161862000Y-49195000I-150000J0D01*
G01*
X160112000Y-49195000D01*
G75*
G02*
X159962000Y-49045000I0J150000D01*
G01*
G37*
G36*
G01*
X159962000Y-50315000D02*
X159962000Y-50015000D01*
G75*
G02*
X160112000Y-49865000I150000J0D01*
G01*
X161862000Y-49865000D01*
G75*
G02*
X162012000Y-50015000I0J-150000D01*
G01*
X162012000Y-50315000D01*
G75*
G02*
X161862000Y-50465000I-150000J0D01*
G01*
X160112000Y-50465000D01*
G75*
G02*
X159962000Y-50315000I0J150000D01*
G01*
G37*
G36*
G01*
X159962000Y-51585000D02*
X159962000Y-51285000D01*
G75*
G02*
X160112000Y-51135000I150000J0D01*
G01*
X161862000Y-51135000D01*
G75*
G02*
X162012000Y-51285000I0J-150000D01*
G01*
X162012000Y-51585000D01*
G75*
G02*
X161862000Y-51735000I-150000J0D01*
G01*
X160112000Y-51735000D01*
G75*
G02*
X159962000Y-51585000I0J150000D01*
G01*
G37*
G36*
G01*
X159962000Y-52855000D02*
X159962000Y-52555000D01*
G75*
G02*
X160112000Y-52405000I150000J0D01*
G01*
X161862000Y-52405000D01*
G75*
G02*
X162012000Y-52555000I0J-150000D01*
G01*
X162012000Y-52855000D01*
G75*
G02*
X161862000Y-53005000I-150000J0D01*
G01*
X160112000Y-53005000D01*
G75*
G02*
X159962000Y-52855000I0J150000D01*
G01*
G37*
G36*
G01*
X159962000Y-54125000D02*
X159962000Y-53825000D01*
G75*
G02*
X160112000Y-53675000I150000J0D01*
G01*
X161862000Y-53675000D01*
G75*
G02*
X162012000Y-53825000I0J-150000D01*
G01*
X162012000Y-54125000D01*
G75*
G02*
X161862000Y-54275000I-150000J0D01*
G01*
X160112000Y-54275000D01*
G75*
G02*
X159962000Y-54125000I0J150000D01*
G01*
G37*
G36*
G01*
X159962000Y-55395000D02*
X159962000Y-55095000D01*
G75*
G02*
X160112000Y-54945000I150000J0D01*
G01*
X161862000Y-54945000D01*
G75*
G02*
X162012000Y-55095000I0J-150000D01*
G01*
X162012000Y-55395000D01*
G75*
G02*
X161862000Y-55545000I-150000J0D01*
G01*
X160112000Y-55545000D01*
G75*
G02*
X159962000Y-55395000I0J150000D01*
G01*
G37*
G36*
G01*
X159962000Y-56665000D02*
X159962000Y-56365000D01*
G75*
G02*
X160112000Y-56215000I150000J0D01*
G01*
X161862000Y-56215000D01*
G75*
G02*
X162012000Y-56365000I0J-150000D01*
G01*
X162012000Y-56665000D01*
G75*
G02*
X161862000Y-56815000I-150000J0D01*
G01*
X160112000Y-56815000D01*
G75*
G02*
X159962000Y-56665000I0J150000D01*
G01*
G37*
G36*
G01*
X159962000Y-57935000D02*
X159962000Y-57635000D01*
G75*
G02*
X160112000Y-57485000I150000J0D01*
G01*
X161862000Y-57485000D01*
G75*
G02*
X162012000Y-57635000I0J-150000D01*
G01*
X162012000Y-57935000D01*
G75*
G02*
X161862000Y-58085000I-150000J0D01*
G01*
X160112000Y-58085000D01*
G75*
G02*
X159962000Y-57935000I0J150000D01*
G01*
G37*
G36*
G01*
X159962000Y-59205000D02*
X159962000Y-58905000D01*
G75*
G02*
X160112000Y-58755000I150000J0D01*
G01*
X161862000Y-58755000D01*
G75*
G02*
X162012000Y-58905000I0J-150000D01*
G01*
X162012000Y-59205000D01*
G75*
G02*
X161862000Y-59355000I-150000J0D01*
G01*
X160112000Y-59355000D01*
G75*
G02*
X159962000Y-59205000I0J150000D01*
G01*
G37*
G36*
G01*
X159962000Y-60475000D02*
X159962000Y-60175000D01*
G75*
G02*
X160112000Y-60025000I150000J0D01*
G01*
X161862000Y-60025000D01*
G75*
G02*
X162012000Y-60175000I0J-150000D01*
G01*
X162012000Y-60475000D01*
G75*
G02*
X161862000Y-60625000I-150000J0D01*
G01*
X160112000Y-60625000D01*
G75*
G02*
X159962000Y-60475000I0J150000D01*
G01*
G37*
G36*
G01*
X159962000Y-61745000D02*
X159962000Y-61445000D01*
G75*
G02*
X160112000Y-61295000I150000J0D01*
G01*
X161862000Y-61295000D01*
G75*
G02*
X162012000Y-61445000I0J-150000D01*
G01*
X162012000Y-61745000D01*
G75*
G02*
X161862000Y-61895000I-150000J0D01*
G01*
X160112000Y-61895000D01*
G75*
G02*
X159962000Y-61745000I0J150000D01*
G01*
G37*
G36*
G01*
X159962000Y-63015000D02*
X159962000Y-62715000D01*
G75*
G02*
X160112000Y-62565000I150000J0D01*
G01*
X161862000Y-62565000D01*
G75*
G02*
X162012000Y-62715000I0J-150000D01*
G01*
X162012000Y-63015000D01*
G75*
G02*
X161862000Y-63165000I-150000J0D01*
G01*
X160112000Y-63165000D01*
G75*
G02*
X159962000Y-63015000I0J150000D01*
G01*
G37*
G36*
G01*
X150662000Y-63015000D02*
X150662000Y-62715000D01*
G75*
G02*
X150812000Y-62565000I150000J0D01*
G01*
X152562000Y-62565000D01*
G75*
G02*
X152712000Y-62715000I0J-150000D01*
G01*
X152712000Y-63015000D01*
G75*
G02*
X152562000Y-63165000I-150000J0D01*
G01*
X150812000Y-63165000D01*
G75*
G02*
X150662000Y-63015000I0J150000D01*
G01*
G37*
G36*
G01*
X150662000Y-61745000D02*
X150662000Y-61445000D01*
G75*
G02*
X150812000Y-61295000I150000J0D01*
G01*
X152562000Y-61295000D01*
G75*
G02*
X152712000Y-61445000I0J-150000D01*
G01*
X152712000Y-61745000D01*
G75*
G02*
X152562000Y-61895000I-150000J0D01*
G01*
X150812000Y-61895000D01*
G75*
G02*
X150662000Y-61745000I0J150000D01*
G01*
G37*
G36*
G01*
X150662000Y-60475000D02*
X150662000Y-60175000D01*
G75*
G02*
X150812000Y-60025000I150000J0D01*
G01*
X152562000Y-60025000D01*
G75*
G02*
X152712000Y-60175000I0J-150000D01*
G01*
X152712000Y-60475000D01*
G75*
G02*
X152562000Y-60625000I-150000J0D01*
G01*
X150812000Y-60625000D01*
G75*
G02*
X150662000Y-60475000I0J150000D01*
G01*
G37*
G36*
G01*
X150662000Y-59205000D02*
X150662000Y-58905000D01*
G75*
G02*
X150812000Y-58755000I150000J0D01*
G01*
X152562000Y-58755000D01*
G75*
G02*
X152712000Y-58905000I0J-150000D01*
G01*
X152712000Y-59205000D01*
G75*
G02*
X152562000Y-59355000I-150000J0D01*
G01*
X150812000Y-59355000D01*
G75*
G02*
X150662000Y-59205000I0J150000D01*
G01*
G37*
G36*
G01*
X150662000Y-57935000D02*
X150662000Y-57635000D01*
G75*
G02*
X150812000Y-57485000I150000J0D01*
G01*
X152562000Y-57485000D01*
G75*
G02*
X152712000Y-57635000I0J-150000D01*
G01*
X152712000Y-57935000D01*
G75*
G02*
X152562000Y-58085000I-150000J0D01*
G01*
X150812000Y-58085000D01*
G75*
G02*
X150662000Y-57935000I0J150000D01*
G01*
G37*
G36*
G01*
X150662000Y-56665000D02*
X150662000Y-56365000D01*
G75*
G02*
X150812000Y-56215000I150000J0D01*
G01*
X152562000Y-56215000D01*
G75*
G02*
X152712000Y-56365000I0J-150000D01*
G01*
X152712000Y-56665000D01*
G75*
G02*
X152562000Y-56815000I-150000J0D01*
G01*
X150812000Y-56815000D01*
G75*
G02*
X150662000Y-56665000I0J150000D01*
G01*
G37*
G36*
G01*
X150662000Y-55395000D02*
X150662000Y-55095000D01*
G75*
G02*
X150812000Y-54945000I150000J0D01*
G01*
X152562000Y-54945000D01*
G75*
G02*
X152712000Y-55095000I0J-150000D01*
G01*
X152712000Y-55395000D01*
G75*
G02*
X152562000Y-55545000I-150000J0D01*
G01*
X150812000Y-55545000D01*
G75*
G02*
X150662000Y-55395000I0J150000D01*
G01*
G37*
G36*
G01*
X150662000Y-54125000D02*
X150662000Y-53825000D01*
G75*
G02*
X150812000Y-53675000I150000J0D01*
G01*
X152562000Y-53675000D01*
G75*
G02*
X152712000Y-53825000I0J-150000D01*
G01*
X152712000Y-54125000D01*
G75*
G02*
X152562000Y-54275000I-150000J0D01*
G01*
X150812000Y-54275000D01*
G75*
G02*
X150662000Y-54125000I0J150000D01*
G01*
G37*
G36*
G01*
X150662000Y-52855000D02*
X150662000Y-52555000D01*
G75*
G02*
X150812000Y-52405000I150000J0D01*
G01*
X152562000Y-52405000D01*
G75*
G02*
X152712000Y-52555000I0J-150000D01*
G01*
X152712000Y-52855000D01*
G75*
G02*
X152562000Y-53005000I-150000J0D01*
G01*
X150812000Y-53005000D01*
G75*
G02*
X150662000Y-52855000I0J150000D01*
G01*
G37*
G36*
G01*
X150662000Y-51585000D02*
X150662000Y-51285000D01*
G75*
G02*
X150812000Y-51135000I150000J0D01*
G01*
X152562000Y-51135000D01*
G75*
G02*
X152712000Y-51285000I0J-150000D01*
G01*
X152712000Y-51585000D01*
G75*
G02*
X152562000Y-51735000I-150000J0D01*
G01*
X150812000Y-51735000D01*
G75*
G02*
X150662000Y-51585000I0J150000D01*
G01*
G37*
G36*
G01*
X150662000Y-50315000D02*
X150662000Y-50015000D01*
G75*
G02*
X150812000Y-49865000I150000J0D01*
G01*
X152562000Y-49865000D01*
G75*
G02*
X152712000Y-50015000I0J-150000D01*
G01*
X152712000Y-50315000D01*
G75*
G02*
X152562000Y-50465000I-150000J0D01*
G01*
X150812000Y-50465000D01*
G75*
G02*
X150662000Y-50315000I0J150000D01*
G01*
G37*
G36*
G01*
X150662000Y-49045000D02*
X150662000Y-48745000D01*
G75*
G02*
X150812000Y-48595000I150000J0D01*
G01*
X152562000Y-48595000D01*
G75*
G02*
X152712000Y-48745000I0J-150000D01*
G01*
X152712000Y-49045000D01*
G75*
G02*
X152562000Y-49195000I-150000J0D01*
G01*
X150812000Y-49195000D01*
G75*
G02*
X150662000Y-49045000I0J150000D01*
G01*
G37*
G36*
G01*
X150662000Y-47775000D02*
X150662000Y-47475000D01*
G75*
G02*
X150812000Y-47325000I150000J0D01*
G01*
X152562000Y-47325000D01*
G75*
G02*
X152712000Y-47475000I0J-150000D01*
G01*
X152712000Y-47775000D01*
G75*
G02*
X152562000Y-47925000I-150000J0D01*
G01*
X150812000Y-47925000D01*
G75*
G02*
X150662000Y-47775000I0J150000D01*
G01*
G37*
G36*
G01*
X150662000Y-46505000D02*
X150662000Y-46205000D01*
G75*
G02*
X150812000Y-46055000I150000J0D01*
G01*
X152562000Y-46055000D01*
G75*
G02*
X152712000Y-46205000I0J-150000D01*
G01*
X152712000Y-46505000D01*
G75*
G02*
X152562000Y-46655000I-150000J0D01*
G01*
X150812000Y-46655000D01*
G75*
G02*
X150662000Y-46505000I0J150000D01*
G01*
G37*
G36*
G01*
X122341000Y-46632000D02*
X122341000Y-46332000D01*
G75*
G02*
X122491000Y-46182000I150000J0D01*
G01*
X124241000Y-46182000D01*
G75*
G02*
X124391000Y-46332000I0J-150000D01*
G01*
X124391000Y-46632000D01*
G75*
G02*
X124241000Y-46782000I-150000J0D01*
G01*
X122491000Y-46782000D01*
G75*
G02*
X122341000Y-46632000I0J150000D01*
G01*
G37*
G36*
G01*
X122341000Y-47902000D02*
X122341000Y-47602000D01*
G75*
G02*
X122491000Y-47452000I150000J0D01*
G01*
X124241000Y-47452000D01*
G75*
G02*
X124391000Y-47602000I0J-150000D01*
G01*
X124391000Y-47902000D01*
G75*
G02*
X124241000Y-48052000I-150000J0D01*
G01*
X122491000Y-48052000D01*
G75*
G02*
X122341000Y-47902000I0J150000D01*
G01*
G37*
G36*
G01*
X122341000Y-49172000D02*
X122341000Y-48872000D01*
G75*
G02*
X122491000Y-48722000I150000J0D01*
G01*
X124241000Y-48722000D01*
G75*
G02*
X124391000Y-48872000I0J-150000D01*
G01*
X124391000Y-49172000D01*
G75*
G02*
X124241000Y-49322000I-150000J0D01*
G01*
X122491000Y-49322000D01*
G75*
G02*
X122341000Y-49172000I0J150000D01*
G01*
G37*
G36*
G01*
X122341000Y-50442000D02*
X122341000Y-50142000D01*
G75*
G02*
X122491000Y-49992000I150000J0D01*
G01*
X124241000Y-49992000D01*
G75*
G02*
X124391000Y-50142000I0J-150000D01*
G01*
X124391000Y-50442000D01*
G75*
G02*
X124241000Y-50592000I-150000J0D01*
G01*
X122491000Y-50592000D01*
G75*
G02*
X122341000Y-50442000I0J150000D01*
G01*
G37*
G36*
G01*
X122341000Y-51712000D02*
X122341000Y-51412000D01*
G75*
G02*
X122491000Y-51262000I150000J0D01*
G01*
X124241000Y-51262000D01*
G75*
G02*
X124391000Y-51412000I0J-150000D01*
G01*
X124391000Y-51712000D01*
G75*
G02*
X124241000Y-51862000I-150000J0D01*
G01*
X122491000Y-51862000D01*
G75*
G02*
X122341000Y-51712000I0J150000D01*
G01*
G37*
G36*
G01*
X122341000Y-52982000D02*
X122341000Y-52682000D01*
G75*
G02*
X122491000Y-52532000I150000J0D01*
G01*
X124241000Y-52532000D01*
G75*
G02*
X124391000Y-52682000I0J-150000D01*
G01*
X124391000Y-52982000D01*
G75*
G02*
X124241000Y-53132000I-150000J0D01*
G01*
X122491000Y-53132000D01*
G75*
G02*
X122341000Y-52982000I0J150000D01*
G01*
G37*
G36*
G01*
X122341000Y-54252000D02*
X122341000Y-53952000D01*
G75*
G02*
X122491000Y-53802000I150000J0D01*
G01*
X124241000Y-53802000D01*
G75*
G02*
X124391000Y-53952000I0J-150000D01*
G01*
X124391000Y-54252000D01*
G75*
G02*
X124241000Y-54402000I-150000J0D01*
G01*
X122491000Y-54402000D01*
G75*
G02*
X122341000Y-54252000I0J150000D01*
G01*
G37*
G36*
G01*
X122341000Y-55522000D02*
X122341000Y-55222000D01*
G75*
G02*
X122491000Y-55072000I150000J0D01*
G01*
X124241000Y-55072000D01*
G75*
G02*
X124391000Y-55222000I0J-150000D01*
G01*
X124391000Y-55522000D01*
G75*
G02*
X124241000Y-55672000I-150000J0D01*
G01*
X122491000Y-55672000D01*
G75*
G02*
X122341000Y-55522000I0J150000D01*
G01*
G37*
G36*
G01*
X122341000Y-56792000D02*
X122341000Y-56492000D01*
G75*
G02*
X122491000Y-56342000I150000J0D01*
G01*
X124241000Y-56342000D01*
G75*
G02*
X124391000Y-56492000I0J-150000D01*
G01*
X124391000Y-56792000D01*
G75*
G02*
X124241000Y-56942000I-150000J0D01*
G01*
X122491000Y-56942000D01*
G75*
G02*
X122341000Y-56792000I0J150000D01*
G01*
G37*
G36*
G01*
X122341000Y-58062000D02*
X122341000Y-57762000D01*
G75*
G02*
X122491000Y-57612000I150000J0D01*
G01*
X124241000Y-57612000D01*
G75*
G02*
X124391000Y-57762000I0J-150000D01*
G01*
X124391000Y-58062000D01*
G75*
G02*
X124241000Y-58212000I-150000J0D01*
G01*
X122491000Y-58212000D01*
G75*
G02*
X122341000Y-58062000I0J150000D01*
G01*
G37*
G36*
G01*
X122341000Y-59332000D02*
X122341000Y-59032000D01*
G75*
G02*
X122491000Y-58882000I150000J0D01*
G01*
X124241000Y-58882000D01*
G75*
G02*
X124391000Y-59032000I0J-150000D01*
G01*
X124391000Y-59332000D01*
G75*
G02*
X124241000Y-59482000I-150000J0D01*
G01*
X122491000Y-59482000D01*
G75*
G02*
X122341000Y-59332000I0J150000D01*
G01*
G37*
G36*
G01*
X122341000Y-60602000D02*
X122341000Y-60302000D01*
G75*
G02*
X122491000Y-60152000I150000J0D01*
G01*
X124241000Y-60152000D01*
G75*
G02*
X124391000Y-60302000I0J-150000D01*
G01*
X124391000Y-60602000D01*
G75*
G02*
X124241000Y-60752000I-150000J0D01*
G01*
X122491000Y-60752000D01*
G75*
G02*
X122341000Y-60602000I0J150000D01*
G01*
G37*
G36*
G01*
X122341000Y-61872000D02*
X122341000Y-61572000D01*
G75*
G02*
X122491000Y-61422000I150000J0D01*
G01*
X124241000Y-61422000D01*
G75*
G02*
X124391000Y-61572000I0J-150000D01*
G01*
X124391000Y-61872000D01*
G75*
G02*
X124241000Y-62022000I-150000J0D01*
G01*
X122491000Y-62022000D01*
G75*
G02*
X122341000Y-61872000I0J150000D01*
G01*
G37*
G36*
G01*
X122341000Y-63142000D02*
X122341000Y-62842000D01*
G75*
G02*
X122491000Y-62692000I150000J0D01*
G01*
X124241000Y-62692000D01*
G75*
G02*
X124391000Y-62842000I0J-150000D01*
G01*
X124391000Y-63142000D01*
G75*
G02*
X124241000Y-63292000I-150000J0D01*
G01*
X122491000Y-63292000D01*
G75*
G02*
X122341000Y-63142000I0J150000D01*
G01*
G37*
G36*
G01*
X131641000Y-63142000D02*
X131641000Y-62842000D01*
G75*
G02*
X131791000Y-62692000I150000J0D01*
G01*
X133541000Y-62692000D01*
G75*
G02*
X133691000Y-62842000I0J-150000D01*
G01*
X133691000Y-63142000D01*
G75*
G02*
X133541000Y-63292000I-150000J0D01*
G01*
X131791000Y-63292000D01*
G75*
G02*
X131641000Y-63142000I0J150000D01*
G01*
G37*
G36*
G01*
X131641000Y-61872000D02*
X131641000Y-61572000D01*
G75*
G02*
X131791000Y-61422000I150000J0D01*
G01*
X133541000Y-61422000D01*
G75*
G02*
X133691000Y-61572000I0J-150000D01*
G01*
X133691000Y-61872000D01*
G75*
G02*
X133541000Y-62022000I-150000J0D01*
G01*
X131791000Y-62022000D01*
G75*
G02*
X131641000Y-61872000I0J150000D01*
G01*
G37*
G36*
G01*
X131641000Y-60602000D02*
X131641000Y-60302000D01*
G75*
G02*
X131791000Y-60152000I150000J0D01*
G01*
X133541000Y-60152000D01*
G75*
G02*
X133691000Y-60302000I0J-150000D01*
G01*
X133691000Y-60602000D01*
G75*
G02*
X133541000Y-60752000I-150000J0D01*
G01*
X131791000Y-60752000D01*
G75*
G02*
X131641000Y-60602000I0J150000D01*
G01*
G37*
G36*
G01*
X131641000Y-59332000D02*
X131641000Y-59032000D01*
G75*
G02*
X131791000Y-58882000I150000J0D01*
G01*
X133541000Y-58882000D01*
G75*
G02*
X133691000Y-59032000I0J-150000D01*
G01*
X133691000Y-59332000D01*
G75*
G02*
X133541000Y-59482000I-150000J0D01*
G01*
X131791000Y-59482000D01*
G75*
G02*
X131641000Y-59332000I0J150000D01*
G01*
G37*
G36*
G01*
X131641000Y-58062000D02*
X131641000Y-57762000D01*
G75*
G02*
X131791000Y-57612000I150000J0D01*
G01*
X133541000Y-57612000D01*
G75*
G02*
X133691000Y-57762000I0J-150000D01*
G01*
X133691000Y-58062000D01*
G75*
G02*
X133541000Y-58212000I-150000J0D01*
G01*
X131791000Y-58212000D01*
G75*
G02*
X131641000Y-58062000I0J150000D01*
G01*
G37*
G36*
G01*
X131641000Y-56792000D02*
X131641000Y-56492000D01*
G75*
G02*
X131791000Y-56342000I150000J0D01*
G01*
X133541000Y-56342000D01*
G75*
G02*
X133691000Y-56492000I0J-150000D01*
G01*
X133691000Y-56792000D01*
G75*
G02*
X133541000Y-56942000I-150000J0D01*
G01*
X131791000Y-56942000D01*
G75*
G02*
X131641000Y-56792000I0J150000D01*
G01*
G37*
G36*
G01*
X131641000Y-55522000D02*
X131641000Y-55222000D01*
G75*
G02*
X131791000Y-55072000I150000J0D01*
G01*
X133541000Y-55072000D01*
G75*
G02*
X133691000Y-55222000I0J-150000D01*
G01*
X133691000Y-55522000D01*
G75*
G02*
X133541000Y-55672000I-150000J0D01*
G01*
X131791000Y-55672000D01*
G75*
G02*
X131641000Y-55522000I0J150000D01*
G01*
G37*
G36*
G01*
X131641000Y-54252000D02*
X131641000Y-53952000D01*
G75*
G02*
X131791000Y-53802000I150000J0D01*
G01*
X133541000Y-53802000D01*
G75*
G02*
X133691000Y-53952000I0J-150000D01*
G01*
X133691000Y-54252000D01*
G75*
G02*
X133541000Y-54402000I-150000J0D01*
G01*
X131791000Y-54402000D01*
G75*
G02*
X131641000Y-54252000I0J150000D01*
G01*
G37*
G36*
G01*
X131641000Y-52982000D02*
X131641000Y-52682000D01*
G75*
G02*
X131791000Y-52532000I150000J0D01*
G01*
X133541000Y-52532000D01*
G75*
G02*
X133691000Y-52682000I0J-150000D01*
G01*
X133691000Y-52982000D01*
G75*
G02*
X133541000Y-53132000I-150000J0D01*
G01*
X131791000Y-53132000D01*
G75*
G02*
X131641000Y-52982000I0J150000D01*
G01*
G37*
G36*
G01*
X131641000Y-51712000D02*
X131641000Y-51412000D01*
G75*
G02*
X131791000Y-51262000I150000J0D01*
G01*
X133541000Y-51262000D01*
G75*
G02*
X133691000Y-51412000I0J-150000D01*
G01*
X133691000Y-51712000D01*
G75*
G02*
X133541000Y-51862000I-150000J0D01*
G01*
X131791000Y-51862000D01*
G75*
G02*
X131641000Y-51712000I0J150000D01*
G01*
G37*
G36*
G01*
X131641000Y-50442000D02*
X131641000Y-50142000D01*
G75*
G02*
X131791000Y-49992000I150000J0D01*
G01*
X133541000Y-49992000D01*
G75*
G02*
X133691000Y-50142000I0J-150000D01*
G01*
X133691000Y-50442000D01*
G75*
G02*
X133541000Y-50592000I-150000J0D01*
G01*
X131791000Y-50592000D01*
G75*
G02*
X131641000Y-50442000I0J150000D01*
G01*
G37*
G36*
G01*
X131641000Y-49172000D02*
X131641000Y-48872000D01*
G75*
G02*
X131791000Y-48722000I150000J0D01*
G01*
X133541000Y-48722000D01*
G75*
G02*
X133691000Y-48872000I0J-150000D01*
G01*
X133691000Y-49172000D01*
G75*
G02*
X133541000Y-49322000I-150000J0D01*
G01*
X131791000Y-49322000D01*
G75*
G02*
X131641000Y-49172000I0J150000D01*
G01*
G37*
G36*
G01*
X131641000Y-47902000D02*
X131641000Y-47602000D01*
G75*
G02*
X131791000Y-47452000I150000J0D01*
G01*
X133541000Y-47452000D01*
G75*
G02*
X133691000Y-47602000I0J-150000D01*
G01*
X133691000Y-47902000D01*
G75*
G02*
X133541000Y-48052000I-150000J0D01*
G01*
X131791000Y-48052000D01*
G75*
G02*
X131641000Y-47902000I0J150000D01*
G01*
G37*
G36*
G01*
X131641000Y-46632000D02*
X131641000Y-46332000D01*
G75*
G02*
X131791000Y-46182000I150000J0D01*
G01*
X133541000Y-46182000D01*
G75*
G02*
X133691000Y-46332000I0J-150000D01*
G01*
X133691000Y-46632000D01*
G75*
G02*
X133541000Y-46782000I-150000J0D01*
G01*
X131791000Y-46782000D01*
G75*
G02*
X131641000Y-46632000I0J150000D01*
G01*
G37*
G36*
G01*
X134919500Y-78169000D02*
X134574500Y-78169000D01*
G75*
G02*
X134427000Y-78021500I0J147500D01*
G01*
X134427000Y-77726500D01*
G75*
G02*
X134574500Y-77579000I147500J0D01*
G01*
X134919500Y-77579000D01*
G75*
G02*
X135067000Y-77726500I0J-147500D01*
G01*
X135067000Y-78021500D01*
G75*
G02*
X134919500Y-78169000I-147500J0D01*
G01*
G37*
G36*
G01*
X134919500Y-79139000D02*
X134574500Y-79139000D01*
G75*
G02*
X134427000Y-78991500I0J147500D01*
G01*
X134427000Y-78696500D01*
G75*
G02*
X134574500Y-78549000I147500J0D01*
G01*
X134919500Y-78549000D01*
G75*
G02*
X135067000Y-78696500I0J-147500D01*
G01*
X135067000Y-78991500D01*
G75*
G02*
X134919500Y-79139000I-147500J0D01*
G01*
G37*
G36*
G01*
X138348500Y-79139000D02*
X138003500Y-79139000D01*
G75*
G02*
X137856000Y-78991500I0J147500D01*
G01*
X137856000Y-78696500D01*
G75*
G02*
X138003500Y-78549000I147500J0D01*
G01*
X138348500Y-78549000D01*
G75*
G02*
X138496000Y-78696500I0J-147500D01*
G01*
X138496000Y-78991500D01*
G75*
G02*
X138348500Y-79139000I-147500J0D01*
G01*
G37*
G36*
G01*
X138348500Y-78169000D02*
X138003500Y-78169000D01*
G75*
G02*
X137856000Y-78021500I0J147500D01*
G01*
X137856000Y-77726500D01*
G75*
G02*
X138003500Y-77579000I147500J0D01*
G01*
X138348500Y-77579000D01*
G75*
G02*
X138496000Y-77726500I0J-147500D01*
G01*
X138496000Y-78021500D01*
G75*
G02*
X138348500Y-78169000I-147500J0D01*
G01*
G37*
G36*
G01*
X141396500Y-80836000D02*
X141051500Y-80836000D01*
G75*
G02*
X140904000Y-80688500I0J147500D01*
G01*
X140904000Y-80393500D01*
G75*
G02*
X141051500Y-80246000I147500J0D01*
G01*
X141396500Y-80246000D01*
G75*
G02*
X141544000Y-80393500I0J-147500D01*
G01*
X141544000Y-80688500D01*
G75*
G02*
X141396500Y-80836000I-147500J0D01*
G01*
G37*
G36*
G01*
X141396500Y-81806000D02*
X141051500Y-81806000D01*
G75*
G02*
X140904000Y-81658500I0J147500D01*
G01*
X140904000Y-81363500D01*
G75*
G02*
X141051500Y-81216000I147500J0D01*
G01*
X141396500Y-81216000D01*
G75*
G02*
X141544000Y-81363500I0J-147500D01*
G01*
X141544000Y-81658500D01*
G75*
G02*
X141396500Y-81806000I-147500J0D01*
G01*
G37*
G36*
G01*
X136189500Y-81806000D02*
X135844500Y-81806000D01*
G75*
G02*
X135697000Y-81658500I0J147500D01*
G01*
X135697000Y-81363500D01*
G75*
G02*
X135844500Y-81216000I147500J0D01*
G01*
X136189500Y-81216000D01*
G75*
G02*
X136337000Y-81363500I0J-147500D01*
G01*
X136337000Y-81658500D01*
G75*
G02*
X136189500Y-81806000I-147500J0D01*
G01*
G37*
G36*
G01*
X136189500Y-80836000D02*
X135844500Y-80836000D01*
G75*
G02*
X135697000Y-80688500I0J147500D01*
G01*
X135697000Y-80393500D01*
G75*
G02*
X135844500Y-80246000I147500J0D01*
G01*
X136189500Y-80246000D01*
G75*
G02*
X136337000Y-80393500I0J-147500D01*
G01*
X136337000Y-80688500D01*
G75*
G02*
X136189500Y-80836000I-147500J0D01*
G01*
G37*
G36*
G01*
X179407600Y-61996100D02*
X179407600Y-61651100D01*
G75*
G02*
X179555100Y-61503600I147500J0D01*
G01*
X179850100Y-61503600D01*
G75*
G02*
X179997600Y-61651100I0J-147500D01*
G01*
X179997600Y-61996100D01*
G75*
G02*
X179850100Y-62143600I-147500J0D01*
G01*
X179555100Y-62143600D01*
G75*
G02*
X179407600Y-61996100I0J147500D01*
G01*
G37*
G36*
G01*
X180377600Y-61996100D02*
X180377600Y-61651100D01*
G75*
G02*
X180525100Y-61503600I147500J0D01*
G01*
X180820100Y-61503600D01*
G75*
G02*
X180967600Y-61651100I0J-147500D01*
G01*
X180967600Y-61996100D01*
G75*
G02*
X180820100Y-62143600I-147500J0D01*
G01*
X180525100Y-62143600D01*
G75*
G02*
X180377600Y-61996100I0J147500D01*
G01*
G37*
X177682400Y-63840400D03*
X177682400Y-61940400D03*
X175682400Y-62890400D03*
G36*
G01*
X179458400Y-64078900D02*
X179458400Y-63733900D01*
G75*
G02*
X179605900Y-63586400I147500J0D01*
G01*
X179900900Y-63586400D01*
G75*
G02*
X180048400Y-63733900I0J-147500D01*
G01*
X180048400Y-64078900D01*
G75*
G02*
X179900900Y-64226400I-147500J0D01*
G01*
X179605900Y-64226400D01*
G75*
G02*
X179458400Y-64078900I0J147500D01*
G01*
G37*
G36*
G01*
X180428400Y-64078900D02*
X180428400Y-63733900D01*
G75*
G02*
X180575900Y-63586400I147500J0D01*
G01*
X180870900Y-63586400D01*
G75*
G02*
X181018400Y-63733900I0J-147500D01*
G01*
X181018400Y-64078900D01*
G75*
G02*
X180870900Y-64226400I-147500J0D01*
G01*
X180575900Y-64226400D01*
G75*
G02*
X180428400Y-64078900I0J147500D01*
G01*
G37*
G36*
G01*
X181307450Y-56952600D02*
X180794950Y-56952600D01*
G75*
G02*
X180576200Y-56733850I0J218750D01*
G01*
X180576200Y-56296350D01*
G75*
G02*
X180794950Y-56077600I218750J0D01*
G01*
X181307450Y-56077600D01*
G75*
G02*
X181526200Y-56296350I0J-218750D01*
G01*
X181526200Y-56733850D01*
G75*
G02*
X181307450Y-56952600I-218750J0D01*
G01*
G37*
G36*
G01*
X181307450Y-55377600D02*
X180794950Y-55377600D01*
G75*
G02*
X180576200Y-55158850I0J218750D01*
G01*
X180576200Y-54721350D01*
G75*
G02*
X180794950Y-54502600I218750J0D01*
G01*
X181307450Y-54502600D01*
G75*
G02*
X181526200Y-54721350I0J-218750D01*
G01*
X181526200Y-55158850D01*
G75*
G02*
X181307450Y-55377600I-218750J0D01*
G01*
G37*
D13*
X139659000Y-58690000D03*
X139659000Y-59190000D03*
X139659000Y-59690000D03*
X139659000Y-60190000D03*
X139659000Y-60690000D03*
X144059000Y-60690000D03*
X144059000Y-60190000D03*
X144059000Y-59690000D03*
X144059000Y-59190000D03*
X144059000Y-58690000D03*
G36*
G01*
X126067000Y-87431000D02*
X126067000Y-87231000D01*
G75*
G02*
X126167000Y-87131000I100000J0D01*
G01*
X127442000Y-87131000D01*
G75*
G02*
X127542000Y-87231000I0J-100000D01*
G01*
X127542000Y-87431000D01*
G75*
G02*
X127442000Y-87531000I-100000J0D01*
G01*
X126167000Y-87531000D01*
G75*
G02*
X126067000Y-87431000I0J100000D01*
G01*
G37*
G36*
G01*
X126067000Y-88081000D02*
X126067000Y-87881000D01*
G75*
G02*
X126167000Y-87781000I100000J0D01*
G01*
X127442000Y-87781000D01*
G75*
G02*
X127542000Y-87881000I0J-100000D01*
G01*
X127542000Y-88081000D01*
G75*
G02*
X127442000Y-88181000I-100000J0D01*
G01*
X126167000Y-88181000D01*
G75*
G02*
X126067000Y-88081000I0J100000D01*
G01*
G37*
G36*
G01*
X126067000Y-88731000D02*
X126067000Y-88531000D01*
G75*
G02*
X126167000Y-88431000I100000J0D01*
G01*
X127442000Y-88431000D01*
G75*
G02*
X127542000Y-88531000I0J-100000D01*
G01*
X127542000Y-88731000D01*
G75*
G02*
X127442000Y-88831000I-100000J0D01*
G01*
X126167000Y-88831000D01*
G75*
G02*
X126067000Y-88731000I0J100000D01*
G01*
G37*
G36*
G01*
X126067000Y-89381000D02*
X126067000Y-89181000D01*
G75*
G02*
X126167000Y-89081000I100000J0D01*
G01*
X127442000Y-89081000D01*
G75*
G02*
X127542000Y-89181000I0J-100000D01*
G01*
X127542000Y-89381000D01*
G75*
G02*
X127442000Y-89481000I-100000J0D01*
G01*
X126167000Y-89481000D01*
G75*
G02*
X126067000Y-89381000I0J100000D01*
G01*
G37*
G36*
G01*
X126067000Y-90031000D02*
X126067000Y-89831000D01*
G75*
G02*
X126167000Y-89731000I100000J0D01*
G01*
X127442000Y-89731000D01*
G75*
G02*
X127542000Y-89831000I0J-100000D01*
G01*
X127542000Y-90031000D01*
G75*
G02*
X127442000Y-90131000I-100000J0D01*
G01*
X126167000Y-90131000D01*
G75*
G02*
X126067000Y-90031000I0J100000D01*
G01*
G37*
G36*
G01*
X126067000Y-90681000D02*
X126067000Y-90481000D01*
G75*
G02*
X126167000Y-90381000I100000J0D01*
G01*
X127442000Y-90381000D01*
G75*
G02*
X127542000Y-90481000I0J-100000D01*
G01*
X127542000Y-90681000D01*
G75*
G02*
X127442000Y-90781000I-100000J0D01*
G01*
X126167000Y-90781000D01*
G75*
G02*
X126067000Y-90681000I0J100000D01*
G01*
G37*
G36*
G01*
X126067000Y-91331000D02*
X126067000Y-91131000D01*
G75*
G02*
X126167000Y-91031000I100000J0D01*
G01*
X127442000Y-91031000D01*
G75*
G02*
X127542000Y-91131000I0J-100000D01*
G01*
X127542000Y-91331000D01*
G75*
G02*
X127442000Y-91431000I-100000J0D01*
G01*
X126167000Y-91431000D01*
G75*
G02*
X126067000Y-91331000I0J100000D01*
G01*
G37*
G36*
G01*
X131792000Y-91331000D02*
X131792000Y-91131000D01*
G75*
G02*
X131892000Y-91031000I100000J0D01*
G01*
X133167000Y-91031000D01*
G75*
G02*
X133267000Y-91131000I0J-100000D01*
G01*
X133267000Y-91331000D01*
G75*
G02*
X133167000Y-91431000I-100000J0D01*
G01*
X131892000Y-91431000D01*
G75*
G02*
X131792000Y-91331000I0J100000D01*
G01*
G37*
G36*
G01*
X131792000Y-90681000D02*
X131792000Y-90481000D01*
G75*
G02*
X131892000Y-90381000I100000J0D01*
G01*
X133167000Y-90381000D01*
G75*
G02*
X133267000Y-90481000I0J-100000D01*
G01*
X133267000Y-90681000D01*
G75*
G02*
X133167000Y-90781000I-100000J0D01*
G01*
X131892000Y-90781000D01*
G75*
G02*
X131792000Y-90681000I0J100000D01*
G01*
G37*
G36*
G01*
X131792000Y-90031000D02*
X131792000Y-89831000D01*
G75*
G02*
X131892000Y-89731000I100000J0D01*
G01*
X133167000Y-89731000D01*
G75*
G02*
X133267000Y-89831000I0J-100000D01*
G01*
X133267000Y-90031000D01*
G75*
G02*
X133167000Y-90131000I-100000J0D01*
G01*
X131892000Y-90131000D01*
G75*
G02*
X131792000Y-90031000I0J100000D01*
G01*
G37*
G36*
G01*
X131792000Y-89381000D02*
X131792000Y-89181000D01*
G75*
G02*
X131892000Y-89081000I100000J0D01*
G01*
X133167000Y-89081000D01*
G75*
G02*
X133267000Y-89181000I0J-100000D01*
G01*
X133267000Y-89381000D01*
G75*
G02*
X133167000Y-89481000I-100000J0D01*
G01*
X131892000Y-89481000D01*
G75*
G02*
X131792000Y-89381000I0J100000D01*
G01*
G37*
G36*
G01*
X131792000Y-88731000D02*
X131792000Y-88531000D01*
G75*
G02*
X131892000Y-88431000I100000J0D01*
G01*
X133167000Y-88431000D01*
G75*
G02*
X133267000Y-88531000I0J-100000D01*
G01*
X133267000Y-88731000D01*
G75*
G02*
X133167000Y-88831000I-100000J0D01*
G01*
X131892000Y-88831000D01*
G75*
G02*
X131792000Y-88731000I0J100000D01*
G01*
G37*
G36*
G01*
X131792000Y-88081000D02*
X131792000Y-87881000D01*
G75*
G02*
X131892000Y-87781000I100000J0D01*
G01*
X133167000Y-87781000D01*
G75*
G02*
X133267000Y-87881000I0J-100000D01*
G01*
X133267000Y-88081000D01*
G75*
G02*
X133167000Y-88181000I-100000J0D01*
G01*
X131892000Y-88181000D01*
G75*
G02*
X131792000Y-88081000I0J100000D01*
G01*
G37*
G36*
G01*
X131792000Y-87431000D02*
X131792000Y-87231000D01*
G75*
G02*
X131892000Y-87131000I100000J0D01*
G01*
X133167000Y-87131000D01*
G75*
G02*
X133267000Y-87231000I0J-100000D01*
G01*
X133267000Y-87431000D01*
G75*
G02*
X133167000Y-87531000I-100000J0D01*
G01*
X131892000Y-87531000D01*
G75*
G02*
X131792000Y-87431000I0J100000D01*
G01*
G37*
G36*
G01*
X124759500Y-84600000D02*
X124414500Y-84600000D01*
G75*
G02*
X124267000Y-84452500I0J147500D01*
G01*
X124267000Y-84157500D01*
G75*
G02*
X124414500Y-84010000I147500J0D01*
G01*
X124759500Y-84010000D01*
G75*
G02*
X124907000Y-84157500I0J-147500D01*
G01*
X124907000Y-84452500D01*
G75*
G02*
X124759500Y-84600000I-147500J0D01*
G01*
G37*
G36*
G01*
X124759500Y-83630000D02*
X124414500Y-83630000D01*
G75*
G02*
X124267000Y-83482500I0J147500D01*
G01*
X124267000Y-83187500D01*
G75*
G02*
X124414500Y-83040000I147500J0D01*
G01*
X124759500Y-83040000D01*
G75*
G02*
X124907000Y-83187500I0J-147500D01*
G01*
X124907000Y-83482500D01*
G75*
G02*
X124759500Y-83630000I-147500J0D01*
G01*
G37*
G36*
G01*
X131653500Y-70421000D02*
X131998500Y-70421000D01*
G75*
G02*
X132146000Y-70568500I0J-147500D01*
G01*
X132146000Y-70863500D01*
G75*
G02*
X131998500Y-71011000I-147500J0D01*
G01*
X131653500Y-71011000D01*
G75*
G02*
X131506000Y-70863500I0J147500D01*
G01*
X131506000Y-70568500D01*
G75*
G02*
X131653500Y-70421000I147500J0D01*
G01*
G37*
G36*
G01*
X131653500Y-69451000D02*
X131998500Y-69451000D01*
G75*
G02*
X132146000Y-69598500I0J-147500D01*
G01*
X132146000Y-69893500D01*
G75*
G02*
X131998500Y-70041000I-147500J0D01*
G01*
X131653500Y-70041000D01*
G75*
G02*
X131506000Y-69893500I0J147500D01*
G01*
X131506000Y-69598500D01*
G75*
G02*
X131653500Y-69451000I147500J0D01*
G01*
G37*
G36*
G01*
X133304500Y-70421000D02*
X133649500Y-70421000D01*
G75*
G02*
X133797000Y-70568500I0J-147500D01*
G01*
X133797000Y-70863500D01*
G75*
G02*
X133649500Y-71011000I-147500J0D01*
G01*
X133304500Y-71011000D01*
G75*
G02*
X133157000Y-70863500I0J147500D01*
G01*
X133157000Y-70568500D01*
G75*
G02*
X133304500Y-70421000I147500J0D01*
G01*
G37*
G36*
G01*
X133304500Y-69451000D02*
X133649500Y-69451000D01*
G75*
G02*
X133797000Y-69598500I0J-147500D01*
G01*
X133797000Y-69893500D01*
G75*
G02*
X133649500Y-70041000I-147500J0D01*
G01*
X133304500Y-70041000D01*
G75*
G02*
X133157000Y-69893500I0J147500D01*
G01*
X133157000Y-69598500D01*
G75*
G02*
X133304500Y-69451000I147500J0D01*
G01*
G37*
G36*
G01*
X134828500Y-69451000D02*
X135173500Y-69451000D01*
G75*
G02*
X135321000Y-69598500I0J-147500D01*
G01*
X135321000Y-69893500D01*
G75*
G02*
X135173500Y-70041000I-147500J0D01*
G01*
X134828500Y-70041000D01*
G75*
G02*
X134681000Y-69893500I0J147500D01*
G01*
X134681000Y-69598500D01*
G75*
G02*
X134828500Y-69451000I147500J0D01*
G01*
G37*
G36*
G01*
X134828500Y-70421000D02*
X135173500Y-70421000D01*
G75*
G02*
X135321000Y-70568500I0J-147500D01*
G01*
X135321000Y-70863500D01*
G75*
G02*
X135173500Y-71011000I-147500J0D01*
G01*
X134828500Y-71011000D01*
G75*
G02*
X134681000Y-70863500I0J147500D01*
G01*
X134681000Y-70568500D01*
G75*
G02*
X134828500Y-70421000I147500J0D01*
G01*
G37*
G36*
G01*
X136479500Y-69451000D02*
X136824500Y-69451000D01*
G75*
G02*
X136972000Y-69598500I0J-147500D01*
G01*
X136972000Y-69893500D01*
G75*
G02*
X136824500Y-70041000I-147500J0D01*
G01*
X136479500Y-70041000D01*
G75*
G02*
X136332000Y-69893500I0J147500D01*
G01*
X136332000Y-69598500D01*
G75*
G02*
X136479500Y-69451000I147500J0D01*
G01*
G37*
G36*
G01*
X136479500Y-70421000D02*
X136824500Y-70421000D01*
G75*
G02*
X136972000Y-70568500I0J-147500D01*
G01*
X136972000Y-70863500D01*
G75*
G02*
X136824500Y-71011000I-147500J0D01*
G01*
X136479500Y-71011000D01*
G75*
G02*
X136332000Y-70863500I0J147500D01*
G01*
X136332000Y-70568500D01*
G75*
G02*
X136479500Y-70421000I147500J0D01*
G01*
G37*
G36*
G01*
X131653500Y-72961000D02*
X131998500Y-72961000D01*
G75*
G02*
X132146000Y-73108500I0J-147500D01*
G01*
X132146000Y-73403500D01*
G75*
G02*
X131998500Y-73551000I-147500J0D01*
G01*
X131653500Y-73551000D01*
G75*
G02*
X131506000Y-73403500I0J147500D01*
G01*
X131506000Y-73108500D01*
G75*
G02*
X131653500Y-72961000I147500J0D01*
G01*
G37*
G36*
G01*
X131653500Y-71991000D02*
X131998500Y-71991000D01*
G75*
G02*
X132146000Y-72138500I0J-147500D01*
G01*
X132146000Y-72433500D01*
G75*
G02*
X131998500Y-72581000I-147500J0D01*
G01*
X131653500Y-72581000D01*
G75*
G02*
X131506000Y-72433500I0J147500D01*
G01*
X131506000Y-72138500D01*
G75*
G02*
X131653500Y-71991000I147500J0D01*
G01*
G37*
G36*
G01*
X133304500Y-71991000D02*
X133649500Y-71991000D01*
G75*
G02*
X133797000Y-72138500I0J-147500D01*
G01*
X133797000Y-72433500D01*
G75*
G02*
X133649500Y-72581000I-147500J0D01*
G01*
X133304500Y-72581000D01*
G75*
G02*
X133157000Y-72433500I0J147500D01*
G01*
X133157000Y-72138500D01*
G75*
G02*
X133304500Y-71991000I147500J0D01*
G01*
G37*
G36*
G01*
X133304500Y-72961000D02*
X133649500Y-72961000D01*
G75*
G02*
X133797000Y-73108500I0J-147500D01*
G01*
X133797000Y-73403500D01*
G75*
G02*
X133649500Y-73551000I-147500J0D01*
G01*
X133304500Y-73551000D01*
G75*
G02*
X133157000Y-73403500I0J147500D01*
G01*
X133157000Y-73108500D01*
G75*
G02*
X133304500Y-72961000I147500J0D01*
G01*
G37*
G36*
G01*
X134828500Y-72961000D02*
X135173500Y-72961000D01*
G75*
G02*
X135321000Y-73108500I0J-147500D01*
G01*
X135321000Y-73403500D01*
G75*
G02*
X135173500Y-73551000I-147500J0D01*
G01*
X134828500Y-73551000D01*
G75*
G02*
X134681000Y-73403500I0J147500D01*
G01*
X134681000Y-73108500D01*
G75*
G02*
X134828500Y-72961000I147500J0D01*
G01*
G37*
G36*
G01*
X134828500Y-71991000D02*
X135173500Y-71991000D01*
G75*
G02*
X135321000Y-72138500I0J-147500D01*
G01*
X135321000Y-72433500D01*
G75*
G02*
X135173500Y-72581000I-147500J0D01*
G01*
X134828500Y-72581000D01*
G75*
G02*
X134681000Y-72433500I0J147500D01*
G01*
X134681000Y-72138500D01*
G75*
G02*
X134828500Y-71991000I147500J0D01*
G01*
G37*
G36*
G01*
X136479500Y-71991000D02*
X136824500Y-71991000D01*
G75*
G02*
X136972000Y-72138500I0J-147500D01*
G01*
X136972000Y-72433500D01*
G75*
G02*
X136824500Y-72581000I-147500J0D01*
G01*
X136479500Y-72581000D01*
G75*
G02*
X136332000Y-72433500I0J147500D01*
G01*
X136332000Y-72138500D01*
G75*
G02*
X136479500Y-71991000I147500J0D01*
G01*
G37*
G36*
G01*
X136479500Y-72961000D02*
X136824500Y-72961000D01*
G75*
G02*
X136972000Y-73108500I0J-147500D01*
G01*
X136972000Y-73403500D01*
G75*
G02*
X136824500Y-73551000I-147500J0D01*
G01*
X136479500Y-73551000D01*
G75*
G02*
X136332000Y-73403500I0J147500D01*
G01*
X136332000Y-73108500D01*
G75*
G02*
X136479500Y-72961000I147500J0D01*
G01*
G37*
G36*
G01*
X126194000Y-80319000D02*
X126194000Y-80119000D01*
G75*
G02*
X126294000Y-80019000I100000J0D01*
G01*
X127569000Y-80019000D01*
G75*
G02*
X127669000Y-80119000I0J-100000D01*
G01*
X127669000Y-80319000D01*
G75*
G02*
X127569000Y-80419000I-100000J0D01*
G01*
X126294000Y-80419000D01*
G75*
G02*
X126194000Y-80319000I0J100000D01*
G01*
G37*
G36*
G01*
X126194000Y-80969000D02*
X126194000Y-80769000D01*
G75*
G02*
X126294000Y-80669000I100000J0D01*
G01*
X127569000Y-80669000D01*
G75*
G02*
X127669000Y-80769000I0J-100000D01*
G01*
X127669000Y-80969000D01*
G75*
G02*
X127569000Y-81069000I-100000J0D01*
G01*
X126294000Y-81069000D01*
G75*
G02*
X126194000Y-80969000I0J100000D01*
G01*
G37*
G36*
G01*
X126194000Y-81619000D02*
X126194000Y-81419000D01*
G75*
G02*
X126294000Y-81319000I100000J0D01*
G01*
X127569000Y-81319000D01*
G75*
G02*
X127669000Y-81419000I0J-100000D01*
G01*
X127669000Y-81619000D01*
G75*
G02*
X127569000Y-81719000I-100000J0D01*
G01*
X126294000Y-81719000D01*
G75*
G02*
X126194000Y-81619000I0J100000D01*
G01*
G37*
G36*
G01*
X126194000Y-82269000D02*
X126194000Y-82069000D01*
G75*
G02*
X126294000Y-81969000I100000J0D01*
G01*
X127569000Y-81969000D01*
G75*
G02*
X127669000Y-82069000I0J-100000D01*
G01*
X127669000Y-82269000D01*
G75*
G02*
X127569000Y-82369000I-100000J0D01*
G01*
X126294000Y-82369000D01*
G75*
G02*
X126194000Y-82269000I0J100000D01*
G01*
G37*
G36*
G01*
X126194000Y-82919000D02*
X126194000Y-82719000D01*
G75*
G02*
X126294000Y-82619000I100000J0D01*
G01*
X127569000Y-82619000D01*
G75*
G02*
X127669000Y-82719000I0J-100000D01*
G01*
X127669000Y-82919000D01*
G75*
G02*
X127569000Y-83019000I-100000J0D01*
G01*
X126294000Y-83019000D01*
G75*
G02*
X126194000Y-82919000I0J100000D01*
G01*
G37*
G36*
G01*
X126194000Y-83569000D02*
X126194000Y-83369000D01*
G75*
G02*
X126294000Y-83269000I100000J0D01*
G01*
X127569000Y-83269000D01*
G75*
G02*
X127669000Y-83369000I0J-100000D01*
G01*
X127669000Y-83569000D01*
G75*
G02*
X127569000Y-83669000I-100000J0D01*
G01*
X126294000Y-83669000D01*
G75*
G02*
X126194000Y-83569000I0J100000D01*
G01*
G37*
G36*
G01*
X126194000Y-84219000D02*
X126194000Y-84019000D01*
G75*
G02*
X126294000Y-83919000I100000J0D01*
G01*
X127569000Y-83919000D01*
G75*
G02*
X127669000Y-84019000I0J-100000D01*
G01*
X127669000Y-84219000D01*
G75*
G02*
X127569000Y-84319000I-100000J0D01*
G01*
X126294000Y-84319000D01*
G75*
G02*
X126194000Y-84219000I0J100000D01*
G01*
G37*
G36*
G01*
X131919000Y-84219000D02*
X131919000Y-84019000D01*
G75*
G02*
X132019000Y-83919000I100000J0D01*
G01*
X133294000Y-83919000D01*
G75*
G02*
X133394000Y-84019000I0J-100000D01*
G01*
X133394000Y-84219000D01*
G75*
G02*
X133294000Y-84319000I-100000J0D01*
G01*
X132019000Y-84319000D01*
G75*
G02*
X131919000Y-84219000I0J100000D01*
G01*
G37*
G36*
G01*
X131919000Y-83569000D02*
X131919000Y-83369000D01*
G75*
G02*
X132019000Y-83269000I100000J0D01*
G01*
X133294000Y-83269000D01*
G75*
G02*
X133394000Y-83369000I0J-100000D01*
G01*
X133394000Y-83569000D01*
G75*
G02*
X133294000Y-83669000I-100000J0D01*
G01*
X132019000Y-83669000D01*
G75*
G02*
X131919000Y-83569000I0J100000D01*
G01*
G37*
G36*
G01*
X131919000Y-82919000D02*
X131919000Y-82719000D01*
G75*
G02*
X132019000Y-82619000I100000J0D01*
G01*
X133294000Y-82619000D01*
G75*
G02*
X133394000Y-82719000I0J-100000D01*
G01*
X133394000Y-82919000D01*
G75*
G02*
X133294000Y-83019000I-100000J0D01*
G01*
X132019000Y-83019000D01*
G75*
G02*
X131919000Y-82919000I0J100000D01*
G01*
G37*
G36*
G01*
X131919000Y-82269000D02*
X131919000Y-82069000D01*
G75*
G02*
X132019000Y-81969000I100000J0D01*
G01*
X133294000Y-81969000D01*
G75*
G02*
X133394000Y-82069000I0J-100000D01*
G01*
X133394000Y-82269000D01*
G75*
G02*
X133294000Y-82369000I-100000J0D01*
G01*
X132019000Y-82369000D01*
G75*
G02*
X131919000Y-82269000I0J100000D01*
G01*
G37*
G36*
G01*
X131919000Y-81619000D02*
X131919000Y-81419000D01*
G75*
G02*
X132019000Y-81319000I100000J0D01*
G01*
X133294000Y-81319000D01*
G75*
G02*
X133394000Y-81419000I0J-100000D01*
G01*
X133394000Y-81619000D01*
G75*
G02*
X133294000Y-81719000I-100000J0D01*
G01*
X132019000Y-81719000D01*
G75*
G02*
X131919000Y-81619000I0J100000D01*
G01*
G37*
G36*
G01*
X131919000Y-80969000D02*
X131919000Y-80769000D01*
G75*
G02*
X132019000Y-80669000I100000J0D01*
G01*
X133294000Y-80669000D01*
G75*
G02*
X133394000Y-80769000I0J-100000D01*
G01*
X133394000Y-80969000D01*
G75*
G02*
X133294000Y-81069000I-100000J0D01*
G01*
X132019000Y-81069000D01*
G75*
G02*
X131919000Y-80969000I0J100000D01*
G01*
G37*
G36*
G01*
X131919000Y-80319000D02*
X131919000Y-80119000D01*
G75*
G02*
X132019000Y-80019000I100000J0D01*
G01*
X133294000Y-80019000D01*
G75*
G02*
X133394000Y-80119000I0J-100000D01*
G01*
X133394000Y-80319000D01*
G75*
G02*
X133294000Y-80419000I-100000J0D01*
G01*
X132019000Y-80419000D01*
G75*
G02*
X131919000Y-80319000I0J100000D01*
G01*
G37*
G36*
G01*
X137713500Y-56660000D02*
X137368500Y-56660000D01*
G75*
G02*
X137221000Y-56512500I0J147500D01*
G01*
X137221000Y-56217500D01*
G75*
G02*
X137368500Y-56070000I147500J0D01*
G01*
X137713500Y-56070000D01*
G75*
G02*
X137861000Y-56217500I0J-147500D01*
G01*
X137861000Y-56512500D01*
G75*
G02*
X137713500Y-56660000I-147500J0D01*
G01*
G37*
G36*
G01*
X137713500Y-55690000D02*
X137368500Y-55690000D01*
G75*
G02*
X137221000Y-55542500I0J147500D01*
G01*
X137221000Y-55247500D01*
G75*
G02*
X137368500Y-55100000I147500J0D01*
G01*
X137713500Y-55100000D01*
G75*
G02*
X137861000Y-55247500I0J-147500D01*
G01*
X137861000Y-55542500D01*
G75*
G02*
X137713500Y-55690000I-147500J0D01*
G01*
G37*
G36*
G01*
X124986000Y-92410500D02*
X124986000Y-92755500D01*
G75*
G02*
X124838500Y-92903000I-147500J0D01*
G01*
X124543500Y-92903000D01*
G75*
G02*
X124396000Y-92755500I0J147500D01*
G01*
X124396000Y-92410500D01*
G75*
G02*
X124543500Y-92263000I147500J0D01*
G01*
X124838500Y-92263000D01*
G75*
G02*
X124986000Y-92410500I0J-147500D01*
G01*
G37*
G36*
G01*
X124016000Y-92410500D02*
X124016000Y-92755500D01*
G75*
G02*
X123868500Y-92903000I-147500J0D01*
G01*
X123573500Y-92903000D01*
G75*
G02*
X123426000Y-92755500I0J147500D01*
G01*
X123426000Y-92410500D01*
G75*
G02*
X123573500Y-92263000I147500J0D01*
G01*
X123868500Y-92263000D01*
G75*
G02*
X124016000Y-92410500I0J-147500D01*
G01*
G37*
M02*
