G04 #@! TF.GenerationSoftware,KiCad,Pcbnew,5.1.10*
G04 #@! TF.CreationDate,2021-06-21T08:13:57-04:00*
G04 #@! TF.ProjectId,EVE-PCB-V4,4556452d-5043-4422-9d56-342e6b696361,rev?*
G04 #@! TF.SameCoordinates,Original*
G04 #@! TF.FileFunction,Copper,L1,Top*
G04 #@! TF.FilePolarity,Positive*
%FSLAX46Y46*%
G04 Gerber Fmt 4.6, Leading zero omitted, Abs format (unit mm)*
G04 Created by KiCad (PCBNEW 5.1.10) date 2021-06-21 08:13:57*
%MOMM*%
%LPD*%
G01*
G04 APERTURE LIST*
G04 #@! TA.AperFunction,ComponentPad*
%ADD10R,1.700000X1.700000*%
G04 #@! TD*
G04 #@! TA.AperFunction,ComponentPad*
%ADD11O,1.700000X1.700000*%
G04 #@! TD*
G04 #@! TA.AperFunction,ComponentPad*
%ADD12C,2.032000*%
G04 #@! TD*
G04 #@! TA.AperFunction,ViaPad*
%ADD13C,0.800000*%
G04 #@! TD*
G04 #@! TA.AperFunction,Conductor*
%ADD14C,0.250000*%
G04 #@! TD*
G04 #@! TA.AperFunction,Conductor*
%ADD15C,0.800000*%
G04 #@! TD*
G04 #@! TA.AperFunction,Conductor*
%ADD16C,0.500000*%
G04 #@! TD*
G04 APERTURE END LIST*
D10*
X189839600Y-67589400D03*
D11*
X189839600Y-65049400D03*
X192379600Y-67589400D03*
X192379600Y-65049400D03*
X194919600Y-67589400D03*
X194919600Y-65049400D03*
X197459600Y-67589400D03*
X197459600Y-65049400D03*
X199999600Y-67589400D03*
X199999600Y-65049400D03*
X202539600Y-67589400D03*
X202539600Y-65049400D03*
X205079600Y-67589400D03*
X205079600Y-65049400D03*
X207619600Y-67589400D03*
X207619600Y-65049400D03*
X210159600Y-67589400D03*
X210159600Y-65049400D03*
X212699600Y-67589400D03*
X212699600Y-65049400D03*
X215239600Y-67589400D03*
X215239600Y-65049400D03*
X217779600Y-67589400D03*
X217779600Y-65049400D03*
X220319600Y-67589400D03*
X220319600Y-65049400D03*
X222859600Y-67589400D03*
X222859600Y-65049400D03*
X225399600Y-67589400D03*
X225399600Y-65049400D03*
X227939600Y-67589400D03*
X227939600Y-65049400D03*
X230479600Y-67589400D03*
X230479600Y-65049400D03*
X233019600Y-67589400D03*
X233019600Y-65049400D03*
D10*
X66395600Y-67589400D03*
D11*
X66395600Y-65049400D03*
X68935600Y-67589400D03*
X68935600Y-65049400D03*
X71475600Y-67589400D03*
X71475600Y-65049400D03*
X74015600Y-67589400D03*
X74015600Y-65049400D03*
X76555600Y-67589400D03*
X76555600Y-65049400D03*
X79095600Y-67589400D03*
X79095600Y-65049400D03*
X81635600Y-67589400D03*
X81635600Y-65049400D03*
X84175600Y-67589400D03*
X84175600Y-65049400D03*
X86715600Y-67589400D03*
X86715600Y-65049400D03*
X89255600Y-67589400D03*
X89255600Y-65049400D03*
X91795600Y-67589400D03*
X91795600Y-65049400D03*
X94335600Y-67589400D03*
X94335600Y-65049400D03*
X96875600Y-67589400D03*
X96875600Y-65049400D03*
X99415600Y-67589400D03*
X99415600Y-65049400D03*
X101955600Y-67589400D03*
X101955600Y-65049400D03*
X104495600Y-67589400D03*
X104495600Y-65049400D03*
X107035600Y-67589400D03*
X107035600Y-65049400D03*
X109575600Y-67589400D03*
X109575600Y-65049400D03*
X112115600Y-67589400D03*
X112115600Y-65049400D03*
X114655600Y-67589400D03*
X114655600Y-65049400D03*
X117195600Y-67589400D03*
X117195600Y-65049400D03*
X119735600Y-67589400D03*
X119735600Y-65049400D03*
D12*
X97505601Y-103886000D03*
X95005601Y-88886000D03*
X92505601Y-103886000D03*
X90005601Y-88886000D03*
X87505601Y-103886000D03*
X85005601Y-88886000D03*
X82505601Y-103886000D03*
X80005601Y-88886000D03*
X77505601Y-103886000D03*
X75005601Y-88886000D03*
X72505600Y-103886000D03*
X70005600Y-88886000D03*
X67505600Y-103886000D03*
X65005600Y-88886000D03*
X62505600Y-103886000D03*
X60005600Y-88886000D03*
X57505600Y-103886000D03*
X55005600Y-88886000D03*
X195752801Y-103936800D03*
X193252801Y-88936800D03*
X190752801Y-103936800D03*
X188252801Y-88936800D03*
X185752801Y-103936800D03*
X183252801Y-88936800D03*
X180752801Y-103936800D03*
X178252801Y-88936800D03*
X175752801Y-103936800D03*
X173252801Y-88936800D03*
X170752800Y-103936800D03*
X168252800Y-88936800D03*
X165752800Y-103936800D03*
X163252800Y-88936800D03*
X160752800Y-103936800D03*
X158252800Y-88936800D03*
X155752800Y-103936800D03*
X153252800Y-88936800D03*
X104078400Y-88886000D03*
X106578400Y-103886000D03*
X109078400Y-88886000D03*
X111578400Y-103886000D03*
X114078400Y-88886000D03*
X116578400Y-103886000D03*
X119078400Y-88886000D03*
X121578400Y-103886000D03*
X124078401Y-88886000D03*
X126578401Y-103886000D03*
X129078401Y-88886000D03*
X131578401Y-103886000D03*
X134078401Y-88886000D03*
X136578401Y-103886000D03*
X139078401Y-88886000D03*
X141578401Y-103886000D03*
X144078401Y-88886000D03*
X146578401Y-103886000D03*
X202427200Y-89038400D03*
X204927200Y-104038400D03*
X207427200Y-89038400D03*
X209927200Y-104038400D03*
X212427200Y-89038400D03*
X214927200Y-104038400D03*
X217427200Y-89038400D03*
X219927200Y-104038400D03*
X222427201Y-89038400D03*
X224927201Y-104038400D03*
X227427201Y-89038400D03*
X229927201Y-104038400D03*
X232427201Y-89038400D03*
X234927201Y-104038400D03*
X237427201Y-89038400D03*
X239927201Y-104038400D03*
X242427201Y-89038400D03*
X244927201Y-104038400D03*
G04 #@! TA.AperFunction,SMDPad,CuDef*
G36*
G01*
X153308600Y-65788250D02*
X153308600Y-65275750D01*
G75*
G02*
X153527350Y-65057000I218750J0D01*
G01*
X153964850Y-65057000D01*
G75*
G02*
X154183600Y-65275750I0J-218750D01*
G01*
X154183600Y-65788250D01*
G75*
G02*
X153964850Y-66007000I-218750J0D01*
G01*
X153527350Y-66007000D01*
G75*
G02*
X153308600Y-65788250I0J218750D01*
G01*
G37*
G04 #@! TD.AperFunction*
G04 #@! TA.AperFunction,SMDPad,CuDef*
G36*
G01*
X154883600Y-65788250D02*
X154883600Y-65275750D01*
G75*
G02*
X155102350Y-65057000I218750J0D01*
G01*
X155539850Y-65057000D01*
G75*
G02*
X155758600Y-65275750I0J-218750D01*
G01*
X155758600Y-65788250D01*
G75*
G02*
X155539850Y-66007000I-218750J0D01*
G01*
X155102350Y-66007000D01*
G75*
G02*
X154883600Y-65788250I0J218750D01*
G01*
G37*
G04 #@! TD.AperFunction*
G04 #@! TA.AperFunction,SMDPad,CuDef*
G36*
G01*
X151466001Y-65091800D02*
X151466001Y-65991802D01*
G75*
G02*
X151216002Y-66241801I-249999J0D01*
G01*
X150691000Y-66241801D01*
G75*
G02*
X150441001Y-65991802I0J249999D01*
G01*
X150441001Y-65091800D01*
G75*
G02*
X150691000Y-64841801I249999J0D01*
G01*
X151216002Y-64841801D01*
G75*
G02*
X151466001Y-65091800I0J-249999D01*
G01*
G37*
G04 #@! TD.AperFunction*
G04 #@! TA.AperFunction,SMDPad,CuDef*
G36*
G01*
X149641001Y-65091800D02*
X149641001Y-65991802D01*
G75*
G02*
X149391002Y-66241801I-249999J0D01*
G01*
X148866000Y-66241801D01*
G75*
G02*
X148616001Y-65991802I0J249999D01*
G01*
X148616001Y-65091800D01*
G75*
G02*
X148866000Y-64841801I249999J0D01*
G01*
X149391002Y-64841801D01*
G75*
G02*
X149641001Y-65091800I0J-249999D01*
G01*
G37*
G04 #@! TD.AperFunction*
D13*
X155321100Y-67843500D03*
D14*
X149118700Y-65532000D02*
X149128501Y-65541801D01*
D15*
X117195600Y-65049400D02*
X117195600Y-63093600D01*
X117195600Y-63093600D02*
X118821200Y-61468000D01*
X192379600Y-63144400D02*
X192379600Y-65049400D01*
X190703200Y-61468000D02*
X192379600Y-63144400D01*
X149128501Y-65541801D02*
X149128501Y-61488299D01*
X149128501Y-61488299D02*
X149148800Y-61468000D01*
X149148800Y-61468000D02*
X190703200Y-61468000D01*
X118821200Y-61468000D02*
X149148800Y-61468000D01*
D14*
X155295600Y-65506500D02*
X155321100Y-65532000D01*
D15*
X192379600Y-67589400D02*
X192379600Y-70002400D01*
X192379600Y-70002400D02*
X191211200Y-71170800D01*
X191211200Y-71170800D02*
X158648400Y-71170800D01*
X155321100Y-67843500D02*
X155321100Y-67843500D01*
X158648400Y-71170800D02*
X155321100Y-67843500D01*
X155321100Y-67843500D02*
X155321100Y-65532000D01*
D14*
X153736299Y-65541801D02*
X153746100Y-65532000D01*
D16*
X150953501Y-65541801D02*
X153736299Y-65541801D01*
D15*
X89305201Y-107086400D02*
X92505601Y-103886000D01*
X74015600Y-65049400D02*
X74015600Y-62890400D01*
X74015600Y-62890400D02*
X71259980Y-60134780D01*
X71259980Y-60134780D02*
X63979079Y-60134780D01*
X63979079Y-60134780D02*
X60407969Y-63705890D01*
X63093600Y-91795600D02*
X70662800Y-99364800D01*
X60407969Y-63705890D02*
X60407970Y-81155040D01*
X60407970Y-81155040D02*
X63093600Y-83840670D01*
X63093600Y-83840670D02*
X63093600Y-91795600D01*
X73672421Y-108724421D02*
X81064379Y-108724421D01*
X70662800Y-99364800D02*
X70662800Y-105714800D01*
X81064379Y-108724421D02*
X82702400Y-107086400D01*
X70662800Y-105714800D02*
X73672421Y-108724421D01*
X82702400Y-107086400D02*
X89305201Y-107086400D01*
X94406801Y-106984800D02*
X97505601Y-103886000D01*
X91103871Y-106984800D02*
X94406801Y-106984800D01*
X89802261Y-108286410D02*
X91103871Y-106984800D01*
X76555600Y-65049400D02*
X76555600Y-62890400D01*
X63482018Y-58934771D02*
X59207960Y-63208831D01*
X76555600Y-62890400D02*
X72599970Y-58934770D01*
X81561440Y-109924430D02*
X83199460Y-108286410D01*
X72599970Y-58934770D02*
X63482018Y-58934771D01*
X83199460Y-108286410D02*
X89802261Y-108286410D01*
X59207960Y-63208831D02*
X59207961Y-81652101D01*
X69462790Y-99861860D02*
X69462791Y-106211861D01*
X69462791Y-106211861D02*
X73175361Y-109924431D01*
X59207961Y-81652101D02*
X61893590Y-84337730D01*
X61893591Y-92292661D02*
X69462790Y-99861860D01*
X61893590Y-84337730D02*
X61893591Y-92292661D01*
X73175361Y-109924431D02*
X81561440Y-109924430D01*
X77505601Y-96809601D02*
X77505601Y-103886000D01*
X72440800Y-91744800D02*
X77505601Y-96809601D01*
X72440800Y-88018269D02*
X72440800Y-91744800D01*
X64008000Y-79585469D02*
X72440800Y-88018269D01*
X64008000Y-66234919D02*
X64008000Y-79585469D01*
X65193519Y-65049400D02*
X64008000Y-66234919D01*
X66395600Y-65049400D02*
X65193519Y-65049400D01*
X79095600Y-65049400D02*
X79095600Y-62738000D01*
X74092362Y-57734762D02*
X62984957Y-57734762D01*
X79095600Y-62738000D02*
X74092362Y-57734762D01*
X58007951Y-83357151D02*
X58189599Y-83538799D01*
X58007951Y-62711770D02*
X58007951Y-83357151D01*
X62984957Y-57734762D02*
X58007951Y-62711770D01*
X65689599Y-100081199D02*
X65689599Y-106786799D01*
X58189599Y-92581199D02*
X65689599Y-100081199D01*
X70027239Y-111124439D02*
X82058501Y-111124439D01*
X65689599Y-106786799D02*
X70027239Y-111124439D01*
X82058501Y-111124439D02*
X83696520Y-109486420D01*
X91389200Y-108407200D02*
X91389200Y-108396541D01*
X90309980Y-109486420D02*
X91389200Y-108407200D01*
X83696520Y-109486420D02*
X90309980Y-109486420D01*
X91600931Y-108184810D02*
X94903862Y-108184809D01*
X91389200Y-108396541D02*
X91600931Y-108184810D01*
X94903862Y-108184809D02*
X96002271Y-107086400D01*
X123378001Y-107086400D02*
X126578401Y-103886000D01*
X96002271Y-107086400D02*
X123378001Y-107086400D01*
X58189599Y-83538799D02*
X58189599Y-92581199D01*
X66395600Y-80275999D02*
X75005601Y-88886000D01*
X66395600Y-80275999D02*
X66395600Y-67589400D01*
X80067201Y-106324400D02*
X82505601Y-103886000D01*
X77012800Y-106324400D02*
X80067201Y-106324400D01*
X75590400Y-104902000D02*
X77012800Y-106324400D01*
X75590400Y-98907600D02*
X75590400Y-104902000D01*
X62807990Y-64700010D02*
X62807990Y-80130790D01*
X64973200Y-62534800D02*
X62807990Y-64700010D01*
X67665600Y-62534800D02*
X64973200Y-62534800D01*
X68122800Y-85445600D02*
X68122800Y-91440000D01*
X62807990Y-80130790D02*
X68122800Y-85445600D01*
X68935600Y-63804800D02*
X67665600Y-62534800D01*
X68122800Y-91440000D02*
X75590400Y-98907600D01*
X68935600Y-65049400D02*
X68935600Y-63804800D01*
X85505210Y-105886391D02*
X87505601Y-103886000D01*
X76515739Y-107524410D02*
X80567320Y-107524410D01*
X74390389Y-105399060D02*
X76515739Y-107524410D01*
X66922789Y-91937060D02*
X74390389Y-99404660D01*
X69107191Y-61334791D02*
X64476138Y-61334791D01*
X66922789Y-85972789D02*
X66922789Y-91937060D01*
X61607979Y-80657979D02*
X66922789Y-85972789D01*
X71475600Y-63703200D02*
X69107191Y-61334791D01*
X71475600Y-65049400D02*
X71475600Y-63703200D01*
X80567320Y-107524410D02*
X82205339Y-105886391D01*
X82205339Y-105886391D02*
X85505210Y-105886391D01*
X61607979Y-64202949D02*
X61607979Y-80657979D01*
X64476138Y-61334791D02*
X61607979Y-64202949D01*
X74390389Y-99404660D02*
X74390389Y-105399060D01*
X87581201Y-86461600D02*
X90005601Y-88886000D01*
X83108800Y-85140800D02*
X84429600Y-86461600D01*
X80314800Y-85140800D02*
X83108800Y-85140800D01*
X75191855Y-83981044D02*
X79155044Y-83981044D01*
X79155044Y-83981044D02*
X80314800Y-85140800D01*
X74015600Y-82804789D02*
X75191855Y-83981044D01*
X84429600Y-86461600D02*
X87581201Y-86461600D01*
X74015600Y-82804789D02*
X74015600Y-67589400D01*
X142252662Y-85363191D02*
X143554271Y-86664800D01*
X170980801Y-86664800D02*
X173252801Y-88936800D01*
X143554271Y-86664800D02*
X170980801Y-86664800D01*
X91795600Y-78638400D02*
X92520344Y-79363144D01*
X125440914Y-81763163D02*
X128743845Y-81763164D01*
X92520344Y-79363144D02*
X95665166Y-79363145D01*
X96865175Y-80563154D02*
X124240906Y-80563155D01*
X95665166Y-79363145D02*
X96865175Y-80563154D01*
X130096253Y-83115572D02*
X133399184Y-83115573D01*
X124240906Y-80563155D02*
X125440914Y-81763163D01*
X128743845Y-81763164D02*
X130096253Y-83115572D01*
X137698922Y-84112381D02*
X138949731Y-85363190D01*
X133399184Y-83115573D02*
X134395992Y-84112381D01*
X134395992Y-84112381D02*
X137698922Y-84112381D01*
X138949731Y-85363190D02*
X142252662Y-85363191D01*
X91795600Y-78638400D02*
X91795600Y-67589400D01*
X81635600Y-65049400D02*
X81635600Y-63042800D01*
X62487896Y-56534753D02*
X56807941Y-62214710D01*
X75127553Y-56534753D02*
X62487896Y-56534753D01*
X81635600Y-63042800D02*
X75127553Y-56534753D01*
X56807941Y-62214710D02*
X56807941Y-83854211D01*
X56989589Y-84035859D02*
X56989589Y-93179859D01*
X56807941Y-83854211D02*
X56989589Y-84035859D01*
X56989589Y-93179859D02*
X57091189Y-93179859D01*
X64489589Y-100578259D02*
X64489590Y-107283860D01*
X57091189Y-93179859D02*
X64489589Y-100578259D01*
X69530179Y-112324449D02*
X82555562Y-112324448D01*
X64489590Y-107283860D02*
X69530179Y-112324449D01*
X82555562Y-112324448D02*
X84193580Y-110686430D01*
X84193580Y-110686430D02*
X90807041Y-110686429D01*
X92108652Y-109384818D02*
X95400923Y-109384818D01*
X90807041Y-110686429D02*
X92108652Y-109384818D01*
X96499331Y-108286410D02*
X123875062Y-108286409D01*
X95400923Y-109384818D02*
X96499331Y-108286410D01*
X123875062Y-108286409D02*
X124871871Y-107289600D01*
X128174801Y-107289600D02*
X131578401Y-103886000D01*
X124871871Y-107289600D02*
X128174801Y-107289600D01*
X94379871Y-86563200D02*
X121755601Y-86563200D01*
X93179862Y-85363191D02*
X94379871Y-86563200D01*
X89884390Y-85363190D02*
X93179862Y-85363191D01*
X88582781Y-84061581D02*
X89884390Y-85363190D01*
X85423721Y-84061581D02*
X88582781Y-84061581D01*
X81440651Y-82740781D02*
X84102922Y-82740782D01*
X80280895Y-81581025D02*
X81440651Y-82740781D01*
X121755601Y-86563200D02*
X124078401Y-88886000D01*
X84102922Y-82740782D02*
X85423721Y-84061581D01*
X79705200Y-81581024D02*
X80280895Y-81581025D01*
X79095600Y-80971424D02*
X79705200Y-81581024D01*
X79095600Y-80971424D02*
X79095600Y-67589400D01*
X220104401Y-86715600D02*
X222427201Y-89038400D01*
X192728671Y-86715600D02*
X220104401Y-86715600D01*
X188080790Y-85363190D02*
X191376262Y-85363191D01*
X183518521Y-84061581D02*
X186779181Y-84061581D01*
X179181330Y-83026390D02*
X182483331Y-83026391D01*
X173771692Y-80664752D02*
X174730121Y-81623181D01*
X186779181Y-84061581D02*
X188080790Y-85363190D01*
X182483331Y-83026391D02*
X183518521Y-84061581D01*
X140184227Y-78112336D02*
X141435035Y-79363144D01*
X174730121Y-81623181D02*
X177778122Y-81623182D01*
X104495600Y-73812400D02*
X105246309Y-74563109D01*
X105246309Y-74563109D02*
X126734709Y-74563109D01*
X126734709Y-74563109D02*
X127934718Y-75763118D01*
X132581557Y-77115526D02*
X136043526Y-77115526D01*
X177778122Y-81623182D02*
X179181330Y-83026390D01*
X141435035Y-79363144D02*
X144737966Y-79363145D01*
X136043526Y-77115526D02*
X137040335Y-78112335D01*
X137040335Y-78112335D02*
X140184227Y-78112336D01*
X191376262Y-85363191D02*
X192728671Y-86715600D01*
X131229150Y-75763119D02*
X132581557Y-77115526D01*
X127934718Y-75763118D02*
X131229150Y-75763119D01*
X146039572Y-80664751D02*
X173771692Y-80664752D01*
X144737966Y-79363145D02*
X146039572Y-80664751D01*
X104495600Y-73812400D02*
X104495600Y-67589400D01*
X77500665Y-86381064D02*
X80005601Y-88886000D01*
X74197735Y-86381064D02*
X77500665Y-86381064D01*
X68935600Y-81118929D02*
X74197735Y-86381064D01*
X68935600Y-81118929D02*
X68935600Y-67589400D01*
X82479601Y-86360000D02*
X85005601Y-88886000D01*
X79603600Y-86360000D02*
X82479601Y-86360000D01*
X78424654Y-85181054D02*
X79603600Y-86360000D01*
X74694795Y-85181054D02*
X78424654Y-85181054D01*
X71475600Y-81961859D02*
X74694795Y-85181054D01*
X71475600Y-81961859D02*
X71475600Y-67589400D01*
X92682801Y-86563200D02*
X95005601Y-88886000D01*
X89379871Y-86563200D02*
X92682801Y-86563200D01*
X84926660Y-85261590D02*
X88078262Y-85261591D01*
X83605861Y-83940791D02*
X84926660Y-85261590D01*
X80943590Y-83940790D02*
X83605861Y-83940791D01*
X88078262Y-85261591D02*
X89379871Y-86563200D01*
X79783834Y-82781034D02*
X80943590Y-83940790D01*
X77266800Y-82781034D02*
X79783834Y-82781034D01*
X76555600Y-82069834D02*
X77266800Y-82781034D01*
X76555600Y-82069834D02*
X76555600Y-67589400D01*
X175828401Y-86512400D02*
X178252801Y-88936800D01*
X171519990Y-85464790D02*
X172567600Y-86512400D01*
X139446792Y-84163181D02*
X142749722Y-84163181D01*
X94335600Y-77705935D02*
X94792800Y-78163135D01*
X94792800Y-78163135D02*
X96162227Y-78163136D01*
X124737967Y-79363146D02*
X125937975Y-80563154D01*
X125937975Y-80563154D02*
X129240906Y-80563155D01*
X142749722Y-84163181D02*
X144051331Y-85464790D01*
X96162227Y-78163136D02*
X97362236Y-79363145D01*
X129240906Y-80563155D02*
X130593314Y-81915563D01*
X97362236Y-79363145D02*
X124737967Y-79363146D01*
X172567600Y-86512400D02*
X175828401Y-86512400D01*
X144051331Y-85464790D02*
X171519990Y-85464790D01*
X130593314Y-81915563D02*
X133896245Y-81915564D01*
X134893052Y-82912371D02*
X138195983Y-82912372D01*
X133896245Y-81915564D02*
X134893052Y-82912371D01*
X138195983Y-82912372D02*
X139446792Y-84163181D01*
X94335600Y-77705935D02*
X94335600Y-67589400D01*
X180980801Y-86664800D02*
X183252801Y-88936800D01*
X177698400Y-86664800D02*
X180980801Y-86664800D01*
X173177200Y-85293200D02*
X176326800Y-85293200D01*
X172148780Y-84264780D02*
X173177200Y-85293200D01*
X96875600Y-77179439D02*
X96889839Y-77179439D01*
X144548391Y-84264780D02*
X172148780Y-84264780D01*
X97873536Y-78163136D02*
X125235028Y-78163137D01*
X96889839Y-77179439D02*
X97873536Y-78163136D01*
X125235028Y-78163137D02*
X126435036Y-79363145D01*
X139943852Y-82963171D02*
X143246783Y-82963172D01*
X126435036Y-79363145D02*
X129737967Y-79363146D01*
X129737967Y-79363146D02*
X131090375Y-80715554D01*
X135390113Y-81712362D02*
X138693044Y-81712363D01*
X131090375Y-80715554D02*
X134393305Y-80715554D01*
X134393305Y-80715554D02*
X135390113Y-81712362D01*
X138693044Y-81712363D02*
X139943852Y-82963171D01*
X176326800Y-85293200D02*
X177698400Y-86664800D01*
X143246783Y-82963172D02*
X144548391Y-84264780D01*
X96889839Y-67603639D02*
X96875600Y-67589400D01*
X96889839Y-77179439D02*
X96889839Y-67603639D01*
X185879201Y-86563200D02*
X188252801Y-88936800D01*
X181508400Y-85445600D02*
X182626000Y-86563200D01*
X176784000Y-84023200D02*
X178206400Y-85445600D01*
X173736000Y-84023200D02*
X176784000Y-84023200D01*
X172777570Y-83064770D02*
X173736000Y-84023200D01*
X99415600Y-76149200D02*
X100229527Y-76963127D01*
X182626000Y-86563200D02*
X185879201Y-86563200D01*
X126932097Y-78163136D02*
X130235028Y-78163137D01*
X125732089Y-76963128D02*
X126932097Y-78163136D01*
X135887174Y-80512353D02*
X139190105Y-80512354D01*
X134890366Y-79515545D02*
X135887174Y-80512353D01*
X130235028Y-78163137D02*
X131587435Y-79515544D01*
X143743844Y-81763163D02*
X145045451Y-83064770D01*
X131587435Y-79515544D02*
X134890366Y-79515545D01*
X139190105Y-80512354D02*
X140440913Y-81763162D01*
X178206400Y-85445600D02*
X181508400Y-85445600D01*
X140440913Y-81763162D02*
X143743844Y-81763163D01*
X100229527Y-76963127D02*
X125732089Y-76963128D01*
X145045451Y-83064770D02*
X172777570Y-83064770D01*
X99415600Y-76149200D02*
X99415600Y-67589400D01*
X187576271Y-86563200D02*
X190879201Y-86563200D01*
X186274662Y-85261591D02*
X187576271Y-86563200D01*
X183021460Y-85261590D02*
X186274662Y-85261591D01*
X181986270Y-84226400D02*
X183021460Y-85261590D01*
X178684270Y-84226400D02*
X181986270Y-84226400D01*
X177281061Y-82823191D02*
X178684270Y-84226400D01*
X174233060Y-82823190D02*
X177281061Y-82823191D01*
X173274631Y-81864761D02*
X174233060Y-82823190D01*
X140937974Y-80563153D02*
X144240905Y-80563154D01*
X101955600Y-74828400D02*
X102890318Y-75763118D01*
X126229150Y-75763119D02*
X127429158Y-76963127D01*
X127429158Y-76963127D02*
X130732089Y-76963128D01*
X130732089Y-76963128D02*
X132084496Y-78315535D01*
X132084496Y-78315535D02*
X135387427Y-78315536D01*
X135387427Y-78315536D02*
X136384235Y-79312344D01*
X190879201Y-86563200D02*
X193252801Y-88936800D01*
X139687166Y-79312345D02*
X140937974Y-80563153D01*
X136384235Y-79312344D02*
X139687166Y-79312345D01*
X144240905Y-80563154D02*
X145542511Y-81864760D01*
X102890318Y-75763118D02*
X126229150Y-75763119D01*
X145542511Y-81864760D02*
X173274631Y-81864761D01*
X101955600Y-74828400D02*
X101955600Y-67589400D01*
X141755601Y-86563200D02*
X144078401Y-88886000D01*
X137201862Y-85312391D02*
X138452671Y-86563200D01*
X96368114Y-81763163D02*
X123743845Y-81763164D01*
X89255600Y-78448743D02*
X90068400Y-79261543D01*
X90571024Y-79261544D02*
X91872633Y-80563153D01*
X90068400Y-79261543D02*
X90571024Y-79261544D01*
X91872633Y-80563153D02*
X95168105Y-80563154D01*
X123743845Y-81763164D02*
X124943853Y-82963172D01*
X95168105Y-80563154D02*
X96368114Y-81763163D01*
X129599192Y-84315581D02*
X132902123Y-84315582D01*
X132902123Y-84315582D02*
X133898931Y-85312390D01*
X124943853Y-82963172D02*
X128246784Y-82963173D01*
X138452671Y-86563200D02*
X141755601Y-86563200D01*
X128246784Y-82963173D02*
X129599192Y-84315581D01*
X133898931Y-85312390D02*
X137201862Y-85312391D01*
X89255600Y-78448743D02*
X89255600Y-67589400D01*
X136704801Y-86512400D02*
X139078401Y-88886000D01*
X129102131Y-85515590D02*
X132405062Y-85515591D01*
X86715600Y-79953552D02*
X87223600Y-80461552D01*
X91375573Y-81763163D02*
X94671044Y-81763163D01*
X133401871Y-86512400D02*
X136704801Y-86512400D01*
X90073963Y-80461553D02*
X91375573Y-81763163D01*
X87223600Y-80461552D02*
X90073963Y-80461553D01*
X94671044Y-81763163D02*
X95871053Y-82963172D01*
X95871053Y-82963172D02*
X123246784Y-82963173D01*
X124446792Y-84163181D02*
X127749723Y-84163182D01*
X123246784Y-82963173D02*
X124446792Y-84163181D01*
X127749723Y-84163182D02*
X129102131Y-85515590D01*
X132405062Y-85515591D02*
X133401871Y-86512400D01*
X86715600Y-77520800D02*
X86715600Y-67589400D01*
X86715600Y-79953552D02*
X86715600Y-77520800D01*
X131908001Y-86715600D02*
X134078401Y-88886000D01*
X84429600Y-80340763D02*
X85097044Y-80340764D01*
X85097044Y-80340764D02*
X86417841Y-81661561D01*
X86417841Y-81661561D02*
X89576902Y-81661562D01*
X95373992Y-84163181D02*
X122749723Y-84163182D01*
X89576902Y-81661562D02*
X90878512Y-82963172D01*
X94173984Y-82963173D02*
X95373992Y-84163181D01*
X84175600Y-80086763D02*
X84429600Y-80340763D01*
X122749723Y-84163182D02*
X123949731Y-85363190D01*
X123949731Y-85363190D02*
X127252662Y-85363191D01*
X90878512Y-82963172D02*
X94173984Y-82963173D01*
X127252662Y-85363191D02*
X128605071Y-86715600D01*
X128605071Y-86715600D02*
X131908001Y-86715600D01*
X84175600Y-80086763D02*
X84175600Y-67589400D01*
X123452671Y-86563200D02*
X126755601Y-86563200D01*
X122252662Y-85363191D02*
X123452671Y-86563200D01*
X94876931Y-85363190D02*
X122252662Y-85363191D01*
X90381451Y-84163181D02*
X93676923Y-84163182D01*
X93676923Y-84163182D02*
X94876931Y-85363190D01*
X89079841Y-82861571D02*
X90381451Y-84163181D01*
X85920781Y-82861571D02*
X89079841Y-82861571D01*
X84599983Y-81540773D02*
X85920781Y-82861571D01*
X126755601Y-86563200D02*
X129078401Y-88886000D01*
X82346800Y-81540772D02*
X84599983Y-81540773D01*
X81635600Y-80829572D02*
X82346800Y-81540772D01*
X81635600Y-80829572D02*
X81635600Y-67589400D01*
X115279872Y-69763072D02*
X128722953Y-69763073D01*
X114655600Y-69138800D02*
X115279872Y-69763072D01*
X129922962Y-70963082D02*
X133217394Y-70963083D01*
X128722953Y-69763073D02*
X129922962Y-70963082D01*
X134569799Y-72315488D02*
X138031768Y-72315488D01*
X133217394Y-70963083D02*
X134569799Y-72315488D01*
X139028578Y-73312298D02*
X142172470Y-73312299D01*
X138031768Y-72315488D02*
X139028578Y-73312298D01*
X143423279Y-74563108D02*
X146726210Y-74563109D01*
X142172470Y-73312299D02*
X143423279Y-74563108D01*
X146726210Y-74563109D02*
X148027816Y-75864715D01*
X148027816Y-75864715D02*
X175759936Y-75864716D01*
X176718365Y-76823145D02*
X179766366Y-76823146D01*
X175759936Y-75864716D02*
X176718365Y-76823145D01*
X181169572Y-78226352D02*
X184471573Y-78226353D01*
X179766366Y-76823146D02*
X181169572Y-78226352D01*
X185506764Y-79261544D02*
X188767425Y-79261545D01*
X184471573Y-78226353D02*
X185506764Y-79261544D01*
X190069033Y-80563153D02*
X193364505Y-80563154D01*
X188767425Y-79261545D02*
X190069033Y-80563153D01*
X222073453Y-81896372D02*
X223343453Y-83166372D01*
X194697722Y-81896371D02*
X222073453Y-81896372D01*
X193364505Y-80563154D02*
X194697722Y-81896371D01*
X223343453Y-83166372D02*
X226646384Y-83166373D01*
X231200123Y-84417182D02*
X232450931Y-85667990D01*
X227897192Y-84417181D02*
X231200123Y-84417182D01*
X226646384Y-83166373D02*
X227897192Y-84417181D01*
X232450931Y-85667990D02*
X235753862Y-85667991D01*
X235753862Y-85667991D02*
X236903071Y-86817200D01*
X240206001Y-86817200D02*
X242427201Y-89038400D01*
X236903071Y-86817200D02*
X240206001Y-86817200D01*
X114655600Y-69138800D02*
X114655600Y-67589400D01*
X235256801Y-86868000D02*
X237427201Y-89038400D01*
X146229149Y-75763118D02*
X147530755Y-77064724D01*
X137534708Y-73515498D02*
X138531518Y-74512308D01*
X129425901Y-72163091D02*
X132720333Y-72163092D01*
X185009703Y-80461553D02*
X188270364Y-80461554D01*
X194200662Y-83096381D02*
X221576392Y-83096381D01*
X134072739Y-73515498D02*
X137534708Y-73515498D01*
X141675409Y-74512308D02*
X142926218Y-75763117D01*
X132720333Y-72163092D02*
X134072739Y-73515498D01*
X226149323Y-84366382D02*
X227400131Y-85617190D01*
X138531518Y-74512308D02*
X141675409Y-74512308D01*
X112115600Y-70510400D02*
X112568281Y-70963081D01*
X128225892Y-70963082D02*
X129425901Y-72163091D01*
X147530755Y-77064724D02*
X175262875Y-77064725D01*
X230703062Y-85617191D02*
X231953871Y-86868000D01*
X231953871Y-86868000D02*
X235256801Y-86868000D01*
X175262875Y-77064725D02*
X176221304Y-78023154D01*
X112568281Y-70963081D02*
X128225892Y-70963082D01*
X176221304Y-78023154D02*
X179269305Y-78023155D01*
X180672511Y-79426361D02*
X183974512Y-79426362D01*
X221576392Y-83096381D02*
X222846392Y-84366381D01*
X189571972Y-81763162D02*
X192867444Y-81763163D01*
X179269305Y-78023155D02*
X180672511Y-79426361D01*
X183974512Y-79426362D02*
X185009703Y-80461553D01*
X188270364Y-80461554D02*
X189571972Y-81763162D01*
X142926218Y-75763117D02*
X146229149Y-75763118D01*
X192867444Y-81763163D02*
X194200662Y-83096381D01*
X227400131Y-85617190D02*
X230703062Y-85617191D01*
X222846392Y-84366381D02*
X226149323Y-84366382D01*
X112115600Y-70510400D02*
X112115600Y-67589400D01*
X110263090Y-72163090D02*
X127728831Y-72163091D01*
X109575600Y-71475600D02*
X110263090Y-72163090D01*
X128928840Y-73363100D02*
X132223272Y-73363101D01*
X127728831Y-72163091D02*
X128928840Y-73363100D01*
X132223272Y-73363101D02*
X133575678Y-74715507D01*
X133575678Y-74715507D02*
X137037648Y-74715508D01*
X138034457Y-75712317D02*
X141178349Y-75712318D01*
X137037648Y-74715508D02*
X138034457Y-75712317D01*
X142429157Y-76963126D02*
X145732088Y-76963127D01*
X141178349Y-75712318D02*
X142429157Y-76963126D01*
X145732088Y-76963127D02*
X147033694Y-78264733D01*
X174765814Y-78264734D02*
X175724243Y-79223163D01*
X147033694Y-78264733D02*
X174765814Y-78264734D01*
X175724243Y-79223163D02*
X178772244Y-79223164D01*
X180175451Y-80626371D02*
X183477451Y-80626371D01*
X178772244Y-79223164D02*
X180175451Y-80626371D01*
X184512642Y-81661562D02*
X187773303Y-81661563D01*
X183477451Y-80626371D02*
X184512642Y-81661562D01*
X189074911Y-82963171D02*
X192370383Y-82963172D01*
X187773303Y-81661563D02*
X189074911Y-82963171D01*
X192370383Y-82963172D02*
X193703601Y-84296390D01*
X193703601Y-84296390D02*
X221079332Y-84296391D01*
X222349331Y-85566390D02*
X225652262Y-85566391D01*
X221079332Y-84296391D02*
X222349331Y-85566390D01*
X225652262Y-85566391D02*
X226903071Y-86817200D01*
X230206001Y-86817200D02*
X232427201Y-89038400D01*
X226903071Y-86817200D02*
X230206001Y-86817200D01*
X109575600Y-71475600D02*
X109575600Y-67589400D01*
X221852271Y-86766400D02*
X225155201Y-86766400D01*
X193206541Y-85496400D02*
X220582271Y-85496400D01*
X184015581Y-82861571D02*
X187276242Y-82861572D01*
X182980391Y-81826381D02*
X184015581Y-82861571D01*
X179678391Y-81826381D02*
X182980391Y-81826381D01*
X175227182Y-80423172D02*
X178275183Y-80423173D01*
X174268753Y-79464743D02*
X175227182Y-80423172D01*
X191873322Y-84163181D02*
X193206541Y-85496400D01*
X188577851Y-84163181D02*
X191873322Y-84163181D01*
X107035600Y-71932800D02*
X108465899Y-73363099D01*
X127231770Y-73363100D02*
X128431779Y-74563109D01*
X225155201Y-86766400D02*
X227427201Y-89038400D01*
X187276242Y-82861572D02*
X188577851Y-84163181D01*
X133078617Y-75915516D02*
X136540587Y-75915517D01*
X178275183Y-80423173D02*
X179678391Y-81826381D01*
X108465899Y-73363099D02*
X127231770Y-73363100D01*
X136540587Y-75915517D02*
X137537396Y-76912326D01*
X145235027Y-78163136D02*
X146536633Y-79464742D01*
X128431779Y-74563109D02*
X131726211Y-74563110D01*
X131726211Y-74563110D02*
X133078617Y-75915516D01*
X137537396Y-76912326D02*
X140681288Y-76912327D01*
X220582271Y-85496400D02*
X221852271Y-86766400D01*
X140681288Y-76912327D02*
X141932096Y-78163135D01*
X141932096Y-78163135D02*
X145235027Y-78163136D01*
X146536633Y-79464742D02*
X174268753Y-79464743D01*
X107035600Y-71932800D02*
X107035600Y-67589400D01*
M02*
