G04 #@! TF.GenerationSoftware,KiCad,Pcbnew,5.1.5*
G04 #@! TF.CreationDate,2020-05-11T18:57:52-04:00*
G04 #@! TF.ProjectId,EVE-PCB-V4,4556452d-5043-4422-9d56-342e6b696361,rev?*
G04 #@! TF.SameCoordinates,Original*
G04 #@! TF.FileFunction,Legend,Bot*
G04 #@! TF.FilePolarity,Positive*
%FSLAX46Y46*%
G04 Gerber Fmt 4.6, Leading zero omitted, Abs format (unit mm)*
G04 Created by KiCad (PCBNEW 5.1.5) date 2020-05-11 18:57:52*
%MOMM*%
%LPD*%
G04 APERTURE LIST*
%ADD10C,0.250000*%
%ADD11C,0.300000*%
G04 APERTURE END LIST*
D10*
X187729880Y-77359452D02*
X188444166Y-77359452D01*
X188587023Y-77311833D01*
X188682261Y-77216595D01*
X188729880Y-77073738D01*
X188729880Y-76978500D01*
X188729880Y-78311833D02*
X188729880Y-77835642D01*
X187729880Y-77835642D01*
X188634642Y-79216595D02*
X188682261Y-79168976D01*
X188729880Y-79026119D01*
X188729880Y-78930880D01*
X188682261Y-78788023D01*
X188587023Y-78692785D01*
X188491785Y-78645166D01*
X188301309Y-78597547D01*
X188158452Y-78597547D01*
X187967976Y-78645166D01*
X187872738Y-78692785D01*
X187777500Y-78788023D01*
X187729880Y-78930880D01*
X187729880Y-79026119D01*
X187777500Y-79168976D01*
X187825119Y-79216595D01*
X187729880Y-79930880D02*
X188444166Y-79930880D01*
X188587023Y-79883261D01*
X188682261Y-79788023D01*
X188729880Y-79645166D01*
X188729880Y-79549928D01*
X188729880Y-80883261D02*
X188729880Y-80407071D01*
X187729880Y-80407071D01*
X188634642Y-81788023D02*
X188682261Y-81740404D01*
X188729880Y-81597547D01*
X188729880Y-81502309D01*
X188682261Y-81359452D01*
X188587023Y-81264214D01*
X188491785Y-81216595D01*
X188301309Y-81168976D01*
X188158452Y-81168976D01*
X187967976Y-81216595D01*
X187872738Y-81264214D01*
X187777500Y-81359452D01*
X187729880Y-81502309D01*
X187729880Y-81597547D01*
X187777500Y-81740404D01*
X187825119Y-81788023D01*
X187729880Y-82502309D02*
X188444166Y-82502309D01*
X188587023Y-82454690D01*
X188682261Y-82359452D01*
X188729880Y-82216595D01*
X188729880Y-82121357D01*
X188729880Y-83454690D02*
X188729880Y-82978500D01*
X187729880Y-82978500D01*
X188634642Y-84359452D02*
X188682261Y-84311833D01*
X188729880Y-84168976D01*
X188729880Y-84073738D01*
X188682261Y-83930880D01*
X188587023Y-83835642D01*
X188491785Y-83788023D01*
X188301309Y-83740404D01*
X188158452Y-83740404D01*
X187967976Y-83788023D01*
X187872738Y-83835642D01*
X187777500Y-83930880D01*
X187729880Y-84073738D01*
X187729880Y-84168976D01*
X187777500Y-84311833D01*
X187825119Y-84359452D01*
X187729880Y-85073738D02*
X188444166Y-85073738D01*
X188587023Y-85026119D01*
X188682261Y-84930880D01*
X188729880Y-84788023D01*
X188729880Y-84692785D01*
X188729880Y-86026119D02*
X188729880Y-85549928D01*
X187729880Y-85549928D01*
X188634642Y-86930880D02*
X188682261Y-86883261D01*
X188729880Y-86740404D01*
X188729880Y-86645166D01*
X188682261Y-86502309D01*
X188587023Y-86407071D01*
X188491785Y-86359452D01*
X188301309Y-86311833D01*
X188158452Y-86311833D01*
X187967976Y-86359452D01*
X187872738Y-86407071D01*
X187777500Y-86502309D01*
X187729880Y-86645166D01*
X187729880Y-86740404D01*
X187777500Y-86883261D01*
X187825119Y-86930880D01*
D11*
X89519238Y-69752642D02*
X91519238Y-69752642D01*
X91519238Y-69276452D01*
X91424000Y-68990738D01*
X91233523Y-68800261D01*
X91043047Y-68705023D01*
X90662095Y-68609785D01*
X90376380Y-68609785D01*
X89995428Y-68705023D01*
X89804952Y-68800261D01*
X89614476Y-68990738D01*
X89519238Y-69276452D01*
X89519238Y-69752642D01*
X89614476Y-66990738D02*
X89519238Y-67181214D01*
X89519238Y-67562166D01*
X89614476Y-67752642D01*
X89804952Y-67847880D01*
X90566857Y-67847880D01*
X90757333Y-67752642D01*
X90852571Y-67562166D01*
X90852571Y-67181214D01*
X90757333Y-66990738D01*
X90566857Y-66895500D01*
X90376380Y-66895500D01*
X90185904Y-67847880D01*
X89614476Y-66133595D02*
X89519238Y-65943119D01*
X89519238Y-65562166D01*
X89614476Y-65371690D01*
X89804952Y-65276452D01*
X89900190Y-65276452D01*
X90090666Y-65371690D01*
X90185904Y-65562166D01*
X90185904Y-65847880D01*
X90281142Y-66038357D01*
X90471619Y-66133595D01*
X90566857Y-66133595D01*
X90757333Y-66038357D01*
X90852571Y-65847880D01*
X90852571Y-65562166D01*
X90757333Y-65371690D01*
X89519238Y-64419309D02*
X90852571Y-64419309D01*
X91519238Y-64419309D02*
X91424000Y-64514547D01*
X91328761Y-64419309D01*
X91424000Y-64324071D01*
X91519238Y-64419309D01*
X91328761Y-64419309D01*
X90852571Y-62609785D02*
X89233523Y-62609785D01*
X89043047Y-62705023D01*
X88947809Y-62800261D01*
X88852571Y-62990738D01*
X88852571Y-63276452D01*
X88947809Y-63466928D01*
X89614476Y-62609785D02*
X89519238Y-62800261D01*
X89519238Y-63181214D01*
X89614476Y-63371690D01*
X89709714Y-63466928D01*
X89900190Y-63562166D01*
X90471619Y-63562166D01*
X90662095Y-63466928D01*
X90757333Y-63371690D01*
X90852571Y-63181214D01*
X90852571Y-62800261D01*
X90757333Y-62609785D01*
X90852571Y-61657404D02*
X89519238Y-61657404D01*
X90662095Y-61657404D02*
X90757333Y-61562166D01*
X90852571Y-61371690D01*
X90852571Y-61085976D01*
X90757333Y-60895500D01*
X90566857Y-60800261D01*
X89519238Y-60800261D01*
X89614476Y-59085976D02*
X89519238Y-59276452D01*
X89519238Y-59657404D01*
X89614476Y-59847880D01*
X89804952Y-59943119D01*
X90566857Y-59943119D01*
X90757333Y-59847880D01*
X90852571Y-59657404D01*
X90852571Y-59276452D01*
X90757333Y-59085976D01*
X90566857Y-58990738D01*
X90376380Y-58990738D01*
X90185904Y-59943119D01*
X89519238Y-57276452D02*
X91519238Y-57276452D01*
X89614476Y-57276452D02*
X89519238Y-57466928D01*
X89519238Y-57847880D01*
X89614476Y-58038357D01*
X89709714Y-58133595D01*
X89900190Y-58228833D01*
X90471619Y-58228833D01*
X90662095Y-58133595D01*
X90757333Y-58038357D01*
X90852571Y-57847880D01*
X90852571Y-57466928D01*
X90757333Y-57276452D01*
X89519238Y-54800261D02*
X91519238Y-54800261D01*
X90757333Y-54800261D02*
X90852571Y-54609785D01*
X90852571Y-54228833D01*
X90757333Y-54038357D01*
X90662095Y-53943119D01*
X90471619Y-53847880D01*
X89900190Y-53847880D01*
X89709714Y-53943119D01*
X89614476Y-54038357D01*
X89519238Y-54228833D01*
X89519238Y-54609785D01*
X89614476Y-54800261D01*
X90852571Y-53181214D02*
X89519238Y-52705023D01*
X90852571Y-52228833D02*
X89519238Y-52705023D01*
X89043047Y-52895500D01*
X88947809Y-52990738D01*
X88852571Y-53181214D01*
X91519238Y-50228833D02*
X89519238Y-49562166D01*
X91519238Y-48895500D01*
X89519238Y-48228833D02*
X90852571Y-48228833D01*
X91519238Y-48228833D02*
X91424000Y-48324071D01*
X91328761Y-48228833D01*
X91424000Y-48133595D01*
X91519238Y-48228833D01*
X91328761Y-48228833D01*
X89614476Y-47371690D02*
X89519238Y-47181214D01*
X89519238Y-46800261D01*
X89614476Y-46609785D01*
X89804952Y-46514547D01*
X89900190Y-46514547D01*
X90090666Y-46609785D01*
X90185904Y-46800261D01*
X90185904Y-47085976D01*
X90281142Y-47276452D01*
X90471619Y-47371690D01*
X90566857Y-47371690D01*
X90757333Y-47276452D01*
X90852571Y-47085976D01*
X90852571Y-46800261D01*
X90757333Y-46609785D01*
X89519238Y-45657404D02*
X91519238Y-45657404D01*
X89519238Y-44800261D02*
X90566857Y-44800261D01*
X90757333Y-44895500D01*
X90852571Y-45085976D01*
X90852571Y-45371690D01*
X90757333Y-45562166D01*
X90662095Y-45657404D01*
X89519238Y-43847880D02*
X91519238Y-43847880D01*
X89519238Y-42990738D02*
X90566857Y-42990738D01*
X90757333Y-43085976D01*
X90852571Y-43276452D01*
X90852571Y-43562166D01*
X90757333Y-43752642D01*
X90662095Y-43847880D01*
X90852571Y-42228833D02*
X89519238Y-41752642D01*
X90852571Y-41276452D01*
X89519238Y-39657404D02*
X90566857Y-39657404D01*
X90757333Y-39752642D01*
X90852571Y-39943119D01*
X90852571Y-40324071D01*
X90757333Y-40514547D01*
X89614476Y-39657404D02*
X89519238Y-39847880D01*
X89519238Y-40324071D01*
X89614476Y-40514547D01*
X89804952Y-40609785D01*
X89995428Y-40609785D01*
X90185904Y-40514547D01*
X90281142Y-40324071D01*
X90281142Y-39847880D01*
X90376380Y-39657404D01*
X89519238Y-37847880D02*
X90566857Y-37847880D01*
X90757333Y-37943119D01*
X90852571Y-38133595D01*
X90852571Y-38514547D01*
X90757333Y-38705023D01*
X89614476Y-37847880D02*
X89519238Y-38038357D01*
X89519238Y-38514547D01*
X89614476Y-38705023D01*
X89804952Y-38800261D01*
X89995428Y-38800261D01*
X90185904Y-38705023D01*
X90281142Y-38514547D01*
X90281142Y-38038357D01*
X90376380Y-37847880D01*
X90852571Y-36895500D02*
X89519238Y-36895500D01*
X90662095Y-36895500D02*
X90757333Y-36800261D01*
X90852571Y-36609785D01*
X90852571Y-36324071D01*
X90757333Y-36133595D01*
X90566857Y-36038357D01*
X89519238Y-36038357D01*
M02*
