G04 #@! TF.GenerationSoftware,KiCad,Pcbnew,5.1.10*
G04 #@! TF.CreationDate,2021-06-20T21:29:18-04:00*
G04 #@! TF.ProjectId,EVE-PCB-V4,4556452d-5043-4422-9d56-342e6b696361,rev?*
G04 #@! TF.SameCoordinates,Original*
G04 #@! TF.FileFunction,Legend,Bot*
G04 #@! TF.FilePolarity,Positive*
%FSLAX46Y46*%
G04 Gerber Fmt 4.6, Leading zero omitted, Abs format (unit mm)*
G04 Created by KiCad (PCBNEW 5.1.10) date 2021-06-20 21:29:18*
%MOMM*%
%LPD*%
G01*
G04 APERTURE LIST*
%ADD10C,0.500000*%
%ADD11C,0.300000*%
%ADD12C,0.120000*%
%ADD13C,0.150000*%
%ADD14O,1.802000X1.802000*%
%ADD15C,2.702000*%
%ADD16O,2.102000X2.007000*%
%ADD17C,1.752000*%
%ADD18C,1.202000*%
%ADD19O,2.702000X2.702000*%
G04 APERTURE END LIST*
D10*
X61836285Y-31154857D02*
X61836285Y-34154857D01*
X62550571Y-34154857D01*
X62979142Y-34012000D01*
X63264857Y-33726285D01*
X63407714Y-33440571D01*
X63550571Y-32869142D01*
X63550571Y-32440571D01*
X63407714Y-31869142D01*
X63264857Y-31583428D01*
X62979142Y-31297714D01*
X62550571Y-31154857D01*
X61836285Y-31154857D01*
X65979142Y-31297714D02*
X65693428Y-31154857D01*
X65122000Y-31154857D01*
X64836285Y-31297714D01*
X64693428Y-31583428D01*
X64693428Y-32726285D01*
X64836285Y-33011999D01*
X65122000Y-33154857D01*
X65693428Y-33154857D01*
X65979142Y-33011999D01*
X66122000Y-32726285D01*
X66122000Y-32440571D01*
X64693428Y-32154857D01*
X67264857Y-31297714D02*
X67550571Y-31154857D01*
X68122000Y-31154857D01*
X68407714Y-31297714D01*
X68550571Y-31583428D01*
X68550571Y-31726285D01*
X68407714Y-32011999D01*
X68122000Y-32154857D01*
X67693428Y-32154857D01*
X67407714Y-32297714D01*
X67264857Y-32583428D01*
X67264857Y-32726285D01*
X67407714Y-33011999D01*
X67693428Y-33154857D01*
X68122000Y-33154857D01*
X68407714Y-33011999D01*
X69836285Y-31154857D02*
X69836285Y-33154857D01*
X69836285Y-34154857D02*
X69693428Y-34012000D01*
X69836285Y-33869142D01*
X69979142Y-34012000D01*
X69836285Y-34154857D01*
X69836285Y-33869142D01*
X72550571Y-33154857D02*
X72550571Y-30726285D01*
X72407714Y-30440571D01*
X72264857Y-30297714D01*
X71979142Y-30154857D01*
X71550571Y-30154857D01*
X71264857Y-30297714D01*
X72550571Y-31297714D02*
X72264857Y-31154857D01*
X71693428Y-31154857D01*
X71407714Y-31297714D01*
X71264857Y-31440571D01*
X71122000Y-31726285D01*
X71122000Y-32583428D01*
X71264857Y-32869142D01*
X71407714Y-33011999D01*
X71693428Y-33154857D01*
X72264857Y-33154857D01*
X72550571Y-33012000D01*
X73979142Y-33154857D02*
X73979142Y-31154857D01*
X73979142Y-32869142D02*
X74122000Y-33012000D01*
X74407714Y-33154857D01*
X74836285Y-33154857D01*
X75122000Y-33012000D01*
X75264857Y-32726285D01*
X75264857Y-31154857D01*
X77836285Y-31297714D02*
X77550571Y-31154857D01*
X76979142Y-31154857D01*
X76693428Y-31297714D01*
X76550571Y-31583428D01*
X76550571Y-32726285D01*
X76693428Y-33012000D01*
X76979142Y-33154857D01*
X77550571Y-33154857D01*
X77836285Y-33012000D01*
X77979142Y-32726285D01*
X77979142Y-32440571D01*
X76550571Y-32154857D01*
X80550571Y-31154857D02*
X80550571Y-34154857D01*
X80550571Y-31297714D02*
X80264857Y-31154857D01*
X79693428Y-31154857D01*
X79407714Y-31297714D01*
X79264857Y-31440571D01*
X79122000Y-31726285D01*
X79122000Y-32583428D01*
X79264857Y-32869142D01*
X79407714Y-33012000D01*
X79693428Y-33154857D01*
X80264857Y-33154857D01*
X80550571Y-33012000D01*
X84264857Y-31154857D02*
X84264857Y-34154857D01*
X84264857Y-33012000D02*
X84550571Y-33154857D01*
X85122000Y-33154857D01*
X85407714Y-33012000D01*
X85550571Y-32869142D01*
X85693428Y-32583428D01*
X85693428Y-31726285D01*
X85550571Y-31440571D01*
X85407714Y-31297714D01*
X85122000Y-31154857D01*
X84550571Y-31154857D01*
X84264857Y-31297714D01*
X86693428Y-33154857D02*
X87407714Y-31154857D01*
X88122000Y-33154857D02*
X87407714Y-31154857D01*
X87122000Y-30440571D01*
X86979142Y-30297714D01*
X86693428Y-30154857D01*
X91122000Y-34154857D02*
X92122000Y-31154857D01*
X93122000Y-34154857D01*
X94122000Y-31154857D02*
X94122000Y-33154857D01*
X94122000Y-34154857D02*
X93979142Y-34012000D01*
X94122000Y-33869142D01*
X94264857Y-34012000D01*
X94122000Y-34154857D01*
X94122000Y-33869142D01*
X95407714Y-31297714D02*
X95693428Y-31154857D01*
X96264857Y-31154857D01*
X96550571Y-31297714D01*
X96693428Y-31583428D01*
X96693428Y-31726285D01*
X96550571Y-32012000D01*
X96264857Y-32154857D01*
X95836285Y-32154857D01*
X95550571Y-32297714D01*
X95407714Y-32583428D01*
X95407714Y-32726285D01*
X95550571Y-33012000D01*
X95836285Y-33154857D01*
X96264857Y-33154857D01*
X96550571Y-33012000D01*
X97979142Y-31154857D02*
X97979142Y-34154857D01*
X99264857Y-31154857D02*
X99264857Y-32726285D01*
X99122000Y-33012000D01*
X98836285Y-33154857D01*
X98407714Y-33154857D01*
X98122000Y-33012000D01*
X97979142Y-32869142D01*
X100693428Y-31154857D02*
X100693428Y-34154857D01*
X101979142Y-31154857D02*
X101979142Y-32726285D01*
X101836285Y-33012000D01*
X101550571Y-33154857D01*
X101122000Y-33154857D01*
X100836285Y-33012000D01*
X100693428Y-32869142D01*
X103122000Y-33154857D02*
X103836285Y-31154857D01*
X104550571Y-33154857D01*
X106979142Y-31154857D02*
X106979142Y-32726285D01*
X106836285Y-33012000D01*
X106550571Y-33154857D01*
X105979142Y-33154857D01*
X105693428Y-33012000D01*
X106979142Y-31297714D02*
X106693428Y-31154857D01*
X105979142Y-31154857D01*
X105693428Y-31297714D01*
X105550571Y-31583428D01*
X105550571Y-31869142D01*
X105693428Y-32154857D01*
X105979142Y-32297714D01*
X106693428Y-32297714D01*
X106979142Y-32440571D01*
X109693428Y-31154857D02*
X109693428Y-32726285D01*
X109550571Y-33012000D01*
X109264857Y-33154857D01*
X108693428Y-33154857D01*
X108407714Y-33012000D01*
X109693428Y-31297714D02*
X109407714Y-31154857D01*
X108693428Y-31154857D01*
X108407714Y-31297714D01*
X108264857Y-31583428D01*
X108264857Y-31869142D01*
X108407714Y-32154857D01*
X108693428Y-32297714D01*
X109407714Y-32297714D01*
X109693428Y-32440571D01*
X111122000Y-33154857D02*
X111122000Y-31154857D01*
X111122000Y-32869142D02*
X111264857Y-33012000D01*
X111550571Y-33154857D01*
X111979142Y-33154857D01*
X112264857Y-33012000D01*
X112407714Y-32726285D01*
X112407714Y-31154857D01*
D11*
X232858571Y-93655428D02*
X233930000Y-93655428D01*
X234144285Y-93584000D01*
X234287142Y-93441142D01*
X234358571Y-93226857D01*
X234358571Y-93084000D01*
X234358571Y-95084000D02*
X234358571Y-94369714D01*
X232858571Y-94369714D01*
X234215714Y-96441142D02*
X234287142Y-96369714D01*
X234358571Y-96155428D01*
X234358571Y-96012571D01*
X234287142Y-95798285D01*
X234144285Y-95655428D01*
X234001428Y-95584000D01*
X233715714Y-95512571D01*
X233501428Y-95512571D01*
X233215714Y-95584000D01*
X233072857Y-95655428D01*
X232930000Y-95798285D01*
X232858571Y-96012571D01*
X232858571Y-96155428D01*
X232930000Y-96369714D01*
X233001428Y-96441142D01*
X232858571Y-97512571D02*
X233930000Y-97512571D01*
X234144285Y-97441142D01*
X234287142Y-97298285D01*
X234358571Y-97084000D01*
X234358571Y-96941142D01*
X234358571Y-98941142D02*
X234358571Y-98226857D01*
X232858571Y-98226857D01*
X234215714Y-100298285D02*
X234287142Y-100226857D01*
X234358571Y-100012571D01*
X234358571Y-99869714D01*
X234287142Y-99655428D01*
X234144285Y-99512571D01*
X234001428Y-99441142D01*
X233715714Y-99369714D01*
X233501428Y-99369714D01*
X233215714Y-99441142D01*
X233072857Y-99512571D01*
X232930000Y-99655428D01*
X232858571Y-99869714D01*
X232858571Y-100012571D01*
X232930000Y-100226857D01*
X233001428Y-100298285D01*
X232858571Y-101369714D02*
X233930000Y-101369714D01*
X234144285Y-101298285D01*
X234287142Y-101155428D01*
X234358571Y-100941142D01*
X234358571Y-100798285D01*
X234358571Y-102798285D02*
X234358571Y-102084000D01*
X232858571Y-102084000D01*
X234215714Y-104155428D02*
X234287142Y-104084000D01*
X234358571Y-103869714D01*
X234358571Y-103726857D01*
X234287142Y-103512571D01*
X234144285Y-103369714D01*
X234001428Y-103298285D01*
X233715714Y-103226857D01*
X233501428Y-103226857D01*
X233215714Y-103298285D01*
X233072857Y-103369714D01*
X232930000Y-103512571D01*
X232858571Y-103726857D01*
X232858571Y-103869714D01*
X232930000Y-104084000D01*
X233001428Y-104155428D01*
X232858571Y-105226857D02*
X233930000Y-105226857D01*
X234144285Y-105155428D01*
X234287142Y-105012571D01*
X234358571Y-104798285D01*
X234358571Y-104655428D01*
X234358571Y-106655428D02*
X234358571Y-105941142D01*
X232858571Y-105941142D01*
X234215714Y-108012571D02*
X234287142Y-107941142D01*
X234358571Y-107726857D01*
X234358571Y-107584000D01*
X234287142Y-107369714D01*
X234144285Y-107226857D01*
X234001428Y-107155428D01*
X233715714Y-107084000D01*
X233501428Y-107084000D01*
X233215714Y-107155428D01*
X233072857Y-107226857D01*
X232930000Y-107369714D01*
X232858571Y-107584000D01*
X232858571Y-107726857D01*
X232930000Y-107941142D01*
X233001428Y-108012571D01*
D12*
X153670000Y-48788000D02*
X150220000Y-48788000D01*
X153670000Y-48788000D02*
X155620000Y-48788000D01*
X153670000Y-43668000D02*
X151720000Y-43668000D01*
X153670000Y-43668000D02*
X155620000Y-43668000D01*
X70358000Y-50995000D02*
X66758000Y-50995000D01*
X70358000Y-50995000D02*
X72558000Y-50995000D01*
X70358000Y-45525000D02*
X68158000Y-45525000D01*
X70358000Y-45525000D02*
X72558000Y-45525000D01*
X191770000Y-50487000D02*
X188170000Y-50487000D01*
X191770000Y-50487000D02*
X193970000Y-50487000D01*
X191770000Y-45017000D02*
X189570000Y-45017000D01*
X191770000Y-45017000D02*
X193970000Y-45017000D01*
X89662000Y-45779000D02*
X91862000Y-45779000D01*
X89662000Y-45779000D02*
X87462000Y-45779000D01*
X89662000Y-51249000D02*
X91862000Y-51249000D01*
X89662000Y-51249000D02*
X86062000Y-51249000D01*
X213360000Y-45017000D02*
X215560000Y-45017000D01*
X213360000Y-45017000D02*
X211160000Y-45017000D01*
X213360000Y-50487000D02*
X215560000Y-50487000D01*
X213360000Y-50487000D02*
X209760000Y-50487000D01*
X80518000Y-83903000D02*
X76918000Y-83903000D01*
X80518000Y-83903000D02*
X82718000Y-83903000D01*
X80518000Y-77133000D02*
X78318000Y-77133000D01*
X80518000Y-77133000D02*
X82718000Y-77133000D01*
X209296000Y-83903000D02*
X205696000Y-83903000D01*
X209296000Y-83903000D02*
X211496000Y-83903000D01*
X209296000Y-77133000D02*
X207096000Y-77133000D01*
X209296000Y-77133000D02*
X211496000Y-77133000D01*
D13*
X154431904Y-49080380D02*
X154431904Y-49889904D01*
X154384285Y-49985142D01*
X154336666Y-50032761D01*
X154241428Y-50080380D01*
X154050952Y-50080380D01*
X153955714Y-50032761D01*
X153908095Y-49985142D01*
X153860476Y-49889904D01*
X153860476Y-49080380D01*
X152908095Y-49080380D02*
X153384285Y-49080380D01*
X153431904Y-49556571D01*
X153384285Y-49508952D01*
X153289047Y-49461333D01*
X153050952Y-49461333D01*
X152955714Y-49508952D01*
X152908095Y-49556571D01*
X152860476Y-49651809D01*
X152860476Y-49889904D01*
X152908095Y-49985142D01*
X152955714Y-50032761D01*
X153050952Y-50080380D01*
X153289047Y-50080380D01*
X153384285Y-50032761D01*
X153431904Y-49985142D01*
X71119904Y-51162380D02*
X71119904Y-51971904D01*
X71072285Y-52067142D01*
X71024666Y-52114761D01*
X70929428Y-52162380D01*
X70738952Y-52162380D01*
X70643714Y-52114761D01*
X70596095Y-52067142D01*
X70548476Y-51971904D01*
X70548476Y-51162380D01*
X69929428Y-51590952D02*
X70024666Y-51543333D01*
X70072285Y-51495714D01*
X70119904Y-51400476D01*
X70119904Y-51352857D01*
X70072285Y-51257619D01*
X70024666Y-51210000D01*
X69929428Y-51162380D01*
X69738952Y-51162380D01*
X69643714Y-51210000D01*
X69596095Y-51257619D01*
X69548476Y-51352857D01*
X69548476Y-51400476D01*
X69596095Y-51495714D01*
X69643714Y-51543333D01*
X69738952Y-51590952D01*
X69929428Y-51590952D01*
X70024666Y-51638571D01*
X70072285Y-51686190D01*
X70119904Y-51781428D01*
X70119904Y-51971904D01*
X70072285Y-52067142D01*
X70024666Y-52114761D01*
X69929428Y-52162380D01*
X69738952Y-52162380D01*
X69643714Y-52114761D01*
X69596095Y-52067142D01*
X69548476Y-51971904D01*
X69548476Y-51781428D01*
X69596095Y-51686190D01*
X69643714Y-51638571D01*
X69738952Y-51590952D01*
X192531904Y-50654380D02*
X192531904Y-51463904D01*
X192484285Y-51559142D01*
X192436666Y-51606761D01*
X192341428Y-51654380D01*
X192150952Y-51654380D01*
X192055714Y-51606761D01*
X192008095Y-51559142D01*
X191960476Y-51463904D01*
X191960476Y-50654380D01*
X191436666Y-51654380D02*
X191246190Y-51654380D01*
X191150952Y-51606761D01*
X191103333Y-51559142D01*
X191008095Y-51416285D01*
X190960476Y-51225809D01*
X190960476Y-50844857D01*
X191008095Y-50749619D01*
X191055714Y-50702000D01*
X191150952Y-50654380D01*
X191341428Y-50654380D01*
X191436666Y-50702000D01*
X191484285Y-50749619D01*
X191531904Y-50844857D01*
X191531904Y-51082952D01*
X191484285Y-51178190D01*
X191436666Y-51225809D01*
X191341428Y-51273428D01*
X191150952Y-51273428D01*
X191055714Y-51225809D01*
X191008095Y-51178190D01*
X190960476Y-51082952D01*
X90900095Y-51416380D02*
X90900095Y-52225904D01*
X90852476Y-52321142D01*
X90804857Y-52368761D01*
X90709619Y-52416380D01*
X90519142Y-52416380D01*
X90423904Y-52368761D01*
X90376285Y-52321142D01*
X90328666Y-52225904D01*
X90328666Y-51416380D01*
X89328666Y-52416380D02*
X89900095Y-52416380D01*
X89614380Y-52416380D02*
X89614380Y-51416380D01*
X89709619Y-51559238D01*
X89804857Y-51654476D01*
X89900095Y-51702095D01*
X88947714Y-51511619D02*
X88900095Y-51464000D01*
X88804857Y-51416380D01*
X88566761Y-51416380D01*
X88471523Y-51464000D01*
X88423904Y-51511619D01*
X88376285Y-51606857D01*
X88376285Y-51702095D01*
X88423904Y-51844952D01*
X88995333Y-52416380D01*
X88376285Y-52416380D01*
X214598095Y-50654380D02*
X214598095Y-51463904D01*
X214550476Y-51559142D01*
X214502857Y-51606761D01*
X214407619Y-51654380D01*
X214217142Y-51654380D01*
X214121904Y-51606761D01*
X214074285Y-51559142D01*
X214026666Y-51463904D01*
X214026666Y-50654380D01*
X213026666Y-51654380D02*
X213598095Y-51654380D01*
X213312380Y-51654380D02*
X213312380Y-50654380D01*
X213407619Y-50797238D01*
X213502857Y-50892476D01*
X213598095Y-50940095D01*
X212693333Y-50654380D02*
X212074285Y-50654380D01*
X212407619Y-51035333D01*
X212264761Y-51035333D01*
X212169523Y-51082952D01*
X212121904Y-51130571D01*
X212074285Y-51225809D01*
X212074285Y-51463904D01*
X212121904Y-51559142D01*
X212169523Y-51606761D01*
X212264761Y-51654380D01*
X212550476Y-51654380D01*
X212645714Y-51606761D01*
X212693333Y-51559142D01*
X81756095Y-84170380D02*
X81756095Y-84979904D01*
X81708476Y-85075142D01*
X81660857Y-85122761D01*
X81565619Y-85170380D01*
X81375142Y-85170380D01*
X81279904Y-85122761D01*
X81232285Y-85075142D01*
X81184666Y-84979904D01*
X81184666Y-84170380D01*
X80184666Y-85170380D02*
X80756095Y-85170380D01*
X80470380Y-85170380D02*
X80470380Y-84170380D01*
X80565619Y-84313238D01*
X80660857Y-84408476D01*
X80756095Y-84456095D01*
X79613238Y-84598952D02*
X79708476Y-84551333D01*
X79756095Y-84503714D01*
X79803714Y-84408476D01*
X79803714Y-84360857D01*
X79756095Y-84265619D01*
X79708476Y-84218000D01*
X79613238Y-84170380D01*
X79422761Y-84170380D01*
X79327523Y-84218000D01*
X79279904Y-84265619D01*
X79232285Y-84360857D01*
X79232285Y-84408476D01*
X79279904Y-84503714D01*
X79327523Y-84551333D01*
X79422761Y-84598952D01*
X79613238Y-84598952D01*
X79708476Y-84646571D01*
X79756095Y-84694190D01*
X79803714Y-84789428D01*
X79803714Y-84979904D01*
X79756095Y-85075142D01*
X79708476Y-85122761D01*
X79613238Y-85170380D01*
X79422761Y-85170380D01*
X79327523Y-85122761D01*
X79279904Y-85075142D01*
X79232285Y-84979904D01*
X79232285Y-84789428D01*
X79279904Y-84694190D01*
X79327523Y-84646571D01*
X79422761Y-84598952D01*
X210534095Y-84170380D02*
X210534095Y-84979904D01*
X210486476Y-85075142D01*
X210438857Y-85122761D01*
X210343619Y-85170380D01*
X210153142Y-85170380D01*
X210057904Y-85122761D01*
X210010285Y-85075142D01*
X209962666Y-84979904D01*
X209962666Y-84170380D01*
X208962666Y-85170380D02*
X209534095Y-85170380D01*
X209248380Y-85170380D02*
X209248380Y-84170380D01*
X209343619Y-84313238D01*
X209438857Y-84408476D01*
X209534095Y-84456095D01*
X208486476Y-85170380D02*
X208296000Y-85170380D01*
X208200761Y-85122761D01*
X208153142Y-85075142D01*
X208057904Y-84932285D01*
X208010285Y-84741809D01*
X208010285Y-84360857D01*
X208057904Y-84265619D01*
X208105523Y-84218000D01*
X208200761Y-84170380D01*
X208391238Y-84170380D01*
X208486476Y-84218000D01*
X208534095Y-84265619D01*
X208581714Y-84360857D01*
X208581714Y-84598952D01*
X208534095Y-84694190D01*
X208486476Y-84741809D01*
X208391238Y-84789428D01*
X208200761Y-84789428D01*
X208105523Y-84741809D01*
X208057904Y-84694190D01*
X208010285Y-84598952D01*
%LPC*%
D14*
X232410000Y-82042000D03*
X229870000Y-82042000D03*
X232410000Y-79502000D03*
X229870000Y-79502000D03*
X232410000Y-76962000D03*
X229870000Y-76962000D03*
X232410000Y-74422000D03*
X229870000Y-74422000D03*
X232410000Y-71882000D03*
X229870000Y-71882000D03*
X232410000Y-69342000D03*
X229870000Y-69342000D03*
X232410000Y-66802000D03*
X229870000Y-66802000D03*
X232410000Y-64262000D03*
X229870000Y-64262000D03*
X232410000Y-61722000D03*
X229870000Y-61722000D03*
X232410000Y-59182000D03*
X229870000Y-59182000D03*
X232410000Y-56642000D03*
X229870000Y-56642000D03*
X232410000Y-54102000D03*
X229870000Y-54102000D03*
X232410000Y-51562000D03*
X229870000Y-51562000D03*
X232410000Y-49022000D03*
X229870000Y-49022000D03*
X232410000Y-46482000D03*
X229870000Y-46482000D03*
X232410000Y-43942000D03*
X229870000Y-43942000D03*
X232410000Y-41402000D03*
X229870000Y-41402000D03*
X232410000Y-38862000D03*
X229870000Y-38862000D03*
X232410000Y-36322000D03*
X229870000Y-36322000D03*
X232410000Y-33782000D03*
G36*
G01*
X228969000Y-34632000D02*
X228969000Y-32932000D01*
G75*
G02*
X229020000Y-32881000I51000J0D01*
G01*
X230720000Y-32881000D01*
G75*
G02*
X230771000Y-32932000I0J-51000D01*
G01*
X230771000Y-34632000D01*
G75*
G02*
X230720000Y-34683000I-51000J0D01*
G01*
X229020000Y-34683000D01*
G75*
G02*
X228969000Y-34632000I0J51000D01*
G01*
G37*
G36*
G01*
X142524200Y-42642000D02*
X142524200Y-45242000D01*
G75*
G02*
X142473200Y-45293000I-51000J0D01*
G01*
X139873200Y-45293000D01*
G75*
G02*
X139822200Y-45242000I0J51000D01*
G01*
X139822200Y-42642000D01*
G75*
G02*
X139873200Y-42591000I51000J0D01*
G01*
X142473200Y-42591000D01*
G75*
G02*
X142524200Y-42642000I0J-51000D01*
G01*
G37*
D15*
X141173200Y-37942000D03*
X136473200Y-40942000D03*
G36*
G01*
X55642000Y-89928500D02*
X57642000Y-89928500D01*
G75*
G02*
X57693000Y-89979500I0J-51000D01*
G01*
X57693000Y-91884500D01*
G75*
G02*
X57642000Y-91935500I-51000J0D01*
G01*
X55642000Y-91935500D01*
G75*
G02*
X55591000Y-91884500I0J51000D01*
G01*
X55591000Y-89979500D01*
G75*
G02*
X55642000Y-89928500I51000J0D01*
G01*
G37*
D16*
X56642000Y-93472000D03*
X56642000Y-96012000D03*
D17*
X165100000Y-37846000D03*
X162560000Y-37846000D03*
X160020000Y-37846000D03*
D18*
X165100000Y-35306000D03*
X162560000Y-35306000D03*
X160020000Y-35306000D03*
G36*
G01*
X127173000Y-49306000D02*
X127173000Y-46706000D01*
G75*
G02*
X127224000Y-46655000I51000J0D01*
G01*
X129824000Y-46655000D01*
G75*
G02*
X129875000Y-46706000I0J-51000D01*
G01*
X129875000Y-49306000D01*
G75*
G02*
X129824000Y-49357000I-51000J0D01*
G01*
X127224000Y-49357000D01*
G75*
G02*
X127173000Y-49306000I0J51000D01*
G01*
G37*
D19*
X132334000Y-48006000D03*
G36*
G01*
X54979000Y-34632000D02*
X54979000Y-32932000D01*
G75*
G02*
X55030000Y-32881000I51000J0D01*
G01*
X56730000Y-32881000D01*
G75*
G02*
X56781000Y-32932000I0J-51000D01*
G01*
X56781000Y-34632000D01*
G75*
G02*
X56730000Y-34683000I-51000J0D01*
G01*
X55030000Y-34683000D01*
G75*
G02*
X54979000Y-34632000I0J51000D01*
G01*
G37*
D14*
X58420000Y-33782000D03*
X55880000Y-36322000D03*
X58420000Y-36322000D03*
X55880000Y-38862000D03*
X58420000Y-38862000D03*
X55880000Y-41402000D03*
X58420000Y-41402000D03*
X55880000Y-43942000D03*
X58420000Y-43942000D03*
X55880000Y-46482000D03*
X58420000Y-46482000D03*
X55880000Y-49022000D03*
X58420000Y-49022000D03*
X55880000Y-51562000D03*
X58420000Y-51562000D03*
X55880000Y-54102000D03*
X58420000Y-54102000D03*
X55880000Y-56642000D03*
X58420000Y-56642000D03*
X55880000Y-59182000D03*
X58420000Y-59182000D03*
X55880000Y-61722000D03*
X58420000Y-61722000D03*
X55880000Y-64262000D03*
X58420000Y-64262000D03*
X55880000Y-66802000D03*
X58420000Y-66802000D03*
X55880000Y-69342000D03*
X58420000Y-69342000D03*
X55880000Y-71882000D03*
X58420000Y-71882000D03*
X55880000Y-74422000D03*
X58420000Y-74422000D03*
X55880000Y-76962000D03*
X58420000Y-76962000D03*
X55880000Y-79502000D03*
X58420000Y-79502000D03*
X55880000Y-82042000D03*
X58420000Y-82042000D03*
G36*
G01*
X125083000Y-37172000D02*
X125083000Y-35472000D01*
G75*
G02*
X125134000Y-35421000I51000J0D01*
G01*
X126834000Y-35421000D01*
G75*
G02*
X126885000Y-35472000I0J-51000D01*
G01*
X126885000Y-37172000D01*
G75*
G02*
X126834000Y-37223000I-51000J0D01*
G01*
X125134000Y-37223000D01*
G75*
G02*
X125083000Y-37172000I0J51000D01*
G01*
G37*
X128524000Y-36322000D03*
X125984000Y-38862000D03*
X128524000Y-38862000D03*
X125984000Y-41402000D03*
X128524000Y-41402000D03*
G36*
G01*
X150169000Y-48308500D02*
X150169000Y-47957500D01*
G75*
G02*
X150344500Y-47782000I175500J0D01*
G01*
X152045500Y-47782000D01*
G75*
G02*
X152221000Y-47957500I0J-175500D01*
G01*
X152221000Y-48308500D01*
G75*
G02*
X152045500Y-48484000I-175500J0D01*
G01*
X150344500Y-48484000D01*
G75*
G02*
X150169000Y-48308500I0J175500D01*
G01*
G37*
G36*
G01*
X150169000Y-47038500D02*
X150169000Y-46687500D01*
G75*
G02*
X150344500Y-46512000I175500J0D01*
G01*
X152045500Y-46512000D01*
G75*
G02*
X152221000Y-46687500I0J-175500D01*
G01*
X152221000Y-47038500D01*
G75*
G02*
X152045500Y-47214000I-175500J0D01*
G01*
X150344500Y-47214000D01*
G75*
G02*
X150169000Y-47038500I0J175500D01*
G01*
G37*
G36*
G01*
X150169000Y-45768500D02*
X150169000Y-45417500D01*
G75*
G02*
X150344500Y-45242000I175500J0D01*
G01*
X152045500Y-45242000D01*
G75*
G02*
X152221000Y-45417500I0J-175500D01*
G01*
X152221000Y-45768500D01*
G75*
G02*
X152045500Y-45944000I-175500J0D01*
G01*
X150344500Y-45944000D01*
G75*
G02*
X150169000Y-45768500I0J175500D01*
G01*
G37*
G36*
G01*
X150169000Y-44498500D02*
X150169000Y-44147500D01*
G75*
G02*
X150344500Y-43972000I175500J0D01*
G01*
X152045500Y-43972000D01*
G75*
G02*
X152221000Y-44147500I0J-175500D01*
G01*
X152221000Y-44498500D01*
G75*
G02*
X152045500Y-44674000I-175500J0D01*
G01*
X150344500Y-44674000D01*
G75*
G02*
X150169000Y-44498500I0J175500D01*
G01*
G37*
G36*
G01*
X155119000Y-44498500D02*
X155119000Y-44147500D01*
G75*
G02*
X155294500Y-43972000I175500J0D01*
G01*
X156995500Y-43972000D01*
G75*
G02*
X157171000Y-44147500I0J-175500D01*
G01*
X157171000Y-44498500D01*
G75*
G02*
X156995500Y-44674000I-175500J0D01*
G01*
X155294500Y-44674000D01*
G75*
G02*
X155119000Y-44498500I0J175500D01*
G01*
G37*
G36*
G01*
X155119000Y-45768500D02*
X155119000Y-45417500D01*
G75*
G02*
X155294500Y-45242000I175500J0D01*
G01*
X156995500Y-45242000D01*
G75*
G02*
X157171000Y-45417500I0J-175500D01*
G01*
X157171000Y-45768500D01*
G75*
G02*
X156995500Y-45944000I-175500J0D01*
G01*
X155294500Y-45944000D01*
G75*
G02*
X155119000Y-45768500I0J175500D01*
G01*
G37*
G36*
G01*
X155119000Y-47038500D02*
X155119000Y-46687500D01*
G75*
G02*
X155294500Y-46512000I175500J0D01*
G01*
X156995500Y-46512000D01*
G75*
G02*
X157171000Y-46687500I0J-175500D01*
G01*
X157171000Y-47038500D01*
G75*
G02*
X156995500Y-47214000I-175500J0D01*
G01*
X155294500Y-47214000D01*
G75*
G02*
X155119000Y-47038500I0J175500D01*
G01*
G37*
G36*
G01*
X155119000Y-48308500D02*
X155119000Y-47957500D01*
G75*
G02*
X155294500Y-47782000I175500J0D01*
G01*
X156995500Y-47782000D01*
G75*
G02*
X157171000Y-47957500I0J-175500D01*
G01*
X157171000Y-48308500D01*
G75*
G02*
X156995500Y-48484000I-175500J0D01*
G01*
X155294500Y-48484000D01*
G75*
G02*
X155119000Y-48308500I0J175500D01*
G01*
G37*
G36*
G01*
X66707000Y-50660500D02*
X66707000Y-50409500D01*
G75*
G02*
X66832500Y-50284000I125500J0D01*
G01*
X68158500Y-50284000D01*
G75*
G02*
X68284000Y-50409500I0J-125500D01*
G01*
X68284000Y-50660500D01*
G75*
G02*
X68158500Y-50786000I-125500J0D01*
G01*
X66832500Y-50786000D01*
G75*
G02*
X66707000Y-50660500I0J125500D01*
G01*
G37*
G36*
G01*
X66707000Y-50010500D02*
X66707000Y-49759500D01*
G75*
G02*
X66832500Y-49634000I125500J0D01*
G01*
X68158500Y-49634000D01*
G75*
G02*
X68284000Y-49759500I0J-125500D01*
G01*
X68284000Y-50010500D01*
G75*
G02*
X68158500Y-50136000I-125500J0D01*
G01*
X66832500Y-50136000D01*
G75*
G02*
X66707000Y-50010500I0J125500D01*
G01*
G37*
G36*
G01*
X66707000Y-49360500D02*
X66707000Y-49109500D01*
G75*
G02*
X66832500Y-48984000I125500J0D01*
G01*
X68158500Y-48984000D01*
G75*
G02*
X68284000Y-49109500I0J-125500D01*
G01*
X68284000Y-49360500D01*
G75*
G02*
X68158500Y-49486000I-125500J0D01*
G01*
X66832500Y-49486000D01*
G75*
G02*
X66707000Y-49360500I0J125500D01*
G01*
G37*
G36*
G01*
X66707000Y-48710500D02*
X66707000Y-48459500D01*
G75*
G02*
X66832500Y-48334000I125500J0D01*
G01*
X68158500Y-48334000D01*
G75*
G02*
X68284000Y-48459500I0J-125500D01*
G01*
X68284000Y-48710500D01*
G75*
G02*
X68158500Y-48836000I-125500J0D01*
G01*
X66832500Y-48836000D01*
G75*
G02*
X66707000Y-48710500I0J125500D01*
G01*
G37*
G36*
G01*
X66707000Y-48060500D02*
X66707000Y-47809500D01*
G75*
G02*
X66832500Y-47684000I125500J0D01*
G01*
X68158500Y-47684000D01*
G75*
G02*
X68284000Y-47809500I0J-125500D01*
G01*
X68284000Y-48060500D01*
G75*
G02*
X68158500Y-48186000I-125500J0D01*
G01*
X66832500Y-48186000D01*
G75*
G02*
X66707000Y-48060500I0J125500D01*
G01*
G37*
G36*
G01*
X66707000Y-47410500D02*
X66707000Y-47159500D01*
G75*
G02*
X66832500Y-47034000I125500J0D01*
G01*
X68158500Y-47034000D01*
G75*
G02*
X68284000Y-47159500I0J-125500D01*
G01*
X68284000Y-47410500D01*
G75*
G02*
X68158500Y-47536000I-125500J0D01*
G01*
X66832500Y-47536000D01*
G75*
G02*
X66707000Y-47410500I0J125500D01*
G01*
G37*
G36*
G01*
X66707000Y-46760500D02*
X66707000Y-46509500D01*
G75*
G02*
X66832500Y-46384000I125500J0D01*
G01*
X68158500Y-46384000D01*
G75*
G02*
X68284000Y-46509500I0J-125500D01*
G01*
X68284000Y-46760500D01*
G75*
G02*
X68158500Y-46886000I-125500J0D01*
G01*
X66832500Y-46886000D01*
G75*
G02*
X66707000Y-46760500I0J125500D01*
G01*
G37*
G36*
G01*
X66707000Y-46110500D02*
X66707000Y-45859500D01*
G75*
G02*
X66832500Y-45734000I125500J0D01*
G01*
X68158500Y-45734000D01*
G75*
G02*
X68284000Y-45859500I0J-125500D01*
G01*
X68284000Y-46110500D01*
G75*
G02*
X68158500Y-46236000I-125500J0D01*
G01*
X66832500Y-46236000D01*
G75*
G02*
X66707000Y-46110500I0J125500D01*
G01*
G37*
G36*
G01*
X72432000Y-46110500D02*
X72432000Y-45859500D01*
G75*
G02*
X72557500Y-45734000I125500J0D01*
G01*
X73883500Y-45734000D01*
G75*
G02*
X74009000Y-45859500I0J-125500D01*
G01*
X74009000Y-46110500D01*
G75*
G02*
X73883500Y-46236000I-125500J0D01*
G01*
X72557500Y-46236000D01*
G75*
G02*
X72432000Y-46110500I0J125500D01*
G01*
G37*
G36*
G01*
X72432000Y-46760500D02*
X72432000Y-46509500D01*
G75*
G02*
X72557500Y-46384000I125500J0D01*
G01*
X73883500Y-46384000D01*
G75*
G02*
X74009000Y-46509500I0J-125500D01*
G01*
X74009000Y-46760500D01*
G75*
G02*
X73883500Y-46886000I-125500J0D01*
G01*
X72557500Y-46886000D01*
G75*
G02*
X72432000Y-46760500I0J125500D01*
G01*
G37*
G36*
G01*
X72432000Y-47410500D02*
X72432000Y-47159500D01*
G75*
G02*
X72557500Y-47034000I125500J0D01*
G01*
X73883500Y-47034000D01*
G75*
G02*
X74009000Y-47159500I0J-125500D01*
G01*
X74009000Y-47410500D01*
G75*
G02*
X73883500Y-47536000I-125500J0D01*
G01*
X72557500Y-47536000D01*
G75*
G02*
X72432000Y-47410500I0J125500D01*
G01*
G37*
G36*
G01*
X72432000Y-48060500D02*
X72432000Y-47809500D01*
G75*
G02*
X72557500Y-47684000I125500J0D01*
G01*
X73883500Y-47684000D01*
G75*
G02*
X74009000Y-47809500I0J-125500D01*
G01*
X74009000Y-48060500D01*
G75*
G02*
X73883500Y-48186000I-125500J0D01*
G01*
X72557500Y-48186000D01*
G75*
G02*
X72432000Y-48060500I0J125500D01*
G01*
G37*
G36*
G01*
X72432000Y-48710500D02*
X72432000Y-48459500D01*
G75*
G02*
X72557500Y-48334000I125500J0D01*
G01*
X73883500Y-48334000D01*
G75*
G02*
X74009000Y-48459500I0J-125500D01*
G01*
X74009000Y-48710500D01*
G75*
G02*
X73883500Y-48836000I-125500J0D01*
G01*
X72557500Y-48836000D01*
G75*
G02*
X72432000Y-48710500I0J125500D01*
G01*
G37*
G36*
G01*
X72432000Y-49360500D02*
X72432000Y-49109500D01*
G75*
G02*
X72557500Y-48984000I125500J0D01*
G01*
X73883500Y-48984000D01*
G75*
G02*
X74009000Y-49109500I0J-125500D01*
G01*
X74009000Y-49360500D01*
G75*
G02*
X73883500Y-49486000I-125500J0D01*
G01*
X72557500Y-49486000D01*
G75*
G02*
X72432000Y-49360500I0J125500D01*
G01*
G37*
G36*
G01*
X72432000Y-50010500D02*
X72432000Y-49759500D01*
G75*
G02*
X72557500Y-49634000I125500J0D01*
G01*
X73883500Y-49634000D01*
G75*
G02*
X74009000Y-49759500I0J-125500D01*
G01*
X74009000Y-50010500D01*
G75*
G02*
X73883500Y-50136000I-125500J0D01*
G01*
X72557500Y-50136000D01*
G75*
G02*
X72432000Y-50010500I0J125500D01*
G01*
G37*
G36*
G01*
X72432000Y-50660500D02*
X72432000Y-50409500D01*
G75*
G02*
X72557500Y-50284000I125500J0D01*
G01*
X73883500Y-50284000D01*
G75*
G02*
X74009000Y-50409500I0J-125500D01*
G01*
X74009000Y-50660500D01*
G75*
G02*
X73883500Y-50786000I-125500J0D01*
G01*
X72557500Y-50786000D01*
G75*
G02*
X72432000Y-50660500I0J125500D01*
G01*
G37*
G36*
G01*
X188119000Y-50152500D02*
X188119000Y-49901500D01*
G75*
G02*
X188244500Y-49776000I125500J0D01*
G01*
X189570500Y-49776000D01*
G75*
G02*
X189696000Y-49901500I0J-125500D01*
G01*
X189696000Y-50152500D01*
G75*
G02*
X189570500Y-50278000I-125500J0D01*
G01*
X188244500Y-50278000D01*
G75*
G02*
X188119000Y-50152500I0J125500D01*
G01*
G37*
G36*
G01*
X188119000Y-49502500D02*
X188119000Y-49251500D01*
G75*
G02*
X188244500Y-49126000I125500J0D01*
G01*
X189570500Y-49126000D01*
G75*
G02*
X189696000Y-49251500I0J-125500D01*
G01*
X189696000Y-49502500D01*
G75*
G02*
X189570500Y-49628000I-125500J0D01*
G01*
X188244500Y-49628000D01*
G75*
G02*
X188119000Y-49502500I0J125500D01*
G01*
G37*
G36*
G01*
X188119000Y-48852500D02*
X188119000Y-48601500D01*
G75*
G02*
X188244500Y-48476000I125500J0D01*
G01*
X189570500Y-48476000D01*
G75*
G02*
X189696000Y-48601500I0J-125500D01*
G01*
X189696000Y-48852500D01*
G75*
G02*
X189570500Y-48978000I-125500J0D01*
G01*
X188244500Y-48978000D01*
G75*
G02*
X188119000Y-48852500I0J125500D01*
G01*
G37*
G36*
G01*
X188119000Y-48202500D02*
X188119000Y-47951500D01*
G75*
G02*
X188244500Y-47826000I125500J0D01*
G01*
X189570500Y-47826000D01*
G75*
G02*
X189696000Y-47951500I0J-125500D01*
G01*
X189696000Y-48202500D01*
G75*
G02*
X189570500Y-48328000I-125500J0D01*
G01*
X188244500Y-48328000D01*
G75*
G02*
X188119000Y-48202500I0J125500D01*
G01*
G37*
G36*
G01*
X188119000Y-47552500D02*
X188119000Y-47301500D01*
G75*
G02*
X188244500Y-47176000I125500J0D01*
G01*
X189570500Y-47176000D01*
G75*
G02*
X189696000Y-47301500I0J-125500D01*
G01*
X189696000Y-47552500D01*
G75*
G02*
X189570500Y-47678000I-125500J0D01*
G01*
X188244500Y-47678000D01*
G75*
G02*
X188119000Y-47552500I0J125500D01*
G01*
G37*
G36*
G01*
X188119000Y-46902500D02*
X188119000Y-46651500D01*
G75*
G02*
X188244500Y-46526000I125500J0D01*
G01*
X189570500Y-46526000D01*
G75*
G02*
X189696000Y-46651500I0J-125500D01*
G01*
X189696000Y-46902500D01*
G75*
G02*
X189570500Y-47028000I-125500J0D01*
G01*
X188244500Y-47028000D01*
G75*
G02*
X188119000Y-46902500I0J125500D01*
G01*
G37*
G36*
G01*
X188119000Y-46252500D02*
X188119000Y-46001500D01*
G75*
G02*
X188244500Y-45876000I125500J0D01*
G01*
X189570500Y-45876000D01*
G75*
G02*
X189696000Y-46001500I0J-125500D01*
G01*
X189696000Y-46252500D01*
G75*
G02*
X189570500Y-46378000I-125500J0D01*
G01*
X188244500Y-46378000D01*
G75*
G02*
X188119000Y-46252500I0J125500D01*
G01*
G37*
G36*
G01*
X188119000Y-45602500D02*
X188119000Y-45351500D01*
G75*
G02*
X188244500Y-45226000I125500J0D01*
G01*
X189570500Y-45226000D01*
G75*
G02*
X189696000Y-45351500I0J-125500D01*
G01*
X189696000Y-45602500D01*
G75*
G02*
X189570500Y-45728000I-125500J0D01*
G01*
X188244500Y-45728000D01*
G75*
G02*
X188119000Y-45602500I0J125500D01*
G01*
G37*
G36*
G01*
X193844000Y-45602500D02*
X193844000Y-45351500D01*
G75*
G02*
X193969500Y-45226000I125500J0D01*
G01*
X195295500Y-45226000D01*
G75*
G02*
X195421000Y-45351500I0J-125500D01*
G01*
X195421000Y-45602500D01*
G75*
G02*
X195295500Y-45728000I-125500J0D01*
G01*
X193969500Y-45728000D01*
G75*
G02*
X193844000Y-45602500I0J125500D01*
G01*
G37*
G36*
G01*
X193844000Y-46252500D02*
X193844000Y-46001500D01*
G75*
G02*
X193969500Y-45876000I125500J0D01*
G01*
X195295500Y-45876000D01*
G75*
G02*
X195421000Y-46001500I0J-125500D01*
G01*
X195421000Y-46252500D01*
G75*
G02*
X195295500Y-46378000I-125500J0D01*
G01*
X193969500Y-46378000D01*
G75*
G02*
X193844000Y-46252500I0J125500D01*
G01*
G37*
G36*
G01*
X193844000Y-46902500D02*
X193844000Y-46651500D01*
G75*
G02*
X193969500Y-46526000I125500J0D01*
G01*
X195295500Y-46526000D01*
G75*
G02*
X195421000Y-46651500I0J-125500D01*
G01*
X195421000Y-46902500D01*
G75*
G02*
X195295500Y-47028000I-125500J0D01*
G01*
X193969500Y-47028000D01*
G75*
G02*
X193844000Y-46902500I0J125500D01*
G01*
G37*
G36*
G01*
X193844000Y-47552500D02*
X193844000Y-47301500D01*
G75*
G02*
X193969500Y-47176000I125500J0D01*
G01*
X195295500Y-47176000D01*
G75*
G02*
X195421000Y-47301500I0J-125500D01*
G01*
X195421000Y-47552500D01*
G75*
G02*
X195295500Y-47678000I-125500J0D01*
G01*
X193969500Y-47678000D01*
G75*
G02*
X193844000Y-47552500I0J125500D01*
G01*
G37*
G36*
G01*
X193844000Y-48202500D02*
X193844000Y-47951500D01*
G75*
G02*
X193969500Y-47826000I125500J0D01*
G01*
X195295500Y-47826000D01*
G75*
G02*
X195421000Y-47951500I0J-125500D01*
G01*
X195421000Y-48202500D01*
G75*
G02*
X195295500Y-48328000I-125500J0D01*
G01*
X193969500Y-48328000D01*
G75*
G02*
X193844000Y-48202500I0J125500D01*
G01*
G37*
G36*
G01*
X193844000Y-48852500D02*
X193844000Y-48601500D01*
G75*
G02*
X193969500Y-48476000I125500J0D01*
G01*
X195295500Y-48476000D01*
G75*
G02*
X195421000Y-48601500I0J-125500D01*
G01*
X195421000Y-48852500D01*
G75*
G02*
X195295500Y-48978000I-125500J0D01*
G01*
X193969500Y-48978000D01*
G75*
G02*
X193844000Y-48852500I0J125500D01*
G01*
G37*
G36*
G01*
X193844000Y-49502500D02*
X193844000Y-49251500D01*
G75*
G02*
X193969500Y-49126000I125500J0D01*
G01*
X195295500Y-49126000D01*
G75*
G02*
X195421000Y-49251500I0J-125500D01*
G01*
X195421000Y-49502500D01*
G75*
G02*
X195295500Y-49628000I-125500J0D01*
G01*
X193969500Y-49628000D01*
G75*
G02*
X193844000Y-49502500I0J125500D01*
G01*
G37*
G36*
G01*
X193844000Y-50152500D02*
X193844000Y-49901500D01*
G75*
G02*
X193969500Y-49776000I125500J0D01*
G01*
X195295500Y-49776000D01*
G75*
G02*
X195421000Y-49901500I0J-125500D01*
G01*
X195421000Y-50152500D01*
G75*
G02*
X195295500Y-50278000I-125500J0D01*
G01*
X193969500Y-50278000D01*
G75*
G02*
X193844000Y-50152500I0J125500D01*
G01*
G37*
G36*
G01*
X91736000Y-50914500D02*
X91736000Y-50663500D01*
G75*
G02*
X91861500Y-50538000I125500J0D01*
G01*
X93187500Y-50538000D01*
G75*
G02*
X93313000Y-50663500I0J-125500D01*
G01*
X93313000Y-50914500D01*
G75*
G02*
X93187500Y-51040000I-125500J0D01*
G01*
X91861500Y-51040000D01*
G75*
G02*
X91736000Y-50914500I0J125500D01*
G01*
G37*
G36*
G01*
X91736000Y-50264500D02*
X91736000Y-50013500D01*
G75*
G02*
X91861500Y-49888000I125500J0D01*
G01*
X93187500Y-49888000D01*
G75*
G02*
X93313000Y-50013500I0J-125500D01*
G01*
X93313000Y-50264500D01*
G75*
G02*
X93187500Y-50390000I-125500J0D01*
G01*
X91861500Y-50390000D01*
G75*
G02*
X91736000Y-50264500I0J125500D01*
G01*
G37*
G36*
G01*
X91736000Y-49614500D02*
X91736000Y-49363500D01*
G75*
G02*
X91861500Y-49238000I125500J0D01*
G01*
X93187500Y-49238000D01*
G75*
G02*
X93313000Y-49363500I0J-125500D01*
G01*
X93313000Y-49614500D01*
G75*
G02*
X93187500Y-49740000I-125500J0D01*
G01*
X91861500Y-49740000D01*
G75*
G02*
X91736000Y-49614500I0J125500D01*
G01*
G37*
G36*
G01*
X91736000Y-48964500D02*
X91736000Y-48713500D01*
G75*
G02*
X91861500Y-48588000I125500J0D01*
G01*
X93187500Y-48588000D01*
G75*
G02*
X93313000Y-48713500I0J-125500D01*
G01*
X93313000Y-48964500D01*
G75*
G02*
X93187500Y-49090000I-125500J0D01*
G01*
X91861500Y-49090000D01*
G75*
G02*
X91736000Y-48964500I0J125500D01*
G01*
G37*
G36*
G01*
X91736000Y-48314500D02*
X91736000Y-48063500D01*
G75*
G02*
X91861500Y-47938000I125500J0D01*
G01*
X93187500Y-47938000D01*
G75*
G02*
X93313000Y-48063500I0J-125500D01*
G01*
X93313000Y-48314500D01*
G75*
G02*
X93187500Y-48440000I-125500J0D01*
G01*
X91861500Y-48440000D01*
G75*
G02*
X91736000Y-48314500I0J125500D01*
G01*
G37*
G36*
G01*
X91736000Y-47664500D02*
X91736000Y-47413500D01*
G75*
G02*
X91861500Y-47288000I125500J0D01*
G01*
X93187500Y-47288000D01*
G75*
G02*
X93313000Y-47413500I0J-125500D01*
G01*
X93313000Y-47664500D01*
G75*
G02*
X93187500Y-47790000I-125500J0D01*
G01*
X91861500Y-47790000D01*
G75*
G02*
X91736000Y-47664500I0J125500D01*
G01*
G37*
G36*
G01*
X91736000Y-47014500D02*
X91736000Y-46763500D01*
G75*
G02*
X91861500Y-46638000I125500J0D01*
G01*
X93187500Y-46638000D01*
G75*
G02*
X93313000Y-46763500I0J-125500D01*
G01*
X93313000Y-47014500D01*
G75*
G02*
X93187500Y-47140000I-125500J0D01*
G01*
X91861500Y-47140000D01*
G75*
G02*
X91736000Y-47014500I0J125500D01*
G01*
G37*
G36*
G01*
X91736000Y-46364500D02*
X91736000Y-46113500D01*
G75*
G02*
X91861500Y-45988000I125500J0D01*
G01*
X93187500Y-45988000D01*
G75*
G02*
X93313000Y-46113500I0J-125500D01*
G01*
X93313000Y-46364500D01*
G75*
G02*
X93187500Y-46490000I-125500J0D01*
G01*
X91861500Y-46490000D01*
G75*
G02*
X91736000Y-46364500I0J125500D01*
G01*
G37*
G36*
G01*
X86011000Y-46364500D02*
X86011000Y-46113500D01*
G75*
G02*
X86136500Y-45988000I125500J0D01*
G01*
X87462500Y-45988000D01*
G75*
G02*
X87588000Y-46113500I0J-125500D01*
G01*
X87588000Y-46364500D01*
G75*
G02*
X87462500Y-46490000I-125500J0D01*
G01*
X86136500Y-46490000D01*
G75*
G02*
X86011000Y-46364500I0J125500D01*
G01*
G37*
G36*
G01*
X86011000Y-47014500D02*
X86011000Y-46763500D01*
G75*
G02*
X86136500Y-46638000I125500J0D01*
G01*
X87462500Y-46638000D01*
G75*
G02*
X87588000Y-46763500I0J-125500D01*
G01*
X87588000Y-47014500D01*
G75*
G02*
X87462500Y-47140000I-125500J0D01*
G01*
X86136500Y-47140000D01*
G75*
G02*
X86011000Y-47014500I0J125500D01*
G01*
G37*
G36*
G01*
X86011000Y-47664500D02*
X86011000Y-47413500D01*
G75*
G02*
X86136500Y-47288000I125500J0D01*
G01*
X87462500Y-47288000D01*
G75*
G02*
X87588000Y-47413500I0J-125500D01*
G01*
X87588000Y-47664500D01*
G75*
G02*
X87462500Y-47790000I-125500J0D01*
G01*
X86136500Y-47790000D01*
G75*
G02*
X86011000Y-47664500I0J125500D01*
G01*
G37*
G36*
G01*
X86011000Y-48314500D02*
X86011000Y-48063500D01*
G75*
G02*
X86136500Y-47938000I125500J0D01*
G01*
X87462500Y-47938000D01*
G75*
G02*
X87588000Y-48063500I0J-125500D01*
G01*
X87588000Y-48314500D01*
G75*
G02*
X87462500Y-48440000I-125500J0D01*
G01*
X86136500Y-48440000D01*
G75*
G02*
X86011000Y-48314500I0J125500D01*
G01*
G37*
G36*
G01*
X86011000Y-48964500D02*
X86011000Y-48713500D01*
G75*
G02*
X86136500Y-48588000I125500J0D01*
G01*
X87462500Y-48588000D01*
G75*
G02*
X87588000Y-48713500I0J-125500D01*
G01*
X87588000Y-48964500D01*
G75*
G02*
X87462500Y-49090000I-125500J0D01*
G01*
X86136500Y-49090000D01*
G75*
G02*
X86011000Y-48964500I0J125500D01*
G01*
G37*
G36*
G01*
X86011000Y-49614500D02*
X86011000Y-49363500D01*
G75*
G02*
X86136500Y-49238000I125500J0D01*
G01*
X87462500Y-49238000D01*
G75*
G02*
X87588000Y-49363500I0J-125500D01*
G01*
X87588000Y-49614500D01*
G75*
G02*
X87462500Y-49740000I-125500J0D01*
G01*
X86136500Y-49740000D01*
G75*
G02*
X86011000Y-49614500I0J125500D01*
G01*
G37*
G36*
G01*
X86011000Y-50264500D02*
X86011000Y-50013500D01*
G75*
G02*
X86136500Y-49888000I125500J0D01*
G01*
X87462500Y-49888000D01*
G75*
G02*
X87588000Y-50013500I0J-125500D01*
G01*
X87588000Y-50264500D01*
G75*
G02*
X87462500Y-50390000I-125500J0D01*
G01*
X86136500Y-50390000D01*
G75*
G02*
X86011000Y-50264500I0J125500D01*
G01*
G37*
G36*
G01*
X86011000Y-50914500D02*
X86011000Y-50663500D01*
G75*
G02*
X86136500Y-50538000I125500J0D01*
G01*
X87462500Y-50538000D01*
G75*
G02*
X87588000Y-50663500I0J-125500D01*
G01*
X87588000Y-50914500D01*
G75*
G02*
X87462500Y-51040000I-125500J0D01*
G01*
X86136500Y-51040000D01*
G75*
G02*
X86011000Y-50914500I0J125500D01*
G01*
G37*
G36*
G01*
X215434000Y-50152500D02*
X215434000Y-49901500D01*
G75*
G02*
X215559500Y-49776000I125500J0D01*
G01*
X216885500Y-49776000D01*
G75*
G02*
X217011000Y-49901500I0J-125500D01*
G01*
X217011000Y-50152500D01*
G75*
G02*
X216885500Y-50278000I-125500J0D01*
G01*
X215559500Y-50278000D01*
G75*
G02*
X215434000Y-50152500I0J125500D01*
G01*
G37*
G36*
G01*
X215434000Y-49502500D02*
X215434000Y-49251500D01*
G75*
G02*
X215559500Y-49126000I125500J0D01*
G01*
X216885500Y-49126000D01*
G75*
G02*
X217011000Y-49251500I0J-125500D01*
G01*
X217011000Y-49502500D01*
G75*
G02*
X216885500Y-49628000I-125500J0D01*
G01*
X215559500Y-49628000D01*
G75*
G02*
X215434000Y-49502500I0J125500D01*
G01*
G37*
G36*
G01*
X215434000Y-48852500D02*
X215434000Y-48601500D01*
G75*
G02*
X215559500Y-48476000I125500J0D01*
G01*
X216885500Y-48476000D01*
G75*
G02*
X217011000Y-48601500I0J-125500D01*
G01*
X217011000Y-48852500D01*
G75*
G02*
X216885500Y-48978000I-125500J0D01*
G01*
X215559500Y-48978000D01*
G75*
G02*
X215434000Y-48852500I0J125500D01*
G01*
G37*
G36*
G01*
X215434000Y-48202500D02*
X215434000Y-47951500D01*
G75*
G02*
X215559500Y-47826000I125500J0D01*
G01*
X216885500Y-47826000D01*
G75*
G02*
X217011000Y-47951500I0J-125500D01*
G01*
X217011000Y-48202500D01*
G75*
G02*
X216885500Y-48328000I-125500J0D01*
G01*
X215559500Y-48328000D01*
G75*
G02*
X215434000Y-48202500I0J125500D01*
G01*
G37*
G36*
G01*
X215434000Y-47552500D02*
X215434000Y-47301500D01*
G75*
G02*
X215559500Y-47176000I125500J0D01*
G01*
X216885500Y-47176000D01*
G75*
G02*
X217011000Y-47301500I0J-125500D01*
G01*
X217011000Y-47552500D01*
G75*
G02*
X216885500Y-47678000I-125500J0D01*
G01*
X215559500Y-47678000D01*
G75*
G02*
X215434000Y-47552500I0J125500D01*
G01*
G37*
G36*
G01*
X215434000Y-46902500D02*
X215434000Y-46651500D01*
G75*
G02*
X215559500Y-46526000I125500J0D01*
G01*
X216885500Y-46526000D01*
G75*
G02*
X217011000Y-46651500I0J-125500D01*
G01*
X217011000Y-46902500D01*
G75*
G02*
X216885500Y-47028000I-125500J0D01*
G01*
X215559500Y-47028000D01*
G75*
G02*
X215434000Y-46902500I0J125500D01*
G01*
G37*
G36*
G01*
X215434000Y-46252500D02*
X215434000Y-46001500D01*
G75*
G02*
X215559500Y-45876000I125500J0D01*
G01*
X216885500Y-45876000D01*
G75*
G02*
X217011000Y-46001500I0J-125500D01*
G01*
X217011000Y-46252500D01*
G75*
G02*
X216885500Y-46378000I-125500J0D01*
G01*
X215559500Y-46378000D01*
G75*
G02*
X215434000Y-46252500I0J125500D01*
G01*
G37*
G36*
G01*
X215434000Y-45602500D02*
X215434000Y-45351500D01*
G75*
G02*
X215559500Y-45226000I125500J0D01*
G01*
X216885500Y-45226000D01*
G75*
G02*
X217011000Y-45351500I0J-125500D01*
G01*
X217011000Y-45602500D01*
G75*
G02*
X216885500Y-45728000I-125500J0D01*
G01*
X215559500Y-45728000D01*
G75*
G02*
X215434000Y-45602500I0J125500D01*
G01*
G37*
G36*
G01*
X209709000Y-45602500D02*
X209709000Y-45351500D01*
G75*
G02*
X209834500Y-45226000I125500J0D01*
G01*
X211160500Y-45226000D01*
G75*
G02*
X211286000Y-45351500I0J-125500D01*
G01*
X211286000Y-45602500D01*
G75*
G02*
X211160500Y-45728000I-125500J0D01*
G01*
X209834500Y-45728000D01*
G75*
G02*
X209709000Y-45602500I0J125500D01*
G01*
G37*
G36*
G01*
X209709000Y-46252500D02*
X209709000Y-46001500D01*
G75*
G02*
X209834500Y-45876000I125500J0D01*
G01*
X211160500Y-45876000D01*
G75*
G02*
X211286000Y-46001500I0J-125500D01*
G01*
X211286000Y-46252500D01*
G75*
G02*
X211160500Y-46378000I-125500J0D01*
G01*
X209834500Y-46378000D01*
G75*
G02*
X209709000Y-46252500I0J125500D01*
G01*
G37*
G36*
G01*
X209709000Y-46902500D02*
X209709000Y-46651500D01*
G75*
G02*
X209834500Y-46526000I125500J0D01*
G01*
X211160500Y-46526000D01*
G75*
G02*
X211286000Y-46651500I0J-125500D01*
G01*
X211286000Y-46902500D01*
G75*
G02*
X211160500Y-47028000I-125500J0D01*
G01*
X209834500Y-47028000D01*
G75*
G02*
X209709000Y-46902500I0J125500D01*
G01*
G37*
G36*
G01*
X209709000Y-47552500D02*
X209709000Y-47301500D01*
G75*
G02*
X209834500Y-47176000I125500J0D01*
G01*
X211160500Y-47176000D01*
G75*
G02*
X211286000Y-47301500I0J-125500D01*
G01*
X211286000Y-47552500D01*
G75*
G02*
X211160500Y-47678000I-125500J0D01*
G01*
X209834500Y-47678000D01*
G75*
G02*
X209709000Y-47552500I0J125500D01*
G01*
G37*
G36*
G01*
X209709000Y-48202500D02*
X209709000Y-47951500D01*
G75*
G02*
X209834500Y-47826000I125500J0D01*
G01*
X211160500Y-47826000D01*
G75*
G02*
X211286000Y-47951500I0J-125500D01*
G01*
X211286000Y-48202500D01*
G75*
G02*
X211160500Y-48328000I-125500J0D01*
G01*
X209834500Y-48328000D01*
G75*
G02*
X209709000Y-48202500I0J125500D01*
G01*
G37*
G36*
G01*
X209709000Y-48852500D02*
X209709000Y-48601500D01*
G75*
G02*
X209834500Y-48476000I125500J0D01*
G01*
X211160500Y-48476000D01*
G75*
G02*
X211286000Y-48601500I0J-125500D01*
G01*
X211286000Y-48852500D01*
G75*
G02*
X211160500Y-48978000I-125500J0D01*
G01*
X209834500Y-48978000D01*
G75*
G02*
X209709000Y-48852500I0J125500D01*
G01*
G37*
G36*
G01*
X209709000Y-49502500D02*
X209709000Y-49251500D01*
G75*
G02*
X209834500Y-49126000I125500J0D01*
G01*
X211160500Y-49126000D01*
G75*
G02*
X211286000Y-49251500I0J-125500D01*
G01*
X211286000Y-49502500D01*
G75*
G02*
X211160500Y-49628000I-125500J0D01*
G01*
X209834500Y-49628000D01*
G75*
G02*
X209709000Y-49502500I0J125500D01*
G01*
G37*
G36*
G01*
X209709000Y-50152500D02*
X209709000Y-49901500D01*
G75*
G02*
X209834500Y-49776000I125500J0D01*
G01*
X211160500Y-49776000D01*
G75*
G02*
X211286000Y-49901500I0J-125500D01*
G01*
X211286000Y-50152500D01*
G75*
G02*
X211160500Y-50278000I-125500J0D01*
G01*
X209834500Y-50278000D01*
G75*
G02*
X209709000Y-50152500I0J125500D01*
G01*
G37*
G36*
G01*
X76867000Y-83568500D02*
X76867000Y-83317500D01*
G75*
G02*
X76992500Y-83192000I125500J0D01*
G01*
X78318500Y-83192000D01*
G75*
G02*
X78444000Y-83317500I0J-125500D01*
G01*
X78444000Y-83568500D01*
G75*
G02*
X78318500Y-83694000I-125500J0D01*
G01*
X76992500Y-83694000D01*
G75*
G02*
X76867000Y-83568500I0J125500D01*
G01*
G37*
G36*
G01*
X76867000Y-82918500D02*
X76867000Y-82667500D01*
G75*
G02*
X76992500Y-82542000I125500J0D01*
G01*
X78318500Y-82542000D01*
G75*
G02*
X78444000Y-82667500I0J-125500D01*
G01*
X78444000Y-82918500D01*
G75*
G02*
X78318500Y-83044000I-125500J0D01*
G01*
X76992500Y-83044000D01*
G75*
G02*
X76867000Y-82918500I0J125500D01*
G01*
G37*
G36*
G01*
X76867000Y-82268500D02*
X76867000Y-82017500D01*
G75*
G02*
X76992500Y-81892000I125500J0D01*
G01*
X78318500Y-81892000D01*
G75*
G02*
X78444000Y-82017500I0J-125500D01*
G01*
X78444000Y-82268500D01*
G75*
G02*
X78318500Y-82394000I-125500J0D01*
G01*
X76992500Y-82394000D01*
G75*
G02*
X76867000Y-82268500I0J125500D01*
G01*
G37*
G36*
G01*
X76867000Y-81618500D02*
X76867000Y-81367500D01*
G75*
G02*
X76992500Y-81242000I125500J0D01*
G01*
X78318500Y-81242000D01*
G75*
G02*
X78444000Y-81367500I0J-125500D01*
G01*
X78444000Y-81618500D01*
G75*
G02*
X78318500Y-81744000I-125500J0D01*
G01*
X76992500Y-81744000D01*
G75*
G02*
X76867000Y-81618500I0J125500D01*
G01*
G37*
G36*
G01*
X76867000Y-80968500D02*
X76867000Y-80717500D01*
G75*
G02*
X76992500Y-80592000I125500J0D01*
G01*
X78318500Y-80592000D01*
G75*
G02*
X78444000Y-80717500I0J-125500D01*
G01*
X78444000Y-80968500D01*
G75*
G02*
X78318500Y-81094000I-125500J0D01*
G01*
X76992500Y-81094000D01*
G75*
G02*
X76867000Y-80968500I0J125500D01*
G01*
G37*
G36*
G01*
X76867000Y-80318500D02*
X76867000Y-80067500D01*
G75*
G02*
X76992500Y-79942000I125500J0D01*
G01*
X78318500Y-79942000D01*
G75*
G02*
X78444000Y-80067500I0J-125500D01*
G01*
X78444000Y-80318500D01*
G75*
G02*
X78318500Y-80444000I-125500J0D01*
G01*
X76992500Y-80444000D01*
G75*
G02*
X76867000Y-80318500I0J125500D01*
G01*
G37*
G36*
G01*
X76867000Y-79668500D02*
X76867000Y-79417500D01*
G75*
G02*
X76992500Y-79292000I125500J0D01*
G01*
X78318500Y-79292000D01*
G75*
G02*
X78444000Y-79417500I0J-125500D01*
G01*
X78444000Y-79668500D01*
G75*
G02*
X78318500Y-79794000I-125500J0D01*
G01*
X76992500Y-79794000D01*
G75*
G02*
X76867000Y-79668500I0J125500D01*
G01*
G37*
G36*
G01*
X76867000Y-79018500D02*
X76867000Y-78767500D01*
G75*
G02*
X76992500Y-78642000I125500J0D01*
G01*
X78318500Y-78642000D01*
G75*
G02*
X78444000Y-78767500I0J-125500D01*
G01*
X78444000Y-79018500D01*
G75*
G02*
X78318500Y-79144000I-125500J0D01*
G01*
X76992500Y-79144000D01*
G75*
G02*
X76867000Y-79018500I0J125500D01*
G01*
G37*
G36*
G01*
X76867000Y-78368500D02*
X76867000Y-78117500D01*
G75*
G02*
X76992500Y-77992000I125500J0D01*
G01*
X78318500Y-77992000D01*
G75*
G02*
X78444000Y-78117500I0J-125500D01*
G01*
X78444000Y-78368500D01*
G75*
G02*
X78318500Y-78494000I-125500J0D01*
G01*
X76992500Y-78494000D01*
G75*
G02*
X76867000Y-78368500I0J125500D01*
G01*
G37*
G36*
G01*
X76867000Y-77718500D02*
X76867000Y-77467500D01*
G75*
G02*
X76992500Y-77342000I125500J0D01*
G01*
X78318500Y-77342000D01*
G75*
G02*
X78444000Y-77467500I0J-125500D01*
G01*
X78444000Y-77718500D01*
G75*
G02*
X78318500Y-77844000I-125500J0D01*
G01*
X76992500Y-77844000D01*
G75*
G02*
X76867000Y-77718500I0J125500D01*
G01*
G37*
G36*
G01*
X82592000Y-77718500D02*
X82592000Y-77467500D01*
G75*
G02*
X82717500Y-77342000I125500J0D01*
G01*
X84043500Y-77342000D01*
G75*
G02*
X84169000Y-77467500I0J-125500D01*
G01*
X84169000Y-77718500D01*
G75*
G02*
X84043500Y-77844000I-125500J0D01*
G01*
X82717500Y-77844000D01*
G75*
G02*
X82592000Y-77718500I0J125500D01*
G01*
G37*
G36*
G01*
X82592000Y-78368500D02*
X82592000Y-78117500D01*
G75*
G02*
X82717500Y-77992000I125500J0D01*
G01*
X84043500Y-77992000D01*
G75*
G02*
X84169000Y-78117500I0J-125500D01*
G01*
X84169000Y-78368500D01*
G75*
G02*
X84043500Y-78494000I-125500J0D01*
G01*
X82717500Y-78494000D01*
G75*
G02*
X82592000Y-78368500I0J125500D01*
G01*
G37*
G36*
G01*
X82592000Y-79018500D02*
X82592000Y-78767500D01*
G75*
G02*
X82717500Y-78642000I125500J0D01*
G01*
X84043500Y-78642000D01*
G75*
G02*
X84169000Y-78767500I0J-125500D01*
G01*
X84169000Y-79018500D01*
G75*
G02*
X84043500Y-79144000I-125500J0D01*
G01*
X82717500Y-79144000D01*
G75*
G02*
X82592000Y-79018500I0J125500D01*
G01*
G37*
G36*
G01*
X82592000Y-79668500D02*
X82592000Y-79417500D01*
G75*
G02*
X82717500Y-79292000I125500J0D01*
G01*
X84043500Y-79292000D01*
G75*
G02*
X84169000Y-79417500I0J-125500D01*
G01*
X84169000Y-79668500D01*
G75*
G02*
X84043500Y-79794000I-125500J0D01*
G01*
X82717500Y-79794000D01*
G75*
G02*
X82592000Y-79668500I0J125500D01*
G01*
G37*
G36*
G01*
X82592000Y-80318500D02*
X82592000Y-80067500D01*
G75*
G02*
X82717500Y-79942000I125500J0D01*
G01*
X84043500Y-79942000D01*
G75*
G02*
X84169000Y-80067500I0J-125500D01*
G01*
X84169000Y-80318500D01*
G75*
G02*
X84043500Y-80444000I-125500J0D01*
G01*
X82717500Y-80444000D01*
G75*
G02*
X82592000Y-80318500I0J125500D01*
G01*
G37*
G36*
G01*
X82592000Y-80968500D02*
X82592000Y-80717500D01*
G75*
G02*
X82717500Y-80592000I125500J0D01*
G01*
X84043500Y-80592000D01*
G75*
G02*
X84169000Y-80717500I0J-125500D01*
G01*
X84169000Y-80968500D01*
G75*
G02*
X84043500Y-81094000I-125500J0D01*
G01*
X82717500Y-81094000D01*
G75*
G02*
X82592000Y-80968500I0J125500D01*
G01*
G37*
G36*
G01*
X82592000Y-81618500D02*
X82592000Y-81367500D01*
G75*
G02*
X82717500Y-81242000I125500J0D01*
G01*
X84043500Y-81242000D01*
G75*
G02*
X84169000Y-81367500I0J-125500D01*
G01*
X84169000Y-81618500D01*
G75*
G02*
X84043500Y-81744000I-125500J0D01*
G01*
X82717500Y-81744000D01*
G75*
G02*
X82592000Y-81618500I0J125500D01*
G01*
G37*
G36*
G01*
X82592000Y-82268500D02*
X82592000Y-82017500D01*
G75*
G02*
X82717500Y-81892000I125500J0D01*
G01*
X84043500Y-81892000D01*
G75*
G02*
X84169000Y-82017500I0J-125500D01*
G01*
X84169000Y-82268500D01*
G75*
G02*
X84043500Y-82394000I-125500J0D01*
G01*
X82717500Y-82394000D01*
G75*
G02*
X82592000Y-82268500I0J125500D01*
G01*
G37*
G36*
G01*
X82592000Y-82918500D02*
X82592000Y-82667500D01*
G75*
G02*
X82717500Y-82542000I125500J0D01*
G01*
X84043500Y-82542000D01*
G75*
G02*
X84169000Y-82667500I0J-125500D01*
G01*
X84169000Y-82918500D01*
G75*
G02*
X84043500Y-83044000I-125500J0D01*
G01*
X82717500Y-83044000D01*
G75*
G02*
X82592000Y-82918500I0J125500D01*
G01*
G37*
G36*
G01*
X82592000Y-83568500D02*
X82592000Y-83317500D01*
G75*
G02*
X82717500Y-83192000I125500J0D01*
G01*
X84043500Y-83192000D01*
G75*
G02*
X84169000Y-83317500I0J-125500D01*
G01*
X84169000Y-83568500D01*
G75*
G02*
X84043500Y-83694000I-125500J0D01*
G01*
X82717500Y-83694000D01*
G75*
G02*
X82592000Y-83568500I0J125500D01*
G01*
G37*
G36*
G01*
X205645000Y-83568500D02*
X205645000Y-83317500D01*
G75*
G02*
X205770500Y-83192000I125500J0D01*
G01*
X207096500Y-83192000D01*
G75*
G02*
X207222000Y-83317500I0J-125500D01*
G01*
X207222000Y-83568500D01*
G75*
G02*
X207096500Y-83694000I-125500J0D01*
G01*
X205770500Y-83694000D01*
G75*
G02*
X205645000Y-83568500I0J125500D01*
G01*
G37*
G36*
G01*
X205645000Y-82918500D02*
X205645000Y-82667500D01*
G75*
G02*
X205770500Y-82542000I125500J0D01*
G01*
X207096500Y-82542000D01*
G75*
G02*
X207222000Y-82667500I0J-125500D01*
G01*
X207222000Y-82918500D01*
G75*
G02*
X207096500Y-83044000I-125500J0D01*
G01*
X205770500Y-83044000D01*
G75*
G02*
X205645000Y-82918500I0J125500D01*
G01*
G37*
G36*
G01*
X205645000Y-82268500D02*
X205645000Y-82017500D01*
G75*
G02*
X205770500Y-81892000I125500J0D01*
G01*
X207096500Y-81892000D01*
G75*
G02*
X207222000Y-82017500I0J-125500D01*
G01*
X207222000Y-82268500D01*
G75*
G02*
X207096500Y-82394000I-125500J0D01*
G01*
X205770500Y-82394000D01*
G75*
G02*
X205645000Y-82268500I0J125500D01*
G01*
G37*
G36*
G01*
X205645000Y-81618500D02*
X205645000Y-81367500D01*
G75*
G02*
X205770500Y-81242000I125500J0D01*
G01*
X207096500Y-81242000D01*
G75*
G02*
X207222000Y-81367500I0J-125500D01*
G01*
X207222000Y-81618500D01*
G75*
G02*
X207096500Y-81744000I-125500J0D01*
G01*
X205770500Y-81744000D01*
G75*
G02*
X205645000Y-81618500I0J125500D01*
G01*
G37*
G36*
G01*
X205645000Y-80968500D02*
X205645000Y-80717500D01*
G75*
G02*
X205770500Y-80592000I125500J0D01*
G01*
X207096500Y-80592000D01*
G75*
G02*
X207222000Y-80717500I0J-125500D01*
G01*
X207222000Y-80968500D01*
G75*
G02*
X207096500Y-81094000I-125500J0D01*
G01*
X205770500Y-81094000D01*
G75*
G02*
X205645000Y-80968500I0J125500D01*
G01*
G37*
G36*
G01*
X205645000Y-80318500D02*
X205645000Y-80067500D01*
G75*
G02*
X205770500Y-79942000I125500J0D01*
G01*
X207096500Y-79942000D01*
G75*
G02*
X207222000Y-80067500I0J-125500D01*
G01*
X207222000Y-80318500D01*
G75*
G02*
X207096500Y-80444000I-125500J0D01*
G01*
X205770500Y-80444000D01*
G75*
G02*
X205645000Y-80318500I0J125500D01*
G01*
G37*
G36*
G01*
X205645000Y-79668500D02*
X205645000Y-79417500D01*
G75*
G02*
X205770500Y-79292000I125500J0D01*
G01*
X207096500Y-79292000D01*
G75*
G02*
X207222000Y-79417500I0J-125500D01*
G01*
X207222000Y-79668500D01*
G75*
G02*
X207096500Y-79794000I-125500J0D01*
G01*
X205770500Y-79794000D01*
G75*
G02*
X205645000Y-79668500I0J125500D01*
G01*
G37*
G36*
G01*
X205645000Y-79018500D02*
X205645000Y-78767500D01*
G75*
G02*
X205770500Y-78642000I125500J0D01*
G01*
X207096500Y-78642000D01*
G75*
G02*
X207222000Y-78767500I0J-125500D01*
G01*
X207222000Y-79018500D01*
G75*
G02*
X207096500Y-79144000I-125500J0D01*
G01*
X205770500Y-79144000D01*
G75*
G02*
X205645000Y-79018500I0J125500D01*
G01*
G37*
G36*
G01*
X205645000Y-78368500D02*
X205645000Y-78117500D01*
G75*
G02*
X205770500Y-77992000I125500J0D01*
G01*
X207096500Y-77992000D01*
G75*
G02*
X207222000Y-78117500I0J-125500D01*
G01*
X207222000Y-78368500D01*
G75*
G02*
X207096500Y-78494000I-125500J0D01*
G01*
X205770500Y-78494000D01*
G75*
G02*
X205645000Y-78368500I0J125500D01*
G01*
G37*
G36*
G01*
X205645000Y-77718500D02*
X205645000Y-77467500D01*
G75*
G02*
X205770500Y-77342000I125500J0D01*
G01*
X207096500Y-77342000D01*
G75*
G02*
X207222000Y-77467500I0J-125500D01*
G01*
X207222000Y-77718500D01*
G75*
G02*
X207096500Y-77844000I-125500J0D01*
G01*
X205770500Y-77844000D01*
G75*
G02*
X205645000Y-77718500I0J125500D01*
G01*
G37*
G36*
G01*
X211370000Y-77718500D02*
X211370000Y-77467500D01*
G75*
G02*
X211495500Y-77342000I125500J0D01*
G01*
X212821500Y-77342000D01*
G75*
G02*
X212947000Y-77467500I0J-125500D01*
G01*
X212947000Y-77718500D01*
G75*
G02*
X212821500Y-77844000I-125500J0D01*
G01*
X211495500Y-77844000D01*
G75*
G02*
X211370000Y-77718500I0J125500D01*
G01*
G37*
G36*
G01*
X211370000Y-78368500D02*
X211370000Y-78117500D01*
G75*
G02*
X211495500Y-77992000I125500J0D01*
G01*
X212821500Y-77992000D01*
G75*
G02*
X212947000Y-78117500I0J-125500D01*
G01*
X212947000Y-78368500D01*
G75*
G02*
X212821500Y-78494000I-125500J0D01*
G01*
X211495500Y-78494000D01*
G75*
G02*
X211370000Y-78368500I0J125500D01*
G01*
G37*
G36*
G01*
X211370000Y-79018500D02*
X211370000Y-78767500D01*
G75*
G02*
X211495500Y-78642000I125500J0D01*
G01*
X212821500Y-78642000D01*
G75*
G02*
X212947000Y-78767500I0J-125500D01*
G01*
X212947000Y-79018500D01*
G75*
G02*
X212821500Y-79144000I-125500J0D01*
G01*
X211495500Y-79144000D01*
G75*
G02*
X211370000Y-79018500I0J125500D01*
G01*
G37*
G36*
G01*
X211370000Y-79668500D02*
X211370000Y-79417500D01*
G75*
G02*
X211495500Y-79292000I125500J0D01*
G01*
X212821500Y-79292000D01*
G75*
G02*
X212947000Y-79417500I0J-125500D01*
G01*
X212947000Y-79668500D01*
G75*
G02*
X212821500Y-79794000I-125500J0D01*
G01*
X211495500Y-79794000D01*
G75*
G02*
X211370000Y-79668500I0J125500D01*
G01*
G37*
G36*
G01*
X211370000Y-80318500D02*
X211370000Y-80067500D01*
G75*
G02*
X211495500Y-79942000I125500J0D01*
G01*
X212821500Y-79942000D01*
G75*
G02*
X212947000Y-80067500I0J-125500D01*
G01*
X212947000Y-80318500D01*
G75*
G02*
X212821500Y-80444000I-125500J0D01*
G01*
X211495500Y-80444000D01*
G75*
G02*
X211370000Y-80318500I0J125500D01*
G01*
G37*
G36*
G01*
X211370000Y-80968500D02*
X211370000Y-80717500D01*
G75*
G02*
X211495500Y-80592000I125500J0D01*
G01*
X212821500Y-80592000D01*
G75*
G02*
X212947000Y-80717500I0J-125500D01*
G01*
X212947000Y-80968500D01*
G75*
G02*
X212821500Y-81094000I-125500J0D01*
G01*
X211495500Y-81094000D01*
G75*
G02*
X211370000Y-80968500I0J125500D01*
G01*
G37*
G36*
G01*
X211370000Y-81618500D02*
X211370000Y-81367500D01*
G75*
G02*
X211495500Y-81242000I125500J0D01*
G01*
X212821500Y-81242000D01*
G75*
G02*
X212947000Y-81367500I0J-125500D01*
G01*
X212947000Y-81618500D01*
G75*
G02*
X212821500Y-81744000I-125500J0D01*
G01*
X211495500Y-81744000D01*
G75*
G02*
X211370000Y-81618500I0J125500D01*
G01*
G37*
G36*
G01*
X211370000Y-82268500D02*
X211370000Y-82017500D01*
G75*
G02*
X211495500Y-81892000I125500J0D01*
G01*
X212821500Y-81892000D01*
G75*
G02*
X212947000Y-82017500I0J-125500D01*
G01*
X212947000Y-82268500D01*
G75*
G02*
X212821500Y-82394000I-125500J0D01*
G01*
X211495500Y-82394000D01*
G75*
G02*
X211370000Y-82268500I0J125500D01*
G01*
G37*
G36*
G01*
X211370000Y-82918500D02*
X211370000Y-82667500D01*
G75*
G02*
X211495500Y-82542000I125500J0D01*
G01*
X212821500Y-82542000D01*
G75*
G02*
X212947000Y-82667500I0J-125500D01*
G01*
X212947000Y-82918500D01*
G75*
G02*
X212821500Y-83044000I-125500J0D01*
G01*
X211495500Y-83044000D01*
G75*
G02*
X211370000Y-82918500I0J125500D01*
G01*
G37*
G36*
G01*
X211370000Y-83568500D02*
X211370000Y-83317500D01*
G75*
G02*
X211495500Y-83192000I125500J0D01*
G01*
X212821500Y-83192000D01*
G75*
G02*
X212947000Y-83317500I0J-125500D01*
G01*
X212947000Y-83568500D01*
G75*
G02*
X212821500Y-83694000I-125500J0D01*
G01*
X211495500Y-83694000D01*
G75*
G02*
X211370000Y-83568500I0J125500D01*
G01*
G37*
G36*
G01*
X182968000Y-105168000D02*
X181268000Y-105168000D01*
G75*
G02*
X181217000Y-105117000I0J51000D01*
G01*
X181217000Y-103417000D01*
G75*
G02*
X181268000Y-103366000I51000J0D01*
G01*
X182968000Y-103366000D01*
G75*
G02*
X183019000Y-103417000I0J-51000D01*
G01*
X183019000Y-105117000D01*
G75*
G02*
X182968000Y-105168000I-51000J0D01*
G01*
G37*
X182118000Y-101727000D03*
X184658000Y-104267000D03*
X184658000Y-101727000D03*
X187198000Y-104267000D03*
X187198000Y-101727000D03*
X189738000Y-104267000D03*
X189738000Y-101727000D03*
X192278000Y-104267000D03*
X192278000Y-101727000D03*
X194818000Y-104267000D03*
X194818000Y-101727000D03*
X197358000Y-104267000D03*
X197358000Y-101727000D03*
X199898000Y-104267000D03*
X199898000Y-101727000D03*
X202438000Y-104267000D03*
X202438000Y-101727000D03*
X204978000Y-104267000D03*
X204978000Y-101727000D03*
X207518000Y-104267000D03*
X207518000Y-101727000D03*
X210058000Y-104267000D03*
X210058000Y-101727000D03*
X212598000Y-104267000D03*
X212598000Y-101727000D03*
X215138000Y-104267000D03*
X215138000Y-101727000D03*
X217678000Y-104267000D03*
X217678000Y-101727000D03*
X220218000Y-104267000D03*
X220218000Y-101727000D03*
X222758000Y-104267000D03*
X222758000Y-101727000D03*
X225298000Y-104267000D03*
X225298000Y-101727000D03*
G36*
G01*
X59524000Y-105168000D02*
X57824000Y-105168000D01*
G75*
G02*
X57773000Y-105117000I0J51000D01*
G01*
X57773000Y-103417000D01*
G75*
G02*
X57824000Y-103366000I51000J0D01*
G01*
X59524000Y-103366000D01*
G75*
G02*
X59575000Y-103417000I0J-51000D01*
G01*
X59575000Y-105117000D01*
G75*
G02*
X59524000Y-105168000I-51000J0D01*
G01*
G37*
X58674000Y-101727000D03*
X61214000Y-104267000D03*
X61214000Y-101727000D03*
X63754000Y-104267000D03*
X63754000Y-101727000D03*
X66294000Y-104267000D03*
X66294000Y-101727000D03*
X68834000Y-104267000D03*
X68834000Y-101727000D03*
X71374000Y-104267000D03*
X71374000Y-101727000D03*
X73914000Y-104267000D03*
X73914000Y-101727000D03*
X76454000Y-104267000D03*
X76454000Y-101727000D03*
X78994000Y-104267000D03*
X78994000Y-101727000D03*
X81534000Y-104267000D03*
X81534000Y-101727000D03*
X84074000Y-104267000D03*
X84074000Y-101727000D03*
X86614000Y-104267000D03*
X86614000Y-101727000D03*
X89154000Y-104267000D03*
X89154000Y-101727000D03*
X91694000Y-104267000D03*
X91694000Y-101727000D03*
X94234000Y-104267000D03*
X94234000Y-101727000D03*
X96774000Y-104267000D03*
X96774000Y-101727000D03*
X99314000Y-104267000D03*
X99314000Y-101727000D03*
X101854000Y-104267000D03*
X101854000Y-101727000D03*
X104394000Y-104267000D03*
X104394000Y-101727000D03*
X106934000Y-104267000D03*
X106934000Y-101727000D03*
X109474000Y-104267000D03*
X109474000Y-101727000D03*
X112014000Y-104267000D03*
X112014000Y-101727000D03*
M02*
