%FSLAX45Y45*%
G04 Gerber Fmt 4.5, Leading zero omitted, Abs format (unit mm)*
G04 Created by KiCad (PCBNEW 5.1.10) date 2021-06-20 21:29:39*
%MOMM*%
%LPD*%
G01*
G04 APERTURE LIST*
%TA.AperFunction,Profile*%
%ADD10C,0.150000*%
%TD*%
%ADD11C,0.200000*%
%ADD12C,0.300000*%
G04 APERTURE END LIST*
D10*
X23622000Y-2870200D02*
X5207000Y-2870200D01*
X5207000Y-11023600D02*
X5207000Y-2870200D01*
X23622000Y-11023600D02*
X5207000Y-11023600D01*
X23622000Y-2870200D02*
X23622000Y-11023600D01*
D11*
X15947000Y-3475600D02*
X16057000Y-3585600D01*
X16057000Y-3475600D02*
X15947000Y-3585600D01*
X16201000Y-3475600D02*
X16311000Y-3585600D01*
X16311000Y-3475600D02*
X16201000Y-3585600D01*
X16455000Y-3475600D02*
X16565000Y-3585600D01*
X16565000Y-3475600D02*
X16455000Y-3585600D01*
D12*
X5485928Y-11496814D02*
X5485928Y-11196814D01*
X5557357Y-11196814D01*
X5600214Y-11211100D01*
X5628786Y-11239671D01*
X5643071Y-11268243D01*
X5657357Y-11325386D01*
X5657357Y-11368243D01*
X5643071Y-11425386D01*
X5628786Y-11453957D01*
X5600214Y-11482529D01*
X5557357Y-11496814D01*
X5485928Y-11496814D01*
X5785928Y-11496814D02*
X5785928Y-11296814D01*
X5785928Y-11353957D02*
X5800214Y-11325386D01*
X5814500Y-11311100D01*
X5843071Y-11296814D01*
X5871643Y-11296814D01*
X5971643Y-11496814D02*
X5971643Y-11296814D01*
X5971643Y-11196814D02*
X5957357Y-11211100D01*
X5971643Y-11225386D01*
X5985928Y-11211100D01*
X5971643Y-11196814D01*
X5971643Y-11225386D01*
X6157357Y-11496814D02*
X6128786Y-11482529D01*
X6114500Y-11453957D01*
X6114500Y-11196814D01*
X6314500Y-11496814D02*
X6285928Y-11482529D01*
X6271643Y-11453957D01*
X6271643Y-11196814D01*
X6657357Y-11496814D02*
X6657357Y-11196814D01*
X6757357Y-11411100D01*
X6857357Y-11196814D01*
X6857357Y-11496814D01*
X7128786Y-11496814D02*
X7128786Y-11339671D01*
X7114500Y-11311100D01*
X7085928Y-11296814D01*
X7028786Y-11296814D01*
X7000214Y-11311100D01*
X7128786Y-11482529D02*
X7100214Y-11496814D01*
X7028786Y-11496814D01*
X7000214Y-11482529D01*
X6985928Y-11453957D01*
X6985928Y-11425386D01*
X7000214Y-11396814D01*
X7028786Y-11382529D01*
X7100214Y-11382529D01*
X7128786Y-11368243D01*
X7271643Y-11296814D02*
X7271643Y-11596814D01*
X7271643Y-11311100D02*
X7300214Y-11296814D01*
X7357357Y-11296814D01*
X7385928Y-11311100D01*
X7400214Y-11325386D01*
X7414500Y-11353957D01*
X7414500Y-11439671D01*
X7400214Y-11468243D01*
X7385928Y-11482529D01*
X7357357Y-11496814D01*
X7300214Y-11496814D01*
X7271643Y-11482529D01*
X7543071Y-11468243D02*
X7557357Y-11482529D01*
X7543071Y-11496814D01*
X7528786Y-11482529D01*
X7543071Y-11468243D01*
X7543071Y-11496814D01*
X7543071Y-11311100D02*
X7557357Y-11325386D01*
X7543071Y-11339671D01*
X7528786Y-11325386D01*
X7543071Y-11311100D01*
X7543071Y-11339671D01*
X5089500Y-11936100D02*
X5199500Y-12046100D01*
X5199500Y-11936100D02*
X5089500Y-12046100D01*
X5643071Y-12126814D02*
X5471643Y-12126814D01*
X5557357Y-12126814D02*
X5557357Y-11826814D01*
X5528786Y-11869671D01*
X5500214Y-11898243D01*
X5471643Y-11912529D01*
X5771643Y-12098243D02*
X5785928Y-12112529D01*
X5771643Y-12126814D01*
X5757357Y-12112529D01*
X5771643Y-12098243D01*
X5771643Y-12126814D01*
X6071643Y-12126814D02*
X5900214Y-12126814D01*
X5985928Y-12126814D02*
X5985928Y-11826814D01*
X5957357Y-11869671D01*
X5928786Y-11898243D01*
X5900214Y-11912529D01*
X6257357Y-11826814D02*
X6285928Y-11826814D01*
X6314500Y-11841100D01*
X6328786Y-11855386D01*
X6343071Y-11883957D01*
X6357357Y-11941100D01*
X6357357Y-12012529D01*
X6343071Y-12069671D01*
X6328786Y-12098243D01*
X6314500Y-12112529D01*
X6285928Y-12126814D01*
X6257357Y-12126814D01*
X6228786Y-12112529D01*
X6214500Y-12098243D01*
X6200214Y-12069671D01*
X6185928Y-12012529D01*
X6185928Y-11941100D01*
X6200214Y-11883957D01*
X6214500Y-11855386D01*
X6228786Y-11841100D01*
X6257357Y-11826814D01*
X6543071Y-11826814D02*
X6571643Y-11826814D01*
X6600214Y-11841100D01*
X6614500Y-11855386D01*
X6628786Y-11883957D01*
X6643071Y-11941100D01*
X6643071Y-12012529D01*
X6628786Y-12069671D01*
X6614500Y-12098243D01*
X6600214Y-12112529D01*
X6571643Y-12126814D01*
X6543071Y-12126814D01*
X6514500Y-12112529D01*
X6500214Y-12098243D01*
X6485928Y-12069671D01*
X6471643Y-12012529D01*
X6471643Y-11941100D01*
X6485928Y-11883957D01*
X6500214Y-11855386D01*
X6514500Y-11841100D01*
X6543071Y-11826814D01*
X6771643Y-12126814D02*
X6771643Y-11926814D01*
X6771643Y-11955386D02*
X6785928Y-11941100D01*
X6814500Y-11926814D01*
X6857357Y-11926814D01*
X6885928Y-11941100D01*
X6900214Y-11969671D01*
X6900214Y-12126814D01*
X6900214Y-11969671D02*
X6914500Y-11941100D01*
X6943071Y-11926814D01*
X6985928Y-11926814D01*
X7014500Y-11941100D01*
X7028786Y-11969671D01*
X7028786Y-12126814D01*
X7171643Y-12126814D02*
X7171643Y-11926814D01*
X7171643Y-11955386D02*
X7185928Y-11941100D01*
X7214500Y-11926814D01*
X7257357Y-11926814D01*
X7285928Y-11941100D01*
X7300214Y-11969671D01*
X7300214Y-12126814D01*
X7300214Y-11969671D02*
X7314500Y-11941100D01*
X7343071Y-11926814D01*
X7385928Y-11926814D01*
X7414500Y-11941100D01*
X7428786Y-11969671D01*
X7428786Y-12126814D01*
X8014500Y-11812529D02*
X7757357Y-12198243D01*
X8400214Y-11826814D02*
X8428786Y-11826814D01*
X8457357Y-11841100D01*
X8471643Y-11855386D01*
X8485928Y-11883957D01*
X8500214Y-11941100D01*
X8500214Y-12012529D01*
X8485928Y-12069671D01*
X8471643Y-12098243D01*
X8457357Y-12112529D01*
X8428786Y-12126814D01*
X8400214Y-12126814D01*
X8371643Y-12112529D01*
X8357357Y-12098243D01*
X8343071Y-12069671D01*
X8328786Y-12012529D01*
X8328786Y-11941100D01*
X8343071Y-11883957D01*
X8357357Y-11855386D01*
X8371643Y-11841100D01*
X8400214Y-11826814D01*
X8628786Y-12098243D02*
X8643071Y-12112529D01*
X8628786Y-12126814D01*
X8614500Y-12112529D01*
X8628786Y-12098243D01*
X8628786Y-12126814D01*
X8828786Y-11826814D02*
X8857357Y-11826814D01*
X8885928Y-11841100D01*
X8900214Y-11855386D01*
X8914500Y-11883957D01*
X8928786Y-11941100D01*
X8928786Y-12012529D01*
X8914500Y-12069671D01*
X8900214Y-12098243D01*
X8885928Y-12112529D01*
X8857357Y-12126814D01*
X8828786Y-12126814D01*
X8800214Y-12112529D01*
X8785928Y-12098243D01*
X8771643Y-12069671D01*
X8757357Y-12012529D01*
X8757357Y-11941100D01*
X8771643Y-11883957D01*
X8785928Y-11855386D01*
X8800214Y-11841100D01*
X8828786Y-11826814D01*
X9185928Y-11926814D02*
X9185928Y-12126814D01*
X9114500Y-11812529D02*
X9043071Y-12026814D01*
X9228786Y-12026814D01*
X9314500Y-11826814D02*
X9500214Y-11826814D01*
X9400214Y-11941100D01*
X9443071Y-11941100D01*
X9471643Y-11955386D01*
X9485928Y-11969671D01*
X9500214Y-11998243D01*
X9500214Y-12069671D01*
X9485928Y-12098243D01*
X9471643Y-12112529D01*
X9443071Y-12126814D01*
X9357357Y-12126814D01*
X9328786Y-12112529D01*
X9314500Y-12098243D01*
X9600214Y-11826814D02*
X9785928Y-11826814D01*
X9685928Y-11941100D01*
X9728786Y-11941100D01*
X9757357Y-11955386D01*
X9771643Y-11969671D01*
X9785928Y-11998243D01*
X9785928Y-12069671D01*
X9771643Y-12098243D01*
X9757357Y-12112529D01*
X9728786Y-12126814D01*
X9643071Y-12126814D01*
X9614500Y-12112529D01*
X9600214Y-12098243D01*
X9900214Y-11826814D02*
X9900214Y-11883957D01*
X10014500Y-11826814D02*
X10014500Y-11883957D01*
X10457357Y-12241100D02*
X10443071Y-12226814D01*
X10414500Y-12183957D01*
X10400214Y-12155386D01*
X10385928Y-12112529D01*
X10371643Y-12041100D01*
X10371643Y-11983957D01*
X10385928Y-11912529D01*
X10400214Y-11869671D01*
X10414500Y-11841100D01*
X10443071Y-11798243D01*
X10457357Y-11783957D01*
X10543071Y-11826814D02*
X10728786Y-11826814D01*
X10628786Y-11941100D01*
X10671643Y-11941100D01*
X10700214Y-11955386D01*
X10714500Y-11969671D01*
X10728786Y-11998243D01*
X10728786Y-12069671D01*
X10714500Y-12098243D01*
X10700214Y-12112529D01*
X10671643Y-12126814D01*
X10585928Y-12126814D01*
X10557357Y-12112529D01*
X10543071Y-12098243D01*
X11085928Y-12126814D02*
X11085928Y-11826814D01*
X11214500Y-12126814D02*
X11214500Y-11969671D01*
X11200214Y-11941100D01*
X11171643Y-11926814D01*
X11128786Y-11926814D01*
X11100214Y-11941100D01*
X11085928Y-11955386D01*
X11400214Y-12126814D02*
X11371643Y-12112529D01*
X11357357Y-12098243D01*
X11343071Y-12069671D01*
X11343071Y-11983957D01*
X11357357Y-11955386D01*
X11371643Y-11941100D01*
X11400214Y-11926814D01*
X11443071Y-11926814D01*
X11471643Y-11941100D01*
X11485928Y-11955386D01*
X11500214Y-11983957D01*
X11500214Y-12069671D01*
X11485928Y-12098243D01*
X11471643Y-12112529D01*
X11443071Y-12126814D01*
X11400214Y-12126814D01*
X11671643Y-12126814D02*
X11643071Y-12112529D01*
X11628786Y-12083957D01*
X11628786Y-11826814D01*
X11900214Y-12112529D02*
X11871643Y-12126814D01*
X11814500Y-12126814D01*
X11785928Y-12112529D01*
X11771643Y-12083957D01*
X11771643Y-11969671D01*
X11785928Y-11941100D01*
X11814500Y-11926814D01*
X11871643Y-11926814D01*
X11900214Y-11941100D01*
X11914500Y-11969671D01*
X11914500Y-11998243D01*
X11771643Y-12026814D01*
X12028786Y-12112529D02*
X12057357Y-12126814D01*
X12114500Y-12126814D01*
X12143071Y-12112529D01*
X12157357Y-12083957D01*
X12157357Y-12069671D01*
X12143071Y-12041100D01*
X12114500Y-12026814D01*
X12071643Y-12026814D01*
X12043071Y-12012529D01*
X12028786Y-11983957D01*
X12028786Y-11969671D01*
X12043071Y-11941100D01*
X12071643Y-11926814D01*
X12114500Y-11926814D01*
X12143071Y-11941100D01*
X12257357Y-12241100D02*
X12271643Y-12226814D01*
X12300214Y-12183957D01*
X12314500Y-12155386D01*
X12328786Y-12112529D01*
X12343071Y-12041100D01*
X12343071Y-11983957D01*
X12328786Y-11912529D01*
X12314500Y-11869671D01*
X12300214Y-11841100D01*
X12271643Y-11798243D01*
X12257357Y-11783957D01*
X12800214Y-12241100D02*
X12785928Y-12226814D01*
X12757357Y-12183957D01*
X12743071Y-12155386D01*
X12728786Y-12112529D01*
X12714500Y-12041100D01*
X12714500Y-11983957D01*
X12728786Y-11912529D01*
X12743071Y-11869671D01*
X12757357Y-11841100D01*
X12785928Y-11798243D01*
X12800214Y-11783957D01*
X12914500Y-11926814D02*
X12914500Y-12126814D01*
X12914500Y-11955386D02*
X12928786Y-11941100D01*
X12957357Y-11926814D01*
X13000214Y-11926814D01*
X13028786Y-11941100D01*
X13043071Y-11969671D01*
X13043071Y-12126814D01*
X13228786Y-12126814D02*
X13200214Y-12112529D01*
X13185928Y-12098243D01*
X13171643Y-12069671D01*
X13171643Y-11983957D01*
X13185928Y-11955386D01*
X13200214Y-11941100D01*
X13228786Y-11926814D01*
X13271643Y-11926814D01*
X13300214Y-11941100D01*
X13314500Y-11955386D01*
X13328786Y-11983957D01*
X13328786Y-12069671D01*
X13314500Y-12098243D01*
X13300214Y-12112529D01*
X13271643Y-12126814D01*
X13228786Y-12126814D01*
X13414500Y-11926814D02*
X13528786Y-11926814D01*
X13457357Y-11826814D02*
X13457357Y-12083957D01*
X13471643Y-12112529D01*
X13500214Y-12126814D01*
X13528786Y-12126814D01*
X13857357Y-11926814D02*
X13857357Y-12226814D01*
X13857357Y-11941100D02*
X13885928Y-11926814D01*
X13943071Y-11926814D01*
X13971643Y-11941100D01*
X13985928Y-11955386D01*
X14000214Y-11983957D01*
X14000214Y-12069671D01*
X13985928Y-12098243D01*
X13971643Y-12112529D01*
X13943071Y-12126814D01*
X13885928Y-12126814D01*
X13857357Y-12112529D01*
X14171643Y-12126814D02*
X14143071Y-12112529D01*
X14128786Y-12083957D01*
X14128786Y-11826814D01*
X14414500Y-12126814D02*
X14414500Y-11969671D01*
X14400214Y-11941100D01*
X14371643Y-11926814D01*
X14314500Y-11926814D01*
X14285928Y-11941100D01*
X14414500Y-12112529D02*
X14385928Y-12126814D01*
X14314500Y-12126814D01*
X14285928Y-12112529D01*
X14271643Y-12083957D01*
X14271643Y-12055386D01*
X14285928Y-12026814D01*
X14314500Y-12012529D01*
X14385928Y-12012529D01*
X14414500Y-11998243D01*
X14514500Y-11926814D02*
X14628786Y-11926814D01*
X14557357Y-11826814D02*
X14557357Y-12083957D01*
X14571643Y-12112529D01*
X14600214Y-12126814D01*
X14628786Y-12126814D01*
X14843071Y-12112529D02*
X14814500Y-12126814D01*
X14757357Y-12126814D01*
X14728786Y-12112529D01*
X14714500Y-12083957D01*
X14714500Y-11969671D01*
X14728786Y-11941100D01*
X14757357Y-11926814D01*
X14814500Y-11926814D01*
X14843071Y-11941100D01*
X14857357Y-11969671D01*
X14857357Y-11998243D01*
X14714500Y-12026814D01*
X15114500Y-12126814D02*
X15114500Y-11826814D01*
X15114500Y-12112529D02*
X15085928Y-12126814D01*
X15028786Y-12126814D01*
X15000214Y-12112529D01*
X14985928Y-12098243D01*
X14971643Y-12069671D01*
X14971643Y-11983957D01*
X14985928Y-11955386D01*
X15000214Y-11941100D01*
X15028786Y-11926814D01*
X15085928Y-11926814D01*
X15114500Y-11941100D01*
X15228786Y-12241100D02*
X15243071Y-12226814D01*
X15271643Y-12183957D01*
X15285928Y-12155386D01*
X15300214Y-12112529D01*
X15314500Y-12041100D01*
X15314500Y-11983957D01*
X15300214Y-11912529D01*
X15285928Y-11869671D01*
X15271643Y-11841100D01*
X15243071Y-11798243D01*
X15228786Y-11783957D01*
M02*
