M48
; DRILL file {KiCad 5.1.10} date Sun Jun 20 21:29:16 2021
; FORMAT={-:-/ absolute / metric / decimal}
; #@! TF.CreationDate,2021-06-20T21:29:16-04:00
; #@! TF.GenerationSoftware,Kicad,Pcbnew,5.1.10
; #@! TF.FileFunction,Plated,1,4,PTH
FMAT,2
METRIC
T1C0.400
T2C1.000
T3C1.100
T4C1.300
T5C1.600
%
G90
G05
T1
X61.671Y-94.082
X63.119Y-48.514
X63.373Y-82.614
X64.77Y-46.99
X65.204Y-49.96
X65.405Y-64.389
X65.532Y-43.053
X65.532Y-75.629
X65.849Y-78.295
X66.23Y-70.866
X67.183Y-56.007
X67.564Y-107.376
X69.039Y-49.164
X69.841Y-45.974
X69.95Y-47.117
X70.04Y-96.52
X70.358Y-53.975
X70.739Y-48.831
X70.802Y-43.116
X70.802Y-44.794
X72.39Y-82.677
X72.517Y-43.307
X73.152Y-39.878
X73.215Y-58.928
X73.914Y-40.894
X74.041Y-52.451
X74.422Y-53.975
X74.612Y-84.455
X75.057Y-58.42
X75.248Y-82.423
X75.311Y-66.421
X75.438Y-80.137
X75.438Y-86.741
X75.565Y-57.15
X75.946Y-47.879
X76.073Y-84.582
X76.454Y-60.579
X76.962Y-42.227
X76.962Y-52.07
X77.216Y-47.879
X77.343Y-64.135
X77.914Y-74.549
X78.359Y-48.387
X78.384Y-89.56
X78.486Y-84.633
X78.74Y-91.059
X79.375Y-47.879
X79.438Y-78.549
X80.391Y-57.15
X81.534Y-79.502
X81.597Y-43.624
X81.788Y-76.644
X81.788Y-83.439
X82.042Y-51.181
X82.677Y-49.149
X82.74Y-85.153
X82.804Y-37.846
X82.804Y-53.594
X82.931Y-66.294
X82.995Y-43.752
X83.058Y-63.754
X83.248Y-89.916
X83.502Y-95.313
X83.757Y-87.249
X84.01Y-74.168
X84.074Y-108.326
X84.328Y-39.37
X84.836Y-50.419
X85.09Y-57.404
X85.16Y-40.095
X85.217Y-51.435
X85.598Y-54.229
X86.487Y-42.355
X86.741Y-53.467
X86.995Y-43.434
X87.63Y-54.864
X87.63Y-56.134
X89.027Y-46.228
X89.09Y-58.737
X89.459Y-48.26
X89.56Y-49.733
X89.789Y-43.434
X89.789Y-46.99
X89.789Y-54.61
X90.932Y-43.434
X91.186Y-42.164
X91.948Y-62.357
X93.726Y-86.741
X94.234Y-83.82
X94.615Y-48.895
X94.615Y-67.437
X96.012Y-85.217
X96.139Y-50.546
X96.774Y-92.837
X96.774Y-109.276
X99.06Y-95.123
X99.695Y-48.641
X100.012Y-49.721
X100.139Y-91.059
X100.33Y-61.341
X102.616Y-62.103
X102.743Y-76.962
X102.743Y-80.518
X104.14Y-41.148
X104.267Y-88.265
X104.267Y-95.25
X104.394Y-43.688
X104.775Y-65.786
X104.902Y-40.132
X104.902Y-53.594
X104.965Y-70.421
X105.283Y-58.08
X105.283Y-68.326
X105.791Y-76.454
X105.791Y-84.328
X105.918Y-39.37
X105.918Y-46.228
X106.045Y-90.678
X106.172Y-88.138
X106.553Y-69.977
X106.68Y-38.608
X106.68Y-46.99
X106.68Y-49.022
X106.68Y-53.975
X106.68Y-57.58
X107.626Y-37.893
X108.331Y-93.091
X108.458Y-37.338
X109.474Y-36.83
X110.109Y-80.518
X110.236Y-35.814
X110.49Y-64.262
X110.998Y-40.132
X110.998Y-41.148
X111.252Y-46.99
X111.506Y-86.995
X112.268Y-46.228
X112.903Y-68.199
X113.411Y-90.678
X113.919Y-69.723
X113.919Y-76.01
X114.427Y-85.725
X114.871Y-44.831
X115.57Y-34.29
X115.57Y-76.581
X116.078Y-94.869
X116.586Y-58.166
X116.84Y-53.34
X117.475Y-57.15
X117.729Y-47.561
X117.729Y-80.518
X117.856Y-52.578
X118.11Y-64.262
X118.872Y-95.25
X119.57Y-100.774
X120.269Y-95.25
X120.371Y-41.58
X120.396Y-33.999
X120.777Y-66.929
X120.904Y-90.678
X121.031Y-103.632
X121.31Y-36.271
X121.31Y-39.472
X121.666Y-95.25
X121.92Y-33.999
X122.174Y-75.946
X123.317Y-69.532
X123.317Y-95.25
X123.444Y-34.29
X123.634Y-76.01
X124.079Y-63.817
X125.222Y-78.803
X125.222Y-83.248
X125.222Y-87.185
X125.222Y-90.995
X125.222Y-95.123
X125.73Y-57.023
X127.0Y-59.69
X129.921Y-65.659
X129.921Y-67.564
X130.048Y-70.104
X130.175Y-77.216
X130.429Y-81.661
X130.429Y-85.598
X130.429Y-103.314
X130.493Y-100.266
X130.493Y-104.838
X130.556Y-89.408
X130.81Y-93.345
X132.143Y-105.6
X133.223Y-66.421
X134.112Y-89.154
X136.144Y-63.5
X138.43Y-65.024
X138.775Y-49.367
X139.192Y-85.598
X139.446Y-78.74
X139.7Y-67.31
X139.7Y-71.44
X139.7Y-73.66
X139.7Y-95.25
X139.954Y-49.403
X140.589Y-62.865
X141.351Y-59.436
X141.732Y-78.232
X142.748Y-91.44
X143.002Y-78.232
X143.446Y-100.393
X143.446Y-105.093
X143.51Y-84.582
X143.573Y-69.406
X143.891Y-62.992
X144.018Y-95.25
X144.844Y-68.961
X145.542Y-62.992
X145.669Y-71.628
X146.05Y-67.31
X146.177Y-73.66
X146.558Y-87.884
X146.685Y-76.581
X147.066Y-53.34
X147.32Y-49.149
X147.574Y-78.486
X147.828Y-86.868
X148.082Y-52.578
X148.387Y-68.58
X148.59Y-79.248
X149.25Y-63.094
X150.622Y-79.756
X150.876Y-95.25
X151.13Y-30.48
X151.13Y-33.528
X151.384Y-85.344
X152.146Y-86.614
X152.88Y-91.214
X153.416Y-41.656
X153.822Y-74.981
X154.127Y-73.762
X154.432Y-72.39
X154.432Y-76.2
X154.559Y-68.58
X154.686Y-64.77
X157.543Y-105.6
X157.671Y-100.266
X158.75Y-86.36
X159.258Y-84.201
X159.947Y-70.104
X160.528Y-63.246
X163.627Y-63.957
X164.186Y-71.78
X164.338Y-67.31
X164.338Y-73.66
X164.338Y-83.82
X164.592Y-85.217
X164.694Y-76.962
X164.719Y-91.694
X165.608Y-57.912
X165.71Y-86.36
X165.913Y-90.068
X165.989Y-69.469
X166.116Y-72.517
X166.624Y-57.404
X166.878Y-49.403
X166.878Y-85.344
X168.148Y-44.45
X169.164Y-40.386
X169.672Y-41.91
X170.18Y-37.338
X170.18Y-44.45
X170.485Y-63.195
X171.755Y-69.596
X171.831Y-90.043
X171.958Y-67.31
X171.958Y-83.82
X171.958Y-85.217
X172.212Y-91.694
X172.593Y-86.487
X173.731Y-36.317
X174.041Y-67.208
X174.053Y-100.774
X174.053Y-105.6
X174.244Y-49.53
X175.26Y-37.592
X175.26Y-43.942
X176.276Y-45.974
X176.276Y-52.578
X177.546Y-53.34
X177.902Y-63.094
X178.918Y-72.034
X179.324Y-57.404
X179.578Y-67.31
X179.832Y-31.242
X179.832Y-84.201
X179.832Y-91.694
X180.213Y-86.36
X180.34Y-95.631
X180.467Y-75.311
X180.848Y-32.258
X180.848Y-39.878
X181.356Y-53.34
X181.864Y-33.274
X182.88Y-34.29
X183.845Y-92.558
X183.896Y-84.633
X184.023Y-67.818
X184.048Y-75.082
X185.674Y-48.006
X186.436Y-46.228
X186.944Y-49.784
X187.198Y-45.466
X188.976Y-43.566
X188.976Y-65.532
X188.976Y-69.342
X188.976Y-73.152
X188.976Y-77.216
X188.976Y-82.804
X188.976Y-86.614
X188.976Y-90.678
X189.103Y-94.488
X190.246Y-42.926
X191.262Y-47.498
X192.273Y-48.255
X192.278Y-49.276
X192.786Y-52.324
X193.548Y-42.926
X193.802Y-55.925
X193.865Y-76.835
X194.056Y-87.63
X194.564Y-51.054
X195.072Y-41.148
X195.072Y-55.925
X195.326Y-52.07
X196.024Y-98.361
X196.342Y-41.91
X197.104Y-47.904
X197.104Y-59.182
X197.612Y-70.612
X198.328Y-57.178
X198.374Y-40.132
X198.374Y-60.198
X198.628Y-56.224
X198.628Y-58.42
X198.926Y-41.553
X199.644Y-51.054
X199.644Y-52.07
X200.746Y-38.014
X201.168Y-62.992
X201.168Y-83.566
X201.676Y-58.674
X202.946Y-57.15
X203.454Y-67.056
X203.556Y-59.588
X203.708Y-87.188
X203.796Y-51.054
X203.796Y-52.07
X204.064Y-47.092
X204.419Y-85.039
X204.47Y-81.534
X204.47Y-83.566
X206.096Y-44.704
X206.248Y-76.454
X206.756Y-39.116
X207.518Y-47.352
X207.518Y-50.102
X207.772Y-39.624
X207.772Y-53.506
X207.772Y-57.15
X208.128Y-51.206
X208.28Y-42.317
X208.28Y-44.667
X208.534Y-46.228
X208.788Y-58.42
X208.788Y-59.69
X208.915Y-53.506
X209.089Y-45.396
X209.296Y-40.132
X209.804Y-42.767
X209.855Y-70.002
X209.855Y-81.89
X210.312Y-54.102
X210.566Y-83.566
X211.328Y-66.294
X211.328Y-86.614
X211.43Y-84.938
X212.09Y-48.006
X212.09Y-54.102
X212.339Y-44.709
X213.106Y-45.72
X213.36Y-42.164
X213.36Y-46.99
X213.36Y-48.768
X213.36Y-50.038
X213.36Y-54.102
X213.614Y-87.376
X213.868Y-99.06
X214.376Y-67.31
X214.757Y-91.44
X215.011Y-80.264
X215.387Y-39.883
X216.205Y-90.627
X216.408Y-52.09
X217.365Y-51.365
X217.932Y-50.038
X218.694Y-44.45
X218.694Y-45.974
X220.472Y-49.276
X220.79Y-79.629
X220.98Y-83.82
X221.234Y-45.212
X221.234Y-48.26
X221.488Y-63.5
X222.67Y-67.31
X223.012Y-64.77
X223.012Y-87.325
X224.478Y-83.391
X224.79Y-60.389
X225.425Y-59.245
X226.05Y-58.166
X226.695Y-57.087
T2
X55.88Y-33.782
X55.88Y-36.322
X55.88Y-38.862
X55.88Y-41.402
X55.88Y-43.942
X55.88Y-46.482
X55.88Y-49.022
X55.88Y-51.562
X55.88Y-54.102
X55.88Y-56.642
X55.88Y-59.182
X55.88Y-61.722
X55.88Y-64.262
X55.88Y-66.802
X55.88Y-69.342
X55.88Y-71.882
X55.88Y-74.422
X55.88Y-76.962
X55.88Y-79.502
X55.88Y-82.042
X58.42Y-33.782
X58.42Y-36.322
X58.42Y-38.862
X58.42Y-41.402
X58.42Y-43.942
X58.42Y-46.482
X58.42Y-49.022
X58.42Y-51.562
X58.42Y-54.102
X58.42Y-56.642
X58.42Y-59.182
X58.42Y-61.722
X58.42Y-64.262
X58.42Y-66.802
X58.42Y-69.342
X58.42Y-71.882
X58.42Y-74.422
X58.42Y-76.962
X58.42Y-79.502
X58.42Y-82.042
X58.674Y-101.727
X58.674Y-104.267
X61.214Y-101.727
X61.214Y-104.267
X63.754Y-101.727
X63.754Y-104.267
X66.294Y-101.727
X66.294Y-104.267
X68.834Y-101.727
X68.834Y-104.267
X71.374Y-101.727
X71.374Y-104.267
X73.914Y-101.727
X73.914Y-104.267
X76.454Y-101.727
X76.454Y-104.267
X78.994Y-101.727
X78.994Y-104.267
X81.534Y-101.727
X81.534Y-104.267
X84.074Y-101.727
X84.074Y-104.267
X86.614Y-101.727
X86.614Y-104.267
X89.154Y-101.727
X89.154Y-104.267
X91.694Y-101.727
X91.694Y-104.267
X94.234Y-101.727
X94.234Y-104.267
X96.774Y-101.727
X96.774Y-104.267
X99.314Y-101.727
X99.314Y-104.267
X101.854Y-101.727
X101.854Y-104.267
X104.394Y-101.727
X104.394Y-104.267
X106.934Y-101.727
X106.934Y-104.267
X109.474Y-101.727
X109.474Y-104.267
X112.014Y-101.727
X112.014Y-104.267
X125.984Y-36.322
X125.984Y-38.862
X125.984Y-41.402
X128.524Y-36.322
X128.524Y-38.862
X128.524Y-41.402
X182.118Y-101.727
X182.118Y-104.267
X184.658Y-101.727
X184.658Y-104.267
X187.198Y-101.727
X187.198Y-104.267
X189.738Y-101.727
X189.738Y-104.267
X192.278Y-101.727
X192.278Y-104.267
X194.818Y-101.727
X194.818Y-104.267
X197.358Y-101.727
X197.358Y-104.267
X199.898Y-101.727
X199.898Y-104.267
X202.438Y-101.727
X202.438Y-104.267
X204.978Y-101.727
X204.978Y-104.267
X207.518Y-101.727
X207.518Y-104.267
X210.058Y-101.727
X210.058Y-104.267
X212.598Y-101.727
X212.598Y-104.267
X215.138Y-101.727
X215.138Y-104.267
X217.678Y-101.727
X217.678Y-104.267
X220.218Y-101.727
X220.218Y-104.267
X222.758Y-101.727
X222.758Y-104.267
X225.298Y-101.727
X225.298Y-104.267
X229.87Y-33.782
X229.87Y-36.322
X229.87Y-38.862
X229.87Y-41.402
X229.87Y-43.942
X229.87Y-46.482
X229.87Y-49.022
X229.87Y-51.562
X229.87Y-54.102
X229.87Y-56.642
X229.87Y-59.182
X229.87Y-61.722
X229.87Y-64.262
X229.87Y-66.802
X229.87Y-69.342
X229.87Y-71.882
X229.87Y-74.422
X229.87Y-76.962
X229.87Y-79.502
X229.87Y-82.042
X232.41Y-33.782
X232.41Y-36.322
X232.41Y-38.862
X232.41Y-41.402
X232.41Y-43.942
X232.41Y-46.482
X232.41Y-49.022
X232.41Y-51.562
X232.41Y-54.102
X232.41Y-56.642
X232.41Y-59.182
X232.41Y-61.722
X232.41Y-64.262
X232.41Y-66.802
X232.41Y-69.342
X232.41Y-71.882
X232.41Y-74.422
X232.41Y-76.962
X232.41Y-79.502
X232.41Y-82.042
T3
X56.642Y-90.932
X56.642Y-93.472
X56.642Y-96.012
X160.02Y-37.846
X162.56Y-37.846
X165.1Y-37.846
T4
X128.524Y-48.006
X132.334Y-48.006
T5
X136.473Y-40.942
X141.173Y-37.942
X141.173Y-43.942
T0
M30
