%FSLAX45Y45*%
G04 Gerber Fmt 4.5, Leading zero omitted, Abs format (unit mm)*
G04 Created by KiCad (PCBNEW 5.1.10) date 2021-06-20 21:29:39*
%MOMM*%
%LPD*%
G01*
G04 APERTURE LIST*
%TA.AperFunction,Profile*%
%ADD10C,0.150000*%
%TD*%
%ADD11C,0.200000*%
%ADD12C,0.300000*%
G04 APERTURE END LIST*
D10*
X23622000Y-2870200D02*
X5207000Y-2870200D01*
X5207000Y-11023600D02*
X5207000Y-2870200D01*
X23622000Y-11023600D02*
X5207000Y-11023600D01*
X23622000Y-2870200D02*
X23622000Y-11023600D01*
D11*
X6147120Y-9388160D02*
X6187120Y-9428160D01*
X6187120Y-9388160D02*
X6147120Y-9428160D01*
X6291900Y-4831400D02*
X6331900Y-4871400D01*
X6331900Y-4831400D02*
X6291900Y-4871400D01*
X6317300Y-8241350D02*
X6357300Y-8281350D01*
X6357300Y-8241350D02*
X6317300Y-8281350D01*
X6457000Y-4679000D02*
X6497000Y-4719000D01*
X6497000Y-4679000D02*
X6457000Y-4719000D01*
X6500417Y-4976001D02*
X6540417Y-5016001D01*
X6540417Y-4976001D02*
X6500417Y-5016001D01*
X6520500Y-6418900D02*
X6560500Y-6458900D01*
X6560500Y-6418900D02*
X6520500Y-6458900D01*
X6533200Y-4285300D02*
X6573200Y-4325300D01*
X6573200Y-4285300D02*
X6533200Y-4325300D01*
X6533200Y-7542850D02*
X6573200Y-7582850D01*
X6573200Y-7542850D02*
X6533200Y-7582850D01*
X6564950Y-7809550D02*
X6604950Y-7849550D01*
X6604950Y-7809550D02*
X6564950Y-7849550D01*
X6603050Y-7066600D02*
X6643050Y-7106600D01*
X6643050Y-7066600D02*
X6603050Y-7106600D01*
X6698300Y-5580700D02*
X6738300Y-5620700D01*
X6738300Y-5580700D02*
X6698300Y-5620700D01*
X6736400Y-10717600D02*
X6776400Y-10757600D01*
X6776400Y-10717600D02*
X6736400Y-10757600D01*
X6883949Y-4896400D02*
X6923949Y-4936400D01*
X6923949Y-4896400D02*
X6883949Y-4936400D01*
X6964100Y-4577400D02*
X7004100Y-4617400D01*
X7004100Y-4577400D02*
X6964100Y-4617400D01*
X6975049Y-4691700D02*
X7015049Y-4731700D01*
X7015049Y-4691700D02*
X6975049Y-4731700D01*
X6984050Y-9632000D02*
X7024050Y-9672000D01*
X7024050Y-9632000D02*
X6984050Y-9672000D01*
X7015800Y-5377500D02*
X7055800Y-5417500D01*
X7055800Y-5377500D02*
X7015800Y-5417500D01*
X7053900Y-4863150D02*
X7093900Y-4903150D01*
X7093900Y-4863150D02*
X7053900Y-4903150D01*
X7060250Y-4291650D02*
X7100250Y-4331650D01*
X7100250Y-4291650D02*
X7060250Y-4331650D01*
X7060250Y-4459400D02*
X7100250Y-4499400D01*
X7100250Y-4459400D02*
X7060250Y-4499400D01*
X7219000Y-8247700D02*
X7259000Y-8287700D01*
X7259000Y-8247700D02*
X7219000Y-8287700D01*
X7231700Y-4310700D02*
X7271700Y-4350700D01*
X7271700Y-4310700D02*
X7231700Y-4350700D01*
X7295200Y-3967800D02*
X7335200Y-4007800D01*
X7335200Y-3967800D02*
X7295200Y-4007800D01*
X7301550Y-5872800D02*
X7341550Y-5912800D01*
X7341550Y-5872800D02*
X7301550Y-5912800D01*
X7371400Y-4069400D02*
X7411400Y-4109400D01*
X7411400Y-4069400D02*
X7371400Y-4109400D01*
X7384100Y-5225100D02*
X7424100Y-5265100D01*
X7424100Y-5225100D02*
X7384100Y-5265100D01*
X7422200Y-5377500D02*
X7462200Y-5417500D01*
X7462200Y-5377500D02*
X7422200Y-5417500D01*
X7441250Y-8425500D02*
X7481250Y-8465500D01*
X7481250Y-8425500D02*
X7441250Y-8465500D01*
X7485700Y-5822000D02*
X7525700Y-5862000D01*
X7525700Y-5822000D02*
X7485700Y-5862000D01*
X7504750Y-8222300D02*
X7544750Y-8262300D01*
X7544750Y-8222300D02*
X7504750Y-8262300D01*
X7511100Y-6622100D02*
X7551100Y-6662100D01*
X7551100Y-6622100D02*
X7511100Y-6662100D01*
X7523800Y-7993700D02*
X7563800Y-8033700D01*
X7563800Y-7993700D02*
X7523800Y-8033700D01*
X7523800Y-8654100D02*
X7563800Y-8694100D01*
X7563800Y-8654100D02*
X7523800Y-8694100D01*
X7536500Y-5695000D02*
X7576500Y-5735000D01*
X7576500Y-5695000D02*
X7536500Y-5735000D01*
X7574600Y-4767900D02*
X7614600Y-4807900D01*
X7614600Y-4767900D02*
X7574600Y-4807900D01*
X7587300Y-8438200D02*
X7627300Y-8478200D01*
X7627300Y-8438200D02*
X7587300Y-8478200D01*
X7625400Y-6037900D02*
X7665400Y-6077900D01*
X7665400Y-6037900D02*
X7625400Y-6077900D01*
X7676200Y-4202750D02*
X7716200Y-4242750D01*
X7716200Y-4202750D02*
X7676200Y-4242750D01*
X7676200Y-5187000D02*
X7716200Y-5227000D01*
X7716200Y-5187000D02*
X7676200Y-5227000D01*
X7701600Y-4767900D02*
X7741600Y-4807900D01*
X7741600Y-4767900D02*
X7701600Y-4807900D01*
X7714300Y-6393500D02*
X7754300Y-6433500D01*
X7754300Y-6393500D02*
X7714300Y-6433500D01*
X7771450Y-7434900D02*
X7811450Y-7474900D01*
X7811450Y-7434900D02*
X7771450Y-7474900D01*
X7815900Y-4818700D02*
X7855900Y-4858700D01*
X7855900Y-4818700D02*
X7815900Y-4858700D01*
X7818440Y-8936040D02*
X7858440Y-8976040D01*
X7858440Y-8936040D02*
X7818440Y-8976040D01*
X7828600Y-8443280D02*
X7868600Y-8483280D01*
X7868600Y-8443280D02*
X7828600Y-8483280D01*
X7854000Y-9085900D02*
X7894000Y-9125900D01*
X7894000Y-9085900D02*
X7854000Y-9125900D01*
X7917500Y-4767900D02*
X7957500Y-4807900D01*
X7957500Y-4767900D02*
X7917500Y-4807900D01*
X7923850Y-7834950D02*
X7963850Y-7874950D01*
X7963850Y-7834950D02*
X7923850Y-7874950D01*
X8019100Y-5695000D02*
X8059100Y-5735000D01*
X8059100Y-5695000D02*
X8019100Y-5735000D01*
X8133400Y-7930200D02*
X8173400Y-7970200D01*
X8173400Y-7930200D02*
X8133400Y-7970200D01*
X8139750Y-4342450D02*
X8179750Y-4382450D01*
X8179750Y-4342450D02*
X8139750Y-4382450D01*
X8158800Y-7644450D02*
X8198800Y-7684450D01*
X8198800Y-7644450D02*
X8158800Y-7684450D01*
X8158800Y-8323900D02*
X8198800Y-8363900D01*
X8198800Y-8323900D02*
X8158800Y-8363900D01*
X8184200Y-5098100D02*
X8224200Y-5138100D01*
X8224200Y-5098100D02*
X8184200Y-5138100D01*
X8247700Y-4894900D02*
X8287700Y-4934900D01*
X8287700Y-4894900D02*
X8247700Y-4934900D01*
X8254050Y-8495350D02*
X8294050Y-8535350D01*
X8294050Y-8495350D02*
X8254050Y-8535350D01*
X8260400Y-3764600D02*
X8300400Y-3804600D01*
X8300400Y-3764600D02*
X8260400Y-3804600D01*
X8260400Y-5339400D02*
X8300400Y-5379400D01*
X8300400Y-5339400D02*
X8260400Y-5379400D01*
X8273100Y-6609400D02*
X8313100Y-6649400D01*
X8313100Y-6609400D02*
X8273100Y-6649400D01*
X8279450Y-4355150D02*
X8319450Y-4395150D01*
X8319450Y-4355150D02*
X8279450Y-4395150D01*
X8285800Y-6355400D02*
X8325800Y-6395400D01*
X8325800Y-6355400D02*
X8285800Y-6395400D01*
X8304850Y-8971600D02*
X8344850Y-9011600D01*
X8344850Y-8971600D02*
X8304850Y-9011600D01*
X8330250Y-9511350D02*
X8370250Y-9551350D01*
X8370250Y-9511350D02*
X8330250Y-9551350D01*
X8355650Y-8704900D02*
X8395650Y-8744900D01*
X8395650Y-8704900D02*
X8355650Y-8744900D01*
X8381050Y-7396800D02*
X8421050Y-7436800D01*
X8421050Y-7396800D02*
X8381050Y-7436800D01*
X8387400Y-10812600D02*
X8427400Y-10852600D01*
X8427400Y-10812600D02*
X8387400Y-10852600D01*
X8412800Y-3917000D02*
X8452800Y-3957000D01*
X8452800Y-3917000D02*
X8412800Y-3957000D01*
X8463600Y-5021900D02*
X8503600Y-5061900D01*
X8503600Y-5021900D02*
X8463600Y-5061900D01*
X8489000Y-5720400D02*
X8529000Y-5760400D01*
X8529000Y-5720400D02*
X8489000Y-5760400D01*
X8496005Y-3989500D02*
X8536005Y-4029500D01*
X8536005Y-3989500D02*
X8496005Y-4029500D01*
X8501700Y-5123500D02*
X8541700Y-5163500D01*
X8541700Y-5123500D02*
X8501700Y-5163500D01*
X8539800Y-5402900D02*
X8579800Y-5442900D01*
X8579800Y-5402900D02*
X8539800Y-5442900D01*
X8628700Y-4215450D02*
X8668700Y-4255450D01*
X8668700Y-4215450D02*
X8628700Y-4255450D01*
X8654100Y-5326700D02*
X8694100Y-5366700D01*
X8694100Y-5326700D02*
X8654100Y-5366700D01*
X8679500Y-4323400D02*
X8719500Y-4363400D01*
X8719500Y-4323400D02*
X8679500Y-4363400D01*
X8743000Y-5466400D02*
X8783000Y-5506400D01*
X8783000Y-5466400D02*
X8743000Y-5506400D01*
X8743000Y-5593400D02*
X8783000Y-5633400D01*
X8783000Y-5593400D02*
X8743000Y-5633400D01*
X8882700Y-4602800D02*
X8922700Y-4642800D01*
X8922700Y-4602800D02*
X8882700Y-4642800D01*
X8889050Y-5853750D02*
X8929050Y-5893750D01*
X8929050Y-5853750D02*
X8889050Y-5893750D01*
X8925880Y-4806000D02*
X8965880Y-4846000D01*
X8965880Y-4806000D02*
X8925880Y-4846000D01*
X8936040Y-4953320D02*
X8976040Y-4993320D01*
X8976040Y-4953320D02*
X8936040Y-4993320D01*
X8958900Y-4323400D02*
X8998900Y-4363400D01*
X8998900Y-4323400D02*
X8958900Y-4363400D01*
X8958900Y-4679000D02*
X8998900Y-4719000D01*
X8998900Y-4679000D02*
X8958900Y-4719000D01*
X8958900Y-5441000D02*
X8998900Y-5481000D01*
X8998900Y-5441000D02*
X8958900Y-5481000D01*
X9073200Y-4323400D02*
X9113200Y-4363400D01*
X9113200Y-4323400D02*
X9073200Y-4363400D01*
X9098600Y-4196400D02*
X9138600Y-4236400D01*
X9138600Y-4196400D02*
X9098600Y-4236400D01*
X9174800Y-6215700D02*
X9214800Y-6255700D01*
X9214800Y-6215700D02*
X9174800Y-6255700D01*
X9352600Y-8654100D02*
X9392600Y-8694100D01*
X9392600Y-8654100D02*
X9352600Y-8694100D01*
X9403400Y-8362000D02*
X9443400Y-8402000D01*
X9443400Y-8362000D02*
X9403400Y-8402000D01*
X9441500Y-4869500D02*
X9481500Y-4909500D01*
X9481500Y-4869500D02*
X9441500Y-4909500D01*
X9441500Y-6723700D02*
X9481500Y-6763700D01*
X9481500Y-6723700D02*
X9441500Y-6763700D01*
X9581200Y-8501700D02*
X9621200Y-8541700D01*
X9621200Y-8501700D02*
X9581200Y-8541700D01*
X9593900Y-5034600D02*
X9633900Y-5074600D01*
X9633900Y-5034600D02*
X9593900Y-5074600D01*
X9657400Y-9263700D02*
X9697400Y-9303700D01*
X9697400Y-9263700D02*
X9657400Y-9303700D01*
X9657400Y-10907600D02*
X9697400Y-10947600D01*
X9697400Y-10907600D02*
X9657400Y-10947600D01*
X9886000Y-9492300D02*
X9926000Y-9532300D01*
X9926000Y-9492300D02*
X9886000Y-9532300D01*
X9949500Y-4844100D02*
X9989500Y-4884100D01*
X9989500Y-4844100D02*
X9949500Y-4884100D01*
X9981250Y-4952050D02*
X10021250Y-4992050D01*
X10021250Y-4952050D02*
X9981250Y-4992050D01*
X9993950Y-9085900D02*
X10033950Y-9125900D01*
X10033950Y-9085900D02*
X9993950Y-9125900D01*
X10013000Y-6114100D02*
X10053000Y-6154100D01*
X10053000Y-6114100D02*
X10013000Y-6154100D01*
X10241600Y-6190300D02*
X10281600Y-6230300D01*
X10281600Y-6190300D02*
X10241600Y-6230300D01*
X10254300Y-7676200D02*
X10294300Y-7716200D01*
X10294300Y-7676200D02*
X10254300Y-7716200D01*
X10254300Y-8031800D02*
X10294300Y-8071800D01*
X10294300Y-8031800D02*
X10254300Y-8071800D01*
X10394000Y-4094800D02*
X10434000Y-4134800D01*
X10434000Y-4094800D02*
X10394000Y-4134800D01*
X10406700Y-8806500D02*
X10446700Y-8846500D01*
X10446700Y-8806500D02*
X10406700Y-8846500D01*
X10406700Y-9505000D02*
X10446700Y-9545000D01*
X10446700Y-9505000D02*
X10406700Y-9545000D01*
X10419400Y-4348800D02*
X10459400Y-4388800D01*
X10459400Y-4348800D02*
X10419400Y-4388800D01*
X10457500Y-6558600D02*
X10497500Y-6598600D01*
X10497500Y-6558600D02*
X10457500Y-6598600D01*
X10470200Y-3993200D02*
X10510200Y-4033200D01*
X10510200Y-3993200D02*
X10470200Y-4033200D01*
X10470200Y-5339400D02*
X10510200Y-5379400D01*
X10510200Y-5339400D02*
X10470200Y-5379400D01*
X10476550Y-7022150D02*
X10516550Y-7062150D01*
X10516550Y-7022150D02*
X10476550Y-7062150D01*
X10508300Y-5788000D02*
X10548300Y-5828000D01*
X10548300Y-5788000D02*
X10508300Y-5828000D01*
X10508300Y-6812600D02*
X10548300Y-6852600D01*
X10548300Y-6812600D02*
X10508300Y-6852600D01*
X10559100Y-7625400D02*
X10599100Y-7665400D01*
X10599100Y-7625400D02*
X10559100Y-7665400D01*
X10559100Y-8412800D02*
X10599100Y-8452800D01*
X10599100Y-8412800D02*
X10559100Y-8452800D01*
X10571800Y-3917000D02*
X10611800Y-3957000D01*
X10611800Y-3917000D02*
X10571800Y-3957000D01*
X10571800Y-4602800D02*
X10611800Y-4642800D01*
X10611800Y-4602800D02*
X10571800Y-4642800D01*
X10584500Y-9047800D02*
X10624500Y-9087800D01*
X10624500Y-9047800D02*
X10584500Y-9087800D01*
X10597200Y-8793800D02*
X10637200Y-8833800D01*
X10637200Y-8793800D02*
X10597200Y-8833800D01*
X10635300Y-6977700D02*
X10675300Y-7017700D01*
X10675300Y-6977700D02*
X10635300Y-7017700D01*
X10648000Y-3840800D02*
X10688000Y-3880800D01*
X10688000Y-3840800D02*
X10648000Y-3880800D01*
X10648000Y-4679000D02*
X10688000Y-4719000D01*
X10688000Y-4679000D02*
X10648000Y-4719000D01*
X10648000Y-4882200D02*
X10688000Y-4922200D01*
X10688000Y-4882200D02*
X10648000Y-4922200D01*
X10648000Y-5377501D02*
X10688000Y-5417501D01*
X10688000Y-5377501D02*
X10648000Y-5417501D01*
X10648000Y-5738000D02*
X10688000Y-5778000D01*
X10688000Y-5738000D02*
X10648000Y-5778000D01*
X10742595Y-3769270D02*
X10782595Y-3809270D01*
X10782595Y-3769270D02*
X10742595Y-3809270D01*
X10813100Y-9289100D02*
X10853100Y-9329100D01*
X10853100Y-9289100D02*
X10813100Y-9329100D01*
X10825800Y-3713800D02*
X10865800Y-3753800D01*
X10865800Y-3713800D02*
X10825800Y-3753800D01*
X10927400Y-3663000D02*
X10967400Y-3703000D01*
X10967400Y-3663000D02*
X10927400Y-3703000D01*
X10990900Y-8031800D02*
X11030900Y-8071800D01*
X11030900Y-8031800D02*
X10990900Y-8071800D01*
X11003600Y-3561400D02*
X11043600Y-3601400D01*
X11043600Y-3561400D02*
X11003600Y-3601400D01*
X11029000Y-6406200D02*
X11069000Y-6446200D01*
X11069000Y-6406200D02*
X11029000Y-6446200D01*
X11079800Y-3993200D02*
X11119800Y-4033200D01*
X11119800Y-3993200D02*
X11079800Y-4033200D01*
X11079800Y-4094800D02*
X11119800Y-4134800D01*
X11119800Y-4094800D02*
X11079800Y-4134800D01*
X11105200Y-4679000D02*
X11145200Y-4719000D01*
X11145200Y-4679000D02*
X11105200Y-4719000D01*
X11130600Y-8679500D02*
X11170600Y-8719500D01*
X11170600Y-8679500D02*
X11130600Y-8719500D01*
X11206800Y-4602800D02*
X11246800Y-4642800D01*
X11246800Y-4602800D02*
X11206800Y-4642800D01*
X11270300Y-6799900D02*
X11310300Y-6839900D01*
X11310300Y-6799900D02*
X11270300Y-6839900D01*
X11321100Y-9047800D02*
X11361100Y-9087800D01*
X11361100Y-9047800D02*
X11321100Y-9087800D01*
X11371900Y-6952300D02*
X11411900Y-6992300D01*
X11411900Y-6952300D02*
X11371900Y-6992300D01*
X11371900Y-7580950D02*
X11411900Y-7620950D01*
X11411900Y-7580950D02*
X11371900Y-7620950D01*
X11422700Y-8552500D02*
X11462700Y-8592500D01*
X11462700Y-8552500D02*
X11422700Y-8592500D01*
X11467150Y-4463100D02*
X11507150Y-4503100D01*
X11507150Y-4463100D02*
X11467150Y-4503100D01*
X11537000Y-3409000D02*
X11577000Y-3449000D01*
X11577000Y-3409000D02*
X11537000Y-3449000D01*
X11537000Y-7638100D02*
X11577000Y-7678100D01*
X11577000Y-7638100D02*
X11537000Y-7678100D01*
X11587800Y-9466900D02*
X11627800Y-9506900D01*
X11627800Y-9466900D02*
X11587800Y-9506900D01*
X11638600Y-5796600D02*
X11678600Y-5836600D01*
X11678600Y-5796600D02*
X11638600Y-5836600D01*
X11664000Y-5314000D02*
X11704000Y-5354000D01*
X11704000Y-5314000D02*
X11664000Y-5354000D01*
X11727500Y-5695000D02*
X11767500Y-5735000D01*
X11767500Y-5695000D02*
X11727500Y-5735000D01*
X11752900Y-4736150D02*
X11792900Y-4776150D01*
X11792900Y-4736150D02*
X11752900Y-4776150D01*
X11752900Y-8031800D02*
X11792900Y-8071800D01*
X11792900Y-8031800D02*
X11752900Y-8071800D01*
X11765600Y-5237800D02*
X11805600Y-5277800D01*
X11805600Y-5237800D02*
X11765600Y-5277800D01*
X11791000Y-6406200D02*
X11831000Y-6446200D01*
X11831000Y-6406200D02*
X11791000Y-6446200D01*
X11867200Y-9505000D02*
X11907200Y-9545000D01*
X11907200Y-9505000D02*
X11867200Y-9545000D01*
X11937050Y-10057450D02*
X11977050Y-10097450D01*
X11977050Y-10057450D02*
X11937050Y-10097450D01*
X12006900Y-9505000D02*
X12046900Y-9545000D01*
X12046900Y-9505000D02*
X12006900Y-9545000D01*
X12017060Y-4137980D02*
X12057060Y-4177980D01*
X12057060Y-4137980D02*
X12017060Y-4177980D01*
X12019600Y-3379900D02*
X12059600Y-3419900D01*
X12059600Y-3379900D02*
X12019600Y-3419900D01*
X12057700Y-6672900D02*
X12097700Y-6712900D01*
X12097700Y-6672900D02*
X12057700Y-6712900D01*
X12070400Y-9047800D02*
X12110400Y-9087800D01*
X12110400Y-9047800D02*
X12070400Y-9087800D01*
X12083100Y-10343200D02*
X12123100Y-10383200D01*
X12123100Y-10343200D02*
X12083100Y-10383200D01*
X12111040Y-3607120D02*
X12151040Y-3647120D01*
X12151040Y-3607120D02*
X12111040Y-3647120D01*
X12111040Y-3927159D02*
X12151040Y-3967159D01*
X12151040Y-3927159D02*
X12111040Y-3967159D01*
X12146600Y-9505000D02*
X12186600Y-9545000D01*
X12186600Y-9505000D02*
X12146600Y-9545000D01*
X12172000Y-3379900D02*
X12212000Y-3419900D01*
X12212000Y-3379900D02*
X12172000Y-3419900D01*
X12197400Y-7574600D02*
X12237400Y-7614600D01*
X12237400Y-7574600D02*
X12197400Y-7614600D01*
X12311700Y-6933250D02*
X12351700Y-6973250D01*
X12351700Y-6933250D02*
X12311700Y-6973250D01*
X12311700Y-9505000D02*
X12351700Y-9545000D01*
X12351700Y-9505000D02*
X12311700Y-9545000D01*
X12324400Y-3409000D02*
X12364400Y-3449000D01*
X12364400Y-3409000D02*
X12324400Y-3449000D01*
X12343450Y-7580950D02*
X12383450Y-7620950D01*
X12383450Y-7580950D02*
X12343450Y-7620950D01*
X12387900Y-6361750D02*
X12427900Y-6401750D01*
X12427900Y-6361750D02*
X12387900Y-6401750D01*
X12502200Y-7860350D02*
X12542200Y-7900350D01*
X12542200Y-7860350D02*
X12502200Y-7900350D01*
X12502200Y-8304850D02*
X12542200Y-8344850D01*
X12542200Y-8304850D02*
X12502200Y-8344850D01*
X12502200Y-8698550D02*
X12542200Y-8738550D01*
X12542200Y-8698550D02*
X12502200Y-8738550D01*
X12502200Y-9079550D02*
X12542200Y-9119550D01*
X12542200Y-9079550D02*
X12502200Y-9119550D01*
X12502200Y-9492300D02*
X12542200Y-9532300D01*
X12542200Y-9492300D02*
X12502200Y-9532300D01*
X12553000Y-5682300D02*
X12593000Y-5722300D01*
X12593000Y-5682300D02*
X12553000Y-5722300D01*
X12680000Y-5949000D02*
X12720000Y-5989000D01*
X12720000Y-5949000D02*
X12680000Y-5989000D01*
X12972100Y-6545900D02*
X13012100Y-6585900D01*
X13012100Y-6545900D02*
X12972100Y-6585900D01*
X12972100Y-6736400D02*
X13012100Y-6776400D01*
X13012100Y-6736400D02*
X12972100Y-6776400D01*
X12984800Y-6990400D02*
X13024800Y-7030400D01*
X13024800Y-6990400D02*
X12984800Y-7030400D01*
X12997500Y-7701600D02*
X13037500Y-7741600D01*
X13037500Y-7701600D02*
X12997500Y-7741600D01*
X13022900Y-8146100D02*
X13062900Y-8186100D01*
X13062900Y-8146100D02*
X13022900Y-8186100D01*
X13022900Y-8539800D02*
X13062900Y-8579800D01*
X13062900Y-8539800D02*
X13022900Y-8579800D01*
X13022900Y-10311450D02*
X13062900Y-10351450D01*
X13062900Y-10311450D02*
X13022900Y-10351450D01*
X13029250Y-10006650D02*
X13069250Y-10046650D01*
X13069250Y-10006650D02*
X13029250Y-10046650D01*
X13029250Y-10463850D02*
X13069250Y-10503850D01*
X13069250Y-10463850D02*
X13029250Y-10503850D01*
X13035600Y-8920800D02*
X13075600Y-8960800D01*
X13075600Y-8920800D02*
X13035600Y-8960800D01*
X13061000Y-9314500D02*
X13101000Y-9354500D01*
X13101000Y-9314500D02*
X13061000Y-9354500D01*
X13194350Y-10540050D02*
X13234350Y-10580050D01*
X13234350Y-10540050D02*
X13194350Y-10580050D01*
X13302300Y-6622100D02*
X13342300Y-6662100D01*
X13342300Y-6622100D02*
X13302300Y-6662100D01*
X13391200Y-8895400D02*
X13431200Y-8935400D01*
X13431200Y-8895400D02*
X13391200Y-8935400D01*
X13594400Y-6330000D02*
X13634400Y-6370000D01*
X13634400Y-6330000D02*
X13594400Y-6370000D01*
X13823000Y-6482400D02*
X13863000Y-6522400D01*
X13863000Y-6482400D02*
X13823000Y-6522400D01*
X13857459Y-4916659D02*
X13897459Y-4956659D01*
X13897459Y-4916659D02*
X13857459Y-4956659D01*
X13899200Y-8539800D02*
X13939200Y-8579800D01*
X13939200Y-8539800D02*
X13899200Y-8579800D01*
X13924600Y-7854000D02*
X13964600Y-7894000D01*
X13964600Y-7854000D02*
X13924600Y-7894000D01*
X13950000Y-6711000D02*
X13990000Y-6751000D01*
X13990000Y-6711000D02*
X13950000Y-6751000D01*
X13950000Y-7124000D02*
X13990000Y-7164000D01*
X13990000Y-7124000D02*
X13950000Y-7164000D01*
X13950000Y-7346000D02*
X13990000Y-7386000D01*
X13990000Y-7346000D02*
X13950000Y-7386000D01*
X13950000Y-9505000D02*
X13990000Y-9545000D01*
X13990000Y-9505000D02*
X13950000Y-9545000D01*
X13975400Y-4920300D02*
X14015400Y-4960300D01*
X14015400Y-4920300D02*
X13975400Y-4960300D01*
X14038900Y-6266500D02*
X14078900Y-6306500D01*
X14078900Y-6266500D02*
X14038900Y-6306500D01*
X14115100Y-5923600D02*
X14155100Y-5963600D01*
X14155100Y-5923600D02*
X14115100Y-5963600D01*
X14153200Y-7803200D02*
X14193200Y-7843200D01*
X14193200Y-7803200D02*
X14153200Y-7843200D01*
X14254800Y-9124000D02*
X14294800Y-9164000D01*
X14294800Y-9124000D02*
X14254800Y-9164000D01*
X14280200Y-7803200D02*
X14320200Y-7843200D01*
X14320200Y-7803200D02*
X14280200Y-7843200D01*
X14324650Y-10019350D02*
X14364650Y-10059350D01*
X14364650Y-10019350D02*
X14324650Y-10059350D01*
X14324650Y-10489250D02*
X14364650Y-10529250D01*
X14364650Y-10489250D02*
X14324650Y-10529250D01*
X14331000Y-8438200D02*
X14371000Y-8478200D01*
X14371000Y-8438200D02*
X14331000Y-8478200D01*
X14337350Y-6920550D02*
X14377350Y-6960550D01*
X14377350Y-6920550D02*
X14337350Y-6960550D01*
X14369100Y-6279200D02*
X14409100Y-6319200D01*
X14409100Y-6279200D02*
X14369100Y-6319200D01*
X14381800Y-9505000D02*
X14421800Y-9545000D01*
X14421800Y-9505000D02*
X14381800Y-9545000D01*
X14464350Y-6876100D02*
X14504350Y-6916100D01*
X14504350Y-6876100D02*
X14464350Y-6916100D01*
X14534200Y-6279200D02*
X14574200Y-6319200D01*
X14574200Y-6279200D02*
X14534200Y-6319200D01*
X14546900Y-7142800D02*
X14586900Y-7182800D01*
X14586900Y-7142800D02*
X14546900Y-7182800D01*
X14585000Y-6711000D02*
X14625000Y-6751000D01*
X14625000Y-6711000D02*
X14585000Y-6751000D01*
X14597700Y-7346000D02*
X14637700Y-7386000D01*
X14637700Y-7346000D02*
X14597700Y-7386000D01*
X14635800Y-8768400D02*
X14675800Y-8808400D01*
X14675800Y-8768400D02*
X14635800Y-8808400D01*
X14648500Y-7638100D02*
X14688500Y-7678100D01*
X14688500Y-7638100D02*
X14648500Y-7678100D01*
X14686600Y-5314000D02*
X14726600Y-5354000D01*
X14726600Y-5314000D02*
X14686600Y-5354000D01*
X14712000Y-4894900D02*
X14752000Y-4934900D01*
X14752000Y-4894900D02*
X14712000Y-4934900D01*
X14737400Y-7828600D02*
X14777400Y-7868600D01*
X14777400Y-7828600D02*
X14737400Y-7868600D01*
X14762800Y-8666799D02*
X14802800Y-8706799D01*
X14802800Y-8666799D02*
X14762800Y-8706799D01*
X14788200Y-5237800D02*
X14828200Y-5277800D01*
X14828200Y-5237800D02*
X14788200Y-5277800D01*
X14818680Y-6838000D02*
X14858680Y-6878000D01*
X14858680Y-6838000D02*
X14818680Y-6878000D01*
X14839000Y-7904800D02*
X14879000Y-7944800D01*
X14879000Y-7904800D02*
X14839000Y-7944800D01*
X14905040Y-6289360D02*
X14945040Y-6329360D01*
X14945040Y-6289360D02*
X14905040Y-6329360D01*
X15042200Y-7955600D02*
X15082200Y-7995600D01*
X15082200Y-7955600D02*
X15042200Y-7995600D01*
X15067600Y-9505000D02*
X15107600Y-9545000D01*
X15107600Y-9505000D02*
X15067600Y-9545000D01*
X15093000Y-3028000D02*
X15133000Y-3068000D01*
X15133000Y-3028000D02*
X15093000Y-3068000D01*
X15093000Y-3332800D02*
X15133000Y-3372800D01*
X15133000Y-3332800D02*
X15093000Y-3372800D01*
X15118400Y-8514400D02*
X15158400Y-8554400D01*
X15158400Y-8514400D02*
X15118400Y-8554400D01*
X15194600Y-8641400D02*
X15234600Y-8681400D01*
X15234600Y-8641400D02*
X15194600Y-8681400D01*
X15268000Y-9101400D02*
X15308000Y-9141400D01*
X15308000Y-9101400D02*
X15268000Y-9141400D01*
X15321600Y-4145600D02*
X15361600Y-4185600D01*
X15361600Y-4145600D02*
X15321600Y-4185600D01*
X15362240Y-7478080D02*
X15402240Y-7518080D01*
X15402240Y-7478080D02*
X15362240Y-7518080D01*
X15392720Y-7356160D02*
X15432720Y-7396160D01*
X15432720Y-7356160D02*
X15392720Y-7396160D01*
X15423199Y-7219000D02*
X15463199Y-7259000D01*
X15463199Y-7219000D02*
X15423199Y-7259000D01*
X15423200Y-7600000D02*
X15463200Y-7640000D01*
X15463200Y-7600000D02*
X15423200Y-7640000D01*
X15435902Y-6838000D02*
X15475902Y-6878000D01*
X15475902Y-6838000D02*
X15435902Y-6878000D01*
X15448599Y-6457000D02*
X15488599Y-6497000D01*
X15488599Y-6457000D02*
X15448599Y-6497000D01*
X15734350Y-10540050D02*
X15774350Y-10580050D01*
X15774350Y-10540050D02*
X15734350Y-10580050D01*
X15747050Y-10006650D02*
X15787050Y-10046650D01*
X15787050Y-10006650D02*
X15747050Y-10046650D01*
X15855000Y-8616000D02*
X15895000Y-8656000D01*
X15895000Y-8616000D02*
X15855000Y-8656000D01*
X15905800Y-8400100D02*
X15945800Y-8440100D01*
X15945800Y-8400100D02*
X15905800Y-8440100D01*
X15974705Y-6990400D02*
X16014705Y-7030400D01*
X16014705Y-6990400D02*
X15974705Y-7030400D01*
X16032800Y-6304600D02*
X16072800Y-6344600D01*
X16072800Y-6304600D02*
X16032800Y-6344600D01*
X16342680Y-6375720D02*
X16382680Y-6415720D01*
X16382680Y-6375720D02*
X16342680Y-6415720D01*
X16398560Y-7158040D02*
X16438560Y-7198040D01*
X16438560Y-7158040D02*
X16398560Y-7198040D01*
X16413800Y-6711000D02*
X16453800Y-6751000D01*
X16453800Y-6711000D02*
X16413800Y-6751000D01*
X16413800Y-7346000D02*
X16453800Y-7386000D01*
X16453800Y-7346000D02*
X16413800Y-7386000D01*
X16413800Y-8362000D02*
X16453800Y-8402000D01*
X16453800Y-8362000D02*
X16413800Y-8402000D01*
X16439200Y-8501700D02*
X16479200Y-8541700D01*
X16479200Y-8501700D02*
X16439200Y-8541700D01*
X16449360Y-7676200D02*
X16489360Y-7716200D01*
X16489360Y-7676200D02*
X16449360Y-7716200D01*
X16451900Y-9149400D02*
X16491900Y-9189400D01*
X16491900Y-9149400D02*
X16451900Y-9189400D01*
X16540800Y-5771200D02*
X16580800Y-5811200D01*
X16580800Y-5771200D02*
X16540800Y-5811200D01*
X16550960Y-8616000D02*
X16590960Y-8656000D01*
X16590960Y-8616000D02*
X16550960Y-8656000D01*
X16571280Y-8986840D02*
X16611280Y-9026840D01*
X16611280Y-8986840D02*
X16571280Y-9026840D01*
X16578900Y-6926900D02*
X16618900Y-6966900D01*
X16618900Y-6926900D02*
X16578900Y-6966900D01*
X16591600Y-7231700D02*
X16631600Y-7271700D01*
X16631600Y-7231700D02*
X16591600Y-7271700D01*
X16642400Y-5720400D02*
X16682400Y-5760400D01*
X16682400Y-5720400D02*
X16642400Y-5760400D01*
X16667800Y-4920300D02*
X16707800Y-4960300D01*
X16707800Y-4920300D02*
X16667800Y-4960300D01*
X16667800Y-8514400D02*
X16707800Y-8554400D01*
X16707800Y-8514400D02*
X16667800Y-8554400D01*
X16794800Y-4425000D02*
X16834800Y-4465000D01*
X16834800Y-4425000D02*
X16794800Y-4465000D01*
X16896400Y-4018600D02*
X16936400Y-4058600D01*
X16936400Y-4018600D02*
X16896400Y-4058600D01*
X16947200Y-4171000D02*
X16987200Y-4211000D01*
X16987200Y-4171000D02*
X16947200Y-4211000D01*
X16998000Y-3713800D02*
X17038000Y-3753800D01*
X17038000Y-3713800D02*
X16998000Y-3753800D01*
X16998000Y-4425000D02*
X17038000Y-4465000D01*
X17038000Y-4425000D02*
X16998000Y-4465000D01*
X17028480Y-6299520D02*
X17068480Y-6339520D01*
X17068480Y-6299520D02*
X17028480Y-6339520D01*
X17155480Y-6939600D02*
X17195480Y-6979600D01*
X17195480Y-6939600D02*
X17155480Y-6979600D01*
X17163100Y-8984300D02*
X17203100Y-9024300D01*
X17203100Y-8984300D02*
X17163100Y-9024300D01*
X17175800Y-6711000D02*
X17215800Y-6751000D01*
X17215800Y-6711000D02*
X17175800Y-6751000D01*
X17175800Y-8362000D02*
X17215800Y-8402000D01*
X17215800Y-8362000D02*
X17175800Y-8402000D01*
X17175800Y-8501700D02*
X17215800Y-8541700D01*
X17215800Y-8501700D02*
X17175800Y-8541700D01*
X17201200Y-9149400D02*
X17241200Y-9189400D01*
X17241200Y-9149400D02*
X17201200Y-9189400D01*
X17239300Y-8628700D02*
X17279300Y-8668700D01*
X17279300Y-8628700D02*
X17239300Y-8668700D01*
X17353135Y-3611735D02*
X17393135Y-3651735D01*
X17393135Y-3611735D02*
X17353135Y-3651735D01*
X17384080Y-6700840D02*
X17424080Y-6740840D01*
X17424080Y-6700840D02*
X17384080Y-6740840D01*
X17385350Y-10057450D02*
X17425350Y-10097450D01*
X17425350Y-10057450D02*
X17385350Y-10097450D01*
X17385350Y-10540050D02*
X17425350Y-10580050D01*
X17425350Y-10540050D02*
X17385350Y-10580050D01*
X17404400Y-4933000D02*
X17444400Y-4973000D01*
X17444400Y-4933000D02*
X17404400Y-4973000D01*
X17506000Y-3739200D02*
X17546000Y-3779200D01*
X17546000Y-3739200D02*
X17506000Y-3779200D01*
X17506000Y-4374200D02*
X17546000Y-4414200D01*
X17546000Y-4374200D02*
X17506000Y-4414200D01*
X17607600Y-4577400D02*
X17647600Y-4617400D01*
X17647600Y-4577400D02*
X17607600Y-4617400D01*
X17607600Y-5237800D02*
X17647600Y-5277800D01*
X17647600Y-5237800D02*
X17607600Y-5277800D01*
X17734600Y-5314000D02*
X17774600Y-5354000D01*
X17774600Y-5314000D02*
X17734600Y-5354000D01*
X17770160Y-6289360D02*
X17810160Y-6329360D01*
X17810160Y-6289360D02*
X17770160Y-6329360D01*
X17871760Y-7183440D02*
X17911760Y-7223440D01*
X17911760Y-7183440D02*
X17871760Y-7223440D01*
X17912400Y-5720400D02*
X17952400Y-5760400D01*
X17952400Y-5720400D02*
X17912400Y-5760400D01*
X17937800Y-6711000D02*
X17977800Y-6751000D01*
X17977800Y-6711000D02*
X17937800Y-6751000D01*
X17963200Y-3104200D02*
X18003200Y-3144200D01*
X18003200Y-3104200D02*
X17963200Y-3144200D01*
X17963200Y-8400100D02*
X18003200Y-8440100D01*
X18003200Y-8400100D02*
X17963200Y-8440100D01*
X17963200Y-9149400D02*
X18003200Y-9189400D01*
X18003200Y-9149400D02*
X17963200Y-9189400D01*
X18001300Y-8616000D02*
X18041300Y-8656000D01*
X18041300Y-8616000D02*
X18001300Y-8656000D01*
X18014000Y-9543100D02*
X18054000Y-9583100D01*
X18054000Y-9543100D02*
X18014000Y-9583100D01*
X18026700Y-7511100D02*
X18066700Y-7551100D01*
X18066700Y-7511100D02*
X18026700Y-7551100D01*
X18064800Y-3205800D02*
X18104800Y-3245800D01*
X18104800Y-3205800D02*
X18064800Y-3245800D01*
X18064800Y-3967800D02*
X18104800Y-4007800D01*
X18104800Y-3967800D02*
X18064800Y-4007800D01*
X18115600Y-5314000D02*
X18155600Y-5354000D01*
X18155600Y-5314000D02*
X18115600Y-5354000D01*
X18166400Y-3307400D02*
X18206400Y-3347400D01*
X18206400Y-3307400D02*
X18166400Y-3347400D01*
X18268000Y-3409000D02*
X18308000Y-3449000D01*
X18308000Y-3409000D02*
X18268000Y-3449000D01*
X18364520Y-9235760D02*
X18404520Y-9275760D01*
X18404520Y-9235760D02*
X18364520Y-9275760D01*
X18369600Y-8443280D02*
X18409600Y-8483280D01*
X18409600Y-8443280D02*
X18369600Y-8483280D01*
X18382300Y-6761800D02*
X18422300Y-6801800D01*
X18422300Y-6761800D02*
X18382300Y-6801800D01*
X18384840Y-7488240D02*
X18424840Y-7528240D01*
X18424840Y-7488240D02*
X18384840Y-7528240D01*
X18547400Y-4780600D02*
X18587400Y-4820600D01*
X18587400Y-4780600D02*
X18547400Y-4820600D01*
X18623600Y-4602800D02*
X18663600Y-4642800D01*
X18663600Y-4602800D02*
X18623600Y-4642800D01*
X18674400Y-4958400D02*
X18714400Y-4998400D01*
X18714400Y-4958400D02*
X18674400Y-4998400D01*
X18699800Y-4526600D02*
X18739800Y-4566600D01*
X18739800Y-4526600D02*
X18699800Y-4566600D01*
X18877600Y-4336599D02*
X18917600Y-4376599D01*
X18917600Y-4336599D02*
X18877600Y-4376599D01*
X18877600Y-6533200D02*
X18917600Y-6573200D01*
X18917600Y-6533200D02*
X18877600Y-6573200D01*
X18877600Y-6914200D02*
X18917600Y-6954200D01*
X18917600Y-6914200D02*
X18877600Y-6954200D01*
X18877600Y-7295200D02*
X18917600Y-7335200D01*
X18917600Y-7295200D02*
X18877600Y-7335200D01*
X18877600Y-7701600D02*
X18917600Y-7741600D01*
X18917600Y-7701600D02*
X18877600Y-7741600D01*
X18877600Y-8260400D02*
X18917600Y-8300400D01*
X18917600Y-8260400D02*
X18877600Y-8300400D01*
X18877600Y-8641400D02*
X18917600Y-8681400D01*
X18917600Y-8641400D02*
X18877600Y-8681400D01*
X18877600Y-9047800D02*
X18917600Y-9087800D01*
X18917600Y-9047800D02*
X18877600Y-9087800D01*
X18890300Y-9428800D02*
X18930300Y-9468800D01*
X18930300Y-9428800D02*
X18890300Y-9468800D01*
X19004600Y-4272600D02*
X19044600Y-4312600D01*
X19044600Y-4272600D02*
X19004600Y-4312600D01*
X19106200Y-4729800D02*
X19146200Y-4769800D01*
X19146200Y-4729800D02*
X19106200Y-4769800D01*
X19207335Y-4805535D02*
X19247335Y-4845535D01*
X19247335Y-4805535D02*
X19207335Y-4845535D01*
X19207800Y-4907600D02*
X19247800Y-4947600D01*
X19247800Y-4907600D02*
X19207800Y-4947600D01*
X19258600Y-5212400D02*
X19298600Y-5252400D01*
X19298600Y-5212400D02*
X19258600Y-5252400D01*
X19334800Y-4272600D02*
X19374800Y-4312600D01*
X19374800Y-4272600D02*
X19334800Y-4312600D01*
X19360200Y-5572500D02*
X19400200Y-5612500D01*
X19400200Y-5572500D02*
X19360200Y-5612500D01*
X19366550Y-7663500D02*
X19406550Y-7703500D01*
X19406550Y-7663500D02*
X19366550Y-7703500D01*
X19385600Y-8743000D02*
X19425600Y-8783000D01*
X19425600Y-8743000D02*
X19385600Y-8783000D01*
X19436400Y-5085400D02*
X19476400Y-5125400D01*
X19476400Y-5085400D02*
X19436400Y-5125400D01*
X19487200Y-4094800D02*
X19527200Y-4134800D01*
X19527200Y-4094800D02*
X19487200Y-4134800D01*
X19487200Y-5572500D02*
X19527200Y-5612500D01*
X19527200Y-5572500D02*
X19487200Y-5612500D01*
X19512600Y-5187000D02*
X19552600Y-5227000D01*
X19552600Y-5187000D02*
X19512600Y-5227000D01*
X19582450Y-9816150D02*
X19622450Y-9856150D01*
X19622450Y-9816150D02*
X19582450Y-9856150D01*
X19614200Y-4171000D02*
X19654200Y-4211000D01*
X19654200Y-4171000D02*
X19614200Y-4211000D01*
X19690400Y-4770440D02*
X19730400Y-4810440D01*
X19730400Y-4770440D02*
X19690400Y-4810440D01*
X19690400Y-5898200D02*
X19730400Y-5938200D01*
X19730400Y-5898200D02*
X19690400Y-5938200D01*
X19741199Y-7041200D02*
X19781199Y-7081200D01*
X19781199Y-7041200D02*
X19741199Y-7081200D01*
X19812803Y-5697797D02*
X19852803Y-5737797D01*
X19852803Y-5697797D02*
X19812803Y-5737797D01*
X19817400Y-3993200D02*
X19857400Y-4033200D01*
X19857400Y-3993200D02*
X19817400Y-4033200D01*
X19817400Y-5999800D02*
X19857400Y-6039800D01*
X19857400Y-5999800D02*
X19817400Y-6039800D01*
X19842800Y-5602401D02*
X19882800Y-5642401D01*
X19882800Y-5602401D02*
X19842800Y-5642401D01*
X19842800Y-5822000D02*
X19882800Y-5862000D01*
X19882800Y-5822000D02*
X19842800Y-5862000D01*
X19872623Y-4135264D02*
X19912623Y-4175264D01*
X19912623Y-4135264D02*
X19872623Y-4175264D01*
X19944400Y-5085400D02*
X19984400Y-5125400D01*
X19984400Y-5085400D02*
X19944400Y-5125400D01*
X19944400Y-5187000D02*
X19984400Y-5227000D01*
X19984400Y-5187000D02*
X19944400Y-5227000D01*
X20054600Y-3781400D02*
X20094600Y-3821400D01*
X20094600Y-3781400D02*
X20054600Y-3821400D01*
X20096800Y-6279200D02*
X20136800Y-6319200D01*
X20136800Y-6279200D02*
X20096800Y-6319200D01*
X20096800Y-8336600D02*
X20136800Y-8376600D01*
X20136800Y-8336600D02*
X20096800Y-8376600D01*
X20147600Y-5847400D02*
X20187600Y-5887400D01*
X20187600Y-5847400D02*
X20147600Y-5887400D01*
X20274600Y-5695000D02*
X20314600Y-5735000D01*
X20314600Y-5695000D02*
X20274600Y-5735000D01*
X20325400Y-6685600D02*
X20365400Y-6725600D01*
X20365400Y-6685600D02*
X20325400Y-6725600D01*
X20335560Y-5938840D02*
X20375560Y-5978840D01*
X20375560Y-5938840D02*
X20335560Y-5978840D01*
X20350800Y-8698799D02*
X20390800Y-8738799D01*
X20390800Y-8698799D02*
X20350800Y-8738799D01*
X20359600Y-5085400D02*
X20399600Y-5125400D01*
X20399600Y-5085400D02*
X20359600Y-5125400D01*
X20359600Y-5187000D02*
X20399600Y-5227000D01*
X20399600Y-5187000D02*
X20359600Y-5227000D01*
X20386360Y-4689160D02*
X20426360Y-4729160D01*
X20426360Y-4689160D02*
X20386360Y-4729160D01*
X20421920Y-8483920D02*
X20461920Y-8523920D01*
X20461920Y-8483920D02*
X20421920Y-8523920D01*
X20427000Y-8133400D02*
X20467000Y-8173400D01*
X20467000Y-8133400D02*
X20427000Y-8173400D01*
X20427000Y-8336600D02*
X20467000Y-8376600D01*
X20467000Y-8336600D02*
X20427000Y-8376600D01*
X20589560Y-4450400D02*
X20629560Y-4490400D01*
X20629560Y-4450400D02*
X20589560Y-4490400D01*
X20604800Y-7625400D02*
X20644800Y-7665400D01*
X20644800Y-7625400D02*
X20604800Y-7665400D01*
X20655600Y-3891600D02*
X20695600Y-3931600D01*
X20695600Y-3891600D02*
X20655600Y-3931600D01*
X20731800Y-4715200D02*
X20771800Y-4755200D01*
X20771800Y-4715200D02*
X20731800Y-4755200D01*
X20731800Y-4990200D02*
X20771800Y-5030200D01*
X20771800Y-4990200D02*
X20731800Y-5030200D01*
X20757200Y-3942400D02*
X20797200Y-3982400D01*
X20797200Y-3942400D02*
X20757200Y-3982400D01*
X20757200Y-5330621D02*
X20797200Y-5370621D01*
X20797200Y-5330621D02*
X20757200Y-5370621D01*
X20757200Y-5695000D02*
X20797200Y-5735000D01*
X20797200Y-5695000D02*
X20757200Y-5735000D01*
X20792760Y-5100640D02*
X20832760Y-5140640D01*
X20832760Y-5100640D02*
X20792760Y-5140640D01*
X20808000Y-4211698D02*
X20848000Y-4251698D01*
X20848000Y-4211698D02*
X20808000Y-4251698D01*
X20808000Y-4446700D02*
X20848000Y-4486700D01*
X20848000Y-4446700D02*
X20808000Y-4486700D01*
X20833400Y-4602800D02*
X20873400Y-4642800D01*
X20873400Y-4602800D02*
X20833400Y-4642800D01*
X20858800Y-5822000D02*
X20898800Y-5862000D01*
X20898800Y-5822000D02*
X20858800Y-5862000D01*
X20858800Y-5949000D02*
X20898800Y-5989000D01*
X20898800Y-5949000D02*
X20858800Y-5989000D01*
X20871500Y-5330621D02*
X20911500Y-5370621D01*
X20911500Y-5330621D02*
X20871500Y-5370621D01*
X20888870Y-4519595D02*
X20928870Y-4559595D01*
X20928870Y-4519595D02*
X20888870Y-4559595D01*
X20909600Y-3993200D02*
X20949600Y-4033200D01*
X20949600Y-3993200D02*
X20909600Y-4033200D01*
X20960400Y-4256699D02*
X21000400Y-4296699D01*
X21000400Y-4256699D02*
X20960400Y-4296699D01*
X20965480Y-6980240D02*
X21005480Y-7020240D01*
X21005480Y-6980240D02*
X20965480Y-7020240D01*
X20965480Y-8168960D02*
X21005480Y-8208960D01*
X21005480Y-8168960D02*
X20965480Y-8208960D01*
X21011200Y-5390200D02*
X21051200Y-5430200D01*
X21051200Y-5390200D02*
X21011200Y-5430200D01*
X21036600Y-8336600D02*
X21076600Y-8376600D01*
X21076600Y-8336600D02*
X21036600Y-8376600D01*
X21112800Y-6609400D02*
X21152800Y-6649400D01*
X21152800Y-6609400D02*
X21112800Y-6649400D01*
X21112800Y-8641400D02*
X21152800Y-8681400D01*
X21152800Y-8641400D02*
X21112800Y-8681400D01*
X21122960Y-8473760D02*
X21162960Y-8513760D01*
X21162960Y-8473760D02*
X21122960Y-8513760D01*
X21189000Y-4780600D02*
X21229000Y-4820600D01*
X21229000Y-4780600D02*
X21189000Y-4820600D01*
X21189000Y-5390200D02*
X21229000Y-5430200D01*
X21229000Y-5390200D02*
X21189000Y-5430200D01*
X21213935Y-4450865D02*
X21253935Y-4490865D01*
X21253935Y-4450865D02*
X21213935Y-4490865D01*
X21290600Y-4552000D02*
X21330600Y-4592000D01*
X21330600Y-4552000D02*
X21290600Y-4592000D01*
X21316000Y-4196400D02*
X21356000Y-4236400D01*
X21356000Y-4196400D02*
X21316000Y-4236400D01*
X21316000Y-4679000D02*
X21356000Y-4719000D01*
X21356000Y-4679000D02*
X21316000Y-4719000D01*
X21316000Y-4856800D02*
X21356000Y-4896800D01*
X21356000Y-4856800D02*
X21316000Y-4896800D01*
X21316000Y-4983800D02*
X21356000Y-5023800D01*
X21356000Y-4983800D02*
X21316000Y-5023800D01*
X21316000Y-5390200D02*
X21356000Y-5430200D01*
X21356000Y-5390200D02*
X21316000Y-5430200D01*
X21341400Y-8717600D02*
X21381400Y-8757600D01*
X21381400Y-8717600D02*
X21341400Y-8757600D01*
X21366800Y-9886000D02*
X21406800Y-9926000D01*
X21406800Y-9886000D02*
X21366800Y-9926000D01*
X21417600Y-6711000D02*
X21457600Y-6751000D01*
X21457600Y-6711000D02*
X21417600Y-6751000D01*
X21455700Y-9124000D02*
X21495700Y-9164000D01*
X21495700Y-9124000D02*
X21455700Y-9164000D01*
X21481100Y-8006400D02*
X21521100Y-8046400D01*
X21521100Y-8006400D02*
X21481100Y-8046400D01*
X21518735Y-3968265D02*
X21558735Y-4008265D01*
X21558735Y-3968265D02*
X21518735Y-4008265D01*
X21600480Y-9042720D02*
X21640480Y-9082720D01*
X21640480Y-9042720D02*
X21600480Y-9082720D01*
X21620800Y-5188980D02*
X21660800Y-5228980D01*
X21660800Y-5188980D02*
X21620800Y-5228980D01*
X21716451Y-5116480D02*
X21756451Y-5156480D01*
X21756451Y-5116480D02*
X21716451Y-5156480D01*
X21773200Y-4983800D02*
X21813200Y-5023800D01*
X21813200Y-4983800D02*
X21773200Y-5023800D01*
X21849400Y-4425000D02*
X21889400Y-4465000D01*
X21889400Y-4425000D02*
X21849400Y-4465000D01*
X21849400Y-4577400D02*
X21889400Y-4617400D01*
X21889400Y-4577400D02*
X21849400Y-4617400D01*
X22027200Y-4907600D02*
X22067200Y-4947600D01*
X22067200Y-4907600D02*
X22027200Y-4947600D01*
X22058950Y-7942900D02*
X22098950Y-7982900D01*
X22098950Y-7942900D02*
X22058950Y-7982900D01*
X22078000Y-8362000D02*
X22118000Y-8402000D01*
X22118000Y-8362000D02*
X22078000Y-8402000D01*
X22103400Y-4501200D02*
X22143400Y-4541200D01*
X22143400Y-4501200D02*
X22103400Y-4541200D01*
X22103400Y-4806000D02*
X22143400Y-4846000D01*
X22143400Y-4806000D02*
X22103400Y-4846000D01*
X22128800Y-6330000D02*
X22168800Y-6370000D01*
X22168800Y-6330000D02*
X22128800Y-6370000D01*
X22247000Y-6711000D02*
X22287000Y-6751000D01*
X22287000Y-6711000D02*
X22247000Y-6751000D01*
X22281200Y-6457000D02*
X22321200Y-6497000D01*
X22321200Y-6457000D02*
X22281200Y-6497000D01*
X22281200Y-8712520D02*
X22321200Y-8752520D01*
X22321200Y-8712520D02*
X22281200Y-8752520D01*
X22427801Y-8319099D02*
X22467801Y-8359099D01*
X22467801Y-8319099D02*
X22427801Y-8359099D01*
X22459000Y-6018850D02*
X22499000Y-6058850D01*
X22499000Y-6018850D02*
X22459000Y-6058850D01*
X22522500Y-5904550D02*
X22562500Y-5944550D01*
X22562500Y-5904550D02*
X22522500Y-5944550D01*
X22585003Y-5796600D02*
X22625003Y-5836600D01*
X22625003Y-5796600D02*
X22585003Y-5836600D01*
X22649500Y-5688650D02*
X22689500Y-5728650D01*
X22689500Y-5688650D02*
X22649500Y-5728650D01*
X5638000Y-3378200D02*
G75*
G03*
X5638000Y-3378200I-50000J0D01*
G01*
X5638000Y-3632200D02*
G75*
G03*
X5638000Y-3632200I-50000J0D01*
G01*
X5638000Y-3886200D02*
G75*
G03*
X5638000Y-3886200I-50000J0D01*
G01*
X5638000Y-4140200D02*
G75*
G03*
X5638000Y-4140200I-50000J0D01*
G01*
X5638000Y-4394200D02*
G75*
G03*
X5638000Y-4394200I-50000J0D01*
G01*
X5638000Y-4648200D02*
G75*
G03*
X5638000Y-4648200I-50000J0D01*
G01*
X5638000Y-4902200D02*
G75*
G03*
X5638000Y-4902200I-50000J0D01*
G01*
X5638000Y-5156200D02*
G75*
G03*
X5638000Y-5156200I-50000J0D01*
G01*
X5638000Y-5410200D02*
G75*
G03*
X5638000Y-5410200I-50000J0D01*
G01*
X5638000Y-5664200D02*
G75*
G03*
X5638000Y-5664200I-50000J0D01*
G01*
X5638000Y-5918200D02*
G75*
G03*
X5638000Y-5918200I-50000J0D01*
G01*
X5638000Y-6172200D02*
G75*
G03*
X5638000Y-6172200I-50000J0D01*
G01*
X5638000Y-6426200D02*
G75*
G03*
X5638000Y-6426200I-50000J0D01*
G01*
X5638000Y-6680200D02*
G75*
G03*
X5638000Y-6680200I-50000J0D01*
G01*
X5638000Y-6934200D02*
G75*
G03*
X5638000Y-6934200I-50000J0D01*
G01*
X5638000Y-7188200D02*
G75*
G03*
X5638000Y-7188200I-50000J0D01*
G01*
X5638000Y-7442200D02*
G75*
G03*
X5638000Y-7442200I-50000J0D01*
G01*
X5638000Y-7696200D02*
G75*
G03*
X5638000Y-7696200I-50000J0D01*
G01*
X5638000Y-7950200D02*
G75*
G03*
X5638000Y-7950200I-50000J0D01*
G01*
X5638000Y-8204200D02*
G75*
G03*
X5638000Y-8204200I-50000J0D01*
G01*
X5892000Y-3378200D02*
G75*
G03*
X5892000Y-3378200I-50000J0D01*
G01*
X5892000Y-3632200D02*
G75*
G03*
X5892000Y-3632200I-50000J0D01*
G01*
X5892000Y-3886200D02*
G75*
G03*
X5892000Y-3886200I-50000J0D01*
G01*
X5892000Y-4140200D02*
G75*
G03*
X5892000Y-4140200I-50000J0D01*
G01*
X5892000Y-4394200D02*
G75*
G03*
X5892000Y-4394200I-50000J0D01*
G01*
X5892000Y-4648200D02*
G75*
G03*
X5892000Y-4648200I-50000J0D01*
G01*
X5892000Y-4902200D02*
G75*
G03*
X5892000Y-4902200I-50000J0D01*
G01*
X5892000Y-5156200D02*
G75*
G03*
X5892000Y-5156200I-50000J0D01*
G01*
X5892000Y-5410200D02*
G75*
G03*
X5892000Y-5410200I-50000J0D01*
G01*
X5892000Y-5664200D02*
G75*
G03*
X5892000Y-5664200I-50000J0D01*
G01*
X5892000Y-5918200D02*
G75*
G03*
X5892000Y-5918200I-50000J0D01*
G01*
X5892000Y-6172200D02*
G75*
G03*
X5892000Y-6172200I-50000J0D01*
G01*
X5892000Y-6426200D02*
G75*
G03*
X5892000Y-6426200I-50000J0D01*
G01*
X5892000Y-6680200D02*
G75*
G03*
X5892000Y-6680200I-50000J0D01*
G01*
X5892000Y-6934200D02*
G75*
G03*
X5892000Y-6934200I-50000J0D01*
G01*
X5892000Y-7188200D02*
G75*
G03*
X5892000Y-7188200I-50000J0D01*
G01*
X5892000Y-7442200D02*
G75*
G03*
X5892000Y-7442200I-50000J0D01*
G01*
X5892000Y-7696200D02*
G75*
G03*
X5892000Y-7696200I-50000J0D01*
G01*
X5892000Y-7950200D02*
G75*
G03*
X5892000Y-7950200I-50000J0D01*
G01*
X5892000Y-8204200D02*
G75*
G03*
X5892000Y-8204200I-50000J0D01*
G01*
X5917400Y-10172700D02*
G75*
G03*
X5917400Y-10172700I-50000J0D01*
G01*
X5917400Y-10426700D02*
G75*
G03*
X5917400Y-10426700I-50000J0D01*
G01*
X6171400Y-10172700D02*
G75*
G03*
X6171400Y-10172700I-50000J0D01*
G01*
X6171400Y-10426700D02*
G75*
G03*
X6171400Y-10426700I-50000J0D01*
G01*
X6425400Y-10172700D02*
G75*
G03*
X6425400Y-10172700I-50000J0D01*
G01*
X6425400Y-10426700D02*
G75*
G03*
X6425400Y-10426700I-50000J0D01*
G01*
X6679400Y-10172700D02*
G75*
G03*
X6679400Y-10172700I-50000J0D01*
G01*
X6679400Y-10426700D02*
G75*
G03*
X6679400Y-10426700I-50000J0D01*
G01*
X6933400Y-10172700D02*
G75*
G03*
X6933400Y-10172700I-50000J0D01*
G01*
X6933400Y-10426700D02*
G75*
G03*
X6933400Y-10426700I-50000J0D01*
G01*
X7187400Y-10172700D02*
G75*
G03*
X7187400Y-10172700I-50000J0D01*
G01*
X7187400Y-10426700D02*
G75*
G03*
X7187400Y-10426700I-50000J0D01*
G01*
X7441400Y-10172700D02*
G75*
G03*
X7441400Y-10172700I-50000J0D01*
G01*
X7441400Y-10426700D02*
G75*
G03*
X7441400Y-10426700I-50000J0D01*
G01*
X7695400Y-10172700D02*
G75*
G03*
X7695400Y-10172700I-50000J0D01*
G01*
X7695400Y-10426700D02*
G75*
G03*
X7695400Y-10426700I-50000J0D01*
G01*
X7949400Y-10172700D02*
G75*
G03*
X7949400Y-10172700I-50000J0D01*
G01*
X7949400Y-10426700D02*
G75*
G03*
X7949400Y-10426700I-50000J0D01*
G01*
X8203400Y-10172700D02*
G75*
G03*
X8203400Y-10172700I-50000J0D01*
G01*
X8203400Y-10426700D02*
G75*
G03*
X8203400Y-10426700I-50000J0D01*
G01*
X8457400Y-10172700D02*
G75*
G03*
X8457400Y-10172700I-50000J0D01*
G01*
X8457400Y-10426700D02*
G75*
G03*
X8457400Y-10426700I-50000J0D01*
G01*
X8711400Y-10172700D02*
G75*
G03*
X8711400Y-10172700I-50000J0D01*
G01*
X8711400Y-10426700D02*
G75*
G03*
X8711400Y-10426700I-50000J0D01*
G01*
X8965400Y-10172700D02*
G75*
G03*
X8965400Y-10172700I-50000J0D01*
G01*
X8965400Y-10426700D02*
G75*
G03*
X8965400Y-10426700I-50000J0D01*
G01*
X9219400Y-10172700D02*
G75*
G03*
X9219400Y-10172700I-50000J0D01*
G01*
X9219400Y-10426700D02*
G75*
G03*
X9219400Y-10426700I-50000J0D01*
G01*
X9473400Y-10172700D02*
G75*
G03*
X9473400Y-10172700I-50000J0D01*
G01*
X9473400Y-10426700D02*
G75*
G03*
X9473400Y-10426700I-50000J0D01*
G01*
X9727400Y-10172700D02*
G75*
G03*
X9727400Y-10172700I-50000J0D01*
G01*
X9727400Y-10426700D02*
G75*
G03*
X9727400Y-10426700I-50000J0D01*
G01*
X9981400Y-10172700D02*
G75*
G03*
X9981400Y-10172700I-50000J0D01*
G01*
X9981400Y-10426700D02*
G75*
G03*
X9981400Y-10426700I-50000J0D01*
G01*
X10235400Y-10172700D02*
G75*
G03*
X10235400Y-10172700I-50000J0D01*
G01*
X10235400Y-10426700D02*
G75*
G03*
X10235400Y-10426700I-50000J0D01*
G01*
X10489400Y-10172700D02*
G75*
G03*
X10489400Y-10172700I-50000J0D01*
G01*
X10489400Y-10426700D02*
G75*
G03*
X10489400Y-10426700I-50000J0D01*
G01*
X10743400Y-10172700D02*
G75*
G03*
X10743400Y-10172700I-50000J0D01*
G01*
X10743400Y-10426700D02*
G75*
G03*
X10743400Y-10426700I-50000J0D01*
G01*
X10997400Y-10172700D02*
G75*
G03*
X10997400Y-10172700I-50000J0D01*
G01*
X10997400Y-10426700D02*
G75*
G03*
X10997400Y-10426700I-50000J0D01*
G01*
X11251400Y-10172700D02*
G75*
G03*
X11251400Y-10172700I-50000J0D01*
G01*
X11251400Y-10426700D02*
G75*
G03*
X11251400Y-10426700I-50000J0D01*
G01*
X12648400Y-3632200D02*
G75*
G03*
X12648400Y-3632200I-50000J0D01*
G01*
X12648400Y-3886200D02*
G75*
G03*
X12648400Y-3886200I-50000J0D01*
G01*
X12648400Y-4140200D02*
G75*
G03*
X12648400Y-4140200I-50000J0D01*
G01*
X12902400Y-3632200D02*
G75*
G03*
X12902400Y-3632200I-50000J0D01*
G01*
X12902400Y-3886200D02*
G75*
G03*
X12902400Y-3886200I-50000J0D01*
G01*
X12902400Y-4140200D02*
G75*
G03*
X12902400Y-4140200I-50000J0D01*
G01*
X18261800Y-10172700D02*
G75*
G03*
X18261800Y-10172700I-50000J0D01*
G01*
X18261800Y-10426700D02*
G75*
G03*
X18261800Y-10426700I-50000J0D01*
G01*
X18515800Y-10172700D02*
G75*
G03*
X18515800Y-10172700I-50000J0D01*
G01*
X18515800Y-10426700D02*
G75*
G03*
X18515800Y-10426700I-50000J0D01*
G01*
X18769800Y-10172700D02*
G75*
G03*
X18769800Y-10172700I-50000J0D01*
G01*
X18769800Y-10426700D02*
G75*
G03*
X18769800Y-10426700I-50000J0D01*
G01*
X19023800Y-10172700D02*
G75*
G03*
X19023800Y-10172700I-50000J0D01*
G01*
X19023800Y-10426700D02*
G75*
G03*
X19023800Y-10426700I-50000J0D01*
G01*
X19277800Y-10172700D02*
G75*
G03*
X19277800Y-10172700I-50000J0D01*
G01*
X19277800Y-10426700D02*
G75*
G03*
X19277800Y-10426700I-50000J0D01*
G01*
X19531800Y-10172700D02*
G75*
G03*
X19531800Y-10172700I-50000J0D01*
G01*
X19531800Y-10426700D02*
G75*
G03*
X19531800Y-10426700I-50000J0D01*
G01*
X19785800Y-10172700D02*
G75*
G03*
X19785800Y-10172700I-50000J0D01*
G01*
X19785800Y-10426700D02*
G75*
G03*
X19785800Y-10426700I-50000J0D01*
G01*
X20039800Y-10172700D02*
G75*
G03*
X20039800Y-10172700I-50000J0D01*
G01*
X20039800Y-10426700D02*
G75*
G03*
X20039800Y-10426700I-50000J0D01*
G01*
X20293800Y-10172700D02*
G75*
G03*
X20293800Y-10172700I-50000J0D01*
G01*
X20293800Y-10426700D02*
G75*
G03*
X20293800Y-10426700I-50000J0D01*
G01*
X20547800Y-10172700D02*
G75*
G03*
X20547800Y-10172700I-50000J0D01*
G01*
X20547800Y-10426700D02*
G75*
G03*
X20547800Y-10426700I-50000J0D01*
G01*
X20801800Y-10172700D02*
G75*
G03*
X20801800Y-10172700I-50000J0D01*
G01*
X20801800Y-10426700D02*
G75*
G03*
X20801800Y-10426700I-50000J0D01*
G01*
X21055800Y-10172700D02*
G75*
G03*
X21055800Y-10172700I-50000J0D01*
G01*
X21055800Y-10426700D02*
G75*
G03*
X21055800Y-10426700I-50000J0D01*
G01*
X21309800Y-10172700D02*
G75*
G03*
X21309800Y-10172700I-50000J0D01*
G01*
X21309800Y-10426700D02*
G75*
G03*
X21309800Y-10426700I-50000J0D01*
G01*
X21563800Y-10172700D02*
G75*
G03*
X21563800Y-10172700I-50000J0D01*
G01*
X21563800Y-10426700D02*
G75*
G03*
X21563800Y-10426700I-50000J0D01*
G01*
X21817800Y-10172700D02*
G75*
G03*
X21817800Y-10172700I-50000J0D01*
G01*
X21817800Y-10426700D02*
G75*
G03*
X21817800Y-10426700I-50000J0D01*
G01*
X22071800Y-10172700D02*
G75*
G03*
X22071800Y-10172700I-50000J0D01*
G01*
X22071800Y-10426700D02*
G75*
G03*
X22071800Y-10426700I-50000J0D01*
G01*
X22325800Y-10172700D02*
G75*
G03*
X22325800Y-10172700I-50000J0D01*
G01*
X22325800Y-10426700D02*
G75*
G03*
X22325800Y-10426700I-50000J0D01*
G01*
X22579800Y-10172700D02*
G75*
G03*
X22579800Y-10172700I-50000J0D01*
G01*
X22579800Y-10426700D02*
G75*
G03*
X22579800Y-10426700I-50000J0D01*
G01*
X23037000Y-3378200D02*
G75*
G03*
X23037000Y-3378200I-50000J0D01*
G01*
X23037000Y-3632200D02*
G75*
G03*
X23037000Y-3632200I-50000J0D01*
G01*
X23037000Y-3886200D02*
G75*
G03*
X23037000Y-3886200I-50000J0D01*
G01*
X23037000Y-4140200D02*
G75*
G03*
X23037000Y-4140200I-50000J0D01*
G01*
X23037000Y-4394200D02*
G75*
G03*
X23037000Y-4394200I-50000J0D01*
G01*
X23037000Y-4648200D02*
G75*
G03*
X23037000Y-4648200I-50000J0D01*
G01*
X23037000Y-4902200D02*
G75*
G03*
X23037000Y-4902200I-50000J0D01*
G01*
X23037000Y-5156200D02*
G75*
G03*
X23037000Y-5156200I-50000J0D01*
G01*
X23037000Y-5410200D02*
G75*
G03*
X23037000Y-5410200I-50000J0D01*
G01*
X23037000Y-5664200D02*
G75*
G03*
X23037000Y-5664200I-50000J0D01*
G01*
X23037000Y-5918200D02*
G75*
G03*
X23037000Y-5918200I-50000J0D01*
G01*
X23037000Y-6172200D02*
G75*
G03*
X23037000Y-6172200I-50000J0D01*
G01*
X23037000Y-6426200D02*
G75*
G03*
X23037000Y-6426200I-50000J0D01*
G01*
X23037000Y-6680200D02*
G75*
G03*
X23037000Y-6680200I-50000J0D01*
G01*
X23037000Y-6934200D02*
G75*
G03*
X23037000Y-6934200I-50000J0D01*
G01*
X23037000Y-7188200D02*
G75*
G03*
X23037000Y-7188200I-50000J0D01*
G01*
X23037000Y-7442200D02*
G75*
G03*
X23037000Y-7442200I-50000J0D01*
G01*
X23037000Y-7696200D02*
G75*
G03*
X23037000Y-7696200I-50000J0D01*
G01*
X23037000Y-7950200D02*
G75*
G03*
X23037000Y-7950200I-50000J0D01*
G01*
X23037000Y-8204200D02*
G75*
G03*
X23037000Y-8204200I-50000J0D01*
G01*
X23291000Y-3378200D02*
G75*
G03*
X23291000Y-3378200I-50000J0D01*
G01*
X23291000Y-3632200D02*
G75*
G03*
X23291000Y-3632200I-50000J0D01*
G01*
X23291000Y-3886200D02*
G75*
G03*
X23291000Y-3886200I-50000J0D01*
G01*
X23291000Y-4140200D02*
G75*
G03*
X23291000Y-4140200I-50000J0D01*
G01*
X23291000Y-4394200D02*
G75*
G03*
X23291000Y-4394200I-50000J0D01*
G01*
X23291000Y-4648200D02*
G75*
G03*
X23291000Y-4648200I-50000J0D01*
G01*
X23291000Y-4902200D02*
G75*
G03*
X23291000Y-4902200I-50000J0D01*
G01*
X23291000Y-5156200D02*
G75*
G03*
X23291000Y-5156200I-50000J0D01*
G01*
X23291000Y-5410200D02*
G75*
G03*
X23291000Y-5410200I-50000J0D01*
G01*
X23291000Y-5664200D02*
G75*
G03*
X23291000Y-5664200I-50000J0D01*
G01*
X23291000Y-5918200D02*
G75*
G03*
X23291000Y-5918200I-50000J0D01*
G01*
X23291000Y-6172200D02*
G75*
G03*
X23291000Y-6172200I-50000J0D01*
G01*
X23291000Y-6426200D02*
G75*
G03*
X23291000Y-6426200I-50000J0D01*
G01*
X23291000Y-6680200D02*
G75*
G03*
X23291000Y-6680200I-50000J0D01*
G01*
X23291000Y-6934200D02*
G75*
G03*
X23291000Y-6934200I-50000J0D01*
G01*
X23291000Y-7188200D02*
G75*
G03*
X23291000Y-7188200I-50000J0D01*
G01*
X23291000Y-7442200D02*
G75*
G03*
X23291000Y-7442200I-50000J0D01*
G01*
X23291000Y-7696200D02*
G75*
G03*
X23291000Y-7696200I-50000J0D01*
G01*
X23291000Y-7950200D02*
G75*
G03*
X23291000Y-7950200I-50000J0D01*
G01*
X23291000Y-8204200D02*
G75*
G03*
X23291000Y-8204200I-50000J0D01*
G01*
X5664200Y-9038200D02*
X5664200Y-9148200D01*
X5609200Y-9093200D02*
X5719200Y-9093200D01*
X5664200Y-9292200D02*
X5664200Y-9402200D01*
X5609200Y-9347200D02*
X5719200Y-9347200D01*
X5664200Y-9546200D02*
X5664200Y-9656200D01*
X5609200Y-9601200D02*
X5719200Y-9601200D01*
X16002000Y-3729600D02*
X16002000Y-3839600D01*
X15947000Y-3784600D02*
X16057000Y-3784600D01*
X16256000Y-3729600D02*
X16256000Y-3839600D01*
X16201000Y-3784600D02*
X16311000Y-3784600D01*
X16510000Y-3729600D02*
X16510000Y-3839600D01*
X16455000Y-3784600D02*
X16565000Y-3784600D01*
X12898362Y-4846562D02*
X12898362Y-4754638D01*
X12806438Y-4754638D01*
X12806438Y-4846562D01*
X12898362Y-4846562D01*
X13279362Y-4846562D02*
X13279362Y-4754638D01*
X13187438Y-4754638D01*
X13187438Y-4846562D01*
X13279362Y-4846562D01*
X13647320Y-4174200D02*
X13727320Y-4094200D01*
X13647320Y-4014200D01*
X13567320Y-4094200D01*
X13647320Y-4174200D01*
X14117320Y-3874200D02*
X14197320Y-3794200D01*
X14117320Y-3714200D01*
X14037320Y-3794200D01*
X14117320Y-3874200D01*
X14117320Y-4474200D02*
X14197320Y-4394200D01*
X14117320Y-4314200D01*
X14037320Y-4394200D01*
X14117320Y-4474200D01*
D12*
X5485928Y-11496814D02*
X5485928Y-11196814D01*
X5557357Y-11196814D01*
X5600214Y-11211100D01*
X5628786Y-11239671D01*
X5643071Y-11268243D01*
X5657357Y-11325386D01*
X5657357Y-11368243D01*
X5643071Y-11425386D01*
X5628786Y-11453957D01*
X5600214Y-11482529D01*
X5557357Y-11496814D01*
X5485928Y-11496814D01*
X5785928Y-11496814D02*
X5785928Y-11296814D01*
X5785928Y-11353957D02*
X5800214Y-11325386D01*
X5814500Y-11311100D01*
X5843071Y-11296814D01*
X5871643Y-11296814D01*
X5971643Y-11496814D02*
X5971643Y-11296814D01*
X5971643Y-11196814D02*
X5957357Y-11211100D01*
X5971643Y-11225386D01*
X5985928Y-11211100D01*
X5971643Y-11196814D01*
X5971643Y-11225386D01*
X6157357Y-11496814D02*
X6128786Y-11482529D01*
X6114500Y-11453957D01*
X6114500Y-11196814D01*
X6314500Y-11496814D02*
X6285928Y-11482529D01*
X6271643Y-11453957D01*
X6271643Y-11196814D01*
X6657357Y-11496814D02*
X6657357Y-11196814D01*
X6757357Y-11411100D01*
X6857357Y-11196814D01*
X6857357Y-11496814D01*
X7128786Y-11496814D02*
X7128786Y-11339671D01*
X7114500Y-11311100D01*
X7085928Y-11296814D01*
X7028786Y-11296814D01*
X7000214Y-11311100D01*
X7128786Y-11482529D02*
X7100214Y-11496814D01*
X7028786Y-11496814D01*
X7000214Y-11482529D01*
X6985928Y-11453957D01*
X6985928Y-11425386D01*
X7000214Y-11396814D01*
X7028786Y-11382529D01*
X7100214Y-11382529D01*
X7128786Y-11368243D01*
X7271643Y-11296814D02*
X7271643Y-11596814D01*
X7271643Y-11311100D02*
X7300214Y-11296814D01*
X7357357Y-11296814D01*
X7385928Y-11311100D01*
X7400214Y-11325386D01*
X7414500Y-11353957D01*
X7414500Y-11439671D01*
X7400214Y-11468243D01*
X7385928Y-11482529D01*
X7357357Y-11496814D01*
X7300214Y-11496814D01*
X7271643Y-11482529D01*
X7543071Y-11468243D02*
X7557357Y-11482529D01*
X7543071Y-11496814D01*
X7528786Y-11482529D01*
X7543071Y-11468243D01*
X7543071Y-11496814D01*
X7543071Y-11311100D02*
X7557357Y-11325386D01*
X7543071Y-11339671D01*
X7528786Y-11325386D01*
X7543071Y-11311100D01*
X7543071Y-11339671D01*
X5159500Y-11971100D02*
X5199500Y-12011100D01*
X5199500Y-11971100D02*
X5159500Y-12011100D01*
X5543071Y-11826814D02*
X5571643Y-11826814D01*
X5600214Y-11841100D01*
X5614500Y-11855386D01*
X5628786Y-11883957D01*
X5643071Y-11941100D01*
X5643071Y-12012529D01*
X5628786Y-12069671D01*
X5614500Y-12098243D01*
X5600214Y-12112529D01*
X5571643Y-12126814D01*
X5543071Y-12126814D01*
X5514500Y-12112529D01*
X5500214Y-12098243D01*
X5485928Y-12069671D01*
X5471643Y-12012529D01*
X5471643Y-11941100D01*
X5485928Y-11883957D01*
X5500214Y-11855386D01*
X5514500Y-11841100D01*
X5543071Y-11826814D01*
X5771643Y-12098243D02*
X5785928Y-12112529D01*
X5771643Y-12126814D01*
X5757357Y-12112529D01*
X5771643Y-12098243D01*
X5771643Y-12126814D01*
X6043071Y-11926814D02*
X6043071Y-12126814D01*
X5971643Y-11812529D02*
X5900214Y-12026814D01*
X6085928Y-12026814D01*
X6257357Y-11826814D02*
X6285928Y-11826814D01*
X6314500Y-11841100D01*
X6328786Y-11855386D01*
X6343071Y-11883957D01*
X6357357Y-11941100D01*
X6357357Y-12012529D01*
X6343071Y-12069671D01*
X6328786Y-12098243D01*
X6314500Y-12112529D01*
X6285928Y-12126814D01*
X6257357Y-12126814D01*
X6228786Y-12112529D01*
X6214500Y-12098243D01*
X6200214Y-12069671D01*
X6185928Y-12012529D01*
X6185928Y-11941100D01*
X6200214Y-11883957D01*
X6214500Y-11855386D01*
X6228786Y-11841100D01*
X6257357Y-11826814D01*
X6543071Y-11826814D02*
X6571643Y-11826814D01*
X6600214Y-11841100D01*
X6614500Y-11855386D01*
X6628786Y-11883957D01*
X6643071Y-11941100D01*
X6643071Y-12012529D01*
X6628786Y-12069671D01*
X6614500Y-12098243D01*
X6600214Y-12112529D01*
X6571643Y-12126814D01*
X6543071Y-12126814D01*
X6514500Y-12112529D01*
X6500214Y-12098243D01*
X6485928Y-12069671D01*
X6471643Y-12012529D01*
X6471643Y-11941100D01*
X6485928Y-11883957D01*
X6500214Y-11855386D01*
X6514500Y-11841100D01*
X6543071Y-11826814D01*
X6771643Y-12126814D02*
X6771643Y-11926814D01*
X6771643Y-11955386D02*
X6785928Y-11941100D01*
X6814500Y-11926814D01*
X6857357Y-11926814D01*
X6885928Y-11941100D01*
X6900214Y-11969671D01*
X6900214Y-12126814D01*
X6900214Y-11969671D02*
X6914500Y-11941100D01*
X6943071Y-11926814D01*
X6985928Y-11926814D01*
X7014500Y-11941100D01*
X7028786Y-11969671D01*
X7028786Y-12126814D01*
X7171643Y-12126814D02*
X7171643Y-11926814D01*
X7171643Y-11955386D02*
X7185928Y-11941100D01*
X7214500Y-11926814D01*
X7257357Y-11926814D01*
X7285928Y-11941100D01*
X7300214Y-11969671D01*
X7300214Y-12126814D01*
X7300214Y-11969671D02*
X7314500Y-11941100D01*
X7343071Y-11926814D01*
X7385928Y-11926814D01*
X7414500Y-11941100D01*
X7428786Y-11969671D01*
X7428786Y-12126814D01*
X8014500Y-11812529D02*
X7757357Y-12198243D01*
X8400214Y-11826814D02*
X8428786Y-11826814D01*
X8457357Y-11841100D01*
X8471643Y-11855386D01*
X8485928Y-11883957D01*
X8500214Y-11941100D01*
X8500214Y-12012529D01*
X8485928Y-12069671D01*
X8471643Y-12098243D01*
X8457357Y-12112529D01*
X8428786Y-12126814D01*
X8400214Y-12126814D01*
X8371643Y-12112529D01*
X8357357Y-12098243D01*
X8343071Y-12069671D01*
X8328786Y-12012529D01*
X8328786Y-11941100D01*
X8343071Y-11883957D01*
X8357357Y-11855386D01*
X8371643Y-11841100D01*
X8400214Y-11826814D01*
X8628786Y-12098243D02*
X8643071Y-12112529D01*
X8628786Y-12126814D01*
X8614500Y-12112529D01*
X8628786Y-12098243D01*
X8628786Y-12126814D01*
X8828786Y-11826814D02*
X8857357Y-11826814D01*
X8885928Y-11841100D01*
X8900214Y-11855386D01*
X8914500Y-11883957D01*
X8928786Y-11941100D01*
X8928786Y-12012529D01*
X8914500Y-12069671D01*
X8900214Y-12098243D01*
X8885928Y-12112529D01*
X8857357Y-12126814D01*
X8828786Y-12126814D01*
X8800214Y-12112529D01*
X8785928Y-12098243D01*
X8771643Y-12069671D01*
X8757357Y-12012529D01*
X8757357Y-11941100D01*
X8771643Y-11883957D01*
X8785928Y-11855386D01*
X8800214Y-11841100D01*
X8828786Y-11826814D01*
X9214500Y-12126814D02*
X9043071Y-12126814D01*
X9128786Y-12126814D02*
X9128786Y-11826814D01*
X9100214Y-11869671D01*
X9071643Y-11898243D01*
X9043071Y-11912529D01*
X9485928Y-11826814D02*
X9343071Y-11826814D01*
X9328786Y-11969671D01*
X9343071Y-11955386D01*
X9371643Y-11941100D01*
X9443071Y-11941100D01*
X9471643Y-11955386D01*
X9485928Y-11969671D01*
X9500214Y-11998243D01*
X9500214Y-12069671D01*
X9485928Y-12098243D01*
X9471643Y-12112529D01*
X9443071Y-12126814D01*
X9371643Y-12126814D01*
X9343071Y-12112529D01*
X9328786Y-12098243D01*
X9600214Y-11826814D02*
X9800214Y-11826814D01*
X9671643Y-12126814D01*
X9900214Y-11826814D02*
X9900214Y-11883957D01*
X10014500Y-11826814D02*
X10014500Y-11883957D01*
X10457357Y-12241100D02*
X10443071Y-12226814D01*
X10414500Y-12183957D01*
X10400214Y-12155386D01*
X10385928Y-12112529D01*
X10371643Y-12041100D01*
X10371643Y-11983957D01*
X10385928Y-11912529D01*
X10400214Y-11869671D01*
X10414500Y-11841100D01*
X10443071Y-11798243D01*
X10457357Y-11783957D01*
X10700214Y-11926814D02*
X10700214Y-12126814D01*
X10628786Y-11812529D02*
X10557357Y-12026814D01*
X10743071Y-12026814D01*
X11014500Y-12126814D02*
X10843071Y-12126814D01*
X10928786Y-12126814D02*
X10928786Y-11826814D01*
X10900214Y-11869671D01*
X10871643Y-11898243D01*
X10843071Y-11912529D01*
X11157357Y-12126814D02*
X11214500Y-12126814D01*
X11243071Y-12112529D01*
X11257357Y-12098243D01*
X11285928Y-12055386D01*
X11300214Y-11998243D01*
X11300214Y-11883957D01*
X11285928Y-11855386D01*
X11271643Y-11841100D01*
X11243071Y-11826814D01*
X11185928Y-11826814D01*
X11157357Y-11841100D01*
X11143071Y-11855386D01*
X11128786Y-11883957D01*
X11128786Y-11955386D01*
X11143071Y-11983957D01*
X11157357Y-11998243D01*
X11185928Y-12012529D01*
X11243071Y-12012529D01*
X11271643Y-11998243D01*
X11285928Y-11983957D01*
X11300214Y-11955386D01*
X11657357Y-12126814D02*
X11657357Y-11826814D01*
X11785928Y-12126814D02*
X11785928Y-11969671D01*
X11771643Y-11941100D01*
X11743071Y-11926814D01*
X11700214Y-11926814D01*
X11671643Y-11941100D01*
X11657357Y-11955386D01*
X11971643Y-12126814D02*
X11943071Y-12112529D01*
X11928786Y-12098243D01*
X11914500Y-12069671D01*
X11914500Y-11983957D01*
X11928786Y-11955386D01*
X11943071Y-11941100D01*
X11971643Y-11926814D01*
X12014500Y-11926814D01*
X12043071Y-11941100D01*
X12057357Y-11955386D01*
X12071643Y-11983957D01*
X12071643Y-12069671D01*
X12057357Y-12098243D01*
X12043071Y-12112529D01*
X12014500Y-12126814D01*
X11971643Y-12126814D01*
X12243071Y-12126814D02*
X12214500Y-12112529D01*
X12200214Y-12083957D01*
X12200214Y-11826814D01*
X12471643Y-12112529D02*
X12443071Y-12126814D01*
X12385928Y-12126814D01*
X12357357Y-12112529D01*
X12343071Y-12083957D01*
X12343071Y-11969671D01*
X12357357Y-11941100D01*
X12385928Y-11926814D01*
X12443071Y-11926814D01*
X12471643Y-11941100D01*
X12485928Y-11969671D01*
X12485928Y-11998243D01*
X12343071Y-12026814D01*
X12600214Y-12112529D02*
X12628786Y-12126814D01*
X12685928Y-12126814D01*
X12714500Y-12112529D01*
X12728786Y-12083957D01*
X12728786Y-12069671D01*
X12714500Y-12041100D01*
X12685928Y-12026814D01*
X12643071Y-12026814D01*
X12614500Y-12012529D01*
X12600214Y-11983957D01*
X12600214Y-11969671D01*
X12614500Y-11941100D01*
X12643071Y-11926814D01*
X12685928Y-11926814D01*
X12714500Y-11941100D01*
X12828786Y-12241100D02*
X12843071Y-12226814D01*
X12871643Y-12183957D01*
X12885928Y-12155386D01*
X12900214Y-12112529D01*
X12914500Y-12041100D01*
X12914500Y-11983957D01*
X12900214Y-11912529D01*
X12885928Y-11869671D01*
X12871643Y-11841100D01*
X12843071Y-11798243D01*
X12828786Y-11783957D01*
X5199500Y-12387100D02*
G75*
G03*
X5199500Y-12387100I-50000J0D01*
G01*
X5643071Y-12522814D02*
X5471643Y-12522814D01*
X5557357Y-12522814D02*
X5557357Y-12222814D01*
X5528786Y-12265671D01*
X5500214Y-12294243D01*
X5471643Y-12308529D01*
X5771643Y-12494243D02*
X5785928Y-12508529D01*
X5771643Y-12522814D01*
X5757357Y-12508529D01*
X5771643Y-12494243D01*
X5771643Y-12522814D01*
X5971643Y-12222814D02*
X6000214Y-12222814D01*
X6028786Y-12237100D01*
X6043071Y-12251386D01*
X6057357Y-12279957D01*
X6071643Y-12337100D01*
X6071643Y-12408529D01*
X6057357Y-12465671D01*
X6043071Y-12494243D01*
X6028786Y-12508529D01*
X6000214Y-12522814D01*
X5971643Y-12522814D01*
X5943071Y-12508529D01*
X5928786Y-12494243D01*
X5914500Y-12465671D01*
X5900214Y-12408529D01*
X5900214Y-12337100D01*
X5914500Y-12279957D01*
X5928786Y-12251386D01*
X5943071Y-12237100D01*
X5971643Y-12222814D01*
X6257357Y-12222814D02*
X6285928Y-12222814D01*
X6314500Y-12237100D01*
X6328786Y-12251386D01*
X6343071Y-12279957D01*
X6357357Y-12337100D01*
X6357357Y-12408529D01*
X6343071Y-12465671D01*
X6328786Y-12494243D01*
X6314500Y-12508529D01*
X6285928Y-12522814D01*
X6257357Y-12522814D01*
X6228786Y-12508529D01*
X6214500Y-12494243D01*
X6200214Y-12465671D01*
X6185928Y-12408529D01*
X6185928Y-12337100D01*
X6200214Y-12279957D01*
X6214500Y-12251386D01*
X6228786Y-12237100D01*
X6257357Y-12222814D01*
X6543071Y-12222814D02*
X6571643Y-12222814D01*
X6600214Y-12237100D01*
X6614500Y-12251386D01*
X6628786Y-12279957D01*
X6643071Y-12337100D01*
X6643071Y-12408529D01*
X6628786Y-12465671D01*
X6614500Y-12494243D01*
X6600214Y-12508529D01*
X6571643Y-12522814D01*
X6543071Y-12522814D01*
X6514500Y-12508529D01*
X6500214Y-12494243D01*
X6485928Y-12465671D01*
X6471643Y-12408529D01*
X6471643Y-12337100D01*
X6485928Y-12279957D01*
X6500214Y-12251386D01*
X6514500Y-12237100D01*
X6543071Y-12222814D01*
X6771643Y-12522814D02*
X6771643Y-12322814D01*
X6771643Y-12351386D02*
X6785928Y-12337100D01*
X6814500Y-12322814D01*
X6857357Y-12322814D01*
X6885928Y-12337100D01*
X6900214Y-12365671D01*
X6900214Y-12522814D01*
X6900214Y-12365671D02*
X6914500Y-12337100D01*
X6943071Y-12322814D01*
X6985928Y-12322814D01*
X7014500Y-12337100D01*
X7028786Y-12365671D01*
X7028786Y-12522814D01*
X7171643Y-12522814D02*
X7171643Y-12322814D01*
X7171643Y-12351386D02*
X7185928Y-12337100D01*
X7214500Y-12322814D01*
X7257357Y-12322814D01*
X7285928Y-12337100D01*
X7300214Y-12365671D01*
X7300214Y-12522814D01*
X7300214Y-12365671D02*
X7314500Y-12337100D01*
X7343071Y-12322814D01*
X7385928Y-12322814D01*
X7414500Y-12337100D01*
X7428786Y-12365671D01*
X7428786Y-12522814D01*
X8014500Y-12208529D02*
X7757357Y-12594243D01*
X8400214Y-12222814D02*
X8428786Y-12222814D01*
X8457357Y-12237100D01*
X8471643Y-12251386D01*
X8485928Y-12279957D01*
X8500214Y-12337100D01*
X8500214Y-12408529D01*
X8485928Y-12465671D01*
X8471643Y-12494243D01*
X8457357Y-12508529D01*
X8428786Y-12522814D01*
X8400214Y-12522814D01*
X8371643Y-12508529D01*
X8357357Y-12494243D01*
X8343071Y-12465671D01*
X8328786Y-12408529D01*
X8328786Y-12337100D01*
X8343071Y-12279957D01*
X8357357Y-12251386D01*
X8371643Y-12237100D01*
X8400214Y-12222814D01*
X8628786Y-12494243D02*
X8643071Y-12508529D01*
X8628786Y-12522814D01*
X8614500Y-12508529D01*
X8628786Y-12494243D01*
X8628786Y-12522814D01*
X8828786Y-12222814D02*
X8857357Y-12222814D01*
X8885928Y-12237100D01*
X8900214Y-12251386D01*
X8914500Y-12279957D01*
X8928786Y-12337100D01*
X8928786Y-12408529D01*
X8914500Y-12465671D01*
X8900214Y-12494243D01*
X8885928Y-12508529D01*
X8857357Y-12522814D01*
X8828786Y-12522814D01*
X8800214Y-12508529D01*
X8785928Y-12494243D01*
X8771643Y-12465671D01*
X8757357Y-12408529D01*
X8757357Y-12337100D01*
X8771643Y-12279957D01*
X8785928Y-12251386D01*
X8800214Y-12237100D01*
X8828786Y-12222814D01*
X9028786Y-12222814D02*
X9214500Y-12222814D01*
X9114500Y-12337100D01*
X9157357Y-12337100D01*
X9185928Y-12351386D01*
X9200214Y-12365671D01*
X9214500Y-12394243D01*
X9214500Y-12465671D01*
X9200214Y-12494243D01*
X9185928Y-12508529D01*
X9157357Y-12522814D01*
X9071643Y-12522814D01*
X9043071Y-12508529D01*
X9028786Y-12494243D01*
X9357357Y-12522814D02*
X9414500Y-12522814D01*
X9443071Y-12508529D01*
X9457357Y-12494243D01*
X9485928Y-12451386D01*
X9500214Y-12394243D01*
X9500214Y-12279957D01*
X9485928Y-12251386D01*
X9471643Y-12237100D01*
X9443071Y-12222814D01*
X9385928Y-12222814D01*
X9357357Y-12237100D01*
X9343071Y-12251386D01*
X9328786Y-12279957D01*
X9328786Y-12351386D01*
X9343071Y-12379957D01*
X9357357Y-12394243D01*
X9385928Y-12408529D01*
X9443071Y-12408529D01*
X9471643Y-12394243D01*
X9485928Y-12379957D01*
X9500214Y-12351386D01*
X9757357Y-12322814D02*
X9757357Y-12522814D01*
X9685928Y-12208529D02*
X9614500Y-12422814D01*
X9800214Y-12422814D01*
X9900214Y-12222814D02*
X9900214Y-12279957D01*
X10014500Y-12222814D02*
X10014500Y-12279957D01*
X10457357Y-12637100D02*
X10443071Y-12622814D01*
X10414500Y-12579957D01*
X10400214Y-12551386D01*
X10385928Y-12508529D01*
X10371643Y-12437100D01*
X10371643Y-12379957D01*
X10385928Y-12308529D01*
X10400214Y-12265671D01*
X10414500Y-12237100D01*
X10443071Y-12194243D01*
X10457357Y-12179957D01*
X10728786Y-12522814D02*
X10557357Y-12522814D01*
X10643071Y-12522814D02*
X10643071Y-12222814D01*
X10614500Y-12265671D01*
X10585928Y-12294243D01*
X10557357Y-12308529D01*
X10985928Y-12222814D02*
X10928786Y-12222814D01*
X10900214Y-12237100D01*
X10885928Y-12251386D01*
X10857357Y-12294243D01*
X10843071Y-12351386D01*
X10843071Y-12465671D01*
X10857357Y-12494243D01*
X10871643Y-12508529D01*
X10900214Y-12522814D01*
X10957357Y-12522814D01*
X10985928Y-12508529D01*
X11000214Y-12494243D01*
X11014500Y-12465671D01*
X11014500Y-12394243D01*
X11000214Y-12365671D01*
X10985928Y-12351386D01*
X10957357Y-12337100D01*
X10900214Y-12337100D01*
X10871643Y-12351386D01*
X10857357Y-12365671D01*
X10843071Y-12394243D01*
X11271643Y-12222814D02*
X11214500Y-12222814D01*
X11185928Y-12237100D01*
X11171643Y-12251386D01*
X11143071Y-12294243D01*
X11128786Y-12351386D01*
X11128786Y-12465671D01*
X11143071Y-12494243D01*
X11157357Y-12508529D01*
X11185928Y-12522814D01*
X11243071Y-12522814D01*
X11271643Y-12508529D01*
X11285928Y-12494243D01*
X11300214Y-12465671D01*
X11300214Y-12394243D01*
X11285928Y-12365671D01*
X11271643Y-12351386D01*
X11243071Y-12337100D01*
X11185928Y-12337100D01*
X11157357Y-12351386D01*
X11143071Y-12365671D01*
X11128786Y-12394243D01*
X11657357Y-12522814D02*
X11657357Y-12222814D01*
X11785928Y-12522814D02*
X11785928Y-12365671D01*
X11771643Y-12337100D01*
X11743071Y-12322814D01*
X11700214Y-12322814D01*
X11671643Y-12337100D01*
X11657357Y-12351386D01*
X11971643Y-12522814D02*
X11943071Y-12508529D01*
X11928786Y-12494243D01*
X11914500Y-12465671D01*
X11914500Y-12379957D01*
X11928786Y-12351386D01*
X11943071Y-12337100D01*
X11971643Y-12322814D01*
X12014500Y-12322814D01*
X12043071Y-12337100D01*
X12057357Y-12351386D01*
X12071643Y-12379957D01*
X12071643Y-12465671D01*
X12057357Y-12494243D01*
X12043071Y-12508529D01*
X12014500Y-12522814D01*
X11971643Y-12522814D01*
X12243071Y-12522814D02*
X12214500Y-12508529D01*
X12200214Y-12479957D01*
X12200214Y-12222814D01*
X12471643Y-12508529D02*
X12443071Y-12522814D01*
X12385928Y-12522814D01*
X12357357Y-12508529D01*
X12343071Y-12479957D01*
X12343071Y-12365671D01*
X12357357Y-12337100D01*
X12385928Y-12322814D01*
X12443071Y-12322814D01*
X12471643Y-12337100D01*
X12485928Y-12365671D01*
X12485928Y-12394243D01*
X12343071Y-12422814D01*
X12600214Y-12508529D02*
X12628786Y-12522814D01*
X12685928Y-12522814D01*
X12714500Y-12508529D01*
X12728786Y-12479957D01*
X12728786Y-12465671D01*
X12714500Y-12437100D01*
X12685928Y-12422814D01*
X12643071Y-12422814D01*
X12614500Y-12408529D01*
X12600214Y-12379957D01*
X12600214Y-12365671D01*
X12614500Y-12337100D01*
X12643071Y-12322814D01*
X12685928Y-12322814D01*
X12714500Y-12337100D01*
X12828786Y-12637100D02*
X12843071Y-12622814D01*
X12871643Y-12579957D01*
X12885928Y-12551386D01*
X12900214Y-12508529D01*
X12914500Y-12437100D01*
X12914500Y-12379957D01*
X12900214Y-12308529D01*
X12885928Y-12265671D01*
X12871643Y-12237100D01*
X12843071Y-12194243D01*
X12828786Y-12179957D01*
X5144500Y-12728100D02*
X5144500Y-12838100D01*
X5089500Y-12783100D02*
X5199500Y-12783100D01*
X5643071Y-12918814D02*
X5471643Y-12918814D01*
X5557357Y-12918814D02*
X5557357Y-12618814D01*
X5528786Y-12661671D01*
X5500214Y-12690243D01*
X5471643Y-12704529D01*
X5771643Y-12890243D02*
X5785928Y-12904529D01*
X5771643Y-12918814D01*
X5757357Y-12904529D01*
X5771643Y-12890243D01*
X5771643Y-12918814D01*
X6071643Y-12918814D02*
X5900214Y-12918814D01*
X5985928Y-12918814D02*
X5985928Y-12618814D01*
X5957357Y-12661671D01*
X5928786Y-12690243D01*
X5900214Y-12704529D01*
X6257357Y-12618814D02*
X6285928Y-12618814D01*
X6314500Y-12633100D01*
X6328786Y-12647386D01*
X6343071Y-12675957D01*
X6357357Y-12733100D01*
X6357357Y-12804529D01*
X6343071Y-12861671D01*
X6328786Y-12890243D01*
X6314500Y-12904529D01*
X6285928Y-12918814D01*
X6257357Y-12918814D01*
X6228786Y-12904529D01*
X6214500Y-12890243D01*
X6200214Y-12861671D01*
X6185928Y-12804529D01*
X6185928Y-12733100D01*
X6200214Y-12675957D01*
X6214500Y-12647386D01*
X6228786Y-12633100D01*
X6257357Y-12618814D01*
X6543071Y-12618814D02*
X6571643Y-12618814D01*
X6600214Y-12633100D01*
X6614500Y-12647386D01*
X6628786Y-12675957D01*
X6643071Y-12733100D01*
X6643071Y-12804529D01*
X6628786Y-12861671D01*
X6614500Y-12890243D01*
X6600214Y-12904529D01*
X6571643Y-12918814D01*
X6543071Y-12918814D01*
X6514500Y-12904529D01*
X6500214Y-12890243D01*
X6485928Y-12861671D01*
X6471643Y-12804529D01*
X6471643Y-12733100D01*
X6485928Y-12675957D01*
X6500214Y-12647386D01*
X6514500Y-12633100D01*
X6543071Y-12618814D01*
X6771643Y-12918814D02*
X6771643Y-12718814D01*
X6771643Y-12747386D02*
X6785928Y-12733100D01*
X6814500Y-12718814D01*
X6857357Y-12718814D01*
X6885928Y-12733100D01*
X6900214Y-12761671D01*
X6900214Y-12918814D01*
X6900214Y-12761671D02*
X6914500Y-12733100D01*
X6943071Y-12718814D01*
X6985928Y-12718814D01*
X7014500Y-12733100D01*
X7028786Y-12761671D01*
X7028786Y-12918814D01*
X7171643Y-12918814D02*
X7171643Y-12718814D01*
X7171643Y-12747386D02*
X7185928Y-12733100D01*
X7214500Y-12718814D01*
X7257357Y-12718814D01*
X7285928Y-12733100D01*
X7300214Y-12761671D01*
X7300214Y-12918814D01*
X7300214Y-12761671D02*
X7314500Y-12733100D01*
X7343071Y-12718814D01*
X7385928Y-12718814D01*
X7414500Y-12733100D01*
X7428786Y-12761671D01*
X7428786Y-12918814D01*
X8014500Y-12604529D02*
X7757357Y-12990243D01*
X8400214Y-12618814D02*
X8428786Y-12618814D01*
X8457357Y-12633100D01*
X8471643Y-12647386D01*
X8485928Y-12675957D01*
X8500214Y-12733100D01*
X8500214Y-12804529D01*
X8485928Y-12861671D01*
X8471643Y-12890243D01*
X8457357Y-12904529D01*
X8428786Y-12918814D01*
X8400214Y-12918814D01*
X8371643Y-12904529D01*
X8357357Y-12890243D01*
X8343071Y-12861671D01*
X8328786Y-12804529D01*
X8328786Y-12733100D01*
X8343071Y-12675957D01*
X8357357Y-12647386D01*
X8371643Y-12633100D01*
X8400214Y-12618814D01*
X8628786Y-12890243D02*
X8643071Y-12904529D01*
X8628786Y-12918814D01*
X8614500Y-12904529D01*
X8628786Y-12890243D01*
X8628786Y-12918814D01*
X8828786Y-12618814D02*
X8857357Y-12618814D01*
X8885928Y-12633100D01*
X8900214Y-12647386D01*
X8914500Y-12675957D01*
X8928786Y-12733100D01*
X8928786Y-12804529D01*
X8914500Y-12861671D01*
X8900214Y-12890243D01*
X8885928Y-12904529D01*
X8857357Y-12918814D01*
X8828786Y-12918814D01*
X8800214Y-12904529D01*
X8785928Y-12890243D01*
X8771643Y-12861671D01*
X8757357Y-12804529D01*
X8757357Y-12733100D01*
X8771643Y-12675957D01*
X8785928Y-12647386D01*
X8800214Y-12633100D01*
X8828786Y-12618814D01*
X9185928Y-12718814D02*
X9185928Y-12918814D01*
X9114500Y-12604529D02*
X9043071Y-12818814D01*
X9228786Y-12818814D01*
X9314500Y-12618814D02*
X9500214Y-12618814D01*
X9400214Y-12733100D01*
X9443071Y-12733100D01*
X9471643Y-12747386D01*
X9485928Y-12761671D01*
X9500214Y-12790243D01*
X9500214Y-12861671D01*
X9485928Y-12890243D01*
X9471643Y-12904529D01*
X9443071Y-12918814D01*
X9357357Y-12918814D01*
X9328786Y-12904529D01*
X9314500Y-12890243D01*
X9600214Y-12618814D02*
X9785928Y-12618814D01*
X9685928Y-12733100D01*
X9728786Y-12733100D01*
X9757357Y-12747386D01*
X9771643Y-12761671D01*
X9785928Y-12790243D01*
X9785928Y-12861671D01*
X9771643Y-12890243D01*
X9757357Y-12904529D01*
X9728786Y-12918814D01*
X9643071Y-12918814D01*
X9614500Y-12904529D01*
X9600214Y-12890243D01*
X9900214Y-12618814D02*
X9900214Y-12675957D01*
X10014500Y-12618814D02*
X10014500Y-12675957D01*
X10457357Y-13033100D02*
X10443071Y-13018814D01*
X10414500Y-12975957D01*
X10400214Y-12947386D01*
X10385928Y-12904529D01*
X10371643Y-12833100D01*
X10371643Y-12775957D01*
X10385928Y-12704529D01*
X10400214Y-12661671D01*
X10414500Y-12633100D01*
X10443071Y-12590243D01*
X10457357Y-12575957D01*
X10700214Y-12618814D02*
X10643071Y-12618814D01*
X10614500Y-12633100D01*
X10600214Y-12647386D01*
X10571643Y-12690243D01*
X10557357Y-12747386D01*
X10557357Y-12861671D01*
X10571643Y-12890243D01*
X10585928Y-12904529D01*
X10614500Y-12918814D01*
X10671643Y-12918814D01*
X10700214Y-12904529D01*
X10714500Y-12890243D01*
X10728786Y-12861671D01*
X10728786Y-12790243D01*
X10714500Y-12761671D01*
X10700214Y-12747386D01*
X10671643Y-12733100D01*
X10614500Y-12733100D01*
X10585928Y-12747386D01*
X10571643Y-12761671D01*
X10557357Y-12790243D01*
X11085928Y-12918814D02*
X11085928Y-12618814D01*
X11214500Y-12918814D02*
X11214500Y-12761671D01*
X11200214Y-12733100D01*
X11171643Y-12718814D01*
X11128786Y-12718814D01*
X11100214Y-12733100D01*
X11085928Y-12747386D01*
X11400214Y-12918814D02*
X11371643Y-12904529D01*
X11357357Y-12890243D01*
X11343071Y-12861671D01*
X11343071Y-12775957D01*
X11357357Y-12747386D01*
X11371643Y-12733100D01*
X11400214Y-12718814D01*
X11443071Y-12718814D01*
X11471643Y-12733100D01*
X11485928Y-12747386D01*
X11500214Y-12775957D01*
X11500214Y-12861671D01*
X11485928Y-12890243D01*
X11471643Y-12904529D01*
X11443071Y-12918814D01*
X11400214Y-12918814D01*
X11671643Y-12918814D02*
X11643071Y-12904529D01*
X11628786Y-12875957D01*
X11628786Y-12618814D01*
X11900214Y-12904529D02*
X11871643Y-12918814D01*
X11814500Y-12918814D01*
X11785928Y-12904529D01*
X11771643Y-12875957D01*
X11771643Y-12761671D01*
X11785928Y-12733100D01*
X11814500Y-12718814D01*
X11871643Y-12718814D01*
X11900214Y-12733100D01*
X11914500Y-12761671D01*
X11914500Y-12790243D01*
X11771643Y-12818814D01*
X12028786Y-12904529D02*
X12057357Y-12918814D01*
X12114500Y-12918814D01*
X12143071Y-12904529D01*
X12157357Y-12875957D01*
X12157357Y-12861671D01*
X12143071Y-12833100D01*
X12114500Y-12818814D01*
X12071643Y-12818814D01*
X12043071Y-12804529D01*
X12028786Y-12775957D01*
X12028786Y-12761671D01*
X12043071Y-12733100D01*
X12071643Y-12718814D01*
X12114500Y-12718814D01*
X12143071Y-12733100D01*
X12257357Y-13033100D02*
X12271643Y-13018814D01*
X12300214Y-12975957D01*
X12314500Y-12947386D01*
X12328786Y-12904529D01*
X12343071Y-12833100D01*
X12343071Y-12775957D01*
X12328786Y-12704529D01*
X12314500Y-12661671D01*
X12300214Y-12633100D01*
X12271643Y-12590243D01*
X12257357Y-12575957D01*
X5180462Y-13225062D02*
X5180462Y-13133138D01*
X5088538Y-13133138D01*
X5088538Y-13225062D01*
X5180462Y-13225062D01*
X5643071Y-13314814D02*
X5471643Y-13314814D01*
X5557357Y-13314814D02*
X5557357Y-13014814D01*
X5528786Y-13057671D01*
X5500214Y-13086243D01*
X5471643Y-13100529D01*
X5771643Y-13286243D02*
X5785928Y-13300529D01*
X5771643Y-13314814D01*
X5757357Y-13300529D01*
X5771643Y-13286243D01*
X5771643Y-13314814D01*
X5885928Y-13014814D02*
X6071643Y-13014814D01*
X5971643Y-13129100D01*
X6014500Y-13129100D01*
X6043071Y-13143386D01*
X6057357Y-13157671D01*
X6071643Y-13186243D01*
X6071643Y-13257671D01*
X6057357Y-13286243D01*
X6043071Y-13300529D01*
X6014500Y-13314814D01*
X5928786Y-13314814D01*
X5900214Y-13300529D01*
X5885928Y-13286243D01*
X6257357Y-13014814D02*
X6285928Y-13014814D01*
X6314500Y-13029100D01*
X6328786Y-13043386D01*
X6343071Y-13071957D01*
X6357357Y-13129100D01*
X6357357Y-13200529D01*
X6343071Y-13257671D01*
X6328786Y-13286243D01*
X6314500Y-13300529D01*
X6285928Y-13314814D01*
X6257357Y-13314814D01*
X6228786Y-13300529D01*
X6214500Y-13286243D01*
X6200214Y-13257671D01*
X6185928Y-13200529D01*
X6185928Y-13129100D01*
X6200214Y-13071957D01*
X6214500Y-13043386D01*
X6228786Y-13029100D01*
X6257357Y-13014814D01*
X6543071Y-13014814D02*
X6571643Y-13014814D01*
X6600214Y-13029100D01*
X6614500Y-13043386D01*
X6628786Y-13071957D01*
X6643071Y-13129100D01*
X6643071Y-13200529D01*
X6628786Y-13257671D01*
X6614500Y-13286243D01*
X6600214Y-13300529D01*
X6571643Y-13314814D01*
X6543071Y-13314814D01*
X6514500Y-13300529D01*
X6500214Y-13286243D01*
X6485928Y-13257671D01*
X6471643Y-13200529D01*
X6471643Y-13129100D01*
X6485928Y-13071957D01*
X6500214Y-13043386D01*
X6514500Y-13029100D01*
X6543071Y-13014814D01*
X6771643Y-13314814D02*
X6771643Y-13114814D01*
X6771643Y-13143386D02*
X6785928Y-13129100D01*
X6814500Y-13114814D01*
X6857357Y-13114814D01*
X6885928Y-13129100D01*
X6900214Y-13157671D01*
X6900214Y-13314814D01*
X6900214Y-13157671D02*
X6914500Y-13129100D01*
X6943071Y-13114814D01*
X6985928Y-13114814D01*
X7014500Y-13129100D01*
X7028786Y-13157671D01*
X7028786Y-13314814D01*
X7171643Y-13314814D02*
X7171643Y-13114814D01*
X7171643Y-13143386D02*
X7185928Y-13129100D01*
X7214500Y-13114814D01*
X7257357Y-13114814D01*
X7285928Y-13129100D01*
X7300214Y-13157671D01*
X7300214Y-13314814D01*
X7300214Y-13157671D02*
X7314500Y-13129100D01*
X7343071Y-13114814D01*
X7385928Y-13114814D01*
X7414500Y-13129100D01*
X7428786Y-13157671D01*
X7428786Y-13314814D01*
X8014500Y-13000529D02*
X7757357Y-13386243D01*
X8400214Y-13014814D02*
X8428786Y-13014814D01*
X8457357Y-13029100D01*
X8471643Y-13043386D01*
X8485928Y-13071957D01*
X8500214Y-13129100D01*
X8500214Y-13200529D01*
X8485928Y-13257671D01*
X8471643Y-13286243D01*
X8457357Y-13300529D01*
X8428786Y-13314814D01*
X8400214Y-13314814D01*
X8371643Y-13300529D01*
X8357357Y-13286243D01*
X8343071Y-13257671D01*
X8328786Y-13200529D01*
X8328786Y-13129100D01*
X8343071Y-13071957D01*
X8357357Y-13043386D01*
X8371643Y-13029100D01*
X8400214Y-13014814D01*
X8628786Y-13286243D02*
X8643071Y-13300529D01*
X8628786Y-13314814D01*
X8614500Y-13300529D01*
X8628786Y-13286243D01*
X8628786Y-13314814D01*
X8828786Y-13014814D02*
X8857357Y-13014814D01*
X8885928Y-13029100D01*
X8900214Y-13043386D01*
X8914500Y-13071957D01*
X8928786Y-13129100D01*
X8928786Y-13200529D01*
X8914500Y-13257671D01*
X8900214Y-13286243D01*
X8885928Y-13300529D01*
X8857357Y-13314814D01*
X8828786Y-13314814D01*
X8800214Y-13300529D01*
X8785928Y-13286243D01*
X8771643Y-13257671D01*
X8757357Y-13200529D01*
X8757357Y-13129100D01*
X8771643Y-13071957D01*
X8785928Y-13043386D01*
X8800214Y-13029100D01*
X8828786Y-13014814D01*
X9200214Y-13014814D02*
X9057357Y-13014814D01*
X9043071Y-13157671D01*
X9057357Y-13143386D01*
X9085928Y-13129100D01*
X9157357Y-13129100D01*
X9185928Y-13143386D01*
X9200214Y-13157671D01*
X9214500Y-13186243D01*
X9214500Y-13257671D01*
X9200214Y-13286243D01*
X9185928Y-13300529D01*
X9157357Y-13314814D01*
X9085928Y-13314814D01*
X9057357Y-13300529D01*
X9043071Y-13286243D01*
X9500214Y-13314814D02*
X9328786Y-13314814D01*
X9414500Y-13314814D02*
X9414500Y-13014814D01*
X9385928Y-13057671D01*
X9357357Y-13086243D01*
X9328786Y-13100529D01*
X9614500Y-13043386D02*
X9628786Y-13029100D01*
X9657357Y-13014814D01*
X9728786Y-13014814D01*
X9757357Y-13029100D01*
X9771643Y-13043386D01*
X9785928Y-13071957D01*
X9785928Y-13100529D01*
X9771643Y-13143386D01*
X9600214Y-13314814D01*
X9785928Y-13314814D01*
X9900214Y-13014814D02*
X9900214Y-13071957D01*
X10014500Y-13014814D02*
X10014500Y-13071957D01*
X10457357Y-13429100D02*
X10443071Y-13414814D01*
X10414500Y-13371957D01*
X10400214Y-13343386D01*
X10385928Y-13300529D01*
X10371643Y-13229100D01*
X10371643Y-13171957D01*
X10385928Y-13100529D01*
X10400214Y-13057671D01*
X10414500Y-13029100D01*
X10443071Y-12986243D01*
X10457357Y-12971957D01*
X10557357Y-13043386D02*
X10571643Y-13029100D01*
X10600214Y-13014814D01*
X10671643Y-13014814D01*
X10700214Y-13029100D01*
X10714500Y-13043386D01*
X10728786Y-13071957D01*
X10728786Y-13100529D01*
X10714500Y-13143386D01*
X10543071Y-13314814D01*
X10728786Y-13314814D01*
X11085928Y-13314814D02*
X11085928Y-13014814D01*
X11214500Y-13314814D02*
X11214500Y-13157671D01*
X11200214Y-13129100D01*
X11171643Y-13114814D01*
X11128786Y-13114814D01*
X11100214Y-13129100D01*
X11085928Y-13143386D01*
X11400214Y-13314814D02*
X11371643Y-13300529D01*
X11357357Y-13286243D01*
X11343071Y-13257671D01*
X11343071Y-13171957D01*
X11357357Y-13143386D01*
X11371643Y-13129100D01*
X11400214Y-13114814D01*
X11443071Y-13114814D01*
X11471643Y-13129100D01*
X11485928Y-13143386D01*
X11500214Y-13171957D01*
X11500214Y-13257671D01*
X11485928Y-13286243D01*
X11471643Y-13300529D01*
X11443071Y-13314814D01*
X11400214Y-13314814D01*
X11671643Y-13314814D02*
X11643071Y-13300529D01*
X11628786Y-13271957D01*
X11628786Y-13014814D01*
X11900214Y-13300529D02*
X11871643Y-13314814D01*
X11814500Y-13314814D01*
X11785928Y-13300529D01*
X11771643Y-13271957D01*
X11771643Y-13157671D01*
X11785928Y-13129100D01*
X11814500Y-13114814D01*
X11871643Y-13114814D01*
X11900214Y-13129100D01*
X11914500Y-13157671D01*
X11914500Y-13186243D01*
X11771643Y-13214814D01*
X12028786Y-13300529D02*
X12057357Y-13314814D01*
X12114500Y-13314814D01*
X12143071Y-13300529D01*
X12157357Y-13271957D01*
X12157357Y-13257671D01*
X12143071Y-13229100D01*
X12114500Y-13214814D01*
X12071643Y-13214814D01*
X12043071Y-13200529D01*
X12028786Y-13171957D01*
X12028786Y-13157671D01*
X12043071Y-13129100D01*
X12071643Y-13114814D01*
X12114500Y-13114814D01*
X12143071Y-13129100D01*
X12257357Y-13429100D02*
X12271643Y-13414814D01*
X12300214Y-13371957D01*
X12314500Y-13343386D01*
X12328786Y-13300529D01*
X12343071Y-13229100D01*
X12343071Y-13171957D01*
X12328786Y-13100529D01*
X12314500Y-13057671D01*
X12300214Y-13029100D01*
X12271643Y-12986243D01*
X12257357Y-12971957D01*
X5119500Y-13655100D02*
X5199500Y-13575100D01*
X5119500Y-13495100D01*
X5039500Y-13575100D01*
X5119500Y-13655100D01*
X5643071Y-13710814D02*
X5471643Y-13710814D01*
X5557357Y-13710814D02*
X5557357Y-13410814D01*
X5528786Y-13453671D01*
X5500214Y-13482243D01*
X5471643Y-13496529D01*
X5771643Y-13682243D02*
X5785928Y-13696529D01*
X5771643Y-13710814D01*
X5757357Y-13696529D01*
X5771643Y-13682243D01*
X5771643Y-13710814D01*
X6043071Y-13410814D02*
X5985928Y-13410814D01*
X5957357Y-13425100D01*
X5943071Y-13439386D01*
X5914500Y-13482243D01*
X5900214Y-13539386D01*
X5900214Y-13653671D01*
X5914500Y-13682243D01*
X5928786Y-13696529D01*
X5957357Y-13710814D01*
X6014500Y-13710814D01*
X6043071Y-13696529D01*
X6057357Y-13682243D01*
X6071643Y-13653671D01*
X6071643Y-13582243D01*
X6057357Y-13553671D01*
X6043071Y-13539386D01*
X6014500Y-13525100D01*
X5957357Y-13525100D01*
X5928786Y-13539386D01*
X5914500Y-13553671D01*
X5900214Y-13582243D01*
X6257357Y-13410814D02*
X6285928Y-13410814D01*
X6314500Y-13425100D01*
X6328786Y-13439386D01*
X6343071Y-13467957D01*
X6357357Y-13525100D01*
X6357357Y-13596529D01*
X6343071Y-13653671D01*
X6328786Y-13682243D01*
X6314500Y-13696529D01*
X6285928Y-13710814D01*
X6257357Y-13710814D01*
X6228786Y-13696529D01*
X6214500Y-13682243D01*
X6200214Y-13653671D01*
X6185928Y-13596529D01*
X6185928Y-13525100D01*
X6200214Y-13467957D01*
X6214500Y-13439386D01*
X6228786Y-13425100D01*
X6257357Y-13410814D01*
X6543071Y-13410814D02*
X6571643Y-13410814D01*
X6600214Y-13425100D01*
X6614500Y-13439386D01*
X6628786Y-13467957D01*
X6643071Y-13525100D01*
X6643071Y-13596529D01*
X6628786Y-13653671D01*
X6614500Y-13682243D01*
X6600214Y-13696529D01*
X6571643Y-13710814D01*
X6543071Y-13710814D01*
X6514500Y-13696529D01*
X6500214Y-13682243D01*
X6485928Y-13653671D01*
X6471643Y-13596529D01*
X6471643Y-13525100D01*
X6485928Y-13467957D01*
X6500214Y-13439386D01*
X6514500Y-13425100D01*
X6543071Y-13410814D01*
X6771643Y-13710814D02*
X6771643Y-13510814D01*
X6771643Y-13539386D02*
X6785928Y-13525100D01*
X6814500Y-13510814D01*
X6857357Y-13510814D01*
X6885928Y-13525100D01*
X6900214Y-13553671D01*
X6900214Y-13710814D01*
X6900214Y-13553671D02*
X6914500Y-13525100D01*
X6943071Y-13510814D01*
X6985928Y-13510814D01*
X7014500Y-13525100D01*
X7028786Y-13553671D01*
X7028786Y-13710814D01*
X7171643Y-13710814D02*
X7171643Y-13510814D01*
X7171643Y-13539386D02*
X7185928Y-13525100D01*
X7214500Y-13510814D01*
X7257357Y-13510814D01*
X7285928Y-13525100D01*
X7300214Y-13553671D01*
X7300214Y-13710814D01*
X7300214Y-13553671D02*
X7314500Y-13525100D01*
X7343071Y-13510814D01*
X7385928Y-13510814D01*
X7414500Y-13525100D01*
X7428786Y-13553671D01*
X7428786Y-13710814D01*
X8014500Y-13396529D02*
X7757357Y-13782243D01*
X8400214Y-13410814D02*
X8428786Y-13410814D01*
X8457357Y-13425100D01*
X8471643Y-13439386D01*
X8485928Y-13467957D01*
X8500214Y-13525100D01*
X8500214Y-13596529D01*
X8485928Y-13653671D01*
X8471643Y-13682243D01*
X8457357Y-13696529D01*
X8428786Y-13710814D01*
X8400214Y-13710814D01*
X8371643Y-13696529D01*
X8357357Y-13682243D01*
X8343071Y-13653671D01*
X8328786Y-13596529D01*
X8328786Y-13525100D01*
X8343071Y-13467957D01*
X8357357Y-13439386D01*
X8371643Y-13425100D01*
X8400214Y-13410814D01*
X8628786Y-13682243D02*
X8643071Y-13696529D01*
X8628786Y-13710814D01*
X8614500Y-13696529D01*
X8628786Y-13682243D01*
X8628786Y-13710814D01*
X8828786Y-13410814D02*
X8857357Y-13410814D01*
X8885928Y-13425100D01*
X8900214Y-13439386D01*
X8914500Y-13467957D01*
X8928786Y-13525100D01*
X8928786Y-13596529D01*
X8914500Y-13653671D01*
X8900214Y-13682243D01*
X8885928Y-13696529D01*
X8857357Y-13710814D01*
X8828786Y-13710814D01*
X8800214Y-13696529D01*
X8785928Y-13682243D01*
X8771643Y-13653671D01*
X8757357Y-13596529D01*
X8757357Y-13525100D01*
X8771643Y-13467957D01*
X8785928Y-13439386D01*
X8800214Y-13425100D01*
X8828786Y-13410814D01*
X9185928Y-13410814D02*
X9128786Y-13410814D01*
X9100214Y-13425100D01*
X9085928Y-13439386D01*
X9057357Y-13482243D01*
X9043071Y-13539386D01*
X9043071Y-13653671D01*
X9057357Y-13682243D01*
X9071643Y-13696529D01*
X9100214Y-13710814D01*
X9157357Y-13710814D01*
X9185928Y-13696529D01*
X9200214Y-13682243D01*
X9214500Y-13653671D01*
X9214500Y-13582243D01*
X9200214Y-13553671D01*
X9185928Y-13539386D01*
X9157357Y-13525100D01*
X9100214Y-13525100D01*
X9071643Y-13539386D01*
X9057357Y-13553671D01*
X9043071Y-13582243D01*
X9314500Y-13410814D02*
X9500214Y-13410814D01*
X9400214Y-13525100D01*
X9443071Y-13525100D01*
X9471643Y-13539386D01*
X9485928Y-13553671D01*
X9500214Y-13582243D01*
X9500214Y-13653671D01*
X9485928Y-13682243D01*
X9471643Y-13696529D01*
X9443071Y-13710814D01*
X9357357Y-13710814D01*
X9328786Y-13696529D01*
X9314500Y-13682243D01*
X9685928Y-13410814D02*
X9714500Y-13410814D01*
X9743071Y-13425100D01*
X9757357Y-13439386D01*
X9771643Y-13467957D01*
X9785928Y-13525100D01*
X9785928Y-13596529D01*
X9771643Y-13653671D01*
X9757357Y-13682243D01*
X9743071Y-13696529D01*
X9714500Y-13710814D01*
X9685928Y-13710814D01*
X9657357Y-13696529D01*
X9643071Y-13682243D01*
X9628786Y-13653671D01*
X9614500Y-13596529D01*
X9614500Y-13525100D01*
X9628786Y-13467957D01*
X9643071Y-13439386D01*
X9657357Y-13425100D01*
X9685928Y-13410814D01*
X9900214Y-13410814D02*
X9900214Y-13467957D01*
X10014500Y-13410814D02*
X10014500Y-13467957D01*
X10457357Y-13825100D02*
X10443071Y-13810814D01*
X10414500Y-13767957D01*
X10400214Y-13739386D01*
X10385928Y-13696529D01*
X10371643Y-13625100D01*
X10371643Y-13567957D01*
X10385928Y-13496529D01*
X10400214Y-13453671D01*
X10414500Y-13425100D01*
X10443071Y-13382243D01*
X10457357Y-13367957D01*
X10543071Y-13410814D02*
X10728786Y-13410814D01*
X10628786Y-13525100D01*
X10671643Y-13525100D01*
X10700214Y-13539386D01*
X10714500Y-13553671D01*
X10728786Y-13582243D01*
X10728786Y-13653671D01*
X10714500Y-13682243D01*
X10700214Y-13696529D01*
X10671643Y-13710814D01*
X10585928Y-13710814D01*
X10557357Y-13696529D01*
X10543071Y-13682243D01*
X11085928Y-13710814D02*
X11085928Y-13410814D01*
X11214500Y-13710814D02*
X11214500Y-13553671D01*
X11200214Y-13525100D01*
X11171643Y-13510814D01*
X11128786Y-13510814D01*
X11100214Y-13525100D01*
X11085928Y-13539386D01*
X11400214Y-13710814D02*
X11371643Y-13696529D01*
X11357357Y-13682243D01*
X11343071Y-13653671D01*
X11343071Y-13567957D01*
X11357357Y-13539386D01*
X11371643Y-13525100D01*
X11400214Y-13510814D01*
X11443071Y-13510814D01*
X11471643Y-13525100D01*
X11485928Y-13539386D01*
X11500214Y-13567957D01*
X11500214Y-13653671D01*
X11485928Y-13682243D01*
X11471643Y-13696529D01*
X11443071Y-13710814D01*
X11400214Y-13710814D01*
X11671643Y-13710814D02*
X11643071Y-13696529D01*
X11628786Y-13667957D01*
X11628786Y-13410814D01*
X11900214Y-13696529D02*
X11871643Y-13710814D01*
X11814500Y-13710814D01*
X11785928Y-13696529D01*
X11771643Y-13667957D01*
X11771643Y-13553671D01*
X11785928Y-13525100D01*
X11814500Y-13510814D01*
X11871643Y-13510814D01*
X11900214Y-13525100D01*
X11914500Y-13553671D01*
X11914500Y-13582243D01*
X11771643Y-13610814D01*
X12028786Y-13696529D02*
X12057357Y-13710814D01*
X12114500Y-13710814D01*
X12143071Y-13696529D01*
X12157357Y-13667957D01*
X12157357Y-13653671D01*
X12143071Y-13625100D01*
X12114500Y-13610814D01*
X12071643Y-13610814D01*
X12043071Y-13596529D01*
X12028786Y-13567957D01*
X12028786Y-13553671D01*
X12043071Y-13525100D01*
X12071643Y-13510814D01*
X12114500Y-13510814D01*
X12143071Y-13525100D01*
X12257357Y-13825100D02*
X12271643Y-13810814D01*
X12300214Y-13767957D01*
X12314500Y-13739386D01*
X12328786Y-13696529D01*
X12343071Y-13625100D01*
X12343071Y-13567957D01*
X12328786Y-13496529D01*
X12314500Y-13453671D01*
X12300214Y-13425100D01*
X12271643Y-13382243D01*
X12257357Y-13367957D01*
M02*
