G04 #@! TF.GenerationSoftware,KiCad,Pcbnew,5.1.6*
G04 #@! TF.CreationDate,2020-07-27T18:45:12-04:00*
G04 #@! TF.ProjectId,EVE-PCB-V4,4556452d-5043-4422-9d56-342e6b696361,rev?*
G04 #@! TF.SameCoordinates,Original*
G04 #@! TF.FileFunction,Paste,Bot*
G04 #@! TF.FilePolarity,Positive*
%FSLAX46Y46*%
G04 Gerber Fmt 4.6, Leading zero omitted, Abs format (unit mm)*
G04 Created by KiCad (PCBNEW 5.1.6) date 2020-07-27 18:45:12*
%MOMM*%
%LPD*%
G01*
G04 APERTURE LIST*
G04 APERTURE END LIST*
G36*
G01*
X108733000Y-87099000D02*
X108733000Y-87399000D01*
G75*
G02*
X108583000Y-87549000I-150000J0D01*
G01*
X106933000Y-87549000D01*
G75*
G02*
X106783000Y-87399000I0J150000D01*
G01*
X106783000Y-87099000D01*
G75*
G02*
X106933000Y-86949000I150000J0D01*
G01*
X108583000Y-86949000D01*
G75*
G02*
X108733000Y-87099000I0J-150000D01*
G01*
G37*
G36*
G01*
X108733000Y-88369000D02*
X108733000Y-88669000D01*
G75*
G02*
X108583000Y-88819000I-150000J0D01*
G01*
X106933000Y-88819000D01*
G75*
G02*
X106783000Y-88669000I0J150000D01*
G01*
X106783000Y-88369000D01*
G75*
G02*
X106933000Y-88219000I150000J0D01*
G01*
X108583000Y-88219000D01*
G75*
G02*
X108733000Y-88369000I0J-150000D01*
G01*
G37*
G36*
G01*
X108733000Y-89639000D02*
X108733000Y-89939000D01*
G75*
G02*
X108583000Y-90089000I-150000J0D01*
G01*
X106933000Y-90089000D01*
G75*
G02*
X106783000Y-89939000I0J150000D01*
G01*
X106783000Y-89639000D01*
G75*
G02*
X106933000Y-89489000I150000J0D01*
G01*
X108583000Y-89489000D01*
G75*
G02*
X108733000Y-89639000I0J-150000D01*
G01*
G37*
G36*
G01*
X108733000Y-90909000D02*
X108733000Y-91209000D01*
G75*
G02*
X108583000Y-91359000I-150000J0D01*
G01*
X106933000Y-91359000D01*
G75*
G02*
X106783000Y-91209000I0J150000D01*
G01*
X106783000Y-90909000D01*
G75*
G02*
X106933000Y-90759000I150000J0D01*
G01*
X108583000Y-90759000D01*
G75*
G02*
X108733000Y-90909000I0J-150000D01*
G01*
G37*
G36*
G01*
X103783000Y-90909000D02*
X103783000Y-91209000D01*
G75*
G02*
X103633000Y-91359000I-150000J0D01*
G01*
X101983000Y-91359000D01*
G75*
G02*
X101833000Y-91209000I0J150000D01*
G01*
X101833000Y-90909000D01*
G75*
G02*
X101983000Y-90759000I150000J0D01*
G01*
X103633000Y-90759000D01*
G75*
G02*
X103783000Y-90909000I0J-150000D01*
G01*
G37*
G36*
G01*
X103783000Y-89639000D02*
X103783000Y-89939000D01*
G75*
G02*
X103633000Y-90089000I-150000J0D01*
G01*
X101983000Y-90089000D01*
G75*
G02*
X101833000Y-89939000I0J150000D01*
G01*
X101833000Y-89639000D01*
G75*
G02*
X101983000Y-89489000I150000J0D01*
G01*
X103633000Y-89489000D01*
G75*
G02*
X103783000Y-89639000I0J-150000D01*
G01*
G37*
G36*
G01*
X103783000Y-88369000D02*
X103783000Y-88669000D01*
G75*
G02*
X103633000Y-88819000I-150000J0D01*
G01*
X101983000Y-88819000D01*
G75*
G02*
X101833000Y-88669000I0J150000D01*
G01*
X101833000Y-88369000D01*
G75*
G02*
X101983000Y-88219000I150000J0D01*
G01*
X103633000Y-88219000D01*
G75*
G02*
X103783000Y-88369000I0J-150000D01*
G01*
G37*
G36*
G01*
X103783000Y-87099000D02*
X103783000Y-87399000D01*
G75*
G02*
X103633000Y-87549000I-150000J0D01*
G01*
X101983000Y-87549000D01*
G75*
G02*
X101833000Y-87399000I0J150000D01*
G01*
X101833000Y-87099000D01*
G75*
G02*
X101983000Y-86949000I150000J0D01*
G01*
X103633000Y-86949000D01*
G75*
G02*
X103783000Y-87099000I0J-150000D01*
G01*
G37*
M02*
